<svg width="22" height="24" viewBox="0 0 22 24" fill="none" xmlns="http://www.w3.org/2000/svg">
<path d="M10.6659 6.64033C10.9975 6.64033 11.3155 6.50861 11.55 6.27414C11.7844 6.03968 11.9162 5.72167 11.9162 5.39008C11.9162 5.0585 11.7844 4.74049 11.55 4.50602C11.3155 4.27156 10.9975 4.13983 10.6659 4.13983C10.3343 4.13983 10.0163 4.27156 9.78185 4.50602C9.54739 4.74049 9.41567 5.0585 9.41567 5.39008C9.41567 5.72167 9.54739 6.03968 9.78185 6.27414C10.0163 6.50861 10.3343 6.64033 10.6659 6.64033ZM19.6659 17.8393V9.82933H19.8039C21.1434 9.82933 21.6939 8.10733 20.5989 7.33183L11.8239 1.10383C11.4856 0.863496 11.0809 0.734375 10.6659 0.734375C10.2509 0.734375 9.84622 0.863496 9.50791 1.10383L0.729915 7.33183C-0.362086 8.10733 0.185414 9.82783 1.52491 9.82783H1.66591V17.8378C0.764415 18.4168 0.165915 19.4278 0.165915 20.5783V22.5778C0.165915 22.7767 0.244932 22.9675 0.385585 23.1082C0.526237 23.2488 0.717002 23.3278 0.915915 23.3278H20.4159C20.6148 23.3278 20.8056 23.2488 20.9462 23.1082C21.0869 22.9675 21.1659 22.7767 21.1659 22.5778V20.5783C21.1659 19.4278 20.5689 18.4168 19.6659 17.8393ZM10.3749 2.32783C10.4593 2.26803 10.5602 2.23592 10.6637 2.23592C10.7671 2.23592 10.868 2.26803 10.9524 2.32783L19.4109 8.32783H1.91791L10.3764 2.32783H10.3749ZM18.1629 9.82783V17.3368C18.0801 17.3307 17.997 17.3277 17.9139 17.3278H15.1629V9.82933H18.1629V9.82783ZM3.16591 17.3368V9.82933H6.16592V17.3293H3.41491C3.33091 17.3293 3.24691 17.3323 3.16441 17.3383L3.16591 17.3368ZM3.41641 18.8278H17.9169C18.8829 18.8278 19.6659 19.6108 19.6659 20.5783V21.8278H1.66591V20.5783C1.66591 19.6108 2.45041 18.8278 3.41641 18.8278ZM9.91592 17.3278H7.66592V9.82933H9.91592V17.3293V17.3278ZM11.4159 17.3278V9.82933H13.6659V17.3293H11.4159V17.3278Z" fill="#111111"/>
</svg>
