<svg width="31" height="31" viewBox="0 0 31 31" fill="none" xmlns="http://www.w3.org/2000/svg">
<path d="M15.6659 9.14033C15.9975 9.14033 16.3155 9.00861 16.55 8.77414C16.7844 8.53968 16.9162 8.22167 16.9162 7.89008C16.9162 7.5585 16.7844 7.24049 16.55 7.00602C16.3155 6.77156 15.9975 6.63983 15.6659 6.63983C15.3343 6.63983 15.0163 6.77156 14.7819 7.00602C14.5474 7.24049 14.4157 7.5585 14.4157 7.89008C14.4157 8.22167 14.5474 8.53968 14.7819 8.77414C15.0163 9.00861 15.3343 9.14033 15.6659 9.14033ZM5.91591 25.8293H13.1699C12.9442 25.355 12.7915 24.8493 12.7169 24.3293H6.66591V23.0798C6.66591 22.1123 7.45041 21.3293 8.41641 21.3293H13.1714C13.4384 20.7668 13.8014 20.2598 14.2424 19.8293H12.6659V12.3293H14.9159V19.2698C15.3674 18.9548 15.8729 18.7073 16.4159 18.5468V12.3278H18.6659V18.3278H20.1659V12.3293H23.1659V18.3293H23.9144C24.1694 18.3293 24.4199 18.3473 24.6644 18.3833V12.3278H24.8039C26.1434 12.3278 26.6939 10.6073 25.5989 9.83183L16.8239 3.60383C16.4856 3.3635 16.0809 3.23437 15.6659 3.23438C15.2509 3.23438 14.8462 3.3635 14.5079 3.60383L5.72991 9.83183C4.63791 10.6073 5.18541 12.3278 6.52491 12.3278H6.66591V20.3378C5.76441 20.9168 5.16591 21.9278 5.16591 23.0783V25.0778C5.16591 25.2767 5.24493 25.4675 5.38558 25.6082C5.52624 25.7488 5.717 25.8278 5.91591 25.8278V25.8293ZM15.3749 4.82933C15.4593 4.76953 15.5602 4.73742 15.6637 4.73742C15.7671 4.73742 15.868 4.76953 15.9524 4.82933L24.4109 10.8293H6.91791L15.3764 4.82933H15.3749ZM8.16441 19.8368V12.3293H11.1644V19.8293H8.41491C8.33091 19.8293 8.24691 19.8323 8.16441 19.8383V19.8368ZM17.9159 19.8293C16.9214 19.8293 15.9675 20.2244 15.2643 20.9277C14.561 21.6309 14.1659 22.5848 14.1659 23.5793C14.1659 24.5739 14.561 25.5277 15.2643 26.231C15.9675 26.9342 16.9214 27.3293 17.9159 27.3293H18.6659C18.8648 27.3293 19.0556 27.2503 19.1962 27.1097C19.3369 26.969 19.4159 26.7782 19.4159 26.5793C19.4159 26.3804 19.3369 26.1897 19.1962 26.049C19.0556 25.9083 18.8648 25.8293 18.6659 25.8293H17.9159C17.3192 25.8293 16.7469 25.5923 16.3249 25.1703C15.903 24.7484 15.6659 24.1761 15.6659 23.5793C15.6659 22.9826 15.903 22.4103 16.3249 21.9883C16.7469 21.5664 17.3192 21.3293 17.9159 21.3293H18.6659C18.8648 21.3293 19.0556 21.2503 19.1962 21.1097C19.3369 20.969 19.4159 20.7782 19.4159 20.5793C19.4159 20.3804 19.3369 20.1897 19.1962 20.049C19.0556 19.9083 18.8648 19.8293 18.6659 19.8293H17.9159ZM23.1659 19.8293C22.967 19.8293 22.7762 19.9083 22.6356 20.049C22.4949 20.1897 22.4159 20.3804 22.4159 20.5793C22.4159 20.7782 22.4949 20.969 22.6356 21.1097C22.7762 21.2503 22.967 21.3293 23.1659 21.3293H23.9159C24.5127 21.3293 25.0849 21.5664 25.5069 21.9883C25.9289 22.4103 26.1659 22.9826 26.1659 23.5793C26.1659 24.1761 25.9289 24.7484 25.5069 25.1703C25.0849 25.5923 24.5127 25.8293 23.9159 25.8293H23.1659C22.967 25.8293 22.7762 25.9083 22.6356 26.049C22.4949 26.1897 22.4159 26.3804 22.4159 26.5793C22.4159 26.7782 22.4949 26.969 22.6356 27.1097C22.7762 27.2503 22.967 27.3293 23.1659 27.3293H23.9159C24.9105 27.3293 25.8643 26.9342 26.5676 26.231C27.2708 25.5277 27.6659 24.5739 27.6659 23.5793C27.6659 22.5848 27.2708 21.6309 26.5676 20.9277C25.8643 20.2244 24.9105 19.8293 23.9159 19.8293H23.1659ZM17.1659 23.5793C17.1659 23.3804 17.2449 23.1897 17.3856 23.049C17.5262 22.9083 17.717 22.8293 17.9159 22.8293H23.9159C24.1148 22.8293 24.3056 22.9083 24.4462 23.049C24.5869 23.1897 24.6659 23.3804 24.6659 23.5793C24.6659 23.7782 24.5869 23.969 24.4462 24.1097C24.3056 24.2503 24.1148 24.3293 23.9159 24.3293H17.9159C17.717 24.3293 17.5262 24.2503 17.3856 24.1097C17.2449 23.969 17.1659 23.7782 17.1659 23.5793Z" fill="#111111"/>
</svg>
