<svg width="24" height="24" viewBox="0 0 24 24" fill="none" xmlns="http://www.w3.org/2000/svg">
<g clip-path="url(#clip0_5730_131640)">
<path fill-rule="evenodd" clip-rule="evenodd" d="M16.0417 22.0469C17.5888 22.0469 19.0725 21.4323 20.1665 20.3383C21.2604 19.2444 21.875 17.7606 21.875 16.2135C21.875 14.6664 21.2604 13.1827 20.1665 12.0888C19.0725 10.9948 17.5888 10.3802 16.0417 10.3802C14.4946 10.3802 13.0108 10.9948 11.9169 12.0888C10.8229 13.1827 10.2083 14.6664 10.2083 16.2135C10.2083 17.7606 10.8229 19.2444 11.9169 20.3383C13.0108 21.4323 14.4946 22.0469 16.0417 22.0469ZM23.3333 16.2135C23.3333 18.1474 22.5651 20.0021 21.1977 21.3695C19.8302 22.737 17.9755 23.5052 16.0417 23.5052C14.1078 23.5052 12.2531 22.737 10.8857 21.3695C9.51823 20.0021 8.75 18.1474 8.75 16.2135C8.75 14.2797 9.51823 12.425 10.8857 11.0576C12.2531 9.6901 14.1078 8.92188 16.0417 8.92188C17.9755 8.92188 19.8302 9.6901 21.1977 11.0576C22.5651 12.425 23.3333 14.2797 23.3333 16.2135Z" fill="#111111"/>
<path d="M13.7637 17.5928C13.8322 18.462 14.5191 19.1386 15.7514 19.2203V19.862H16.2982V19.2159C17.5743 19.127 18.3195 18.4445 18.3195 17.4557C18.3195 16.5545 17.7507 16.0907 16.7299 15.8516L16.2982 15.7495V13.9995C16.8466 14.0622 17.1937 14.3611 17.2768 14.7753H18.2364C18.1678 13.9368 17.4489 13.282 16.2982 13.2105V12.5703H15.7514V13.2266C14.662 13.333 13.9212 13.9878 13.9212 14.9153C13.9212 15.7349 14.4724 16.257 15.3897 16.4699L15.7514 16.5589V18.4139C15.1914 18.3293 14.8195 18.0201 14.7364 17.5928H13.7622H13.7637ZM15.747 15.6182C15.2089 15.4943 14.9172 15.2391 14.9172 14.857C14.9172 14.4282 15.2322 14.1074 15.7514 14.0141V15.6182H15.747ZM16.377 16.7061C17.0318 16.8578 17.3322 17.1028 17.3322 17.5359C17.3322 18.0303 16.9574 18.3686 16.2982 18.4314V16.6886L16.377 16.7061Z" fill="#111111"/>
<path d="M1.45833 0.171875C1.07156 0.171875 0.700627 0.32552 0.427136 0.599011C0.153645 0.872502 0 1.24343 0 1.63021L0 13.2969C0 13.6836 0.153645 14.0546 0.427136 14.3281C0.700627 14.6016 1.07156 14.7552 1.45833 14.7552H7.41271C7.49729 14.2535 7.62417 13.7665 7.78896 13.2969H4.375C4.375 12.5233 4.06771 11.7815 3.52073 11.2345C2.97375 10.6875 2.23188 10.3802 1.45833 10.3802V4.54688C2.23188 4.54688 2.97375 4.23958 3.52073 3.6926C4.06771 3.14562 4.375 2.40376 4.375 1.63021H18.9583C18.9583 2.40376 19.2656 3.14562 19.8126 3.6926C20.3596 4.23958 21.1015 4.54688 21.875 4.54688V9.69188C22.4292 10.1877 22.9206 10.7535 23.3333 11.3748V1.63021C23.3333 1.24343 23.1797 0.872502 22.9062 0.599011C22.6327 0.32552 22.2618 0.171875 21.875 0.171875L1.45833 0.171875Z" fill="#111111"/>
<path d="M14.5804 7.58285L14.5833 7.46181C14.583 6.95954 14.453 6.46587 14.2059 6.0286C13.9588 5.59133 13.603 5.22527 13.1729 4.9659C12.7428 4.70652 12.253 4.5626 11.7509 4.54809C11.2489 4.53358 10.7516 4.64896 10.3072 4.88307C9.86285 5.11717 9.48647 5.46206 9.21452 5.88433C8.94257 6.3066 8.78428 6.79194 8.75497 7.29334C8.72566 7.79475 8.82633 8.29523 9.04723 8.74631C9.26813 9.19739 9.60177 9.58378 10.0158 9.86806C11.2755 8.66824 12.8651 7.87243 14.5804 7.58285Z" fill="#111111"/>
</g>
<defs>
<clipPath id="clip0_5730_131640">
<rect width="23.3333" height="23.3333" fill="white" transform="translate(0 0.171875)"/>
</clipPath>
</defs>
</svg>
