<svg width="28" height="27" viewBox="0 0 28 27" fill="none" xmlns="http://www.w3.org/2000/svg">
<path d="M23.9993 21.0052L22.821 19.8269L20.666 21.9819V15.1719H18.9993V21.9819L16.8443 19.8269L15.666 21.0052L19.8327 25.1719L23.9993 21.0052Z" fill="#111111"/>
<path d="M8.99943 23.5078V8.50781H18.9994V12.6745H20.6661V5.17448C20.6657 4.73259 20.4899 4.30892 20.1775 3.99646C19.865 3.68399 19.4413 3.50825 18.9994 3.50781H8.99943C8.55754 3.50825 8.13387 3.68399 7.82141 3.99646C7.50894 4.30892 7.3332 4.73259 7.33276 5.17448V23.5078C7.3332 23.9497 7.50894 24.3734 7.82141 24.6858C8.13387 24.9983 8.55754 25.174 8.99943 25.1745H13.9994V23.5078H8.99943ZM8.99943 5.17448H18.9994V6.84115H8.99943V5.17448Z" fill="#111111"/>
</svg>
