<svg width="28" height="21" viewBox="0 0 28 21" fill="none" xmlns="http://www.w3.org/2000/svg">
<path d="M23.9993 1.67448C24.4414 1.67448 24.8653 1.85007 25.1779 2.16263C25.4904 2.4752 25.666 2.89912 25.666 3.34115V16.6745C25.666 17.1165 25.4904 17.5404 25.1779 17.853C24.8653 18.1656 24.4414 18.3411 23.9993 18.3411H3.99935C3.55732 18.3411 3.1334 18.1656 2.82084 17.853C2.50828 17.5404 2.33268 17.1165 2.33268 16.6745V3.34115C2.33268 2.89912 2.50828 2.4752 2.82084 2.16263C3.1334 1.85007 3.55732 1.67448 3.99935 1.67448H23.9993ZM3.99935 0.0078125C3.11529 0.0078125 2.26745 0.359002 1.64233 0.984123C1.01721 1.60924 0.666016 2.45709 0.666016 3.34115L0.666016 16.6745C0.666016 17.5585 1.01721 18.4064 1.64233 19.0315C2.26745 19.6566 3.11529 20.0078 3.99935 20.0078H23.9993C24.8834 20.0078 25.7312 19.6566 26.3564 19.0315C26.9815 18.4064 27.3327 17.5585 27.3327 16.6745V3.34115C27.3327 2.45709 26.9815 1.60924 26.3564 0.984123C25.7312 0.359002 24.8834 0.0078125 23.9993 0.0078125H3.99935Z" fill="#111111"/>
<path d="M3.99927 5.84115C3.99927 5.62013 4.08707 5.40817 4.24335 5.25189C4.39963 5.09561 4.61159 5.00781 4.8326 5.00781H8.16593C8.38695 5.00781 8.59891 5.09561 8.75519 5.25189C8.91147 5.40817 8.99927 5.62013 8.99927 5.84115V7.50781C8.99927 7.72883 8.91147 7.94079 8.75519 8.09707C8.59891 8.25335 8.38695 8.34115 8.16593 8.34115H4.8326C4.61159 8.34115 4.39963 8.25335 4.24335 8.09707C4.08707 7.94079 3.99927 7.72883 3.99927 7.50781V5.84115ZM3.99927 10.8411C3.99927 10.6201 4.08707 10.4082 4.24335 10.2519C4.39963 10.0956 4.61159 10.0078 4.8326 10.0078H13.1659C13.3869 10.0078 13.5989 10.0956 13.7552 10.2519C13.9115 10.4082 13.9993 10.6201 13.9993 10.8411C13.9993 11.0622 13.9115 11.2741 13.7552 11.4304C13.5989 11.5867 13.3869 11.6745 13.1659 11.6745H4.8326C4.61159 11.6745 4.39963 11.5867 4.24335 11.4304C4.08707 11.2741 3.99927 11.0622 3.99927 10.8411ZM3.99927 14.1745C3.99927 13.9535 4.08707 13.7415 4.24335 13.5852C4.39963 13.4289 4.61159 13.3411 4.8326 13.3411H6.49927C6.72028 13.3411 6.93224 13.4289 7.08852 13.5852C7.2448 13.7415 7.3326 13.9535 7.3326 14.1745C7.3326 14.3955 7.2448 14.6075 7.08852 14.7637C6.93224 14.92 6.72028 15.0078 6.49927 15.0078H4.8326C4.61159 15.0078 4.39963 14.92 4.24335 14.7637C4.08707 14.6075 3.99927 14.3955 3.99927 14.1745ZM8.99927 14.1745C8.99927 13.9535 9.08706 13.7415 9.24334 13.5852C9.39963 13.4289 9.61159 13.3411 9.8326 13.3411H11.4993C11.7203 13.3411 11.9322 13.4289 12.0885 13.5852C12.2448 13.7415 12.3326 13.9535 12.3326 14.1745C12.3326 14.3955 12.2448 14.6075 12.0885 14.7637C11.9322 14.92 11.7203 15.0078 11.4993 15.0078H9.8326C9.61159 15.0078 9.39963 14.92 9.24334 14.7637C9.08706 14.6075 8.99927 14.3955 8.99927 14.1745ZM13.9993 14.1745C13.9993 13.9535 14.0871 13.7415 14.2433 13.5852C14.3996 13.4289 14.6116 13.3411 14.8326 13.3411H16.4993C16.7203 13.3411 16.9322 13.4289 17.0885 13.5852C17.2448 13.7415 17.3326 13.9535 17.3326 14.1745C17.3326 14.3955 17.2448 14.6075 17.0885 14.7637C16.9322 14.92 16.7203 15.0078 16.4993 15.0078H14.8326C14.6116 15.0078 14.3996 14.92 14.2433 14.7637C14.0871 14.6075 13.9993 14.3955 13.9993 14.1745ZM18.9993 14.1745C18.9993 13.9535 19.0871 13.7415 19.2433 13.5852C19.3996 13.4289 19.6116 13.3411 19.8326 13.3411H21.4993C21.7203 13.3411 21.9322 13.4289 22.0885 13.5852C22.2448 13.7415 22.3326 13.9535 22.3326 14.1745C22.3326 14.3955 22.2448 14.6075 22.0885 14.7637C21.9322 14.92 21.7203 15.0078 21.4993 15.0078H19.8326C19.6116 15.0078 19.3996 14.92 19.2433 14.7637C19.0871 14.6075 18.9993 14.3955 18.9993 14.1745Z" fill="#111111"/>
</svg>
