<svg width="15" height="16" viewBox="0 0 15 16" fill="none" xmlns="http://www.w3.org/2000/svg">
<path d="M7.5 14.5625C5.75952 14.5625 4.09032 13.8711 2.85961 12.6404C1.6289 11.4097 0.9375 9.74048 0.9375 8C0.9375 6.25952 1.6289 4.59032 2.85961 3.35961C4.09032 2.1289 5.75952 1.4375 7.5 1.4375C9.24048 1.4375 10.9097 2.1289 12.1404 3.35961C13.3711 4.59032 14.0625 6.25952 14.0625 8C14.0625 9.74048 13.3711 11.4097 12.1404 12.6404C10.9097 13.8711 9.24048 14.5625 7.5 14.5625ZM7.5 15.5C9.48912 15.5 11.3968 14.7098 12.8033 13.3033C14.2098 11.8968 15 9.98912 15 8C15 6.01088 14.2098 4.10322 12.8033 2.6967C11.3968 1.29018 9.48912 0.5 7.5 0.5C5.51088 0.5 3.60322 1.29018 2.1967 2.6967C0.790176 4.10322 0 6.01088 0 8C0 9.98912 0.790176 11.8968 2.1967 13.3033C3.60322 14.7098 5.51088 15.5 7.5 15.5Z" fill="#008AA7"/>
<path d="M8.37183 6.67625L6.22495 6.94531L6.14808 7.30156L6.56996 7.37937C6.84558 7.445 6.89996 7.54438 6.83996 7.81906L6.14808 11.0703C5.96621 11.9113 6.24652 12.3069 6.90558 12.3069C7.41652 12.3069 8.00996 12.0706 8.27902 11.7463L8.36152 11.3563C8.17402 11.5213 7.90027 11.5869 7.71839 11.5869C7.46058 11.5869 7.36683 11.4059 7.43339 11.0872L8.37183 6.67625ZM8.43746 4.71875C8.43746 4.96739 8.33868 5.20585 8.16287 5.38166C7.98705 5.55748 7.7486 5.65625 7.49996 5.65625C7.25131 5.65625 7.01286 5.55748 6.83704 5.38166C6.66123 5.20585 6.56246 4.96739 6.56246 4.71875C6.56246 4.47011 6.66123 4.23165 6.83704 4.05584C7.01286 3.88002 7.25131 3.78125 7.49996 3.78125C7.7486 3.78125 7.98705 3.88002 8.16287 4.05584C8.33868 4.23165 8.43746 4.47011 8.43746 4.71875Z" fill="#008AA7"/>
</svg>
