<svg width="24" height="15" viewBox="0 0 24 15" fill="none" xmlns="http://www.w3.org/2000/svg">
<g clip-path="url(#clip0_5730_131560)">
<path d="M21.5376 14.9987H2.0376C1.63977 14.9987 1.25824 14.8407 0.976938 14.5594C0.695633 14.2781 0.537598 13.8966 0.537598 13.4987L0.537598 7.18875H1.61822L1.86197 6.59875H2.4076L2.65072 7.18625H4.77697V6.73938L4.96697 7.18937H6.07072L6.26072 6.73187V7.18813H11.5438V6.22312H11.6438C11.7151 6.22563 11.7357 6.23187 11.7357 6.35063V7.18937H14.4688V6.965C14.7482 7.10687 15.0776 7.19 15.427 7.19L15.4863 7.18937H15.4832H16.6332L16.8795 6.60187H17.4251L17.6657 7.18937H19.882V6.63063L20.217 7.18937H21.9895V3.49937H20.2351V3.935L19.9895 3.49937H18.1857V3.935L17.9601 3.49937H15.5245C15.1554 3.48073 14.7878 3.55667 14.4563 3.72L14.4695 3.71438V3.49937H12.7895V3.71438C12.5861 3.5541 12.3293 3.47743 12.0713 3.5H12.0751H5.93572L5.52385 4.45312L5.10072 3.5H3.16697V3.93563L2.95385 3.5H1.30385L0.539473 5.25V1.5C0.539473 1.10218 0.697508 0.720644 0.978812 0.43934C1.26012 0.158035 1.64165 0 2.03947 0H21.5395C21.9373 0 22.3188 0.158035 22.6001 0.43934C22.8814 0.720644 23.0395 1.10218 23.0395 1.5V8.05H21.8688C21.8501 8.04875 21.8276 8.04875 21.8057 8.04875C21.5345 8.04875 21.2826 8.13 21.0726 8.26937L21.0776 8.26625V8.05H19.3463C19.0759 8.03505 18.8083 8.11192 18.587 8.26813L18.5907 8.26562V8.04937H15.4995V8.26562C15.2464 8.12291 14.9606 8.0484 14.6701 8.04937H14.6457H14.647H12.6076V8.26562C12.3412 8.09495 12.025 8.019 11.7101 8.05L11.7157 8.04937H9.43385L8.91135 8.61438L8.4226 8.04937H5.01385V11.7419H8.35885L8.89697 11.1681L9.40385 11.7419H11.4657V10.8775H11.7532C12.0297 10.8883 12.3054 10.8421 12.5632 10.7419L12.5495 10.7469V11.7431H14.2495V10.7812H14.3313C14.4351 10.7812 14.4457 10.785 14.4457 10.89V11.7437H19.612L19.6751 11.745C19.9713 11.745 20.2476 11.6562 20.4776 11.5044L20.472 11.5075V11.7437H22.1107L22.1888 11.745C22.4957 11.745 22.7876 11.6819 23.0526 11.5675L23.0382 11.5731V13.4994C23.0382 13.8972 22.8802 14.2787 22.5989 14.56C22.3176 14.8413 21.936 14.9994 21.5382 14.9994L21.5376 14.9987ZM13.7282 11.2244H13.092V8.5775H14.552C14.8157 8.55306 15.0812 8.59742 15.3226 8.70625L15.3126 8.7025C15.5082 8.81 15.6388 9.015 15.6388 9.25L15.6376 9.29188V9.29L15.6382 9.31375C15.6382 9.6175 15.4551 9.87875 15.1926 9.9925L15.1876 9.99438C15.3132 10.0394 15.4182 10.1163 15.4963 10.2156L15.4976 10.2169C15.5858 10.3629 15.6228 10.5343 15.6026 10.7037L15.6032 10.7V11.2237H14.9682V10.8925C14.9983 10.7121 14.9621 10.527 14.8663 10.3713L14.8682 10.3744C14.8022 10.3243 14.7268 10.2881 14.6465 10.268C14.5661 10.2479 14.4825 10.2444 14.4007 10.2575L14.4045 10.2569H13.7282V11.2237V11.2244ZM13.7282 9.12438V9.71875H14.497C14.6055 9.72878 14.7148 9.70934 14.8132 9.6625L14.8095 9.66438C14.8497 9.6384 14.8828 9.60278 14.9057 9.56075C14.9286 9.51872 14.9407 9.47162 14.9407 9.42375L14.9401 9.40938V9.41C14.9432 9.36223 14.9327 9.31456 14.9098 9.27252C14.8869 9.23048 14.8525 9.1958 14.8107 9.1725L14.8095 9.17188C14.7146 9.12946 14.6104 9.11223 14.507 9.12187H14.5095L13.7282 9.12438ZM8.0876 11.2237H5.58322V8.5775H8.12697L8.9051 9.445L9.70947 8.5775H11.7301C12.4476 8.5775 12.7963 8.86312 12.7963 9.44938C12.7963 10.0463 12.4357 10.3363 11.6963 10.3363H10.9057V11.2231H9.67635L8.8976 10.3487L8.08822 11.2237H8.0876ZM10.2757 8.86125L9.30447 9.905L10.2757 10.9825V8.86125ZM6.21385 10.1456V10.6719H7.76885L8.4876 9.89563L7.79635 9.12438H6.21322V9.60563H7.60197V10.145L6.21385 10.1456ZM10.9057 9.125V9.79875H11.7226C11.9726 9.79875 12.1163 9.67125 12.1163 9.44875C12.1163 9.23625 11.9826 9.12438 11.7295 9.12438L10.9057 9.125ZM22.1795 11.225H20.9582V10.6562H22.1745C22.2655 10.6688 22.3578 10.645 22.4313 10.59L22.4307 10.5906C22.4542 10.5688 22.4729 10.5424 22.4857 10.5131C22.4985 10.4837 22.5051 10.452 22.5051 10.42V10.41C22.5051 10.3784 22.4983 10.3471 22.485 10.3184C22.4717 10.2897 22.4524 10.2642 22.4282 10.2437C22.3636 10.197 22.2838 10.1761 22.2045 10.185H22.2057L22.0888 10.1812C21.5176 10.1662 20.8707 10.1488 20.8707 9.36563C20.8707 8.98438 21.1095 8.5775 21.7776 8.5775H23.0382V9.14125H21.8851C21.796 9.13128 21.7061 9.14919 21.6276 9.1925L21.6301 9.19125C21.5992 9.21156 21.5744 9.2398 21.5583 9.27302C21.5421 9.30623 21.5352 9.34319 21.5382 9.38V9.37938V9.38625C21.5382 9.42836 21.5515 9.4694 21.5762 9.50352C21.6009 9.53764 21.6357 9.56309 21.6757 9.57625L21.677 9.57687C21.7562 9.60131 21.8392 9.61147 21.922 9.60688H21.9201L22.2632 9.61563C22.5219 9.58981 22.7803 9.66682 22.9826 9.83L22.9807 9.82875C22.9995 9.84375 23.0157 9.86 23.0301 9.87813L23.0307 9.87875L23.0382 10.8862C22.9331 11.0091 22.7994 11.1042 22.6489 11.1631C22.4984 11.2221 22.3357 11.2431 22.1751 11.2244L22.1795 11.225ZM19.7113 11.225H18.4788V10.6562H19.7051C19.7969 10.6683 19.8897 10.6445 19.9645 10.59L19.9632 10.5906C19.9866 10.5688 20.0052 10.5423 20.0178 10.513C20.0305 10.4836 20.037 10.452 20.037 10.42V10.4137C20.0369 10.3816 20.0301 10.3498 20.0168 10.3205C20.0036 10.2912 19.9842 10.265 19.9601 10.2437C19.8943 10.197 19.8135 10.176 19.7332 10.185H19.7345L19.6182 10.1812C19.0488 10.1662 18.4026 10.1488 18.4026 9.36563C18.4026 8.98438 18.6401 8.5775 19.307 8.5775H20.5745V9.14125H19.4145C19.326 9.13138 19.2367 9.1493 19.1588 9.1925L19.1613 9.19125C19.1285 9.21384 19.1024 9.24489 19.0858 9.2811C19.0691 9.31731 19.0625 9.35734 19.0668 9.39697C19.071 9.4366 19.0858 9.47435 19.1098 9.50624C19.1337 9.53813 19.1657 9.56296 19.2026 9.57812L19.2038 9.57875C19.2841 9.60337 19.3681 9.61353 19.452 9.60875H19.4501L19.7907 9.6175C20.0507 9.59245 20.3103 9.66955 20.5145 9.8325L20.5126 9.83063C20.5813 9.90634 20.6335 9.99548 20.666 10.0924C20.6985 10.1893 20.7105 10.2919 20.7013 10.3937V10.3906C20.7032 10.9425 20.3688 11.2237 19.7095 11.2237L19.7113 11.225ZM18.1001 11.225H15.9876V8.57688H18.0982V9.12375H16.6188V9.605H18.0638V10.1444H16.6188V10.6706L18.1001 10.6731V11.2231V11.225ZM19.3313 6.67125H18.0432L17.797 6.08125H16.4832L16.2445 6.67125H15.5045C15.1721 6.68877 14.8449 6.58406 14.5845 6.37687L14.5876 6.37875C14.4639 6.2422 14.37 6.08136 14.3119 5.90649C14.2537 5.73163 14.2327 5.54657 14.2501 5.36313L14.2495 5.36812C14.2334 5.1813 14.2554 4.99316 14.3143 4.81512C14.3732 4.63709 14.4677 4.47289 14.592 4.3325L14.5907 4.33375C14.722 4.21899 14.8754 4.13247 15.0416 4.07957C15.2077 4.02666 15.3829 4.00852 15.5563 4.02625L15.5513 4.02563H16.1638V4.59H15.5638C15.4761 4.57869 15.3868 4.58689 15.3026 4.614C15.2183 4.64112 15.1411 4.68649 15.0763 4.74688L15.077 4.74625C14.9433 4.91738 14.8785 5.13226 14.8951 5.34875V5.34563C14.8752 5.56804 14.9377 5.79003 15.0707 5.96938L15.0688 5.96688C15.1931 6.06842 15.3521 6.11732 15.512 6.10313H15.5095H15.7932L16.6876 4.02187H17.6376L18.7082 6.52188V4.02187H19.6713L20.7826 5.86438V4.02187H21.4326V6.66687H20.5301L19.3301 4.68062V6.66687L19.3313 6.67125ZM17.1445 4.4725L16.7088 5.5275H17.582L17.1445 4.4725ZM11.0201 6.67H10.3876V4.02375H11.8426C12.1082 3.99619 12.3763 4.04134 12.6182 4.15438L12.6088 4.15063C12.7061 4.20442 12.7872 4.28327 12.8437 4.379C12.9002 4.47473 12.93 4.58384 12.9301 4.695L12.9288 4.73875V4.73688V4.75625C12.9289 4.9006 12.8873 5.04189 12.809 5.16317C12.7308 5.28446 12.6191 5.38058 12.4876 5.44L12.4826 5.44187C12.6082 5.48937 12.7138 5.56562 12.7945 5.66313L12.7957 5.66437C12.8849 5.81099 12.9217 5.98351 12.9001 6.15375L12.9007 6.15V6.66938H12.2626L12.2601 6.33563V6.28562C12.2828 6.12244 12.2467 5.95649 12.1582 5.8175L12.1601 5.82062C12.0939 5.77199 12.0187 5.73696 11.9389 5.71754C11.8591 5.69812 11.7762 5.69471 11.6951 5.7075L11.6988 5.70688H11.0207V6.66938L11.0201 6.67ZM11.0201 4.57438V5.16187H11.7876C11.896 5.17364 12.0055 5.15412 12.1032 5.10562L12.1001 5.10688C12.1401 5.08254 12.1732 5.04831 12.1962 5.00748C12.2192 4.96666 12.2313 4.9206 12.2313 4.87375L12.2307 4.85625V4.85687C12.2339 4.80939 12.2231 4.762 12.1997 4.72058C12.1762 4.67915 12.1412 4.64549 12.0988 4.62375L12.0976 4.62313C12.0025 4.58232 11.8989 4.56516 11.7957 4.57312H11.7976L11.0201 4.57438ZM4.3226 6.67H3.0376L2.79447 6.08H1.47697L1.23197 6.67H0.544473L1.6776 4.02375H2.61697L3.6926 6.52812V4.02375H4.72447L5.55197 5.81812L6.3126 4.02375H7.36572V6.66875H6.71572L6.71447 4.59875L5.7976 6.66938H5.2426L4.32322 4.59562V6.66938L4.3226 6.67ZM2.1326 4.4725L1.70197 5.5275H2.56572L2.1326 4.4725ZM13.9376 6.66938H13.2926V4.02375H13.9382V6.66875L13.9376 6.66938ZM9.94635 6.66938H7.8376V4.02375H9.9501V4.57375H8.4701V5.05063H9.91447V5.59375H8.46885V6.1225H9.94885V6.66875L9.94635 6.66938Z" fill="#111111"/>
</g>
<defs>
<clipPath id="clip0_5730_131560">
<rect width="22.5" height="15" fill="white" transform="translate(0.537598)"/>
</clipPath>
</defs>
</svg>
