<svg width="20" height="15" viewBox="0 0 20 15" fill="none" xmlns="http://www.w3.org/2000/svg">
<g clip-path="url(#clip0_5730_131546)">
<path d="M3.50857 14.9282V13.9354C3.50857 13.5548 3.27686 13.3066 2.8797 13.3066C2.68115 13.3066 2.46603 13.3728 2.31708 13.5879C2.2013 13.4059 2.03585 13.3066 1.78764 13.3066C1.62211 13.3066 1.45673 13.3562 1.32429 13.5383V13.3397H0.976807V14.9282H1.32429V14.0512C1.32429 13.77 1.47324 13.6375 1.70495 13.6375C1.93651 13.6375 2.05243 13.7865 2.05243 14.0512V14.9282H2.39992V14.0512C2.39992 13.77 2.5653 13.6375 2.78042 13.6375C3.01213 13.6375 3.12791 13.7865 3.12791 14.0512V14.9282H3.50857ZM8.65462 13.3397H8.09208V12.8599H7.7446V13.3397H7.4302V13.6541H7.74452V14.3822C7.74452 14.7463 7.89346 14.9613 8.29063 14.9613C8.43957 14.9613 8.60495 14.9117 8.72088 14.8455L8.62153 14.5476C8.52226 14.6138 8.40648 14.6304 8.32372 14.6304C8.15826 14.6304 8.09208 14.5311 8.09208 14.3656V13.6541H8.65462V13.3397ZM11.6 13.3066C11.4015 13.3066 11.2691 13.4059 11.1864 13.5383V13.3397H10.8389V14.9282H11.1864V14.0347C11.1864 13.77 11.3022 13.621 11.5173 13.621C11.5835 13.621 11.6662 13.6376 11.7324 13.6541L11.8317 13.3232C11.7655 13.3066 11.6662 13.3066 11.6 13.3066V13.3066ZM7.14889 13.4721C6.98336 13.3562 6.75173 13.3066 6.50352 13.3066C6.10643 13.3066 5.84171 13.5052 5.84171 13.8196C5.84171 14.0844 6.04025 14.2332 6.38774 14.2829L6.55319 14.2995C6.73522 14.3325 6.8345 14.3822 6.8345 14.465C6.8345 14.5807 6.70213 14.6635 6.47043 14.6635C6.23879 14.6635 6.05676 14.5807 5.9409 14.498L5.77545 14.7628C5.95748 14.8951 6.2057 14.9613 6.45384 14.9613C6.91718 14.9613 7.18198 14.7463 7.18198 14.4484C7.18198 14.1671 6.96686 14.0181 6.63588 13.9685L6.47043 13.9519C6.32148 13.9354 6.2057 13.9023 6.2057 13.8031C6.2057 13.6872 6.32148 13.621 6.50352 13.621C6.70213 13.621 6.90068 13.7037 6.99995 13.7534L7.14889 13.4721ZM16.3822 13.3066C16.1836 13.3066 16.0512 13.4059 15.9684 13.5383V13.3397H15.621V14.9282H15.9684V14.0347C15.9684 13.77 16.0843 13.621 16.2993 13.621C16.3656 13.621 16.4484 13.6376 16.5145 13.6541L16.6138 13.3232C16.5476 13.3066 16.4484 13.3066 16.3822 13.3066ZM11.9475 14.134C11.9475 14.6138 12.2784 14.9613 12.7915 14.9613C13.0231 14.9613 13.1885 14.9117 13.354 14.7794L13.1885 14.498C13.0562 14.5973 12.9238 14.6469 12.7749 14.6469C12.4936 14.6469 12.295 14.4484 12.295 14.134C12.295 13.8362 12.4936 13.6375 12.7749 13.621C12.9238 13.621 13.0562 13.6706 13.1885 13.77L13.354 13.4887C13.1885 13.3562 13.0231 13.3066 12.7915 13.3066C12.2784 13.3066 11.9475 13.6541 11.9475 14.134ZM15.1577 14.134V13.3397H14.8102V13.5383C14.6943 13.3894 14.5289 13.3066 14.3138 13.3066C13.867 13.3066 13.5195 13.6541 13.5195 14.134C13.5195 14.6138 13.867 14.9613 14.3138 14.9613C14.5454 14.9613 14.7109 14.8786 14.8102 14.7297V14.9282H15.1577V14.134ZM13.8835 14.134C13.8835 13.8527 14.0655 13.621 14.3634 13.621C14.6447 13.621 14.8433 13.8362 14.8433 14.134C14.8433 14.4153 14.6447 14.6469 14.3634 14.6469C14.0655 14.6303 13.8835 14.4153 13.8835 14.134ZM9.73025 13.3066C9.26691 13.3066 8.93593 13.6375 8.93593 14.134C8.93593 14.6304 9.26683 14.9613 9.74676 14.9613C9.97839 14.9613 10.2101 14.8951 10.3921 14.7463L10.2266 14.498C10.0942 14.5973 9.92879 14.6635 9.76334 14.6635C9.54821 14.6635 9.33309 14.5642 9.28341 14.2828H10.4583V14.1506C10.4749 13.6375 10.177 13.3066 9.73017 13.3066H9.73025ZM9.73025 13.6045C9.9453 13.6045 10.0943 13.7369 10.1273 13.9851H9.3C9.33309 13.77 9.48203 13.6045 9.73025 13.6045ZM18.3513 14.134V12.7109H18.0038V13.5383C17.8879 13.3894 17.7225 13.3066 17.5073 13.3066C17.0606 13.3066 16.7131 13.6541 16.7131 14.134C16.7131 14.6138 17.0606 14.9613 17.5073 14.9613C17.739 14.9613 17.9045 14.8786 18.0038 14.7297V14.9282H18.3513V14.134ZM17.0772 14.134C17.0772 13.8527 17.2591 13.621 17.557 13.621C17.8383 13.621 18.0369 13.8362 18.0369 14.134C18.0369 14.4153 17.8383 14.6469 17.557 14.6469C17.2591 14.6303 17.0772 14.4153 17.0772 14.134ZM5.46105 14.134V13.3397H5.11357V13.5383C4.99771 13.3894 4.83226 13.3066 4.61713 13.3066C4.17037 13.3066 3.82289 13.6541 3.82289 14.134C3.82289 14.6138 4.17037 14.9613 4.61713 14.9613C4.84884 14.9613 5.01429 14.8786 5.11357 14.7297V14.9282H5.46105V14.134ZM4.17037 14.134C4.17037 13.8527 4.35241 13.621 4.65022 13.621C4.93153 13.621 5.13015 13.8362 5.13015 14.134C5.13015 14.4153 4.93153 14.6469 4.65022 14.6469C4.35241 14.6303 4.17037 14.4153 4.17037 14.134Z" fill="black"/>
<path d="M7.03296 1.27344H12.2453V10.6391H7.03296V1.27344Z" fill="#FF5F00"/>
<path d="M7.36398 5.95696C7.36398 4.05407 8.2575 2.36623 9.63087 1.2741C8.62157 0.479849 7.34747 0 5.95752 0C2.66453 0 0.000488281 2.66405 0.000488281 5.95696C0.000488281 9.2498 2.66453 11.9139 5.95745 11.9139C7.3474 11.9139 8.6215 11.4341 9.63087 10.6397C8.2575 9.5642 7.36398 7.85985 7.36398 5.95696Z" fill="#EB001B"/>
<path d="M19.2778 5.95696C19.2778 9.2498 16.6138 11.9139 13.3209 11.9139C11.9309 11.9139 10.6568 11.4341 9.64746 10.6397C11.0374 9.54769 11.9144 7.85985 11.9144 5.95696C11.9144 4.05407 11.0208 2.36623 9.64746 1.2741C10.6568 0.479849 11.9309 0 13.3209 0C16.6138 0 19.2779 2.68063 19.2779 5.95696H19.2778Z" fill="#F79E1B"/>
</g>
<defs>
<clipPath id="clip0_5730_131546">
<rect width="19.2975" height="15" fill="white"/>
</clipPath>
</defs>
</svg>
