<svg width="32" height="11" viewBox="0 0 32 11" fill="none" xmlns="http://www.w3.org/2000/svg">
<path d="M16.2498 3.68503C16.2322 5.0725 17.4863 5.84672 18.431 6.30708C19.4016 6.77937 19.7276 7.08226 19.7238 7.50467C19.7165 8.15106 18.9495 8.43636 18.2318 8.44744C16.9797 8.46684 16.2516 8.10937 15.6728 7.83901L15.2217 9.94973C15.8024 10.2173 16.8777 10.4507 17.9928 10.4609C20.6103 10.4609 22.3227 9.16889 22.332 7.16564C22.3422 4.62323 18.8153 4.4825 18.8394 3.34612C18.8477 3.00154 19.1765 2.63383 19.897 2.54034C20.2536 2.49311 21.2381 2.45696 22.3542 2.97094L22.7923 0.928769C22.1921 0.710215 21.4206 0.500937 20.4601 0.500937C17.9965 0.500937 16.2638 1.81058 16.2498 3.68503ZM27.0017 0.676841C26.5238 0.676841 26.121 0.955636 25.9412 1.38347L22.2023 10.3109H24.8179L25.3383 8.8725H28.5345L28.8364 10.3109H31.1417L29.13 0.676841H27.0017ZM27.3676 3.27937L28.1224 6.89708H26.0552L27.3676 3.27937ZM13.0786 0.676961L11.0169 10.3108H13.5093L15.57 0.676721H13.0786V0.676961ZM9.39147 0.676721L6.79725 7.23419L5.74786 1.65865C5.62472 1.03624 5.13846 0.676841 4.59846 0.676841H0.357737L0.29834 0.9566C1.16894 1.14552 2.1581 1.45021 2.75738 1.77624C3.12412 1.9754 3.2287 2.14949 3.34918 2.62274L5.33677 10.3109H7.97063L12.0087 0.676841H9.39147" fill="url(#paint0_linear_5730_131552)"/>
<defs>
<linearGradient id="paint0_linear_5730_131552" x1="14.4783" y1="10.6607" x2="14.7666" y2="0.431669" gradientUnits="userSpaceOnUse">
<stop stop-color="#222357"/>
<stop offset="1" stop-color="#254AA5"/>
</linearGradient>
</defs>
</svg>
