<svg width="20" height="15" viewBox="0 0 20 15" fill="none" xmlns="http://www.w3.org/2000/svg">
<g clip-path="url(#clip0_5730_131553)">
<path d="M19.537 11.9256C19.537 13.5852 18.1856 14.9367 16.5259 14.9367H0.143066V3.01106C0.143066 1.35144 1.49451 0 3.15413 0H19.537V11.9256Z" fill="white"/>
<path d="M14.2024 8.86459H15.4471C15.4827 8.86459 15.5656 8.85277 15.6013 8.85277C15.8384 8.80535 16.0399 8.59194 16.0399 8.29558C16.0399 8.01111 15.8384 7.7977 15.6013 7.73846C15.5656 7.72656 15.4946 7.72656 15.4472 7.72656H14.2025V8.86459H14.2024Z" fill="url(#paint0_linear_5730_131553)"/>
<path d="M15.3049 1.00781C14.1194 1.00781 13.1473 1.96812 13.1473 3.16539V5.40592H16.194C16.2651 5.40592 16.3481 5.40592 16.4073 5.41774C17.0949 5.45334 17.6047 5.80895 17.6047 6.42531C17.6047 6.91137 17.2609 7.3263 16.6207 7.40933V7.43296C17.3201 7.48039 17.8536 7.8716 17.8536 8.47614C17.8536 9.12819 17.2609 9.55493 16.4785 9.55493H13.1355V13.9411H16.3006C17.4861 13.9411 18.4582 12.9809 18.4582 11.7836V1.00781H15.3049Z" fill="url(#paint1_linear_5730_131553)"/>
<path d="M15.8857 6.56854C15.8857 6.284 15.6842 6.0943 15.4471 6.05869C15.4235 6.05869 15.3641 6.04688 15.3286 6.04688H14.2024V7.09006H15.3286C15.3642 7.09006 15.4353 7.09006 15.4472 7.07824C15.6843 7.04263 15.8858 6.85301 15.8858 6.56847L15.8857 6.56854Z" fill="url(#paint2_linear_5730_131553)"/>
<path d="M3.37935 1.00781C2.1939 1.00781 1.22178 1.96812 1.22178 3.16539V8.48811C1.8264 8.7844 2.45466 8.9741 3.08299 8.9741C3.82981 8.9741 4.23284 8.52365 4.23284 7.90721V5.39402H6.08216V7.89531C6.08216 8.86736 5.47761 9.66168 3.42678 9.66168C2.18208 9.66168 1.20996 9.38895 1.20996 9.38895V13.9293H4.37511C5.56057 13.9293 6.53269 12.969 6.53269 11.7717V1.00796H3.37928L3.37935 1.00781Z" fill="url(#paint3_linear_5730_131553)"/>
<path d="M9.34215 1.00781C8.15669 1.00781 7.18457 1.96812 7.18457 3.16539V5.98675C7.72995 5.5244 8.67828 5.22804 10.2075 5.29918C11.0255 5.33478 11.9027 5.56001 11.9027 5.56001V6.47281C11.464 6.24759 10.9425 6.04599 10.2668 5.99857C9.10502 5.91562 8.40563 6.48463 8.40563 7.48039C8.40563 8.48804 9.10502 9.05705 10.2668 8.96221C10.9425 8.91478 11.4641 8.70145 11.9027 8.48804V9.40084C11.9027 9.40084 11.0373 9.62607 10.2075 9.66168C8.67828 9.73274 7.72995 9.43637 7.18465 8.9741V13.953H10.3498C11.5353 13.953 12.5073 12.9927 12.5073 11.7954V1.00796H9.34215V1.00781Z" fill="url(#paint4_linear_5730_131553)"/>
</g>
<defs>
<linearGradient id="paint0_linear_5730_131553" x1="13.1453" y1="8.29699" x2="18.4726" y2="8.29699" gradientUnits="userSpaceOnUse">
<stop stop-color="#007940"/>
<stop offset="0.2285" stop-color="#00873F"/>
<stop offset="0.7433" stop-color="#40A737"/>
<stop offset="1" stop-color="#5CB531"/>
</linearGradient>
<linearGradient id="paint1_linear_5730_131553" x1="13.1452" y1="7.4693" x2="18.4728" y2="7.4693" gradientUnits="userSpaceOnUse">
<stop stop-color="#007940"/>
<stop offset="0.2285" stop-color="#00873F"/>
<stop offset="0.7433" stop-color="#40A737"/>
<stop offset="1" stop-color="#5CB531"/>
</linearGradient>
<linearGradient id="paint2_linear_5730_131553" x1="13.1452" y1="6.56698" x2="18.4727" y2="6.56698" gradientUnits="userSpaceOnUse">
<stop stop-color="#007940"/>
<stop offset="0.2285" stop-color="#00873F"/>
<stop offset="0.7433" stop-color="#40A737"/>
<stop offset="1" stop-color="#5CB531"/>
</linearGradient>
<linearGradient id="paint3_linear_5730_131553" x1="1.21933" y1="7.46931" x2="6.62892" y2="7.46931" gradientUnits="userSpaceOnUse">
<stop stop-color="#1F286F"/>
<stop offset="0.4751" stop-color="#004E94"/>
<stop offset="0.8261" stop-color="#0066B1"/>
<stop offset="1" stop-color="#006FBC"/>
</linearGradient>
<linearGradient id="paint4_linear_5730_131553" x1="7.15391" y1="7.46926" x2="12.4079" y2="7.46926" gradientUnits="userSpaceOnUse">
<stop stop-color="#6C2C2F"/>
<stop offset="0.1735" stop-color="#882730"/>
<stop offset="0.5731" stop-color="#BE1833"/>
<stop offset="0.8585" stop-color="#DC0436"/>
<stop offset="1" stop-color="#E60039"/>
</linearGradient>
<clipPath id="clip0_5730_131553">
<rect width="19.395" height="15" fill="white" transform="translate(0.142578)"/>
</clipPath>
</defs>
</svg>
