<svg width="14" height="18" viewBox="0 0 14 18" fill="none" xmlns="http://www.w3.org/2000/svg">
<path d="M12.5859 11.7812V9.92969H5.85938C5.82422 9.64844 5.8125 9.34375 5.8125 9.03906C5.8125 8.75781 5.82422 8.48828 5.84766 8.21875H12.5859V6.36719H6.30469C7.16016 4.33984 9.05859 3.25 11.4961 3.25C12.3516 3.25 13.2305 3.33203 13.8164 3.46094V0.542969C13.2539 0.378906 12.2578 0.273438 11.4375 0.273438C6.89062 0.273438 3.58594 2.45312 2.57812 6.36719H0.445312V8.21875H2.28516C2.27344 8.48828 2.26172 8.75781 2.26172 9.03906C2.26172 9.34375 2.27344 9.63672 2.29688 9.92969H0.445312V11.7812H2.60156C3.62109 15.6602 6.91406 17.8164 11.4375 17.8164C12.3633 17.8164 13.2422 17.7461 13.8633 17.6172V14.6641C13.3945 14.7812 12.4102 14.8516 11.4492 14.8516C9.04688 14.8516 7.18359 13.7734 6.32812 11.7812H12.5859Z" fill="#008AA8"/>
</svg>
