<svg width="267" height="166" viewBox="0 0 267 166" fill="none" xmlns="http://www.w3.org/2000/svg">
<g filter="url(#filter0_d_6421_144184)">
<circle cx="133.865" cy="50.3713" r="36.4963" fill="#008AA8"/>
</g>
<path d="M183.5 50C183.5 77.6142 161.114 100 133.5 100C105.886 100 83.5 77.6142 83.5 50C83.5 22.3858 105.886 0 133.5 0C161.114 0 183.5 22.3858 183.5 50ZM86.7424 50C86.7424 75.8235 107.677 96.7576 133.5 96.7576C159.324 96.7576 180.258 75.8235 180.258 50C180.258 24.1765 159.324 3.24242 133.5 3.24242C107.677 3.24242 86.7424 24.1765 86.7424 50Z" fill="url(#paint0_linear_6421_144184)"/>
<path d="M134 30C145.038 30 154 38.962 154 50C154 61.038 145.038 70 134 70C122.962 70 114 61.038 114 50C114 38.962 122.962 30 134 30Z" stroke="white" stroke-width="2.77183"/>
<path d="M124.328 51.4917L129.862 57.0251L143.371 43.5156" stroke="white" stroke-width="3.07981" stroke-linecap="round" stroke-linejoin="round"/>
<path d="M16.1744 135V130.068L11.8724 122.436H14.5364L17.4344 127.746H17.4704L20.2964 122.436H22.8884L18.5684 130.05V135H16.1744ZM27.1039 135.216C26.4319 135.216 25.8259 135.102 25.2859 134.874C24.7579 134.646 24.3019 134.316 23.9179 133.884C23.5459 133.452 23.2579 132.936 23.0539 132.336C22.8499 131.724 22.7479 131.04 22.7479 130.284C22.7479 129.528 22.8499 128.85 23.0539 128.25C23.2579 127.65 23.5459 127.14 23.9179 126.72C24.3019 126.288 24.7579 125.958 25.2859 125.73C25.8259 125.502 26.4319 125.388 27.1039 125.388C27.7759 125.388 28.3819 125.502 28.9219 125.73C29.4619 125.958 29.9179 126.288 30.2899 126.72C30.6739 127.14 30.9679 127.65 31.1719 128.25C31.3759 128.85 31.4779 129.528 31.4779 130.284C31.4779 131.04 31.3759 131.724 31.1719 132.336C30.9679 132.936 30.6739 133.452 30.2899 133.884C29.9179 134.316 29.4619 134.646 28.9219 134.874C28.3819 135.102 27.7759 135.216 27.1039 135.216ZM27.1039 133.362C27.7159 133.362 28.1959 133.176 28.5439 132.804C28.8919 132.432 29.0659 131.886 29.0659 131.166V129.42C29.0659 128.712 28.8919 128.172 28.5439 127.8C28.1959 127.428 27.7159 127.242 27.1039 127.242C26.5039 127.242 26.0299 127.428 25.6819 127.8C25.3339 128.172 25.1599 128.712 25.1599 129.42V131.166C25.1599 131.886 25.3339 132.432 25.6819 132.804C26.0299 133.176 26.5039 133.362 27.1039 133.362ZM39.1365 133.434H39.0465C38.9625 133.674 38.8485 133.902 38.7045 134.118C38.5725 134.322 38.3985 134.508 38.1825 134.676C37.9785 134.844 37.7265 134.976 37.4265 135.072C37.1385 135.168 36.8025 135.216 36.4185 135.216C35.4465 135.216 34.7025 134.898 34.1865 134.262C33.6705 133.626 33.4125 132.72 33.4125 131.544V125.604H35.7165V131.31C35.7165 131.958 35.8425 132.456 36.0945 132.804C36.3465 133.14 36.7485 133.308 37.3005 133.308C37.5285 133.308 37.7505 133.278 37.9665 133.218C38.1945 133.158 38.3925 133.068 38.5605 132.948C38.7285 132.816 38.8665 132.66 38.9745 132.48C39.0825 132.288 39.1365 132.066 39.1365 131.814V125.604H41.4405V135H39.1365V133.434ZM44.1025 135V125.604H46.4065V127.548H46.4965C46.5565 127.296 46.6465 127.056 46.7665 126.828C46.8985 126.588 47.0665 126.378 47.2705 126.198C47.4745 126.018 47.7145 125.874 47.9905 125.766C48.2785 125.658 48.6085 125.604 48.9805 125.604H49.4845V127.782H48.7645C47.9845 127.782 47.3965 127.896 47.0005 128.124C46.6045 128.352 46.4065 128.724 46.4065 129.24V135H44.1025ZM59.1308 135.216C58.4348 135.216 57.8168 135.102 57.2768 134.874C56.7368 134.646 56.2808 134.316 55.9088 133.884C55.5488 133.452 55.2728 132.936 55.0808 132.336C54.8888 131.724 54.7928 131.04 54.7928 130.284C54.7928 129.528 54.8888 128.85 55.0808 128.25C55.2728 127.65 55.5488 127.14 55.9088 126.72C56.2808 126.288 56.7368 125.958 57.2768 125.73C57.8168 125.502 58.4348 125.388 59.1308 125.388C60.0788 125.388 60.8588 125.598 61.4708 126.018C62.0948 126.438 62.5448 127.02 62.8208 127.764L60.9308 128.61C60.8228 128.214 60.6188 127.89 60.3188 127.638C60.0308 127.374 59.6348 127.242 59.1308 127.242C58.4828 127.242 57.9968 127.446 57.6728 127.854C57.3608 128.262 57.2048 128.796 57.2048 129.456V131.166C57.2048 131.826 57.3608 132.36 57.6728 132.768C57.9968 133.164 58.4828 133.362 59.1308 133.362C59.6828 133.362 60.1088 133.224 60.4088 132.948C60.7088 132.66 60.9428 132.306 61.1108 131.886L62.8748 132.732C62.5628 133.56 62.0888 134.184 61.4528 134.604C60.8168 135.012 60.0428 135.216 59.1308 135.216ZM71.5633 135C71.0593 135 70.6573 134.856 70.3573 134.568C70.0693 134.268 69.8893 133.872 69.8173 133.38H69.7093C69.5533 133.992 69.2353 134.454 68.7553 134.766C68.2753 135.066 67.6813 135.216 66.9733 135.216C66.0133 135.216 65.2753 134.964 64.7593 134.46C64.2433 133.956 63.9853 133.284 63.9853 132.444C63.9853 131.472 64.3333 130.752 65.0293 130.284C65.7253 129.804 66.7153 129.564 67.9993 129.564H69.6013V128.88C69.6013 128.352 69.4633 127.944 69.1873 127.656C68.9113 127.368 68.4673 127.224 67.8553 127.224C67.3153 127.224 66.8773 127.344 66.5413 127.584C66.2173 127.812 65.9413 128.088 65.7133 128.412L64.3453 127.188C64.6933 126.648 65.1553 126.216 65.7313 125.892C66.3073 125.556 67.0693 125.388 68.0173 125.388C69.2893 125.388 70.2553 125.676 70.9153 126.252C71.5753 126.828 71.9053 127.656 71.9053 128.736V133.164H72.8413V135H71.5633ZM67.7473 133.542C68.2633 133.542 68.7013 133.428 69.0613 133.2C69.4213 132.972 69.6013 132.636 69.6013 132.192V130.95H68.1253C66.9253 130.95 66.3253 131.334 66.3253 132.102V132.408C66.3253 132.792 66.4453 133.08 66.6853 133.272C66.9373 133.452 67.2913 133.542 67.7473 133.542ZM74.706 135V125.604H77.01V127.548H77.1C77.16 127.296 77.25 127.056 77.37 126.828C77.502 126.588 77.67 126.378 77.874 126.198C78.078 126.018 78.318 125.874 78.594 125.766C78.882 125.658 79.212 125.604 79.584 125.604H80.088V127.782H79.368C78.588 127.782 78 127.896 77.604 128.124C77.208 128.352 77.01 128.724 77.01 129.24V135H74.706ZM87.5165 133.434H87.4265C87.2585 133.974 86.9405 134.406 86.4725 134.73C86.0045 135.054 85.4585 135.216 84.8345 135.216C83.6465 135.216 82.7345 134.79 82.0985 133.938C81.4745 133.086 81.1625 131.868 81.1625 130.284C81.1625 128.712 81.4745 127.506 82.0985 126.666C82.7345 125.814 83.6465 125.388 84.8345 125.388C85.4585 125.388 86.0045 125.55 86.4725 125.874C86.9405 126.186 87.2585 126.612 87.4265 127.152H87.5165V121.68H89.8205V135H87.5165V133.434ZM85.5725 133.308C86.1245 133.308 86.5865 133.176 86.9585 132.912C87.3305 132.648 87.5165 132.27 87.5165 131.778V128.79C87.5165 128.334 87.3305 127.968 86.9585 127.692C86.5865 127.416 86.1245 127.278 85.5725 127.278C84.9725 127.278 84.4865 127.482 84.1145 127.89C83.7545 128.286 83.5745 128.82 83.5745 129.492V131.112C83.5745 131.784 83.7545 132.318 84.1145 132.714C84.4865 133.11 84.9725 133.308 85.5725 133.308ZM96.7314 121.68H99.0354V127.17H99.1254C99.3174 126.666 99.6174 126.246 100.025 125.91C100.445 125.562 101.021 125.388 101.753 125.388C102.725 125.388 103.469 125.706 103.985 126.342C104.501 126.978 104.759 127.884 104.759 129.06V135H102.455V129.294C102.455 128.622 102.335 128.118 102.095 127.782C101.855 127.446 101.459 127.278 100.907 127.278C100.667 127.278 100.433 127.314 100.205 127.386C99.9894 127.446 99.7914 127.542 99.6114 127.674C99.4434 127.794 99.3054 127.95 99.1974 128.142C99.0894 128.322 99.0354 128.538 99.0354 128.79V135H96.7314V121.68ZM114.225 135C113.721 135 113.319 134.856 113.019 134.568C112.731 134.268 112.551 133.872 112.479 133.38H112.371C112.215 133.992 111.897 134.454 111.417 134.766C110.937 135.066 110.343 135.216 109.635 135.216C108.675 135.216 107.937 134.964 107.421 134.46C106.905 133.956 106.647 133.284 106.647 132.444C106.647 131.472 106.995 130.752 107.691 130.284C108.387 129.804 109.377 129.564 110.661 129.564H112.263V128.88C112.263 128.352 112.125 127.944 111.849 127.656C111.573 127.368 111.129 127.224 110.517 127.224C109.977 127.224 109.539 127.344 109.203 127.584C108.879 127.812 108.603 128.088 108.375 128.412L107.007 127.188C107.355 126.648 107.817 126.216 108.393 125.892C108.969 125.556 109.731 125.388 110.679 125.388C111.951 125.388 112.917 125.676 113.577 126.252C114.237 126.828 114.567 127.656 114.567 128.736V133.164H115.503V135H114.225ZM110.409 133.542C110.925 133.542 111.363 133.428 111.723 133.2C112.083 132.972 112.263 132.636 112.263 132.192V130.95H110.787C109.587 130.95 108.987 131.334 108.987 132.102V132.408C108.987 132.792 109.107 133.08 109.347 133.272C109.599 133.452 109.953 133.542 110.409 133.542ZM120.446 135.216C119.546 135.216 118.79 135.066 118.178 134.766C117.566 134.454 117.026 134.028 116.558 133.488L117.962 132.12C118.31 132.516 118.688 132.828 119.096 133.056C119.516 133.284 119.996 133.398 120.536 133.398C121.088 133.398 121.484 133.302 121.724 133.11C121.976 132.918 122.102 132.654 122.102 132.318C122.102 132.042 122.012 131.826 121.832 131.67C121.664 131.502 121.37 131.388 120.95 131.328L120.014 131.202C118.994 131.07 118.214 130.782 117.674 130.338C117.146 129.882 116.882 129.222 116.882 128.358C116.882 127.902 116.966 127.494 117.134 127.134C117.302 126.762 117.542 126.45 117.854 126.198C118.166 125.934 118.538 125.736 118.97 125.604C119.414 125.46 119.906 125.388 120.446 125.388C120.902 125.388 121.304 125.424 121.652 125.496C122.012 125.556 122.336 125.652 122.624 125.784C122.912 125.904 123.176 126.06 123.416 126.252C123.656 126.432 123.89 126.636 124.118 126.864L122.768 128.214C122.492 127.926 122.162 127.686 121.778 127.494C121.394 127.302 120.974 127.206 120.518 127.206C120.014 127.206 119.648 127.296 119.42 127.476C119.204 127.656 119.096 127.89 119.096 128.178C119.096 128.49 119.186 128.73 119.366 128.898C119.558 129.054 119.876 129.168 120.32 129.24L121.274 129.366C123.302 129.654 124.316 130.578 124.316 132.138C124.316 132.594 124.22 133.014 124.028 133.398C123.848 133.77 123.59 134.094 123.254 134.37C122.918 134.634 122.51 134.844 122.03 135C121.562 135.144 121.034 135.216 120.446 135.216ZM130.604 121.68H132.908V127.152H132.98C133.148 126.612 133.466 126.186 133.934 125.874C134.402 125.55 134.948 125.388 135.572 125.388C136.772 125.388 137.684 125.814 138.308 126.666C138.944 127.506 139.262 128.712 139.262 130.284C139.262 131.868 138.944 133.086 138.308 133.938C137.684 134.79 136.772 135.216 135.572 135.216C134.948 135.216 134.402 135.054 133.934 134.73C133.478 134.406 133.16 133.974 132.98 133.434H132.908V135H130.604V121.68ZM134.834 133.308C135.434 133.308 135.92 133.11 136.292 132.714C136.664 132.318 136.85 131.784 136.85 131.112V129.492C136.85 128.82 136.664 128.286 136.292 127.89C135.92 127.482 135.434 127.278 134.834 127.278C134.282 127.278 133.82 127.416 133.448 127.692C133.088 127.968 132.908 128.334 132.908 128.79V131.778C132.908 132.27 133.088 132.648 133.448 132.912C133.82 133.176 134.282 133.308 134.834 133.308ZM145.195 135.216C144.499 135.216 143.875 135.102 143.323 134.874C142.783 134.634 142.321 134.304 141.937 133.884C141.565 133.452 141.277 132.936 141.073 132.336C140.869 131.724 140.767 131.04 140.767 130.284C140.767 129.54 140.863 128.868 141.055 128.268C141.259 127.668 141.547 127.158 141.919 126.738C142.291 126.306 142.747 125.976 143.287 125.748C143.827 125.508 144.439 125.388 145.123 125.388C145.855 125.388 146.491 125.514 147.031 125.766C147.571 126.018 148.015 126.36 148.363 126.792C148.711 127.224 148.969 127.728 149.137 128.304C149.317 128.868 149.407 129.474 149.407 130.122V130.878H143.161V131.112C143.161 131.796 143.353 132.348 143.737 132.768C144.121 133.176 144.691 133.38 145.447 133.38C146.023 133.38 146.491 133.26 146.851 133.02C147.223 132.78 147.553 132.474 147.841 132.102L149.083 133.488C148.699 134.028 148.171 134.454 147.499 134.766C146.839 135.066 146.071 135.216 145.195 135.216ZM145.159 127.116C144.547 127.116 144.061 127.32 143.701 127.728C143.341 128.136 143.161 128.664 143.161 129.312V129.456H147.013V129.294C147.013 128.646 146.851 128.124 146.527 127.728C146.215 127.32 145.759 127.116 145.159 127.116ZM155.233 135.216C154.537 135.216 153.913 135.102 153.361 134.874C152.821 134.634 152.359 134.304 151.975 133.884C151.603 133.452 151.315 132.936 151.111 132.336C150.907 131.724 150.805 131.04 150.805 130.284C150.805 129.54 150.901 128.868 151.093 128.268C151.297 127.668 151.585 127.158 151.957 126.738C152.329 126.306 152.785 125.976 153.325 125.748C153.865 125.508 154.477 125.388 155.161 125.388C155.893 125.388 156.529 125.514 157.069 125.766C157.609 126.018 158.053 126.36 158.401 126.792C158.749 127.224 159.007 127.728 159.175 128.304C159.355 128.868 159.445 129.474 159.445 130.122V130.878H153.199V131.112C153.199 131.796 153.391 132.348 153.775 132.768C154.159 133.176 154.729 133.38 155.485 133.38C156.061 133.38 156.529 133.26 156.889 133.02C157.261 132.78 157.591 132.474 157.879 132.102L159.121 133.488C158.737 134.028 158.209 134.454 157.537 134.766C156.877 135.066 156.109 135.216 155.233 135.216ZM155.197 127.116C154.585 127.116 154.099 127.32 153.739 127.728C153.379 128.136 153.199 128.664 153.199 129.312V129.456H157.051V129.294C157.051 128.646 156.889 128.124 156.565 127.728C156.253 127.32 155.797 127.116 155.197 127.116ZM161.472 135V125.604H163.776V127.17H163.866C164.058 126.666 164.358 126.246 164.766 125.91C165.186 125.562 165.762 125.388 166.494 125.388C167.466 125.388 168.21 125.706 168.726 126.342C169.242 126.978 169.5 127.884 169.5 129.06V135H167.196V129.294C167.196 128.622 167.076 128.118 166.836 127.782C166.596 127.446 166.2 127.278 165.648 127.278C165.408 127.278 165.174 127.314 164.946 127.386C164.73 127.446 164.532 127.542 164.352 127.674C164.184 127.794 164.046 127.95 163.938 128.142C163.83 128.322 163.776 128.538 163.776 128.79V135H161.472ZM180.016 135.216C179.32 135.216 178.702 135.102 178.162 134.874C177.622 134.646 177.166 134.316 176.794 133.884C176.434 133.452 176.158 132.936 175.966 132.336C175.774 131.724 175.678 131.04 175.678 130.284C175.678 129.528 175.774 128.85 175.966 128.25C176.158 127.65 176.434 127.14 176.794 126.72C177.166 126.288 177.622 125.958 178.162 125.73C178.702 125.502 179.32 125.388 180.016 125.388C180.964 125.388 181.744 125.598 182.356 126.018C182.98 126.438 183.43 127.02 183.706 127.764L181.816 128.61C181.708 128.214 181.504 127.89 181.204 127.638C180.916 127.374 180.52 127.242 180.016 127.242C179.368 127.242 178.882 127.446 178.558 127.854C178.246 128.262 178.09 128.796 178.09 129.456V131.166C178.09 131.826 178.246 132.36 178.558 132.768C178.882 133.164 179.368 133.362 180.016 133.362C180.568 133.362 180.994 133.224 181.294 132.948C181.594 132.66 181.828 132.306 181.996 131.886L183.76 132.732C183.448 133.56 182.974 134.184 182.338 134.604C181.702 135.012 180.928 135.216 180.016 135.216ZM192.448 135C191.944 135 191.542 134.856 191.242 134.568C190.954 134.268 190.774 133.872 190.702 133.38H190.594C190.438 133.992 190.12 134.454 189.64 134.766C189.16 135.066 188.566 135.216 187.858 135.216C186.898 135.216 186.16 134.964 185.644 134.46C185.128 133.956 184.87 133.284 184.87 132.444C184.87 131.472 185.218 130.752 185.914 130.284C186.61 129.804 187.6 129.564 188.884 129.564H190.486V128.88C190.486 128.352 190.348 127.944 190.072 127.656C189.796 127.368 189.352 127.224 188.74 127.224C188.2 127.224 187.762 127.344 187.426 127.584C187.102 127.812 186.826 128.088 186.598 128.412L185.23 127.188C185.578 126.648 186.04 126.216 186.616 125.892C187.192 125.556 187.954 125.388 188.902 125.388C190.174 125.388 191.14 125.676 191.8 126.252C192.46 126.828 192.79 127.656 192.79 128.736V133.164H193.726V135H192.448ZM188.632 133.542C189.148 133.542 189.586 133.428 189.946 133.2C190.306 132.972 190.486 132.636 190.486 132.192V130.95H189.01C187.81 130.95 187.21 131.334 187.21 132.102V132.408C187.21 132.792 187.33 133.08 187.57 133.272C187.822 133.452 188.176 133.542 188.632 133.542ZM195.591 135V125.604H197.895V127.17H197.985C198.177 126.666 198.477 126.246 198.885 125.91C199.305 125.562 199.881 125.388 200.613 125.388C201.585 125.388 202.329 125.706 202.845 126.342C203.361 126.978 203.619 127.884 203.619 129.06V135H201.315V129.294C201.315 128.622 201.195 128.118 200.955 127.782C200.715 127.446 200.319 127.278 199.767 127.278C199.527 127.278 199.293 127.314 199.065 127.386C198.849 127.446 198.651 127.542 198.471 127.674C198.303 127.794 198.165 127.95 198.057 128.142C197.949 128.322 197.895 128.538 197.895 128.79V135H195.591ZM209.881 135.216C209.185 135.216 208.567 135.102 208.027 134.874C207.487 134.646 207.031 134.316 206.659 133.884C206.299 133.452 206.023 132.936 205.831 132.336C205.639 131.724 205.543 131.04 205.543 130.284C205.543 129.528 205.639 128.85 205.831 128.25C206.023 127.65 206.299 127.14 206.659 126.72C207.031 126.288 207.487 125.958 208.027 125.73C208.567 125.502 209.185 125.388 209.881 125.388C210.829 125.388 211.609 125.598 212.221 126.018C212.845 126.438 213.295 127.02 213.571 127.764L211.681 128.61C211.573 128.214 211.369 127.89 211.069 127.638C210.781 127.374 210.385 127.242 209.881 127.242C209.233 127.242 208.747 127.446 208.423 127.854C208.111 128.262 207.955 128.796 207.955 129.456V131.166C207.955 131.826 208.111 132.36 208.423 132.768C208.747 133.164 209.233 133.362 209.881 133.362C210.433 133.362 210.859 133.224 211.159 132.948C211.459 132.66 211.693 132.306 211.861 131.886L213.625 132.732C213.313 133.56 212.839 134.184 212.203 134.604C211.567 135.012 210.793 135.216 209.881 135.216ZM219.111 135.216C218.415 135.216 217.791 135.102 217.239 134.874C216.699 134.634 216.237 134.304 215.853 133.884C215.481 133.452 215.193 132.936 214.989 132.336C214.785 131.724 214.683 131.04 214.683 130.284C214.683 129.54 214.779 128.868 214.971 128.268C215.175 127.668 215.463 127.158 215.835 126.738C216.207 126.306 216.663 125.976 217.203 125.748C217.743 125.508 218.355 125.388 219.039 125.388C219.771 125.388 220.407 125.514 220.947 125.766C221.487 126.018 221.931 126.36 222.279 126.792C222.627 127.224 222.885 127.728 223.053 128.304C223.233 128.868 223.323 129.474 223.323 130.122V130.878H217.077V131.112C217.077 131.796 217.269 132.348 217.653 132.768C218.037 133.176 218.607 133.38 219.363 133.38C219.939 133.38 220.407 133.26 220.767 133.02C221.139 132.78 221.469 132.474 221.757 132.102L222.999 133.488C222.615 134.028 222.087 134.454 221.415 134.766C220.755 135.066 219.987 135.216 219.111 135.216ZM219.075 127.116C218.463 127.116 217.977 127.32 217.617 127.728C217.257 128.136 217.077 128.664 217.077 129.312V129.456H220.929V129.294C220.929 128.646 220.767 128.124 220.443 127.728C220.131 127.32 219.675 127.116 219.075 127.116ZM227.655 135C226.863 135 226.281 134.802 225.909 134.406C225.537 134.01 225.351 133.452 225.351 132.732V121.68H227.655V133.164H228.897V135H227.655ZM232.823 135C232.031 135 231.449 134.802 231.077 134.406C230.705 134.01 230.519 133.452 230.519 132.732V121.68H232.823V133.164H234.065V135H232.823ZM239.608 135.216C238.912 135.216 238.288 135.102 237.736 134.874C237.196 134.634 236.734 134.304 236.35 133.884C235.978 133.452 235.69 132.936 235.486 132.336C235.282 131.724 235.18 131.04 235.18 130.284C235.18 129.54 235.276 128.868 235.468 128.268C235.672 127.668 235.96 127.158 236.332 126.738C236.704 126.306 237.16 125.976 237.7 125.748C238.24 125.508 238.852 125.388 239.536 125.388C240.268 125.388 240.904 125.514 241.444 125.766C241.984 126.018 242.428 126.36 242.776 126.792C243.124 127.224 243.382 127.728 243.55 128.304C243.73 128.868 243.82 129.474 243.82 130.122V130.878H237.574V131.112C237.574 131.796 237.766 132.348 238.15 132.768C238.534 133.176 239.104 133.38 239.86 133.38C240.436 133.38 240.904 133.26 241.264 133.02C241.636 132.78 241.966 132.474 242.254 132.102L243.496 133.488C243.112 134.028 242.584 134.454 241.912 134.766C241.252 135.066 240.484 135.216 239.608 135.216ZM239.572 127.116C238.96 127.116 238.474 127.32 238.114 127.728C237.754 128.136 237.574 128.664 237.574 129.312V129.456H241.426V129.294C241.426 128.646 241.264 128.124 240.94 127.728C240.628 127.32 240.172 127.116 239.572 127.116ZM251.679 133.434H251.589C251.421 133.974 251.103 134.406 250.635 134.73C250.167 135.054 249.621 135.216 248.997 135.216C247.809 135.216 246.897 134.79 246.261 133.938C245.637 133.086 245.325 131.868 245.325 130.284C245.325 128.712 245.637 127.506 246.261 126.666C246.897 125.814 247.809 125.388 248.997 125.388C249.621 125.388 250.167 125.55 250.635 125.874C251.103 126.186 251.421 126.612 251.589 127.152H251.679V121.68H253.983V135H251.679V133.434ZM249.735 133.308C250.287 133.308 250.749 133.176 251.121 132.912C251.493 132.648 251.679 132.27 251.679 131.778V128.79C251.679 128.334 251.493 127.968 251.121 127.692C250.749 127.416 250.287 127.278 249.735 127.278C249.135 127.278 248.649 127.482 248.277 127.89C247.917 128.286 247.737 128.82 247.737 129.492V131.112C247.737 131.784 247.917 132.318 248.277 132.714C248.649 133.11 249.135 133.308 249.735 133.308ZM83.9803 160.216C83.0803 160.216 82.3243 160.066 81.7123 159.766C81.1003 159.454 80.5603 159.028 80.0923 158.488L81.4963 157.12C81.8443 157.516 82.2223 157.828 82.6303 158.056C83.0503 158.284 83.5303 158.398 84.0703 158.398C84.6223 158.398 85.0183 158.302 85.2583 158.11C85.5103 157.918 85.6363 157.654 85.6363 157.318C85.6363 157.042 85.5463 156.826 85.3663 156.67C85.1983 156.502 84.9043 156.388 84.4843 156.328L83.5483 156.202C82.5283 156.07 81.7483 155.782 81.2083 155.338C80.6803 154.882 80.4163 154.222 80.4163 153.358C80.4163 152.902 80.5003 152.494 80.6683 152.134C80.8363 151.762 81.0763 151.45 81.3883 151.198C81.7003 150.934 82.0723 150.736 82.5043 150.604C82.9483 150.46 83.4403 150.388 83.9803 150.388C84.4363 150.388 84.8383 150.424 85.1863 150.496C85.5463 150.556 85.8703 150.652 86.1583 150.784C86.4463 150.904 86.7103 151.06 86.9503 151.252C87.1903 151.432 87.4243 151.636 87.6523 151.864L86.3023 153.214C86.0263 152.926 85.6963 152.686 85.3123 152.494C84.9283 152.302 84.5083 152.206 84.0523 152.206C83.5483 152.206 83.1823 152.296 82.9543 152.476C82.7383 152.656 82.6303 152.89 82.6303 153.178C82.6303 153.49 82.7203 153.73 82.9003 153.898C83.0923 154.054 83.4103 154.168 83.8543 154.24L84.8083 154.366C86.8363 154.654 87.8503 155.578 87.8503 157.138C87.8503 157.594 87.7543 158.014 87.5623 158.398C87.3823 158.77 87.1243 159.094 86.7883 159.37C86.4523 159.634 86.0443 159.844 85.5643 160C85.0963 160.144 84.5683 160.216 83.9803 160.216ZM95.5007 158.434H95.4107C95.3267 158.674 95.2127 158.902 95.0687 159.118C94.9367 159.322 94.7627 159.508 94.5467 159.676C94.3427 159.844 94.0907 159.976 93.7907 160.072C93.5027 160.168 93.1667 160.216 92.7827 160.216C91.8107 160.216 91.0667 159.898 90.5507 159.262C90.0347 158.626 89.7767 157.72 89.7767 156.544V150.604H92.0807V156.31C92.0807 156.958 92.2067 157.456 92.4587 157.804C92.7107 158.14 93.1127 158.308 93.6647 158.308C93.8927 158.308 94.1147 158.278 94.3307 158.218C94.5587 158.158 94.7567 158.068 94.9247 157.948C95.0927 157.816 95.2307 157.66 95.3387 157.48C95.4467 157.288 95.5007 157.066 95.5007 156.814V150.604H97.8047V160H95.5007V158.434ZM104.175 160.216C103.479 160.216 102.861 160.102 102.321 159.874C101.781 159.646 101.325 159.316 100.953 158.884C100.593 158.452 100.317 157.936 100.125 157.336C99.9328 156.724 99.8368 156.04 99.8368 155.284C99.8368 154.528 99.9328 153.85 100.125 153.25C100.317 152.65 100.593 152.14 100.953 151.72C101.325 151.288 101.781 150.958 102.321 150.73C102.861 150.502 103.479 150.388 104.175 150.388C105.123 150.388 105.903 150.598 106.515 151.018C107.139 151.438 107.589 152.02 107.865 152.764L105.975 153.61C105.867 153.214 105.663 152.89 105.363 152.638C105.075 152.374 104.679 152.242 104.175 152.242C103.527 152.242 103.041 152.446 102.717 152.854C102.405 153.262 102.249 153.796 102.249 154.456V156.166C102.249 156.826 102.405 157.36 102.717 157.768C103.041 158.164 103.527 158.362 104.175 158.362C104.727 158.362 105.153 158.224 105.453 157.948C105.753 157.66 105.987 157.306 106.155 156.886L107.919 157.732C107.607 158.56 107.133 159.184 106.497 159.604C105.861 160.012 105.087 160.216 104.175 160.216ZM113.315 160.216C112.619 160.216 112.001 160.102 111.461 159.874C110.921 159.646 110.465 159.316 110.093 158.884C109.733 158.452 109.457 157.936 109.265 157.336C109.073 156.724 108.977 156.04 108.977 155.284C108.977 154.528 109.073 153.85 109.265 153.25C109.457 152.65 109.733 152.14 110.093 151.72C110.465 151.288 110.921 150.958 111.461 150.73C112.001 150.502 112.619 150.388 113.315 150.388C114.263 150.388 115.043 150.598 115.655 151.018C116.279 151.438 116.729 152.02 117.005 152.764L115.115 153.61C115.007 153.214 114.803 152.89 114.503 152.638C114.215 152.374 113.819 152.242 113.315 152.242C112.667 152.242 112.181 152.446 111.857 152.854C111.545 153.262 111.389 153.796 111.389 154.456V156.166C111.389 156.826 111.545 157.36 111.857 157.768C112.181 158.164 112.667 158.362 113.315 158.362C113.867 158.362 114.293 158.224 114.593 157.948C114.893 157.66 115.127 157.306 115.295 156.886L117.059 157.732C116.747 158.56 116.273 159.184 115.637 159.604C115.001 160.012 114.227 160.216 113.315 160.216ZM122.546 160.216C121.85 160.216 121.226 160.102 120.674 159.874C120.134 159.634 119.672 159.304 119.288 158.884C118.916 158.452 118.628 157.936 118.424 157.336C118.22 156.724 118.118 156.04 118.118 155.284C118.118 154.54 118.214 153.868 118.406 153.268C118.61 152.668 118.898 152.158 119.27 151.738C119.642 151.306 120.098 150.976 120.638 150.748C121.178 150.508 121.79 150.388 122.474 150.388C123.206 150.388 123.842 150.514 124.382 150.766C124.922 151.018 125.366 151.36 125.714 151.792C126.062 152.224 126.32 152.728 126.488 153.304C126.668 153.868 126.758 154.474 126.758 155.122V155.878H120.512V156.112C120.512 156.796 120.704 157.348 121.088 157.768C121.472 158.176 122.042 158.38 122.798 158.38C123.374 158.38 123.842 158.26 124.202 158.02C124.574 157.78 124.904 157.474 125.192 157.102L126.434 158.488C126.05 159.028 125.522 159.454 124.85 159.766C124.19 160.066 123.422 160.216 122.546 160.216ZM122.51 152.116C121.898 152.116 121.412 152.32 121.052 152.728C120.692 153.136 120.512 153.664 120.512 154.312V154.456H124.364V154.294C124.364 153.646 124.202 153.124 123.878 152.728C123.566 152.32 123.11 152.116 122.51 152.116ZM131.863 160.216C130.963 160.216 130.207 160.066 129.595 159.766C128.983 159.454 128.443 159.028 127.975 158.488L129.379 157.12C129.727 157.516 130.105 157.828 130.513 158.056C130.933 158.284 131.413 158.398 131.953 158.398C132.505 158.398 132.901 158.302 133.141 158.11C133.393 157.918 133.519 157.654 133.519 157.318C133.519 157.042 133.429 156.826 133.249 156.67C133.081 156.502 132.787 156.388 132.367 156.328L131.431 156.202C130.411 156.07 129.631 155.782 129.091 155.338C128.563 154.882 128.299 154.222 128.299 153.358C128.299 152.902 128.383 152.494 128.551 152.134C128.719 151.762 128.959 151.45 129.271 151.198C129.583 150.934 129.955 150.736 130.387 150.604C130.831 150.46 131.323 150.388 131.863 150.388C132.319 150.388 132.721 150.424 133.069 150.496C133.429 150.556 133.753 150.652 134.041 150.784C134.329 150.904 134.593 151.06 134.833 151.252C135.073 151.432 135.307 151.636 135.535 151.864L134.185 153.214C133.909 152.926 133.579 152.686 133.195 152.494C132.811 152.302 132.391 152.206 131.935 152.206C131.431 152.206 131.065 152.296 130.837 152.476C130.621 152.656 130.513 152.89 130.513 153.178C130.513 153.49 130.603 153.73 130.783 153.898C130.975 154.054 131.293 154.168 131.737 154.24L132.691 154.366C134.719 154.654 135.733 155.578 135.733 157.138C135.733 157.594 135.637 158.014 135.445 158.398C135.265 158.77 135.007 159.094 134.671 159.37C134.335 159.634 133.927 159.844 133.447 160C132.979 160.144 132.451 160.216 131.863 160.216ZM140.723 160.216C139.823 160.216 139.067 160.066 138.455 159.766C137.843 159.454 137.303 159.028 136.835 158.488L138.239 157.12C138.587 157.516 138.965 157.828 139.373 158.056C139.793 158.284 140.273 158.398 140.812 158.398C141.365 158.398 141.761 158.302 142.001 158.11C142.253 157.918 142.379 157.654 142.379 157.318C142.379 157.042 142.289 156.826 142.109 156.67C141.941 156.502 141.647 156.388 141.227 156.328L140.291 156.202C139.271 156.07 138.491 155.782 137.951 155.338C137.423 154.882 137.159 154.222 137.159 153.358C137.159 152.902 137.243 152.494 137.411 152.134C137.579 151.762 137.819 151.45 138.131 151.198C138.443 150.934 138.815 150.736 139.247 150.604C139.691 150.46 140.183 150.388 140.723 150.388C141.179 150.388 141.581 150.424 141.929 150.496C142.289 150.556 142.613 150.652 142.901 150.784C143.189 150.904 143.453 151.06 143.693 151.252C143.933 151.432 144.167 151.636 144.395 151.864L143.045 153.214C142.769 152.926 142.439 152.686 142.055 152.494C141.671 152.302 141.251 152.206 140.795 152.206C140.291 152.206 139.925 152.296 139.697 152.476C139.481 152.656 139.373 152.89 139.373 153.178C139.373 153.49 139.463 153.73 139.643 153.898C139.835 154.054 140.153 154.168 140.597 154.24L141.551 154.366C143.579 154.654 144.593 155.578 144.593 157.138C144.593 157.594 144.497 158.014 144.305 158.398C144.125 158.77 143.867 159.094 143.531 159.37C143.195 159.634 142.787 159.844 142.307 160C141.839 160.144 141.311 160.216 140.723 160.216ZM147.025 152.422H145.639V150.604H147.025V149.254C147.025 148.426 147.241 147.79 147.673 147.346C148.117 146.902 148.765 146.68 149.617 146.68H151.255V148.516H149.329V150.604H151.255V152.422H149.329V160H147.025V152.422ZM158.466 158.434H158.376C158.292 158.674 158.178 158.902 158.034 159.118C157.902 159.322 157.728 159.508 157.512 159.676C157.308 159.844 157.056 159.976 156.756 160.072C156.468 160.168 156.132 160.216 155.748 160.216C154.776 160.216 154.032 159.898 153.516 159.262C153 158.626 152.742 157.72 152.742 156.544V150.604H155.046V156.31C155.046 156.958 155.172 157.456 155.424 157.804C155.676 158.14 156.078 158.308 156.63 158.308C156.858 158.308 157.08 158.278 157.296 158.218C157.524 158.158 157.722 158.068 157.89 157.948C158.058 157.816 158.196 157.66 158.304 157.48C158.412 157.288 158.466 157.066 158.466 156.814V150.604H160.77V160H158.466V158.434ZM165.736 160C164.944 160 164.362 159.802 163.99 159.406C163.618 159.01 163.432 158.452 163.432 157.732V146.68H165.736V158.164H166.978V160H165.736ZM170.904 160C170.112 160 169.53 159.802 169.158 159.406C168.786 159.01 168.6 158.452 168.6 157.732V146.68H170.904V158.164H172.146V160H170.904ZM179.528 150.604H181.688L177.908 161.674C177.788 162.01 177.65 162.298 177.494 162.538C177.35 162.79 177.176 162.994 176.972 163.15C176.768 163.306 176.522 163.42 176.234 163.492C175.946 163.564 175.61 163.6 175.226 163.6H173.84V161.764H175.532L175.964 160.45L172.598 150.604H174.884L176.522 155.572L177.134 157.948H177.242L177.89 155.572L179.528 150.604ZM184.179 156.22L183.441 150.982V147.436H185.889V150.982L185.187 156.22H184.179ZM184.665 160.216C184.149 160.216 183.777 160.096 183.549 159.856C183.321 159.616 183.207 159.31 183.207 158.938V158.578C183.207 158.206 183.321 157.9 183.549 157.66C183.777 157.42 184.149 157.3 184.665 157.3C185.169 157.3 185.535 157.42 185.763 157.66C185.991 157.9 186.105 158.206 186.105 158.578V158.938C186.105 159.31 185.991 159.616 185.763 159.856C185.535 160.096 185.169 160.216 184.665 160.216Z" fill="#008AA7"/>
<defs>
<filter id="filter0_d_6421_144184" x="81.3691" y="1.875" width="104.993" height="104.992" filterUnits="userSpaceOnUse" color-interpolation-filters="sRGB">
<feFlood flood-opacity="0" result="BackgroundImageFix"/>
<feColorMatrix in="SourceAlpha" type="matrix" values="0 0 0 0 0 0 0 0 0 0 0 0 0 0 0 0 0 0 127 0" result="hardAlpha"/>
<feOffset dy="4"/>
<feGaussianBlur stdDeviation="8"/>
<feComposite in2="hardAlpha" operator="out"/>
<feColorMatrix type="matrix" values="0 0 0 0 0.0392157 0 0 0 0 0.388235 0 0 0 0 0.458824 0 0 0 0.2 0"/>
<feBlend mode="normal" in2="BackgroundImageFix" result="effect1_dropShadow_6421_144184"/>
<feBlend mode="normal" in="SourceGraphic" in2="effect1_dropShadow_6421_144184" result="shape"/>
</filter>
<linearGradient id="paint0_linear_6421_144184" x1="133.913" y1="-282.231" x2="133.913" y2="108.264" gradientUnits="userSpaceOnUse">
<stop stop-color="#008AA7"/>
<stop offset="0.978449" stop-color="#008AA7" stop-opacity="0"/>
</linearGradient>
</defs>
</svg>
