<svg width="267" height="236" viewBox="0 0 267 236" fill="none" xmlns="http://www.w3.org/2000/svg">
<g filter="url(#filter0_d_6421_144738)">
<circle cx="133.866" cy="50.3635" r="36.4963" fill="#008AA8"/>
</g>
<path d="M183.5 50C183.5 77.6142 161.114 100 133.5 100C105.886 100 83.5 77.6142 83.5 50C83.5 22.3858 105.886 0 133.5 0C161.114 0 183.5 22.3858 183.5 50ZM86.7424 50C86.7424 75.8235 107.677 96.7576 133.5 96.7576C159.324 96.7576 180.258 75.8235 180.258 50C180.258 24.1765 159.324 3.24242 133.5 3.24242C107.677 3.24242 86.7424 24.1765 86.7424 50Z" fill="url(#paint0_linear_6421_144738)"/>
<g clip-path="url(#clip0_6421_144738)">
<path d="M133.5 38.75C134.134 38.7499 134.766 38.8127 135.387 38.9375C137.351 39.3136 139.157 40.2697 140.572 41.6824C141.987 43.095 142.946 44.8994 143.325 46.8625L143.65 48.55L145.337 48.85C147.042 49.1431 148.573 50.0679 149.626 51.4399C150.679 52.8118 151.176 54.5302 151.018 56.2525C150.861 57.9747 150.06 59.5742 148.775 60.7322C147.491 61.8901 145.817 62.5213 144.087 62.5H122.875C121.146 62.5213 119.472 61.8901 118.187 60.7322C116.903 59.5742 116.102 57.9747 115.944 56.2525C115.786 54.5302 116.283 52.8118 117.336 51.4399C118.389 50.0679 119.92 49.1431 121.625 48.85L123.3 48.55L123.625 46.8625C124.065 44.5704 125.294 42.5046 127.097 41.0229C128.901 39.5413 131.166 38.7372 133.5 38.75ZM133.5 36.25C130.591 36.2476 127.772 37.26 125.529 39.1128C123.286 40.9655 121.759 43.5426 121.212 46.4C118.91 46.8168 116.847 48.0793 115.428 49.9394C114.01 51.7996 113.338 54.1231 113.544 56.4534C113.751 58.7838 114.822 60.9526 116.546 62.534C118.27 64.1154 120.523 64.995 122.862 65H144.112C146.452 64.995 148.705 64.1154 150.429 62.534C152.153 60.9526 153.224 58.7838 153.431 56.4534C153.637 54.1231 152.965 51.7996 151.546 49.9394C150.128 48.0793 148.064 46.8168 145.762 46.4C145.292 43.9423 144.094 41.6824 142.324 39.9129C140.555 38.1435 138.295 36.9458 135.837 36.475C135.067 36.3287 134.284 36.2534 133.5 36.25Z" fill="white"/>
</g>
<path d="M60.788 135.84H60.708C60.588 136.52 60.208 137.093 59.568 137.56C58.9414 138.013 58.1014 138.24 57.048 138.24C56.2214 138.24 55.4547 138.087 54.748 137.78C54.0547 137.473 53.448 137.02 52.928 136.42C52.4214 135.807 52.0214 135.053 51.728 134.16C51.4347 133.267 51.288 132.233 51.288 131.06C51.288 129.887 51.4347 128.853 51.728 127.96C52.0347 127.053 52.4614 126.293 53.008 125.68C53.5547 125.067 54.208 124.6 54.968 124.28C55.728 123.96 56.5747 123.8 57.508 123.8C58.7614 123.8 59.828 124.073 60.708 124.62C61.588 125.167 62.2814 125.953 62.788 126.98L60.648 128.24C60.3947 127.64 60.0147 127.14 59.508 126.74C59.0147 126.34 58.348 126.14 57.508 126.14C56.468 126.14 55.6347 126.46 55.008 127.1C54.3947 127.727 54.088 128.66 54.088 129.9V132.14C54.088 133.367 54.4014 134.3 55.028 134.94C55.6547 135.58 56.4947 135.9 57.548 135.9C57.9614 135.9 58.348 135.853 58.708 135.76C59.068 135.653 59.3814 135.5 59.648 135.3C59.9147 135.1 60.128 134.853 60.288 134.56C60.448 134.267 60.528 133.92 60.528 133.52V132.62H57.788V130.4H63.068V138H60.788V135.84ZM65.9663 138V127.56H68.5263V129.72H68.6263C68.693 129.44 68.793 129.173 68.9263 128.92C69.073 128.653 69.2597 128.42 69.4863 128.22C69.713 128.02 69.9797 127.86 70.2863 127.74C70.6063 127.62 70.973 127.56 71.3863 127.56H71.9463V129.98H71.1463C70.2797 129.98 69.6263 130.107 69.1863 130.36C68.7463 130.613 68.5263 131.027 68.5263 131.6V138H65.9663ZM77.9402 138.24C77.1669 138.24 76.4736 138.113 75.8602 137.86C75.2602 137.593 74.7469 137.227 74.3202 136.76C73.9069 136.28 73.5869 135.707 73.3602 135.04C73.1336 134.36 73.0202 133.6 73.0202 132.76C73.0202 131.933 73.1269 131.187 73.3402 130.52C73.5669 129.853 73.8869 129.287 74.3002 128.82C74.7136 128.34 75.2202 127.973 75.8202 127.72C76.4202 127.453 77.1002 127.32 77.8602 127.32C78.6736 127.32 79.3802 127.46 79.9802 127.74C80.5802 128.02 81.0736 128.4 81.4602 128.88C81.8469 129.36 82.1336 129.92 82.3202 130.56C82.5202 131.187 82.6202 131.86 82.6202 132.58V133.42H75.6802V133.68C75.6802 134.44 75.8936 135.053 76.3202 135.52C76.7469 135.973 77.3802 136.2 78.2202 136.2C78.8602 136.2 79.3802 136.067 79.7802 135.8C80.1936 135.533 80.5602 135.193 80.8802 134.78L82.2602 136.32C81.8336 136.92 81.2469 137.393 80.5002 137.74C79.7669 138.073 78.9136 138.24 77.9402 138.24ZM77.9002 129.24C77.2202 129.24 76.6802 129.467 76.2802 129.92C75.8802 130.373 75.6802 130.96 75.6802 131.68V131.84H79.9602V131.66C79.9602 130.94 79.7802 130.36 79.4202 129.92C79.0736 129.467 78.5669 129.24 77.9002 129.24ZM92.5526 138C91.9926 138 91.5459 137.84 91.2126 137.52C90.8926 137.187 90.6926 136.747 90.6126 136.2H90.4926C90.3192 136.88 89.9659 137.393 89.4326 137.74C88.8992 138.073 88.2392 138.24 87.4526 138.24C86.3859 138.24 85.5659 137.96 84.9926 137.4C84.4192 136.84 84.1326 136.093 84.1326 135.16C84.1326 134.08 84.5192 133.28 85.2926 132.76C86.0659 132.227 87.1659 131.96 88.5926 131.96H90.3726V131.2C90.3726 130.613 90.2192 130.16 89.9126 129.84C89.6059 129.52 89.1126 129.36 88.4326 129.36C87.8326 129.36 87.3459 129.493 86.9726 129.76C86.6126 130.013 86.3059 130.32 86.0526 130.68L84.5326 129.32C84.9192 128.72 85.4326 128.24 86.0726 127.88C86.7126 127.507 87.5592 127.32 88.6126 127.32C90.0259 127.32 91.0992 127.64 91.8326 128.28C92.5659 128.92 92.9326 129.84 92.9326 131.04V135.96H93.9726V138H92.5526ZM88.3126 136.38C88.8859 136.38 89.3726 136.253 89.7726 136C90.1726 135.747 90.3726 135.373 90.3726 134.88V133.5H88.7326C87.3992 133.5 86.7326 133.927 86.7326 134.78V135.12C86.7326 135.547 86.8659 135.867 87.1326 136.08C87.4126 136.28 87.8059 136.38 88.3126 136.38ZM99.2263 138C98.3463 138 97.673 137.773 97.2063 137.32C96.753 136.853 96.5263 136.193 96.5263 135.34V129.6H94.9863V127.56H95.7863C96.173 127.56 96.433 127.473 96.5663 127.3C96.713 127.113 96.7863 126.84 96.7863 126.48V124.7H99.0863V127.56H101.226V129.6H99.0863V135.96H101.066V138H99.2263ZM104.527 133.8L103.707 127.98V124.04H106.427V127.98L105.647 133.8H104.527ZM105.067 138.24C104.493 138.24 104.08 138.107 103.827 137.84C103.573 137.573 103.447 137.233 103.447 136.82V136.42C103.447 136.007 103.573 135.667 103.827 135.4C104.08 135.133 104.493 135 105.067 135C105.627 135 106.033 135.133 106.287 135.4C106.54 135.667 106.667 136.007 106.667 136.42V136.82C106.667 137.233 106.54 137.573 106.287 137.84C106.033 138.107 105.627 138.24 105.067 138.24ZM117.845 138V132.52L113.065 124.04H116.025L119.245 129.94H119.285L122.425 124.04H125.305L120.505 132.5V138H117.845ZM129.989 138.24C129.242 138.24 128.569 138.113 127.969 137.86C127.382 137.607 126.876 137.24 126.449 136.76C126.036 136.28 125.716 135.707 125.489 135.04C125.262 134.36 125.149 133.6 125.149 132.76C125.149 131.92 125.262 131.167 125.489 130.5C125.716 129.833 126.036 129.267 126.449 128.8C126.876 128.32 127.382 127.953 127.969 127.7C128.569 127.447 129.242 127.32 129.989 127.32C130.736 127.32 131.409 127.447 132.009 127.7C132.609 127.953 133.116 128.32 133.529 128.8C133.956 129.267 134.282 129.833 134.509 130.5C134.736 131.167 134.849 131.92 134.849 132.76C134.849 133.6 134.736 134.36 134.509 135.04C134.282 135.707 133.956 136.28 133.529 136.76C133.116 137.24 132.609 137.607 132.009 137.86C131.409 138.113 130.736 138.24 129.989 138.24ZM129.989 136.18C130.669 136.18 131.202 135.973 131.589 135.56C131.976 135.147 132.169 134.54 132.169 133.74V131.8C132.169 131.013 131.976 130.413 131.589 130C131.202 129.587 130.669 129.38 129.989 129.38C129.322 129.38 128.796 129.587 128.409 130C128.022 130.413 127.829 131.013 127.829 131.8V133.74C127.829 134.54 128.022 135.147 128.409 135.56C128.796 135.973 129.322 136.18 129.989 136.18ZM143.359 136.26H143.259C143.165 136.527 143.039 136.78 142.879 137.02C142.732 137.247 142.539 137.453 142.299 137.64C142.072 137.827 141.792 137.973 141.459 138.08C141.139 138.187 140.765 138.24 140.339 138.24C139.259 138.24 138.432 137.887 137.859 137.18C137.285 136.473 136.999 135.467 136.999 134.16V127.56H139.559V133.9C139.559 134.62 139.699 135.173 139.979 135.56C140.259 135.933 140.705 136.12 141.319 136.12C141.572 136.12 141.819 136.087 142.059 136.02C142.312 135.953 142.532 135.853 142.719 135.72C142.905 135.573 143.059 135.4 143.179 135.2C143.299 134.987 143.359 134.74 143.359 134.46V127.56H145.919V138H143.359V136.26ZM148.876 138V127.56H151.436V129.72H151.536C151.603 129.44 151.703 129.173 151.836 128.92C151.983 128.653 152.17 128.42 152.396 128.22C152.623 128.02 152.89 127.86 153.196 127.74C153.516 127.62 153.883 127.56 154.296 127.56H154.856V129.98H154.056C153.19 129.98 152.536 130.107 152.096 130.36C151.656 130.613 151.436 131.027 151.436 131.6V138H148.876ZM163.955 138L160.335 127.68H161.935L163.735 132.8L164.855 136.32H164.955L166.075 132.8L167.915 127.68H169.455L165.815 138H163.955ZM172.318 125.26C171.972 125.26 171.718 125.18 171.558 125.02C171.412 124.847 171.338 124.627 171.338 124.36V124.1C171.338 123.833 171.412 123.62 171.558 123.46C171.718 123.287 171.972 123.2 172.318 123.2C172.665 123.2 172.912 123.287 173.058 123.46C173.218 123.62 173.298 123.833 173.298 124.1V124.36C173.298 124.627 173.218 124.847 173.058 125.02C172.912 125.18 172.665 125.26 172.318 125.26ZM171.518 127.68H173.118V138H171.518V127.68ZM176.518 138V127.68H178.118V129.58H178.218C178.405 129.087 178.738 128.647 179.218 128.26C179.698 127.873 180.358 127.68 181.198 127.68H181.818V129.28H180.878C180.012 129.28 179.332 129.447 178.838 129.78C178.358 130.1 178.118 130.507 178.118 131V138H176.518ZM186.22 138C185.66 138 185.234 137.847 184.94 137.54C184.66 137.22 184.52 136.807 184.52 136.3V129.08H182.82V127.68H183.78C184.127 127.68 184.36 127.613 184.48 127.48C184.614 127.333 184.68 127.087 184.68 126.74V124.82H186.12V127.68H188.38V129.08H186.12V136.6H188.22V138H186.22ZM197.312 136.32H197.232C197.125 136.56 196.992 136.8 196.832 137.04C196.685 137.267 196.499 137.473 196.272 137.66C196.045 137.833 195.772 137.973 195.452 138.08C195.132 138.187 194.759 138.24 194.332 138.24C193.265 138.24 192.419 137.9 191.792 137.22C191.165 136.527 190.852 135.553 190.852 134.3V127.68H192.452V134.02C192.452 135.873 193.239 136.8 194.812 136.8C195.132 136.8 195.439 136.76 195.732 136.68C196.039 136.6 196.305 136.48 196.532 136.32C196.772 136.16 196.959 135.96 197.092 135.72C197.239 135.467 197.312 135.167 197.312 134.82V127.68H198.912V138H197.312V136.32ZM209.819 138C209.219 138 208.786 137.84 208.519 137.52C208.266 137.2 208.106 136.8 208.039 136.32H207.939C207.712 136.96 207.339 137.44 206.819 137.76C206.299 138.08 205.679 138.24 204.959 138.24C203.866 138.24 203.012 137.96 202.399 137.4C201.799 136.84 201.499 136.08 201.499 135.12C201.499 134.147 201.852 133.4 202.559 132.88C203.279 132.36 204.392 132.1 205.899 132.1H207.939V131.08C207.939 130.347 207.739 129.787 207.339 129.4C206.939 129.013 206.326 128.82 205.499 128.82C204.872 128.82 204.346 128.96 203.919 129.24C203.506 129.52 203.159 129.893 202.879 130.36L201.919 129.46C202.199 128.9 202.646 128.427 203.259 128.04C203.872 127.64 204.646 127.44 205.579 127.44C206.832 127.44 207.806 127.747 208.499 128.36C209.192 128.973 209.539 129.827 209.539 130.92V136.6H210.719V138H209.819ZM205.219 136.88C205.619 136.88 205.986 136.833 206.319 136.74C206.652 136.647 206.939 136.513 207.179 136.34C207.419 136.167 207.606 135.967 207.739 135.74C207.872 135.513 207.939 135.267 207.939 135V133.3H205.819C204.899 133.3 204.226 133.433 203.799 133.7C203.386 133.967 203.179 134.353 203.179 134.86V135.28C203.179 135.787 203.359 136.18 203.719 136.46C204.092 136.74 204.592 136.88 205.219 136.88ZM214.703 138C214.143 138 213.716 137.847 213.423 137.54C213.143 137.22 213.003 136.82 213.003 136.34V123.2H214.603V136.6H216.123V138H214.703ZM47.165 166.24C46.445 166.24 45.7983 166.113 45.225 165.86C44.6517 165.607 44.165 165.247 43.765 164.78C43.3783 164.313 43.0783 163.747 42.865 163.08C42.665 162.413 42.565 161.667 42.565 160.84C42.565 160.013 42.665 159.267 42.865 158.6C43.0783 157.933 43.3783 157.367 43.765 156.9C44.165 156.433 44.6517 156.073 45.225 155.82C45.7983 155.567 46.445 155.44 47.165 155.44C48.1917 155.44 49.0117 155.667 49.625 156.12C50.2517 156.56 50.7183 157.14 51.025 157.86L49.685 158.54C49.4983 158.007 49.1917 157.593 48.765 157.3C48.3383 157.007 47.805 156.86 47.165 156.86C46.685 156.86 46.265 156.94 45.905 157.1C45.545 157.247 45.245 157.46 45.005 157.74C44.765 158.007 44.585 158.333 44.465 158.72C44.345 159.093 44.285 159.507 44.285 159.96V161.72C44.285 162.627 44.525 163.373 45.005 163.96C45.4983 164.533 46.2183 164.82 47.165 164.82C48.4583 164.82 49.3917 164.22 49.965 163.02L51.125 163.8C50.7917 164.547 50.2917 165.14 49.625 165.58C48.9717 166.02 48.1517 166.24 47.165 166.24ZM60.8836 166C60.2836 166 59.8503 165.84 59.5836 165.52C59.3303 165.2 59.1703 164.8 59.1036 164.32H59.0036C58.7769 164.96 58.4036 165.44 57.8836 165.76C57.3636 166.08 56.7436 166.24 56.0236 166.24C54.9303 166.24 54.0769 165.96 53.4636 165.4C52.8636 164.84 52.5636 164.08 52.5636 163.12C52.5636 162.147 52.9169 161.4 53.6236 160.88C54.3436 160.36 55.4569 160.1 56.9636 160.1H59.0036V159.08C59.0036 158.347 58.8036 157.787 58.4036 157.4C58.0036 157.013 57.3903 156.82 56.5636 156.82C55.9369 156.82 55.4103 156.96 54.9836 157.24C54.5703 157.52 54.2236 157.893 53.9436 158.36L52.9836 157.46C53.2636 156.9 53.7103 156.427 54.3236 156.04C54.9369 155.64 55.7103 155.44 56.6436 155.44C57.8969 155.44 58.8703 155.747 59.5636 156.36C60.2569 156.973 60.6036 157.827 60.6036 158.92V164.6H61.7836V166H60.8836ZM56.2836 164.88C56.6836 164.88 57.0503 164.833 57.3836 164.74C57.7169 164.647 58.0036 164.513 58.2436 164.34C58.4836 164.167 58.6703 163.967 58.8036 163.74C58.9369 163.513 59.0036 163.267 59.0036 163V161.3H56.8836C55.9636 161.3 55.2903 161.433 54.8636 161.7C54.4503 161.967 54.2436 162.353 54.2436 162.86V163.28C54.2436 163.787 54.4236 164.18 54.7836 164.46C55.1569 164.74 55.6569 164.88 56.2836 164.88ZM64.0672 166V155.68H65.6672V157.58H65.7672C65.9539 157.087 66.2872 156.647 66.7672 156.26C67.2472 155.873 67.9072 155.68 68.7472 155.68H69.3672V157.28H68.4272C67.5605 157.28 66.8805 157.447 66.3872 157.78C65.9072 158.1 65.6672 158.507 65.6672 159V166H64.0672ZM77.8938 164.32H77.8138C77.1871 165.6 76.1804 166.24 74.7938 166.24C74.1538 166.24 73.5738 166.113 73.0538 165.86C72.5338 165.607 72.0871 165.247 71.7138 164.78C71.3538 164.313 71.0738 163.747 70.8738 163.08C70.6871 162.413 70.5938 161.667 70.5938 160.84C70.5938 160.013 70.6871 159.267 70.8738 158.6C71.0738 157.933 71.3538 157.367 71.7138 156.9C72.0871 156.433 72.5338 156.073 73.0538 155.82C73.5738 155.567 74.1538 155.44 74.7938 155.44C75.5138 155.44 76.1271 155.6 76.6338 155.92C77.1538 156.227 77.5471 156.707 77.8138 157.36H77.8938V151.2H79.4938V166H77.8938V164.32ZM75.2338 164.8C75.5938 164.8 75.9338 164.753 76.2538 164.66C76.5871 164.567 76.8738 164.433 77.1138 164.26C77.3538 164.073 77.5404 163.853 77.6738 163.6C77.8204 163.333 77.8938 163.033 77.8938 162.7V158.86C77.8938 158.58 77.8204 158.32 77.6738 158.08C77.5404 157.827 77.3538 157.613 77.1138 157.44C76.8738 157.267 76.5871 157.133 76.2538 157.04C75.9338 156.933 75.5938 156.88 75.2338 156.88C74.3271 156.88 73.6138 157.167 73.0938 157.74C72.5738 158.3 72.3138 159.04 72.3138 159.96V161.72C72.3138 162.64 72.5738 163.387 73.0938 163.96C73.6138 164.52 74.3271 164.8 75.2338 164.8ZM88.6819 154.04C88.1485 154.04 87.7619 153.92 87.5219 153.68C87.2952 153.44 87.1819 153.133 87.1819 152.76V152.36C87.1819 151.987 87.2952 151.68 87.5219 151.44C87.7619 151.2 88.1485 151.08 88.6819 151.08C89.2019 151.08 89.5819 151.2 89.8219 151.44C90.0619 151.68 90.1819 151.987 90.1819 152.36V152.76C90.1819 153.133 90.0619 153.44 89.8219 153.68C89.5819 153.92 89.2019 154.04 88.6819 154.04ZM87.4019 155.56H89.9619V166H87.4019V155.56ZM96.3492 166.24C95.3492 166.24 94.5092 166.073 93.8292 165.74C93.1492 165.393 92.5492 164.92 92.0292 164.32L93.5892 162.8C93.9759 163.24 94.3959 163.587 94.8492 163.84C95.3159 164.093 95.8492 164.22 96.4492 164.22C97.0626 164.22 97.5026 164.113 97.7692 163.9C98.0492 163.687 98.1892 163.393 98.1892 163.02C98.1892 162.713 98.0892 162.473 97.8892 162.3C97.7026 162.113 97.3759 161.987 96.9092 161.92L95.8692 161.78C94.7359 161.633 93.8692 161.313 93.2692 160.82C92.6826 160.313 92.3892 159.58 92.3892 158.62C92.3892 158.113 92.4826 157.66 92.6692 157.26C92.8559 156.847 93.1226 156.5 93.4692 156.22C93.8159 155.927 94.2292 155.707 94.7092 155.56C95.2026 155.4 95.7492 155.32 96.3492 155.32C96.8559 155.32 97.3026 155.36 97.6892 155.44C98.0892 155.507 98.4492 155.613 98.7692 155.76C99.0892 155.893 99.3826 156.067 99.6492 156.28C99.9159 156.48 100.176 156.707 100.429 156.96L98.9292 158.46C98.6226 158.14 98.2559 157.873 97.8292 157.66C97.4026 157.447 96.9359 157.34 96.4292 157.34C95.8692 157.34 95.4626 157.44 95.2092 157.64C94.9692 157.84 94.8492 158.1 94.8492 158.42C94.8492 158.767 94.9492 159.033 95.1492 159.22C95.3626 159.393 95.7159 159.52 96.2092 159.6L97.2692 159.74C99.5226 160.06 100.649 161.087 100.649 162.82C100.649 163.327 100.543 163.793 100.329 164.22C100.129 164.633 99.8426 164.993 99.4692 165.3C99.0959 165.593 98.6426 165.827 98.1092 166C97.5892 166.16 97.0026 166.24 96.3492 166.24ZM107.636 166V155.56H110.196V157.72H110.296C110.363 157.44 110.463 157.173 110.596 156.92C110.743 156.653 110.93 156.42 111.156 156.22C111.383 156.02 111.65 155.86 111.956 155.74C112.276 155.62 112.643 155.56 113.056 155.56H113.616V157.98H112.816C111.95 157.98 111.296 158.107 110.856 158.36C110.416 158.613 110.196 159.027 110.196 159.6V166H107.636ZM119.61 166.24C118.837 166.24 118.143 166.113 117.53 165.86C116.93 165.593 116.417 165.227 115.99 164.76C115.577 164.28 115.257 163.707 115.03 163.04C114.803 162.36 114.69 161.6 114.69 160.76C114.69 159.933 114.797 159.187 115.01 158.52C115.237 157.853 115.557 157.287 115.97 156.82C116.383 156.34 116.89 155.973 117.49 155.72C118.09 155.453 118.77 155.32 119.53 155.32C120.343 155.32 121.05 155.46 121.65 155.74C122.25 156.02 122.743 156.4 123.13 156.88C123.517 157.36 123.803 157.92 123.99 158.56C124.19 159.187 124.29 159.86 124.29 160.58V161.42H117.35V161.68C117.35 162.44 117.563 163.053 117.99 163.52C118.417 163.973 119.05 164.2 119.89 164.2C120.53 164.2 121.05 164.067 121.45 163.8C121.863 163.533 122.23 163.193 122.55 162.78L123.93 164.32C123.503 164.92 122.917 165.393 122.17 165.74C121.437 166.073 120.583 166.24 119.61 166.24ZM119.57 157.24C118.89 157.24 118.35 157.467 117.95 157.92C117.55 158.373 117.35 158.96 117.35 159.68V159.84H121.63V159.66C121.63 158.94 121.45 158.36 121.09 157.92C120.743 157.467 120.237 157.24 119.57 157.24ZM134.223 166C133.663 166 133.216 165.84 132.883 165.52C132.563 165.187 132.363 164.747 132.283 164.2H132.163C131.989 164.88 131.636 165.393 131.103 165.74C130.569 166.073 129.909 166.24 129.123 166.24C128.056 166.24 127.236 165.96 126.663 165.4C126.089 164.84 125.803 164.093 125.803 163.16C125.803 162.08 126.189 161.28 126.963 160.76C127.736 160.227 128.836 159.96 130.263 159.96H132.043V159.2C132.043 158.613 131.889 158.16 131.583 157.84C131.276 157.52 130.783 157.36 130.103 157.36C129.503 157.36 129.016 157.493 128.643 157.76C128.283 158.013 127.976 158.32 127.723 158.68L126.203 157.32C126.589 156.72 127.103 156.24 127.743 155.88C128.383 155.507 129.229 155.32 130.283 155.32C131.696 155.32 132.769 155.64 133.503 156.28C134.236 156.92 134.603 157.84 134.603 159.04V163.96H135.643V166H134.223ZM129.983 164.38C130.556 164.38 131.043 164.253 131.443 164C131.843 163.747 132.043 163.373 132.043 162.88V161.5H130.403C129.069 161.5 128.403 161.927 128.403 162.78V163.12C128.403 163.547 128.536 163.867 128.803 164.08C129.083 164.28 129.476 164.38 129.983 164.38ZM144.194 164.26H144.094C143.908 164.86 143.554 165.34 143.034 165.7C142.514 166.06 141.908 166.24 141.214 166.24C139.894 166.24 138.881 165.767 138.174 164.82C137.481 163.873 137.134 162.52 137.134 160.76C137.134 159.013 137.481 157.673 138.174 156.74C138.881 155.793 139.894 155.32 141.214 155.32C141.908 155.32 142.514 155.5 143.034 155.86C143.554 156.207 143.908 156.68 144.094 157.28H144.194V151.2H146.754V166H144.194V164.26ZM142.034 164.12C142.648 164.12 143.161 163.973 143.574 163.68C143.988 163.387 144.194 162.967 144.194 162.42V159.1C144.194 158.593 143.988 158.187 143.574 157.88C143.161 157.573 142.648 157.42 142.034 157.42C141.368 157.42 140.828 157.647 140.414 158.1C140.014 158.54 139.814 159.133 139.814 159.88V161.68C139.814 162.427 140.014 163.02 140.414 163.46C140.828 163.9 141.368 164.12 142.034 164.12ZM156.107 155.56H158.507L154.307 167.86C154.173 168.233 154.02 168.553 153.847 168.82C153.687 169.1 153.493 169.327 153.267 169.5C153.04 169.673 152.767 169.8 152.447 169.88C152.127 169.96 151.753 170 151.327 170H149.787V167.96H151.667L152.147 166.5L148.407 155.56H150.947L152.767 161.08L153.447 163.72H153.567L154.287 161.08L156.107 155.56ZM168.181 166C167.301 166 166.628 165.773 166.161 165.32C165.708 164.853 165.481 164.193 165.481 163.34V157.6H163.941V155.56H164.741C165.128 155.56 165.388 155.473 165.521 155.3C165.668 155.113 165.741 154.84 165.741 154.48V152.7H168.041V155.56H170.181V157.6H168.041V163.96H170.021V166H168.181ZM176.464 166.24C175.717 166.24 175.044 166.113 174.444 165.86C173.857 165.607 173.35 165.24 172.924 164.76C172.51 164.28 172.19 163.707 171.964 163.04C171.737 162.36 171.624 161.6 171.624 160.76C171.624 159.92 171.737 159.167 171.964 158.5C172.19 157.833 172.51 157.267 172.924 156.8C173.35 156.32 173.857 155.953 174.444 155.7C175.044 155.447 175.717 155.32 176.464 155.32C177.21 155.32 177.884 155.447 178.484 155.7C179.084 155.953 179.59 156.32 180.004 156.8C180.43 157.267 180.757 157.833 180.984 158.5C181.21 159.167 181.324 159.92 181.324 160.76C181.324 161.6 181.21 162.36 180.984 163.04C180.757 163.707 180.43 164.28 180.004 164.76C179.59 165.24 179.084 165.607 178.484 165.86C177.884 166.113 177.21 166.24 176.464 166.24ZM176.464 164.18C177.144 164.18 177.677 163.973 178.064 163.56C178.45 163.147 178.644 162.54 178.644 161.74V159.8C178.644 159.013 178.45 158.413 178.064 158C177.677 157.587 177.144 157.38 176.464 157.38C175.797 157.38 175.27 157.587 174.884 158C174.497 158.413 174.304 159.013 174.304 159.8V161.74C174.304 162.54 174.497 163.147 174.884 163.56C175.27 163.973 175.797 164.18 176.464 164.18ZM194.56 164.26H194.46C194.367 164.527 194.24 164.78 194.08 165.02C193.933 165.247 193.74 165.453 193.5 165.64C193.273 165.827 192.993 165.973 192.66 166.08C192.34 166.187 191.967 166.24 191.54 166.24C190.46 166.24 189.633 165.887 189.06 165.18C188.487 164.473 188.2 163.467 188.2 162.16V155.56H190.76V161.9C190.76 162.62 190.9 163.173 191.18 163.56C191.46 163.933 191.907 164.12 192.52 164.12C192.773 164.12 193.02 164.087 193.26 164.02C193.513 163.953 193.733 163.853 193.92 163.72C194.107 163.573 194.26 163.4 194.38 163.2C194.5 162.987 194.56 162.74 194.56 162.46V155.56H197.12V166H194.56V164.26ZM203.498 166.24C202.498 166.24 201.658 166.073 200.978 165.74C200.298 165.393 199.698 164.92 199.178 164.32L200.738 162.8C201.124 163.24 201.544 163.587 201.998 163.84C202.464 164.093 202.998 164.22 203.598 164.22C204.211 164.22 204.651 164.113 204.918 163.9C205.198 163.687 205.338 163.393 205.338 163.02C205.338 162.713 205.238 162.473 205.038 162.3C204.851 162.113 204.524 161.987 204.058 161.92L203.018 161.78C201.884 161.633 201.018 161.313 200.418 160.82C199.831 160.313 199.538 159.58 199.538 158.62C199.538 158.113 199.631 157.66 199.818 157.26C200.004 156.847 200.271 156.5 200.618 156.22C200.964 155.927 201.378 155.707 201.858 155.56C202.351 155.4 202.898 155.32 203.498 155.32C204.004 155.32 204.451 155.36 204.838 155.44C205.238 155.507 205.598 155.613 205.918 155.76C206.238 155.893 206.531 156.067 206.798 156.28C207.064 156.48 207.324 156.707 207.578 156.96L206.078 158.46C205.771 158.14 205.404 157.873 204.978 157.66C204.551 157.447 204.084 157.34 203.578 157.34C203.018 157.34 202.611 157.44 202.358 157.64C202.118 157.84 201.998 158.1 201.998 158.42C201.998 158.767 202.098 159.033 202.298 159.22C202.511 159.393 202.864 159.52 203.358 159.6L204.418 159.74C206.671 160.06 207.798 161.087 207.798 162.82C207.798 163.327 207.691 163.793 207.478 164.22C207.278 164.633 206.991 164.993 206.618 165.3C206.244 165.593 205.791 165.827 205.258 166C204.738 166.16 204.151 166.24 203.498 166.24ZM214.278 166.24C213.505 166.24 212.811 166.113 212.198 165.86C211.598 165.593 211.085 165.227 210.658 164.76C210.245 164.28 209.925 163.707 209.698 163.04C209.471 162.36 209.358 161.6 209.358 160.76C209.358 159.933 209.465 159.187 209.678 158.52C209.905 157.853 210.225 157.287 210.638 156.82C211.051 156.34 211.558 155.973 212.158 155.72C212.758 155.453 213.438 155.32 214.198 155.32C215.011 155.32 215.718 155.46 216.318 155.74C216.918 156.02 217.411 156.4 217.798 156.88C218.185 157.36 218.471 157.92 218.658 158.56C218.858 159.187 218.958 159.86 218.958 160.58V161.42H212.018V161.68C212.018 162.44 212.231 163.053 212.658 163.52C213.085 163.973 213.718 164.2 214.558 164.2C215.198 164.2 215.718 164.067 216.118 163.8C216.531 163.533 216.898 163.193 217.218 162.78L218.598 164.32C218.171 164.92 217.585 165.393 216.838 165.74C216.105 166.073 215.251 166.24 214.278 166.24ZM214.238 157.24C213.558 157.24 213.018 157.467 212.618 157.92C212.218 158.373 212.018 158.96 212.018 159.68V159.84H216.298V159.66C216.298 158.94 216.118 158.36 215.758 157.92C215.411 157.467 214.905 157.24 214.238 157.24ZM222.398 166.22C221.851 166.22 221.445 166.087 221.178 165.82C220.925 165.54 220.798 165.187 220.798 164.76V164.4C220.798 163.973 220.925 163.62 221.178 163.34C221.445 163.06 221.851 162.92 222.398 162.92C222.958 162.92 223.365 163.06 223.618 163.34C223.871 163.62 223.998 163.973 223.998 164.4V164.76C223.998 165.187 223.871 165.54 223.618 165.82C223.365 166.087 222.958 166.22 222.398 166.22Z" fill="#008AA7"/>
<path d="M36.7278 197.808H37.6558L33.8638 208.304C33.7358 208.645 33.5811 208.88 33.3998 209.008C33.2184 209.136 32.9198 209.2 32.5038 209.2H31.5758V208.4H32.9518L33.7358 206.24L30.6958 197.808H31.6558L34.1678 205.024H34.2318L36.7278 197.808ZM42.2906 206.192C41.7466 206.192 41.256 206.096 40.8186 205.904C40.3813 205.712 40.008 205.435 39.6986 205.072C39.3893 204.699 39.1493 204.245 38.9786 203.712C38.808 203.179 38.7226 202.576 38.7226 201.904C38.7226 201.232 38.808 200.635 38.9786 200.112C39.1493 199.579 39.3893 199.131 39.6986 198.768C40.008 198.395 40.3813 198.112 40.8186 197.92C41.256 197.717 41.7466 197.616 42.2906 197.616C42.8346 197.616 43.3253 197.717 43.7626 197.92C44.2 198.112 44.5733 198.395 44.8826 198.768C45.192 199.131 45.432 199.579 45.6026 200.112C45.7733 200.635 45.8586 201.232 45.8586 201.904C45.8586 202.576 45.7733 203.179 45.6026 203.712C45.432 204.245 45.192 204.699 44.8826 205.072C44.5733 205.435 44.2 205.712 43.7626 205.904C43.3253 206.096 42.8346 206.192 42.2906 206.192ZM42.2906 205.376C43.0906 205.376 43.72 205.125 44.1786 204.624C44.648 204.123 44.8826 203.387 44.8826 202.416V201.392C44.8826 200.432 44.648 199.701 44.1786 199.2C43.72 198.688 43.0906 198.432 42.2906 198.432C41.4906 198.432 40.856 198.683 40.3866 199.184C39.928 199.685 39.6986 200.421 39.6986 201.392V202.416C39.6986 203.376 39.928 204.112 40.3866 204.624C40.856 205.125 41.4906 205.376 42.2906 205.376ZM53.2955 204.704H53.2315C53.1568 204.896 53.0555 205.083 52.9275 205.264C52.7995 205.445 52.6395 205.605 52.4475 205.744C52.2555 205.872 52.0262 205.979 51.7595 206.064C51.5035 206.149 51.1995 206.192 50.8475 206.192C49.9728 206.192 49.2902 205.925 48.7995 205.392C48.3088 204.848 48.0635 204.075 48.0635 203.072V197.808H48.9755V202.896C48.9755 203.739 49.1568 204.363 49.5195 204.768C49.8822 205.173 50.4048 205.376 51.0875 205.376C51.3755 205.376 51.6475 205.339 51.9035 205.264C52.1702 205.189 52.4048 205.077 52.6075 204.928C52.8208 204.779 52.9862 204.592 53.1035 204.368C53.2315 204.133 53.2955 203.861 53.2955 203.552V197.808H54.2075V206H53.2955V204.704ZM63.8524 206.192C62.7217 206.192 61.847 205.819 61.2284 205.072C60.6204 204.325 60.3164 203.269 60.3164 201.904C60.3164 200.539 60.6204 199.483 61.2284 198.736C61.847 197.989 62.7217 197.616 63.8524 197.616C64.6097 197.616 65.223 197.781 65.6924 198.112C66.1617 198.443 66.519 198.88 66.7644 199.424L65.9964 199.808C65.8044 199.36 65.5324 199.019 65.1804 198.784C64.839 198.549 64.3964 198.432 63.8524 198.432C63.0204 198.432 62.3857 198.699 61.9484 199.232C61.511 199.765 61.2924 200.464 61.2924 201.328V202.48C61.2924 203.344 61.511 204.043 61.9484 204.576C62.3857 205.109 63.0204 205.376 63.8524 205.376C64.4177 205.376 64.8924 205.253 65.2764 205.008C65.6604 204.763 65.9697 204.411 66.2044 203.952L66.8764 204.4C66.6097 204.944 66.2257 205.381 65.7244 205.712C65.2337 206.032 64.6097 206.192 63.8524 206.192ZM74.5419 206C74.1899 206 73.9339 205.909 73.7739 205.728C73.6139 205.547 73.5232 205.301 73.5019 204.992V204.704H73.4219C73.2405 205.163 72.9419 205.525 72.5259 205.792C72.1099 206.059 71.5819 206.192 70.9419 206.192C70.0779 206.192 69.4112 205.984 68.9419 205.568C68.4725 205.141 68.2379 204.544 68.2379 203.776C68.2379 203.051 68.4939 202.475 69.0059 202.048C69.5285 201.621 70.3819 201.408 71.5659 201.408H73.4539V200.448C73.4539 199.093 72.7552 198.416 71.3579 198.416C70.8139 198.416 70.3605 198.533 69.9979 198.768C69.6352 198.992 69.3419 199.317 69.1179 199.744L68.5419 199.264C68.7659 198.784 69.1072 198.389 69.5659 198.08C70.0352 197.771 70.6432 197.616 71.3899 197.616C72.3499 197.616 73.0859 197.856 73.5979 198.336C74.1099 198.816 74.3659 199.488 74.3659 200.352V205.2H75.4699V206H74.5419ZM71.0699 205.408C71.4005 205.408 71.7099 205.365 71.9979 205.28C72.2859 205.195 72.5365 205.077 72.7499 204.928C72.9739 204.768 73.1445 204.581 73.2619 204.368C73.3899 204.144 73.4539 203.893 73.4539 203.616V202.096H71.5339C70.7125 202.096 70.1152 202.229 69.7419 202.496C69.3792 202.752 69.1979 203.109 69.1979 203.568V203.952C69.1979 204.432 69.3685 204.795 69.7099 205.04C70.0512 205.285 70.5045 205.408 71.0699 205.408ZM77.3474 206V197.808H78.2594V199.104H78.3074C78.4887 198.677 78.7714 198.325 79.1554 198.048C79.5394 197.76 80.062 197.616 80.7234 197.616C81.598 197.616 82.2754 197.888 82.7554 198.432C83.246 198.965 83.4914 199.733 83.4914 200.736V206H82.5794V200.896C82.5794 200.064 82.398 199.445 82.0354 199.04C81.6834 198.635 81.166 198.432 80.4834 198.432C80.1954 198.432 79.918 198.469 79.6514 198.544C79.3847 198.619 79.1447 198.731 78.9314 198.88C78.7287 199.029 78.5634 199.221 78.4354 199.456C78.318 199.68 78.2594 199.941 78.2594 200.24V206H77.3474ZM92.4643 206.192C91.7496 206.192 91.1363 206.059 90.6243 205.792C90.1229 205.525 89.6856 205.136 89.3123 204.624L89.9843 204.096C90.3256 204.544 90.6989 204.875 91.1043 205.088C91.5096 205.301 91.9843 205.408 92.5283 205.408C93.1576 205.408 93.6429 205.275 93.9843 205.008C94.3256 204.741 94.4963 204.357 94.4963 203.856C94.4963 203.419 94.3629 203.077 94.0963 202.832C93.8403 202.576 93.4136 202.405 92.8163 202.32L92.1443 202.208C91.7709 202.155 91.4296 202.075 91.1203 201.968C90.8109 201.861 90.5443 201.717 90.3203 201.536C90.1069 201.355 89.9363 201.136 89.8083 200.88C89.6909 200.613 89.6323 200.293 89.6323 199.92C89.6323 199.536 89.7016 199.2 89.8403 198.912C89.9896 198.624 90.1869 198.384 90.4323 198.192C90.6776 198 90.9709 197.856 91.3123 197.76C91.6536 197.664 92.0216 197.616 92.4163 197.616C93.0989 197.616 93.6589 197.733 94.0963 197.968C94.5336 198.203 94.9069 198.507 95.2163 198.88L94.6083 199.44C94.3949 199.184 94.1069 198.949 93.7443 198.736C93.3923 198.512 92.9336 198.4 92.3683 198.4C91.7816 198.4 91.3229 198.528 90.9923 198.784C90.6723 199.04 90.5123 199.403 90.5123 199.872C90.5123 200.352 90.6563 200.699 90.9443 200.912C91.2429 201.125 91.6856 201.28 92.2723 201.376L92.9283 201.472C93.7603 201.6 94.3736 201.851 94.7683 202.224C95.1736 202.587 95.3763 203.099 95.3763 203.76C95.3763 204.528 95.1149 205.125 94.5923 205.552C94.0803 205.979 93.3709 206.192 92.4643 206.192ZM99.1148 206C98.7841 206 98.5334 205.909 98.3628 205.728C98.1921 205.547 98.1068 205.301 98.1068 204.992V198.608H96.6828V197.808H97.6108C97.8348 197.808 97.9841 197.765 98.0588 197.68C98.1441 197.584 98.1868 197.419 98.1868 197.184V195.52H99.0188V197.808H100.875V198.608H99.0188V205.2H100.747V206H99.1148ZM108.698 206C108.346 206 108.09 205.909 107.93 205.728C107.77 205.547 107.679 205.301 107.658 204.992V204.704H107.578C107.397 205.163 107.098 205.525 106.682 205.792C106.266 206.059 105.738 206.192 105.098 206.192C104.234 206.192 103.567 205.984 103.098 205.568C102.629 205.141 102.394 204.544 102.394 203.776C102.394 203.051 102.65 202.475 103.162 202.048C103.685 201.621 104.538 201.408 105.722 201.408H107.61V200.448C107.61 199.093 106.911 198.416 105.514 198.416C104.97 198.416 104.517 198.533 104.154 198.768C103.791 198.992 103.498 199.317 103.274 199.744L102.698 199.264C102.922 198.784 103.263 198.389 103.722 198.08C104.191 197.771 104.799 197.616 105.546 197.616C106.506 197.616 107.242 197.856 107.754 198.336C108.266 198.816 108.522 199.488 108.522 200.352V205.2H109.626V206H108.698ZM105.226 205.408C105.557 205.408 105.866 205.365 106.154 205.28C106.442 205.195 106.693 205.077 106.906 204.928C107.13 204.768 107.301 204.581 107.418 204.368C107.546 204.144 107.61 203.893 107.61 203.616V202.096H105.69C104.869 202.096 104.271 202.229 103.898 202.496C103.535 202.752 103.354 203.109 103.354 203.568V203.952C103.354 204.432 103.525 204.795 103.866 205.04C104.207 205.285 104.661 205.408 105.226 205.408ZM111.504 206V197.808H112.416V199.28H112.48C112.64 198.896 112.912 198.555 113.296 198.256C113.68 197.957 114.224 197.808 114.928 197.808H115.472V198.704H114.752C114.069 198.704 113.509 198.853 113.072 199.152C112.634 199.451 112.416 199.867 112.416 200.4V206H111.504ZM118.755 206C118.425 206 118.174 205.909 118.003 205.728C117.833 205.547 117.747 205.301 117.747 204.992V198.608H116.323V197.808H117.251C117.475 197.808 117.625 197.765 117.699 197.68C117.785 197.584 117.827 197.419 117.827 197.184V195.52H118.659V197.808H120.515V198.608H118.659V205.2H120.387V206H118.755ZM131.608 204.704H131.544C131.469 204.896 131.368 205.083 131.24 205.264C131.112 205.445 130.952 205.605 130.76 205.744C130.568 205.872 130.339 205.979 130.072 206.064C129.816 206.149 129.512 206.192 129.16 206.192C128.285 206.192 127.603 205.925 127.112 205.392C126.621 204.848 126.376 204.075 126.376 203.072V197.808H127.288V202.896C127.288 203.739 127.469 204.363 127.832 204.768C128.195 205.173 128.717 205.376 129.4 205.376C129.688 205.376 129.96 205.339 130.216 205.264C130.483 205.189 130.717 205.077 130.92 204.928C131.133 204.779 131.299 204.592 131.416 204.368C131.544 204.133 131.608 203.861 131.608 203.552V197.808H132.52V206H131.608V204.704ZM137.824 206.192C137.109 206.192 136.496 206.059 135.984 205.792C135.482 205.525 135.045 205.136 134.672 204.624L135.344 204.096C135.685 204.544 136.058 204.875 136.464 205.088C136.869 205.301 137.344 205.408 137.888 205.408C138.517 205.408 139.002 205.275 139.344 205.008C139.685 204.741 139.856 204.357 139.856 203.856C139.856 203.419 139.722 203.077 139.456 202.832C139.2 202.576 138.773 202.405 138.176 202.32L137.504 202.208C137.13 202.155 136.789 202.075 136.48 201.968C136.17 201.861 135.904 201.717 135.68 201.536C135.466 201.355 135.296 201.136 135.168 200.88C135.05 200.613 134.992 200.293 134.992 199.92C134.992 199.536 135.061 199.2 135.2 198.912C135.349 198.624 135.546 198.384 135.792 198.192C136.037 198 136.33 197.856 136.672 197.76C137.013 197.664 137.381 197.616 137.776 197.616C138.458 197.616 139.018 197.733 139.456 197.968C139.893 198.203 140.266 198.507 140.576 198.88L139.968 199.44C139.754 199.184 139.466 198.949 139.104 198.736C138.752 198.512 138.293 198.4 137.728 198.4C137.141 198.4 136.682 198.528 136.352 198.784C136.032 199.04 135.872 199.403 135.872 199.872C135.872 200.352 136.016 200.699 136.304 200.912C136.602 201.125 137.045 201.28 137.632 201.376L138.288 201.472C139.12 201.6 139.733 201.851 140.128 202.224C140.533 202.587 140.736 203.099 140.736 203.76C140.736 204.528 140.474 205.125 139.952 205.552C139.44 205.979 138.73 206.192 137.824 206.192ZM143.577 195.584C143.363 195.584 143.203 195.531 143.097 195.424C143.001 195.317 142.953 195.179 142.953 195.008V194.848C142.953 194.677 143.001 194.539 143.097 194.432C143.203 194.325 143.363 194.272 143.577 194.272C143.79 194.272 143.945 194.325 144.041 194.432C144.147 194.539 144.201 194.677 144.201 194.848V195.008C144.201 195.179 144.147 195.317 144.041 195.424C143.945 195.531 143.79 195.584 143.577 195.584ZM143.129 197.808H144.041V206H143.129V197.808ZM147.019 206V197.808H147.931V199.104H147.979C148.161 198.677 148.443 198.325 148.827 198.048C149.211 197.76 149.734 197.616 150.395 197.616C151.27 197.616 151.947 197.888 152.427 198.432C152.918 198.965 153.163 199.733 153.163 200.736V206H152.251V200.896C152.251 200.064 152.07 199.445 151.707 199.04C151.355 198.635 150.838 198.432 150.155 198.432C149.867 198.432 149.59 198.469 149.323 198.544C149.057 198.619 148.817 198.731 148.603 198.88C148.401 199.029 148.235 199.221 148.107 199.456C147.99 199.68 147.931 199.941 147.931 200.24V206H147.019ZM162.755 206.96C162.755 207.792 162.419 208.405 161.747 208.8C161.086 209.195 160.11 209.392 158.819 209.392C157.571 209.392 156.67 209.211 156.115 208.848C155.56 208.485 155.283 207.984 155.283 207.344C155.283 206.875 155.406 206.501 155.651 206.224C155.896 205.947 156.243 205.744 156.691 205.616V205.488C156.179 205.285 155.923 204.912 155.923 204.368C155.923 203.963 156.056 203.653 156.323 203.44C156.59 203.227 156.92 203.067 157.315 202.96V202.896C156.835 202.683 156.462 202.363 156.195 201.936C155.928 201.509 155.795 200.997 155.795 200.4C155.795 199.984 155.864 199.605 156.003 199.264C156.142 198.923 156.339 198.629 156.595 198.384C156.862 198.139 157.176 197.952 157.539 197.824C157.912 197.685 158.323 197.616 158.771 197.616C159.4 197.616 159.95 197.749 160.419 198.016V197.616C160.419 197.371 160.478 197.173 160.595 197.024C160.712 196.864 160.904 196.784 161.171 196.784H162.579V197.584H160.915V198.368C161.192 198.613 161.406 198.912 161.555 199.264C161.704 199.605 161.779 199.984 161.779 200.4C161.779 200.816 161.704 201.195 161.555 201.536C161.416 201.877 161.214 202.176 160.947 202.432C160.691 202.677 160.376 202.869 160.003 203.008C159.64 203.136 159.235 203.2 158.787 203.2C158.638 203.2 158.494 203.189 158.355 203.168C158.216 203.147 158.078 203.125 157.939 203.104C157.587 203.2 157.294 203.333 157.059 203.504C156.835 203.664 156.723 203.883 156.723 204.16C156.723 204.651 157.16 204.896 158.035 204.896H159.939C160.931 204.896 161.646 205.083 162.083 205.456C162.531 205.819 162.755 206.32 162.755 206.96ZM161.875 207.024C161.875 206.629 161.731 206.315 161.443 206.08C161.166 205.856 160.664 205.744 159.939 205.744H157.283C156.931 205.861 156.654 206.037 156.451 206.272C156.248 206.507 156.147 206.8 156.147 207.152C156.147 207.579 156.323 207.931 156.675 208.208C157.027 208.496 157.56 208.64 158.275 208.64H159.299C160.099 208.64 160.728 208.507 161.187 208.24C161.646 207.984 161.875 207.579 161.875 207.024ZM158.787 202.464C159.416 202.464 159.907 202.309 160.259 202C160.622 201.68 160.803 201.232 160.803 200.656V200.144C160.803 199.579 160.622 199.141 160.259 198.832C159.907 198.512 159.416 198.352 158.787 198.352C158.147 198.352 157.651 198.512 157.299 198.832C156.947 199.141 156.771 199.579 156.771 200.144V200.656C156.771 201.232 156.947 201.68 157.299 202C157.662 202.309 158.158 202.464 158.787 202.464ZM173.181 197.808H174.109L170.317 208.304C170.189 208.645 170.034 208.88 169.853 209.008C169.672 209.136 169.373 209.2 168.957 209.2H168.029V208.4H169.405L170.189 206.24L167.149 197.808H168.109L170.621 205.024H170.685L173.181 197.808ZM178.744 206.192C178.2 206.192 177.709 206.096 177.272 205.904C176.834 205.712 176.461 205.435 176.152 205.072C175.842 204.699 175.602 204.245 175.432 203.712C175.261 203.179 175.176 202.576 175.176 201.904C175.176 201.232 175.261 200.635 175.432 200.112C175.602 199.579 175.842 199.131 176.152 198.768C176.461 198.395 176.834 198.112 177.272 197.92C177.709 197.717 178.2 197.616 178.744 197.616C179.288 197.616 179.778 197.717 180.216 197.92C180.653 198.112 181.026 198.395 181.336 198.768C181.645 199.131 181.885 199.579 182.056 200.112C182.226 200.635 182.312 201.232 182.312 201.904C182.312 202.576 182.226 203.179 182.056 203.712C181.885 204.245 181.645 204.699 181.336 205.072C181.026 205.435 180.653 205.712 180.216 205.904C179.778 206.096 179.288 206.192 178.744 206.192ZM178.744 205.376C179.544 205.376 180.173 205.125 180.632 204.624C181.101 204.123 181.336 203.387 181.336 202.416V201.392C181.336 200.432 181.101 199.701 180.632 199.2C180.173 198.688 179.544 198.432 178.744 198.432C177.944 198.432 177.309 198.683 176.84 199.184C176.381 199.685 176.152 200.421 176.152 201.392V202.416C176.152 203.376 176.381 204.112 176.84 204.624C177.309 205.125 177.944 205.376 178.744 205.376ZM189.749 204.704H189.685C189.61 204.896 189.509 205.083 189.381 205.264C189.253 205.445 189.093 205.605 188.901 205.744C188.709 205.872 188.479 205.979 188.213 206.064C187.957 206.149 187.653 206.192 187.301 206.192C186.426 206.192 185.743 205.925 185.253 205.392C184.762 204.848 184.517 204.075 184.517 203.072V197.808H185.429V202.896C185.429 203.739 185.61 204.363 185.973 204.768C186.335 205.173 186.858 205.376 187.541 205.376C187.829 205.376 188.101 205.339 188.357 205.264C188.623 205.189 188.858 205.077 189.061 204.928C189.274 204.779 189.439 204.592 189.557 204.368C189.685 204.133 189.749 203.861 189.749 203.552V197.808H190.661V206H189.749V204.704ZM193.644 206V197.808H194.556V199.28H194.62C194.78 198.896 195.052 198.555 195.436 198.256C195.82 197.957 196.364 197.808 197.068 197.808H197.612V198.704H196.892C196.21 198.704 195.65 198.853 195.212 199.152C194.775 199.451 194.556 199.867 194.556 200.4V206H193.644ZM206.024 206.192C204.894 206.192 204.019 205.819 203.4 205.072C202.792 204.325 202.488 203.269 202.488 201.904C202.488 200.539 202.792 199.483 203.4 198.736C204.019 197.989 204.894 197.616 206.024 197.616C206.782 197.616 207.395 197.781 207.864 198.112C208.334 198.443 208.691 198.88 208.936 199.424L208.168 199.808C207.976 199.36 207.704 199.019 207.352 198.784C207.011 198.549 206.568 198.432 206.024 198.432C205.192 198.432 204.558 198.699 204.12 199.232C203.683 199.765 203.464 200.464 203.464 201.328V202.48C203.464 203.344 203.683 204.043 204.12 204.576C204.558 205.109 205.192 205.376 206.024 205.376C206.59 205.376 207.064 205.253 207.448 205.008C207.832 204.763 208.142 204.411 208.376 203.952L209.048 204.4C208.782 204.944 208.398 205.381 207.896 205.712C207.406 206.032 206.782 206.192 206.024 206.192ZM216.714 206C216.362 206 216.106 205.909 215.946 205.728C215.786 205.547 215.695 205.301 215.674 204.992V204.704H215.594C215.412 205.163 215.114 205.525 214.698 205.792C214.282 206.059 213.754 206.192 213.114 206.192C212.25 206.192 211.583 205.984 211.114 205.568C210.644 205.141 210.41 204.544 210.41 203.776C210.41 203.051 210.666 202.475 211.178 202.048C211.7 201.621 212.554 201.408 213.738 201.408H215.626V200.448C215.626 199.093 214.927 198.416 213.53 198.416C212.986 198.416 212.532 198.533 212.17 198.768C211.807 198.992 211.514 199.317 211.29 199.744L210.714 199.264C210.938 198.784 211.279 198.389 211.738 198.08C212.207 197.771 212.815 197.616 213.562 197.616C214.522 197.616 215.258 197.856 215.77 198.336C216.282 198.816 216.538 199.488 216.538 200.352V205.2H217.642V206H216.714ZM213.242 205.408C213.572 205.408 213.882 205.365 214.17 205.28C214.458 205.195 214.708 205.077 214.922 204.928C215.146 204.768 215.316 204.581 215.434 204.368C215.562 204.144 215.626 203.893 215.626 203.616V202.096H213.706C212.884 202.096 212.287 202.229 211.914 202.496C211.551 202.752 211.37 203.109 211.37 203.568V203.952C211.37 204.432 211.54 204.795 211.882 205.04C212.223 205.285 212.676 205.408 213.242 205.408ZM219.519 206V197.808H220.431V199.28H220.495C220.655 198.896 220.927 198.555 221.311 198.256C221.695 197.957 222.239 197.808 222.943 197.808H223.487V198.704H222.767C222.085 198.704 221.525 198.853 221.087 199.152C220.65 199.451 220.431 199.867 220.431 200.4V206H219.519ZM230.472 204.688H230.424C230.21 205.147 229.896 205.515 229.48 205.792C229.074 206.059 228.557 206.192 227.928 206.192C226.872 206.192 226.045 205.819 225.448 205.072C224.85 204.325 224.552 203.269 224.552 201.904C224.552 200.539 224.85 199.483 225.448 198.736C226.045 197.989 226.872 197.616 227.928 197.616C228.557 197.616 229.08 197.755 229.496 198.032C229.912 198.299 230.221 198.661 230.424 199.12H230.472V194.16H231.384V206H230.472V204.688ZM228.136 205.376C228.456 205.376 228.754 205.333 229.032 205.248C229.32 205.163 229.57 205.04 229.784 204.88C229.997 204.709 230.162 204.512 230.28 204.288C230.408 204.053 230.472 203.792 230.472 203.504V200.256C230.472 199.989 230.408 199.744 230.28 199.52C230.162 199.296 229.997 199.104 229.784 198.944C229.57 198.784 229.32 198.661 229.032 198.576C228.754 198.48 228.456 198.432 228.136 198.432C227.314 198.432 226.674 198.693 226.216 199.216C225.757 199.739 225.528 200.443 225.528 201.328V202.48C225.528 203.365 225.757 204.069 226.216 204.592C226.674 205.115 227.314 205.376 228.136 205.376ZM58.2236 222.608H56.8156V221.808H58.2236V219.52C58.2236 219.104 58.3249 218.773 58.5276 218.528C58.7409 218.283 59.0662 218.16 59.5036 218.16H60.9436V218.96H59.1356V221.808H60.9436V222.608H59.1356V230H58.2236V222.608ZM65.6266 230.192C65.0826 230.192 64.5919 230.096 64.1546 229.904C63.7172 229.712 63.3439 229.435 63.0346 229.072C62.7252 228.699 62.4852 228.245 62.3146 227.712C62.1439 227.179 62.0586 226.576 62.0586 225.904C62.0586 225.232 62.1439 224.635 62.3146 224.112C62.4852 223.579 62.7252 223.131 63.0346 222.768C63.3439 222.395 63.7172 222.112 64.1546 221.92C64.5919 221.717 65.0826 221.616 65.6266 221.616C66.1706 221.616 66.6612 221.717 67.0986 221.92C67.5359 222.112 67.9092 222.395 68.2186 222.768C68.5279 223.131 68.7679 223.579 68.9386 224.112C69.1092 224.635 69.1946 225.232 69.1946 225.904C69.1946 226.576 69.1092 227.179 68.9386 227.712C68.7679 228.245 68.5279 228.699 68.2186 229.072C67.9092 229.435 67.5359 229.712 67.0986 229.904C66.6612 230.096 66.1706 230.192 65.6266 230.192ZM65.6266 229.376C66.4266 229.376 67.0559 229.125 67.5146 228.624C67.9839 228.123 68.2186 227.387 68.2186 226.416V225.392C68.2186 224.432 67.9839 223.701 67.5146 223.2C67.0559 222.688 66.4266 222.432 65.6266 222.432C64.8266 222.432 64.1919 222.683 63.7226 223.184C63.2639 223.685 63.0346 224.421 63.0346 225.392V226.416C63.0346 227.376 63.2639 228.112 63.7226 228.624C64.1919 229.125 64.8266 229.376 65.6266 229.376ZM71.5114 230V221.808H72.4234V223.28H72.4874C72.6474 222.896 72.9194 222.555 73.3034 222.256C73.6874 221.957 74.2314 221.808 74.9354 221.808H75.4794V222.704H74.7594C74.0768 222.704 73.5168 222.853 73.0794 223.152C72.6421 223.451 72.4234 223.867 72.4234 224.4V230H71.5114ZM83.9234 230.192C83.3794 230.192 82.8888 230.096 82.4514 229.904C82.0141 229.712 81.6408 229.435 81.3314 229.072C81.0221 228.699 80.7821 228.245 80.6114 227.712C80.4408 227.179 80.3554 226.576 80.3554 225.904C80.3554 225.232 80.4408 224.635 80.6114 224.112C80.7821 223.579 81.0221 223.131 81.3314 222.768C81.6408 222.395 82.0141 222.112 82.4514 221.92C82.8888 221.717 83.3794 221.616 83.9234 221.616C84.4674 221.616 84.9581 221.717 85.3954 221.92C85.8328 222.112 86.2061 222.395 86.5154 222.768C86.8248 223.131 87.0648 223.579 87.2354 224.112C87.4061 224.635 87.4914 225.232 87.4914 225.904C87.4914 226.576 87.4061 227.179 87.2354 227.712C87.0648 228.245 86.8248 228.699 86.5154 229.072C86.2061 229.435 85.8328 229.712 85.3954 229.904C84.9581 230.096 84.4674 230.192 83.9234 230.192ZM83.9234 229.376C84.7234 229.376 85.3528 229.125 85.8114 228.624C86.2808 228.123 86.5154 227.387 86.5154 226.416V225.392C86.5154 224.432 86.2808 223.701 85.8114 223.2C85.3528 222.688 84.7234 222.432 83.9234 222.432C83.1234 222.432 82.4888 222.683 82.0194 223.184C81.5608 223.685 81.3314 224.421 81.3314 225.392V226.416C81.3314 227.376 81.5608 228.112 82.0194 228.624C82.4888 229.125 83.1234 229.376 83.9234 229.376ZM89.8083 230V221.808H90.7203V223.104H90.7683C90.9496 222.677 91.2323 222.325 91.6163 222.048C92.0003 221.76 92.523 221.616 93.1843 221.616C94.059 221.616 94.7363 221.888 95.2163 222.432C95.707 222.965 95.9523 223.733 95.9523 224.736V230H95.0403V224.896C95.0403 224.064 94.859 223.445 94.4963 223.04C94.1443 222.635 93.627 222.432 92.9443 222.432C92.6563 222.432 92.379 222.469 92.1123 222.544C91.8456 222.619 91.6056 222.731 91.3923 222.88C91.1896 223.029 91.0243 223.221 90.8963 223.456C90.779 223.68 90.7203 223.941 90.7203 224.24V230H89.8083ZM99.8319 230C99.5013 230 99.2506 229.909 99.0799 229.728C98.9093 229.547 98.8239 229.307 98.8239 229.008V218.16H99.7359V229.2H101V230H99.8319ZM103.491 219.584C103.277 219.584 103.117 219.531 103.011 219.424C102.915 219.317 102.867 219.179 102.867 219.008V218.848C102.867 218.677 102.915 218.539 103.011 218.432C103.117 218.325 103.277 218.272 103.491 218.272C103.704 218.272 103.859 218.325 103.955 218.432C104.061 218.539 104.115 218.677 104.115 218.848V219.008C104.115 219.179 104.061 219.317 103.955 219.424C103.859 219.531 103.704 219.584 103.491 219.584ZM103.043 221.808H103.955V230H103.043V221.808ZM106.933 230V221.808H107.845V223.104H107.893C108.075 222.677 108.357 222.325 108.741 222.048C109.125 221.76 109.648 221.616 110.309 221.616C111.184 221.616 111.861 221.888 112.341 222.432C112.832 222.965 113.077 223.733 113.077 224.736V230H112.165V224.896C112.165 224.064 111.984 223.445 111.621 223.04C111.269 222.635 110.752 222.432 110.069 222.432C109.781 222.432 109.504 222.469 109.237 222.544C108.971 222.619 108.731 222.731 108.517 222.88C108.315 223.029 108.149 223.221 108.021 223.456C107.904 223.68 107.845 223.941 107.845 224.24V230H106.933ZM118.877 230.192C118.333 230.192 117.837 230.096 117.389 229.904C116.952 229.712 116.573 229.435 116.253 229.072C115.944 228.699 115.704 228.245 115.533 227.712C115.373 227.179 115.293 226.576 115.293 225.904C115.293 225.232 115.373 224.635 115.533 224.112C115.704 223.579 115.944 223.131 116.253 222.768C116.573 222.395 116.952 222.112 117.389 221.92C117.826 221.717 118.317 221.616 118.861 221.616C119.384 221.616 119.858 221.717 120.285 221.92C120.712 222.112 121.074 222.384 121.373 222.736C121.672 223.088 121.901 223.515 122.061 224.016C122.232 224.507 122.317 225.051 122.317 225.648V226.08H116.253V226.48C116.253 226.907 116.312 227.301 116.429 227.664C116.557 228.016 116.733 228.32 116.957 228.576C117.192 228.832 117.474 229.035 117.805 229.184C118.136 229.323 118.509 229.392 118.925 229.392C120.12 229.392 120.946 228.843 121.405 227.744L122.077 228.192C121.821 228.8 121.416 229.285 120.861 229.648C120.317 230.011 119.656 230.192 118.877 230.192ZM118.861 222.384C118.466 222.384 118.109 222.459 117.789 222.608C117.469 222.747 117.192 222.944 116.957 223.2C116.733 223.456 116.557 223.765 116.429 224.128C116.312 224.48 116.253 224.869 116.253 225.296V225.376H121.325V225.248C121.325 224.821 121.266 224.432 121.149 224.08C121.032 223.717 120.861 223.413 120.637 223.168C120.424 222.923 120.162 222.731 119.853 222.592C119.554 222.453 119.224 222.384 118.861 222.384ZM129.826 230C129.495 230 129.244 229.909 129.074 229.728C128.903 229.547 128.818 229.301 128.818 228.992V222.608H127.394V221.808H128.322C128.546 221.808 128.695 221.765 128.77 221.68C128.855 221.584 128.898 221.419 128.898 221.184V219.52H129.73V221.808H131.586V222.608H129.73V229.2H131.458V230H129.826ZM133.777 230V221.808H134.689V223.28H134.753C134.913 222.896 135.185 222.555 135.569 222.256C135.953 221.957 136.497 221.808 137.201 221.808H137.745V222.704H137.025C136.342 222.704 135.782 222.853 135.345 223.152C134.908 223.451 134.689 223.867 134.689 224.4V230H133.777ZM145.097 230C144.745 230 144.489 229.909 144.329 229.728C144.169 229.547 144.078 229.301 144.057 228.992V228.704H143.977C143.795 229.163 143.497 229.525 143.081 229.792C142.665 230.059 142.137 230.192 141.497 230.192C140.633 230.192 139.966 229.984 139.497 229.568C139.027 229.141 138.793 228.544 138.793 227.776C138.793 227.051 139.049 226.475 139.561 226.048C140.083 225.621 140.937 225.408 142.121 225.408H144.009V224.448C144.009 223.093 143.31 222.416 141.913 222.416C141.369 222.416 140.915 222.533 140.553 222.768C140.19 222.992 139.897 223.317 139.673 223.744L139.097 223.264C139.321 222.784 139.662 222.389 140.121 222.08C140.59 221.771 141.198 221.616 141.945 221.616C142.905 221.616 143.641 221.856 144.153 222.336C144.665 222.816 144.921 223.488 144.921 224.352V229.2H146.025V230H145.097ZM141.625 229.408C141.955 229.408 142.265 229.365 142.553 229.28C142.841 229.195 143.091 229.077 143.305 228.928C143.529 228.768 143.699 228.581 143.817 228.368C143.945 228.144 144.009 227.893 144.009 227.616V226.096H142.089C141.267 226.096 140.67 226.229 140.297 226.496C139.934 226.752 139.753 227.109 139.753 227.568V227.952C139.753 228.432 139.923 228.795 140.265 229.04C140.606 229.285 141.059 229.408 141.625 229.408ZM147.902 230V221.808H148.814V223.104H148.862C149.043 222.677 149.326 222.325 149.71 222.048C150.094 221.76 150.617 221.616 151.278 221.616C152.153 221.616 152.83 221.888 153.31 222.432C153.801 222.965 154.046 223.733 154.046 224.736V230H153.134V224.896C153.134 224.064 152.953 223.445 152.59 223.04C152.238 222.635 151.721 222.432 151.038 222.432C150.75 222.432 150.473 222.469 150.206 222.544C149.939 222.619 149.699 222.731 149.486 222.88C149.283 223.029 149.118 223.221 148.99 223.456C148.873 223.68 148.814 223.941 148.814 224.24V230H147.902ZM159.238 230.192C158.523 230.192 157.91 230.059 157.398 229.792C156.896 229.525 156.459 229.136 156.086 228.624L156.758 228.096C157.099 228.544 157.472 228.875 157.878 229.088C158.283 229.301 158.758 229.408 159.302 229.408C159.931 229.408 160.416 229.275 160.758 229.008C161.099 228.741 161.27 228.357 161.27 227.856C161.27 227.419 161.136 227.077 160.87 226.832C160.614 226.576 160.187 226.405 159.59 226.32L158.918 226.208C158.544 226.155 158.203 226.075 157.894 225.968C157.584 225.861 157.318 225.717 157.094 225.536C156.88 225.355 156.71 225.136 156.582 224.88C156.464 224.613 156.406 224.293 156.406 223.92C156.406 223.536 156.475 223.2 156.614 222.912C156.763 222.624 156.96 222.384 157.206 222.192C157.451 222 157.744 221.856 158.086 221.76C158.427 221.664 158.795 221.616 159.19 221.616C159.872 221.616 160.432 221.733 160.87 221.968C161.307 222.203 161.68 222.507 161.99 222.88L161.382 223.44C161.168 223.184 160.88 222.949 160.518 222.736C160.166 222.512 159.707 222.4 159.142 222.4C158.555 222.4 158.096 222.528 157.766 222.784C157.446 223.04 157.286 223.403 157.286 223.872C157.286 224.352 157.43 224.699 157.718 224.912C158.016 225.125 158.459 225.28 159.046 225.376L159.702 225.472C160.534 225.6 161.147 225.851 161.542 226.224C161.947 226.587 162.15 227.099 162.15 227.76C162.15 228.528 161.888 229.125 161.366 229.552C160.854 229.979 160.144 230.192 159.238 230.192ZM170.175 230C169.823 230 169.567 229.909 169.407 229.728C169.247 229.547 169.156 229.301 169.135 228.992V228.704H169.055C168.873 229.163 168.575 229.525 168.159 229.792C167.743 230.059 167.215 230.192 166.575 230.192C165.711 230.192 165.044 229.984 164.575 229.568C164.105 229.141 163.871 228.544 163.871 227.776C163.871 227.051 164.127 226.475 164.639 226.048C165.161 225.621 166.015 225.408 167.199 225.408H169.087V224.448C169.087 223.093 168.388 222.416 166.991 222.416C166.447 222.416 165.993 222.533 165.631 222.768C165.268 222.992 164.975 223.317 164.751 223.744L164.175 223.264C164.399 222.784 164.74 222.389 165.199 222.08C165.668 221.771 166.276 221.616 167.023 221.616C167.983 221.616 168.719 221.856 169.231 222.336C169.743 222.816 169.999 223.488 169.999 224.352V229.2H171.103V230H170.175ZM166.703 229.408C167.033 229.408 167.343 229.365 167.631 229.28C167.919 229.195 168.169 229.077 168.383 228.928C168.607 228.768 168.777 228.581 168.895 228.368C169.023 228.144 169.087 227.893 169.087 227.616V226.096H167.167C166.345 226.096 165.748 226.229 165.375 226.496C165.012 226.752 164.831 227.109 164.831 227.568V227.952C164.831 228.432 165.001 228.795 165.343 229.04C165.684 229.285 166.137 229.408 166.703 229.408ZM175.86 230.192C174.73 230.192 173.855 229.819 173.236 229.072C172.628 228.325 172.324 227.269 172.324 225.904C172.324 224.539 172.628 223.483 173.236 222.736C173.855 221.989 174.73 221.616 175.86 221.616C176.618 221.616 177.231 221.781 177.7 222.112C178.17 222.443 178.527 222.88 178.772 223.424L178.004 223.808C177.812 223.36 177.54 223.019 177.188 222.784C176.847 222.549 176.404 222.432 175.86 222.432C175.028 222.432 174.394 222.699 173.956 223.232C173.519 223.765 173.3 224.464 173.3 225.328V226.48C173.3 227.344 173.519 228.043 173.956 228.576C174.394 229.109 175.028 229.376 175.86 229.376C176.426 229.376 176.9 229.253 177.284 229.008C177.668 228.763 177.978 228.411 178.212 227.952L178.884 228.4C178.618 228.944 178.234 229.381 177.732 229.712C177.242 230.032 176.618 230.192 175.86 230.192ZM182.326 230C181.995 230 181.744 229.909 181.574 229.728C181.403 229.547 181.318 229.301 181.318 228.992V222.608H179.894V221.808H180.822C181.046 221.808 181.195 221.765 181.27 221.68C181.355 221.584 181.398 221.419 181.398 221.184V219.52H182.23V221.808H184.086V222.608H182.23V229.2H183.958V230H182.326ZM186.725 219.584C186.512 219.584 186.352 219.531 186.245 219.424C186.149 219.317 186.101 219.179 186.101 219.008V218.848C186.101 218.677 186.149 218.539 186.245 218.432C186.352 218.325 186.512 218.272 186.725 218.272C186.938 218.272 187.093 218.325 187.189 218.432C187.296 218.539 187.349 218.677 187.349 218.848V219.008C187.349 219.179 187.296 219.317 187.189 219.424C187.093 219.531 186.938 219.584 186.725 219.584ZM186.277 221.808H187.189V230H186.277V221.808ZM193.08 230.192C192.536 230.192 192.045 230.096 191.608 229.904C191.17 229.712 190.797 229.435 190.488 229.072C190.178 228.699 189.938 228.245 189.768 227.712C189.597 227.179 189.512 226.576 189.512 225.904C189.512 225.232 189.597 224.635 189.768 224.112C189.938 223.579 190.178 223.131 190.488 222.768C190.797 222.395 191.17 222.112 191.608 221.92C192.045 221.717 192.536 221.616 193.08 221.616C193.624 221.616 194.114 221.717 194.552 221.92C194.989 222.112 195.362 222.395 195.672 222.768C195.981 223.131 196.221 223.579 196.392 224.112C196.562 224.635 196.648 225.232 196.648 225.904C196.648 226.576 196.562 227.179 196.392 227.712C196.221 228.245 195.981 228.699 195.672 229.072C195.362 229.435 194.989 229.712 194.552 229.904C194.114 230.096 193.624 230.192 193.08 230.192ZM193.08 229.376C193.88 229.376 194.509 229.125 194.968 228.624C195.437 228.123 195.672 227.387 195.672 226.416V225.392C195.672 224.432 195.437 223.701 194.968 223.2C194.509 222.688 193.88 222.432 193.08 222.432C192.28 222.432 191.645 222.683 191.176 223.184C190.717 223.685 190.488 224.421 190.488 225.392V226.416C190.488 227.376 190.717 228.112 191.176 228.624C191.645 229.125 192.28 229.376 193.08 229.376ZM198.965 230V221.808H199.877V223.104H199.925C200.106 222.677 200.389 222.325 200.773 222.048C201.157 221.76 201.679 221.616 202.341 221.616C203.215 221.616 203.893 221.888 204.373 222.432C204.863 222.965 205.109 223.733 205.109 224.736V230H204.197V224.896C204.197 224.064 204.015 223.445 203.653 223.04C203.301 222.635 202.783 222.432 202.101 222.432C201.813 222.432 201.535 222.469 201.269 222.544C201.002 222.619 200.762 222.731 200.549 222.88C200.346 223.029 200.181 223.221 200.053 223.456C199.935 223.68 199.877 223.941 199.877 224.24V230H198.965ZM208.572 230.144C208.306 230.144 208.108 230.08 207.98 229.952C207.863 229.813 207.804 229.637 207.804 229.424V229.248C207.804 229.035 207.863 228.864 207.98 228.736C208.108 228.597 208.306 228.528 208.572 228.528C208.828 228.528 209.02 228.597 209.148 228.736C209.276 228.864 209.34 229.035 209.34 229.248V229.424C209.34 229.637 209.276 229.813 209.148 229.952C209.02 230.08 208.828 230.144 208.572 230.144Z" fill="#2B4146"/>
<defs>
<filter id="filter0_d_6421_144738" x="81.3694" y="1.86719" width="104.993" height="104.992" filterUnits="userSpaceOnUse" color-interpolation-filters="sRGB">
<feFlood flood-opacity="0" result="BackgroundImageFix"/>
<feColorMatrix in="SourceAlpha" type="matrix" values="0 0 0 0 0 0 0 0 0 0 0 0 0 0 0 0 0 0 127 0" result="hardAlpha"/>
<feOffset dy="4"/>
<feGaussianBlur stdDeviation="8"/>
<feComposite in2="hardAlpha" operator="out"/>
<feColorMatrix type="matrix" values="0 0 0 0 0.0392157 0 0 0 0 0.388235 0 0 0 0 0.458824 0 0 0 0.2 0"/>
<feBlend mode="normal" in2="BackgroundImageFix" result="effect1_dropShadow_6421_144738"/>
<feBlend mode="normal" in="SourceGraphic" in2="effect1_dropShadow_6421_144738" result="shape"/>
</filter>
<linearGradient id="paint0_linear_6421_144738" x1="133.913" y1="-282.231" x2="133.913" y2="108.264" gradientUnits="userSpaceOnUse">
<stop stop-color="#008AA7"/>
<stop offset="0.978449" stop-color="#008AA7" stop-opacity="0"/>
</linearGradient>
<clipPath id="clip0_6421_144738">
<rect width="40" height="40" fill="white" transform="translate(113.5 30)"/>
</clipPath>
</defs>
</svg>
