<svg width="24" height="24" viewBox="0 0 24 24" fill="none" xmlns="http://www.w3.org/2000/svg">
<path d="M22.4132 11.6823C20.1665 7.52896 16.2265 5.01562 11.8665 5.01562C7.50648 5.01562 3.55982 7.52896 1.33315 11.6823L1.14648 11.9956L1.31982 12.3156C3.56648 16.469 7.50648 18.9823 11.8665 18.9823C16.2265 18.9823 20.1732 16.5023 22.4132 12.3156L22.5865 11.9956L22.4132 11.6823ZM11.8665 17.6156C8.11315 17.6156 4.66648 15.5223 2.66648 11.9956C4.66648 8.46896 8.11315 6.37562 11.8665 6.37562C15.6198 6.37562 19.0265 8.47562 21.0598 11.9956C19.0265 15.5223 15.6132 17.6156 11.8665 17.6156Z" fill="black"/>
<path d="M12.0602 16.592C14.5859 16.592 16.6335 14.5444 16.6335 12.0186C16.6335 9.49286 14.5859 7.44531 12.0602 7.44531C9.53437 7.44531 7.48682 9.49286 7.48682 12.0186C7.48682 14.5444 9.53437 16.592 12.0602 16.592Z" fill="black"/>
</svg>
