<svg width="267" height="148" viewBox="0 0 267 148" fill="none" xmlns="http://www.w3.org/2000/svg">
<g filter="url(#filter0_d_6421_142950)">
<circle cx="133.865" cy="53.8713" r="36.4963" fill="#008AA8"/>
</g>
<path d="M183.5 53.5C183.5 81.1142 161.114 103.5 133.5 103.5C105.886 103.5 83.5 81.1142 83.5 53.5C83.5 25.8858 105.886 3.5 133.5 3.5C161.114 3.5 183.5 25.8858 183.5 53.5ZM86.7424 53.5C86.7424 79.3235 107.677 100.258 133.5 100.258C159.324 100.258 180.258 79.3235 180.258 53.5C180.258 27.6765 159.324 6.74242 133.5 6.74242C107.677 6.74242 86.7424 27.6765 86.7424 53.5Z" fill="url(#paint0_linear_6421_142950)"/>
<path d="M134 33.5C145.038 33.5 154 42.462 154 53.5C154 64.538 145.038 73.5 134 73.5C122.962 73.5 114 64.538 114 53.5C114 42.462 122.962 33.5 134 33.5Z" stroke="white" stroke-width="2.77183"/>
<path d="M124.328 54.9917L129.862 60.5251L143.371 47.0156" stroke="white" stroke-width="3.07981" stroke-linecap="round" stroke-linejoin="round"/>
<path d="M25.2621 138.5V125.936H30.9141C31.4901 125.936 32.0061 126.032 32.4621 126.224C32.9301 126.404 33.3261 126.668 33.6501 127.016C33.9741 127.352 34.2201 127.76 34.3881 128.24C34.5561 128.72 34.6401 129.248 34.6401 129.824C34.6401 130.412 34.5561 130.946 34.3881 131.426C34.2201 131.894 33.9741 132.302 33.6501 132.65C33.3261 132.986 32.9301 133.25 32.4621 133.442C32.0061 133.622 31.4901 133.712 30.9141 133.712H27.6381V138.5H25.2621ZM27.6381 131.66H30.6981C31.1541 131.66 31.5141 131.54 31.7781 131.3C32.0421 131.048 32.1741 130.694 32.1741 130.238V129.41C32.1741 128.954 32.0421 128.606 31.7781 128.366C31.5141 128.126 31.1541 128.006 30.6981 128.006H27.6381V131.66ZM36.2714 138.5V136.592H37.9274V127.844H36.2714V125.936H41.9774V127.844H40.3034V136.592H41.9774V138.5H36.2714ZM48.0047 132.056L46.7087 129.446H46.6547V138.5H44.4047V125.936H47.0147L50.7947 132.38L52.0907 134.99H52.1447V125.936H54.3947V138.5H51.7847L48.0047 132.056ZM65.1601 138.716C64.4641 138.716 63.8461 138.602 63.3061 138.374C62.7661 138.146 62.3101 137.816 61.9381 137.384C61.5781 136.952 61.3021 136.436 61.1101 135.836C60.9181 135.224 60.8221 134.54 60.8221 133.784C60.8221 133.028 60.9181 132.35 61.1101 131.75C61.3021 131.15 61.5781 130.64 61.9381 130.22C62.3101 129.788 62.7661 129.458 63.3061 129.23C63.8461 129.002 64.4641 128.888 65.1601 128.888C66.1081 128.888 66.8881 129.098 67.5001 129.518C68.1241 129.938 68.5741 130.52 68.8501 131.264L66.9601 132.11C66.8521 131.714 66.6481 131.39 66.3481 131.138C66.0601 130.874 65.6641 130.742 65.1601 130.742C64.5121 130.742 64.0261 130.946 63.7021 131.354C63.3901 131.762 63.2341 132.296 63.2341 132.956V134.666C63.2341 135.326 63.3901 135.86 63.7021 136.268C64.0261 136.664 64.5121 136.862 65.1601 136.862C65.7121 136.862 66.1381 136.724 66.4381 136.448C66.7381 136.16 66.9721 135.806 67.1401 135.386L68.9041 136.232C68.5921 137.06 68.1181 137.684 67.4821 138.104C66.8461 138.512 66.0721 138.716 65.1601 138.716ZM70.6806 125.18H72.9846V130.67H73.0746C73.2666 130.166 73.5666 129.746 73.9746 129.41C74.3946 129.062 74.9706 128.888 75.7026 128.888C76.6746 128.888 77.4186 129.206 77.9346 129.842C78.4506 130.478 78.7086 131.384 78.7086 132.56V138.5H76.4046V132.794C76.4046 132.122 76.2846 131.618 76.0446 131.282C75.8046 130.946 75.4086 130.778 74.8566 130.778C74.6166 130.778 74.3826 130.814 74.1546 130.886C73.9386 130.946 73.7406 131.042 73.5606 131.174C73.3926 131.294 73.2546 131.45 73.1466 131.642C73.0386 131.822 72.9846 132.038 72.9846 132.29V138.5H70.6806V125.18ZM88.1747 138.5C87.6707 138.5 87.2687 138.356 86.9687 138.068C86.6807 137.768 86.5007 137.372 86.4287 136.88H86.3207C86.1647 137.492 85.8467 137.954 85.3667 138.266C84.8867 138.566 84.2927 138.716 83.5847 138.716C82.6247 138.716 81.8867 138.464 81.3707 137.96C80.8547 137.456 80.5967 136.784 80.5967 135.944C80.5967 134.972 80.9447 134.252 81.6407 133.784C82.3367 133.304 83.3267 133.064 84.6107 133.064H86.2127V132.38C86.2127 131.852 86.0747 131.444 85.7987 131.156C85.5227 130.868 85.0787 130.724 84.4667 130.724C83.9267 130.724 83.4887 130.844 83.1527 131.084C82.8287 131.312 82.5527 131.588 82.3247 131.912L80.9567 130.688C81.3047 130.148 81.7667 129.716 82.3427 129.392C82.9187 129.056 83.6807 128.888 84.6287 128.888C85.9007 128.888 86.8667 129.176 87.5267 129.752C88.1867 130.328 88.5167 131.156 88.5167 132.236V136.664H89.4527V138.5H88.1747ZM84.3587 137.042C84.8747 137.042 85.3127 136.928 85.6727 136.7C86.0327 136.472 86.2127 136.136 86.2127 135.692V134.45H84.7367C83.5367 134.45 82.9367 134.834 82.9367 135.602V135.908C82.9367 136.292 83.0567 136.58 83.2967 136.772C83.5487 136.952 83.9027 137.042 84.3587 137.042ZM91.3174 138.5V129.104H93.6214V130.67H93.7114C93.9034 130.166 94.2034 129.746 94.6114 129.41C95.0314 129.062 95.6074 128.888 96.3394 128.888C97.3114 128.888 98.0554 129.206 98.5714 129.842C99.0874 130.478 99.3454 131.384 99.3454 132.56V138.5H97.0414V132.794C97.0414 132.122 96.9214 131.618 96.6814 131.282C96.4414 130.946 96.0454 130.778 95.4934 130.778C95.2534 130.778 95.0194 130.814 94.7914 130.886C94.5754 130.946 94.3774 131.042 94.1974 131.174C94.0294 131.294 93.8914 131.45 93.7834 131.642C93.6754 131.822 93.6214 132.038 93.6214 132.29V138.5H91.3174ZM110.377 139.292C110.377 139.784 110.287 140.216 110.107 140.588C109.939 140.972 109.657 141.29 109.261 141.542C108.865 141.794 108.355 141.986 107.731 142.118C107.107 142.25 106.345 142.316 105.445 142.316C104.653 142.316 103.981 142.262 103.429 142.154C102.877 142.058 102.421 141.914 102.061 141.722C101.713 141.542 101.461 141.314 101.305 141.038C101.149 140.762 101.071 140.45 101.071 140.102C101.071 139.574 101.215 139.16 101.503 138.86C101.803 138.572 102.217 138.386 102.745 138.302V138.104C102.361 138.008 102.061 137.822 101.845 137.546C101.641 137.258 101.539 136.922 101.539 136.538C101.539 136.298 101.587 136.088 101.683 135.908C101.779 135.716 101.905 135.554 102.061 135.422C102.229 135.29 102.415 135.182 102.619 135.098C102.823 135.002 103.039 134.93 103.267 134.882V134.81C102.691 134.546 102.259 134.18 101.971 133.712C101.695 133.244 101.557 132.698 101.557 132.074C101.557 131.114 101.887 130.346 102.547 129.77C103.207 129.182 104.173 128.888 105.445 128.888C105.733 128.888 106.015 128.906 106.291 128.942C106.579 128.978 106.843 129.038 107.083 129.122V128.816C107.083 127.904 107.527 127.448 108.415 127.448H109.873V129.212H107.875V129.464C108.367 129.74 108.733 130.1 108.973 130.544C109.213 130.988 109.333 131.498 109.333 132.074C109.333 133.022 109.003 133.784 108.343 134.36C107.695 134.936 106.729 135.224 105.445 135.224C104.893 135.224 104.413 135.17 104.005 135.062C103.825 135.146 103.669 135.26 103.537 135.404C103.405 135.536 103.339 135.704 103.339 135.908C103.339 136.376 103.747 136.61 104.563 136.61H107.083C108.235 136.61 109.069 136.85 109.585 137.33C110.113 137.798 110.377 138.452 110.377 139.292ZM108.217 139.562C108.217 139.262 108.097 139.028 107.857 138.86C107.617 138.692 107.203 138.608 106.615 138.608H103.411C103.087 138.848 102.925 139.172 102.925 139.58C102.925 139.94 103.075 140.222 103.375 140.426C103.675 140.63 104.185 140.732 104.905 140.732H106.057C106.813 140.732 107.359 140.636 107.695 140.444C108.043 140.252 108.217 139.958 108.217 139.562ZM105.445 133.658C106.573 133.658 107.137 133.178 107.137 132.218V131.912C107.137 130.952 106.573 130.472 105.445 130.472C104.317 130.472 103.753 130.952 103.753 131.912V132.218C103.753 133.178 104.317 133.658 105.445 133.658ZM115.401 138.716C114.705 138.716 114.081 138.602 113.529 138.374C112.989 138.134 112.527 137.804 112.143 137.384C111.771 136.952 111.483 136.436 111.279 135.836C111.075 135.224 110.973 134.54 110.973 133.784C110.973 133.04 111.069 132.368 111.261 131.768C111.465 131.168 111.753 130.658 112.125 130.238C112.497 129.806 112.953 129.476 113.493 129.248C114.033 129.008 114.645 128.888 115.329 128.888C116.061 128.888 116.697 129.014 117.237 129.266C117.777 129.518 118.221 129.86 118.569 130.292C118.917 130.724 119.175 131.228 119.343 131.804C119.523 132.368 119.613 132.974 119.613 133.622V134.378H113.367V134.612C113.367 135.296 113.559 135.848 113.943 136.268C114.327 136.676 114.897 136.88 115.653 136.88C116.229 136.88 116.697 136.76 117.057 136.52C117.429 136.28 117.759 135.974 118.047 135.602L119.289 136.988C118.905 137.528 118.377 137.954 117.705 138.266C117.045 138.566 116.277 138.716 115.401 138.716ZM115.365 130.616C114.753 130.616 114.267 130.82 113.907 131.228C113.547 131.636 113.367 132.164 113.367 132.812V132.956H117.219V132.794C117.219 132.146 117.057 131.624 116.733 131.228C116.421 130.82 115.965 130.616 115.365 130.616ZM127.472 136.934H127.382C127.214 137.474 126.896 137.906 126.428 138.23C125.96 138.554 125.414 138.716 124.79 138.716C123.602 138.716 122.69 138.29 122.054 137.438C121.43 136.586 121.118 135.368 121.118 133.784C121.118 132.212 121.43 131.006 122.054 130.166C122.69 129.314 123.602 128.888 124.79 128.888C125.414 128.888 125.96 129.05 126.428 129.374C126.896 129.686 127.214 130.112 127.382 130.652H127.472V125.18H129.776V138.5H127.472V136.934ZM125.528 136.808C126.08 136.808 126.542 136.676 126.914 136.412C127.286 136.148 127.472 135.77 127.472 135.278V132.29C127.472 131.834 127.286 131.468 126.914 131.192C126.542 130.916 126.08 130.778 125.528 130.778C124.928 130.778 124.442 130.982 124.07 131.39C123.71 131.786 123.53 132.32 123.53 132.992V134.612C123.53 135.284 123.71 135.818 124.07 136.214C124.442 136.61 124.928 136.808 125.528 136.808ZM139.764 138.716C138.864 138.716 138.108 138.566 137.496 138.266C136.884 137.954 136.344 137.528 135.876 136.988L137.28 135.62C137.628 136.016 138.006 136.328 138.414 136.556C138.834 136.784 139.314 136.898 139.854 136.898C140.406 136.898 140.802 136.802 141.042 136.61C141.294 136.418 141.42 136.154 141.42 135.818C141.42 135.542 141.33 135.326 141.15 135.17C140.982 135.002 140.688 134.888 140.268 134.828L139.332 134.702C138.312 134.57 137.532 134.282 136.992 133.838C136.464 133.382 136.2 132.722 136.2 131.858C136.2 131.402 136.284 130.994 136.452 130.634C136.62 130.262 136.86 129.95 137.172 129.698C137.484 129.434 137.856 129.236 138.288 129.104C138.732 128.96 139.224 128.888 139.764 128.888C140.22 128.888 140.622 128.924 140.97 128.996C141.33 129.056 141.654 129.152 141.942 129.284C142.23 129.404 142.494 129.56 142.734 129.752C142.974 129.932 143.208 130.136 143.436 130.364L142.086 131.714C141.81 131.426 141.48 131.186 141.096 130.994C140.712 130.802 140.292 130.706 139.836 130.706C139.332 130.706 138.966 130.796 138.738 130.976C138.522 131.156 138.414 131.39 138.414 131.678C138.414 131.99 138.504 132.23 138.684 132.398C138.876 132.554 139.194 132.668 139.638 132.74L140.592 132.866C142.62 133.154 143.634 134.078 143.634 135.638C143.634 136.094 143.538 136.514 143.346 136.898C143.166 137.27 142.908 137.594 142.572 137.87C142.236 138.134 141.828 138.344 141.348 138.5C140.88 138.644 140.352 138.716 139.764 138.716ZM151.285 136.934H151.195C151.111 137.174 150.997 137.402 150.853 137.618C150.721 137.822 150.547 138.008 150.331 138.176C150.127 138.344 149.875 138.476 149.575 138.572C149.287 138.668 148.951 138.716 148.567 138.716C147.595 138.716 146.851 138.398 146.335 137.762C145.819 137.126 145.561 136.22 145.561 135.044V129.104H147.865V134.81C147.865 135.458 147.991 135.956 148.243 136.304C148.495 136.64 148.897 136.808 149.449 136.808C149.677 136.808 149.899 136.778 150.115 136.718C150.343 136.658 150.541 136.568 150.709 136.448C150.877 136.316 151.015 136.16 151.123 135.98C151.231 135.788 151.285 135.566 151.285 135.314V129.104H153.589V138.5H151.285V136.934ZM159.959 138.716C159.263 138.716 158.645 138.602 158.105 138.374C157.565 138.146 157.109 137.816 156.737 137.384C156.377 136.952 156.101 136.436 155.909 135.836C155.717 135.224 155.621 134.54 155.621 133.784C155.621 133.028 155.717 132.35 155.909 131.75C156.101 131.15 156.377 130.64 156.737 130.22C157.109 129.788 157.565 129.458 158.105 129.23C158.645 129.002 159.263 128.888 159.959 128.888C160.907 128.888 161.687 129.098 162.299 129.518C162.923 129.938 163.373 130.52 163.649 131.264L161.759 132.11C161.651 131.714 161.447 131.39 161.147 131.138C160.859 130.874 160.463 130.742 159.959 130.742C159.311 130.742 158.825 130.946 158.501 131.354C158.189 131.762 158.033 132.296 158.033 132.956V134.666C158.033 135.326 158.189 135.86 158.501 136.268C158.825 136.664 159.311 136.862 159.959 136.862C160.511 136.862 160.937 136.724 161.237 136.448C161.537 136.16 161.771 135.806 161.939 135.386L163.703 136.232C163.391 137.06 162.917 137.684 162.281 138.104C161.645 138.512 160.871 138.716 159.959 138.716ZM169.1 138.716C168.404 138.716 167.786 138.602 167.246 138.374C166.706 138.146 166.25 137.816 165.878 137.384C165.518 136.952 165.242 136.436 165.05 135.836C164.858 135.224 164.762 134.54 164.762 133.784C164.762 133.028 164.858 132.35 165.05 131.75C165.242 131.15 165.518 130.64 165.878 130.22C166.25 129.788 166.706 129.458 167.246 129.23C167.786 129.002 168.404 128.888 169.1 128.888C170.048 128.888 170.828 129.098 171.44 129.518C172.064 129.938 172.514 130.52 172.79 131.264L170.9 132.11C170.792 131.714 170.588 131.39 170.288 131.138C170 130.874 169.604 130.742 169.1 130.742C168.452 130.742 167.966 130.946 167.642 131.354C167.33 131.762 167.174 132.296 167.174 132.956V134.666C167.174 135.326 167.33 135.86 167.642 136.268C167.966 136.664 168.452 136.862 169.1 136.862C169.652 136.862 170.078 136.724 170.378 136.448C170.678 136.16 170.912 135.806 171.08 135.386L172.844 136.232C172.532 137.06 172.058 137.684 171.422 138.104C170.786 138.512 170.012 138.716 169.1 138.716ZM178.33 138.716C177.634 138.716 177.01 138.602 176.458 138.374C175.918 138.134 175.456 137.804 175.072 137.384C174.7 136.952 174.412 136.436 174.208 135.836C174.004 135.224 173.902 134.54 173.902 133.784C173.902 133.04 173.998 132.368 174.19 131.768C174.394 131.168 174.682 130.658 175.054 130.238C175.426 129.806 175.882 129.476 176.422 129.248C176.962 129.008 177.574 128.888 178.258 128.888C178.99 128.888 179.626 129.014 180.166 129.266C180.706 129.518 181.15 129.86 181.498 130.292C181.846 130.724 182.104 131.228 182.272 131.804C182.452 132.368 182.542 132.974 182.542 133.622V134.378H176.296V134.612C176.296 135.296 176.488 135.848 176.872 136.268C177.256 136.676 177.826 136.88 178.582 136.88C179.158 136.88 179.626 136.76 179.986 136.52C180.358 136.28 180.688 135.974 180.976 135.602L182.218 136.988C181.834 137.528 181.306 137.954 180.634 138.266C179.974 138.566 179.206 138.716 178.33 138.716ZM178.294 130.616C177.682 130.616 177.196 130.82 176.836 131.228C176.476 131.636 176.296 132.164 176.296 132.812V132.956H180.148V132.794C180.148 132.146 179.986 131.624 179.662 131.228C179.35 130.82 178.894 130.616 178.294 130.616ZM187.647 138.716C186.747 138.716 185.991 138.566 185.379 138.266C184.767 137.954 184.227 137.528 183.759 136.988L185.163 135.62C185.511 136.016 185.889 136.328 186.297 136.556C186.717 136.784 187.197 136.898 187.737 136.898C188.289 136.898 188.685 136.802 188.925 136.61C189.177 136.418 189.303 136.154 189.303 135.818C189.303 135.542 189.213 135.326 189.033 135.17C188.865 135.002 188.571 134.888 188.151 134.828L187.215 134.702C186.195 134.57 185.415 134.282 184.875 133.838C184.347 133.382 184.083 132.722 184.083 131.858C184.083 131.402 184.167 130.994 184.335 130.634C184.503 130.262 184.743 129.95 185.055 129.698C185.367 129.434 185.739 129.236 186.171 129.104C186.615 128.96 187.107 128.888 187.647 128.888C188.103 128.888 188.505 128.924 188.853 128.996C189.213 129.056 189.537 129.152 189.825 129.284C190.113 129.404 190.377 129.56 190.617 129.752C190.857 129.932 191.091 130.136 191.319 130.364L189.969 131.714C189.693 131.426 189.363 131.186 188.979 130.994C188.595 130.802 188.175 130.706 187.719 130.706C187.215 130.706 186.849 130.796 186.621 130.976C186.405 131.156 186.297 131.39 186.297 131.678C186.297 131.99 186.387 132.23 186.567 132.398C186.759 132.554 187.077 132.668 187.521 132.74L188.475 132.866C190.503 133.154 191.517 134.078 191.517 135.638C191.517 136.094 191.421 136.514 191.229 136.898C191.049 137.27 190.791 137.594 190.455 137.87C190.119 138.134 189.711 138.344 189.231 138.5C188.763 138.644 188.235 138.716 187.647 138.716ZM196.507 138.716C195.607 138.716 194.851 138.566 194.239 138.266C193.627 137.954 193.087 137.528 192.619 136.988L194.023 135.62C194.371 136.016 194.749 136.328 195.157 136.556C195.577 136.784 196.057 136.898 196.597 136.898C197.149 136.898 197.545 136.802 197.785 136.61C198.037 136.418 198.163 136.154 198.163 135.818C198.163 135.542 198.073 135.326 197.893 135.17C197.725 135.002 197.431 134.888 197.011 134.828L196.075 134.702C195.055 134.57 194.275 134.282 193.735 133.838C193.207 133.382 192.943 132.722 192.943 131.858C192.943 131.402 193.027 130.994 193.195 130.634C193.363 130.262 193.603 129.95 193.915 129.698C194.227 129.434 194.599 129.236 195.031 129.104C195.475 128.96 195.967 128.888 196.507 128.888C196.963 128.888 197.365 128.924 197.713 128.996C198.073 129.056 198.397 129.152 198.685 129.284C198.973 129.404 199.237 129.56 199.477 129.752C199.717 129.932 199.951 130.136 200.179 130.364L198.829 131.714C198.553 131.426 198.223 131.186 197.839 130.994C197.455 130.802 197.035 130.706 196.579 130.706C196.075 130.706 195.709 130.796 195.481 130.976C195.265 131.156 195.157 131.39 195.157 131.678C195.157 131.99 195.247 132.23 195.427 132.398C195.619 132.554 195.937 132.668 196.381 132.74L197.335 132.866C199.363 133.154 200.377 134.078 200.377 135.638C200.377 136.094 200.281 136.514 200.089 136.898C199.909 137.27 199.651 137.594 199.315 137.87C198.979 138.134 198.571 138.344 198.091 138.5C197.623 138.644 197.095 138.716 196.507 138.716ZM202.809 130.922H201.423V129.104H202.809V127.754C202.809 126.926 203.025 126.29 203.457 125.846C203.901 125.402 204.549 125.18 205.401 125.18H207.039V127.016H205.113V129.104H207.039V130.922H205.113V138.5H202.809V130.922ZM214.25 136.934H214.16C214.076 137.174 213.962 137.402 213.818 137.618C213.686 137.822 213.512 138.008 213.296 138.176C213.092 138.344 212.84 138.476 212.54 138.572C212.252 138.668 211.916 138.716 211.532 138.716C210.56 138.716 209.816 138.398 209.3 137.762C208.784 137.126 208.526 136.22 208.526 135.044V129.104H210.83V134.81C210.83 135.458 210.956 135.956 211.208 136.304C211.46 136.64 211.862 136.808 212.414 136.808C212.642 136.808 212.864 136.778 213.08 136.718C213.308 136.658 213.506 136.568 213.674 136.448C213.842 136.316 213.98 136.16 214.088 135.98C214.196 135.788 214.25 135.566 214.25 135.314V129.104H216.554V138.5H214.25V136.934ZM221.52 138.5C220.728 138.5 220.146 138.302 219.774 137.906C219.402 137.51 219.216 136.952 219.216 136.232V125.18H221.52V136.664H222.762V138.5H221.52ZM226.688 138.5C225.896 138.5 225.314 138.302 224.942 137.906C224.57 137.51 224.384 136.952 224.384 136.232V125.18H226.688V136.664H227.93V138.5H226.688ZM235.312 129.104H237.472L233.692 140.174C233.572 140.51 233.434 140.798 233.278 141.038C233.134 141.29 232.96 141.494 232.756 141.65C232.552 141.806 232.306 141.92 232.018 141.992C231.73 142.064 231.394 142.1 231.01 142.1H229.624V140.264H231.316L231.748 138.95L228.382 129.104H230.668L232.306 134.072L232.918 136.448H233.026L233.674 134.072L235.312 129.104ZM239.963 134.72L239.225 129.482V125.936H241.673V129.482L240.971 134.72H239.963ZM240.449 138.716C239.933 138.716 239.561 138.596 239.333 138.356C239.105 138.116 238.991 137.81 238.991 137.438V137.078C238.991 136.706 239.105 136.4 239.333 136.16C239.561 135.92 239.933 135.8 240.449 135.8C240.953 135.8 241.319 135.92 241.547 136.16C241.775 136.4 241.889 136.706 241.889 137.078V137.438C241.889 137.81 241.775 138.116 241.547 138.356C241.319 138.596 240.953 138.716 240.449 138.716Z" fill="#008AA7"/>
<defs>
<filter id="filter0_d_6421_142950" x="81.3691" y="5.375" width="104.993" height="104.992" filterUnits="userSpaceOnUse" color-interpolation-filters="sRGB">
<feFlood flood-opacity="0" result="BackgroundImageFix"/>
<feColorMatrix in="SourceAlpha" type="matrix" values="0 0 0 0 0 0 0 0 0 0 0 0 0 0 0 0 0 0 127 0" result="hardAlpha"/>
<feOffset dy="4"/>
<feGaussianBlur stdDeviation="8"/>
<feComposite in2="hardAlpha" operator="out"/>
<feColorMatrix type="matrix" values="0 0 0 0 0.0392157 0 0 0 0 0.388235 0 0 0 0 0.458824 0 0 0 0.2 0"/>
<feBlend mode="normal" in2="BackgroundImageFix" result="effect1_dropShadow_6421_142950"/>
<feBlend mode="normal" in="SourceGraphic" in2="effect1_dropShadow_6421_142950" result="shape"/>
</filter>
<linearGradient id="paint0_linear_6421_142950" x1="133.913" y1="-278.731" x2="133.913" y2="111.764" gradientUnits="userSpaceOnUse">
<stop stop-color="#008AA7"/>
<stop offset="0.978449" stop-color="#008AA7" stop-opacity="0"/>
</linearGradient>
</defs>
</svg>
