<svg width="40" height="40" viewBox="0 0 40 40" fill="none" xmlns="http://www.w3.org/2000/svg">
<path fill-rule="evenodd" clip-rule="evenodd" d="M20.0033 0.00809473C29.0207 0.00809473 36.6394 6.00215 39.1089 14.2293H33.3962C31.1651 9.03258 26.0088 5.39313 20.0033 5.39313C12.0961 5.39313 5.66027 11.7018 5.43651 19.5686L5.32815 33.527C2.05452 29.9674 0.0541992 25.2142 0.0541992 19.9921C0.0541992 8.95505 8.98569 0.0078125 20.0033 0.0078125V0.00809473ZM8.26065 19.6656C8.52212 13.2819 13.9911 8.01445 20.0036 8.01445C26.0158 8.01445 30.2838 11.8544 31.5952 17.0437C34.291 17.0437 37.0135 17.0711 39.7397 17.0711C39.8793 18.0247 39.9525 18.9999 39.9525 19.9924C39.9525 31.0295 31.021 39.9767 20.0033 39.9767C18.7818 39.9767 17.5862 39.8662 16.4254 39.6556V34.1476C17.5701 34.4372 18.7689 34.5914 20.0033 34.5914C27.1999 34.5914 33.1772 29.366 34.3624 22.4959H31.6982C30.549 27.9094 25.7498 31.9706 20.0033 31.9706C17.5037 31.9706 15.1834 31.202 13.2644 29.8881C13.2644 32.9025 13.4026 35.7717 13.4026 38.8554C11.5835 38.2168 9.88494 37.3216 8.35015 36.2132V34.1301L8.26037 19.6653L8.26065 19.6656ZM20.0036 13.4192C23.6277 13.4192 26.5655 16.3623 26.5655 19.9927C26.5655 23.6231 23.6277 26.5662 20.0036 26.5662C16.3796 26.5662 13.4417 23.6231 13.4417 19.9927C13.4417 16.3623 16.3796 13.4192 20.0036 13.4192Z" fill="white"/>
<path d="M20.0034 23.5643C21.9723 23.5643 23.5683 21.9654 23.5683 19.9931C23.5683 18.0208 21.9723 16.4219 20.0034 16.4219C18.0346 16.4219 16.4385 18.0208 16.4385 19.9931C16.4385 21.9654 18.0346 23.5643 20.0034 23.5643Z" fill="#FDAE09"/>
</svg>
