<svg width="24" height="24" viewBox="0 0 24 24" fill="none" xmlns="http://www.w3.org/2000/svg">
<path d="M21.2937 7.68326V10.6299H14.0309C13.2812 10.6299 12.6614 11.2497 12.6614 11.9994V15.046C12.6614 15.7958 13.2812 16.4155 14.0309 16.4155H21.2937V19.3622C21.2937 19.7377 21.0075 20.0238 20.632 20.0238H3.36755C2.99204 20.0238 2.70589 19.7377 2.70589 19.3622V6.81023C2.98328 6.94416 3.29384 7.0216 3.62144 7.0216H3.62153C7.52262 7.01813 11.73 7.0194 15.5707 7.02055C17.3601 7.02108 19.0698 7.0216 20.632 7.0216C21.0075 7.0216 21.2937 7.30774 21.2937 7.68326ZM14.0307 11.8455H14.0309H21.2937V15.1999H14.0309C13.9801 15.1999 13.9429 15.1826 13.9186 15.1583C13.8943 15.134 13.877 15.0968 13.877 15.046V11.9994C13.877 11.9485 13.8944 11.9113 13.9186 11.887C13.9429 11.8627 13.98 11.8454 14.0307 11.8455ZM3.62144 2.75937C2.44976 2.75937 1.49033 3.71881 1.49033 4.89049V19.3622C1.49033 20.3932 2.33653 21.2394 3.36755 21.2394H20.632C21.663 21.2394 22.5092 20.3932 22.5092 19.3622V7.68326C22.5092 6.65224 21.663 5.80604 20.632 5.80604H19.4626V3.36715C19.4625 3.04605 19.1759 2.75941 18.8548 2.75937H3.62144ZM3.62144 3.97493H18.247V5.80604H3.62144C3.10527 5.80604 2.70589 5.40666 2.70589 4.89049C2.70589 4.37431 3.10527 3.97493 3.62144 3.97493ZM16.5698 12.4072C15.9537 12.4072 15.4542 12.9066 15.4542 13.5227C15.4542 14.1388 15.9537 14.6383 16.5698 14.6383C17.1859 14.6383 17.6853 14.1388 17.6853 13.5227C17.6853 12.9066 17.1859 12.4072 16.5698 12.4072Z" fill="black" stroke="black" stroke-width="0.2"/>
</svg>
