<svg width="15" height="14" viewBox="0 0 15 14" fill="none" xmlns="http://www.w3.org/2000/svg">
<path d="M7.11501 0C3.24938 0 0.115005 3.13438 0.115005 7C0.115005 10.8656 3.24938 14 7.11501 14C10.9806 14 14.115 10.8656 14.115 7C14.115 3.13438 10.9806 0 7.11501 0ZM10.1384 4.71406L6.84782 9.27656C6.80183 9.34076 6.7412 9.39306 6.67095 9.42914C6.60071 9.46523 6.52288 9.48405 6.44391 9.48405C6.36494 9.48405 6.28711 9.46523 6.21687 9.42914C6.14663 9.39306 6.086 9.34076 6.04001 9.27656L4.09157 6.57656C4.03219 6.49375 4.09157 6.37813 4.19313 6.37813H4.92594C5.08532 6.37813 5.23688 6.45469 5.33063 6.58594L6.44313 8.12969L8.89938 4.72344C8.99313 4.59375 9.14313 4.51562 9.30407 4.51562H10.0369C10.1384 4.51562 10.1978 4.63125 10.1384 4.71406Z" fill="#22C55E"/>
</svg>
