<svg width="13" height="20" viewBox="0 0 13 20" fill="none" xmlns="http://www.w3.org/2000/svg">
<path fill-rule="evenodd" clip-rule="evenodd" d="M2.51501 0.400391C1.87849 0.400391 1.26804 0.653247 0.817949 1.10333C0.367862 1.55342 0.115005 2.16387 0.115005 2.80039V17.2004C0.115005 17.8369 0.367862 18.4474 0.817949 18.8974C1.26804 19.3475 1.87849 19.6004 2.51501 19.6004H9.71501C10.3515 19.6004 10.962 19.3475 11.4121 18.8974C11.8621 18.4474 12.115 17.8369 12.115 17.2004V2.80039C12.115 2.16387 11.8621 1.55342 11.4121 1.10333C10.962 0.653247 10.3515 0.400391 9.71501 0.400391H2.51501ZM6.11501 17.2004C6.43327 17.2004 6.73849 17.074 6.96353 16.8489C7.18858 16.6239 7.31501 16.3187 7.31501 16.0004C7.31501 15.6821 7.18858 15.3769 6.96353 15.1519C6.73849 14.9268 6.43327 14.8004 6.11501 14.8004C5.79675 14.8004 5.49152 14.9268 5.26648 15.1519C5.04143 15.3769 4.91501 15.6821 4.91501 16.0004C4.91501 16.3187 5.04143 16.6239 5.26648 16.8489C5.49152 17.074 5.79675 17.2004 6.11501 17.2004Z" fill="black"/>
</svg>
