<svg width="259" height="143" viewBox="0 0 259 143" fill="none" xmlns="http://www.w3.org/2000/svg">
<path d="M114.693 58.7109C119.471 65.4368 119.762 77.3901 113.036 82.1679C106.31 86.9457 95.1147 82.7321 90.3369 75.9974C85.5591 69.2626 80.9135 52.6814 86.4935 48.0446C92.0735 43.4079 109.915 51.985 114.693 58.7109Z" fill="white"/>
<path d="M106.143 85.1038C104.296 85.0841 102.462 84.787 100.704 84.2223C96.282 82.894 92.4 80.1886 89.6231 76.5003C87.0755 72.9037 84.7307 66.9799 83.6641 61.3999C82.9236 57.4772 82.2184 50.4427 85.9295 47.3575C87.5339 46.0264 89.9845 45.5944 93.2196 45.9823C100.88 46.9872 111.67 52.911 115.407 58.1824C117.979 62.0166 119.258 66.5724 119.057 71.1847C118.863 76.3416 116.897 80.4847 113.547 82.8736C111.374 84.3744 108.784 85.1546 106.143 85.1038ZM91.0776 47.6131C89.6572 47.5144 88.2464 47.9099 87.0843 48.7326C84.8805 50.5573 84.2811 55.0619 85.4271 61.0738C86.432 66.3629 88.7063 72.1368 91.0864 75.4865C93.6353 78.8573 97.1926 81.3277 101.241 82.5386C105.649 83.8873 109.651 83.4906 112.551 81.4367C115.451 79.3828 117.144 75.7069 117.32 71.123C117.505 66.9038 116.341 62.7354 113.997 59.2226C110.55 54.3655 100.157 48.6445 93.0169 47.763C92.3748 47.6676 91.7267 47.6176 91.0776 47.6131Z" fill="#0A6375"/>
<path d="M142.981 58.7109C138.203 65.4368 137.912 77.3901 144.638 82.1679C151.364 86.9457 162.551 82.7321 167.328 75.9974C172.106 69.2626 176.761 52.6814 171.181 48.0446C165.601 43.4079 147.75 51.985 142.981 58.7109Z" fill="white"/>
<path d="M151.523 85.1027C148.886 85.1586 146.299 84.3846 144.127 82.8901C140.768 80.5013 138.838 76.3581 138.608 71.2013C138.415 66.5899 139.693 62.0365 142.258 58.199C146.004 52.9099 156.785 47.0038 164.454 45.9989C167.689 45.5757 170.14 45.9989 171.744 47.374C175.447 50.4593 174.75 57.4938 174.001 61.4165C172.934 66.9965 170.598 72.8762 168.051 76.5168C165.271 80.2016 161.39 82.9061 156.97 84.2389C155.208 84.7973 153.371 85.0885 151.523 85.1027ZM143.695 59.2215C141.351 62.7411 140.187 66.915 140.371 71.1396C140.548 75.7235 142.249 79.3905 145.149 81.4533C148.049 83.516 152.06 83.9039 156.459 82.5552C160.507 81.342 164.063 78.8721 166.614 75.5031C168.985 72.1533 171.268 66.3618 172.273 61.0903C173.419 55.0696 172.82 50.5651 170.616 48.7492C169.426 47.7531 167.372 47.4181 164.675 47.7707C157.543 48.6522 147.15 54.382 143.695 59.2303V59.2215Z" fill="#0A6375"/>
<path d="M167.945 136.963C168.562 139.537 166.006 141.908 162.656 141.908H155.869C154.871 141.957 153.879 141.737 152.995 141.272C152.112 140.807 151.369 140.113 150.844 139.264L147.494 132.961C141.641 135.684 135.262 137.095 128.806 137.095C122.35 137.095 115.972 135.684 110.118 132.961L106.821 139.29C106.296 140.14 105.554 140.833 104.67 141.298C103.786 141.763 102.794 141.983 101.797 141.935H95.009C91.6328 141.935 89.0765 139.563 89.72 136.989L93.8014 119.888C88.8527 113.462 85.7673 105.798 84.8828 97.7361C83.9983 89.6738 85.3489 81.5235 88.7866 74.1774C92.2244 66.8313 97.6169 60.5725 104.374 56.0862C111.131 51.5998 118.992 49.0588 127.096 48.7412C127.669 48.7412 128.251 48.7412 128.859 48.7412C129.467 48.7412 130.023 48.7412 130.622 48.7412C138.727 49.0588 146.588 51.5998 153.344 56.0862C160.101 60.5725 165.494 66.8313 168.932 74.1774C172.369 81.5235 173.72 89.6738 172.835 97.7361C171.951 105.798 168.865 113.462 163.917 119.888L167.945 136.963Z" fill="white"/>
<path d="M162.63 142.79H155.842C154.688 142.843 153.54 142.585 152.519 142.042C151.499 141.499 150.643 140.692 150.042 139.705L147.124 134.116C141.362 136.662 135.132 137.977 128.833 137.977C122.533 137.977 116.303 136.662 110.541 134.116L107.632 139.696C107.032 140.686 106.175 141.496 105.153 142.04C104.13 142.585 102.98 142.844 101.823 142.79H95.0356C94.0349 142.818 93.0405 142.623 92.1253 142.217C91.2101 141.811 90.3973 141.206 89.7465 140.445C89.3246 139.941 89.0253 139.346 88.8723 138.706C88.7194 138.067 88.7169 137.401 88.865 136.76L92.8406 120.064C87.8727 113.492 84.8007 105.685 83.9584 97.4893C83.1161 89.294 84.5357 81.0245 88.063 73.5793C91.5902 66.1341 97.0902 59.7978 103.966 55.2588C110.841 50.7198 118.829 48.1517 127.061 47.8334C128.235 47.7639 129.413 47.7639 130.587 47.8334C138.815 48.1608 146.796 50.7348 153.666 55.2762C160.535 59.8176 166.029 66.1531 169.553 73.5955C173.077 81.0379 174.496 89.3031 173.657 97.4948C172.817 105.686 169.75 113.492 164.79 120.064L168.774 136.76C168.92 137.401 168.917 138.067 168.764 138.706C168.611 139.345 168.313 139.94 167.893 140.445C167.244 141.201 166.435 141.804 165.525 142.209C164.615 142.615 163.626 142.813 162.63 142.79ZM147.494 132.079C147.656 132.079 147.815 132.123 147.953 132.207C148.092 132.291 148.204 132.412 148.279 132.556L151.576 138.885C152.034 139.581 152.666 140.145 153.41 140.521C154.154 140.897 154.984 141.071 155.816 141.027H162.604C163.342 141.053 164.076 140.916 164.756 140.627C165.435 140.337 166.042 139.902 166.535 139.352C166.786 139.055 166.965 138.704 167.057 138.326C167.149 137.948 167.151 137.554 167.064 137.175L162.983 120.073C162.952 119.946 162.951 119.813 162.978 119.685C163.006 119.557 163.061 119.437 163.141 119.333C167.99 113.036 171.014 105.526 171.882 97.6262C172.749 89.726 171.427 81.7394 168.059 74.5403C164.692 67.3413 159.409 61.2072 152.789 56.8093C146.169 52.4114 138.467 49.9191 130.525 49.6052C129.398 49.5347 128.268 49.5347 127.14 49.6052C119.199 49.9191 111.497 52.4114 104.877 56.8093C98.2566 61.2072 92.9739 67.3413 89.6064 74.5403C86.239 81.7394 84.9166 89.726 85.784 97.6262C86.6514 105.526 89.6751 113.036 94.5243 119.333C94.6056 119.436 94.6629 119.556 94.6919 119.684C94.7208 119.812 94.7208 119.945 94.6918 120.073L90.6104 137.175C90.5205 137.555 90.5216 137.951 90.6135 138.331C90.7054 138.711 90.8855 139.064 91.1393 139.361C91.6307 139.91 92.2367 140.345 92.9145 140.634C93.5923 140.924 94.3254 141.061 95.0621 141.036H101.85C102.683 141.081 103.514 140.907 104.26 140.531C105.005 140.155 105.639 139.591 106.099 138.894L109.395 132.564C109.501 132.363 109.68 132.211 109.895 132.139C110.11 132.067 110.345 132.08 110.55 132.176C116.288 134.842 122.537 136.223 128.864 136.223C135.19 136.223 141.44 134.842 147.177 132.176C147.275 132.123 147.383 132.09 147.494 132.079Z" fill="#0A6375"/>
<path d="M128.833 102.584C139.008 102.584 147.256 98.0924 147.256 92.5521C147.256 87.0118 139.008 82.5205 128.833 82.5205C118.658 82.5205 110.409 87.0118 110.409 92.5521C110.409 98.0924 118.658 102.584 128.833 102.584Z" fill="white"/>
<path d="M128.832 103.456C118.007 103.456 109.527 98.6695 109.527 92.5518C109.527 86.4341 118.007 81.6387 128.832 81.6387C139.657 81.6387 148.138 86.4253 148.138 92.5518C148.138 98.6783 139.657 103.456 128.832 103.456ZM128.832 83.4017C119.33 83.4017 111.29 87.5889 111.29 92.5518C111.29 97.5147 119.33 101.693 128.832 101.693C138.335 101.693 146.375 97.5059 146.375 92.5518C146.375 87.5977 138.344 83.4017 128.832 83.4017Z" fill="#0A6375"/>
<path d="M110.101 133.843C109.949 133.843 109.8 133.803 109.669 133.729C109.307 133.526 106.143 131.684 105.191 129.859C105.087 129.65 105.07 129.408 105.144 129.186C105.219 128.965 105.378 128.782 105.587 128.678C105.796 128.573 106.037 128.555 106.258 128.628C106.479 128.701 106.663 128.858 106.769 129.066C107.28 130.079 109.351 131.525 110.533 132.195C110.736 132.31 110.885 132.5 110.948 132.725C111.011 132.95 110.982 133.19 110.868 133.394C110.791 133.53 110.68 133.643 110.545 133.722C110.41 133.801 110.257 133.843 110.101 133.843Z" fill="#0A6375"/>
<path d="M147.574 133.843C147.379 133.845 147.188 133.781 147.033 133.663C146.878 133.545 146.766 133.378 146.716 133.19C146.666 133.001 146.679 132.801 146.755 132.621C146.83 132.441 146.963 132.291 147.133 132.195C148.323 131.525 150.395 130.079 150.906 129.066C151.012 128.858 151.195 128.701 151.416 128.628C151.638 128.555 151.879 128.573 152.087 128.678C152.296 128.782 152.455 128.965 152.53 129.186C152.604 129.408 152.588 129.65 152.484 129.859C151.602 131.684 148.367 133.526 148.006 133.729C147.874 133.803 147.725 133.843 147.574 133.843Z" fill="#0A6375"/>
<path d="M122.468 96.5981C124.703 96.5981 126.514 94.7866 126.514 92.552C126.514 90.3174 124.703 88.5059 122.468 88.5059C120.233 88.5059 118.422 90.3174 118.422 92.552C118.422 94.7866 120.233 96.5981 122.468 96.5981Z" fill="#0A6375"/>
<path d="M135.206 96.5981C137.44 96.5981 139.252 94.7866 139.252 92.552C139.252 90.3174 137.44 88.5059 135.206 88.5059C132.971 88.5059 131.16 90.3174 131.16 92.552C131.16 94.7866 132.971 96.5981 135.206 96.5981Z" fill="#0A6375"/>
<path d="M118.881 68.6193C118.647 68.6193 118.423 68.7122 118.257 68.8775C118.092 69.0428 117.999 69.267 117.999 69.5008C117.999 71.1514 117.343 72.7343 116.176 73.9015C115.009 75.0686 113.426 75.7243 111.776 75.7243C110.125 75.7243 108.542 75.0686 107.375 73.9015C106.208 72.7343 105.552 71.1514 105.552 69.5008C105.552 69.267 105.459 69.0428 105.294 68.8775C105.129 68.7122 104.904 68.6193 104.671 68.6193C104.437 68.6193 104.213 68.7122 104.047 68.8775C103.882 69.0428 103.789 69.267 103.789 69.5008C103.789 71.619 104.63 73.6504 106.128 75.1481C107.626 76.6459 109.657 77.4873 111.776 77.4873C113.894 77.4873 115.925 76.6459 117.423 75.1481C118.921 73.6504 119.762 71.619 119.762 69.5008C119.762 69.267 119.669 69.0428 119.504 68.8775C119.339 68.7122 119.114 68.6193 118.881 68.6193Z" fill="#0A6375"/>
<path d="M153.004 68.6193C152.77 68.6193 152.546 68.7122 152.38 68.8775C152.215 69.0428 152.122 69.267 152.122 69.5008C152.122 71.1514 151.466 72.7343 150.299 73.9015C149.132 75.0686 147.549 75.7243 145.899 75.7243C144.248 75.7243 142.665 75.0686 141.498 73.9015C140.331 72.7343 139.675 71.1514 139.675 69.5008C139.675 69.267 139.582 69.0428 139.417 68.8775C139.252 68.7122 139.027 68.6193 138.794 68.6193C138.56 68.6193 138.336 68.7122 138.17 68.8775C138.005 69.0428 137.912 69.267 137.912 69.5008C137.912 71.619 138.754 73.6504 140.251 75.1481C141.749 76.6459 143.78 77.4873 145.899 77.4873C148.017 77.4873 150.048 76.6459 151.546 75.1481C153.044 73.6504 153.885 71.619 153.885 69.5008C153.885 69.267 153.792 69.0428 153.627 68.8775C153.462 68.7122 153.237 68.6193 153.004 68.6193Z" fill="#0A6375"/>
<path d="M130.569 48.7149V58.8435H127.096V48.7149C127.669 48.7149 128.251 48.7149 128.859 48.7149C129.467 48.7149 129.996 48.6796 130.569 48.7149Z" fill="#0A6375"/>
<path d="M130.57 59.7257H127.096C126.863 59.7257 126.638 59.6329 126.473 59.4676C126.308 59.3022 126.215 59.078 126.215 58.8442V48.7157C126.214 48.4907 126.3 48.2742 126.454 48.1103C126.608 47.9464 126.819 47.8476 127.043 47.8341C128.235 47.7636 129.43 47.7636 130.622 47.8341C130.847 47.8476 131.058 47.9464 131.212 48.1103C131.366 48.2742 131.451 48.4907 131.451 48.7157V58.8442C131.451 59.078 131.358 59.3022 131.193 59.4676C131.028 59.6329 130.803 59.7257 130.57 59.7257ZM127.978 57.9627H129.688V49.5619H127.978V57.9627Z" fill="#0A6375"/>
<path d="M101.074 54.6386C100.949 54.6395 100.826 54.6141 100.712 54.5639C100.598 54.5138 100.496 54.4401 100.413 54.3477C96.8867 50.4249 90.3988 51.3505 90.3371 51.3593C90.2213 51.3767 90.1033 51.3711 89.9897 51.3428C89.8761 51.3146 89.7692 51.2642 89.675 51.1946C89.5809 51.1251 89.5014 51.0376 89.441 50.9373C89.3807 50.837 89.3407 50.7258 89.3233 50.61C89.306 50.4943 89.3116 50.3762 89.3398 50.2626C89.3681 50.149 89.4185 50.0421 89.488 49.948C89.5576 49.8539 89.6451 49.7744 89.7454 49.714C89.8457 49.6537 89.9569 49.6137 90.0726 49.5963C90.3812 49.5963 97.5919 48.512 101.726 53.1224C101.838 53.2491 101.91 53.405 101.936 53.5718C101.961 53.7386 101.938 53.9091 101.869 54.0631C101.8 54.2172 101.689 54.3483 101.548 54.4409C101.407 54.5335 101.243 54.5838 101.074 54.5857V54.6386Z" fill="#0A6375"/>
<path d="M156.6 54.6382C156.466 54.6389 156.334 54.6091 156.213 54.5511C156.093 54.493 155.987 54.4083 155.904 54.3032C155.761 54.1194 155.696 53.8865 155.724 53.6552C155.752 53.424 155.871 53.2133 156.054 53.0691C162.692 47.78 167.425 49.4725 167.619 49.543C167.833 49.6272 168.005 49.7912 168.099 50.0004C168.194 50.2095 168.203 50.4472 168.125 50.663C168.047 50.8788 167.888 51.0557 167.681 51.156C167.475 51.2563 167.238 51.2722 167.02 51.2003C166.835 51.1386 162.938 49.878 157.147 54.4531C156.991 54.5743 156.798 54.6395 156.6 54.6382Z" fill="#0A6375"/>
<path d="M110.101 103.519C110.101 103.519 111.476 110.306 118.422 109.398L110.101 103.519Z" fill="white"/>
<path d="M133.84 110.157C129.423 107.445 125.267 109.869 123.593 111.686C123.43 111.86 123.344 112.092 123.353 112.331C123.362 112.569 123.465 112.794 123.64 112.956C123.815 113.118 124.047 113.204 124.285 113.195C124.523 113.186 124.748 113.083 124.911 112.909C125.085 112.726 129.137 108.501 133.876 112.341C134.059 112.489 134.294 112.558 134.528 112.534C134.763 112.509 134.978 112.392 135.126 112.209C135.274 112.025 135.343 111.79 135.319 111.556C135.294 111.322 135.177 111.107 134.993 110.958C134.627 110.666 134.242 110.398 133.84 110.157Z" fill="#0A6375"/>
<path d="M110.409 99.9219C110.409 99.9219 111.688 102.029 108.038 104.259L110.409 99.9219Z" fill="white"/>
<path d="M195.651 134.707H176.223C175.336 134.707 174.618 135.425 174.618 136.311V140.305C174.618 141.191 175.336 141.909 176.223 141.909H195.651C196.537 141.909 197.255 141.191 197.255 140.305V136.311C197.255 135.425 196.537 134.707 195.651 134.707Z" fill="#FFB9AA"/>
<path d="M195.66 142.79H176.267C175.941 142.791 175.618 142.728 175.316 142.604C175.015 142.48 174.741 142.298 174.51 142.068C174.279 141.838 174.096 141.564 173.971 141.263C173.846 140.962 173.781 140.639 173.781 140.313V136.311C173.781 135.652 174.043 135.019 174.509 134.553C174.976 134.087 175.608 133.825 176.267 133.825H195.66C195.986 133.825 196.309 133.89 196.61 134.015C196.911 134.14 197.185 134.323 197.415 134.554C197.645 134.785 197.827 135.059 197.951 135.36C198.075 135.662 198.139 135.985 198.137 136.311V140.313C198.137 140.97 197.876 141.6 197.412 142.065C196.947 142.529 196.317 142.79 195.66 142.79ZM176.267 135.588C176.075 135.588 175.892 135.664 175.756 135.8C175.62 135.935 175.544 136.119 175.544 136.311V140.313C175.547 140.503 175.624 140.685 175.759 140.819C175.894 140.952 176.077 141.027 176.267 141.027H195.66C195.85 141.027 196.031 140.952 196.165 140.818C196.299 140.684 196.374 140.502 196.374 140.313V136.311C196.374 136.121 196.299 135.938 196.166 135.803C196.032 135.668 195.851 135.591 195.66 135.588H176.267Z" fill="#0A6375"/>
<path d="M198.137 127.223H178.709C177.823 127.223 177.104 127.941 177.104 128.827V132.82C177.104 133.706 177.823 134.425 178.709 134.425H198.137C199.023 134.425 199.742 133.706 199.742 132.82V128.827C199.742 127.941 199.023 127.223 198.137 127.223Z" fill="#FFB9AA"/>
<path d="M198.146 135.306H178.752C178.093 135.306 177.461 135.044 176.995 134.578C176.529 134.112 176.267 133.479 176.267 132.82V128.818C176.269 128.16 176.532 127.53 176.998 127.066C177.464 126.602 178.095 126.341 178.752 126.341H198.146C198.803 126.341 199.433 126.602 199.897 127.066C200.362 127.531 200.623 128.161 200.623 128.818V132.82C200.624 133.146 200.561 133.469 200.437 133.771C200.313 134.072 200.131 134.346 199.9 134.577C199.67 134.808 199.397 134.991 199.096 135.116C198.795 135.241 198.472 135.306 198.146 135.306ZM178.752 128.104C178.562 128.104 178.38 128.179 178.244 128.312C178.109 128.446 178.032 128.628 178.03 128.818V132.82C178.03 133.012 178.106 133.195 178.241 133.331C178.377 133.467 178.561 133.543 178.752 133.543H198.146C198.336 133.54 198.518 133.463 198.651 133.328C198.785 133.193 198.86 133.01 198.86 132.82V128.818C198.86 128.628 198.785 128.447 198.651 128.313C198.517 128.179 198.335 128.104 198.146 128.104H178.752Z" fill="#0A6375"/>
<path d="M192.91 120.021H173.481C172.595 120.021 171.877 120.74 171.877 121.626V125.619C171.877 126.505 172.595 127.223 173.481 127.223H192.91C193.796 127.223 194.514 126.505 194.514 125.619V121.626C194.514 120.74 193.796 120.021 192.91 120.021Z" fill="#FFB9AA"/>
<path d="M192.919 128.105H173.525C172.866 128.105 172.234 127.843 171.768 127.377C171.301 126.91 171.04 126.278 171.04 125.619V121.617C171.04 121.291 171.104 120.968 171.229 120.667C171.354 120.366 171.537 120.092 171.768 119.862C171.999 119.632 172.273 119.45 172.575 119.326C172.876 119.202 173.199 119.139 173.525 119.14H192.919C193.576 119.14 194.206 119.401 194.67 119.865C195.135 120.33 195.396 120.96 195.396 121.617V125.619C195.396 126.277 195.135 126.908 194.671 127.373C194.206 127.839 193.576 128.102 192.919 128.105ZM173.525 120.903C173.335 120.903 173.153 120.978 173.017 121.111C172.882 121.245 172.805 121.427 172.803 121.617V125.619C172.803 125.81 172.879 125.994 173.014 126.13C173.15 126.265 173.334 126.342 173.525 126.342H192.919C193.109 126.339 193.29 126.262 193.424 126.127C193.558 125.991 193.633 125.809 193.633 125.619V121.617C193.633 121.427 193.557 121.246 193.424 121.112C193.29 120.978 193.108 120.903 192.919 120.903H173.525Z" fill="#0A6375"/>
<path d="M195.651 112.818H176.223C175.336 112.818 174.618 113.537 174.618 114.423V118.416C174.618 119.302 175.336 120.02 176.223 120.02H195.651C196.537 120.02 197.255 119.302 197.255 118.416V114.423C197.255 113.537 196.537 112.818 195.651 112.818Z" fill="#FFB9AA"/>
<path d="M195.66 120.902H176.267C175.608 120.902 174.976 120.641 174.509 120.174C174.043 119.708 173.781 119.076 173.781 118.417V114.415C173.781 114.089 173.846 113.766 173.971 113.465C174.096 113.163 174.279 112.89 174.51 112.66C174.741 112.43 175.015 112.247 175.316 112.124C175.618 112 175.941 111.936 176.267 111.938H195.66C196.317 111.938 196.947 112.198 197.412 112.663C197.876 113.128 198.137 113.758 198.137 114.415V118.417C198.137 119.074 197.877 119.705 197.412 120.171C196.948 120.637 196.318 120.9 195.66 120.902ZM176.267 113.701C176.077 113.701 175.894 113.775 175.759 113.909C175.624 114.043 175.547 114.224 175.544 114.415V118.417C175.544 118.608 175.62 118.792 175.756 118.928C175.892 119.063 176.075 119.139 176.267 119.139H195.66C195.851 119.137 196.032 119.06 196.166 118.925C196.299 118.789 196.374 118.607 196.374 118.417V114.415C196.374 114.225 196.299 114.044 196.165 113.91C196.031 113.776 195.85 113.701 195.66 113.701H176.267Z" fill="#0A6375"/>
<path d="M198.137 105.793H178.709C177.823 105.793 177.104 106.511 177.104 107.397V111.391C177.104 112.277 177.823 112.995 178.709 112.995H198.137C199.023 112.995 199.742 112.277 199.742 111.391V107.397C199.742 106.511 199.023 105.793 198.137 105.793Z" fill="#FFB9AA"/>
<path d="M198.146 113.875H178.753C178.095 113.875 177.464 113.614 176.998 113.15C176.532 112.686 176.269 112.056 176.267 111.398V107.396C176.267 106.737 176.529 106.104 176.995 105.638C177.461 105.172 178.094 104.91 178.753 104.91H198.146C198.472 104.91 198.795 104.975 199.096 105.1C199.397 105.225 199.671 105.408 199.901 105.639C200.131 105.87 200.313 106.144 200.437 106.445C200.561 106.747 200.624 107.07 200.623 107.396V111.398C200.623 112.055 200.362 112.685 199.898 113.15C199.433 113.614 198.803 113.875 198.146 113.875ZM178.753 106.673C178.561 106.673 178.377 106.749 178.242 106.885C178.106 107.02 178.03 107.204 178.03 107.396V111.398C178.032 111.588 178.11 111.77 178.245 111.904C178.38 112.037 178.563 112.112 178.753 112.112H198.146C198.336 112.112 198.517 112.037 198.651 111.903C198.785 111.769 198.86 111.587 198.86 111.398V107.396C198.86 107.206 198.785 107.023 198.652 106.888C198.518 106.753 198.336 106.676 198.146 106.673H178.753Z" fill="#0A6375"/>
<path d="M81.2663 134.707H61.8378C60.9517 134.707 60.2334 135.425 60.2334 136.311V140.305C60.2334 141.191 60.9517 141.909 61.8378 141.909H81.2663C82.1523 141.909 82.8706 141.191 82.8706 140.305V136.311C82.8706 135.425 82.1523 134.707 81.2663 134.707Z" fill="#FFB9AA"/>
<path d="M81.2751 142.79H61.8819C61.2241 142.79 60.5931 142.529 60.1272 142.065C59.6613 141.601 59.3983 140.971 59.396 140.313V136.311C59.396 135.652 59.6579 135.019 60.1241 134.553C60.5903 134.087 61.2226 133.825 61.8819 133.825H81.2751C81.9344 133.825 82.5667 134.087 83.0329 134.553C83.4991 135.019 83.761 135.652 83.761 136.311V140.313C83.7587 140.971 83.4957 141.601 83.0298 142.065C82.5639 142.529 81.9329 142.79 81.2751 142.79ZM61.8819 135.588C61.6902 135.588 61.5063 135.664 61.3707 135.8C61.2352 135.935 61.159 136.119 61.159 136.311V140.313C61.1613 140.503 61.2385 140.685 61.3738 140.819C61.5091 140.952 61.6917 141.027 61.8819 141.027H81.2751C81.4653 141.027 81.6479 140.952 81.7832 140.819C81.9185 140.685 81.9956 140.503 81.998 140.313V136.311C81.998 136.119 81.9218 135.935 81.7863 135.8C81.6507 135.664 81.4668 135.588 81.2751 135.588H61.8819Z" fill="#0A6375"/>
<path d="M77.4933 127.223H58.0648C57.1787 127.223 56.4604 127.941 56.4604 128.827V132.82C56.4604 133.706 57.1787 134.425 58.0648 134.425H77.4933C78.3794 134.425 79.0977 133.706 79.0977 132.82V128.827C79.0977 127.941 78.3794 127.223 77.4933 127.223Z" fill="#FFB9AA"/>
<path d="M77.4934 135.306H58.1001C57.7741 135.306 57.4513 135.241 57.1501 135.116C56.849 134.991 56.5756 134.808 56.3455 134.577C56.1153 134.346 55.933 134.072 55.8091 133.771C55.6851 133.469 55.6219 133.146 55.6231 132.82V128.818C55.6231 128.161 55.884 127.531 56.3486 127.066C56.8131 126.602 57.4432 126.341 58.1001 126.341H77.4934C78.1511 126.341 78.7821 126.602 79.248 127.066C79.714 127.53 79.9769 128.16 79.9792 128.818V132.82C79.9792 133.479 79.7173 134.112 79.2512 134.578C78.785 135.044 78.1527 135.306 77.4934 135.306ZM58.1001 128.104C57.9107 128.104 57.7291 128.179 57.5952 128.313C57.4613 128.447 57.3861 128.628 57.3861 128.818V132.82C57.3861 133.01 57.461 133.193 57.5947 133.328C57.7283 133.463 57.9099 133.54 58.1001 133.543H77.4934C77.6851 133.543 77.8689 133.467 78.0045 133.331C78.1401 133.195 78.2162 133.012 78.2162 132.82V128.818C78.2139 128.628 78.1367 128.446 78.0014 128.312C77.8661 128.179 77.6836 128.104 77.4934 128.104H58.1001Z" fill="#0A6375"/>
<path d="M83.0998 120.021H63.6713C62.7852 120.021 62.0669 120.74 62.0669 121.626V125.619C62.0669 126.505 62.7852 127.223 63.6713 127.223H83.0998C83.9858 127.223 84.7041 126.505 84.7041 125.619V121.626C84.7041 120.74 83.9858 120.021 83.0998 120.021Z" fill="#FFB9AA"/>
<path d="M83.1438 128.105H63.7505C63.0927 128.102 62.4627 127.839 61.9984 127.373C61.5341 126.908 61.2734 126.277 61.2734 125.619V121.617C61.2734 120.96 61.5344 120.33 61.9989 119.865C62.4635 119.401 63.0935 119.14 63.7505 119.14H83.1438C83.4698 119.139 83.7928 119.202 84.0944 119.326C84.3959 119.45 84.67 119.632 84.901 119.862C85.1319 120.092 85.3152 120.366 85.4402 120.667C85.5653 120.968 85.6296 121.291 85.6296 121.617V125.619C85.6296 126.278 85.3677 126.91 84.9015 127.377C84.4353 127.843 83.803 128.105 83.1438 128.105ZM63.7505 120.903C63.5611 120.903 63.3795 120.978 63.2456 121.112C63.1117 121.246 63.0365 121.427 63.0365 121.617V125.619C63.0364 125.809 63.1114 125.991 63.2451 126.127C63.3787 126.262 63.5603 126.339 63.7505 126.342H83.1438C83.3355 126.342 83.5193 126.265 83.6549 126.13C83.7904 125.994 83.8666 125.81 83.8666 125.619V121.617C83.8643 121.427 83.7871 121.245 83.6518 121.111C83.5165 120.978 83.3339 120.903 83.1438 120.903H63.7505Z" fill="#0A6375"/>
<g clip-path="url(#clip0_3901_88445)">
<path fill-rule="evenodd" clip-rule="evenodd" d="M207.158 71.6109C207.008 71.2844 206.874 70.958 206.756 70.6274C206.577 70.1316 206.467 69.6136 206.316 69.1105C206.252 68.8971 206.076 68.3431 206.064 68.2596C205.97 67.5313 206.509 67.2717 206.67 67.208C206.747 67.175 207.547 66.8619 207.969 67.7286C208.487 68.7881 208.859 69.895 209.077 71.0183C209.508 71.9075 210.067 72.7585 210.7 73.4947C213.22 76.4225 216.392 75.9224 219.726 74.9961C220.238 74.8507 220.773 75.1397 220.937 75.6435C221.102 76.1511 220.839 76.6992 220.339 76.8825C218.519 77.5636 215.606 79.9502 214.878 81.8171C214.726 82.2079 214.797 83.0328 214.82 83.8544C214.85 84.9953 214.828 86.1377 214.604 86.6753C214.571 86.7582 214.134 87.6328 213.976 87.7866C213.593 88.1527 213.195 88.1068 212.956 88.0308C212.717 87.9548 212.418 87.7593 212.211 87.3576C211.995 86.9378 211.832 86.0016 211.764 85.8096C211.519 85.1135 211.003 83.757 210.392 82.6361C210.063 82.0325 209.737 81.4817 209.381 81.2598C208.067 80.4385 206.477 81.0374 205.151 81.5864C204.998 81.6479 204.846 81.7133 204.694 81.7747C204.178 82.0899 203.617 82.372 203.008 82.6133C202.09 82.9789 201.7 82.1486 201.676 82.0932C201.624 81.9712 201.384 81.3357 202.029 80.8829C202.1 80.8351 202.641 80.5541 202.849 80.4447C203.14 80.2928 203.438 80.1554 203.738 80.0214C206.706 78.1472 207.707 74.8482 207.158 71.6109ZM209.205 74.8053C211.105 77.0057 213.287 77.7303 215.634 77.6943L215.634 77.6944C214.454 78.7807 213.445 80.0144 213.025 81.0946C212.866 81.5039 212.819 82.2533 212.819 83.0812C212.513 82.393 212.156 81.6692 211.781 81.0699C211.352 80.3858 210.879 79.8498 210.436 79.573C209.583 79.0399 208.645 78.8672 207.697 78.911C208.514 77.6751 209.009 76.2741 209.205 74.8053Z" fill="#E5E7EB"/>
</g>
<g clip-path="url(#clip1_3901_88445)">
<path fill-rule="evenodd" clip-rule="evenodd" d="M183.091 25.9751C183.017 25.813 182.95 25.6509 182.891 25.4868C182.803 25.2407 182.748 24.9835 182.673 24.7337C182.641 24.6277 182.553 24.3527 182.548 24.3112C182.501 23.9496 182.769 23.8207 182.848 23.7891C182.887 23.7727 183.284 23.6173 183.494 24.0476C183.751 24.5736 183.935 25.1232 184.044 25.6809C184.258 26.1224 184.535 26.5449 184.849 26.9104C186.1 28.3641 187.676 28.1158 189.331 27.6559C189.585 27.5837 189.851 27.7272 189.932 27.9773C190.014 28.2293 189.883 28.5015 189.635 28.5925C188.732 28.9307 187.285 30.1156 186.924 31.0425C186.848 31.2365 186.884 31.6461 186.895 32.054C186.91 32.6205 186.899 33.1877 186.788 33.4546C186.771 33.4958 186.555 33.93 186.476 34.0064C186.286 34.1881 186.088 34.1653 185.97 34.1276C185.851 34.0899 185.702 33.9928 185.6 33.7934C185.493 33.5849 185.411 33.1201 185.378 33.0248C185.256 32.6792 185 32.0057 184.697 31.4491C184.533 31.1495 184.371 30.876 184.195 30.7658C183.542 30.358 182.753 30.6554 182.094 30.928C182.018 30.9585 181.943 30.991 181.867 31.0214C181.611 31.1779 181.333 31.318 181.031 31.4378C180.574 31.6194 180.381 31.2071 180.369 31.1796C180.343 31.119 180.224 30.8035 180.544 30.5787C180.579 30.5549 180.848 30.4154 180.952 30.3611C181.096 30.2857 181.244 30.2175 181.393 30.151C182.867 29.2204 183.364 27.5825 183.091 25.9751ZM184.107 27.5612C185.05 28.6537 186.134 29.0134 187.299 28.9955L187.299 28.9956C186.713 29.535 186.213 30.1475 186.004 30.6838C185.925 30.887 185.902 31.2591 185.901 31.6701C185.75 31.3284 185.573 30.9691 185.386 30.6715C185.173 30.3319 184.938 30.0657 184.719 29.9283C184.295 29.6636 183.829 29.5779 183.359 29.5996C183.764 28.986 184.01 28.2904 184.107 27.5612Z" fill="#AB92F0"/>
</g>
<g clip-path="url(#clip2_3901_88445)">
<path fill-rule="evenodd" clip-rule="evenodd" d="M68.4863 68.3381C68.4218 68.197 68.3638 68.0559 68.3126 67.913C68.2356 67.6987 68.1877 67.4748 68.1225 67.2573C68.0947 67.1651 68.0186 66.9256 68.0138 66.8895C67.973 66.5747 68.2058 66.4625 68.2754 66.435C68.3087 66.4207 68.6544 66.2853 68.8372 66.66C69.061 67.118 69.2217 67.5965 69.316 68.082C69.5024 68.4664 69.7438 68.8342 70.0175 69.1524C71.1067 70.418 72.4781 70.2019 73.9193 69.8015C74.1406 69.7386 74.3719 69.8635 74.4427 70.0813C74.5139 70.3007 74.4001 70.5377 74.1843 70.6169C73.3976 70.9113 72.1383 71.9429 71.8236 72.7499C71.7577 72.9188 71.7887 73.2754 71.7984 73.6306C71.8113 74.1238 71.8018 74.6176 71.7051 74.8499C71.6908 74.8858 71.5022 75.2639 71.4335 75.3303C71.268 75.4886 71.0963 75.4687 70.9929 75.4359C70.8896 75.4031 70.76 75.3185 70.6708 75.1449C70.5775 74.9634 70.5068 74.5587 70.4776 74.4758C70.3717 74.1749 70.1487 73.5885 69.8845 73.1039C69.7421 72.8431 69.6011 72.605 69.4476 72.509C68.8794 72.154 68.1923 72.4129 67.6188 72.6502C67.5528 72.6768 67.4872 72.7051 67.4213 72.7316C67.1985 72.8678 66.9558 72.9898 66.6927 73.0941C66.2956 73.2522 66.1272 72.8932 66.1169 72.8693C66.0945 72.8165 65.9905 72.5418 66.2693 72.3461C66.2999 72.3254 66.534 72.204 66.624 72.1567C66.7495 72.091 66.8783 72.0316 67.008 71.9737C68.2913 71.1636 68.724 69.7375 68.4863 68.3381ZM69.3712 69.719C70.1925 70.6701 71.1359 70.9834 72.1506 70.9678L72.1504 70.9678C71.6401 71.4374 71.2043 71.9707 71.0227 72.4376C70.9537 72.6145 70.9337 72.9385 70.9333 73.2964C70.8015 72.9989 70.6472 72.686 70.4847 72.4269C70.2995 72.1312 70.0949 71.8995 69.9037 71.7799C69.5347 71.5495 69.1292 71.4748 68.7197 71.4937C69.0728 70.9595 69.2868 70.3539 69.3712 69.719Z" fill="#FFCEC4"/>
</g>
<g clip-path="url(#clip3_3901_88445)">
<path fill-rule="evenodd" clip-rule="evenodd" d="M43.4863 34.3381C43.4218 34.197 43.3638 34.0559 43.3126 33.913C43.2356 33.6987 43.1877 33.4748 43.1225 33.2573C43.0947 33.1651 43.0186 32.9256 43.0138 32.8895C42.973 32.5747 43.2058 32.4625 43.2754 32.435C43.3087 32.4207 43.6544 32.2853 43.8372 32.66C44.061 33.118 44.2217 33.5965 44.316 34.082C44.5024 34.4664 44.7438 34.8342 45.0175 35.1524C46.1067 36.418 47.4781 36.2019 48.9193 35.8015C49.1406 35.7386 49.3719 35.8635 49.4427 36.0813C49.5139 36.3007 49.4001 36.5377 49.1843 36.6169C48.3976 36.9113 47.1383 37.9429 46.8236 38.7499C46.7577 38.9188 46.7887 39.2754 46.7984 39.6306C46.8113 40.1238 46.8018 40.6176 46.7051 40.8499C46.6908 40.8858 46.5022 41.2639 46.4335 41.3303C46.268 41.4886 46.0963 41.4687 45.9929 41.4359C45.8896 41.4031 45.76 41.3185 45.6708 41.1449C45.5775 40.9634 45.5068 40.5587 45.4776 40.4758C45.3717 40.1749 45.1487 39.5885 44.8845 39.1039C44.7421 38.8431 44.6011 38.605 44.4476 38.509C43.8794 38.154 43.1923 38.4129 42.6188 38.6502C42.5528 38.6768 42.4872 38.7051 42.4213 38.7316C42.1985 38.8678 41.9558 38.9898 41.6927 39.0941C41.2956 39.2522 41.1272 38.8932 41.1169 38.8693C41.0945 38.8165 40.9905 38.5418 41.2693 38.3461C41.2999 38.3254 41.534 38.204 41.624 38.1567C41.7495 38.091 41.8783 38.0316 42.008 37.9737C43.2913 37.1636 43.724 35.7375 43.4863 34.3381ZM44.3712 35.719C45.1925 36.6701 46.1359 36.9834 47.1506 36.9678L47.1504 36.9678C46.6401 37.4374 46.2043 37.9707 46.0227 38.4376C45.9537 38.6145 45.9337 38.9385 45.9333 39.2964C45.8015 38.9989 45.6472 38.686 45.4847 38.4269C45.2995 38.1312 45.0949 37.8995 44.9037 37.7799C44.5347 37.5495 44.1292 37.4748 43.7197 37.4937C44.0728 36.9595 44.2868 36.3539 44.3712 35.719Z" fill="#4ADE80"/>
</g>
<g clip-path="url(#clip4_3901_88445)">
<path fill-rule="evenodd" clip-rule="evenodd" d="M4.48628 83.3381C4.42177 83.197 4.36385 83.0559 4.31257 82.913C4.23556 82.6987 4.18767 82.4748 4.12245 82.2573C4.09471 82.1651 4.01862 81.9256 4.01376 81.8895C3.97301 81.5747 4.20583 81.4625 4.27535 81.435C4.30872 81.4207 4.65443 81.2853 4.83723 81.66C5.06105 82.118 5.22165 82.5965 5.31598 83.082C5.50245 83.4664 5.74377 83.8342 6.01753 84.1524C7.10671 85.418 8.47807 85.2019 9.91932 84.8015C10.1406 84.7386 10.3719 84.8635 10.4427 85.0813C10.5139 85.3007 10.4001 85.5377 10.1843 85.6169C9.39759 85.9113 8.13828 86.9429 7.82355 87.7499C7.75775 87.9188 7.78869 88.2754 7.79842 88.6306C7.8113 89.1238 7.80176 89.6176 7.70508 89.8499C7.69083 89.8858 7.50218 90.2639 7.43349 90.3303C7.26799 90.4886 7.09626 90.4687 6.99294 90.4359C6.88963 90.4031 6.76001 90.3185 6.67076 90.1449C6.57746 89.9634 6.50675 89.5587 6.47758 89.4758C6.37168 89.1749 6.14871 88.5885 5.88449 88.1039C5.74215 87.8431 5.60109 87.605 5.44759 87.509C4.87936 87.154 4.19225 87.4129 3.6188 87.6502C3.55277 87.6768 3.48719 87.7051 3.42132 87.7316C3.19849 87.8678 2.95581 87.9898 2.69274 88.0941C2.29562 88.2522 2.12719 87.8932 2.11686 87.8693C2.09454 87.8165 1.99049 87.5418 2.26929 87.3461C2.29989 87.3254 2.53398 87.204 2.62401 87.1567C2.74953 87.091 2.87831 87.0316 3.00804 86.9737C4.29126 86.1636 4.72402 84.7375 4.48628 83.3381ZM5.37122 84.719C6.19245 85.6701 7.1359 85.9834 8.15057 85.9678L8.1504 85.9678C7.64008 86.4374 7.20431 86.9707 7.02274 87.4376C6.95374 87.6145 6.93375 87.9385 6.93335 88.2964C6.80147 87.9989 6.64716 87.686 6.48466 87.4269C6.29952 87.1312 6.09485 86.8995 5.90367 86.7799C5.53471 86.5495 5.12917 86.4748 4.7197 86.4937C5.07279 85.9595 5.28681 85.3539 5.37122 84.719Z" fill="#E5E7EB"/>
</g>
<g clip-path="url(#clip5_3901_88445)">
<path fill-rule="evenodd" clip-rule="evenodd" d="M251.985 92.9379C251.929 92.8137 251.878 92.6895 251.832 92.5638C251.765 92.3752 251.723 92.1781 251.665 91.9868C251.641 91.9056 251.574 91.6948 251.57 91.6631C251.534 91.3861 251.739 91.2873 251.8 91.2631C251.829 91.2505 252.133 91.1314 252.294 91.4611C252.491 91.8641 252.632 92.2852 252.715 92.7125C252.88 93.0507 253.092 93.3744 253.333 93.6544C254.291 94.7682 255.498 94.5779 256.766 94.2256C256.961 94.1703 257.165 94.2802 257.227 94.4718C257.29 94.6649 257.189 94.8734 257 94.9431C256.307 95.2022 255.199 96.1101 254.922 96.8202C254.864 96.9689 254.891 97.2827 254.9 97.5952C254.911 98.0292 254.903 98.4637 254.818 98.6682C254.805 98.6998 254.639 99.0325 254.579 99.0909C254.433 99.2302 254.282 99.2127 254.191 99.1838C254.1 99.155 253.986 99.0806 253.908 98.9278C253.826 98.7681 253.763 98.4119 253.738 98.3389C253.644 98.0741 253.448 97.5581 253.216 97.1317C253.09 96.9022 252.966 96.6926 252.831 96.6082C252.331 96.2958 251.727 96.5236 251.222 96.7325C251.164 96.7559 251.106 96.7807 251.048 96.8041C250.852 96.924 250.639 97.0313 250.407 97.1231C250.058 97.2622 249.909 96.9463 249.9 96.9253C249.881 96.8788 249.789 96.6371 250.034 96.4649C250.061 96.4467 250.267 96.3398 250.347 96.2982C250.457 96.2404 250.57 96.1881 250.684 96.1372C251.814 95.4242 252.195 94.1693 251.985 92.9379ZM252.764 94.153C253.487 94.99 254.317 95.2656 255.21 95.2519L255.21 95.252C254.761 95.6652 254.377 96.1345 254.217 96.5454C254.157 96.7011 254.139 96.9862 254.139 97.3011C254.023 97.0393 253.887 96.7639 253.744 96.536C253.581 96.2758 253.401 96.0719 253.233 95.9666C252.908 95.7638 252.551 95.6981 252.191 95.7148C252.501 95.2446 252.69 94.7117 252.764 94.153Z" fill="#E5E7EB"/>
</g>
<circle cx="100.312" cy="36" r="2.5" stroke="#E5E7EB"/>
<circle opacity="0.5" cx="119.312" cy="2" r="1.5" stroke="#E5E7EB"/>
<defs>
<clipPath id="clip0_3901_88445">
<rect width="22.2734" height="22.2734" fill="white" transform="translate(197.5 69.6543) rotate(-15)"/>
</clipPath>
<clipPath id="clip1_3901_88445">
<rect width="11.0587" height="11.0587" fill="white" transform="translate(178.295 25.0039) rotate(-15)"/>
</clipPath>
<clipPath id="clip2_3901_88445">
<rect width="9.62799" height="9.62799" fill="white" transform="translate(64.3115 67.4922) rotate(-15)"/>
</clipPath>
<clipPath id="clip3_3901_88445">
<rect width="9.62799" height="9.62799" fill="white" transform="translate(39.3115 33.4922) rotate(-15)"/>
</clipPath>
<clipPath id="clip4_3901_88445">
<rect width="9.62799" height="9.62799" fill="white" transform="translate(0.311523 82.4922) rotate(-15)"/>
</clipPath>
<clipPath id="clip5_3901_88445">
<rect width="8.47256" height="8.47256" fill="white" transform="translate(248.312 92.1934) rotate(-15)"/>
</clipPath>
</defs>
</svg>
