<svg width="53" height="53" viewBox="0 0 53 53" fill="none" xmlns="http://www.w3.org/2000/svg">
<path d="M37.1 4.41663H31.3583C24.2917 4.41663 19.875 8.83329 19.875 15.9V24.8437H33.6771C34.5825 24.8437 35.3333 25.5945 35.3333 26.5C35.3333 27.4054 34.5825 28.1562 33.6771 28.1562H19.875V37.1C19.875 44.1666 24.2917 48.5833 31.3583 48.5833H37.0779C44.1446 48.5833 48.5613 44.1666 48.5613 37.1V15.9C48.5833 8.83329 44.1667 4.41663 37.1 4.41663Z" fill="#01718A"/>
<path d="M10.0697 24.8437L14.6409 20.2724C14.9722 19.9412 15.1268 19.5216 15.1268 19.102C15.1268 18.6824 14.9722 18.2408 14.6409 17.9316C14.0005 17.2912 12.9405 17.2912 12.3001 17.9316L4.90219 25.3295C4.26177 25.9699 4.26177 27.0299 4.90219 27.6704L12.3001 35.0683C12.9405 35.7087 14.0005 35.7087 14.6409 35.0683C15.2814 34.4279 15.2814 33.3679 14.6409 32.7274L10.0697 28.1562H19.8747V24.8437H10.0697Z" fill="#01718A"/>
</svg>
