<svg width="73" height="72" viewBox="0 0 73 72" fill="none" xmlns="http://www.w3.org/2000/svg">
<circle cx="36.5" cy="36" r="36" fill="#F3F4F6"/>
<path d="M46.74 36.9089C46.48 36.0489 46.05 35.2989 45.48 34.6889C44.75 33.8589 43.78 33.2889 42.69 33.0389C42.14 30.5389 40.6 28.7389 38.41 28.0689C36.03 27.3289 33.27 28.0489 31.54 29.8589C30.02 31.4489 29.52 33.6389 30.11 35.9689C28.11 36.4589 27.12 38.1289 27.01 39.7189C27 39.8289 27 39.9289 27 40.0289C27 41.9089 28.23 44.0189 30.97 44.2189H41.35C42.77 44.2189 44.13 43.6889 45.17 42.7389C46.8 41.3089 47.4 39.0789 46.74 36.9089Z" fill="#017189"/>
</svg>
