<svg width="259" height="194" viewBox="0 0 259 194" fill="none" xmlns="http://www.w3.org/2000/svg">
<path d="M116.382 109.711C121.159 116.437 121.45 128.39 114.724 133.168C107.998 137.946 96.8032 133.732 92.0254 126.997C87.2476 120.263 82.602 103.681 88.182 99.0446C93.762 94.4079 111.604 102.985 116.382 109.711Z" fill="white"/>
<path d="M107.831 136.104C105.984 136.084 104.151 135.787 102.392 135.222C97.9705 133.894 94.0885 131.189 91.3116 127.5C88.764 123.904 86.4192 117.98 85.3525 112.4C84.6121 108.477 83.9069 101.443 87.618 98.3575C89.2224 97.0264 91.673 96.5944 94.9081 96.9823C102.568 97.9872 113.358 103.911 117.096 109.182C119.667 113.017 120.946 117.572 120.745 122.185C120.551 127.342 118.586 131.485 115.236 133.874C113.062 135.374 110.472 136.155 107.831 136.104ZM92.7661 98.6131C91.3457 98.5144 89.9349 98.9099 88.7728 99.7326C86.569 101.557 85.9696 106.062 87.1156 112.074C88.1205 117.363 90.3948 123.137 92.7749 126.487C95.3238 129.857 98.8811 132.328 102.93 133.539C107.337 134.887 111.34 134.491 114.24 132.437C117.14 130.383 118.832 126.707 119.009 122.123C119.194 117.904 118.03 113.735 115.685 110.223C112.239 105.365 101.846 99.6445 94.7054 98.763C94.0632 98.6676 93.4152 98.6176 92.7661 98.6131Z" fill="#0A6375"/>
<path d="M144.67 109.712C139.892 116.438 139.601 128.391 146.327 133.169C153.053 137.947 164.239 133.733 169.017 126.998C173.795 120.264 178.449 103.682 172.869 99.0456C167.289 94.4088 149.438 102.986 144.67 109.712Z" fill="white"/>
<path d="M153.211 136.103C150.575 136.159 147.988 135.385 145.815 133.89C142.457 131.501 140.526 127.358 140.297 122.201C140.104 117.59 141.382 113.036 143.946 109.199C147.693 103.91 158.474 98.0038 166.143 96.9989C169.378 96.5757 171.829 96.9989 173.433 98.374C177.135 101.459 176.439 108.494 175.69 112.417C174.623 117.996 172.287 123.876 169.739 127.517C166.959 131.202 163.078 133.906 158.659 135.239C156.896 135.797 155.06 136.088 153.211 136.103ZM145.383 110.222C143.039 113.741 141.875 117.915 142.06 122.14C142.236 126.723 143.938 130.391 146.838 132.453C149.738 134.516 153.749 134.904 158.147 133.555C162.195 132.342 165.752 129.872 168.303 126.503C170.674 123.153 172.957 117.362 173.962 112.09C175.108 106.07 174.508 101.565 172.305 99.7492C171.115 98.7531 169.061 98.4181 166.363 98.7707C159.232 99.6522 148.839 105.382 145.383 110.23V110.222Z" fill="#0A6375"/>
<path d="M169.634 187.963C170.251 190.537 167.694 192.908 164.345 192.908H157.557C156.56 192.957 155.568 192.737 154.684 192.272C153.8 191.807 153.057 191.113 152.532 190.264L149.183 183.961C143.329 186.684 136.951 188.095 130.495 188.095C124.039 188.095 117.66 186.684 111.807 183.961L108.51 190.29C107.985 191.14 107.242 191.833 106.358 192.298C105.475 192.763 104.483 192.983 103.485 192.935H96.6975C93.3213 192.935 90.7649 190.563 91.4084 187.989L95.4898 170.888C90.5412 164.462 87.4558 156.798 86.5713 148.736C85.6868 140.674 87.0374 132.523 90.4751 125.177C93.9129 117.831 99.3054 111.573 106.062 107.086C112.819 102.6 120.68 100.059 128.785 99.7412C129.358 99.7412 129.939 99.7412 130.548 99.7412C131.156 99.7412 131.711 99.7412 132.311 99.7412C140.415 100.059 148.276 102.6 155.033 107.086C161.79 111.573 167.182 117.831 170.62 125.177C174.058 132.523 175.408 140.674 174.524 148.736C173.639 156.798 170.554 164.462 165.605 170.888L169.634 187.963Z" fill="white"/>
<path d="M164.318 193.79H157.531C156.376 193.843 155.228 193.585 154.208 193.042C153.187 192.499 152.332 191.692 151.73 190.705L148.813 185.116C143.051 187.662 136.821 188.977 130.521 188.977C124.222 188.977 117.992 187.662 112.23 185.116L109.321 190.696C108.72 191.686 107.863 192.496 106.841 193.04C105.819 193.585 104.669 193.844 103.512 193.79H96.7241C95.7234 193.818 94.729 193.623 93.8138 193.217C92.8986 192.811 92.0858 192.206 91.435 191.445C91.013 190.941 90.7138 190.346 90.5608 189.706C90.4079 189.067 90.4054 188.401 90.5535 187.76L94.5291 171.064C89.5612 164.492 86.4892 156.685 85.6469 148.489C84.8046 140.294 86.2242 132.025 89.7514 124.579C93.2787 117.134 98.7787 110.798 105.654 106.259C112.529 101.72 120.517 99.1517 128.749 98.8334C129.924 98.7639 131.101 98.7639 132.275 98.8334C140.504 99.1608 148.485 101.735 155.354 106.276C162.223 110.818 167.718 117.153 171.242 124.596C174.766 132.038 176.185 140.303 175.345 148.495C174.505 156.686 171.439 164.492 166.478 171.064L170.463 187.76C170.609 188.401 170.605 189.067 170.452 189.706C170.299 190.345 170.001 190.94 169.581 191.445C168.932 192.201 168.124 192.804 167.214 193.209C166.303 193.615 165.315 193.813 164.318 193.79ZM149.183 183.079C149.345 183.079 149.504 183.123 149.642 183.207C149.78 183.291 149.893 183.412 149.967 183.556L153.264 189.885C153.722 190.581 154.355 191.145 155.099 191.521C155.843 191.897 156.672 192.071 157.504 192.027H164.292C165.03 192.053 165.765 191.916 166.444 191.627C167.123 191.337 167.731 190.902 168.224 190.352C168.475 190.055 168.653 189.704 168.745 189.326C168.837 188.948 168.839 188.554 168.752 188.175L164.671 171.073C164.641 170.946 164.639 170.813 164.667 170.685C164.694 170.557 164.75 170.437 164.83 170.333C169.679 164.036 172.703 156.526 173.57 148.626C174.437 140.726 173.115 132.739 169.748 125.54C166.38 118.341 161.097 112.207 154.477 107.809C147.857 103.411 140.155 100.919 132.214 100.605C131.087 100.535 129.956 100.535 128.829 100.605C120.887 100.919 113.185 103.411 106.565 107.809C99.9451 112.207 94.6624 118.341 91.2949 125.54C87.9275 132.739 86.6051 140.726 87.4725 148.626C88.3399 156.526 91.3636 164.036 96.2128 170.333C96.2941 170.436 96.3514 170.556 96.3803 170.684C96.4093 170.812 96.4093 170.945 96.3803 171.073L92.2989 188.175C92.209 188.555 92.21 188.951 92.3019 189.331C92.3938 189.711 92.574 190.064 92.8278 190.361C93.3192 190.91 93.9252 191.345 94.603 191.634C95.2808 191.924 96.0139 192.061 96.7505 192.036H103.538C104.372 192.081 105.203 191.907 105.948 191.531C106.694 191.155 107.328 190.591 107.787 189.894L111.084 183.564C111.189 183.363 111.368 183.211 111.584 183.139C111.799 183.067 112.033 183.08 112.239 183.176C117.976 185.842 124.226 187.223 130.552 187.223C136.878 187.223 143.128 185.842 148.866 183.176C148.963 183.123 149.072 183.09 149.183 183.079Z" fill="#0A6375"/>
<path d="M130.521 153.584C140.696 153.584 148.945 149.092 148.945 143.552C148.945 138.012 140.696 133.521 130.521 133.521C120.346 133.521 112.098 138.012 112.098 143.552C112.098 149.092 120.346 153.584 130.521 153.584Z" fill="white"/>
<path d="M130.521 154.456C119.696 154.456 111.216 149.669 111.216 143.552C111.216 137.434 119.696 132.639 130.521 132.639C141.346 132.639 149.826 137.425 149.826 143.552C149.826 149.678 141.346 154.456 130.521 154.456ZM130.521 134.402C121.018 134.402 112.979 138.589 112.979 143.552C112.979 148.515 121.018 152.693 130.521 152.693C140.024 152.693 148.063 148.506 148.063 143.552C148.063 138.598 140.032 134.402 130.521 134.402Z" fill="#0A6375"/>
<path d="M111.789 184.843C111.638 184.843 111.489 184.803 111.357 184.729C110.996 184.526 107.831 182.684 106.879 180.859C106.775 180.65 106.759 180.408 106.833 180.186C106.907 179.965 107.067 179.782 107.276 179.678C107.484 179.573 107.725 179.555 107.946 179.628C108.168 179.701 108.351 179.858 108.457 180.066C108.968 181.079 111.04 182.525 112.221 183.195C112.424 183.31 112.574 183.5 112.636 183.725C112.699 183.95 112.67 184.19 112.556 184.394C112.48 184.53 112.368 184.643 112.233 184.722C112.099 184.801 111.945 184.843 111.789 184.843Z" fill="#0A6375"/>
<path d="M149.262 184.843C149.067 184.845 148.877 184.781 148.722 184.663C148.566 184.545 148.455 184.378 148.404 184.19C148.354 184.001 148.368 183.801 148.443 183.621C148.519 183.441 148.652 183.291 148.821 183.195C150.011 182.525 152.083 181.079 152.594 180.066C152.7 179.858 152.884 179.701 153.105 179.628C153.326 179.555 153.567 179.573 153.776 179.678C153.985 179.782 154.144 179.965 154.218 180.186C154.293 180.408 154.276 180.65 154.172 180.859C153.291 182.684 150.056 184.526 149.694 184.729C149.562 184.803 149.414 184.843 149.262 184.843Z" fill="#0A6375"/>
<path d="M124.156 147.598C126.391 147.598 128.203 145.787 128.203 143.552C128.203 141.317 126.391 139.506 124.156 139.506C121.922 139.506 120.11 141.317 120.11 143.552C120.11 145.787 121.922 147.598 124.156 147.598Z" fill="#0A6375"/>
<path d="M136.894 147.598C139.129 147.598 140.94 145.787 140.94 143.552C140.94 141.317 139.129 139.506 136.894 139.506C134.66 139.506 132.848 141.317 132.848 143.552C132.848 145.787 134.66 147.598 136.894 147.598Z" fill="#0A6375"/>
<path d="M120.569 128.487C120.335 128.487 120.111 128.394 119.946 128.229C119.78 128.064 119.688 127.839 119.688 127.606C119.688 125.955 119.032 124.372 117.865 123.205C116.698 122.038 115.115 121.382 113.464 121.382C111.813 121.382 110.231 122.038 109.063 123.205C107.896 124.372 107.241 125.955 107.241 127.606C107.241 127.839 107.148 128.064 106.982 128.229C106.817 128.394 106.593 128.487 106.359 128.487C106.125 128.487 105.901 128.394 105.736 128.229C105.57 128.064 105.478 127.839 105.478 127.606C105.478 125.487 106.319 123.456 107.817 121.958C109.314 120.461 111.346 119.619 113.464 119.619C115.582 119.619 117.614 120.461 119.111 121.958C120.609 123.456 121.451 125.487 121.451 127.606C121.451 127.839 121.358 128.064 121.192 128.229C121.027 128.394 120.803 128.487 120.569 128.487Z" fill="#0A6375"/>
<path d="M154.692 128.487C154.458 128.487 154.234 128.394 154.069 128.229C153.903 128.064 153.811 127.839 153.811 127.606C153.811 125.955 153.155 124.372 151.988 123.205C150.821 122.038 149.238 121.382 147.587 121.382C145.937 121.382 144.354 122.038 143.186 123.205C142.019 124.372 141.364 125.955 141.364 127.606C141.364 127.839 141.271 128.064 141.105 128.229C140.94 128.394 140.716 128.487 140.482 128.487C140.248 128.487 140.024 128.394 139.859 128.229C139.693 128.064 139.601 127.839 139.601 127.606C139.601 125.487 140.442 123.456 141.94 121.958C143.438 120.461 145.469 119.619 147.587 119.619C149.705 119.619 151.737 120.461 153.234 121.958C154.732 123.456 155.574 125.487 155.574 127.606C155.574 127.839 155.481 128.064 155.315 128.229C155.15 128.394 154.926 128.487 154.692 128.487Z" fill="#0A6375"/>
<path d="M132.258 99.7149V109.843H128.785V99.7149C129.358 99.7149 129.939 99.7149 130.548 99.7149C131.156 99.7149 131.685 99.6796 132.258 99.7149Z" fill="#0A6375"/>
<path d="M132.258 110.726H128.785C128.551 110.726 128.327 110.633 128.162 110.468C127.996 110.302 127.903 110.078 127.903 109.844V99.7157C127.903 99.4907 127.989 99.2742 128.143 99.1103C128.297 98.9464 128.507 98.8476 128.732 98.8341C129.924 98.7636 131.119 98.7636 132.311 98.8341C132.535 98.8476 132.746 98.9464 132.9 99.1103C133.054 99.2742 133.14 99.4907 133.14 99.7157V109.844C133.14 110.078 133.047 110.302 132.881 110.468C132.716 110.633 132.492 110.726 132.258 110.726ZM129.666 108.963H131.376V100.562H129.666V108.963Z" fill="#0A6375"/>
<path d="M102.762 105.639C102.638 105.64 102.515 105.614 102.401 105.564C102.287 105.514 102.185 105.44 102.101 105.348C98.5752 101.425 92.0873 102.351 92.0256 102.359C91.9098 102.377 91.7917 102.371 91.6782 102.343C91.5646 102.315 91.4576 102.264 91.3635 102.195C91.2694 102.125 91.1899 102.038 91.1295 101.937C91.0692 101.837 91.0292 101.726 91.0118 101.61C90.9944 101.494 91.0001 101.376 91.0283 101.263C91.0566 101.149 91.1069 101.042 91.1765 100.948C91.2461 100.854 91.3335 100.774 91.4338 100.714C91.5341 100.654 91.6453 100.614 91.7611 100.596C92.0696 100.596 99.2804 99.512 103.415 104.122C103.526 104.249 103.599 104.405 103.624 104.572C103.649 104.739 103.626 104.909 103.558 105.063C103.489 105.217 103.378 105.348 103.237 105.441C103.096 105.534 102.931 105.584 102.762 105.586V105.639Z" fill="#0A6375"/>
<path d="M158.289 105.638C158.155 105.639 158.023 105.609 157.902 105.551C157.781 105.493 157.675 105.408 157.592 105.303C157.449 105.119 157.385 104.886 157.413 104.655C157.441 104.424 157.559 104.213 157.742 104.069C164.38 98.78 169.114 100.473 169.308 100.543C169.521 100.627 169.693 100.791 169.788 101C169.882 101.21 169.891 101.447 169.813 101.663C169.735 101.879 169.576 102.056 169.37 102.156C169.164 102.256 168.926 102.272 168.708 102.2C168.523 102.139 164.627 100.878 158.835 105.453C158.679 105.574 158.487 105.64 158.289 105.638Z" fill="#0A6375"/>
<path d="M111.789 154.519C111.789 154.519 113.164 161.306 120.111 160.398L111.789 154.519Z" fill="white"/>
<path d="M118.876 161.36C113.693 161.36 111.419 157.12 110.943 154.695C110.896 154.462 110.944 154.219 111.076 154.02C111.209 153.822 111.414 153.684 111.648 153.638C111.882 153.591 112.125 153.639 112.323 153.771C112.521 153.903 112.659 154.109 112.706 154.343C112.759 154.59 114.002 160.311 120.049 159.517C120.283 159.487 120.519 159.551 120.706 159.694C120.892 159.838 121.014 160.05 121.045 160.284C121.075 160.518 121.012 160.754 120.868 160.941C120.724 161.128 120.512 161.25 120.278 161.28C119.813 161.338 119.345 161.365 118.876 161.36Z" fill="#0A6375"/>
<path d="M112.098 150.922C112.098 150.922 113.376 153.029 109.727 155.259L112.098 150.922Z" fill="white"/>
<path d="M109.726 156.14C109.577 156.14 109.429 156.102 109.298 156.03C109.167 155.957 109.056 155.852 108.977 155.725C108.916 155.627 108.875 155.517 108.856 155.402C108.838 155.287 108.842 155.17 108.869 155.057C108.896 154.944 108.946 154.837 109.014 154.743C109.082 154.649 109.169 154.569 109.268 154.509C112.054 152.799 111.366 151.415 111.331 151.353C111.22 151.149 111.194 150.91 111.258 150.688C111.323 150.465 111.472 150.276 111.674 150.163C111.872 150.051 112.105 150.02 112.325 150.076C112.545 150.132 112.735 150.27 112.856 150.463C112.856 150.463 114.531 153.354 110.211 156.016C110.065 156.103 109.896 156.146 109.726 156.14Z" fill="#0A6375"/>
<path d="M197.34 185.707H177.911C177.025 185.707 176.307 186.425 176.307 187.311V191.305C176.307 192.191 177.025 192.909 177.911 192.909H197.34C198.226 192.909 198.944 192.191 198.944 191.305V187.311C198.944 186.425 198.226 185.707 197.34 185.707Z" fill="#FFB9AA"/>
<path d="M197.349 193.79H177.956C177.63 193.791 177.306 193.728 177.005 193.604C176.703 193.48 176.429 193.298 176.198 193.068C175.967 192.838 175.784 192.564 175.659 192.263C175.534 191.962 175.47 191.639 175.47 191.313V187.311C175.47 186.652 175.732 186.019 176.198 185.553C176.664 185.087 177.296 184.825 177.956 184.825H197.349C197.675 184.825 197.998 184.89 198.299 185.015C198.6 185.14 198.873 185.323 199.104 185.554C199.334 185.785 199.516 186.059 199.64 186.36C199.764 186.662 199.827 186.985 199.826 187.311V191.313C199.826 191.97 199.565 192.6 199.1 193.065C198.636 193.529 198.006 193.79 197.349 193.79ZM177.956 186.588C177.764 186.588 177.58 186.664 177.444 186.8C177.309 186.935 177.233 187.119 177.233 187.311V191.313C177.235 191.503 177.312 191.685 177.448 191.819C177.583 191.952 177.765 192.027 177.956 192.027H197.349C197.538 192.027 197.72 191.952 197.854 191.818C197.988 191.684 198.063 191.502 198.063 191.313V187.311C198.063 187.121 197.988 186.938 197.854 186.803C197.721 186.668 197.539 186.591 197.349 186.588H177.956Z" fill="#0A6375"/>
<path d="M199.826 178.223H180.397C179.511 178.223 178.793 178.941 178.793 179.827V183.82C178.793 184.706 179.511 185.425 180.397 185.425H199.826C200.712 185.425 201.43 184.706 201.43 183.82V179.827C201.43 178.941 200.712 178.223 199.826 178.223Z" fill="#FFB9AA"/>
<path d="M199.834 186.306H180.441C179.782 186.306 179.149 186.044 178.683 185.578C178.217 185.112 177.955 184.479 177.955 183.82V179.818C177.957 179.16 178.22 178.53 178.686 178.066C179.152 177.602 179.783 177.341 180.441 177.341H199.834C200.491 177.341 201.121 177.602 201.586 178.066C202.05 178.531 202.311 179.161 202.311 179.818V183.82C202.312 184.146 202.249 184.469 202.125 184.771C202.001 185.072 201.819 185.346 201.589 185.577C201.359 185.808 201.085 185.991 200.784 186.116C200.483 186.241 200.16 186.306 199.834 186.306ZM180.441 179.104C180.251 179.104 180.068 179.179 179.933 179.312C179.798 179.446 179.72 179.628 179.718 179.818V183.82C179.718 184.012 179.794 184.195 179.93 184.331C180.065 184.467 180.249 184.543 180.441 184.543H199.834C200.024 184.54 200.206 184.463 200.34 184.328C200.473 184.193 200.548 184.01 200.548 183.82V179.818C200.548 179.628 200.473 179.447 200.339 179.313C200.205 179.179 200.024 179.104 199.834 179.104H180.441Z" fill="#0A6375"/>
<path d="M194.598 171.021H175.17C174.284 171.021 173.565 171.74 173.565 172.626V176.619C173.565 177.505 174.284 178.223 175.17 178.223H194.598C195.484 178.223 196.203 177.505 196.203 176.619V172.626C196.203 171.74 195.484 171.021 194.598 171.021Z" fill="#FFB9AA"/>
<path d="M194.607 179.105H175.214C174.555 179.105 173.922 178.843 173.456 178.377C172.99 177.91 172.728 177.278 172.728 176.619V172.617C172.728 172.291 172.792 171.968 172.917 171.667C173.042 171.366 173.226 171.092 173.457 170.862C173.688 170.632 173.962 170.45 174.263 170.326C174.565 170.202 174.888 170.139 175.214 170.14H194.607C195.264 170.14 195.894 170.401 196.359 170.865C196.823 171.33 197.084 171.96 197.084 172.617V176.619C197.084 177.277 196.824 177.908 196.359 178.373C195.895 178.839 195.265 179.102 194.607 179.105ZM175.214 171.903C175.024 171.903 174.841 171.978 174.706 172.111C174.571 172.245 174.493 172.427 174.491 172.617V176.619C174.491 176.81 174.567 176.994 174.703 177.13C174.838 177.265 175.022 177.342 175.214 177.342H194.607C194.797 177.339 194.979 177.262 195.113 177.127C195.246 176.991 195.321 176.809 195.321 176.619V172.617C195.321 172.427 195.246 172.246 195.112 172.112C194.978 171.978 194.797 171.903 194.607 171.903H175.214Z" fill="#0A6375"/>
<path d="M197.34 163.818H177.911C177.025 163.818 176.307 164.537 176.307 165.423V169.416C176.307 170.302 177.025 171.02 177.911 171.02H197.34C198.226 171.02 198.944 170.302 198.944 169.416V165.423C198.944 164.537 198.226 163.818 197.34 163.818Z" fill="#FFB9AA"/>
<path d="M197.349 171.902H177.956C177.296 171.902 176.664 171.641 176.198 171.174C175.732 170.708 175.47 170.076 175.47 169.417V165.415C175.47 165.089 175.534 164.766 175.659 164.465C175.784 164.163 175.967 163.89 176.198 163.66C176.429 163.43 176.703 163.247 177.005 163.124C177.306 163 177.63 162.936 177.956 162.938H197.349C198.006 162.938 198.636 163.198 199.1 163.663C199.565 164.128 199.826 164.758 199.826 165.415V169.417C199.826 170.074 199.565 170.705 199.101 171.171C198.637 171.637 198.007 171.9 197.349 171.902ZM177.956 164.701C177.765 164.701 177.583 164.775 177.448 164.909C177.312 165.043 177.235 165.224 177.233 165.415V169.417C177.233 169.608 177.309 169.792 177.444 169.928C177.58 170.063 177.764 170.139 177.956 170.139H197.349C197.539 170.137 197.721 170.06 197.854 169.925C197.988 169.789 198.063 169.607 198.063 169.417V165.415C198.063 165.225 197.988 165.044 197.854 164.91C197.72 164.776 197.538 164.701 197.349 164.701H177.956Z" fill="#0A6375"/>
<path d="M199.826 156.793H180.397C179.511 156.793 178.793 157.511 178.793 158.397V162.391C178.793 163.277 179.511 163.995 180.397 163.995H199.826C200.712 163.995 201.43 163.277 201.43 162.391V158.397C201.43 157.511 200.712 156.793 199.826 156.793Z" fill="#FFB9AA"/>
<path d="M199.835 164.875H180.441C179.784 164.875 179.153 164.614 178.687 164.15C178.221 163.686 177.958 163.056 177.956 162.398V158.396C177.956 157.737 178.217 157.104 178.684 156.638C179.15 156.172 179.782 155.91 180.441 155.91H199.835C200.161 155.91 200.484 155.975 200.785 156.1C201.086 156.225 201.359 156.408 201.589 156.639C201.819 156.87 202.002 157.144 202.126 157.445C202.25 157.747 202.313 158.07 202.312 158.396V162.398C202.312 163.055 202.051 163.685 201.586 164.15C201.122 164.614 200.492 164.875 199.835 164.875ZM180.441 157.673C180.25 157.673 180.066 157.749 179.93 157.885C179.795 158.02 179.719 158.204 179.719 158.396V162.398C179.721 162.588 179.798 162.77 179.933 162.904C180.069 163.037 180.251 163.112 180.441 163.112H199.835C200.024 163.112 200.206 163.037 200.34 162.903C200.473 162.769 200.549 162.587 200.549 162.398V158.396C200.549 158.206 200.474 158.023 200.34 157.888C200.206 157.753 200.025 157.676 199.835 157.673H180.441Z" fill="#0A6375"/>
<path d="M82.9548 185.707H63.5262C62.6402 185.707 61.9219 186.425 61.9219 187.311V191.305C61.9219 192.191 62.6402 192.909 63.5262 192.909H82.9548C83.8408 192.909 84.5591 192.191 84.5591 191.305V187.311C84.5591 186.425 83.8408 185.707 82.9548 185.707Z" fill="#FFB9AA"/>
<path d="M82.9636 193.79H63.5703C62.9126 193.79 62.2816 193.529 61.8157 193.065C61.3497 192.601 61.0868 191.971 61.0845 191.313V187.311C61.0845 186.652 61.3464 186.019 61.8126 185.553C62.2788 185.087 62.911 184.825 63.5703 184.825H82.9636C83.6229 184.825 84.2552 185.087 84.7214 185.553C85.1876 186.019 85.4495 186.652 85.4495 187.311V191.313C85.4471 191.971 85.1842 192.601 84.7183 193.065C84.2523 193.529 83.6214 193.79 82.9636 193.79ZM63.5703 186.588C63.3786 186.588 63.1948 186.664 63.0592 186.8C62.9237 186.935 62.8475 187.119 62.8475 187.311V191.313C62.8498 191.503 62.927 191.685 63.0623 191.819C63.1976 191.952 63.3801 192.027 63.5703 192.027H82.9636C83.1538 192.027 83.3363 191.952 83.4716 191.819C83.6069 191.685 83.6841 191.503 83.6864 191.313V187.311C83.6864 187.119 83.6103 186.935 83.4747 186.8C83.3392 186.664 83.1553 186.588 82.9636 186.588H63.5703Z" fill="#0A6375"/>
<path d="M79.1818 178.223H59.7533C58.8672 178.223 58.1489 178.941 58.1489 179.827V183.82C58.1489 184.706 58.8672 185.425 59.7533 185.425H79.1818C80.0679 185.425 80.7862 184.706 80.7862 183.82V179.827C80.7862 178.941 80.0679 178.223 79.1818 178.223Z" fill="#FFB9AA"/>
<path d="M79.1819 186.306H59.7886C59.4626 186.306 59.1397 186.241 58.8386 186.116C58.5375 185.991 58.2641 185.808 58.0339 185.577C57.8038 185.346 57.6215 185.072 57.4976 184.771C57.3736 184.469 57.3104 184.146 57.3115 183.82V179.818C57.3115 179.161 57.5725 178.531 58.037 178.066C58.5016 177.602 59.1316 177.341 59.7886 177.341H79.1819C79.8396 177.341 80.4706 177.602 80.9365 178.066C81.4025 178.53 81.6654 179.16 81.6677 179.818V183.82C81.6677 184.479 81.4058 185.112 80.9396 185.578C80.4734 186.044 79.8411 186.306 79.1819 186.306ZM59.7886 179.104C59.5992 179.104 59.4176 179.179 59.2837 179.313C59.1498 179.447 59.0746 179.628 59.0746 179.818V183.82C59.0745 184.01 59.1495 184.193 59.2832 184.328C59.4168 184.463 59.5984 184.54 59.7886 184.543H79.1819C79.3736 184.543 79.5574 184.467 79.693 184.331C79.8285 184.195 79.9047 184.012 79.9047 183.82V179.818C79.9024 179.628 79.8252 179.446 79.6899 179.312C79.5546 179.179 79.372 179.104 79.1819 179.104H59.7886Z" fill="#0A6375"/>
<path d="M84.7883 171.021H65.3597C64.4737 171.021 63.7554 171.74 63.7554 172.626V176.619C63.7554 177.505 64.4737 178.223 65.3597 178.223H84.7883C85.6743 178.223 86.3926 177.505 86.3926 176.619V172.626C86.3926 171.74 85.6743 171.021 84.7883 171.021Z" fill="#FFB9AA"/>
<path d="M84.8322 179.105H65.439C64.7812 179.102 64.1512 178.839 63.6869 178.373C63.2226 177.908 62.9619 177.277 62.9619 176.619V172.617C62.9619 171.96 63.2229 171.33 63.6874 170.865C64.152 170.401 64.782 170.14 65.439 170.14H84.8322C85.1583 170.139 85.4813 170.202 85.7829 170.326C86.0844 170.45 86.3585 170.632 86.5895 170.862C86.8204 171.092 87.0037 171.366 87.1287 171.667C87.2537 171.968 87.3181 172.291 87.3181 172.617V176.619C87.3181 177.278 87.0562 177.91 86.59 178.377C86.1238 178.843 85.4915 179.105 84.8322 179.105ZM65.439 171.903C65.2496 171.903 65.068 171.978 64.9341 172.112C64.8002 172.246 64.7249 172.427 64.7249 172.617V176.619C64.7249 176.809 64.7999 176.991 64.9335 177.127C65.0672 177.262 65.2488 177.339 65.439 177.342H84.8322C85.0239 177.342 85.2078 177.265 85.3434 177.13C85.4789 176.994 85.5551 176.81 85.5551 176.619V172.617C85.5528 172.427 85.4756 172.245 85.3403 172.111C85.205 171.978 85.0224 171.903 84.8322 171.903H65.439Z" fill="#0A6375"/>
<path d="M131.615 41.5801L129.803 44.7955C128.499 46.9059 131.415 51.0768 136.334 54.126C141.253 57.1753 146.304 57.9314 147.584 55.7877L149.403 52.5723L131.615 41.5801Z" fill="#FFB9AA"/>
<path d="M144.668 57.3661C144.192 57.3618 143.717 57.3229 143.247 57.2497C138.153 56.2021 133.598 53.378 130.394 49.2818C129.056 47.3708 128.732 45.6842 129.446 44.5127L131.249 41.3056C131.308 41.2112 131.4 41.1428 131.507 41.1145C131.558 41.0918 131.613 41.0801 131.669 41.0801C131.725 41.0801 131.78 41.0918 131.831 41.1145L149.62 52.14C149.71 52.1967 149.776 52.2863 149.802 52.39C149.828 52.4937 149.814 52.6035 149.761 52.6966L147.95 55.9204C147.376 56.9174 146.238 57.3661 144.668 57.3661ZM131.764 42.0949L130.161 44.9364C129.621 45.7673 129.962 47.213 131.075 48.7999C134.146 52.7126 138.502 55.414 143.372 56.4272C145.299 56.718 146.695 56.4272 147.235 55.5382L148.847 52.68L131.764 42.0949Z" fill="#0A6375"/>
<path d="M149.934 52.9017C151.247 50.7955 148.331 46.6058 143.42 43.5438C138.51 40.4818 133.465 39.707 132.151 41.8133C130.838 43.9195 133.754 48.1092 138.665 51.1712C143.575 54.2332 148.621 55.0079 149.934 52.9017Z" fill="#FFB9AA"/>
<path d="M146.47 54.1756C144.161 54.1756 141.045 53.1537 137.929 51.2261C132.745 48.0107 129.812 43.6653 131.282 41.3306C132.753 38.9958 137.929 39.6688 143.114 42.8926C148.298 46.1163 151.223 50.4534 149.761 52.7881C149.179 53.7187 147.999 54.1756 146.47 54.1756ZM134.506 40.749C133.293 40.749 132.387 41.073 131.964 41.746C130.809 43.6237 133.733 47.6285 138.361 50.5032C142.989 53.378 147.883 54.2089 149.046 52.3394C150.209 50.47 147.276 46.457 142.648 43.5822C139.699 41.7709 136.633 40.749 134.506 40.749Z" fill="#0A6375"/>
<path d="M147.086 50.5611L145.756 49.8798C145.673 49.8798 145.656 49.8798 145.665 49.8798C145.721 50.0797 145.725 50.2907 145.677 50.4928C145.629 50.6949 145.531 50.8814 145.391 51.0347C145.091 51.3006 144.56 51.2923 143.862 51.0347C143.671 50.9682 143.48 50.8768 143.272 50.7937L142.748 48.9659C142.982 49.1022 143.252 49.1631 143.521 49.1403C143.638 49.083 143.747 49.0104 143.845 48.9243H143.804L141.311 47.6531C141.307 47.7029 141.307 47.7529 141.311 47.8027C141.317 48.1654 141.255 48.5261 141.128 48.8662C140.896 49.3813 140.297 49.4311 139.4 49.0489C138.521 48.6601 137.732 48.0944 137.082 47.3872C136.575 46.8811 136.164 46.2871 135.869 45.6341C135.719 45.2935 135.62 44.9694 135.495 44.6371L134.589 44.1718L134.548 42.9504L135.437 43.4074C135.496 43.2225 135.568 43.042 135.653 42.8674C135.746 42.7007 135.889 42.5673 136.062 42.4854C136.235 42.4036 136.428 42.3773 136.617 42.4104C137.112 42.4678 137.592 42.6201 138.029 42.8591L138.237 44.0804C137.597 43.8145 137.165 43.8062 137.04 44.2134L139.533 45.4596C139.575 45.2436 139.608 45.0359 139.666 44.8365C139.68 44.7234 139.727 44.6169 139.801 44.5299C139.875 44.4429 139.972 44.3791 140.081 44.3463C140.414 44.29 140.756 44.3364 141.062 44.4792C141.606 44.6919 142.123 44.971 142.599 45.3101C143.372 45.8542 144.042 46.5324 144.576 47.3125C144.776 47.6116 144.925 47.9024 145.1 48.2015L145.158 48.3095L146.462 48.9742L147.086 50.5611ZM137.198 45.5012C137.284 45.8047 137.431 46.0875 137.63 46.332C137.795 46.5595 138.004 46.7507 138.246 46.8937C138.487 47.0366 138.756 47.1283 139.034 47.1629C139.3 47.113 139.325 46.8555 139.4 46.6478L137.198 45.5012ZM143.496 47.4869C143.313 47.2294 143.172 47.005 142.989 46.7807C142.549 46.2573 141.826 45.8585 141.569 45.9498C141.311 46.0412 141.419 46.1991 141.386 46.3736L143.496 47.4869Z" fill="white"/>
<path d="M115.926 54.1352C112.179 55.4895 109.171 62.8093 109.171 62.8093L110.127 66.4485C110.528 67.6725 111.171 68.8035 112.017 69.7747C112.863 70.7459 113.895 71.5376 115.052 72.1027C116.21 72.6679 117.469 72.9951 118.755 73.065C120.041 73.1349 121.328 72.9461 122.54 72.5097C123.752 72.0733 124.864 71.3982 125.81 70.5244C126.757 69.6506 127.518 68.5959 128.049 67.4226C128.581 66.2493 128.872 64.9813 128.904 63.6937C128.937 62.4061 128.711 61.125 128.24 59.9263L126.686 56.5114C126.686 56.5114 119.673 52.7892 115.926 54.1352Z" fill="#FFB9AA"/>
<path d="M119.208 73.2379C117.144 73.2302 115.131 72.5885 113.443 71.3997C111.755 70.2109 110.473 68.5323 109.77 66.591L108.798 62.9186C108.773 62.8317 108.773 62.7397 108.798 62.6527C108.922 62.3536 111.922 55.175 115.802 53.7459C119.682 52.3501 126.603 55.9893 126.877 56.1471C126.956 56.191 127.02 56.2576 127.06 56.3382L128.63 59.753C129.183 61.2694 129.362 62.8965 129.153 64.4967C128.943 66.097 128.351 67.6232 127.427 68.9461C126.502 70.2691 125.273 71.3498 123.842 72.0969C122.412 72.844 120.822 73.2353 119.208 73.2379ZM109.637 62.8438L110.567 66.3417C111.399 68.6379 113.109 70.5095 115.321 71.5449C117.533 72.5803 120.065 72.6946 122.361 71.8628C124.658 71.0309 126.529 69.321 127.565 67.1092C128.6 64.8974 128.714 62.3649 127.882 60.0688L126.379 56.8201C125.44 56.3382 119.366 53.3471 116.101 54.5269C112.836 55.7068 110.019 61.88 109.604 62.8438H109.637Z" fill="#0A6375"/>
<path d="M118.361 70.5112C123.675 70.5112 127.982 66.2036 127.982 60.8899C127.982 55.5762 123.675 51.2686 118.361 51.2686C113.047 51.2686 108.74 55.5762 108.74 60.8899C108.74 66.2036 113.047 70.5112 118.361 70.5112Z" fill="#FFB9AA"/>
<path d="M118.378 70.928C116.871 70.9324 115.384 70.5977 114.024 69.9489C112.665 69.3001 111.47 68.3537 110.526 67.1799C109.582 66.006 108.915 64.6349 108.573 63.1681C108.232 61.7012 108.224 60.1763 108.552 58.7063C108.88 57.2363 109.535 55.859 110.467 54.6764C111.4 53.4937 112.587 52.5361 113.94 51.8746C115.293 51.213 116.777 50.8645 118.283 50.8547C119.789 50.8449 121.278 51.1743 122.64 51.8182C123.834 52.3767 124.906 53.1666 125.793 54.1421C126.68 55.1176 127.365 56.2594 127.808 57.5013C128.353 59.015 128.526 60.6377 128.312 62.2324C128.098 63.827 127.504 65.3468 126.579 66.6634C125.654 67.98 124.426 69.0548 122.999 69.7971C121.572 70.5393 119.986 70.9272 118.378 70.928ZM118.378 51.677C116.9 51.6779 115.444 52.0341 114.133 52.7157C112.822 53.3972 111.694 54.384 110.845 55.5929C109.995 56.8018 109.448 58.1973 109.251 59.6617C109.054 61.126 109.212 62.6164 109.712 64.0069C110.109 65.1601 110.731 66.2229 111.542 67.1337C112.353 68.0444 113.337 68.7848 114.437 69.312C115.537 69.8391 116.73 70.1425 117.948 70.2045C119.166 70.2665 120.385 70.0858 121.532 69.673C122.68 69.2602 123.734 68.6235 124.633 67.7998C125.533 66.9761 126.26 65.982 126.772 64.875C127.284 63.7681 127.571 62.5705 127.616 61.3517C127.661 60.1329 127.464 58.9173 127.035 57.7755C126.629 56.6349 126.001 55.5863 125.186 54.6906C124.372 53.7949 123.388 53.0699 122.291 52.5577C121.067 51.9811 119.731 51.6804 118.378 51.677Z" fill="#0A6375"/>
<path d="M116.956 54.0684L117.43 55.3811C117.43 55.4725 117.496 55.4891 117.588 55.4725C118.277 55.3606 118.983 55.4264 119.64 55.6636C120.345 55.9032 120.936 56.3943 121.302 57.0428C121.401 57.2173 121.476 57.4001 121.576 57.5912L119.54 58.3223C119.422 58.0195 119.21 57.763 118.934 57.5912C118.698 57.4849 118.457 57.3906 118.211 57.3087V57.3502L119.125 59.8927H119.366C119.954 59.7998 120.551 59.7775 121.144 59.8262C121.587 59.8568 122.015 60.0055 122.381 60.2567C122.748 60.508 123.041 60.8528 123.229 61.2553C123.588 61.9241 123.702 62.6974 123.55 63.4411C123.398 64.1848 122.991 64.8518 122.399 65.3265C122.066 65.5924 121.709 65.8167 121.343 66.0743L121.701 67.063L119.823 67.736L119.457 66.7223C119.042 66.7223 118.626 66.8054 118.261 66.8137C117.5 66.8398 116.751 66.6118 116.134 66.1657C115.619 65.7623 115.235 65.2161 115.029 64.5953L117.031 63.8725C117.166 64.2187 117.412 64.51 117.731 64.6997C118.051 64.8895 118.424 64.9668 118.793 64.9194C118.469 64.0054 118.136 63.0998 117.812 62.1942L116.558 62.2772C116.054 62.3158 115.549 62.2302 115.087 62.028C114.618 61.8114 114.231 61.4504 113.982 60.9977C113.65 60.4609 113.475 59.8423 113.475 59.2114C113.477 58.7553 113.579 58.3053 113.774 57.8932C113.97 57.4811 114.253 57.117 114.605 56.8268C114.901 56.6021 115.209 56.394 115.527 56.2037L115.644 56.1372L115.054 54.7663L116.956 54.0684ZM120.62 64.2381C120.916 64.0878 121.164 63.8575 121.335 63.5734C121.469 63.3252 121.509 63.0366 121.446 62.7615C121.383 62.4864 121.223 62.2434 120.994 62.0778C120.613 61.9119 120.194 61.8516 119.781 61.9033L120.62 64.2381ZM116.2 57.8488C115.988 58.0444 115.791 58.2555 115.61 58.4802C115.522 58.6073 115.463 58.7522 115.437 58.9046C115.412 59.0571 115.42 59.2133 115.461 59.3623C115.502 59.5114 115.575 59.6495 115.676 59.767C115.777 59.8845 115.902 59.9784 116.042 60.0422C116.357 60.1376 116.689 60.1631 117.015 60.117L116.2 57.8488Z" fill="white"/>
<path d="M126.302 79.283C124.25 82.6978 126.551 90.2752 126.551 90.2752L129.592 92.4853C130.675 93.1367 131.876 93.5684 133.125 93.7558C134.375 93.9432 135.65 93.8826 136.876 93.5774C138.102 93.2723 139.256 92.7286 140.273 91.9774C141.289 91.2262 142.147 90.2822 142.799 89.1993C143.45 88.1163 143.882 86.9157 144.069 85.666C144.256 84.4162 144.196 83.1418 143.891 81.9155C143.586 80.6891 143.042 79.5349 142.291 78.5187C141.539 77.5025 140.595 76.6442 139.513 75.9928L136.131 74.3311C136.131 74.3311 128.354 75.8931 126.302 79.283Z" fill="#FFB9AA"/>
<path d="M134.536 94.3051C132.717 94.3056 130.933 93.8085 129.376 92.8677L126.302 90.6327C126.229 90.5832 126.176 90.5097 126.153 90.425C126.053 90.101 123.826 82.6232 125.945 79.0921C128.072 75.561 135.724 74.0239 136.048 73.9574C136.134 73.9283 136.228 73.9283 136.314 73.9574L139.687 75.6191C141.396 76.6366 142.763 78.1387 143.617 79.9347C144.47 81.7307 144.771 83.7398 144.481 85.7069C144.19 87.6741 143.322 89.5108 141.987 90.9839C140.651 92.457 138.908 93.5002 136.979 93.9811C136.18 94.1871 135.36 94.2959 134.536 94.3051ZM126.909 90.0843L129.833 92.2113C131.923 93.3913 134.391 93.7084 136.712 93.0951C139.032 92.4818 141.021 90.9867 142.255 88.9282C143.489 86.8697 143.87 84.4107 143.318 82.0752C142.765 79.7397 141.322 77.7123 139.297 76.425L136.073 74.8464C135.043 75.0707 128.454 76.5912 126.659 79.5657C124.865 82.4986 126.618 89.0375 126.909 90.0843Z" fill="#0A6375"/>
<path d="M132.459 92.6274C137.772 92.6274 142.08 88.3198 142.08 83.0061C142.08 77.6924 137.772 73.3848 132.459 73.3848C127.145 73.3848 122.837 77.6924 122.837 83.0061C122.837 88.3198 127.145 92.6274 132.459 92.6274Z" fill="#FFB9AA"/>
<path d="M132.442 93.0422C130.897 93.0387 129.373 92.6783 127.989 91.9891C126.606 91.2999 125.4 90.3005 124.467 89.0688C123.533 87.8372 122.896 86.4065 122.606 84.8884C122.316 83.3702 122.381 81.8056 122.795 80.3166C123.209 78.8275 123.962 77.4541 124.994 76.3036C126.026 75.1531 127.309 74.2565 128.745 73.6836C130.18 73.1108 131.729 72.8772 133.269 73.001C134.81 73.1249 136.301 73.6029 137.627 74.3978C139.511 75.5278 140.973 77.2448 141.787 79.2855C142.601 81.3261 142.723 83.5776 142.135 85.6945C141.546 87.8113 140.279 89.6765 138.528 91.0038C136.777 92.3311 134.639 93.0472 132.442 93.0422ZM132.442 73.7996C130.219 73.801 128.072 74.6075 126.398 76.0698C124.724 77.5321 123.636 79.5513 123.335 81.7539C123.035 83.9564 123.542 86.1932 124.763 88.0506C125.985 89.9079 127.837 91.2601 129.979 91.857C132.12 92.4539 134.405 92.2551 136.411 91.2973C138.417 90.3396 140.008 88.6877 140.891 86.6474C141.773 84.607 141.886 82.3161 141.21 80.1986C140.533 78.081 139.113 76.2801 137.211 75.129C135.78 74.2622 134.14 73.8026 132.467 73.7996H132.442Z" fill="#0A6375"/>
<path d="M127.058 78.6025C127.457 78.8434 127.889 79.0761 128.263 79.3253C128.274 79.3377 128.287 79.3476 128.302 79.3544C128.317 79.3612 128.334 79.3647 128.35 79.3647C128.367 79.3647 128.383 79.3612 128.398 79.3544C128.413 79.3476 128.426 79.3377 128.437 79.3253C128.906 78.8075 129.493 78.4111 130.149 78.1704C130.843 77.9245 131.603 77.9422 132.284 78.2203L132.841 78.4696L131.728 80.3224C131.443 80.1597 131.113 80.0955 130.789 80.1396C130.54 80.2037 130.296 80.2842 130.058 80.3805V80.4221L132.367 81.8179L132.533 81.6434C132.934 81.1986 133.386 80.8026 133.879 80.4636C134.241 80.2138 134.661 80.0638 135.099 80.0287C135.537 79.9937 135.976 80.0749 136.372 80.2642C137.14 80.5753 137.759 81.1704 138.1 81.9259C138.37 82.5517 138.436 83.246 138.291 83.9117C138.2 84.3271 138.067 84.7425 137.951 85.158L138.848 85.7063L137.818 87.4096L136.895 86.8529C136.596 87.1437 136.322 87.4262 136.065 87.6838C135.493 88.1889 134.766 88.4823 134.004 88.5146C133.352 88.5351 132.709 88.3585 132.16 88.0078L133.256 86.1799C133.58 86.3628 133.956 86.4319 134.323 86.3762C134.691 86.3205 135.029 86.1431 135.284 85.8725L132.791 84.3853L131.869 85.2161C131.502 85.5624 131.057 85.8159 130.573 85.9556C130.073 86.0783 129.548 86.0435 129.069 85.8559C128.471 85.6441 127.943 85.2736 127.54 84.7841C127.256 84.4289 127.052 84.0157 126.945 83.5736C126.837 83.1315 126.828 82.6712 126.917 82.225C127.001 81.8645 127.106 81.5094 127.233 81.1615C127.23 81.1173 127.23 81.0729 127.233 81.0286L125.986 80.2808L127.058 78.6025ZM136.331 84.1692C136.465 83.864 136.508 83.5264 136.455 83.1971C136.403 82.9208 136.252 82.673 136.03 82.5001C135.808 82.3273 135.531 82.2413 135.25 82.2583C134.851 82.3709 134.489 82.589 134.204 82.8897L136.331 84.1692ZM128.853 82.0173C128.815 82.2926 128.795 82.5702 128.795 82.8482C128.808 83.0028 128.855 83.1527 128.932 83.2875C129.009 83.4223 129.114 83.5388 129.241 83.6288C129.367 83.7189 129.511 83.7805 129.664 83.8092C129.816 83.838 129.973 83.8332 130.124 83.7953C130.437 83.6706 130.72 83.4809 130.955 83.2387L128.853 82.0173Z" fill="white"/>
<g clip-path="url(#clip0_2517_49183)">
<path fill-rule="evenodd" clip-rule="evenodd" d="M207.158 71.6109C207.008 71.2844 206.874 70.958 206.756 70.6274C206.577 70.1316 206.467 69.6136 206.316 69.1105C206.252 68.8971 206.076 68.3431 206.064 68.2596C205.97 67.5313 206.509 67.2717 206.67 67.208C206.747 67.175 207.547 66.8619 207.969 67.7286C208.487 68.7881 208.859 69.895 209.077 71.0183C209.508 71.9075 210.067 72.7585 210.7 73.4947C213.22 76.4225 216.392 75.9224 219.726 74.9961C220.238 74.8507 220.773 75.1397 220.937 75.6435C221.102 76.1511 220.839 76.6992 220.339 76.8825C218.519 77.5636 215.606 79.9502 214.878 81.8171C214.726 82.2079 214.797 83.0328 214.82 83.8544C214.85 84.9953 214.828 86.1377 214.604 86.6753C214.571 86.7582 214.134 87.6328 213.976 87.7866C213.593 88.1527 213.195 88.1068 212.956 88.0308C212.717 87.9548 212.418 87.7593 212.211 87.3576C211.995 86.9378 211.832 86.0016 211.764 85.8096C211.519 85.1135 211.003 83.757 210.392 82.6361C210.063 82.0325 209.737 81.4817 209.381 81.2598C208.067 80.4385 206.477 81.0374 205.151 81.5864C204.998 81.6479 204.846 81.7133 204.694 81.7747C204.178 82.0899 203.617 82.372 203.008 82.6133C202.09 82.9789 201.7 82.1486 201.676 82.0932C201.624 81.9712 201.384 81.3357 202.029 80.8829C202.1 80.8351 202.641 80.5541 202.849 80.4447C203.14 80.2928 203.438 80.1554 203.738 80.0214C206.706 78.1472 207.707 74.8482 207.158 71.6109ZM209.205 74.8053C211.105 77.0057 213.287 77.7303 215.634 77.6943L215.634 77.6944C214.454 78.7807 213.445 80.0144 213.025 81.0946C212.866 81.5039 212.819 82.2533 212.819 83.0812C212.513 82.393 212.156 81.6692 211.781 81.0699C211.352 80.3858 210.879 79.8498 210.436 79.573C209.583 79.0399 208.645 78.8672 207.697 78.911C208.514 77.6751 209.009 76.2741 209.205 74.8053Z" fill="#E5E7EB"/>
</g>
<g clip-path="url(#clip1_2517_49183)">
<path fill-rule="evenodd" clip-rule="evenodd" d="M183.091 25.9751C183.017 25.813 182.95 25.6509 182.891 25.4868C182.803 25.2407 182.748 24.9835 182.673 24.7337C182.641 24.6277 182.553 24.3527 182.548 24.3112C182.501 23.9496 182.769 23.8207 182.848 23.7891C182.887 23.7727 183.284 23.6173 183.494 24.0476C183.751 24.5736 183.935 25.1232 184.044 25.6809C184.258 26.1224 184.535 26.5449 184.849 26.9104C186.1 28.3641 187.676 28.1158 189.331 27.6559C189.585 27.5837 189.851 27.7272 189.932 27.9773C190.014 28.2293 189.883 28.5015 189.635 28.5925C188.732 28.9307 187.285 30.1156 186.924 31.0425C186.848 31.2365 186.884 31.6461 186.895 32.054C186.91 32.6205 186.899 33.1877 186.788 33.4546C186.771 33.4958 186.555 33.93 186.476 34.0064C186.286 34.1881 186.088 34.1653 185.97 34.1276C185.851 34.0899 185.702 33.9928 185.6 33.7934C185.493 33.5849 185.411 33.1201 185.378 33.0248C185.256 32.6792 185 32.0057 184.697 31.4491C184.533 31.1495 184.371 30.876 184.195 30.7658C183.542 30.358 182.753 30.6554 182.094 30.928C182.018 30.9585 181.943 30.991 181.867 31.0214C181.611 31.1779 181.333 31.318 181.031 31.4378C180.574 31.6194 180.381 31.2071 180.369 31.1796C180.343 31.119 180.224 30.8035 180.544 30.5787C180.579 30.5549 180.848 30.4154 180.952 30.3611C181.096 30.2857 181.244 30.2175 181.393 30.151C182.867 29.2204 183.364 27.5825 183.091 25.9751ZM184.107 27.5612C185.05 28.6537 186.134 29.0134 187.299 28.9955L187.299 28.9956C186.713 29.535 186.213 30.1475 186.004 30.6838C185.925 30.887 185.902 31.2591 185.901 31.6701C185.75 31.3284 185.573 30.9691 185.386 30.6715C185.173 30.3319 184.938 30.0657 184.719 29.9283C184.295 29.6636 183.829 29.5779 183.359 29.5996C183.764 28.986 184.01 28.2904 184.107 27.5612Z" fill="#AB92F0"/>
</g>
<g clip-path="url(#clip2_2517_49183)">
<path fill-rule="evenodd" clip-rule="evenodd" d="M68.4863 68.3381C68.4218 68.197 68.3638 68.0559 68.3126 67.913C68.2356 67.6987 68.1877 67.4748 68.1225 67.2573C68.0947 67.1651 68.0186 66.9256 68.0138 66.8895C67.973 66.5747 68.2058 66.4625 68.2754 66.435C68.3087 66.4207 68.6544 66.2853 68.8372 66.66C69.061 67.118 69.2217 67.5965 69.316 68.082C69.5024 68.4664 69.7438 68.8342 70.0175 69.1524C71.1067 70.418 72.4781 70.2019 73.9193 69.8015C74.1406 69.7386 74.3719 69.8635 74.4427 70.0813C74.5139 70.3007 74.4001 70.5377 74.1843 70.6169C73.3976 70.9113 72.1383 71.9429 71.8236 72.7499C71.7577 72.9188 71.7887 73.2754 71.7984 73.6306C71.8113 74.1238 71.8018 74.6176 71.7051 74.8499C71.6908 74.8858 71.5022 75.2639 71.4335 75.3303C71.268 75.4886 71.0963 75.4687 70.9929 75.4359C70.8896 75.4031 70.76 75.3185 70.6708 75.1449C70.5775 74.9634 70.5068 74.5587 70.4776 74.4758C70.3717 74.1749 70.1487 73.5885 69.8845 73.1039C69.7421 72.8431 69.6011 72.605 69.4476 72.509C68.8794 72.154 68.1923 72.4129 67.6188 72.6502C67.5528 72.6768 67.4872 72.7051 67.4213 72.7316C67.1985 72.8678 66.9558 72.9898 66.6927 73.0941C66.2956 73.2522 66.1272 72.8932 66.1169 72.8693C66.0945 72.8165 65.9905 72.5418 66.2693 72.3461C66.2999 72.3254 66.534 72.204 66.624 72.1567C66.7495 72.091 66.8783 72.0316 67.008 71.9737C68.2913 71.1636 68.724 69.7375 68.4863 68.3381ZM69.3712 69.719C70.1925 70.6701 71.1359 70.9834 72.1506 70.9678L72.1504 70.9678C71.6401 71.4374 71.2043 71.9707 71.0227 72.4376C70.9537 72.6145 70.9337 72.9385 70.9333 73.2964C70.8015 72.9989 70.6472 72.686 70.4847 72.4269C70.2995 72.1312 70.0949 71.8995 69.9037 71.7799C69.5347 71.5495 69.1292 71.4748 68.7197 71.4937C69.0728 70.9595 69.2868 70.3539 69.3712 69.719Z" fill="#FFCEC4"/>
</g>
<g clip-path="url(#clip3_2517_49183)">
<path fill-rule="evenodd" clip-rule="evenodd" d="M43.4863 34.3381C43.4218 34.197 43.3638 34.0559 43.3126 33.913C43.2356 33.6987 43.1877 33.4748 43.1225 33.2573C43.0947 33.1651 43.0186 32.9256 43.0138 32.8895C42.973 32.5747 43.2058 32.4625 43.2754 32.435C43.3087 32.4207 43.6544 32.2853 43.8372 32.66C44.061 33.118 44.2217 33.5965 44.316 34.082C44.5024 34.4664 44.7438 34.8342 45.0175 35.1524C46.1067 36.418 47.4781 36.2019 48.9193 35.8015C49.1406 35.7386 49.3719 35.8635 49.4427 36.0813C49.5139 36.3007 49.4001 36.5377 49.1843 36.6169C48.3976 36.9113 47.1383 37.9429 46.8236 38.7499C46.7577 38.9188 46.7887 39.2754 46.7984 39.6306C46.8113 40.1238 46.8018 40.6176 46.7051 40.8499C46.6908 40.8858 46.5022 41.2639 46.4335 41.3303C46.268 41.4886 46.0963 41.4687 45.9929 41.4359C45.8896 41.4031 45.76 41.3185 45.6708 41.1449C45.5775 40.9634 45.5068 40.5587 45.4776 40.4758C45.3717 40.1749 45.1487 39.5885 44.8845 39.1039C44.7421 38.8431 44.6011 38.605 44.4476 38.509C43.8794 38.154 43.1923 38.4129 42.6188 38.6502C42.5528 38.6768 42.4872 38.7051 42.4213 38.7316C42.1985 38.8678 41.9558 38.9898 41.6927 39.0941C41.2956 39.2522 41.1272 38.8932 41.1169 38.8693C41.0945 38.8165 40.9905 38.5418 41.2693 38.3461C41.2999 38.3254 41.534 38.204 41.624 38.1567C41.7495 38.091 41.8783 38.0316 42.008 37.9737C43.2913 37.1636 43.724 35.7375 43.4863 34.3381ZM44.3712 35.719C45.1925 36.6701 46.1359 36.9834 47.1506 36.9678L47.1504 36.9678C46.6401 37.4374 46.2043 37.9707 46.0227 38.4376C45.9537 38.6145 45.9337 38.9385 45.9333 39.2964C45.8015 38.9989 45.6472 38.686 45.4847 38.4269C45.2995 38.1312 45.0949 37.8995 44.9037 37.7799C44.5347 37.5495 44.1292 37.4748 43.7197 37.4937C44.0728 36.9595 44.2868 36.3539 44.3712 35.719Z" fill="#4ADE80"/>
</g>
<g clip-path="url(#clip4_2517_49183)">
<path fill-rule="evenodd" clip-rule="evenodd" d="M4.48628 83.3381C4.42177 83.197 4.36385 83.0559 4.31257 82.913C4.23556 82.6987 4.18767 82.4748 4.12245 82.2573C4.09471 82.1651 4.01862 81.9256 4.01376 81.8895C3.97301 81.5747 4.20583 81.4625 4.27535 81.435C4.30872 81.4207 4.65443 81.2853 4.83723 81.66C5.06105 82.118 5.22165 82.5965 5.31598 83.082C5.50245 83.4664 5.74377 83.8342 6.01753 84.1524C7.10671 85.418 8.47807 85.2019 9.91932 84.8015C10.1406 84.7386 10.3719 84.8635 10.4427 85.0813C10.5139 85.3007 10.4001 85.5377 10.1843 85.6169C9.39759 85.9113 8.13828 86.9429 7.82355 87.7499C7.75775 87.9188 7.78869 88.2754 7.79842 88.6306C7.8113 89.1238 7.80176 89.6176 7.70508 89.8499C7.69083 89.8858 7.50218 90.2639 7.43349 90.3303C7.26799 90.4886 7.09626 90.4687 6.99294 90.4359C6.88963 90.4031 6.76001 90.3185 6.67076 90.1449C6.57746 89.9634 6.50675 89.5587 6.47758 89.4758C6.37168 89.1749 6.14871 88.5885 5.88449 88.1039C5.74215 87.8431 5.60109 87.605 5.44759 87.509C4.87936 87.154 4.19225 87.4129 3.6188 87.6502C3.55277 87.6768 3.48719 87.7051 3.42132 87.7316C3.19849 87.8678 2.95581 87.9898 2.69274 88.0941C2.29562 88.2522 2.12719 87.8932 2.11686 87.8693C2.09454 87.8165 1.99049 87.5418 2.26929 87.3461C2.29989 87.3254 2.53398 87.204 2.62401 87.1567C2.74953 87.091 2.87831 87.0316 3.00804 86.9737C4.29126 86.1636 4.72402 84.7375 4.48628 83.3381ZM5.37122 84.719C6.19245 85.6701 7.1359 85.9834 8.15057 85.9678L8.1504 85.9678C7.64008 86.4374 7.20431 86.9707 7.02274 87.4376C6.95374 87.6145 6.93375 87.9385 6.93335 88.2964C6.80147 87.9989 6.64716 87.686 6.48466 87.4269C6.29952 87.1312 6.09485 86.8995 5.90367 86.7799C5.53471 86.5495 5.12917 86.4748 4.7197 86.4937C5.07279 85.9595 5.28681 85.3539 5.37122 84.719Z" fill="#E5E7EB"/>
</g>
<g clip-path="url(#clip5_2517_49183)">
<path fill-rule="evenodd" clip-rule="evenodd" d="M251.985 92.9379C251.929 92.8137 251.878 92.6895 251.832 92.5638C251.765 92.3752 251.723 92.1781 251.665 91.9868C251.641 91.9056 251.574 91.6948 251.57 91.6631C251.534 91.3861 251.739 91.2873 251.8 91.2631C251.829 91.2505 252.133 91.1314 252.294 91.4611C252.491 91.8641 252.632 92.2852 252.715 92.7125C252.88 93.0507 253.092 93.3744 253.333 93.6544C254.291 94.7682 255.498 94.5779 256.766 94.2256C256.961 94.1703 257.165 94.2802 257.227 94.4718C257.29 94.6649 257.189 94.8734 257 94.9431C256.307 95.2022 255.199 96.1101 254.922 96.8202C254.864 96.9689 254.891 97.2827 254.9 97.5952C254.911 98.0292 254.903 98.4637 254.818 98.6682C254.805 98.6998 254.639 99.0325 254.579 99.0909C254.433 99.2302 254.282 99.2127 254.191 99.1838C254.1 99.155 253.986 99.0806 253.908 98.9278C253.826 98.7681 253.763 98.4119 253.738 98.3389C253.644 98.0741 253.448 97.5581 253.216 97.1317C253.09 96.9022 252.966 96.6926 252.831 96.6082C252.331 96.2958 251.727 96.5236 251.222 96.7325C251.164 96.7559 251.106 96.7807 251.048 96.8041C250.852 96.924 250.639 97.0313 250.407 97.1231C250.058 97.2622 249.909 96.9463 249.9 96.9253C249.881 96.8788 249.789 96.6371 250.034 96.4649C250.061 96.4467 250.267 96.3398 250.347 96.2982C250.457 96.2404 250.57 96.1881 250.684 96.1372C251.814 95.4242 252.195 94.1693 251.985 92.9379ZM252.764 94.153C253.487 94.99 254.317 95.2656 255.21 95.2519L255.21 95.252C254.761 95.6652 254.377 96.1345 254.217 96.5454C254.157 96.7011 254.139 96.9862 254.139 97.3011C254.023 97.0393 253.887 96.7639 253.744 96.536C253.581 96.2758 253.401 96.0719 253.233 95.9666C252.908 95.7638 252.551 95.6981 252.191 95.7148C252.501 95.2446 252.69 94.7117 252.764 94.153Z" fill="#E5E7EB"/>
</g>
<circle cx="100.312" cy="36" r="2.5" stroke="#E5E7EB"/>
<circle opacity="0.5" cx="119.312" cy="2" r="1.5" stroke="#E5E7EB"/>
<defs>
<clipPath id="clip0_2517_49183">
<rect width="22.2734" height="22.2734" fill="white" transform="translate(197.5 69.6543) rotate(-15)"/>
</clipPath>
<clipPath id="clip1_2517_49183">
<rect width="11.0587" height="11.0587" fill="white" transform="translate(178.295 25.0039) rotate(-15)"/>
</clipPath>
<clipPath id="clip2_2517_49183">
<rect width="9.62799" height="9.62799" fill="white" transform="translate(64.3115 67.4922) rotate(-15)"/>
</clipPath>
<clipPath id="clip3_2517_49183">
<rect width="9.62799" height="9.62799" fill="white" transform="translate(39.3115 33.4922) rotate(-15)"/>
</clipPath>
<clipPath id="clip4_2517_49183">
<rect width="9.62799" height="9.62799" fill="white" transform="translate(0.311523 82.4922) rotate(-15)"/>
</clipPath>
<clipPath id="clip5_2517_49183">
<rect width="8.47256" height="8.47256" fill="white" transform="translate(248.312 92.1934) rotate(-15)"/>
</clipPath>
</defs>
</svg>
