<svg width="53" height="53" viewBox="0 0 53 53" fill="none" xmlns="http://www.w3.org/2000/svg">
<path d="M26.5003 44.1667C27.72 44.1667 28.7087 43.178 28.7087 41.9583C28.7087 40.7387 27.72 39.75 26.5003 39.75C25.2807 39.75 24.292 40.7387 24.292 41.9583C24.292 43.178 25.2807 44.1667 26.5003 44.1667Z" fill="#4B5563"/>
<path d="M27.4718 24.2917L23.2759 20.1179L17.8434 14.7296L14.4205 11.3067L10.4013 7.26542C10.1954 7.05952 9.951 6.89619 9.68197 6.78475C9.41295 6.67332 9.12461 6.61597 8.83342 6.61597C8.54224 6.61597 8.2539 6.67332 7.98487 6.78475C7.71585 6.89619 7.47141 7.05952 7.26551 7.26542C6.84967 7.68126 6.61605 8.24525 6.61605 8.83334C6.61605 9.42142 6.84967 9.98542 7.26551 10.4013L10.313 13.4267L13.5372 16.6508L18.4618 21.5975L21.8847 24.9983L27.9355 31.0492L34.0968 37.2325L42.5988 45.7346C42.8041 45.9416 43.0484 46.1059 43.3175 46.218C43.5866 46.3301 43.8752 46.3878 44.1668 46.3878C44.4583 46.3878 44.7469 46.3301 45.016 46.218C45.2851 46.1059 45.5294 45.9416 45.7347 45.7346C45.9417 45.5293 46.1059 45.285 46.2181 45.0159C46.3302 44.7468 46.3879 44.4582 46.3879 44.1667C46.3879 43.8751 46.3302 43.5865 46.2181 43.3174C46.1059 43.0483 45.9417 42.804 45.7347 42.5988L27.4718 24.2917ZM47.9651 17.5121C42.2133 11.9342 34.5123 8.82051 26.5001 8.83334C23.1665 8.84237 19.8561 9.38666 16.6951 10.4454L20.2726 14.0229C24.6049 12.9404 29.1417 12.9807 33.4541 14.1399C37.7665 15.2992 41.712 17.5391 44.9176 20.6479C45.327 21.0425 45.8728 21.264 46.4413 21.2663C46.7388 21.2651 47.033 21.2039 47.3062 21.0863C47.5794 20.9686 47.8261 20.797 48.0313 20.5817C48.4206 20.1614 48.6313 19.6062 48.6189 19.0335C48.6066 18.4607 48.3721 17.9152 47.9651 17.5121ZM8.43592 14.6854C7.23774 15.5471 6.10135 16.4917 5.03509 17.5121C4.66241 17.9265 4.4602 18.4665 4.46903 19.0238C4.47786 19.581 4.69707 20.1143 5.08269 20.5167C5.46832 20.9191 5.99183 21.1608 6.54822 21.1933C7.1046 21.2259 7.65271 21.0468 8.08259 20.6921C9.18389 19.6514 10.3653 18.6988 11.6159 17.8433L8.43592 14.6854ZM37.5418 29.0175C37.7463 29.2262 37.9902 29.3922 38.2593 29.5059C38.5285 29.6196 38.8175 29.6788 39.1097 29.68C39.5412 29.6784 39.9628 29.5503 40.3224 29.3117C40.682 29.073 40.9638 28.7343 41.1329 28.3372C41.3021 27.9402 41.3512 27.5023 41.2742 27.0777C41.1972 26.6531 40.9975 26.2603 40.6997 25.9479C38.8578 24.0394 36.6525 22.5188 34.2139 21.4759C31.7752 20.4329 29.1524 19.8886 26.5001 19.875H26.1468L31.3363 25.0646C33.6928 25.8636 35.8216 27.2196 37.5418 29.0175ZM16.408 22.6575C14.8649 23.5563 13.453 24.6635 12.2122 25.9479C11.8051 26.3784 11.5857 26.9529 11.6023 27.5452C11.6189 28.1374 11.87 28.6988 12.3005 29.1058C12.731 29.5129 13.3055 29.7323 13.8978 29.7157C14.49 29.6991 15.0514 29.448 15.4584 29.0175C16.745 27.7385 18.2382 26.6858 19.8751 25.9037L16.408 22.6575ZM18.8372 34.0083C18.4155 34.4154 18.1728 34.9733 18.1624 35.5593C18.1573 35.8495 18.2094 36.1378 18.3157 36.4078C18.422 36.6779 18.5804 36.9243 18.782 37.1331C18.9835 37.3419 19.2242 37.509 19.4903 37.6248C19.7565 37.7405 20.0428 37.8028 20.3329 37.8079C20.9189 37.8182 21.4851 37.5954 21.9068 37.1883C23.0436 36.1398 24.5058 35.513 26.0491 35.4125C27.5924 35.312 29.1235 35.744 30.3868 36.6363L24.8218 31.0713C22.5719 31.4103 20.4818 32.4361 18.8372 34.0083Z" fill="#4B5563"/>
</svg>
