<svg width="29" height="29" viewBox="0 0 29 29" fill="none" xmlns="http://www.w3.org/2000/svg">
<path d="M14.0625 0.5C6.29625 0.5 0 6.79625 0 14.5625C0 22.3288 6.29625 28.625 14.0625 28.625C21.8288 28.625 28.125 22.3288 28.125 14.5625C28.125 6.79625 21.8288 0.5 14.0625 0.5ZM12.6638 21.9303H13.732L14.0625 20.9131L14.393 21.9303H15.4613L14.5969 22.5589L14.9264 23.5752L14.0625 22.947L13.1972 23.5752L13.5277 22.5589L12.6638 21.9303ZM11.0456 22.3091L10.1812 21.6805L9.31594 22.3091L9.64641 21.2928L8.78203 20.6642H9.85031L10.1808 19.647L10.5112 20.6642H11.5795L10.7142 21.2928L11.0456 22.3091ZM8.37281 19.6363L7.5075 19.0077L6.64313 19.6363L6.97312 18.62L6.10781 17.9914H7.17656L7.50703 16.9742L7.83703 17.9914H8.90578L8.04141 18.62L8.37281 19.6363ZM4.84359 14.0989H5.91234L6.24281 13.0827L6.57281 14.0989H7.64156L6.77719 14.7275L7.10766 15.7438L6.24234 15.1156L5.37797 15.7438L5.70703 14.7275L4.84359 14.0989ZM8.37281 11.8517L7.5075 11.2236L6.64313 11.8517L6.97312 10.8355L6.10781 10.2069H7.17656L7.50703 9.18969L7.83703 10.2069H8.90578L8.04141 10.8355L8.37281 11.8517ZM11.0456 9.17891L10.1812 8.55078L9.31594 9.17891L9.64641 8.16266L8.78203 7.53406H9.85031L10.1808 6.51688L10.5112 7.53406H11.5795L10.7152 8.16266L11.0456 9.17891ZM14.9278 7.91281L14.0625 7.28516L13.1981 7.91328L13.5286 6.89703L12.6633 6.26844H13.7325L14.0625 5.25219L14.393 6.26844H15.4613L14.5969 6.89703L14.9278 7.91281ZM21.4814 11.8517L20.6161 11.2236L19.7517 11.8517L20.0822 10.8355L19.2169 10.2069H20.2856L20.6156 9.18969L20.9461 10.2069H22.0148L21.1505 10.8355L21.4814 11.8517ZM21.4814 19.6363L20.6161 19.0077L19.7517 19.6363L20.0822 18.62L19.2169 17.9914H20.2856L20.6156 16.9742L20.9461 17.9914H22.0148L21.1505 18.62L21.4814 19.6363ZM18.4781 8.16266L18.8077 9.17891L17.9433 8.55078L17.078 9.17891L17.4084 8.16266L16.5441 7.53406H17.6123L17.9428 6.51688L18.2733 7.53406H19.3416L18.4781 8.16266ZM17.6128 20.6647L17.9433 19.6475L18.2738 20.6647H19.342L18.4777 21.2933L18.8081 22.3095L17.9428 21.6809L17.0775 22.3095L17.408 21.2933L16.5436 20.6647H17.6128ZM22.7461 15.7438L21.8817 15.1156L21.0164 15.7438L21.3469 14.7275L20.4825 14.0989H21.5513L21.8813 13.0827L22.2108 14.0989H23.2805L22.4152 14.7275L22.7461 15.7438Z" fill="black"/>
</svg>
