<svg width="30" height="31" viewBox="0 0 30 31" fill="none" xmlns="http://www.w3.org/2000/svg">
<path d="M22.1501 27.1641H7.15011C6.92909 27.1641 6.71713 27.2519 6.56085 27.4081C6.40457 27.5644 6.31677 27.7764 6.31677 27.9974C6.31677 28.2184 6.40457 28.4304 6.56085 28.5867C6.71713 28.7429 6.92909 28.8307 7.15011 28.8307H22.1501C22.3711 28.8307 22.5831 28.7429 22.7394 28.5867C22.8956 28.4304 22.9834 28.2184 22.9834 27.9974C22.9834 27.7764 22.8956 27.5644 22.7394 27.4081C22.5831 27.2519 22.3711 27.1641 22.1501 27.1641Z" fill="black"/>
<path d="M14.7915 2.16797C11.6974 2.16797 8.72989 3.39713 6.54197 5.58506C4.35404 7.77298 3.12488 10.7404 3.12488 13.8346C3.12488 14.2096 3.12488 14.5763 3.18321 14.943C3.39795 17.1932 4.26177 19.3326 5.66964 21.101C7.07752 22.8695 8.96882 24.1909 11.1136 24.9046C13.2585 25.6182 15.5644 25.6935 17.7512 25.1211C19.938 24.5488 21.9114 23.3535 23.4315 21.6805C24.9517 20.0076 25.9531 17.9291 26.3141 15.6976C26.675 13.4662 26.38 11.178 25.4648 9.11109C24.5496 7.04421 23.0537 5.2877 21.1589 4.0551C19.2641 2.8225 17.052 2.16689 14.7915 2.16797ZM14.7915 3.83464C17.4265 3.83693 19.9541 4.8791 21.8249 6.73464V7.56797C18.5312 6.43448 14.9508 6.44917 11.6665 7.60964C11.4042 7.35396 11.0748 7.17773 10.7165 7.1013H10.5082C10.4082 6.7513 10.3165 6.4013 10.2415 6.04297C10.1665 5.68464 10.1249 5.36797 10.0832 5.0263C11.5299 4.24561 13.1477 3.83615 14.7915 3.83464ZM12.2915 8.7263C15.3179 7.71286 18.5979 7.75103 21.5999 8.83464C21.1938 10.9518 20.3072 12.9475 19.0082 14.668C18.6449 14.5141 18.2427 14.4772 17.8574 14.5623C17.4721 14.6474 17.1229 14.8504 16.8582 15.143C16.5665 14.9763 16.2749 14.8096 16.0249 14.618C14.3426 13.4956 12.9377 12.0052 11.9165 10.2596C12.0816 10.055 12.2018 9.8179 12.2692 9.56379C12.3367 9.30968 12.35 9.04421 12.3082 8.78464L12.2915 8.7263ZM8.95821 5.7263C8.95821 5.9013 9.00821 6.08464 9.04154 6.25964C9.11654 6.6263 9.21654 6.98464 9.31654 7.34297C8.99743 7.53193 8.7406 7.81016 8.57771 8.14334C8.41482 8.47652 8.35301 8.85008 8.39988 9.21797C7.08446 10.077 5.90952 11.1339 4.91654 12.3513C5.11579 11.0328 5.57674 9.76741 6.27227 8.62966C6.96779 7.49191 7.88385 6.50477 8.96654 5.7263H8.95821ZM8.95821 18.818C8.6329 18.9272 8.34217 19.1203 8.11537 19.3778C7.88858 19.6353 7.73376 19.9481 7.66654 20.2846H7.13321C5.78744 18.6795 4.98255 16.6906 4.83321 14.6013L4.92488 14.443C5.96839 12.8249 7.3326 11.438 8.93321 10.368C9.17319 10.6186 9.47645 10.7997 9.81091 10.8921C10.1454 10.9845 10.4986 10.9848 10.8332 10.893C11.9478 12.7766 13.4715 14.3857 15.2915 15.6013C15.6332 15.8263 15.9832 16.0346 16.3332 16.2346C16.3052 16.5534 16.3568 16.8741 16.4832 17.168C14.9582 18.379 13.1991 19.2614 11.3165 19.7596C11.0982 19.3517 10.742 19.0348 10.3115 18.8653C9.88103 18.6959 9.40431 18.685 8.96654 18.8346L8.95821 18.818ZM14.7915 23.818C13.0967 23.8184 11.43 23.3853 9.94988 22.5596L10.1832 22.5096C10.5148 22.4008 10.8111 22.205 11.0413 21.9426C11.2714 21.6803 11.4269 21.3609 11.4915 21.018C13.6224 20.4746 15.6117 19.4799 17.3249 18.1013C17.7318 18.3391 18.2124 18.4179 18.674 18.3225C19.1356 18.2271 19.5455 17.9643 19.8249 17.5846C21.0006 17.8903 22.2101 18.0471 23.4249 18.0513H23.8665C23.0626 19.7801 21.7812 21.2431 20.1733 22.2677C18.5654 23.2924 16.6982 23.8361 14.7915 23.8346V23.818ZM20.2165 16.4013C20.2157 16.052 20.1207 15.7094 19.9415 15.4096C21.3284 13.5981 22.2935 11.4999 22.7665 9.26797C23.1832 9.46242 23.5943 9.67908 23.9999 9.91797C24.9164 12.0837 25.0403 14.5032 24.3499 16.7513C22.9663 16.8583 21.5746 16.7486 20.2249 16.4263L20.2165 16.4013Z" fill="black"/>
</svg>
