<svg width="25" height="26" viewBox="0 0 25 26" fill="none" xmlns="http://www.w3.org/2000/svg">
<path d="M18.1641 2.01562H6.83594C5.97412 2.01562 5.27344 2.71631 5.27344 3.57812V22.3281C5.27344 23.1899 5.97412 23.8906 6.83594 23.8906H18.1641C19.0259 23.8906 19.7266 23.1899 19.7266 22.3281V3.57812C19.7266 2.71631 19.0259 2.01562 18.1641 2.01562ZM17.9688 22.1328H7.03125V3.77344H17.9688V22.1328ZM11.5234 19.6426C11.5234 19.9016 11.6263 20.15 11.8095 20.3331C11.9926 20.5163 12.241 20.6191 12.5 20.6191C12.759 20.6191 13.0074 20.5163 13.1905 20.3331C13.3737 20.15 13.4766 19.9016 13.4766 19.6426C13.4766 19.3836 13.3737 19.1352 13.1905 18.952C13.0074 18.7689 12.759 18.666 12.5 18.666C12.241 18.666 11.9926 18.7689 11.8095 18.952C11.6263 19.1352 11.5234 19.3836 11.5234 19.6426Z" fill="black"/>
</svg>
