<svg width="40" height="40" viewBox="0 0 40 40" fill="none" xmlns="http://www.w3.org/2000/svg">
<path d="M30.3374 10.727C27.7482 8.13787 23.5353 8.13787 20.9462 10.727L16.2505 15.4227L17.3555 16.5275L22.051 11.8319C23.0034 10.8795 24.295 10.3445 25.6418 10.3445C26.3087 10.3445 26.969 10.4759 27.5851 10.7311C28.2012 10.9863 28.761 11.3603 29.2326 11.8319C29.7041 12.3034 30.0782 12.8632 30.3334 13.4794C30.5886 14.0955 30.7199 14.7558 30.7199 15.4227C30.7199 16.0895 30.5886 16.7499 30.3334 17.366C30.0782 17.9821 29.7041 18.5419 29.2326 19.0135L24.5369 23.7091L25.6416 24.8139L30.3373 20.1183C32.9268 17.5291 32.9268 13.3162 30.3374 10.727ZM19.0126 29.2334C18.0603 30.1857 16.7687 30.7207 15.4219 30.7207C14.0751 30.7207 12.7834 30.1857 11.8311 29.2334C10.8788 28.281 10.3438 26.9894 10.3438 25.6426C10.3438 24.2958 10.8788 23.0042 11.8311 22.0518L16.2506 17.6323L15.1457 16.5275L10.7262 20.947C10.1072 21.5631 9.61574 22.2953 9.28008 23.1016C8.94441 23.9079 8.77109 24.7725 8.77005 25.6459C8.76902 26.5193 8.94028 27.3843 9.27403 28.1914C9.60779 28.9985 10.0975 29.7318 10.7151 30.3494C11.3326 30.967 12.066 31.4567 12.8731 31.7904C13.6802 32.1242 14.5452 32.2954 15.4186 32.2944C16.292 32.2934 17.1566 32.12 17.9629 31.7844C18.7692 31.4487 19.5014 30.9573 20.1175 30.3382L24.5369 25.9188L23.4321 24.8139L19.0126 29.2334Z" fill="black"/>
<path d="M14.317 25.6423L25.3656 14.5938L26.4705 15.6986L15.4219 26.7472L14.317 25.6423Z" fill="black"/>
</svg>
