<svg width="231" height="206" viewBox="0 0 231 206" fill="none" xmlns="http://www.w3.org/2000/svg">
<path d="M104.048 16.0287C104.048 16.0287 95.342 60.8796 45.2805 62.6515C-4.78094 64.4235 -18.4801 136.632 32.3403 150.044C83.1608 163.456 58.1247 198.168 91.5753 205.198C129.594 213.188 130.066 156.942 156.503 156.037C214.852 154.042 245.047 127.32 223.945 105.645C186.904 67.5979 167.821 73.7309 169.117 43.3258C170.412 12.9207 115.599 -20.6112 104.048 16.0287Z" fill="#F3F4F6"/>
<path d="M142.23 67.1084C142.824 68.0416 141.807 69.1288 140.728 68.8837C138.618 68.2553 136.284 67.9411 133.906 67.9411H119.092C118.387 67.9411 117.722 67.6092 117.298 67.0451L112.137 60.1761C111.504 59.2804 112.102 57.9768 113.198 57.9768H125.557C132.564 57.9768 138.735 61.6157 142.23 67.1084Z" fill="#008AA8"/>
<path d="M145.397 78.3542C143.467 76.9628 141.268 75.9305 138.889 75.347C137.273 74.8981 135.612 74.6737 133.907 74.6737H117.21C114.606 74.6737 114.427 74.4493 113.035 72.609L106.752 64.2606C103.834 60.3557 101.545 57.9768 94.229 57.9768H83.8159C72.8641 57.9768 63.9771 66.8639 63.9771 77.8156V127.906C63.9771 138.858 72.8641 147.745 83.8159 147.745H133.907C144.858 147.745 153.745 138.858 153.745 127.906V94.5125C153.745 87.8248 150.469 81.945 145.397 78.3542ZM119.589 122.341H98.089C96.3385 122.341 94.992 120.949 94.992 119.199C94.992 117.493 96.3385 116.057 98.089 116.057H119.589C121.339 116.057 122.73 117.493 122.73 119.199C122.73 120.949 121.339 122.341 119.589 122.341Z" fill="#008AA8"/>
<path d="M164.505 132.901L154.366 118.129L151.405 120.161L161.545 134.933L164.505 132.901Z" fill="white"/>
<path d="M168.647 137.143L160.759 125.65C160.715 125.586 160.627 125.57 160.563 125.614L156.161 128.635C156.097 128.679 156.081 128.767 156.125 128.831L164.013 140.323C164.057 140.387 164.144 140.404 164.208 140.36L168.611 137.338C168.675 137.294 168.691 137.207 168.647 137.143Z" fill="#01718A"/>
<path d="M142.078 122.217C150.688 123.872 159.01 118.233 160.664 109.623C162.319 101.012 156.68 92.6908 148.07 91.0362C139.46 89.3816 131.138 95.0204 129.484 103.631C127.829 112.241 133.468 120.562 142.078 122.217Z" fill="white"/>
<path d="M142.567 119.673C149.772 121.058 156.736 116.339 158.12 109.134C159.505 101.928 154.786 94.9647 147.581 93.5801C140.375 92.1955 133.412 96.9141 132.027 104.12C130.642 111.325 135.361 118.289 142.567 119.673Z" fill="#E5E7EB"/>
</svg>
