<svg width="231" height="206" viewBox="0 0 231 206" fill="none" xmlns="http://www.w3.org/2000/svg">
<path d="M103.72 16.0287C103.72 16.0287 95.0139 60.8796 44.9524 62.6515C-5.10907 64.4235 -18.8082 136.632 32.0122 150.044C82.8326 163.456 57.7966 198.168 91.2472 205.198C129.266 213.188 129.738 156.942 156.175 156.037C214.524 154.042 244.718 127.32 223.617 105.645C186.576 67.5979 167.493 73.7309 168.788 43.3258C170.084 12.9207 115.271 -20.6112 103.72 16.0287Z" fill="#F3F4F6"/>
<path d="M161.129 48.329L42.2916 72.8547C38.5054 73.6361 36.0695 77.3389 36.8509 81.1251L52.1573 155.291C52.9387 159.078 56.6415 161.513 60.4277 160.732L179.265 136.206C183.051 135.425 185.487 131.722 184.706 127.936L169.399 53.7697C168.618 49.9835 164.915 47.5476 161.129 48.329Z" fill="#008AA8"/>
<path d="M182.995 155.441C194.008 155.441 202.935 146.513 202.935 135.501C202.935 124.488 194.008 115.561 182.995 115.561C171.983 115.561 163.055 124.488 163.055 135.501C163.055 146.513 171.983 155.441 182.995 155.441Z" fill="#008AA8" stroke="white" stroke-width="15" stroke-miterlimit="10"/>
<path d="M190.677 133.831H184.998C184.954 133.831 184.911 133.822 184.87 133.805C184.83 133.789 184.793 133.764 184.762 133.733C184.731 133.702 184.706 133.665 184.69 133.625C184.673 133.584 184.664 133.541 184.664 133.497V127.819C184.664 127.376 184.488 126.951 184.175 126.638C183.862 126.325 183.437 126.149 182.994 126.149C182.551 126.149 182.127 126.325 181.813 126.638C181.5 126.951 181.324 127.376 181.324 127.819V133.497C181.324 133.541 181.316 133.584 181.299 133.625C181.282 133.665 181.257 133.702 181.226 133.733C181.195 133.764 181.159 133.789 181.118 133.805C181.078 133.822 181.034 133.831 180.99 133.831H175.313C174.873 133.835 174.452 134.013 174.142 134.325C173.832 134.638 173.658 135.061 173.658 135.501C173.658 135.941 173.832 136.364 174.142 136.676C174.452 136.989 174.873 137.167 175.313 137.171H180.991C181.079 137.171 181.164 137.206 181.227 137.269C181.29 137.331 181.325 137.416 181.325 137.505V143.183C181.325 143.626 181.501 144.05 181.814 144.364C182.127 144.677 182.552 144.853 182.995 144.853C183.438 144.853 183.862 144.677 184.176 144.364C184.489 144.05 184.665 143.626 184.665 143.183V137.505C184.665 137.416 184.7 137.331 184.763 137.269C184.825 137.206 184.91 137.171 184.999 137.171H190.677C191.117 137.167 191.538 136.989 191.848 136.676C192.157 136.364 192.331 135.941 192.331 135.501C192.331 135.061 192.157 134.638 191.848 134.325C191.538 134.013 191.117 133.835 190.677 133.831Z" fill="white"/>
</svg>
