<svg width="239" height="231" viewBox="0 0 239 231" fill="none" xmlns="http://www.w3.org/2000/svg">
<path d="M51.6357 28.0074C53.2429 29.5871 54.9356 31.0734 56.817 32.3143C66.412 38.6441 94.9496 53.8539 140.093 47.4214C196.498 39.3845 188.435 96.1582 180.372 111.312C172.309 126.466 142.548 154.302 140.093 168.201C137.637 182.101 148.516 219.997 123.322 208.709C98.1282 197.421 83.4975 170.813 50.4975 174.038C17.4975 177.263 -5.8854 162.723 8.62812 136.532C23.1416 110.341 40.5481 93.4078 18.1379 64.3806C-3.6503 36.1593 32.7676 9.46268 51.6357 28.0074Z" fill="#F3F4F6"/>
<path d="M23.8355 99.8465L139.746 77.271L135.286 54.3745C135.135 53.6002 134.834 52.8631 134.398 52.2054C133.962 51.5477 133.401 50.9823 132.747 50.5414C132.093 50.1005 131.358 49.7927 130.585 49.6358C129.812 49.4788 129.015 49.4756 128.241 49.6265L21.6079 88.4097L23.8355 99.8465Z" fill="#008AA8"/>
<path d="M21.678 88.7734L148.436 64.0859C150.259 63.731 152.147 64.1145 153.687 65.1521C155.226 66.1897 156.29 67.7963 156.645 69.6186L171.224 144.47C171.578 146.292 171.195 148.181 170.157 149.721C169.12 151.26 167.513 152.324 165.691 152.679L45.8034 176.029C43.9811 176.383 42.0925 176 40.553 174.962C39.0135 173.925 37.9492 172.318 37.5943 170.496L21.678 88.7734Z" fill="#0A6375"/>
<path d="M115.907 100.498L160.217 91.8681C162.039 91.5132 163.928 91.8967 165.467 92.9343C167.007 93.9719 168.071 95.5785 168.426 97.4008L171.717 114.298C172.072 116.12 171.688 118.009 170.651 119.548C169.613 121.088 168.007 122.152 166.184 122.507L121.875 131.137C121.526 131.204 121.165 131.131 120.87 130.933C120.575 130.734 120.372 130.427 120.304 130.078L114.849 102.069C114.781 101.72 114.854 101.359 115.053 101.064C115.251 100.769 115.559 100.566 115.907 100.498Z" fill="#2FA2B9"/>
<path d="M133.436 120.129C137.382 120.129 140.581 116.93 140.581 112.983C140.581 109.037 137.382 105.838 133.436 105.838C129.49 105.838 126.29 109.037 126.29 112.983C126.29 116.93 129.49 120.129 133.436 120.129Z" fill="white"/>
<g clip-path="url(#clip0_3489_79314)">
<path d="M238.297 70.4276C235.157 83.017 222.405 90.6796 209.813 87.5399C197.221 84.4001 189.563 71.6474 192.704 59.0566C195.846 46.4659 208.594 38.8025 221.182 41.9416C233.77 45.0807 241.436 57.8348 238.297 70.4276Z" fill="#F7931A"/>
<path d="M225.861 61.3927C226.329 58.2654 223.948 56.5846 220.692 55.4661L221.749 51.2299L219.17 50.5869L218.141 54.708C217.463 54.5392 216.767 54.38 216.073 54.2215L217.107 50.0693L214.534 49.4277L213.477 53.6626C212.916 53.5351 212.364 53.4083 211.83 53.2753V53.2622L208.276 52.3718L207.587 55.1284C207.587 55.1284 209.5 55.5667 209.46 55.5942C210.504 55.8547 210.693 56.546 210.662 57.0938L209.459 61.9179C209.55 61.9407 209.64 61.9694 209.727 62.004C209.641 61.9827 209.549 61.9592 209.451 61.9351L207.765 68.6957C207.638 69.0127 207.314 69.4889 206.583 69.3083C206.609 69.3455 204.709 68.8404 204.709 68.8404L203.439 71.7955L206.791 72.6328C207.415 72.7892 208.027 72.9532 208.629 73.1069L207.562 77.3879L210.139 78.0309L211.196 73.7919C211.899 73.9828 212.582 74.1592 213.251 74.3253L212.198 78.545L214.776 79.188L215.843 74.9132C220.241 75.745 223.547 75.4094 224.94 71.4323C226.061 68.2298 224.884 66.3829 222.571 65.1782C224.251 64.7903 225.522 63.6821 225.861 61.3927ZM219.969 69.6543C219.173 72.8568 213.781 71.1256 212.033 70.688L213.449 65.0115C215.197 65.4511 220.805 66.3147 219.969 69.6543ZM220.767 61.3459C220.04 64.2589 215.552 62.7786 214.096 62.4161L215.38 57.2647C216.836 57.6307 221.524 58.3081 220.767 61.3459Z" fill="white"/>
</g>
<path d="M170.355 183.102L158.347 206.424L170.355 200.036V183.102Z" fill="#8A92B2"/>
<path d="M170.355 200.037L158.347 206.425L170.355 214.735V200.037Z" fill="#62688F"/>
<path d="M182.365 206.424L170.355 183.102V200.036L182.365 206.424Z" fill="#62688F"/>
<path d="M170.355 214.735L182.365 206.425L170.355 200.037V214.735Z" fill="#454A75"/>
<path d="M158.347 209.092L170.355 228.899V217.396L158.347 209.092Z" fill="#8A92B2"/>
<path d="M170.355 217.396V228.899L182.372 209.092L170.355 217.396Z" fill="#62688F"/>
<g clip-path="url(#clip1_3489_79314)">
<path d="M21.6667 0L17.0811 2.63761L4.58554 9.86239L0 12.5V37.5L4.58554 40.1376L17.1958 47.3624L21.7813 50L26.3668 47.3624L38.7478 40.1376L43.3333 37.5V12.5L38.7478 9.86239L26.2522 2.63761L21.6667 0V0ZM9.17108 32.2248V17.7752L21.6667 10.5505L34.1623 17.7752V32.2248L21.6667 39.4495L9.17108 32.2248Z" fill="#2563EB"/>
</g>
<defs>
<clipPath id="clip0_3489_79314">
<rect width="47" height="50.2418" fill="white" transform="translate(192 38)"/>
</clipPath>
<clipPath id="clip1_3489_79314">
<rect width="43.3333" height="50" fill="white"/>
</clipPath>
</defs>
</svg>
