<svg width="16" height="16" viewBox="0 0 16 16" fill="none" xmlns="http://www.w3.org/2000/svg">
<path d="M6.80001 3.2H9.20001C9.20001 2.88174 9.07358 2.57651 8.84853 2.35147C8.62349 2.12643 8.31827 2 8.00001 2C7.68175 2 7.37652 2.12643 7.15148 2.35147C6.92643 2.57651 6.80001 2.88174 6.80001 3.2ZM6.00001 3.2C6.00001 2.66956 6.21072 2.16086 6.58579 1.78578C6.96087 1.41071 7.46957 1.2 8.00001 1.2C8.53044 1.2 9.03915 1.41071 9.41422 1.78578C9.78929 2.16086 10 2.66956 10 3.2H14C14.1061 3.2 14.2078 3.24214 14.2828 3.31715C14.3579 3.39217 14.4 3.49391 14.4 3.6C14.4 3.70608 14.3579 3.80783 14.2828 3.88284C14.2078 3.95785 14.1061 4 14 4H13.1568L12.2016 12.2752C12.1341 12.8601 11.8539 13.3999 11.4143 13.7917C10.9747 14.1834 10.4064 14.4 9.81761 14.4H6.18241C5.59357 14.4 5.0253 14.1834 4.58572 13.7917C4.14613 13.3999 3.86593 12.8601 3.79841 12.2752L2.84321 4H2.00001C1.89392 4 1.79218 3.95785 1.71716 3.88284C1.64215 3.80783 1.60001 3.70608 1.60001 3.6C1.60001 3.49391 1.64215 3.39217 1.71716 3.31715C1.79218 3.24214 1.89392 3.2 2.00001 3.2H6.00001ZM4.59281 12.184C4.63795 12.5739 4.82484 12.9336 5.11794 13.1947C5.41104 13.4558 5.78988 13.6 6.18241 13.6H9.81761C10.2101 13.6 10.589 13.4558 10.8821 13.1947C11.1752 12.9336 11.3621 12.5739 11.4072 12.184L12.3512 4H3.64881L4.59281 12.184ZM6.80001 6C6.90609 6 7.00783 6.04214 7.08285 6.11715C7.15786 6.19217 7.20001 6.29391 7.20001 6.4V11.2C7.20001 11.3061 7.15786 11.4078 7.08285 11.4828C7.00783 11.5579 6.90609 11.6 6.80001 11.6C6.69392 11.6 6.59218 11.5579 6.51716 11.4828C6.44215 11.4078 6.40001 11.3061 6.40001 11.2V6.4C6.40001 6.29391 6.44215 6.19217 6.51716 6.11715C6.59218 6.04214 6.69392 6 6.80001 6ZM9.60001 6.4C9.60001 6.29391 9.55786 6.19217 9.48285 6.11715C9.40783 6.04214 9.30609 6 9.20001 6C9.09392 6 8.99218 6.04214 8.91716 6.11715C8.84215 6.19217 8.80001 6.29391 8.80001 6.4V11.2C8.80001 11.3061 8.84215 11.4078 8.91716 11.4828C8.99218 11.5579 9.09392 11.6 9.20001 11.6C9.30609 11.6 9.40783 11.5579 9.48285 11.4828C9.55786 11.4078 9.60001 11.3061 9.60001 11.2V6.4Z" fill="#008AA7"/>
</svg>
