<svg width="20" height="21" viewBox="0 0 20 21" fill="none" xmlns="http://www.w3.org/2000/svg">
<path d="M19.3438 11.9564C19.2945 11.9933 19.2385 12.0202 19.1788 12.0355C19.1192 12.0507 19.0571 12.0541 18.9962 12.0454C18.9353 12.0367 18.8766 12.0161 18.8237 11.9847C18.7707 11.9534 18.7244 11.9119 18.6875 11.8626C18.2958 11.3373 17.7865 10.9111 17.2004 10.618C16.6143 10.325 15.9678 10.1733 15.3125 10.1751C15.1882 10.1751 15.069 10.1257 14.981 10.0378C14.8931 9.94992 14.8438 9.8307 14.8438 9.70638C14.8438 9.58206 14.8931 9.46283 14.981 9.37492C15.069 9.28701 15.1882 9.23763 15.3125 9.23763C15.698 9.23813 16.0756 9.12894 16.4014 8.92282C16.7271 8.71669 16.9874 8.42213 17.152 8.07355C17.3166 7.72498 17.3786 7.33677 17.3307 6.95428C17.2829 6.57179 17.1272 6.21081 16.8818 5.9135C16.6365 5.61619 16.3116 5.39484 15.9451 5.27529C15.5787 5.15574 15.1858 5.14293 14.8123 5.23836C14.4388 5.33379 14.1002 5.53352 13.836 5.81422C13.5718 6.09492 13.393 6.445 13.3203 6.82356C13.2957 6.94644 13.2237 7.0547 13.1199 7.12489C13.0161 7.19507 12.8888 7.22154 12.7656 7.19856C12.7053 7.18737 12.6478 7.16424 12.5966 7.13054C12.5453 7.09684 12.5013 7.05325 12.4671 7.00231C12.4329 6.95138 12.4092 6.89413 12.3974 6.83392C12.3856 6.77371 12.386 6.71176 12.3984 6.65169C12.5392 5.92828 12.944 5.28309 13.5341 4.84161C14.1243 4.40013 14.8575 4.19393 15.5912 4.26312C16.3249 4.3323 17.0067 4.67192 17.5039 5.21592C18.0011 5.75992 18.2782 6.4694 18.2813 7.20638C18.2828 7.66175 18.1784 8.11124 17.9764 8.51935C17.7744 8.92746 17.4802 9.28302 17.1172 9.55794C18.0406 9.90614 18.8455 10.5105 19.4375 11.3001C19.5121 11.3996 19.5441 11.5246 19.5265 11.6477C19.509 11.7707 19.4432 11.8818 19.3438 11.9564V11.9564ZM14.9219 17.3158C14.9735 17.428 14.9796 17.5559 14.9388 17.6724C14.898 17.789 14.8135 17.8852 14.7031 17.9408C14.6396 17.9709 14.5703 17.9869 14.5 17.9876C14.4114 17.9894 14.3242 17.9653 14.2493 17.918C14.1743 17.8708 14.1148 17.8027 14.0781 17.722C13.7049 16.9584 13.1248 16.3148 12.4038 15.8647C11.6828 15.4146 10.85 15.1759 10 15.1759C9.15004 15.1759 8.31715 15.4146 7.59617 15.8647C6.87518 16.3148 6.29507 16.9584 5.92188 17.722C5.8679 17.8338 5.77178 17.9196 5.65461 17.9606C5.53744 18.0016 5.40879 17.9945 5.29688 17.9408C5.18652 17.8852 5.10203 17.789 5.06122 17.6724C5.02041 17.5559 5.02647 17.428 5.07813 17.3158C5.68539 16.0645 6.74719 15.0921 8.04688 14.597C7.39596 14.1756 6.89881 13.5549 6.62967 12.8277C6.36052 12.1005 6.33382 11.3057 6.55354 10.562C6.77326 9.81837 7.22762 9.16574 7.84878 8.70156C8.46993 8.23739 9.22457 7.98657 10 7.98657C10.7754 7.98657 11.5301 8.23739 12.1512 8.70156C12.7724 9.16574 13.2267 9.81837 13.4465 10.562C13.6662 11.3057 13.6395 12.1005 13.3703 12.8277C13.1012 13.5549 12.604 14.1756 11.9531 14.597C13.2528 15.0921 14.3146 16.0645 14.9219 17.3158V17.3158ZM10 14.2376C10.5254 14.2376 11.0389 14.0818 11.4757 13.79C11.9126 13.4981 12.253 13.0832 12.4541 12.5979C12.6551 12.1125 12.7077 11.5784 12.6052 11.0632C12.5027 10.5479 12.2497 10.0746 11.8783 9.70312C11.5068 9.33164 11.0335 9.07866 10.5182 8.97616C10.0029 8.87367 9.46886 8.92628 8.9835 9.12732C8.49813 9.32837 8.08328 9.66882 7.79141 10.1056C7.49954 10.5425 7.34375 11.056 7.34375 11.5814C7.34581 12.2852 7.62633 12.9597 8.12402 13.4574C8.62172 13.955 9.29615 14.2356 10 14.2376V14.2376ZM4.6875 9.23763C4.30203 9.23813 3.92437 9.12894 3.59864 8.92282C3.27291 8.71669 3.01256 8.42213 2.848 8.07355C2.68343 7.72498 2.62145 7.33677 2.66929 6.95428C2.71713 6.57179 2.87282 6.21081 3.11817 5.9135C3.36352 5.61619 3.6884 5.39484 4.05487 5.27529C4.42133 5.15574 4.81425 5.14293 5.18772 5.23836C5.56119 5.33379 5.8998 5.53352 6.16399 5.81422C6.42818 6.09492 6.60704 6.445 6.67969 6.82356C6.70427 6.94644 6.77626 7.0547 6.88008 7.12489C6.9839 7.19507 7.11118 7.22154 7.23438 7.19856C7.2947 7.18737 7.35217 7.16424 7.40344 7.13054C7.4547 7.09684 7.49873 7.05325 7.53293 7.00231C7.56712 6.95138 7.59081 6.89413 7.6026 6.83392C7.61438 6.77371 7.61403 6.71176 7.60156 6.65169C7.46079 5.92828 7.05598 5.28309 6.46586 4.84161C5.87574 4.40013 5.14251 4.19393 4.40879 4.26312C3.67506 4.3323 2.9933 4.67192 2.4961 5.21592C1.99891 5.75992 1.72182 6.4694 1.71875 7.20638C1.71723 7.66175 1.82161 8.11124 2.02363 8.51935C2.22565 8.92746 2.51979 9.28302 2.88281 9.55794C1.9594 9.90614 1.15447 10.5105 0.5625 11.3001C0.525566 11.3494 0.498693 11.4054 0.483415 11.465C0.468138 11.5247 0.464756 11.5867 0.473461 11.6477C0.482167 11.7086 0.50279 11.7672 0.534153 11.8202C0.565516 11.8732 0.607004 11.9194 0.65625 11.9564C0.705496 11.9933 0.761534 12.0202 0.821165 12.0355C0.880796 12.0507 0.942853 12.0541 1.00379 12.0454C1.06473 12.0367 1.12336 12.0161 1.17633 11.9847C1.22929 11.9534 1.27557 11.9119 1.3125 11.8626C1.70419 11.3373 2.21349 10.9111 2.79957 10.618C3.38566 10.325 4.03224 10.1733 4.6875 10.1751C4.81182 10.1751 4.93105 10.1257 5.01896 10.0378C5.10686 9.94992 5.15625 9.8307 5.15625 9.70638C5.15625 9.58206 5.10686 9.46283 5.01896 9.37492C4.93105 9.28701 4.81182 9.23763 4.6875 9.23763Z" fill="#008AA7"/>
</svg>
