<svg width="17" height="16" viewBox="0 0 17 16" fill="none" xmlns="http://www.w3.org/2000/svg">
<path d="M13.5 8.33335C13.5 7.41335 14.2466 6.66669 15.1666 6.66669V6.00002C15.1666 3.33335 14.5 2.66669 11.8333 2.66669H5.16665C2.49998 2.66669 1.83331 3.33335 1.83331 6.00002V6.33335C2.75331 6.33335 3.49998 7.08002 3.49998 8.00002C3.49998 8.92002 2.75331 9.66669 1.83331 9.66669V10C1.83331 12.6667 2.49998 13.3334 5.16665 13.3334H11.8333C14.5 13.3334 15.1666 12.6667 15.1666 10C14.2466 10 13.5 9.25335 13.5 8.33335Z" stroke="white" stroke-width="1.5" stroke-linecap="round" stroke-linejoin="round"/>
<path d="M7.16669 2.66669L7.16669 13.3334" stroke="white" stroke-width="1.5" stroke-linecap="round" stroke-linejoin="round" stroke-dasharray="5 5"/>
</svg>
