<svg width="17" height="16" viewBox="0 0 17 16" fill="none" xmlns="http://www.w3.org/2000/svg">
<path d="M15.1667 5.51331V2.81998C15.1667 1.75998 14.74 1.33331 13.68 1.33331H10.9867C9.92667 1.33331 9.5 1.75998 9.5 2.81998V5.51331C9.5 6.57331 9.92667 6.99998 10.9867 6.99998H13.68C14.74 6.99998 15.1667 6.57331 15.1667 5.51331Z" stroke="white" stroke-width="1.5" stroke-linecap="round" stroke-linejoin="round"/>
<path d="M7.50001 5.67998V2.65331C7.50001 1.71331 7.07334 1.33331 6.01334 1.33331H3.32001C2.26001 1.33331 1.83334 1.71331 1.83334 2.65331V5.67331C1.83334 6.61998 2.26001 6.99331 3.32001 6.99331H6.01334C7.07334 6.99998 7.50001 6.61998 7.50001 5.67998Z" stroke="white" stroke-width="1.5" stroke-linecap="round" stroke-linejoin="round"/>
<path d="M7.50001 13.18V10.4867C7.50001 9.42667 7.07334 9 6.01334 9H3.32001C2.26001 9 1.83334 9.42667 1.83334 10.4867V13.18C1.83334 14.24 2.26001 14.6667 3.32001 14.6667H6.01334C7.07334 14.6667 7.50001 14.24 7.50001 13.18Z" stroke="white" stroke-width="1.5" stroke-linecap="round" stroke-linejoin="round"/>
<path d="M10.1667 11.6667H14.1667" stroke="white" stroke-width="1.5" stroke-linecap="round"/>
<path d="M12.1667 13.6667V9.66669" stroke="white" stroke-width="1.5" stroke-linecap="round"/>
</svg>
