<svg width="20" height="21" viewBox="0 0 20 21" fill="none" xmlns="http://www.w3.org/2000/svg">
<g clip-path="url(#clip0_9179_116502)">
<path d="M13.75 7.21094C13.75 7.04518 13.8158 6.88621 13.9331 6.769C14.0503 6.65179 14.2092 6.58594 14.375 6.58594H16.875C17.0408 6.58594 17.1997 6.65179 17.3169 6.769C17.4342 6.88621 17.5 7.04518 17.5 7.21094V8.46094C17.5 8.6267 17.4342 8.78567 17.3169 8.90288C17.1997 9.02009 17.0408 9.08594 16.875 9.08594H14.375C14.2092 9.08594 14.0503 9.02009 13.9331 8.90288C13.8158 8.78567 13.75 8.6267 13.75 8.46094V7.21094Z" fill="#008AA7"/>
<path d="M2.5 2.83594C1.83696 2.83594 1.20107 3.09933 0.732233 3.56817C0.263392 4.03701 0 4.6729 0 5.33594L0 15.3359C0 15.999 0.263392 16.6349 0.732233 17.1037C1.20107 17.5725 1.83696 17.8359 2.5 17.8359H17.5C18.163 17.8359 18.7989 17.5725 19.2678 17.1037C19.7366 16.6349 20 15.999 20 15.3359V5.33594C20 4.6729 19.7366 4.03701 19.2678 3.56817C18.7989 3.09933 18.163 2.83594 17.5 2.83594H2.5ZM18.75 5.33594V11.5859H1.25V5.33594C1.25 5.00442 1.3817 4.68647 1.61612 4.45205C1.85054 4.21763 2.16848 4.08594 2.5 4.08594H17.5C17.8315 4.08594 18.1495 4.21763 18.3839 4.45205C18.6183 4.68647 18.75 5.00442 18.75 5.33594ZM17.5 16.5859H2.5C2.16848 16.5859 1.85054 16.4542 1.61612 16.2198C1.3817 15.9854 1.25 15.6675 1.25 15.3359V14.0859H18.75V15.3359C18.75 15.6675 18.6183 15.9854 18.3839 16.2198C18.1495 16.4542 17.8315 16.5859 17.5 16.5859Z" fill="#008AA7"/>
</g>
<defs>
<clipPath id="clip0_9179_116502">
<rect width="20" height="20" fill="white" transform="translate(0 0.335938)"/>
</clipPath>
</defs>
</svg>
