<svg width="19" height="20" viewBox="0 0 19 20" fill="none" xmlns="http://www.w3.org/2000/svg">
<path d="M9.49992 19.1693C7.94436 19.1693 6.51381 18.8151 5.20825 18.1068C3.9027 17.3984 2.83325 16.454 1.99992 15.2734V16.6693C1.99992 16.9054 1.9202 17.1032 1.76075 17.2626C1.60075 17.4226 1.4027 17.5026 1.16659 17.5026C0.930474 17.5026 0.732696 17.4226 0.573252 17.2626C0.413252 17.1032 0.333252 16.9054 0.333252 16.6693V13.3359C0.333252 13.0998 0.413252 12.9018 0.573252 12.7418C0.732696 12.5823 0.930474 12.5026 1.16659 12.5026H4.49992C4.73603 12.5026 4.93408 12.5823 5.09408 12.7418C5.25353 12.9018 5.33325 13.0998 5.33325 13.3359C5.33325 13.572 5.25353 13.7698 5.09408 13.9293C4.93408 14.0893 4.73603 14.1693 4.49992 14.1693H3.27075C3.93742 15.1693 4.81603 15.9748 5.90658 16.5859C6.99658 17.197 8.19436 17.5026 9.49992 17.5026C11.4444 17.5026 13.1216 16.8637 14.5316 15.5859C15.941 14.3082 16.7499 12.7248 16.9583 10.8359C16.986 10.5998 17.0799 10.4018 17.2399 10.2418C17.3994 10.0823 17.5971 10.0026 17.8333 10.0026C18.0694 10.0026 18.2671 10.0859 18.4266 10.2526C18.5866 10.4193 18.6527 10.6137 18.6249 10.8359C18.5277 12.0026 18.2188 13.0929 17.6982 14.1068C17.1771 15.1207 16.5105 16.0026 15.6982 16.7526C14.8855 17.5026 13.9477 18.0929 12.8849 18.5234C11.8227 18.954 10.6944 19.1693 9.49992 19.1693ZM1.16659 10.0026C0.930474 10.0026 0.732696 9.91927 0.573252 9.7526C0.413252 9.58594 0.347141 9.39149 0.374919 9.16927C0.48603 8.0026 0.79853 6.91233 1.31242 5.89844C1.82631 4.88455 2.48936 4.0026 3.30158 3.2526C4.11436 2.5026 5.05214 1.91233 6.11492 1.48177C7.17714 1.05122 8.30547 0.835938 9.49992 0.835938C11.0555 0.835938 12.486 1.1901 13.7916 1.89844C15.0971 2.60677 16.1666 3.55122 16.9999 4.73177V3.33594C16.9999 3.09983 17.0799 2.90177 17.2399 2.74177C17.3994 2.58233 17.5971 2.5026 17.8333 2.5026C18.0694 2.5026 18.2671 2.58233 18.4266 2.74177C18.5866 2.90177 18.6666 3.09983 18.6666 3.33594V6.66927C18.6666 6.90538 18.5866 7.10316 18.4266 7.2626C18.2671 7.4226 18.0694 7.5026 17.8333 7.5026H14.4999C14.2638 7.5026 14.066 7.4226 13.9066 7.2626C13.7466 7.10316 13.6666 6.90538 13.6666 6.66927C13.6666 6.43316 13.7466 6.2351 13.9066 6.0751C14.066 5.91566 14.2638 5.83594 14.4999 5.83594H15.7291C15.0624 4.83594 14.1838 4.03038 13.0933 3.41927C12.0033 2.80816 10.8055 2.5026 9.49992 2.5026C7.55547 2.5026 5.87853 3.14149 4.46908 4.41927C3.05908 5.69705 2.24992 7.28038 2.04159 9.16927C2.01381 9.40538 1.9202 9.60316 1.76075 9.7626C1.60075 9.9226 1.4027 10.0026 1.16659 10.0026ZM9.47908 15.8359C9.28464 15.8359 9.11464 15.7632 8.96908 15.6176C8.82297 15.4715 8.74992 15.3012 8.74992 15.1068V14.7526C8.22214 14.6415 7.77075 14.4365 7.39575 14.1376C7.02075 13.8393 6.72214 13.454 6.49992 12.9818C6.41658 12.8012 6.4202 12.6137 6.51075 12.4193C6.60075 12.2248 6.74297 12.0929 6.93742 12.0234C7.11797 11.954 7.29853 11.954 7.47908 12.0234C7.65964 12.0929 7.80547 12.2248 7.91658 12.4193C8.11103 12.7665 8.35408 13.0268 8.64575 13.2001C8.93742 13.374 9.26381 13.4609 9.62492 13.4609C10.0833 13.4609 10.4755 13.3532 10.8016 13.1376C11.1283 12.9226 11.2916 12.5859 11.2916 12.1276C11.2916 11.7248 11.1216 11.3984 10.7816 11.1484C10.441 10.8984 9.83325 10.6137 8.95825 10.2943C8.13881 10.0026 7.53825 9.65538 7.15658 9.2526C6.77436 8.84983 6.58325 8.32205 6.58325 7.66927C6.58325 7.09983 6.7777 6.58594 7.16658 6.1276C7.55547 5.66927 8.09714 5.36371 8.79158 5.21094V4.89844C8.79158 4.70399 8.86464 4.53372 9.01075 4.3876C9.15631 4.24205 9.32631 4.16927 9.52075 4.16927C9.7152 4.16927 9.8852 4.24205 10.0308 4.3876C10.1769 4.53372 10.2499 4.70399 10.2499 4.89844V5.21094C10.6249 5.23871 10.9758 5.36371 11.3024 5.58594C11.6285 5.80816 11.9027 6.07899 12.1249 6.39844C12.236 6.5651 12.2535 6.74899 12.1774 6.9501C12.1008 7.15177 11.9583 7.29427 11.7499 7.3776C11.5971 7.44705 11.4341 7.45066 11.2608 7.38844C11.0869 7.32566 10.9305 7.21094 10.7916 7.04427C10.6527 6.8776 10.4791 6.74566 10.2708 6.64844C10.0624 6.55121 9.81936 6.5026 9.54158 6.5026C9.05547 6.5026 8.68408 6.60677 8.42742 6.8151C8.1702 7.02344 8.04158 7.30816 8.04158 7.66927C8.04158 8.03038 8.20131 8.3151 8.52075 8.52344C8.8402 8.73177 9.41658 8.97483 10.2499 9.2526C11.2499 9.61372 11.9166 10.0373 12.2499 10.5234C12.5833 11.0095 12.7499 11.5443 12.7499 12.1276C12.7499 12.947 12.4999 13.5651 11.9999 13.9818C11.4999 14.3984 10.9027 14.6693 10.2083 14.7943V15.1068C10.2083 15.3012 10.1355 15.4715 9.98992 15.6176C9.84381 15.7632 9.67353 15.8359 9.47908 15.8359Z" fill="#008AA7"/>
</svg>
