<svg width="21" height="20" viewBox="0 0 21 20" fill="none" xmlns="http://www.w3.org/2000/svg">
<path d="M10.5 0C4.97733 0 0.5 4.47733 0.5 10C0.5 15.5227 4.97733 20 10.5 20C16.0227 20 20.5 15.5227 20.5 10C20.5 4.47733 16.0227 0 10.5 0ZM9.50533 15.2393H10.265L10.5 14.516L10.735 15.2393H11.4947L10.88 15.6863L11.1143 16.409L10.5 15.9623L9.88467 16.409L10.1197 15.6863L9.50533 15.2393ZM8.35467 15.5087L7.74 15.0617L7.12467 15.5087L7.35967 14.786L6.745 14.339H7.50467L7.73967 13.6157L7.97467 14.339H8.73433L8.119 14.786L8.35467 15.5087ZM6.454 13.608L5.83867 13.161L5.224 13.608L5.45867 12.8853L4.84333 12.4383H5.60333L5.83833 11.715L6.073 12.4383H6.833L6.21833 12.8853L6.454 13.608ZM3.94433 9.67033H4.70433L4.93933 8.94767L5.174 9.67033H5.934L5.31933 10.1173L5.55433 10.84L4.939 10.3933L4.32433 10.84L4.55833 10.1173L3.94433 9.67033ZM6.454 8.07233L5.83867 7.62567L5.224 8.07233L5.45867 7.34967L4.84333 6.90267H5.60333L5.83833 6.17933L6.073 6.90267H6.833L6.21833 7.34967L6.454 8.07233ZM8.35467 6.17167L7.74 5.725L7.12467 6.17167L7.35967 5.449L6.745 5.002H7.50467L7.73967 4.27867L7.97467 5.002H8.73433L8.11967 5.449L8.35467 6.17167ZM11.1153 5.27133L10.5 4.825L9.88533 5.27167L10.1203 4.549L9.505 4.102H10.2653L10.5 3.37933L10.735 4.102H11.4947L10.88 4.549L11.1153 5.27133ZM15.7757 8.07233L15.1603 7.62567L14.5457 8.07233L14.7807 7.34967L14.1653 6.90267H14.9253L15.16 6.17933L15.395 6.90267H16.155L15.5403 7.34967L15.7757 8.07233ZM15.7757 13.608L15.1603 13.161L14.5457 13.608L14.7807 12.8853L14.1653 12.4383H14.9253L15.16 11.715L15.395 12.4383H16.155L15.5403 12.8853L15.7757 13.608ZM13.64 5.449L13.8743 6.17167L13.2597 5.725L12.6443 6.17167L12.8793 5.449L12.2647 5.002H13.0243L13.2593 4.27867L13.4943 5.002H14.254L13.64 5.449ZM13.0247 14.3393L13.2597 13.616L13.4947 14.3393H14.2543L13.6397 14.7863L13.8747 15.509L13.2593 15.062L12.644 15.509L12.879 14.7863L12.2643 14.3393H13.0247ZM16.675 10.84L16.0603 10.3933L15.445 10.84L15.68 10.1173L15.0653 9.67033H15.8253L16.06 8.94767L16.2943 9.67033H17.055L16.4397 10.1173L16.675 10.84Z" fill="#008AA7"/>
</svg>
