<svg width="21" height="20" viewBox="0 0 21 20" fill="none" xmlns="http://www.w3.org/2000/svg">
<g clip-path="url(#clip0_5344_133131)">
<path fill-rule="evenodd" clip-rule="evenodd" d="M10.5017 0.000141115C15.0103 0.000141115 18.8197 2.99717 20.0545 7.11073H17.1981C16.0825 4.51239 13.5044 2.69266 10.5017 2.69266C6.54804 2.69266 3.33013 5.84701 3.21825 9.78041L3.16407 16.7596C1.52726 14.9798 0.5271 12.6032 0.5271 9.99216C0.5271 4.47362 4.99284 0 10.5017 0V0.000141115ZM4.63033 9.82891C4.76106 6.63705 7.49556 4.00332 10.5018 4.00332C13.5079 4.00332 15.6419 5.92328 16.2976 8.51796C17.6455 8.51796 19.0067 8.53164 20.3698 8.53164C20.4396 9.00842 20.4762 9.49606 20.4762 9.9923C20.4762 15.5108 16.0105 19.9845 10.5017 19.9845C9.8909 19.9845 9.29309 19.9292 8.71272 19.8239V17.0699C9.28507 17.2147 9.88443 17.2918 10.5017 17.2918C14.1 17.2918 17.0886 14.6791 17.6812 11.244H16.3491C15.7745 13.9508 13.3749 15.9814 10.5017 15.9814C9.25186 15.9814 8.09169 15.5971 7.1322 14.9402C7.1322 16.4473 7.2013 17.8819 7.2013 19.4238C6.29177 19.1045 5.44247 18.6569 4.67508 18.1027V17.0612L4.63018 9.82876L4.63033 9.82891ZM10.5018 6.7057C12.3138 6.7057 13.7828 8.17722 13.7828 9.99244C13.7828 11.8077 12.3138 13.2792 10.5018 13.2792C8.68979 13.2792 7.22086 11.8077 7.22086 9.99244C7.22086 8.17722 8.68979 6.7057 10.5018 6.7057Z" fill="#0188A5"/>
<path d="M10.5017 11.7743C11.4861 11.7743 12.2842 10.9749 12.2842 9.98874C12.2842 9.00257 11.4861 8.20312 10.5017 8.20312C9.51728 8.20312 8.71924 9.00257 8.71924 9.98874C8.71924 10.9749 9.51728 11.7743 10.5017 11.7743Z" fill="#FDAE09"/>
</g>
<defs>
<clipPath id="clip0_5344_133131">
<rect width="20" height="20" fill="white" transform="translate(0.5)"/>
</clipPath>
</defs>
</svg>
