<svg width="17" height="16" viewBox="0 0 17 16" fill="none" xmlns="http://www.w3.org/2000/svg">
<path d="M8.36103 0.109376C6.29823 0.109376 4.31993 0.928818 2.86131 2.38743C1.40269 3.84605 0.583252 5.82436 0.583252 7.88715C0.583252 8.13715 0.583252 8.3816 0.622141 8.62604C0.765302 10.1262 1.34118 11.5524 2.27976 12.7314C3.21835 13.9104 4.47921 14.7913 5.90909 15.2671C7.33897 15.7429 8.87627 15.793 10.3341 15.4115C11.792 15.0299 13.1076 14.233 14.121 13.1177C15.1345 12.0025 15.8021 10.6168 16.0427 9.12915C16.2834 7.64153 16.0867 6.11604 15.4765 4.73812C14.8664 3.3602 13.8691 2.1892 12.6059 1.36746C11.3427 0.54573 9.86799 0.108657 8.36103 0.109376ZM8.36103 1.22049C10.1177 1.22201 11.8027 1.91679 13.0499 3.15382V3.70938C10.8541 2.95372 8.46722 2.96351 6.2777 3.73715C6.10278 3.56671 5.88322 3.44922 5.64436 3.39826H5.50547C5.43881 3.16493 5.3777 2.9316 5.3277 2.69271C5.2777 2.45382 5.24992 2.24271 5.22214 2.01493C6.18658 1.49447 7.26512 1.22149 8.36103 1.22049ZM6.69436 4.4816C8.71196 3.80597 10.8986 3.83142 12.8999 4.55382C12.6292 5.96527 12.0381 7.29574 11.1721 8.44271C10.9299 8.34013 10.6618 8.31551 10.4049 8.37225C10.1481 8.429 9.91527 8.5643 9.73881 8.75938C9.54436 8.64826 9.34992 8.53715 9.18325 8.40938C8.06175 7.6611 7.12516 6.66752 6.44436 5.50382C6.5544 5.36738 6.63451 5.20933 6.67949 5.03992C6.72447 4.87051 6.73333 4.69354 6.70547 4.52049L6.69436 4.4816ZM4.47214 2.4816C4.47214 2.59826 4.50547 2.72049 4.5277 2.83715C4.5777 3.0816 4.64436 3.32049 4.71103 3.55938C4.49829 3.68535 4.32707 3.87084 4.21847 4.09295C4.10988 4.31507 4.06867 4.56412 4.09992 4.80938C3.22298 5.38204 2.43968 6.08663 1.7777 6.89827C1.91053 6.01924 2.21783 5.17567 2.68151 4.41717C3.1452 3.65867 3.7559 3.00057 4.4777 2.4816H4.47214ZM4.47214 11.2094C4.25527 11.2822 4.06145 11.4109 3.91025 11.5826C3.75905 11.7543 3.65584 11.9628 3.61103 12.1872H3.25547C2.35829 11.1171 1.8217 9.79114 1.72214 8.39827L1.78325 8.29271C2.47893 7.21401 3.3884 6.28942 4.45547 5.57604C4.61546 5.74313 4.81764 5.86386 5.04061 5.92548C5.26358 5.98709 5.49906 5.98728 5.72214 5.92604C6.46523 7.18179 7.48099 8.25451 8.69436 9.06493C8.92214 9.21493 9.15547 9.35382 9.38881 9.48715C9.37014 9.69964 9.4045 9.91344 9.48881 10.1094C8.47212 10.9167 7.29939 11.505 6.04436 11.8372C5.89882 11.5652 5.66134 11.3539 5.37435 11.2409C5.08735 11.128 4.76954 11.1207 4.4777 11.2205L4.47214 11.2094ZM8.36103 14.5427C7.23116 14.543 6.12 14.2542 5.13325 13.7038L5.28881 13.6705C5.50988 13.598 5.70743 13.4674 5.86085 13.2925C6.01427 13.1176 6.11794 12.9047 6.16103 12.676C7.58158 12.3138 8.90778 11.6507 10.0499 10.7316C10.3212 10.8902 10.6416 10.9427 10.9493 10.8791C11.2571 10.8155 11.5304 10.6403 11.7166 10.3872C12.5004 10.5909 13.3067 10.6954 14.1166 10.6983H14.411C13.8751 11.8508 13.0208 12.8261 11.9489 13.5092C10.877 14.1923 9.6321 14.5548 8.36103 14.5538V14.5427ZM11.9777 9.59827C11.9772 9.36542 11.9138 9.13702 11.7944 8.93715C12.7189 7.72945 13.3623 6.33064 13.6777 4.84271C13.9555 4.97234 14.2295 5.11678 14.4999 5.27604C15.1109 6.71988 15.1936 8.33288 14.7333 9.8316C13.8109 9.90292 12.8831 9.82982 11.9833 9.61493L11.9777 9.59827Z" fill="#008AA7"/>
</svg>
