<svg width="20" height="20" viewBox="0 0 20 20" fill="none" xmlns="http://www.w3.org/2000/svg">
<path d="M18.3435 9.45581C18.3807 9.74261 18.3999 10.0474 18.3999 10.3714C18.3999 12.2134 17.8419 13.4518 17.3079 14.221C17.097 14.5264 16.8513 14.8062 16.5759 15.055C16.4859 15.1356 16.3914 15.2109 16.2927 15.2806L16.2819 15.2878C16.1956 15.3417 16.1244 15.4167 16.0751 15.5057C16.0258 15.5948 15.9999 15.6948 15.9999 15.7966V17.8018C15.9999 17.9609 15.9367 18.1136 15.8242 18.2261C15.7116 18.3386 15.559 18.4018 15.3999 18.4018H13.7391C13.7022 18.4018 13.6668 18.3871 13.6407 18.361C13.6146 18.3349 13.5999 18.2995 13.5999 18.2626C13.5999 17.5222 12.9999 16.9222 12.2607 16.9222H10.1391C9.3999 16.9222 8.7999 17.5222 8.7999 18.2626C8.7999 18.2995 8.78524 18.3349 8.75913 18.361C8.73303 18.3871 8.69762 18.4018 8.6607 18.4018H6.9999C6.84077 18.4018 6.68816 18.3386 6.57564 18.2261C6.46312 18.1136 6.3999 17.9609 6.3999 17.8018V16.7818C6.39956 16.6561 6.35976 16.5337 6.28612 16.4319C6.21249 16.3301 6.10873 16.2539 5.9895 16.2142L5.9415 16.1914C5.84621 16.1446 5.75402 16.0917 5.6655 16.033C5.4015 15.8626 4.9851 15.5458 4.4271 14.9806C3.92379 14.4625 3.51845 13.8575 3.2307 13.195C3.0099 12.6886 2.5479 12.2434 1.9299 12.139C1.83791 12.1235 1.75436 12.0759 1.69399 12.0048C1.63361 11.9337 1.60029 11.8435 1.5999 11.7502V9.94181C1.5999 9.8595 1.62908 9.77986 1.68224 9.71702C1.73541 9.65419 1.80913 9.61223 1.8903 9.59861C2.5503 9.48701 3.0183 8.98181 3.2007 8.42501C3.3567 7.94741 3.6375 7.32101 4.1031 6.84941C4.49574 6.45787 4.93504 6.11611 5.4111 5.83181C5.60185 5.7171 5.79808 5.61177 5.9991 5.51621L6.0303 5.50181L6.0363 5.49941C6.14449 5.45303 6.23665 5.37586 6.3013 5.27749C6.36595 5.17913 6.40024 5.06392 6.3999 4.94621V2.42981C6.7035 2.69381 7.0575 2.97941 7.4391 3.23381C7.9599 3.58421 8.5803 3.91301 9.2175 4.03181C9.36481 3.63159 9.55811 3.24983 9.7935 2.89421C9.72032 2.88644 9.64712 2.87884 9.5739 2.87141C9.1479 2.82821 8.6355 2.59181 8.1063 2.23781C7.62983 1.91016 7.18221 1.54242 6.7683 1.13861C6.63879 1.01504 6.47621 0.931699 6.30027 0.898684C6.12434 0.86567 5.9426 0.884402 5.7771 0.95261C5.60726 1.01929 5.46139 1.1355 5.35846 1.28616C5.25553 1.43682 5.20028 1.61495 5.1999 1.79741V4.57421C4.48289 4.95326 3.82547 5.43561 3.2487 6.00581C2.5971 6.66581 2.2431 7.49381 2.0607 8.05181C1.9887 8.26541 1.8327 8.39141 1.6911 8.41541C1.33037 8.47609 1.00278 8.66256 0.766427 8.94175C0.530072 9.22094 0.400222 9.57481 0.399903 9.94061V11.749C0.399716 12.1262 0.533156 12.4913 0.776551 12.7796C1.01995 13.0678 1.35756 13.2604 1.7295 13.3234C1.8795 13.3474 2.0415 13.4698 2.1303 13.675C2.4771 14.4724 2.96583 15.2002 3.5727 15.823C4.1835 16.4422 4.6659 16.8154 5.0115 17.0398C5.0799 17.0842 5.1435 17.1226 5.1999 17.1562V17.8018C5.1999 18.0382 5.24646 18.2723 5.33692 18.4906C5.42738 18.709 5.55996 18.9075 5.72711 19.0746C5.89426 19.2417 6.09269 19.3743 6.31107 19.4648C6.52946 19.5553 6.76352 19.6018 6.9999 19.6018H8.6607C9.3999 19.6018 9.9999 19.0018 9.9999 18.2626C9.9999 18.1846 10.0623 18.1222 10.1391 18.1222H12.2607C12.3375 18.1222 12.3999 18.1846 12.3999 18.2626C12.3999 19.0018 12.9999 19.6018 13.7391 19.6018H15.3999C15.8773 19.6018 16.3351 19.4122 16.6727 19.0746C17.0103 18.737 17.1999 18.2792 17.1999 17.8018V16.099C17.6165 15.753 17.9839 15.3517 18.2919 14.9062C18.9579 13.9498 19.5999 12.475 19.5999 10.3714C19.5999 9.50021 19.4787 8.72021 19.2483 8.02301C19.0238 8.54516 18.7185 9.02868 18.3435 9.45581ZM18.1635 4.28021C18.5236 5.15051 18.5806 6.11658 18.3256 7.02323C18.0705 7.92988 17.5181 8.72449 16.7571 9.27941C16.2411 9.65381 15.5607 9.62741 14.9727 9.38381L11.3247 7.87301C10.7367 7.62941 10.2363 7.16741 10.1367 6.53861C9.98142 5.52523 10.2022 4.49005 10.7573 3.62816C11.3125 2.76626 12.1637 2.13719 13.1506 1.85948C14.1374 1.58177 15.1918 1.67462 16.115 2.12051C17.0381 2.56641 17.7663 3.33456 18.1623 4.28021H18.1635ZM16.0515 8.30981C16.4824 7.99607 16.822 7.57318 17.0352 7.08465C17.2485 6.59612 17.3277 6.0596 17.2648 5.53028C17.2018 5.00097 16.999 4.49799 16.6771 4.07308C16.3553 3.64818 15.926 3.3167 15.4335 3.11276C14.9411 2.90882 14.4031 2.83978 13.8751 2.91274C13.3471 2.9857 12.848 3.19803 12.4293 3.52789C12.0106 3.85774 11.6873 4.2932 11.4927 4.78946C11.2982 5.28572 11.2393 5.82486 11.3223 6.35141C11.3363 6.41949 11.3711 6.48154 11.4219 6.52901C11.4987 6.61061 11.6211 6.69701 11.7843 6.76421L15.4323 8.27621C15.5657 8.33381 15.7094 8.36361 15.8547 8.36381C15.9243 8.36657 15.9931 8.3477 16.0515 8.30981ZM6.0999 9.40181C6.3386 9.40181 6.56752 9.30699 6.7363 9.13821C6.90508 8.96942 6.9999 8.7405 6.9999 8.50181C6.9999 8.26311 6.90508 8.0342 6.7363 7.86541C6.56752 7.69663 6.3386 7.60181 6.0999 7.60181C5.86121 7.60181 5.63229 7.69663 5.46351 7.86541C5.29472 8.0342 5.1999 8.26311 5.1999 8.50181C5.1999 8.7405 5.29472 8.96942 5.46351 9.13821C5.63229 9.30699 5.86121 9.40181 6.0999 9.40181Z" fill="#008AA7"/>
</svg>
