<svg width="17" height="16" viewBox="0 0 17 16" fill="none" xmlns="http://www.w3.org/2000/svg">
<path d="M8.49998 11.3333V12.92C8.49998 14.1667 7.99998 14.6667 6.74665 14.6667H3.57998C2.33331 14.6667 1.83331 14.1667 1.83331 12.92V9.75333C1.83331 8.5 2.33331 8 3.57998 8H5.16665V9.58C5.16665 10.8333 5.66665 11.3333 6.91331 11.3333H8.49998Z" stroke="white" stroke-width="1.5" stroke-linecap="round" stroke-linejoin="round"/>
<path d="M11.8334 7.99999V9.57999C11.8334 10.8333 11.3334 11.3333 10.08 11.3333H6.91335C5.66669 11.3333 5.16669 10.8333 5.16669 9.57999V6.41332C5.16669 5.16666 5.66669 4.66666 6.91335 4.66666H8.50002V6.24666C8.50002 7.49999 9.00002 7.99999 10.2467 7.99999H11.8334Z" stroke="white" stroke-width="1.5" stroke-linecap="round" stroke-linejoin="round"/>
<path d="M15.1667 3.08001V6.24668C15.1667 7.50001 14.6667 8.00001 13.4133 8.00001H10.2467C9 8.00001 8.5 7.50001 8.5 6.24668V3.08001C8.5 1.83334 9 1.33334 10.2467 1.33334H13.4133C14.6667 1.33334 15.1667 1.83334 15.1667 3.08001Z" stroke="white" stroke-width="1.5" stroke-linecap="round" stroke-linejoin="round"/>
</svg>
