<svg width="23" height="22" viewBox="0 0 23 22" fill="none" xmlns="http://www.w3.org/2000/svg">
<path d="M13.2156 9.28011C12.3056 8.37041 11.0715 7.85938 9.78468 7.85938C8.4979 7.85938 7.26379 8.37041 6.35371 9.28011L2.92163 12.7111C2.01153 13.6212 1.50024 14.8555 1.50024 16.1426C1.50024 17.4297 2.01153 18.664 2.92163 19.5741C3.83172 20.4842 5.06608 20.9955 6.35315 20.9955C7.64022 20.9955 8.87458 20.4842 9.78468 19.5741L11.5002 17.8586" stroke="#008AA7" stroke-width="2" stroke-linecap="round" stroke-linejoin="round"/>
<path d="M9.78418 12.7154C10.6943 13.6251 11.9284 14.1361 13.2151 14.1361C14.5019 14.1361 15.736 13.6251 16.6461 12.7154L20.0782 9.28443C20.9883 8.37434 21.4996 7.13998 21.4996 5.85291C21.4996 4.56584 20.9883 3.33148 20.0782 2.42138C19.1681 1.51129 17.9337 1 16.6467 1C15.3596 1 14.1252 1.51129 13.2151 2.42138L11.4997 4.13687" stroke="#008AA7" stroke-width="2" stroke-linecap="round" stroke-linejoin="round"/>
</svg>
