<svg width="18" height="14" viewBox="0 0 18 14" fill="none" xmlns="http://www.w3.org/2000/svg">
<path d="M8.25 1.375V5.125C8.25 5.45652 8.09196 5.77446 7.81066 6.00888C7.52936 6.2433 7.14782 6.375 6.75 6.375H2.25C1.85218 6.375 1.47064 6.2433 1.18934 6.00888C0.908035 5.77446 0.75 5.45652 0.75 5.125V1.375C0.75 1.04348 0.908035 0.725537 1.18934 0.491116C1.47064 0.256696 1.85218 0.125 2.25 0.125H6.75C7.14782 0.125 7.52936 0.256696 7.81066 0.491116C8.09196 0.725537 8.25 1.04348 8.25 1.375ZM6.75 7.625H2.25C1.85218 7.625 1.47064 7.7567 1.18934 7.99112C0.908035 8.22554 0.75 8.54348 0.75 8.875V12.625C0.75 12.9565 0.908035 13.2745 1.18934 13.5089C1.47064 13.7433 1.85218 13.875 2.25 13.875H6.75C7.14782 13.875 7.52936 13.7433 7.81066 13.5089C8.09196 13.2745 8.25 12.9565 8.25 12.625V8.875C8.25 8.54348 8.09196 8.22554 7.81066 7.99112C7.52936 7.7567 7.14782 7.625 6.75 7.625ZM15.75 0.125H11.25C10.8522 0.125 10.4706 0.256696 10.1893 0.491116C9.90804 0.725537 9.75 1.04348 9.75 1.375V5.125C9.75 5.45652 9.90804 5.77446 10.1893 6.00888C10.4706 6.2433 10.8522 6.375 11.25 6.375H15.75C16.1478 6.375 16.5294 6.2433 16.8107 6.00888C17.092 5.77446 17.25 5.45652 17.25 5.125V1.375C17.25 1.04348 17.092 0.725537 16.8107 0.491116C16.5294 0.256696 16.1478 0.125 15.75 0.125ZM10.5 11.375C10.6989 11.375 10.8897 11.3092 11.0303 11.1919C11.171 11.0747 11.25 10.9158 11.25 10.75V8.25C11.25 8.08424 11.171 7.92527 11.0303 7.80806C10.8897 7.69085 10.6989 7.625 10.5 7.625C10.3011 7.625 10.1103 7.69085 9.96967 7.80806C9.82902 7.92527 9.75 8.08424 9.75 8.25V10.75C9.75 10.9158 9.82902 11.0747 9.96967 11.1919C10.1103 11.3092 10.3011 11.375 10.5 11.375ZM16.5 8.875H14.25V8.25C14.25 8.08424 14.171 7.92527 14.0303 7.80806C13.8897 7.69085 13.6989 7.625 13.5 7.625C13.3011 7.625 13.1103 7.69085 12.9697 7.80806C12.829 7.92527 12.75 8.08424 12.75 8.25V12.625H10.5C10.3011 12.625 10.1103 12.6908 9.96967 12.8081C9.82902 12.9253 9.75 13.0842 9.75 13.25C9.75 13.4158 9.82902 13.5747 9.96967 13.6919C10.1103 13.8092 10.3011 13.875 10.5 13.875H13.5C13.6989 13.875 13.8897 13.8092 14.0303 13.6919C14.171 13.5747 14.25 13.4158 14.25 13.25V10.125H16.5C16.6989 10.125 16.8897 10.0592 17.0303 9.94194C17.171 9.82473 17.25 9.66576 17.25 9.5C17.25 9.33424 17.171 9.17527 17.0303 9.05806C16.8897 8.94085 16.6989 8.875 16.5 8.875ZM16.5 11.375C16.3011 11.375 16.1103 11.4408 15.9697 11.5581C15.829 11.6753 15.75 11.8342 15.75 12V13.25C15.75 13.4158 15.829 13.5747 15.9697 13.6919C16.1103 13.8092 16.3011 13.875 16.5 13.875C16.6989 13.875 16.8897 13.8092 17.0303 13.6919C17.171 13.5747 17.25 13.4158 17.25 13.25V12C17.25 11.8342 17.171 11.6753 17.0303 11.5581C16.8897 11.4408 16.6989 11.375 16.5 11.375Z" fill="#008AA7"/>
</svg>
