<svg width="17" height="16" viewBox="0 0 17 16" fill="none" xmlns="http://www.w3.org/2000/svg">
<path d="M1.83334 6.00001V4.33334C1.83334 2.67334 3.17334 1.33334 4.83334 1.33334H6.50001" stroke="white" stroke-width="1.5" stroke-linecap="round" stroke-linejoin="round"/>
<path d="M10.5 1.33334H12.1667C13.8267 1.33334 15.1667 2.67334 15.1667 4.33334V6.00001" stroke="white" stroke-width="1.5" stroke-linecap="round" stroke-linejoin="round"/>
<path d="M15.1667 10.6667V11.6667C15.1667 13.3267 13.8267 14.6667 12.1667 14.6667H11.1667" stroke="white" stroke-width="1.5" stroke-linecap="round" stroke-linejoin="round"/>
<path d="M6.50001 14.6667H4.83334C3.17334 14.6667 1.83334 13.3267 1.83334 11.6667V10" stroke="white" stroke-width="1.5" stroke-linecap="round" stroke-linejoin="round"/>
<path d="M11.8333 6.33334V9.66668C11.8333 11 11.1667 11.6667 9.83332 11.6667H7.16666C5.83332 11.6667 5.16666 11 5.16666 9.66668V6.33334C5.16666 5.00001 5.83332 4.33334 7.16666 4.33334H9.83332C11.1667 4.33334 11.8333 5.00001 11.8333 6.33334Z" stroke="white" stroke-width="1.5" stroke-linecap="round" stroke-linejoin="round"/>
<path d="M13.1667 8H3.83334" stroke="white" stroke-width="1.5" stroke-linecap="round" stroke-linejoin="round"/>
</svg>
