<svg width="20" height="21" viewBox="0 0 20 21" fill="none" xmlns="http://www.w3.org/2000/svg">
<path d="M5.45234 5.50406C6.56185 4.57229 7.93145 4.0049 9.37484 3.87906V5.3099C9.37484 5.47566 9.44069 5.63463 9.5579 5.75184C9.67511 5.86905 9.83408 5.9349 9.99984 5.9349C10.1656 5.9349 10.3246 5.86905 10.4418 5.75184C10.559 5.63463 10.6248 5.47566 10.6248 5.3099V3.87906C12.3167 4.02933 13.8982 4.78237 15.0813 6.00099C16.2645 7.21961 16.9705 8.82271 17.0707 10.5182H15.6248C15.4591 10.5182 15.3001 10.5841 15.1829 10.7013C15.0657 10.8185 14.9998 10.9775 14.9998 11.1432C14.9998 11.309 15.0657 11.468 15.1829 11.5852C15.3001 11.7024 15.4591 11.7682 15.6248 11.7682H17.0365C16.8198 13.6949 15.8507 15.3082 14.3965 16.4916C14.2679 16.5963 14.1861 16.7479 14.1693 16.9129C14.1524 17.078 14.2017 17.2429 14.3065 17.3716C14.4113 17.5002 14.5628 17.5819 14.7279 17.5988C14.8929 17.6157 15.0579 17.5663 15.1865 17.4616C17.0415 15.9507 18.2448 13.7999 18.3282 11.2241C18.3337 11.181 18.3348 11.1374 18.3315 11.0941L18.3332 10.9349C18.3332 6.3324 14.6023 2.60156 9.99984 2.60156C5.39734 2.60156 1.6665 6.3324 1.6665 10.9349C1.6665 13.6449 2.93567 15.8966 4.80817 17.4566C4.93599 17.558 5.09839 17.6054 5.2607 17.5887C5.423 17.5719 5.57233 17.4924 5.67679 17.3671C5.78124 17.2417 5.83254 17.0805 5.81971 16.9178C5.80689 16.7552 5.73097 16.604 5.60817 16.4966C4.18317 15.3082 3.189 13.6907 2.96484 11.7682H4.37484C4.5406 11.7682 4.69957 11.7024 4.81678 11.5852C4.93399 11.468 4.99984 11.309 4.99984 11.1432C4.99984 10.9775 4.93399 10.8185 4.81678 10.7013C4.69957 10.5841 4.5406 10.5182 4.37484 10.5182H2.92817C3.01984 8.9499 3.62067 7.51823 4.569 6.3874L5.59984 7.41823C5.71832 7.52863 5.87502 7.58873 6.03694 7.58588C6.19886 7.58302 6.35334 7.51743 6.46786 7.40291C6.58237 7.2884 6.64796 7.13392 6.65082 6.972C6.65367 6.81008 6.59357 6.65337 6.48317 6.5349L5.45234 5.50406ZM13.9665 6.46323C13.8696 6.38865 13.7503 6.34925 13.6281 6.35152C13.5058 6.35379 13.388 6.3976 13.294 6.47573L13.1123 6.62823C12.4571 7.17847 11.8041 7.73125 11.1532 8.28656C10.6065 8.75323 10.0473 9.23656 9.60067 9.63073C9.40727 9.8007 9.21586 9.97293 9.0265 10.1474C8.90291 10.2581 8.78603 10.3761 8.6765 10.5007C8.54726 10.6598 8.45128 10.8433 8.39428 11.0402C8.33727 11.2371 8.32039 11.4434 8.34464 11.647C8.36889 11.8506 8.43377 12.0472 8.53544 12.2252C8.63711 12.4032 8.7735 12.5589 8.9365 12.6832C9.26849 12.9392 9.68714 13.0557 10.1036 13.0081C10.5201 12.9605 10.9017 12.7525 11.1673 12.4282C11.2407 12.3382 11.3382 12.1816 11.4382 12.0141C11.5448 11.8349 11.6757 11.6057 11.8207 11.3491C12.1098 10.8324 12.4607 10.1891 12.7998 9.56156C13.2026 8.81404 13.6024 8.06487 13.999 7.31406L14.1082 7.10656C14.1643 6.99985 14.1808 6.87674 14.1549 6.75901C14.129 6.64128 14.0622 6.5365 13.9665 6.46323Z" fill="#008AA7"/>
</svg>
