<svg width="17" height="16" viewBox="0 0 17 16" fill="none" xmlns="http://www.w3.org/2000/svg">
<path fill-rule="evenodd" clip-rule="evenodd" d="M10.9772 11.3158H6.16388C5.88788 11.3158 5.66388 11.0918 5.66388 10.8158C5.66388 10.5398 5.88788 10.3158 6.16388 10.3158H10.9772C11.2532 10.3158 11.4772 10.5398 11.4772 10.8158C11.4772 11.0918 11.2532 11.3158 10.9772 11.3158Z" fill="white"/>
<path fill-rule="evenodd" clip-rule="evenodd" d="M10.9772 8.52478H6.16388C5.88788 8.52478 5.66388 8.30078 5.66388 8.02478C5.66388 7.74878 5.88788 7.52478 6.16388 7.52478H10.9772C11.2532 7.52478 11.4772 7.74878 11.4772 8.02478C11.4772 8.30078 11.2532 8.52478 10.9772 8.52478Z" fill="white"/>
<path fill-rule="evenodd" clip-rule="evenodd" d="M8.00036 5.74036H6.1637C5.8877 5.74036 5.6637 5.51636 5.6637 5.24036C5.6637 4.96436 5.8877 4.74036 6.1637 4.74036H8.00036C8.27636 4.74036 8.50036 4.96436 8.50036 5.24036C8.50036 5.51636 8.27636 5.74036 8.00036 5.74036Z" fill="white"/>
<mask id="mask0_3781_89338" style="mask-type:alpha" maskUnits="userSpaceOnUse" x="2" y="1" width="13" height="14">
<path fill-rule="evenodd" clip-rule="evenodd" d="M2.5 1.3335H14.6098V14.6067H2.5V1.3335Z" fill="white"/>
</mask>
<g mask="url(#mask0_3781_89338)">
<path fill-rule="evenodd" clip-rule="evenodd" d="M11.1058 2.33337L5.97982 2.33604C4.42782 2.34537 3.49982 3.30537 3.49982 4.90471V11.0354C3.49982 12.6454 4.43648 13.6067 6.00382 13.6067L11.1298 13.6047C12.6818 13.5954 13.6098 12.634 13.6098 11.0354V4.90471C13.6098 3.29471 12.6738 2.33337 11.1058 2.33337ZM6.00448 14.6067C3.90848 14.6067 2.49982 13.1714 2.49982 11.0354V4.90471C2.49982 2.74937 3.86448 1.34871 5.97648 1.33604L11.1052 1.33337H11.1058C13.2018 1.33337 14.6098 2.76871 14.6098 4.90471V11.0354C14.6098 13.19 13.2452 14.5914 11.1332 14.6047L6.00448 14.6067Z" fill="white"/>
</g>
</svg>
