<svg width="21" height="14" viewBox="0 0 21 14" fill="none" xmlns="http://www.w3.org/2000/svg">
<path d="M10.5 9.5C11.163 9.5 11.7989 9.23661 12.2678 8.76777C12.7366 8.29893 13 7.66304 13 7C13 6.33696 12.7366 5.70107 12.2678 5.23223C11.7989 4.76339 11.163 4.5 10.5 4.5C9.83696 4.5 9.20107 4.76339 8.73223 5.23223C8.26339 5.70107 8 6.33696 8 7C8 7.66304 8.26339 8.29893 8.73223 8.76777C9.20107 9.23661 9.83696 9.5 10.5 9.5Z" fill="#008AA7"/>
<path d="M0.5 2C0.5 1.66848 0.631696 1.35054 0.866117 1.11612C1.10054 0.881696 1.41848 0.75 1.75 0.75H19.25C19.5815 0.75 19.8995 0.881696 20.1339 1.11612C20.3683 1.35054 20.5 1.66848 20.5 2V12C20.5 12.3315 20.3683 12.6495 20.1339 12.8839C19.8995 13.1183 19.5815 13.25 19.25 13.25H1.75C1.41848 13.25 1.10054 13.1183 0.866117 12.8839C0.631696 12.6495 0.5 12.3315 0.5 12V2ZM4.25 2C4.25 2.66304 3.98661 3.29893 3.51777 3.76777C3.04893 4.23661 2.41304 4.5 1.75 4.5V9.5C2.41304 9.5 3.04893 9.76339 3.51777 10.2322C3.98661 10.7011 4.25 11.337 4.25 12H16.75C16.75 11.337 17.0134 10.7011 17.4822 10.2322C17.9511 9.76339 18.587 9.5 19.25 9.5V4.5C18.587 4.5 17.9511 4.23661 17.4822 3.76777C17.0134 3.29893 16.75 2.66304 16.75 2H4.25Z" fill="#008AA7"/>
</svg>
