<svg width="17" height="14" viewBox="0 0 17 14" fill="none" xmlns="http://www.w3.org/2000/svg">
<path d="M2.04175 0.335938C1.54447 0.335938 1.06755 0.533482 0.715923 0.885112C0.364292 1.23674 0.166748 1.71366 0.166748 2.21094V4.29427C0.166748 4.79155 0.364292 5.26846 0.715923 5.62009C1.06755 5.97173 1.54447 6.16927 2.04175 6.16927H4.12508C4.62236 6.16927 5.09928 5.97173 5.45091 5.62009C5.80254 5.26846 6.00008 4.79155 6.00008 4.29427V2.21094C6.00008 1.71366 5.80254 1.23674 5.45091 0.885112C5.09928 0.533482 4.62236 0.335938 4.12508 0.335938H2.04175ZM1.41675 2.21094C1.41675 2.04518 1.4826 1.88621 1.59981 1.769C1.71702 1.65179 1.87599 1.58594 2.04175 1.58594H4.12508C4.29084 1.58594 4.44981 1.65179 4.56702 1.769C4.68423 1.88621 4.75008 2.04518 4.75008 2.21094V4.29427C4.75008 4.46003 4.68423 4.619 4.56702 4.73621C4.44981 4.85342 4.29084 4.91927 4.12508 4.91927H2.04175C1.87599 4.91927 1.71702 4.85342 1.59981 4.73621C1.4826 4.619 1.41675 4.46003 1.41675 4.29427V2.21094ZM7.87508 1.16927C7.70932 1.16927 7.55035 1.23512 7.43314 1.35233C7.31593 1.46954 7.25008 1.62851 7.25008 1.79427C7.25008 1.96003 7.31593 2.119 7.43314 2.23621C7.55035 2.35342 7.70932 2.41927 7.87508 2.41927H16.2084C16.3742 2.41927 16.5331 2.35342 16.6504 2.23621C16.7676 2.119 16.8334 1.96003 16.8334 1.79427C16.8334 1.62851 16.7676 1.46954 16.6504 1.35233C16.5331 1.23512 16.3742 1.16927 16.2084 1.16927H7.87508ZM7.87508 3.66927C7.70932 3.66927 7.55035 3.73512 7.43314 3.85233C7.31593 3.96954 7.25008 4.12851 7.25008 4.29427C7.25008 4.46003 7.31593 4.619 7.43314 4.73621C7.55035 4.85342 7.70932 4.91927 7.87508 4.91927H13.7084C13.8742 4.91927 14.0331 4.85342 14.1504 4.73621C14.2676 4.619 14.3334 4.46003 14.3334 4.29427C14.3334 4.12851 14.2676 3.96954 14.1504 3.85233C14.0331 3.73512 13.8742 3.66927 13.7084 3.66927H7.87508ZM2.04175 7.83594C1.54447 7.83594 1.06755 8.03348 0.715923 8.38511C0.364292 8.73674 0.166748 9.21365 0.166748 9.71094V11.7943C0.166748 12.0405 0.215246 12.2843 0.309474 12.5118C0.403702 12.7393 0.541813 12.946 0.715923 13.1201C0.890033 13.2942 1.09673 13.4323 1.32422 13.5265C1.5517 13.6208 1.79552 13.6693 2.04175 13.6693H4.12508C4.37131 13.6693 4.61513 13.6208 4.84261 13.5265C5.0701 13.4323 5.2768 13.2942 5.45091 13.1201C5.62502 12.946 5.76313 12.7393 5.85736 12.5118C5.95158 12.2843 6.00008 12.0405 6.00008 11.7943V9.71094C6.00008 9.21365 5.80254 8.73674 5.45091 8.38511C5.09928 8.03348 4.62236 7.83594 4.12508 7.83594H2.04175ZM1.41675 9.71094C1.41675 9.54517 1.4826 9.3862 1.59981 9.26899C1.71702 9.15178 1.87599 9.08594 2.04175 9.08594H4.12508C4.29084 9.08594 4.44981 9.15178 4.56702 9.26899C4.68423 9.3862 4.75008 9.54517 4.75008 9.71094V11.7943C4.75008 11.96 4.68423 12.119 4.56702 12.2362C4.44981 12.3534 4.29084 12.4193 4.12508 12.4193H2.04175C1.87599 12.4193 1.71702 12.3534 1.59981 12.2362C1.4826 12.119 1.41675 11.96 1.41675 11.7943V9.71094ZM7.87508 8.66927C7.70932 8.66927 7.55035 8.73512 7.43314 8.85233C7.31593 8.96954 7.25008 9.12851 7.25008 9.29427C7.25008 9.46003 7.31593 9.619 7.43314 9.73621C7.55035 9.85342 7.70932 9.91927 7.87508 9.91927H16.2084C16.3742 9.91927 16.5331 9.85342 16.6504 9.73621C16.7676 9.619 16.8334 9.46003 16.8334 9.29427C16.8334 9.12851 16.7676 8.96954 16.6504 8.85233C16.5331 8.73512 16.3742 8.66927 16.2084 8.66927H7.87508ZM7.87508 11.1693C7.70932 11.1693 7.55035 11.2351 7.43314 11.3523C7.31593 11.4695 7.25008 11.6285 7.25008 11.7943C7.25008 11.96 7.31593 12.119 7.43314 12.2362C7.55035 12.3534 7.70932 12.4193 7.87508 12.4193H13.7084C13.8742 12.4193 14.0331 12.3534 14.1504 12.2362C14.2676 12.119 14.3334 11.96 14.3334 11.7943C14.3334 11.6285 14.2676 11.4695 14.1504 11.3523C14.0331 11.2351 13.8742 11.1693 13.7084 11.1693H7.87508Z" fill="#008AA7"/>
</svg>
