<svg width="17" height="16" viewBox="0 0 17 16" fill="none" xmlns="http://www.w3.org/2000/svg">
<path d="M6.50001 14.6666H10.5C13.8333 14.6666 15.1667 13.3333 15.1667 9.99998V5.99998C15.1667 2.66665 13.8333 1.33331 10.5 1.33331H6.50001C3.16668 1.33331 1.83334 2.66665 1.83334 5.99998V9.99998C1.83334 13.3333 3.16668 14.6666 6.50001 14.6666Z" stroke="white" stroke-width="1.5" stroke-linecap="round" stroke-linejoin="round"/>
<path d="M5.83334 12.6666H11.1667C12.5 12.6666 13.1667 12 13.1667 10.6666V5.33331C13.1667 3.99998 12.5 3.33331 11.1667 3.33331H5.83334C4.50001 3.33331 3.83334 3.99998 3.83334 5.33331V10.6666C3.83334 12 4.50001 12.6666 5.83334 12.6666Z" stroke="white" stroke-width="1.5" stroke-linecap="round" stroke-linejoin="round"/>
<path d="M3.83334 6.33331H5.48667C6.40667 6.33331 7.15334 7.07998 7.15334 7.99998C7.15334 8.91998 6.40667 9.66665 5.48667 9.66665H3.83334" stroke="white" stroke-width="1.5" stroke-linecap="round" stroke-linejoin="round"/>
<path d="M13.1667 6.65997H11.1667" stroke="white" stroke-width="1.5" stroke-linecap="round" stroke-linejoin="round"/>
<path d="M13.1667 9.33331H11.1667" stroke="white" stroke-width="1.5" stroke-linecap="round" stroke-linejoin="round"/>
<path d="M5.30014 8H5.36681" stroke="white" stroke-width="2" stroke-miterlimit="10" stroke-linecap="round" stroke-linejoin="round"/>
</svg>
