<svg width="60" height="60" viewBox="0 0 60 60" fill="none" xmlns="http://www.w3.org/2000/svg">
<path fill-rule="evenodd" clip-rule="evenodd" d="M29.947 0.000423673C43.4835 0.000423673 54.9205 8.9985 58.6277 21.3488H50.0519C46.7026 13.5477 38.9622 8.08426 29.947 8.08426C18.0769 8.08426 8.41564 17.5547 8.07974 29.3641L7.91708 50.3179C3.00281 44.9743 0 37.839 0 29.9998C0 13.4313 13.4077 0 29.947 0V0.000423673ZM12.3193 29.5097C12.7118 19.9266 20.9216 12.0193 29.9474 12.0193C38.9727 12.0193 45.3797 17.7837 47.3482 25.5738C51.3951 25.5738 55.4821 25.6148 59.5745 25.6148C59.7841 27.0463 59.894 28.5103 59.894 30.0002C59.894 46.5687 46.4863 60 29.947 60C28.1133 60 26.3184 59.8341 24.576 59.5179V51.2495C26.2943 51.6842 28.0938 51.9157 29.947 51.9157C40.7503 51.9157 49.7232 44.0715 51.5024 33.7583H47.5029C45.7778 41.8849 38.5735 47.9815 29.947 47.9815C26.1946 47.9815 22.7114 46.8277 19.8307 44.8554C19.8307 49.3804 20.0382 53.6875 20.0382 58.3167C17.3075 57.358 14.7576 56.0142 12.4536 54.3503V51.2233L12.3188 29.5092L12.3193 29.5097ZM29.9474 20.1328C35.3877 20.1328 39.7979 24.5507 39.7979 30.0006C39.7979 35.4505 35.3877 39.8685 29.9474 39.8685C24.5071 39.8685 20.0969 35.4505 20.0969 30.0006C20.0969 24.5507 24.5071 20.1328 29.9474 20.1328Z" fill="#0188A5"/>
<path d="M29.9473 35.3626C32.9028 35.3626 35.2988 32.9624 35.2988 30.0016C35.2988 27.0408 32.9028 24.6406 29.9473 24.6406C26.9917 24.6406 24.5957 27.0408 24.5957 30.0016C24.5957 32.9624 26.9917 35.3626 29.9473 35.3626Z" fill="#EBD75C"/>
</svg>
