<svg width="71" height="41" viewBox="0 0 71 41" fill="none" xmlns="http://www.w3.org/2000/svg">
<g clip-path="url(#clip0_6421_141403)">
<rect x="0.355469" y="1.20312" width="33.6722" height="39.4833" rx="4" fill="url(#paint0_linear_6421_141403)"/>
<path fill-rule="evenodd" clip-rule="evenodd" d="M34.7294 27.3857L27.8594 21.109L34.7582 14.8323L34.1956 14.3189L27.1309 20.746L23.3153 20.746L23.3286 14.9386L23.3303 14.2127L23.367 -1.75781L22.5707 -1.75781L22.534 14.2127L11.3866 14.2127L11.4233 -1.75781L10.627 -1.75781L10.5903 14.2127L10.5887 14.9386L10.5753 20.746L6.75891 20.746L-0.275818 14.3189L-0.840114 14.8323L6.03015 21.109L-0.868953 27.3857L-0.307015 27.8991L6.75724 21.472L10.5737 21.472L10.5603 27.2794L10.5586 28.0053L10.522 43.9758L11.3182 43.9758L11.3549 28.0053L22.5024 28.0053L22.4657 43.9758L23.2619 43.9758L23.2994 27.6424C23.2999 27.4419 23.1221 27.2794 22.9021 27.2794L11.3566 27.2794L11.3707 21.109L11.3849 14.9386L22.5324 14.9386L22.5182 21.109C22.5177 21.3095 22.6956 21.472 22.9155 21.472L27.1292 21.472L34.1644 27.8991L34.7294 27.3857Z" fill="#47453F"/>
</g>
<rect x="0.355469" y="1.20312" width="33.6722" height="39.4833" rx="4" stroke="#47453F" stroke-width="0.6"/>
<path d="M66.2905 30.723C65.9642 30.6367 65.6428 30.287 65.5855 29.9545C65.5483 29.738 65.6098 29.5882 65.9817 28.9903C67.4858 26.5748 68.1846 24.3481 68.2881 21.6416C68.3881 19.026 67.9236 16.988 66.6663 14.5418C66.397 14.0168 66.1782 13.5293 66.1809 13.459C66.1908 13.1995 66.4504 12.8244 66.7207 12.6782C67.0917 12.4777 67.6999 12.5188 67.9826 12.7631C68.0906 12.857 68.3662 13.2827 68.5939 13.7087C69.4948 15.3959 70.0859 17.2449 70.3394 19.1676C70.4963 20.3575 70.4504 22.6108 70.2466 23.6983C69.8728 25.7044 69.2063 27.4927 68.1831 29.2427C67.564 30.3005 67.1854 30.735 66.8805 30.7335C66.8195 30.7331 66.7204 30.7461 66.6601 30.7622C66.5985 30.7781 66.4318 30.7606 66.2905 30.723ZM62.4294 28.8786C61.9297 28.7455 61.5862 28.1934 61.7473 27.7819C61.7861 27.6823 62.0424 27.2238 62.3156 26.763C63.4711 24.8121 64.0014 22.717 63.8596 20.6567C63.7439 18.9638 63.4422 17.8948 62.6405 16.329C62.1032 15.2785 62.0822 15.116 62.4343 14.696C62.7701 14.2966 63.5691 14.2357 63.9751 14.5787C64.2567 14.8164 65.0944 16.4934 65.4071 17.4424C66.4406 20.5828 66.1356 23.9467 64.5403 27.0181C63.7237 28.5915 63.1731 29.0763 62.4294 28.8786ZM58.4473 27.0079C58.1395 26.8813 57.8821 26.5869 57.8208 26.2912C57.7822 26.1111 57.8677 25.9124 58.2629 25.2486C59.7185 22.81 59.8228 20.4544 58.5831 18.0588C58.0381 17.0065 58.0331 16.7977 58.5432 16.3865C58.7962 16.1836 58.9001 16.148 59.2438 16.1498C59.8185 16.1528 60.1058 16.4105 60.5838 17.3491C61.3188 18.7927 61.5941 20.0431 61.5304 21.643C61.4649 23.2876 61.1195 24.4149 60.2182 25.9284C59.7011 26.795 59.4537 27.0233 58.9675 27.0796C58.8189 27.0968 58.5853 27.0645 58.4473 27.0079ZM54.7316 25.2652C54.4873 25.1731 54.2172 24.8729 54.1428 24.6128C54.0605 24.3221 54.1458 24.0921 54.5375 23.5522C55.0416 22.8577 55.1675 22.4843 55.2023 21.5735C55.2371 20.6627 55.1398 20.288 54.689 19.5886C54.5359 19.3515 54.3846 19.0675 54.3511 18.9577C54.2156 18.4974 54.6678 17.9368 55.2514 17.8434C55.7462 17.7641 56.0761 17.9604 56.5036 18.5882C57.7421 20.4059 57.6496 22.8251 56.2733 24.6139C55.7873 25.245 55.2637 25.4662 54.7316 25.2652Z" fill="black"/>
<defs>
<linearGradient id="paint0_linear_6421_141403" x1="0.627018" y1="1.20313" x2="48.594" y2="50.3023" gradientUnits="userSpaceOnUse">
<stop stop-color="#F8ECC1"/>
<stop offset="1" stop-color="#C8AC48"/>
</linearGradient>
<clipPath id="clip0_6421_141403">
<rect x="0.355469" y="1.20312" width="33.6722" height="39.4833" rx="4" fill="white"/>
</clipPath>
</defs>
</svg>
