<svg width="72" height="49" viewBox="0 0 72 49" fill="none" xmlns="http://www.w3.org/2000/svg">
<path d="M69.0368 47.7454L69.0331 47.8709H69.1636C69.192 47.8709 69.2168 47.8641 69.2351 47.8549C69.2522 47.8447 69.2617 47.8276 69.2623 47.807C69.2629 47.7865 69.2543 47.7717 69.2378 47.7614C69.2201 47.7511 69.1957 47.7454 69.1673 47.7454H69.0368ZM69.1711 47.6587C69.2383 47.6587 69.2895 47.6724 69.3262 47.6987C69.3616 47.7249 69.3786 47.7614 69.3773 47.807C69.3762 47.8458 69.361 47.8778 69.3306 47.9028C69.3015 47.9268 69.2597 47.9428 69.2052 47.9496L69.372 48.1241H69.2376L69.0825 47.9507H69.0308L69.0258 48.1241H68.9134L68.9269 47.6587H69.1711ZM69.1179 48.2861C69.1799 48.2861 69.2371 48.2747 69.2907 48.2542C69.3442 48.2337 69.3915 48.2063 69.4326 48.1709C69.4737 48.1356 69.5059 48.0945 69.5305 48.0454C69.5539 47.9987 69.5682 47.9485 69.5698 47.8937C69.5714 47.839 69.56 47.7876 69.5394 47.7409C69.5175 47.6941 69.4877 47.6519 69.4487 47.6165C69.4097 47.5812 69.364 47.5538 69.3116 47.5332C69.2593 47.5139 69.2027 47.5036 69.1407 47.5036C69.0787 47.5036 69.0203 47.5139 68.9655 47.5332C68.9106 47.5538 68.862 47.5812 68.821 47.6165C68.7799 47.6519 68.7477 47.6941 68.7243 47.7409C68.6997 47.7876 68.6866 47.839 68.685 47.8937C68.6834 47.9485 68.6936 47.9987 68.7155 48.0454C68.736 48.0945 68.7658 48.1356 68.8048 48.1709C68.8438 48.2063 68.8908 48.2337 68.9445 48.2542C68.9981 48.2747 69.0559 48.2861 69.1179 48.2861ZM69.144 47.3907C69.2254 47.3907 69.2986 47.4043 69.3689 47.4306C69.4379 47.4568 69.4975 47.4933 69.5492 47.539C69.6008 47.5834 69.6406 47.6371 69.6685 47.6987C69.6965 47.7591 69.7101 47.8241 69.708 47.8937C69.706 47.9622 69.6886 48.0283 69.6572 48.0888C69.6257 48.1492 69.5828 48.2017 69.5285 48.2485C69.4742 48.293 69.4125 48.3295 69.342 48.3557C69.2702 48.382 69.1961 48.3956 69.1147 48.3956C69.0321 48.3956 68.9576 48.382 68.8873 48.3557C68.817 48.3295 68.7561 48.293 68.7057 48.2485C68.6541 48.2017 68.6156 48.1492 68.5863 48.0888C68.5584 48.0283 68.5448 47.9622 68.5468 47.8937C68.5488 47.8241 68.5662 47.7591 68.5977 47.6987C68.6305 47.6371 68.6721 47.5834 68.7264 47.539C68.7794 47.4933 68.8424 47.4568 68.9142 47.4306C68.986 47.4043 69.0613 47.3907 69.144 47.3907ZM15.8016 45.5963C15.8274 44.7077 16.5074 43.9776 17.5847 43.9776C18.6142 43.9776 19.2888 44.6769 19.262 45.5963C19.2353 46.5157 18.52 47.215 17.4905 47.215C16.4132 47.215 15.7757 46.4849 15.8016 45.5963ZM20.4349 45.5963L20.5084 43.0696H19.2632L19.2454 43.6833C18.8646 43.2281 18.2736 42.9418 17.4599 42.9418C15.8556 42.9418 14.5651 44.0529 14.5202 45.5963C14.4753 47.1408 15.7011 48.2508 17.3053 48.2508C18.1191 48.2508 18.7268 47.9644 19.134 47.5093L19.1161 48.123H20.3613L20.4349 45.5963ZM62.4872 45.5963C62.513 44.7077 63.1931 43.9776 64.2703 43.9776C65.3011 43.9776 65.9744 44.6769 65.9476 45.5963C65.9209 46.5157 65.2069 47.215 64.1761 47.215C63.0988 47.215 62.4613 46.4849 62.4872 45.5963ZM67.1218 45.5963L67.2544 41.0391H66.0079L65.931 43.6833C65.5503 43.2281 64.9592 42.9418 64.1455 42.9418C62.5399 42.9418 61.2495 44.0529 61.2045 45.5963C61.1596 47.1408 62.3854 48.2508 63.991 48.2508C64.8047 48.2508 65.4124 47.9644 65.8196 47.5093L65.8017 48.123H67.0482L67.1218 45.5963ZM35.9295 43.9262C36.7317 43.9262 37.2341 44.37 37.3431 45.1525H34.3735C34.5278 44.4225 35.0434 43.9262 35.9295 43.9262ZM35.9827 42.9418C34.3061 42.9418 33.1018 44.0209 33.056 45.5963C33.0092 47.2036 34.1994 48.2508 35.9122 48.2508C36.775 48.2508 37.5698 48.0603 38.2798 47.5424L37.6925 46.7279C37.2035 47.0656 36.5869 47.2572 36.0121 47.2572C35.2113 47.2572 34.4897 46.9287 34.3367 46.0183H38.5864C38.6033 45.8815 38.6189 45.7434 38.6232 45.5963C38.6574 44.0209 37.587 42.9418 35.9827 42.9418ZM50.9317 45.5963C50.9576 44.7077 51.6389 43.9776 52.7161 43.9776C53.7443 43.9776 54.4189 44.6769 54.3922 45.5963C54.3654 46.5157 53.6501 47.215 52.6219 47.215C51.5447 47.215 50.9058 46.4849 50.9317 45.5963ZM55.565 45.5963L55.6386 43.0696H54.3947L54.3768 43.6833C53.9935 43.2281 53.4051 42.9418 52.5913 42.9418C50.9857 42.9418 49.6953 44.0529 49.6503 45.5963C49.6054 47.1408 50.8312 48.2508 52.4368 48.2508C53.2505 48.2508 53.8556 47.9644 54.2654 47.5093L54.2476 48.123H55.4915L55.565 45.5963ZM43.9036 45.5963C43.859 47.1294 45.0354 48.2508 46.8799 48.2508C47.7428 48.2508 48.3212 48.0808 48.9564 47.6473L48.3842 46.7598C47.9093 47.0564 47.4138 47.215 46.8739 47.215C45.8796 47.2036 45.1683 46.5693 45.1966 45.5963C45.2249 44.6232 45.9732 43.989 46.9681 43.9776C47.5081 43.9776 47.9943 44.1361 48.4519 44.4327L49.0758 43.5452C48.4658 43.1118 47.8973 42.9418 47.0344 42.9418C45.1899 42.9418 43.9482 44.0631 43.9036 45.5963ZM60.0263 42.9418C59.3081 42.9418 58.8319 43.2384 58.4947 43.6833L58.5126 43.0696H57.279L57.1319 48.123H58.3784L58.4608 45.2906C58.4852 44.4533 58.9056 43.989 59.7194 43.989C59.9725 43.989 60.2338 44.0209 60.4946 44.1156L60.9084 43.0798C60.636 42.984 60.2782 42.9418 60.0263 42.9418ZM26.6516 43.4711C26.0624 43.122 25.2423 42.9418 24.333 42.9418C22.8824 42.9418 21.9319 43.5555 21.9027 44.5605C21.8787 45.3841 22.5588 45.8929 23.8343 46.0514L24.4198 46.1256C25.0994 46.21 25.4177 46.3686 25.4094 46.6537C25.398 47.045 24.9356 47.2675 24.0869 47.2675C23.2241 47.2675 22.6085 47.0245 22.1983 46.7393L21.587 47.5948C22.2561 48.0386 23.1115 48.2508 24.0454 48.2508C25.6988 48.2508 26.6759 47.5629 26.7039 46.6013C26.7298 45.7126 25.9903 45.2472 24.7484 45.0886L24.1641 45.0145C23.6273 44.9518 23.1986 44.8571 23.2085 44.5183C23.2193 44.1475 23.6326 43.9262 24.3146 43.9262C25.0457 43.9262 25.7452 44.1692 26.0871 44.3597L26.6516 43.4711ZM42.7228 42.9418C42.0046 42.9418 41.5297 43.2384 41.1938 43.6833L41.2116 43.0696H39.9781L39.831 48.123H41.0762L41.1586 45.2906C41.183 44.4533 41.6034 43.989 42.4172 43.989C42.669 43.989 42.9316 44.0209 43.1924 44.1156L43.6061 43.0798C43.3338 42.984 42.9759 42.9418 42.7228 42.9418ZM32.1 43.0696H30.0643L30.109 41.5353H28.8509L28.8062 43.0696H27.6463L27.6171 44.0734H28.777L28.7099 46.3788C28.6758 47.5526 29.1708 48.2508 30.6434 48.2508C31.1833 48.2508 31.8089 48.1025 32.2112 47.8595L31.8795 46.9184C31.502 47.1077 31.0923 47.2036 30.7694 47.2036C30.1468 47.2036 29.9539 46.8648 29.9687 46.3571L30.0351 44.0734H32.0708L32.1 43.0696ZM13.3461 48.123L13.4384 44.9518C13.4732 43.7563 12.6338 42.9532 11.2442 42.9418C10.5147 42.9315 9.75455 43.1323 9.20689 43.8418C8.82796 43.2806 8.21587 42.9418 7.34153 42.9418C6.7303 42.9418 6.12815 43.1004 5.64358 43.6924L5.66171 43.0696H4.416L4.26892 48.123H5.52561L5.60715 45.3214C5.63268 44.4441 6.19716 43.9776 7.04826 43.9776C7.87468 43.9776 8.27883 44.4533 8.25386 45.3111L8.17202 48.123H9.42974L9.51128 45.3214C9.53682 44.4441 10.1252 43.9776 10.9519 43.9776C11.8005 43.9776 12.1949 44.4533 12.1699 45.3111L12.088 48.123H13.3461Z" fill="black"/>
<path d="M70.2251 31.1571L70.2453 30.4163L70.0269 30.4169L69.761 30.9265L69.5242 30.4185L69.3044 30.4192L69.2842 31.16L69.4393 31.1595L69.4545 30.6016L69.6766 31.0822L69.8382 31.0817L70.0866 30.5974L70.0713 31.1576L70.2251 31.1571ZM68.8409 31.1614L68.8577 30.5474L69.1382 30.5466L69.1416 30.4208L68.4282 30.423L68.4248 30.5488L68.7052 30.5479L68.6884 31.1619L68.8409 31.1614Z" fill="#6C6C6C"/>
<path d="M45.3408 34.394H26.4257L27.3457 4.30469H46.2608L45.3408 34.394Z" fill="#5D5D5D"/>
<path d="M28.152 19.3838C28.3392 13.2836 31.7333 7.8493 36.865 4.34757C33.2695 1.78689 28.6792 0.257812 23.6394 0.257812C11.7085 0.257812 1.77469 8.82015 1.45063 19.3838C1.1266 29.9463 10.5351 38.5098 22.4659 38.5098C27.5058 38.5098 32.1898 36.9807 35.9424 34.42C31.0256 30.9183 27.9649 25.484 28.152 19.3838Z" fill="black"/>
<path d="M71.2396 19.3135C70.9156 29.8761 60.9824 38.4396 49.0515 38.4396C44.0116 38.4396 39.4213 36.9105 35.8246 34.3498C40.9576 30.8481 44.3504 25.4138 44.5375 19.3135C44.7247 13.2133 41.6653 7.779 36.7471 4.27726C40.501 1.71658 45.1851 0.1875 50.2249 0.1875C62.1558 0.1875 71.5637 8.74986 71.2396 19.3135Z" fill="#6C6C6C"/>
</svg>
