<svg width="294" height="396" viewBox="0 0 294 396" fill="none" xmlns="http://www.w3.org/2000/svg">
<g filter="url(#filter0_d_8888_116114)">
<rect x="50.4883" y="46" width="193" height="140" rx="20" fill="white"/>
</g>
<circle cx="91.4883" cy="88" r="20" fill="#E0F7FE"/>
<path d="M89.6533 83.5801C85.9883 83.9551 83.2633 85.4151 83.2633 87.1651C83.2633 89.1951 86.9483 90.8401 91.4883 90.8401C96.0283 90.8401 99.7133 89.1951 99.7133 87.1651C99.7133 85.4151 96.9833 83.9551 93.3233 83.5801" stroke="black" stroke-width="0.5" stroke-linecap="round" stroke-linejoin="round"/>
<path d="M83.2633 89.2051C83.2633 89.9251 83.4533 90.9801 84.2633 91.5501C84.8333 91.9551 85.9933 91.4651 86.8633 91.7401C87.5733 91.9701 88.1583 93.0701 89.0133 93.1901C89.7783 93.2951 90.6583 92.4051 91.5133 92.4051C92.3683 92.4051 93.2283 93.2951 94.0133 93.1901C94.8683 93.0701 95.4583 91.9701 96.1683 91.7451C97.0383 91.4651 98.1983 91.9551 98.7683 91.5501C99.5683 90.9801 99.7683 89.9251 99.7683 89.2051" stroke="black" stroke-width="0.5" stroke-linecap="round" stroke-linejoin="round"/>
<path d="M83.2633 87.1641V93.8841C83.2633 95.9141 86.9483 97.5591 91.4883 97.5591C96.0283 97.5591 99.7133 95.9141 99.7133 93.8841V87.1641" stroke="black" stroke-width="0.5" stroke-linecap="round" stroke-linejoin="round"/>
<path d="M89.6533 83.0742V87.1642C89.6533 87.6142 90.4883 87.9992 91.4883 87.9992C92.4883 87.9992 93.3233 87.6292 93.3233 87.1792V83.0742" stroke="black" stroke-width="0.5" stroke-linecap="round" stroke-linejoin="round"/>
<path d="M91.4883 83.8959C92.5017 83.8959 93.3233 83.5287 93.3233 83.0759C93.3233 82.623 92.5017 82.2559 91.4883 82.2559C90.4748 82.2559 89.6533 82.623 89.6533 83.0759C89.6533 83.5287 90.4748 83.8959 91.4883 83.8959Z" stroke="black" stroke-width="0.5" stroke-linecap="round" stroke-linejoin="round"/>
<path d="M91.4883 83.0755C91.4883 82.6255 90.9633 82.0255 90.9633 81.6455L91.4883 83.0755ZM90.9883 81.6455C90.8583 81.2605 90.1133 81.2955 90.1133 80.2605C90.1133 79.2255 90.8183 78.9105 90.8183 78.0605C91.1571 78.2334 91.4395 78.4992 91.6326 78.8269C91.8257 79.1545 91.9213 79.5305 91.9083 79.9105C91.9221 80.2553 91.8443 80.5975 91.6826 80.9023C91.521 81.2071 91.2814 81.4636 90.9883 81.6455V81.6455Z" stroke="black" stroke-width="0.5" stroke-linecap="round" stroke-linejoin="round"/>
<path d="M123.5 76.124H127.376C127.72 76.124 128.028 76.176 128.3 76.28C128.58 76.384 128.816 76.528 129.008 76.712C129.2 76.896 129.344 77.124 129.44 77.396C129.544 77.66 129.596 77.952 129.596 78.272C129.596 78.592 129.552 78.864 129.464 79.088C129.384 79.304 129.272 79.484 129.128 79.628C128.992 79.772 128.832 79.88 128.648 79.952C128.472 80.024 128.288 80.064 128.096 80.072V80.144C128.28 80.144 128.476 80.18 128.684 80.252C128.9 80.324 129.096 80.44 129.272 80.6C129.456 80.752 129.608 80.952 129.728 81.2C129.848 81.44 129.908 81.74 129.908 82.1C129.908 82.436 129.852 82.752 129.74 83.048C129.636 83.336 129.488 83.588 129.296 83.804C129.104 84.02 128.876 84.192 128.612 84.32C128.348 84.44 128.06 84.5 127.748 84.5H123.5V76.124ZM125.084 83.156H127.292C127.596 83.156 127.832 83.08 128 82.928C128.168 82.768 128.252 82.54 128.252 82.244V81.836C128.252 81.54 128.168 81.312 128 81.152C127.832 80.992 127.596 80.912 127.292 80.912H125.084V83.156ZM125.084 79.616H127.04C127.328 79.616 127.552 79.54 127.712 79.388C127.872 79.228 127.952 79.008 127.952 78.728V78.356C127.952 78.076 127.872 77.86 127.712 77.708C127.552 77.548 127.328 77.468 127.04 77.468H125.084V79.616ZM132.129 77.324C131.809 77.324 131.577 77.252 131.433 77.108C131.297 76.964 131.229 76.78 131.229 76.556V76.316C131.229 76.092 131.297 75.908 131.433 75.764C131.577 75.62 131.809 75.548 132.129 75.548C132.441 75.548 132.669 75.62 132.813 75.764C132.957 75.908 133.029 76.092 133.029 76.316V76.556C133.029 76.78 132.957 76.964 132.813 77.108C132.669 77.252 132.441 77.324 132.129 77.324ZM131.361 78.236H132.897V84.5H131.361V78.236ZM134.677 84.5V78.236H136.213V79.532H136.273C136.313 79.364 136.373 79.204 136.453 79.052C136.541 78.892 136.653 78.752 136.789 78.632C136.925 78.512 137.085 78.416 137.269 78.344C137.461 78.272 137.681 78.236 137.929 78.236H138.265V79.688H137.785C137.265 79.688 136.873 79.764 136.609 79.916C136.345 80.068 136.213 80.316 136.213 80.66V84.5H134.677ZM141.391 84.5C140.863 84.5 140.459 84.364 140.179 84.092C139.907 83.812 139.771 83.416 139.771 82.904V79.46H138.847V78.236H139.327C139.559 78.236 139.715 78.184 139.795 78.08C139.883 77.968 139.927 77.804 139.927 77.588V76.52H141.307V78.236H142.591V79.46H141.307V83.276H142.495V84.5H141.391ZM143.923 75.62H145.459V79.28H145.519C145.647 78.944 145.847 78.664 146.119 78.44C146.399 78.208 146.783 78.092 147.271 78.092C147.919 78.092 148.415 78.304 148.759 78.728C149.103 79.152 149.275 79.756 149.275 80.54V84.5H147.739V80.696C147.739 80.248 147.659 79.912 147.499 79.688C147.339 79.464 147.075 79.352 146.707 79.352C146.547 79.352 146.391 79.376 146.239 79.424C146.095 79.464 145.963 79.528 145.843 79.616C145.731 79.696 145.639 79.8 145.567 79.928C145.495 80.048 145.459 80.192 145.459 80.36V84.5H143.923V75.62ZM154.866 83.456H154.806C154.694 83.816 154.482 84.104 154.17 84.32C153.858 84.536 153.494 84.644 153.078 84.644C152.286 84.644 151.678 84.36 151.254 83.792C150.838 83.224 150.63 82.412 150.63 81.356C150.63 80.308 150.838 79.504 151.254 78.944C151.678 78.376 152.286 78.092 153.078 78.092C153.494 78.092 153.858 78.2 154.17 78.416C154.482 78.624 154.694 78.908 154.806 79.268H154.866V75.62H156.402V84.5H154.866V83.456ZM153.57 83.372C153.938 83.372 154.246 83.284 154.494 83.108C154.742 82.932 154.866 82.68 154.866 82.352V80.36C154.866 80.056 154.742 79.812 154.494 79.628C154.246 79.444 153.938 79.352 153.57 79.352C153.17 79.352 152.846 79.488 152.598 79.76C152.358 80.024 152.238 80.38 152.238 80.828V81.908C152.238 82.356 152.358 82.712 152.598 82.976C152.846 83.24 153.17 83.372 153.57 83.372ZM162.781 84.5C162.445 84.5 162.177 84.404 161.977 84.212C161.785 84.012 161.665 83.748 161.617 83.42H161.545C161.441 83.828 161.229 84.136 160.909 84.344C160.589 84.544 160.193 84.644 159.721 84.644C159.081 84.644 158.589 84.476 158.245 84.14C157.901 83.804 157.729 83.356 157.729 82.796C157.729 82.148 157.961 81.668 158.425 81.356C158.889 81.036 159.549 80.876 160.405 80.876H161.473V80.42C161.473 80.068 161.381 79.796 161.197 79.604C161.013 79.412 160.717 79.316 160.309 79.316C159.949 79.316 159.657 79.396 159.433 79.556C159.217 79.708 159.033 79.892 158.881 80.108L157.969 79.292C158.201 78.932 158.509 78.644 158.893 78.428C159.277 78.204 159.785 78.092 160.417 78.092C161.265 78.092 161.909 78.284 162.349 78.668C162.789 79.052 163.009 79.604 163.009 80.324V83.276H163.633V84.5H162.781ZM160.237 83.528C160.581 83.528 160.873 83.452 161.113 83.3C161.353 83.148 161.473 82.924 161.473 82.628V81.8H160.489C159.689 81.8 159.289 82.056 159.289 82.568V82.772C159.289 83.028 159.369 83.22 159.529 83.348C159.697 83.468 159.933 83.528 160.237 83.528ZM168.623 78.236H170.063L167.543 85.616C167.463 85.84 167.371 86.032 167.267 86.192C167.171 86.36 167.055 86.496 166.919 86.6C166.783 86.704 166.619 86.78 166.427 86.828C166.235 86.876 166.011 86.9 165.755 86.9H164.831V85.676H165.959L166.247 84.8L164.003 78.236H165.527L166.619 81.548L167.027 83.132H167.099L167.531 81.548L168.623 78.236ZM173.911 78.236H175.447V79.268H175.495C175.607 78.908 175.819 78.624 176.131 78.416C176.443 78.2 176.807 78.092 177.223 78.092C178.023 78.092 178.631 78.376 179.047 78.944C179.471 79.504 179.683 80.308 179.683 81.356C179.683 82.412 179.471 83.224 179.047 83.792C178.631 84.36 178.023 84.644 177.223 84.644C176.807 84.644 176.443 84.536 176.131 84.32C175.827 84.104 175.615 83.816 175.495 83.456H175.447V86.9H173.911V78.236ZM176.731 83.372C177.131 83.372 177.455 83.24 177.703 82.976C177.951 82.712 178.075 82.356 178.075 81.908V80.828C178.075 80.38 177.951 80.024 177.703 79.76C177.455 79.488 177.131 79.352 176.731 79.352C176.363 79.352 176.055 79.444 175.807 79.628C175.567 79.812 175.447 80.056 175.447 80.36V82.352C175.447 82.68 175.567 82.932 175.807 83.108C176.055 83.284 176.363 83.372 176.731 83.372ZM185.715 84.5C185.379 84.5 185.111 84.404 184.911 84.212C184.719 84.012 184.599 83.748 184.551 83.42H184.479C184.375 83.828 184.163 84.136 183.843 84.344C183.523 84.544 183.127 84.644 182.655 84.644C182.015 84.644 181.523 84.476 181.179 84.14C180.835 83.804 180.663 83.356 180.663 82.796C180.663 82.148 180.895 81.668 181.359 81.356C181.823 81.036 182.483 80.876 183.339 80.876H184.407V80.42C184.407 80.068 184.315 79.796 184.131 79.604C183.947 79.412 183.651 79.316 183.243 79.316C182.883 79.316 182.591 79.396 182.367 79.556C182.151 79.708 181.967 79.892 181.815 80.108L180.903 79.292C181.135 78.932 181.443 78.644 181.827 78.428C182.211 78.204 182.719 78.092 183.351 78.092C184.199 78.092 184.843 78.284 185.283 78.668C185.723 79.052 185.943 79.604 185.943 80.324V83.276H186.567V84.5H185.715ZM183.171 83.528C183.515 83.528 183.807 83.452 184.047 83.3C184.287 83.148 184.407 82.924 184.407 82.628V81.8H183.423C182.623 81.8 182.223 82.056 182.223 82.568V82.772C182.223 83.028 182.303 83.22 182.463 83.348C182.631 83.468 182.867 83.528 183.171 83.528ZM187.81 84.5V78.236H189.346V79.532H189.406C189.446 79.364 189.506 79.204 189.586 79.052C189.674 78.892 189.786 78.752 189.922 78.632C190.058 78.512 190.218 78.416 190.402 78.344C190.594 78.272 190.814 78.236 191.062 78.236H191.398V79.688H190.918C190.398 79.688 190.006 79.764 189.742 79.916C189.478 80.068 189.346 80.316 189.346 80.66V84.5H187.81ZM194.524 84.5C193.996 84.5 193.592 84.364 193.312 84.092C193.04 83.812 192.904 83.416 192.904 82.904V79.46H191.98V78.236H192.46C192.692 78.236 192.848 78.184 192.928 78.08C193.016 77.968 193.06 77.804 193.06 77.588V76.52H194.44V78.236H195.724V79.46H194.44V83.276H195.628V84.5H194.524ZM200.896 78.236H202.336L199.816 85.616C199.736 85.84 199.644 86.032 199.54 86.192C199.444 86.36 199.328 86.496 199.192 86.6C199.056 86.704 198.892 86.78 198.7 86.828C198.508 86.876 198.284 86.9 198.028 86.9H197.104V85.676H198.232L198.52 84.8L196.276 78.236H197.8L198.892 81.548L199.3 83.132H199.372L199.804 81.548L200.896 78.236Z" fill="#001B21"/>
<path d="M125.018 102.5V99.74L122.618 95.52H123.578L125.438 98.88H125.468L127.328 95.52H128.288L125.858 99.71V102.5H125.018ZM130.718 102.62C130.371 102.62 130.055 102.557 129.768 102.43C129.481 102.303 129.235 102.123 129.028 101.89C128.828 101.65 128.671 101.367 128.558 101.04C128.445 100.707 128.388 100.333 128.388 99.92C128.388 99.5133 128.445 99.1433 128.558 98.81C128.671 98.4767 128.828 98.1933 129.028 97.96C129.235 97.72 129.481 97.5367 129.768 97.41C130.055 97.2833 130.371 97.22 130.718 97.22C131.065 97.22 131.378 97.2833 131.658 97.41C131.945 97.5367 132.191 97.72 132.398 97.96C132.605 98.1933 132.765 98.4767 132.878 98.81C132.991 99.1433 133.048 99.5133 133.048 99.92C133.048 100.333 132.991 100.707 132.878 101.04C132.765 101.367 132.605 101.65 132.398 101.89C132.191 102.123 131.945 102.303 131.658 102.43C131.378 102.557 131.065 102.62 130.718 102.62ZM130.718 101.91C131.151 101.91 131.505 101.777 131.778 101.51C132.051 101.243 132.188 100.837 132.188 100.29V99.55C132.188 99.0033 132.051 98.5967 131.778 98.33C131.505 98.0633 131.151 97.93 130.718 97.93C130.285 97.93 129.931 98.0633 129.658 98.33C129.385 98.5967 129.248 99.0033 129.248 99.55V100.29C129.248 100.837 129.385 101.243 129.658 101.51C129.931 101.777 130.285 101.91 130.718 101.91ZM137.544 101.66H137.504C137.45 101.78 137.384 101.9 137.304 102.02C137.23 102.133 137.137 102.237 137.024 102.33C136.91 102.417 136.774 102.487 136.614 102.54C136.454 102.593 136.267 102.62 136.054 102.62C135.52 102.62 135.097 102.45 134.784 102.11C134.47 101.763 134.314 101.277 134.314 100.65V97.34H135.114V100.51C135.114 101.437 135.507 101.9 136.294 101.9C136.454 101.9 136.607 101.88 136.754 101.84C136.907 101.8 137.04 101.74 137.154 101.66C137.274 101.58 137.367 101.48 137.434 101.36C137.507 101.233 137.544 101.083 137.544 100.91V97.34H138.344V102.5H137.544V101.66ZM144.361 102.62C144.014 102.62 143.697 102.557 143.411 102.43C143.124 102.303 142.877 102.123 142.671 101.89C142.471 101.65 142.314 101.367 142.201 101.04C142.087 100.707 142.031 100.333 142.031 99.92C142.031 99.5133 142.087 99.1433 142.201 98.81C142.314 98.4767 142.471 98.1933 142.671 97.96C142.877 97.72 143.124 97.5367 143.411 97.41C143.697 97.2833 144.014 97.22 144.361 97.22C144.707 97.22 145.021 97.2833 145.301 97.41C145.587 97.5367 145.834 97.72 146.041 97.96C146.247 98.1933 146.407 98.4767 146.521 98.81C146.634 99.1433 146.691 99.5133 146.691 99.92C146.691 100.333 146.634 100.707 146.521 101.04C146.407 101.367 146.247 101.65 146.041 101.89C145.834 102.123 145.587 102.303 145.301 102.43C145.021 102.557 144.707 102.62 144.361 102.62ZM144.361 101.91C144.794 101.91 145.147 101.777 145.421 101.51C145.694 101.243 145.831 100.837 145.831 100.29V99.55C145.831 99.0033 145.694 98.5967 145.421 98.33C145.147 98.0633 144.794 97.93 144.361 97.93C143.927 97.93 143.574 98.0633 143.301 98.33C143.027 98.5967 142.891 99.0033 142.891 99.55V100.29C142.891 100.837 143.027 101.243 143.301 101.51C143.574 101.777 143.927 101.91 144.361 101.91ZM147.417 97.34H148.197L148.747 99.57L149.297 101.83H149.317L149.947 99.57L150.597 97.34H151.307L151.977 99.57L152.617 101.83H152.637L153.167 99.57L153.727 97.34H154.477L153.107 102.5H152.117L151.397 100.02L150.947 98.45H150.927L150.487 100.02L149.767 102.5H148.797L147.417 97.34ZM157.524 102.62C157.171 102.62 156.851 102.557 156.564 102.43C156.284 102.303 156.041 102.123 155.834 101.89C155.634 101.65 155.478 101.367 155.364 101.04C155.258 100.707 155.204 100.333 155.204 99.92C155.204 99.5133 155.258 99.1433 155.364 98.81C155.478 98.4767 155.634 98.1933 155.834 97.96C156.041 97.72 156.284 97.5367 156.564 97.41C156.851 97.2833 157.171 97.22 157.524 97.22C157.871 97.22 158.181 97.2833 158.454 97.41C158.728 97.5367 158.961 97.7133 159.154 97.94C159.348 98.16 159.494 98.4233 159.594 98.73C159.701 99.0367 159.754 99.3733 159.754 99.74V100.12H156.044V100.36C156.044 100.58 156.078 100.787 156.144 100.98C156.218 101.167 156.318 101.33 156.444 101.47C156.578 101.61 156.738 101.72 156.924 101.8C157.118 101.88 157.334 101.92 157.574 101.92C157.901 101.92 158.184 101.843 158.424 101.69C158.671 101.537 158.861 101.317 158.994 101.03L159.564 101.44C159.398 101.793 159.138 102.08 158.784 102.3C158.431 102.513 158.011 102.62 157.524 102.62ZM157.524 97.89C157.304 97.89 157.104 97.93 156.924 98.01C156.744 98.0833 156.588 98.19 156.454 98.33C156.328 98.47 156.228 98.6367 156.154 98.83C156.081 99.0167 156.044 99.2233 156.044 99.45V99.52H158.894V99.41C158.894 98.95 158.768 98.5833 158.514 98.31C158.268 98.03 157.938 97.89 157.524 97.89ZM165.966 102.62C165.086 102.62 164.399 102.31 163.906 101.69C163.413 101.07 163.166 100.177 163.166 99.01C163.166 97.8433 163.413 96.95 163.906 96.33C164.399 95.71 165.086 95.4 165.966 95.4C166.553 95.4 167.039 95.5367 167.426 95.81C167.819 96.0767 168.126 96.45 168.346 96.93L167.696 97.33C167.556 96.97 167.339 96.6833 167.046 96.47C166.753 96.25 166.393 96.14 165.966 96.14C165.439 96.14 165.013 96.2967 164.686 96.61C164.359 96.9233 164.156 97.34 164.076 97.86H166.646V98.53H164.036V99.49H166.646V100.16H164.076C164.163 100.68 164.366 101.097 164.686 101.41C165.013 101.723 165.439 101.88 165.966 101.88C166.406 101.88 166.776 101.763 167.076 101.53C167.376 101.297 167.599 100.99 167.746 100.61L168.396 101.04C168.289 101.267 168.163 101.477 168.016 101.67C167.869 101.863 167.696 102.03 167.496 102.17C167.303 102.31 167.079 102.42 166.826 102.5C166.573 102.58 166.286 102.62 165.966 102.62ZM174.166 102.5H169.586V101.64L171.866 99.54C172.193 99.24 172.466 98.9233 172.686 98.59C172.906 98.25 173.016 97.91 173.016 97.57V97.45C173.016 97.0633 172.909 96.75 172.696 96.51C172.483 96.27 172.159 96.15 171.726 96.15C171.513 96.15 171.326 96.18 171.166 96.24C171.006 96.3 170.866 96.3833 170.746 96.49C170.633 96.5967 170.536 96.7233 170.456 96.87C170.383 97.01 170.323 97.1633 170.276 97.33L169.526 97.04C169.593 96.8333 169.683 96.6333 169.796 96.44C169.916 96.24 170.063 96.0633 170.236 95.91C170.416 95.7567 170.629 95.6333 170.876 95.54C171.129 95.4467 171.426 95.4 171.766 95.4C172.106 95.4 172.409 95.45 172.676 95.55C172.943 95.65 173.166 95.79 173.346 95.97C173.526 96.15 173.663 96.3633 173.756 96.61C173.856 96.8567 173.906 97.13 173.906 97.43C173.906 97.7033 173.866 97.9567 173.786 98.19C173.713 98.4233 173.609 98.6467 173.476 98.86C173.343 99.0667 173.179 99.27 172.986 99.47C172.799 99.67 172.596 99.87 172.376 100.07L170.496 101.76H174.166V102.5ZM177.832 102.62C176.999 102.62 176.389 102.303 176.002 101.67C175.622 101.037 175.432 100.15 175.432 99.01C175.432 97.87 175.622 96.9833 176.002 96.35C176.389 95.7167 176.999 95.4 177.832 95.4C178.665 95.4 179.272 95.7167 179.652 96.35C180.039 96.9833 180.232 97.87 180.232 99.01C180.232 100.15 180.039 101.037 179.652 101.67C179.272 102.303 178.665 102.62 177.832 102.62ZM177.832 101.89C178.105 101.89 178.339 101.833 178.532 101.72C178.725 101.607 178.882 101.447 179.002 101.24C179.122 101.033 179.209 100.79 179.262 100.51C179.322 100.23 179.352 99.92 179.352 99.58V98.44C179.352 98.1 179.322 97.79 179.262 97.51C179.209 97.23 179.122 96.9867 179.002 96.78C178.882 96.5733 178.725 96.4133 178.532 96.3C178.339 96.1867 178.105 96.13 177.832 96.13C177.559 96.13 177.325 96.1867 177.132 96.3C176.939 96.4133 176.782 96.5733 176.662 96.78C176.542 96.9867 176.452 97.23 176.392 97.51C176.339 97.79 176.312 98.1 176.312 98.44V99.58C176.312 99.92 176.339 100.23 176.392 100.51C176.452 100.79 176.542 101.033 176.662 101.24C176.782 101.447 176.939 101.607 177.132 101.72C177.325 101.833 177.559 101.89 177.832 101.89ZM182.188 102.62C181.975 102.62 181.818 102.567 181.718 102.46C181.625 102.353 181.578 102.213 181.578 102.04V101.91C181.578 101.737 181.625 101.597 181.718 101.49C181.818 101.383 181.975 101.33 182.188 101.33C182.401 101.33 182.555 101.383 182.648 101.49C182.748 101.597 182.798 101.737 182.798 101.91V102.04C182.798 102.213 182.748 102.353 182.648 102.46C182.555 102.567 182.401 102.62 182.188 102.62ZM186.553 102.62C185.719 102.62 185.109 102.303 184.723 101.67C184.343 101.037 184.153 100.15 184.153 99.01C184.153 97.87 184.343 96.9833 184.723 96.35C185.109 95.7167 185.719 95.4 186.553 95.4C187.386 95.4 187.993 95.7167 188.373 96.35C188.759 96.9833 188.953 97.87 188.953 99.01C188.953 100.15 188.759 101.037 188.373 101.67C187.993 102.303 187.386 102.62 186.553 102.62ZM186.553 101.89C186.826 101.89 187.059 101.833 187.253 101.72C187.446 101.607 187.603 101.447 187.723 101.24C187.843 101.033 187.929 100.79 187.983 100.51C188.043 100.23 188.073 99.92 188.073 99.58V98.44C188.073 98.1 188.043 97.79 187.983 97.51C187.929 97.23 187.843 96.9867 187.723 96.78C187.603 96.5733 187.446 96.4133 187.253 96.3C187.059 96.1867 186.826 96.13 186.553 96.13C186.279 96.13 186.046 96.1867 185.853 96.3C185.659 96.4133 185.503 96.5733 185.383 96.78C185.263 96.9867 185.173 97.23 185.113 97.51C185.059 97.79 185.033 98.1 185.033 98.44V99.58C185.033 99.92 185.059 100.23 185.113 100.51C185.173 100.79 185.263 101.033 185.383 101.24C185.503 101.447 185.659 101.607 185.853 101.72C186.046 101.833 186.279 101.89 186.553 101.89ZM192.549 102.62C191.715 102.62 191.105 102.303 190.719 101.67C190.339 101.037 190.149 100.15 190.149 99.01C190.149 97.87 190.339 96.9833 190.719 96.35C191.105 95.7167 191.715 95.4 192.549 95.4C193.382 95.4 193.989 95.7167 194.369 96.35C194.755 96.9833 194.949 97.87 194.949 99.01C194.949 100.15 194.755 101.037 194.369 101.67C193.989 102.303 193.382 102.62 192.549 102.62ZM192.549 101.89C192.822 101.89 193.055 101.833 193.249 101.72C193.442 101.607 193.599 101.447 193.719 101.24C193.839 101.033 193.925 100.79 193.979 100.51C194.039 100.23 194.069 99.92 194.069 99.58V98.44C194.069 98.1 194.039 97.79 193.979 97.51C193.925 97.23 193.839 96.9867 193.719 96.78C193.599 96.5733 193.442 96.4133 193.249 96.3C193.055 96.1867 192.822 96.13 192.549 96.13C192.275 96.13 192.042 96.1867 191.849 96.3C191.655 96.4133 191.499 96.5733 191.379 96.78C191.259 96.9867 191.169 97.23 191.109 97.51C191.055 97.79 191.029 98.1 191.029 98.44V99.58C191.029 99.92 191.055 100.23 191.109 100.51C191.169 100.79 191.259 101.033 191.379 101.24C191.499 101.447 191.655 101.607 191.849 101.72C192.042 101.833 192.275 101.89 192.549 101.89Z" fill="#008AA7"/>
<rect x="71.4883" y="124" width="151" height="40" rx="8" fill="#008AA7"/>
<path d="M134.949 149V139.228H139.345C139.793 139.228 140.194 139.303 140.549 139.452C140.913 139.592 141.221 139.797 141.473 140.068C141.725 140.329 141.916 140.647 142.047 141.02C142.177 141.393 142.243 141.804 142.243 142.252C142.243 142.709 142.177 143.125 142.047 143.498C141.916 143.862 141.725 144.179 141.473 144.45C141.221 144.711 140.913 144.917 140.549 145.066C140.194 145.206 139.793 145.276 139.345 145.276H136.797V149H134.949ZM136.797 143.68H139.177C139.531 143.68 139.811 143.587 140.017 143.4C140.222 143.204 140.325 142.929 140.325 142.574V141.93C140.325 141.575 140.222 141.305 140.017 141.118C139.811 140.931 139.531 140.838 139.177 140.838H136.797V143.68ZM149.05 149L148.266 146.508H144.794L144.024 149H142.148L145.424 139.228H147.72L150.968 149H149.05ZM146.558 140.908H146.488L145.242 144.926H147.818L146.558 140.908ZM153.816 149V145.164L150.47 139.228H152.542L154.796 143.358H154.824L157.022 139.228H159.038L155.678 145.15V149H153.816Z" fill="white"/>
<g filter="url(#filter1_d_8888_116114)">
<rect x="50.4883" y="202" width="193" height="140" rx="20" fill="white"/>
</g>
<circle cx="91.4883" cy="244" r="20" fill="#E0F7FE"/>
<path d="M100.488 248V246L92.4883 241V235.5C92.4883 234.67 91.8183 234 90.9883 234C90.1583 234 89.4883 234.67 89.4883 235.5V241L81.4883 246V248L89.4883 245.5V251L87.4883 252.5V254L90.9883 253L94.4883 254V252.5L92.4883 251V245.5L100.488 248Z" fill="black"/>
<path d="M126.254 240.644C125.534 240.644 124.922 240.516 124.418 240.26C123.922 240.004 123.494 239.668 123.134 239.252L124.202 238.22C124.49 238.556 124.81 238.812 125.162 238.988C125.522 239.164 125.918 239.252 126.35 239.252C126.838 239.252 127.206 239.148 127.454 238.94C127.702 238.724 127.826 238.436 127.826 238.076C127.826 237.796 127.746 237.568 127.586 237.392C127.426 237.216 127.126 237.088 126.686 237.008L125.894 236.888C124.222 236.624 123.386 235.812 123.386 234.452C123.386 234.076 123.454 233.736 123.59 233.432C123.734 233.128 123.938 232.868 124.202 232.652C124.466 232.436 124.782 232.272 125.15 232.16C125.526 232.04 125.95 231.98 126.422 231.98C127.054 231.98 127.606 232.084 128.078 232.292C128.55 232.5 128.954 232.808 129.29 233.216L128.21 234.236C128.002 233.98 127.75 233.772 127.454 233.612C127.158 233.452 126.786 233.372 126.338 233.372C125.882 233.372 125.538 233.46 125.306 233.636C125.082 233.804 124.97 234.044 124.97 234.356C124.97 234.676 125.062 234.912 125.246 235.064C125.43 235.216 125.726 235.328 126.134 235.4L126.914 235.544C127.762 235.696 128.386 235.968 128.786 236.36C129.194 236.744 129.398 237.284 129.398 237.98C129.398 238.38 129.326 238.744 129.182 239.072C129.046 239.392 128.842 239.672 128.57 239.912C128.306 240.144 127.978 240.324 127.586 240.452C127.202 240.58 126.758 240.644 126.254 240.644ZM134.634 239.456H134.574C134.518 239.616 134.442 239.768 134.346 239.912C134.258 240.048 134.142 240.172 133.998 240.284C133.862 240.396 133.694 240.484 133.494 240.548C133.302 240.612 133.078 240.644 132.822 240.644C132.174 240.644 131.678 240.432 131.334 240.008C130.99 239.584 130.818 238.98 130.818 238.196V234.236H132.354V238.04C132.354 238.472 132.438 238.804 132.606 239.036C132.774 239.26 133.042 239.372 133.41 239.372C133.562 239.372 133.71 239.352 133.854 239.312C134.006 239.272 134.138 239.212 134.25 239.132C134.362 239.044 134.454 238.94 134.526 238.82C134.598 238.692 134.634 238.544 134.634 238.376V234.236H136.17V240.5H134.634V239.456ZM137.945 240.5V234.236H139.481V235.28H139.541C139.661 234.952 139.853 234.672 140.117 234.44C140.381 234.208 140.749 234.092 141.221 234.092C141.653 234.092 142.025 234.196 142.337 234.404C142.649 234.612 142.881 234.928 143.033 235.352H143.057C143.169 235 143.389 234.704 143.717 234.464C144.053 234.216 144.473 234.092 144.977 234.092C145.593 234.092 146.065 234.304 146.393 234.728C146.729 235.152 146.897 235.756 146.897 236.54V240.5H145.361V236.696C145.361 235.8 145.025 235.352 144.353 235.352C144.201 235.352 144.053 235.376 143.909 235.424C143.773 235.464 143.649 235.528 143.537 235.616C143.433 235.696 143.349 235.8 143.285 235.928C143.221 236.048 143.189 236.192 143.189 236.36V240.5H141.653V236.696C141.653 235.8 141.317 235.352 140.645 235.352C140.501 235.352 140.357 235.376 140.213 235.424C140.077 235.464 139.953 235.528 139.841 235.616C139.737 235.696 139.649 235.8 139.577 235.928C139.513 236.048 139.481 236.192 139.481 236.36V240.5H137.945ZM148.597 240.5V234.236H150.133V235.28H150.193C150.313 234.952 150.505 234.672 150.769 234.44C151.033 234.208 151.401 234.092 151.873 234.092C152.305 234.092 152.677 234.196 152.989 234.404C153.301 234.612 153.533 234.928 153.685 235.352H153.709C153.821 235 154.041 234.704 154.369 234.464C154.705 234.216 155.125 234.092 155.629 234.092C156.245 234.092 156.717 234.304 157.045 234.728C157.381 235.152 157.549 235.756 157.549 236.54V240.5H156.013V236.696C156.013 235.8 155.677 235.352 155.005 235.352C154.853 235.352 154.705 235.376 154.561 235.424C154.425 235.464 154.301 235.528 154.189 235.616C154.085 235.696 154.001 235.8 153.937 235.928C153.873 236.048 153.841 236.192 153.841 236.36V240.5H152.305V236.696C152.305 235.8 151.969 235.352 151.297 235.352C151.153 235.352 151.009 235.376 150.865 235.424C150.729 235.464 150.605 235.528 150.493 235.616C150.389 235.696 150.301 235.8 150.229 235.928C150.165 236.048 150.133 236.192 150.133 236.36V240.5H148.597ZM161.781 240.644C161.317 240.644 160.901 240.568 160.533 240.416C160.173 240.256 159.865 240.036 159.609 239.756C159.361 239.468 159.169 239.124 159.033 238.724C158.897 238.316 158.829 237.86 158.829 237.356C158.829 236.86 158.893 236.412 159.021 236.012C159.157 235.612 159.349 235.272 159.597 234.992C159.845 234.704 160.149 234.484 160.509 234.332C160.869 234.172 161.277 234.092 161.733 234.092C162.221 234.092 162.645 234.176 163.005 234.344C163.365 234.512 163.661 234.74 163.893 235.028C164.125 235.316 164.297 235.652 164.409 236.036C164.529 236.412 164.589 236.816 164.589 237.248V237.752H160.425V237.908C160.425 238.364 160.553 238.732 160.809 239.012C161.065 239.284 161.445 239.42 161.949 239.42C162.333 239.42 162.645 239.34 162.885 239.18C163.133 239.02 163.353 238.816 163.545 238.568L164.373 239.492C164.117 239.852 163.765 240.136 163.317 240.344C162.877 240.544 162.365 240.644 161.781 240.644ZM161.757 235.244C161.349 235.244 161.025 235.38 160.785 235.652C160.545 235.924 160.425 236.276 160.425 236.708V236.804H162.993V236.696C162.993 236.264 162.885 235.916 162.669 235.652C162.461 235.38 162.157 235.244 161.757 235.244ZM165.941 240.5V234.236H167.477V235.532H167.537C167.577 235.364 167.637 235.204 167.717 235.052C167.805 234.892 167.917 234.752 168.053 234.632C168.189 234.512 168.349 234.416 168.533 234.344C168.725 234.272 168.945 234.236 169.193 234.236H169.529V235.688H169.049C168.529 235.688 168.137 235.764 167.873 235.916C167.609 236.068 167.477 236.316 167.477 236.66V240.5H165.941ZM175.444 240.5C174.916 240.5 174.512 240.364 174.232 240.092C173.96 239.812 173.824 239.416 173.824 238.904V235.46H172.9V234.236H173.38C173.612 234.236 173.768 234.184 173.848 234.08C173.936 233.968 173.98 233.804 173.98 233.588V232.52H175.36V234.236H176.644V235.46H175.36V239.276H176.548V240.5H175.444ZM177.976 240.5V234.236H179.512V235.532H179.572C179.612 235.364 179.672 235.204 179.752 235.052C179.84 234.892 179.952 234.752 180.088 234.632C180.224 234.512 180.384 234.416 180.568 234.344C180.76 234.272 180.98 234.236 181.228 234.236H181.564V235.688H181.084C180.564 235.688 180.172 235.764 179.908 235.916C179.644 236.068 179.512 236.316 179.512 236.66V240.5H177.976ZM183.455 233.324C183.135 233.324 182.903 233.252 182.759 233.108C182.623 232.964 182.555 232.78 182.555 232.556V232.316C182.555 232.092 182.623 231.908 182.759 231.764C182.903 231.62 183.135 231.548 183.455 231.548C183.767 231.548 183.995 231.62 184.139 231.764C184.283 231.908 184.355 232.092 184.355 232.316V232.556C184.355 232.78 184.283 232.964 184.139 233.108C183.995 233.252 183.767 233.324 183.455 233.324ZM182.687 234.236H184.223V240.5H182.687V234.236ZM186.003 234.236H187.539V235.268H187.587C187.699 234.908 187.911 234.624 188.223 234.416C188.535 234.2 188.899 234.092 189.315 234.092C190.115 234.092 190.723 234.376 191.139 234.944C191.563 235.504 191.775 236.308 191.775 237.356C191.775 238.412 191.563 239.224 191.139 239.792C190.723 240.36 190.115 240.644 189.315 240.644C188.899 240.644 188.535 240.536 188.223 240.32C187.919 240.104 187.707 239.816 187.587 239.456H187.539V242.9H186.003V234.236ZM188.823 239.372C189.223 239.372 189.547 239.24 189.795 238.976C190.043 238.712 190.167 238.356 190.167 237.908V236.828C190.167 236.38 190.043 236.024 189.795 235.76C189.547 235.488 189.223 235.352 188.823 235.352C188.455 235.352 188.147 235.444 187.899 235.628C187.659 235.812 187.539 236.056 187.539 236.36V238.352C187.539 238.68 187.659 238.932 187.899 239.108C188.147 239.284 188.455 239.372 188.823 239.372Z" fill="#001B21"/>
<path d="M125.018 258.5V255.74L122.618 251.52H123.578L125.438 254.88H125.468L127.328 251.52H128.288L125.858 255.71V258.5H125.018ZM130.718 258.62C130.371 258.62 130.055 258.557 129.768 258.43C129.481 258.303 129.235 258.123 129.028 257.89C128.828 257.65 128.671 257.367 128.558 257.04C128.445 256.707 128.388 256.333 128.388 255.92C128.388 255.513 128.445 255.143 128.558 254.81C128.671 254.477 128.828 254.193 129.028 253.96C129.235 253.72 129.481 253.537 129.768 253.41C130.055 253.283 130.371 253.22 130.718 253.22C131.065 253.22 131.378 253.283 131.658 253.41C131.945 253.537 132.191 253.72 132.398 253.96C132.605 254.193 132.765 254.477 132.878 254.81C132.991 255.143 133.048 255.513 133.048 255.92C133.048 256.333 132.991 256.707 132.878 257.04C132.765 257.367 132.605 257.65 132.398 257.89C132.191 258.123 131.945 258.303 131.658 258.43C131.378 258.557 131.065 258.62 130.718 258.62ZM130.718 257.91C131.151 257.91 131.505 257.777 131.778 257.51C132.051 257.243 132.188 256.837 132.188 256.29V255.55C132.188 255.003 132.051 254.597 131.778 254.33C131.505 254.063 131.151 253.93 130.718 253.93C130.285 253.93 129.931 254.063 129.658 254.33C129.385 254.597 129.248 255.003 129.248 255.55V256.29C129.248 256.837 129.385 257.243 129.658 257.51C129.931 257.777 130.285 257.91 130.718 257.91ZM137.544 257.66H137.504C137.45 257.78 137.384 257.9 137.304 258.02C137.23 258.133 137.137 258.237 137.024 258.33C136.91 258.417 136.774 258.487 136.614 258.54C136.454 258.593 136.267 258.62 136.054 258.62C135.52 258.62 135.097 258.45 134.784 258.11C134.47 257.763 134.314 257.277 134.314 256.65V253.34H135.114V256.51C135.114 257.437 135.507 257.9 136.294 257.9C136.454 257.9 136.607 257.88 136.754 257.84C136.907 257.8 137.04 257.74 137.154 257.66C137.274 257.58 137.367 257.48 137.434 257.36C137.507 257.233 137.544 257.083 137.544 256.91V253.34H138.344V258.5H137.544V257.66ZM144.361 258.62C144.014 258.62 143.697 258.557 143.411 258.43C143.124 258.303 142.877 258.123 142.671 257.89C142.471 257.65 142.314 257.367 142.201 257.04C142.087 256.707 142.031 256.333 142.031 255.92C142.031 255.513 142.087 255.143 142.201 254.81C142.314 254.477 142.471 254.193 142.671 253.96C142.877 253.72 143.124 253.537 143.411 253.41C143.697 253.283 144.014 253.22 144.361 253.22C144.707 253.22 145.021 253.283 145.301 253.41C145.587 253.537 145.834 253.72 146.041 253.96C146.247 254.193 146.407 254.477 146.521 254.81C146.634 255.143 146.691 255.513 146.691 255.92C146.691 256.333 146.634 256.707 146.521 257.04C146.407 257.367 146.247 257.65 146.041 257.89C145.834 258.123 145.587 258.303 145.301 258.43C145.021 258.557 144.707 258.62 144.361 258.62ZM144.361 257.91C144.794 257.91 145.147 257.777 145.421 257.51C145.694 257.243 145.831 256.837 145.831 256.29V255.55C145.831 255.003 145.694 254.597 145.421 254.33C145.147 254.063 144.794 253.93 144.361 253.93C143.927 253.93 143.574 254.063 143.301 254.33C143.027 254.597 142.891 255.003 142.891 255.55V256.29C142.891 256.837 143.027 257.243 143.301 257.51C143.574 257.777 143.927 257.91 144.361 257.91ZM147.417 253.34H148.197L148.747 255.57L149.297 257.83H149.317L149.947 255.57L150.597 253.34H151.307L151.977 255.57L152.617 257.83H152.637L153.167 255.57L153.727 253.34H154.477L153.107 258.5H152.117L151.397 256.02L150.947 254.45H150.927L150.487 256.02L149.767 258.5H148.797L147.417 253.34ZM157.524 258.62C157.171 258.62 156.851 258.557 156.564 258.43C156.284 258.303 156.041 258.123 155.834 257.89C155.634 257.65 155.478 257.367 155.364 257.04C155.258 256.707 155.204 256.333 155.204 255.92C155.204 255.513 155.258 255.143 155.364 254.81C155.478 254.477 155.634 254.193 155.834 253.96C156.041 253.72 156.284 253.537 156.564 253.41C156.851 253.283 157.171 253.22 157.524 253.22C157.871 253.22 158.181 253.283 158.454 253.41C158.728 253.537 158.961 253.713 159.154 253.94C159.348 254.16 159.494 254.423 159.594 254.73C159.701 255.037 159.754 255.373 159.754 255.74V256.12H156.044V256.36C156.044 256.58 156.078 256.787 156.144 256.98C156.218 257.167 156.318 257.33 156.444 257.47C156.578 257.61 156.738 257.72 156.924 257.8C157.118 257.88 157.334 257.92 157.574 257.92C157.901 257.92 158.184 257.843 158.424 257.69C158.671 257.537 158.861 257.317 158.994 257.03L159.564 257.44C159.398 257.793 159.138 258.08 158.784 258.3C158.431 258.513 158.011 258.62 157.524 258.62ZM157.524 253.89C157.304 253.89 157.104 253.93 156.924 254.01C156.744 254.083 156.588 254.19 156.454 254.33C156.328 254.47 156.228 254.637 156.154 254.83C156.081 255.017 156.044 255.223 156.044 255.45V255.52H158.894V255.41C158.894 254.95 158.768 254.583 158.514 254.31C158.268 254.03 157.938 253.89 157.524 253.89ZM165.966 258.62C165.086 258.62 164.399 258.31 163.906 257.69C163.413 257.07 163.166 256.177 163.166 255.01C163.166 253.843 163.413 252.95 163.906 252.33C164.399 251.71 165.086 251.4 165.966 251.4C166.553 251.4 167.039 251.537 167.426 251.81C167.819 252.077 168.126 252.45 168.346 252.93L167.696 253.33C167.556 252.97 167.339 252.683 167.046 252.47C166.753 252.25 166.393 252.14 165.966 252.14C165.439 252.14 165.013 252.297 164.686 252.61C164.359 252.923 164.156 253.34 164.076 253.86H166.646V254.53H164.036V255.49H166.646V256.16H164.076C164.163 256.68 164.366 257.097 164.686 257.41C165.013 257.723 165.439 257.88 165.966 257.88C166.406 257.88 166.776 257.763 167.076 257.53C167.376 257.297 167.599 256.99 167.746 256.61L168.396 257.04C168.289 257.267 168.163 257.477 168.016 257.67C167.869 257.863 167.696 258.03 167.496 258.17C167.303 258.31 167.079 258.42 166.826 258.5C166.573 258.58 166.286 258.62 165.966 258.62ZM173.816 252.26H170.756L170.556 254.92H170.626C170.793 254.687 170.979 254.5 171.186 254.36C171.399 254.22 171.689 254.15 172.056 254.15C172.356 254.15 172.633 254.2 172.886 254.3C173.139 254.4 173.359 254.543 173.546 254.73C173.733 254.91 173.876 255.133 173.976 255.4C174.083 255.667 174.136 255.97 174.136 256.31C174.136 256.65 174.083 256.963 173.976 257.25C173.869 257.53 173.713 257.773 173.506 257.98C173.306 258.18 173.059 258.337 172.766 258.45C172.479 258.563 172.153 258.62 171.786 258.62C171.493 258.62 171.233 258.587 171.006 258.52C170.786 258.453 170.589 258.363 170.416 258.25C170.243 258.137 170.089 258.01 169.956 257.87C169.829 257.73 169.713 257.583 169.606 257.43L170.236 256.95C170.323 257.09 170.413 257.217 170.506 257.33C170.606 257.443 170.713 257.54 170.826 257.62C170.946 257.7 171.083 257.763 171.236 257.81C171.389 257.85 171.573 257.87 171.786 257.87C172.266 257.87 172.629 257.743 172.876 257.49C173.123 257.237 173.246 256.88 173.246 256.42V256.32C173.246 255.86 173.123 255.503 172.876 255.25C172.629 254.997 172.266 254.87 171.786 254.87C171.466 254.87 171.213 254.93 171.026 255.05C170.846 255.163 170.683 255.3 170.536 255.46L169.826 255.36L170.076 251.52H173.816V252.26ZM177.832 258.62C176.999 258.62 176.389 258.303 176.002 257.67C175.622 257.037 175.432 256.15 175.432 255.01C175.432 253.87 175.622 252.983 176.002 252.35C176.389 251.717 176.999 251.4 177.832 251.4C178.665 251.4 179.272 251.717 179.652 252.35C180.039 252.983 180.232 253.87 180.232 255.01C180.232 256.15 180.039 257.037 179.652 257.67C179.272 258.303 178.665 258.62 177.832 258.62ZM177.832 257.89C178.105 257.89 178.339 257.833 178.532 257.72C178.725 257.607 178.882 257.447 179.002 257.24C179.122 257.033 179.209 256.79 179.262 256.51C179.322 256.23 179.352 255.92 179.352 255.58V254.44C179.352 254.1 179.322 253.79 179.262 253.51C179.209 253.23 179.122 252.987 179.002 252.78C178.882 252.573 178.725 252.413 178.532 252.3C178.339 252.187 178.105 252.13 177.832 252.13C177.559 252.13 177.325 252.187 177.132 252.3C176.939 252.413 176.782 252.573 176.662 252.78C176.542 252.987 176.452 253.23 176.392 253.51C176.339 253.79 176.312 254.1 176.312 254.44V255.58C176.312 255.92 176.339 256.23 176.392 256.51C176.452 256.79 176.542 257.033 176.662 257.24C176.782 257.447 176.939 257.607 177.132 257.72C177.325 257.833 177.559 257.89 177.832 257.89ZM183.828 258.62C182.995 258.62 182.385 258.303 181.998 257.67C181.618 257.037 181.428 256.15 181.428 255.01C181.428 253.87 181.618 252.983 181.998 252.35C182.385 251.717 182.995 251.4 183.828 251.4C184.661 251.4 185.268 251.717 185.648 252.35C186.035 252.983 186.228 253.87 186.228 255.01C186.228 256.15 186.035 257.037 185.648 257.67C185.268 258.303 184.661 258.62 183.828 258.62ZM183.828 257.89C184.101 257.89 184.335 257.833 184.528 257.72C184.721 257.607 184.878 257.447 184.998 257.24C185.118 257.033 185.205 256.79 185.258 256.51C185.318 256.23 185.348 255.92 185.348 255.58V254.44C185.348 254.1 185.318 253.79 185.258 253.51C185.205 253.23 185.118 252.987 184.998 252.78C184.878 252.573 184.721 252.413 184.528 252.3C184.335 252.187 184.101 252.13 183.828 252.13C183.555 252.13 183.321 252.187 183.128 252.3C182.935 252.413 182.778 252.573 182.658 252.78C182.538 252.987 182.448 253.23 182.388 253.51C182.335 253.79 182.308 254.1 182.308 254.44V255.58C182.308 255.92 182.335 256.23 182.388 256.51C182.448 256.79 182.538 257.033 182.658 257.24C182.778 257.447 182.935 257.607 183.128 257.72C183.321 257.833 183.555 257.89 183.828 257.89ZM188.184 258.62C187.971 258.62 187.814 258.567 187.714 258.46C187.621 258.353 187.574 258.213 187.574 258.04V257.91C187.574 257.737 187.621 257.597 187.714 257.49C187.814 257.383 187.971 257.33 188.184 257.33C188.398 257.33 188.551 257.383 188.644 257.49C188.744 257.597 188.794 257.737 188.794 257.91V258.04C188.794 258.213 188.744 258.353 188.644 258.46C188.551 258.567 188.398 258.62 188.184 258.62ZM192.549 258.62C191.715 258.62 191.105 258.303 190.719 257.67C190.339 257.037 190.149 256.15 190.149 255.01C190.149 253.87 190.339 252.983 190.719 252.35C191.105 251.717 191.715 251.4 192.549 251.4C193.382 251.4 193.989 251.717 194.369 252.35C194.755 252.983 194.949 253.87 194.949 255.01C194.949 256.15 194.755 257.037 194.369 257.67C193.989 258.303 193.382 258.62 192.549 258.62ZM192.549 257.89C192.822 257.89 193.055 257.833 193.249 257.72C193.442 257.607 193.599 257.447 193.719 257.24C193.839 257.033 193.925 256.79 193.979 256.51C194.039 256.23 194.069 255.92 194.069 255.58V254.44C194.069 254.1 194.039 253.79 193.979 253.51C193.925 253.23 193.839 252.987 193.719 252.78C193.599 252.573 193.442 252.413 193.249 252.3C193.055 252.187 192.822 252.13 192.549 252.13C192.275 252.13 192.042 252.187 191.849 252.3C191.655 252.413 191.499 252.573 191.379 252.78C191.259 252.987 191.169 253.23 191.109 253.51C191.055 253.79 191.029 254.1 191.029 254.44V255.58C191.029 255.92 191.055 256.23 191.109 256.51C191.169 256.79 191.259 257.033 191.379 257.24C191.499 257.447 191.655 257.607 191.849 257.72C192.042 257.833 192.275 257.89 192.549 257.89ZM198.545 258.62C197.712 258.62 197.102 258.303 196.715 257.67C196.335 257.037 196.145 256.15 196.145 255.01C196.145 253.87 196.335 252.983 196.715 252.35C197.102 251.717 197.712 251.4 198.545 251.4C199.378 251.4 199.985 251.717 200.365 252.35C200.752 252.983 200.945 253.87 200.945 255.01C200.945 256.15 200.752 257.037 200.365 257.67C199.985 258.303 199.378 258.62 198.545 258.62ZM198.545 257.89C198.818 257.89 199.052 257.833 199.245 257.72C199.438 257.607 199.595 257.447 199.715 257.24C199.835 257.033 199.922 256.79 199.975 256.51C200.035 256.23 200.065 255.92 200.065 255.58V254.44C200.065 254.1 200.035 253.79 199.975 253.51C199.922 253.23 199.835 252.987 199.715 252.78C199.595 252.573 199.438 252.413 199.245 252.3C199.052 252.187 198.818 252.13 198.545 252.13C198.272 252.13 198.038 252.187 197.845 252.3C197.652 252.413 197.495 252.573 197.375 252.78C197.255 252.987 197.165 253.23 197.105 253.51C197.052 253.79 197.025 254.1 197.025 254.44V255.58C197.025 255.92 197.052 256.23 197.105 256.51C197.165 256.79 197.255 257.033 197.375 257.24C197.495 257.447 197.652 257.607 197.845 257.72C198.038 257.833 198.272 257.89 198.545 257.89Z" fill="#008AA7"/>
<rect x="71.4883" y="280" width="151" height="40" rx="8" fill="#008AA7"/>
<path d="M134.949 305V295.228H139.345C139.793 295.228 140.194 295.303 140.549 295.452C140.913 295.592 141.221 295.797 141.473 296.068C141.725 296.329 141.916 296.647 142.047 297.02C142.177 297.393 142.243 297.804 142.243 298.252C142.243 298.709 142.177 299.125 142.047 299.498C141.916 299.862 141.725 300.179 141.473 300.45C141.221 300.711 140.913 300.917 140.549 301.066C140.194 301.206 139.793 301.276 139.345 301.276H136.797V305H134.949ZM136.797 299.68H139.177C139.531 299.68 139.811 299.587 140.017 299.4C140.222 299.204 140.325 298.929 140.325 298.574V297.93C140.325 297.575 140.222 297.305 140.017 297.118C139.811 296.931 139.531 296.838 139.177 296.838H136.797V299.68ZM149.05 305L148.266 302.508H144.794L144.024 305H142.148L145.424 295.228H147.72L150.968 305H149.05ZM146.558 296.908H146.488L145.242 300.926H147.818L146.558 296.908ZM153.816 305V301.164L150.47 295.228H152.542L154.796 299.358H154.824L157.022 295.228H159.038L155.678 301.15V305H153.816Z" fill="white"/>
<defs>
<filter id="filter0_d_8888_116114" x="0.488281" y="0" width="293" height="240" filterUnits="userSpaceOnUse" color-interpolation-filters="sRGB">
<feFlood flood-opacity="0" result="BackgroundImageFix"/>
<feColorMatrix in="SourceAlpha" type="matrix" values="0 0 0 0 0 0 0 0 0 0 0 0 0 0 0 0 0 0 127 0" result="hardAlpha"/>
<feOffset dy="4"/>
<feGaussianBlur stdDeviation="25"/>
<feComposite in2="hardAlpha" operator="out"/>
<feColorMatrix type="matrix" values="0 0 0 0 0 0 0 0 0 0 0 0 0 0 0 0 0 0 0.05 0"/>
<feBlend mode="normal" in2="BackgroundImageFix" result="effect1_dropShadow_8888_116114"/>
<feBlend mode="normal" in="SourceGraphic" in2="effect1_dropShadow_8888_116114" result="shape"/>
</filter>
<filter id="filter1_d_8888_116114" x="0.488281" y="156" width="293" height="240" filterUnits="userSpaceOnUse" color-interpolation-filters="sRGB">
<feFlood flood-opacity="0" result="BackgroundImageFix"/>
<feColorMatrix in="SourceAlpha" type="matrix" values="0 0 0 0 0 0 0 0 0 0 0 0 0 0 0 0 0 0 127 0" result="hardAlpha"/>
<feOffset dy="4"/>
<feGaussianBlur stdDeviation="25"/>
<feComposite in2="hardAlpha" operator="out"/>
<feColorMatrix type="matrix" values="0 0 0 0 0 0 0 0 0 0 0 0 0 0 0 0 0 0 0.05 0"/>
<feBlend mode="normal" in2="BackgroundImageFix" result="effect1_dropShadow_8888_116114"/>
<feBlend mode="normal" in="SourceGraphic" in2="effect1_dropShadow_8888_116114" result="shape"/>
</filter>
</defs>
</svg>
