<svg width="14" height="20" viewBox="0 0 14 20" fill="none" xmlns="http://www.w3.org/2000/svg">
<path d="M3 0C1.62917 0 0.5 1.12917 0.5 2.5V17.5C0.5 18.8708 1.62917 20 3 20H11.3333C12.7042 20 13.8333 18.8708 13.8333 17.5V2.5C13.8333 1.12917 12.7042 0 11.3333 0H3ZM3 1.66667H11.3333C11.7958 1.66667 12.1667 2.0375 12.1667 2.5V17.5C12.1667 17.9625 11.7958 18.3333 11.3333 18.3333H3C2.5375 18.3333 2.16667 17.9625 2.16667 17.5V2.5C2.16667 2.0375 2.5375 1.66667 3 1.66667ZM7.16667 15.8333C6.70833 15.8333 6.33333 16.2083 6.33333 16.6667C6.33333 17.125 6.70833 17.5 7.16667 17.5C7.625 17.5 8 17.125 8 16.6667C8 16.2083 7.625 15.8333 7.16667 15.8333Z" fill="black"/>
</svg>
