<svg width="21" height="20" viewBox="0 0 21 20" fill="none" xmlns="http://www.w3.org/2000/svg">
<path d="M10.2504 16.8031C6.49044 16.8031 3.45044 13.7631 3.45044 10.0031C3.45044 6.24312 6.49044 3.20312 10.2504 3.20312C14.0104 3.20312 17.0504 6.24312 17.0504 10.0031C17.0504 13.7631 14.0104 16.8031 10.2504 16.8031ZM10.2504 4.00312C6.93044 4.00312 4.25044 6.68312 4.25044 10.0031C4.25044 13.3231 6.93044 16.0031 10.2504 16.0031C13.5704 16.0031 16.2504 13.3231 16.2504 10.0031C16.2504 6.68312 13.5704 4.00312 10.2504 4.00312Z" fill="black"/>
<path d="M8.1705 7.8375C8.2905 7.5175 8.4105 7.2775 8.6505 7.0775C8.8505 6.8775 9.0905 6.7175 9.4105 6.5975C9.7305 6.4775 10.0505 6.4375 10.4105 6.4375C10.6905 6.4375 10.9705 6.4775 11.2105 6.5575C11.4505 6.6375 11.6905 6.7575 11.8905 6.9175C12.0905 7.0775 12.2505 7.2775 12.3305 7.5175C12.4505 7.7575 12.4905 8.0375 12.4905 8.3175C12.4905 8.7175 12.4105 9.0375 12.2505 9.3175C12.0905 9.5975 11.8505 9.8375 11.6105 10.1175L11.0905 10.6375C10.9705 10.7575 10.8505 10.8775 10.8105 10.9975C10.7305 11.1175 10.6905 11.2775 10.6905 11.4375C10.6505 11.5975 10.6505 11.7175 10.6505 12.0375H10.0105C10.0105 11.7175 10.0105 11.5975 10.0505 11.3575C10.0905 11.1575 10.1705 10.9575 10.2505 10.7575C10.3305 10.5975 10.4505 10.4375 10.6105 10.2775C10.7705 10.1175 10.9705 9.9575 11.1705 9.7175C11.3705 9.5175 11.5305 9.3175 11.6505 9.1175C11.7705 8.9175 11.8505 8.6375 11.8505 8.3975C11.8505 8.1975 11.8105 7.9975 11.7305 7.8375C11.6505 7.6775 11.5305 7.5175 11.4105 7.3975C11.2905 7.2775 11.1305 7.1975 10.9305 7.1175C10.7305 7.0375 10.5705 6.9975 10.3705 6.9975C10.0905 6.9975 9.8505 7.0375 9.6505 7.1575C9.4505 7.2375 9.2505 7.3975 9.1305 7.5575C9.0105 7.7175 8.8905 7.9175 8.8105 8.1575C8.7305 8.3975 8.6505 8.5175 8.6505 8.7975H8.0105C8.0105 8.4375 8.0505 8.1575 8.1705 7.8375ZM10.6505 12.7975V13.5975H9.8505V12.7975H10.6505Z" fill="black"/>
</svg>
