<svg width="21" height="22" viewBox="0 0 21 22" fill="none" xmlns="http://www.w3.org/2000/svg">
<path d="M7.16687 14.3307L13.8335 7.66406" stroke="black" stroke-linecap="round" stroke-linejoin="round"/>
<path d="M7.72243 8.77517C8.02925 8.77517 8.27798 8.52644 8.27798 8.21962C8.27798 7.91279 8.02925 7.66406 7.72243 7.66406C7.4156 7.66406 7.16687 7.91279 7.16687 8.21962C7.16687 8.52644 7.4156 8.77517 7.72243 8.77517Z" fill="black" stroke="black" stroke-linecap="round" stroke-linejoin="round"/>
<path d="M13.278 14.3299C13.5848 14.3299 13.8335 14.0811 13.8335 13.7743C13.8335 13.4675 13.5848 13.2188 13.278 13.2188C12.9711 13.2188 12.7224 13.4675 12.7224 13.7743C12.7224 14.0811 12.9711 14.3299 13.278 14.3299Z" fill="black" stroke="black" stroke-linecap="round" stroke-linejoin="round"/>
<path d="M10.5 21C16.0228 21 20.5 16.5228 20.5 11C20.5 5.47715 16.0228 1 10.5 1C4.97715 1 0.5 5.47715 0.5 11C0.5 16.5228 4.97715 21 10.5 21Z" stroke="black" stroke-linecap="round" stroke-linejoin="round"/>
</svg>
