<svg width="16" height="20" viewBox="0 0 16 20" fill="none" xmlns="http://www.w3.org/2000/svg">
<path d="M3.11198 0.962352C3.2757 0.39244 3.79687 0 4.38928 0H10.9508C11.8569 0 12.4968 0.887364 12.2093 1.74723L12.2068 1.75723L10.6296 6.24904H13.8341C15.0176 6.24904 15.5926 7.67882 14.7927 8.51244L14.7877 8.51744L3.94435 19.5882C3.00074 20.5656 1.36974 19.6632 1.69969 18.3434L3.16197 12.4956H1.57846C1.3729 12.4958 1.1701 12.4482 0.986053 12.3566C0.802009 12.2651 0.641748 12.132 0.517905 11.9679C0.394062 11.8038 0.310022 11.6132 0.272408 11.4111C0.234795 11.2091 0.244636 11.001 0.301157 10.8033L3.11322 0.963602L3.11198 0.962352ZM4.39053 1.24981C4.3736 1.24971 4.35711 1.25515 4.34357 1.2653C4.33002 1.27546 4.32018 1.28977 4.31554 1.30605L1.50347 11.147C1.49097 11.197 1.52847 11.247 1.57846 11.247H3.96184C4.05663 11.2471 4.15016 11.2687 4.23535 11.3103C4.32054 11.3518 4.39516 11.4122 4.45356 11.4869C4.51196 11.5616 4.55262 11.6485 4.57244 11.7412C4.59227 11.8339 4.59075 11.9299 4.568 12.0219L2.91201 18.6459C2.90856 18.6581 2.90729 18.6708 2.90826 18.6834C2.90826 18.6884 2.91076 18.6934 2.91201 18.6971C2.91701 18.7071 2.92825 18.7221 2.9495 18.7346C2.972 18.7471 2.99199 18.7471 3.00199 18.7471C3.00643 18.7462 3.01066 18.7445 3.01449 18.7421C3.02572 18.7364 3.03587 18.7288 3.04449 18.7196L3.04948 18.7146L13.8916 7.64633C13.9029 7.63572 13.9104 7.62165 13.9128 7.60633C13.9149 7.58755 13.9119 7.56855 13.9041 7.55134C13.8977 7.5346 13.8869 7.51992 13.8728 7.50885C13.8666 7.50385 13.8566 7.49885 13.8353 7.49885H9.74846C9.64852 7.49892 9.55002 7.47502 9.46123 7.42916C9.37244 7.3833 9.29594 7.31681 9.23816 7.23528C9.18037 7.15374 9.14299 7.05954 9.12913 6.96056C9.11528 6.86159 9.12537 6.76074 9.15855 6.66648L11.0245 1.34979C11.028 1.33815 11.0288 1.32583 11.0267 1.31384C11.0246 1.30186 11.0197 1.29054 11.0124 1.2808C11.005 1.27106 10.9956 1.26318 10.9846 1.2578C10.9737 1.25241 10.9617 1.24968 10.9495 1.24981H4.38928H4.39053Z" fill="black"/>
</svg>
