<svg width="20" height="20" viewBox="0 0 20 20" fill="none" xmlns="http://www.w3.org/2000/svg">
<path d="M10 20C12.6522 20 15.1957 18.9464 17.0711 17.0711C18.9464 15.1957 20 12.6522 20 10C20 7.34784 18.9464 4.8043 17.0711 2.92893C15.1957 1.05357 12.6522 0 10 0C7.34784 0 4.8043 1.05357 2.92893 2.92893C1.05357 4.8043 0 7.34784 0 10C0 12.6522 1.05357 15.1957 2.92893 17.0711C4.8043 18.9464 7.34784 20 10 20ZM10 1.25C10.8212 1.25 11.7587 1.9875 12.5275 3.635C12.7987 4.2175 13.035 4.8875 13.2263 5.625H6.77375C6.965 4.8875 7.20125 4.2175 7.47375 3.635C8.24 1.9875 9.1775 1.25 10 1.25ZM6.34 3.10625C5.97089 3.91477 5.68483 4.75868 5.48625 5.625H2.42C3.4753 3.80109 5.15153 2.41769 7.1425 1.7275C6.84125 2.14 6.5725 2.6075 6.34 3.10625ZM5.24 6.875C5.07822 7.90877 4.99798 8.95365 5 10C5 11.0875 5.08375 12.14 5.24125 13.125H1.825C1.44378 12.1273 1.24889 11.0681 1.25 10C1.25 8.9 1.45375 7.845 1.825 6.875H5.24125H5.24ZM5.48625 14.375C5.70625 15.3038 5.995 16.1525 6.34 16.8938C6.5725 17.3925 6.84125 17.86 7.1425 18.2725C5.15153 17.5823 3.4753 16.1989 2.42 14.375H5.4875H5.48625ZM6.77375 14.375H13.2263C13.0541 15.0583 12.8197 15.7244 12.5262 16.365C11.76 18.0125 10.8225 18.75 10 18.75C9.17875 18.75 8.24125 18.0125 7.4725 16.365C7.1799 15.7243 6.94643 15.0582 6.775 14.375H6.77375ZM13.4925 13.125H6.5075C6.3338 12.0924 6.24766 11.0471 6.25 10C6.25 8.89625 6.34125 7.84375 6.5075 6.875H13.4925C13.6587 7.84375 13.75 8.89625 13.75 10C13.75 11.1038 13.6587 12.1562 13.4925 13.125ZM14.5138 14.375H17.58C16.5247 16.1989 14.8485 17.5823 12.8575 18.2725C13.1588 17.86 13.4275 17.3925 13.66 16.8938C14.005 16.1525 14.2937 15.3038 14.5138 14.375ZM18.1763 13.125H14.7587C14.9163 12.14 15 11.0875 15 10C15 8.9125 14.9163 7.86 14.7587 6.875H18.175C18.5463 7.845 18.75 8.9 18.75 10C18.75 11.1 18.5463 12.155 18.175 13.125H18.1763ZM12.8575 1.7275C14.8485 2.41759 16.5248 3.80101 17.58 5.625H14.5125C14.3139 4.75868 14.0278 3.91477 13.6588 3.10625C13.4362 2.62195 13.1674 2.16023 12.8562 1.7275H12.8575Z" fill="black"/>
</svg>
