<svg width="14" height="20" viewBox="0 0 14 20" fill="none" xmlns="http://www.w3.org/2000/svg">
<path d="M11.9264 4.67514C10.8299 2.81731 9.27319 1.27334 7.40643 0.192089L7.07431 0L6.7422 0.192089C4.84367 1.28776 3.26719 2.86413 2.1714 4.76258C1.0756 6.66104 0.499134 8.81461 0.500001 11.0066C0.500001 11.1494 0.502488 11.2945 0.507338 11.4377C0.57333 13.38 1.31611 15.0143 2.65539 16.164C3.68025 17.0438 4.99486 17.5809 6.41124 17.7091V20H7.73771V9.38825H6.41108V16.3741C4.17001 16.1145 1.93951 14.5313 1.83294 11.3926C1.82854 11.2643 1.8263 11.1345 1.8263 11.0066C1.83025 9.1139 2.31363 7.25302 3.23134 5.59766C4.14905 3.94229 5.47117 2.54639 7.07431 1.54024C8.67743 2.54641 9.99951 3.94232 10.9172 5.59768C11.8349 7.25305 12.3182 9.11391 12.3222 11.0066C12.3222 11.1345 12.3199 11.2643 12.3155 11.3927C12.2303 13.9035 10.7856 15.4188 9.06385 16.0575V17.4614C9.95732 17.2081 10.7859 16.7656 11.4932 16.1639C12.8325 15.0143 13.5753 13.3799 13.6413 11.4377C13.6461 11.2944 13.6486 11.1494 13.6486 11.0066C13.6498 8.78023 13.0552 6.59413 11.9264 4.67514V4.67514Z" fill="black"/>
</svg>
