<svg width="22" height="20" viewBox="0 0 22 20" fill="none" xmlns="http://www.w3.org/2000/svg">
<path d="M20.468 5.55508H15.561C15.8071 5.43089 16.0328 5.26969 16.2301 5.07712C16.7879 4.51937 17.1012 3.76289 17.1012 2.97411C17.1012 2.18532 16.7879 1.42885 16.2301 0.871096C15.6723 0.313342 14.9159 0 14.1271 0C13.3383 0 12.5818 0.313342 12.0241 0.871096C11.6417 1.25346 11.3443 1.84825 11.1213 2.64485C10.8982 1.84825 10.6008 1.25346 10.2185 0.871096C9.66071 0.313342 8.90423 -5.87689e-09 8.11545 0C7.32667 5.87689e-09 6.57019 0.313342 6.01244 0.871096C5.45469 1.42885 5.14134 2.18532 5.14134 2.97411C5.14134 3.76289 5.45469 4.51937 6.01244 5.07712C6.20975 5.26969 6.43542 5.43089 6.68158 5.55508H1.77455C1.43652 5.55508 1.11233 5.68936 0.873308 5.92838C0.634283 6.16741 0.5 6.4916 0.5 6.82963V10.2284C0.5 10.5665 0.634283 10.8907 0.873308 11.1297C1.11233 11.3687 1.43652 11.503 1.77455 11.503H2.1994V18.7254C2.1994 19.0635 2.33369 19.3877 2.57271 19.6267C2.81174 19.8657 3.13592 20 3.47396 20H18.7686C19.1066 20 19.4308 19.8657 19.6698 19.6267C19.9088 19.3877 20.0431 19.0635 20.0431 18.7254V11.503H20.468C20.806 11.503 21.1302 11.3687 21.3692 11.1297C21.6083 10.8907 21.7425 10.5665 21.7425 10.2284V6.82963C21.7425 6.4916 21.6083 6.16741 21.3692 5.92838C21.1302 5.68936 20.806 5.55508 20.468 5.55508ZM12.6189 1.47651C13.0193 1.07696 13.5614 0.851735 14.1271 0.849853C14.5459 0.854512 14.954 0.982235 15.3007 1.21712C15.6474 1.45201 15.9174 1.78369 16.0771 2.17087C16.2367 2.55805 16.2789 2.98363 16.1985 3.39463C16.118 3.80562 15.9185 4.18389 15.6247 4.48233C14.86 5.24706 12.7251 5.49135 11.5567 5.54445C11.6098 4.37611 11.8541 2.24124 12.6189 1.47651ZM6.61785 1.47651C6.81514 1.279 7.04942 1.12232 7.3073 1.01542C7.56518 0.908516 7.8416 0.853493 8.12076 0.853493C8.39992 0.853493 8.67634 0.908516 8.93422 1.01542C9.1921 1.12232 9.42638 1.279 9.62367 1.47651C10.3884 2.24124 10.6327 4.37611 10.6858 5.54445C9.51746 5.49135 7.38258 5.24706 6.61785 4.48233C6.42034 4.28504 6.26366 4.05076 6.15676 3.79288C6.04986 3.535 5.99484 3.25858 5.99484 2.97942C5.99484 2.70026 6.04986 2.42384 6.15676 2.16596C6.26366 1.90807 6.42034 1.67379 6.61785 1.47651ZM1.3497 10.2284V6.82963C1.3497 6.71695 1.39446 6.60889 1.47414 6.52921C1.55381 6.44954 1.66187 6.40478 1.77455 6.40478H10.6964V10.6533H1.77455C1.66187 10.6533 1.55381 10.6085 1.47414 10.5288C1.39446 10.4492 1.3497 10.3411 1.3497 10.2284ZM3.0491 18.7254V11.503H10.6964V19.1503H3.47396C3.36128 19.1503 3.25322 19.1055 3.17354 19.0259C3.09387 18.9462 3.0491 18.8381 3.0491 18.7254ZM19.1934 18.7254C19.1934 18.8381 19.1487 18.9462 19.069 19.0259C18.9893 19.1055 18.8813 19.1503 18.7686 19.1503H11.5461V11.503H19.1934V18.7254ZM20.8928 10.2284C20.8928 10.3411 20.8481 10.4492 20.7684 10.5288C20.6887 10.6085 20.5807 10.6533 20.468 10.6533H11.5461V6.40478H20.468C20.5807 6.40478 20.6887 6.44954 20.7684 6.52921C20.8481 6.60889 20.8928 6.71695 20.8928 6.82963V10.2284Z" fill="black"/>
</svg>
