<svg width="22" height="22" viewBox="0 0 22 22" fill="none" xmlns="http://www.w3.org/2000/svg">
<path d="M10.5 21V13M10.5 9V13M10.5 13L14.5 11M15.5 6C15.5 4.67392 14.9732 3.40215 14.0355 2.46447C13.0979 1.52678 11.8261 1 10.5 1C9.17392 1 7.90215 1.52678 6.96447 2.46447C6.02678 3.40215 5.5 4.67392 5.5 6M10.5 17H6C4.54131 17 3.14236 16.4205 2.11091 15.3891C1.07946 14.3576 0.5 12.9587 0.5 11.5C0.5 10.0413 1.07946 8.64236 2.11091 7.61091C3.14236 6.57946 4.54131 6 6 6H7.5M10.5 17H15C16.4169 17.0022 17.7799 16.4576 18.8051 15.4796C19.8303 14.5016 20.4385 13.1656 20.5029 11.7502C20.5674 10.3349 20.0832 8.94919 19.1511 7.88203C18.2191 6.81488 16.9112 6.14858 15.5 6.022" stroke="black" stroke-linecap="round" stroke-linejoin="round"/>
</svg>
