<svg width="16" height="17" viewBox="0 0 16 17" fill="none" xmlns="http://www.w3.org/2000/svg">
<path d="M3.82665 11.1693C3.89999 10.8426 3.76665 10.3759 3.53332 10.1426L1.91332 8.5226C1.40665 8.01594 1.20665 7.47594 1.35332 7.00927C1.50665 6.5426 1.97999 6.2226 2.68665 6.1026L4.76665 5.75594C5.06665 5.7026 5.43332 5.43594 5.57332 5.1626L6.71999 2.8626C7.05332 2.2026 7.50665 1.83594 7.99999 1.83594C8.49332 1.83594 8.94665 2.2026 9.27999 2.8626L10.4267 5.1626C10.5133 5.33594 10.6933 5.5026 10.8867 5.61594L3.70665 12.7959C3.61332 12.8893 3.45332 12.8026 3.47999 12.6693L3.82665 11.1693Z" fill="#FFDA44"/>
<path d="M12.4667 10.1412C12.2267 10.3812 12.0934 10.8412 12.1734 11.1679L12.6334 13.1746C12.8267 14.0079 12.7067 14.6346 12.2934 14.9346C12.1267 15.0546 11.9267 15.1146 11.6934 15.1146C11.3534 15.1146 10.9534 14.9879 10.5134 14.7279L8.56003 13.5679C8.25337 13.3879 7.7467 13.3879 7.44003 13.5679L5.4867 14.7279C4.7467 15.1612 4.11337 15.2346 3.7067 14.9346C3.55337 14.8212 3.44003 14.6679 3.3667 14.4679L11.4734 6.36123C11.78 6.05457 12.2134 5.91457 12.6334 5.9879L13.3067 6.10123C14.0134 6.22123 14.4867 6.54123 14.64 7.0079C14.7867 7.47457 14.5867 8.01457 14.08 8.52123L12.4667 10.1412Z" fill="#FFDA44"/>
</svg>
