<svg width="16" height="22" viewBox="0 0 16 22" fill="none" xmlns="http://www.w3.org/2000/svg">
<path d="M14.615 13.9425C14.615 18.2735 11.8886 21 7.55752 21C3.22646 21 0.5 18.2735 0.5 13.9425C0.5 9.2948 5.55936 3.02047 7.11104 1.2056C7.16625 1.14112 7.23477 1.08936 7.31188 1.05387C7.389 1.01838 7.47288 1 7.55777 1C7.64266 1 7.72654 1.01838 7.80366 1.05387C7.88077 1.08936 7.94929 1.14112 8.0045 1.2056C9.55569 3.02047 14.615 9.2948 14.615 13.9425Z" stroke="black" stroke-miterlimit="10"/>
<path d="M11.8704 14.3359C11.8704 15.2718 11.4987 16.1694 10.8369 16.8311C10.1751 17.4929 9.27756 17.8647 8.34167 17.8647" stroke="black" stroke-linecap="round" stroke-linejoin="round"/>
</svg>
