<svg width="40" height="40" viewBox="0 0 40 40" fill="none" xmlns="http://www.w3.org/2000/svg">
<path fill-rule="evenodd" clip-rule="evenodd" d="M26.0543 0C30.07 0 32.0773 0 34.239 0.683333C36.599 1.54233 38.4577 3.401 39.3167 5.761C40 7.92233 40 9.93033 40 13.9457V26.0543C40 30.07 40 32.0773 39.3167 34.239C38.4577 36.599 36.599 38.4577 34.239 39.3163C32.0773 40 30.07 40 26.0543 40H13.9457C9.93 40 7.92233 40 5.761 39.3163C3.401 38.4577 1.54233 36.599 0.683333 34.239C0 32.0773 0 30.07 0 26.0543V13.9457C0 9.93033 0 7.92233 0.683333 5.761C1.54233 3.401 3.401 1.54233 5.761 0.683333C7.92233 0 9.93 0 13.9457 0H26.0543Z" fill="#E0F7FE"/>
<path fill-rule="evenodd" clip-rule="evenodd" d="M19.9695 8.00017C25.3799 8.00017 29.9511 11.5966 31.4328 16.5329H28.0052C26.6665 13.4149 23.5728 11.2312 19.9695 11.2312C15.2251 11.2312 11.3636 15.0164 11.2294 19.7365L11.1644 28.1115C9.20019 25.9757 8 23.1238 8 19.9906C8 13.3683 13.3589 8 19.9695 8V8.00017ZM12.9239 19.7947C13.0808 15.9645 16.3622 12.804 19.9696 12.804C23.577 12.804 26.1378 15.1079 26.9246 18.2216C28.5421 18.2216 30.1756 18.238 31.8113 18.238C31.8951 18.8101 31.939 19.3953 31.939 19.9908C31.939 26.613 26.5801 31.9813 19.9695 31.9813C19.2366 31.9813 18.5192 31.915 17.8227 31.7887V28.4839C18.5096 28.6576 19.2288 28.7502 19.9695 28.7502C24.2874 28.7502 27.8738 25.6149 28.5849 21.4928H26.9864C26.2969 24.7409 23.4174 27.1777 19.9695 27.1777C18.4697 27.1777 17.0775 26.7165 15.9261 25.9282C15.9261 27.7368 16.009 29.4583 16.009 31.3085C14.9176 30.9254 13.8984 30.3882 12.9776 29.7232V28.4734L12.9237 19.7945L12.9239 19.7947ZM19.9696 16.0468C22.1441 16.0468 23.9068 17.8127 23.9068 19.9909C23.9068 22.1692 22.1441 23.935 19.9696 23.935C17.7952 23.935 16.0325 22.1692 16.0325 19.9909C16.0325 17.8127 17.7952 16.0468 19.9696 16.0468V16.0468Z" fill="#0188A5"/>
<path d="M20.139 22.2855C21.3203 22.2855 22.2779 21.3261 22.2779 20.1427C22.2779 18.9593 21.3203 18 20.139 18C18.9576 18 18 18.9593 18 20.1427C18 21.3261 18.9576 22.2855 20.139 22.2855Z" fill="#FDAE09"/>
</svg>
