<svg width="40" height="40" viewBox="0 0 40 40" fill="none" xmlns="http://www.w3.org/2000/svg">
<rect width="40" height="40" rx="20" fill="#E0F7FE"/>
<path d="M26.375 20C26.375 13.775 23.525 8.75 20 8.75C13.775 8.75 8.75 13.775 8.75 20C8.75 26.225 13.775 31.25 20 31.25C23.525 31.25 26.375 26.225 26.375 20Z" fill="#FFE8A6"/>
<path d="M20 8.75C23.525 8.75 26.375 13.775 26.375 20C26.375 26.225 23.525 31.25 20 31.25C26.225 31.25 31.25 26.225 31.25 20C31.25 13.775 26.225 8.75 20 8.75Z" fill="#3E4347"/>
<path d="M26.3375 18.6117C25.1 18.7992 24.125 19.8867 24.125 21.1992C24.125 22.3992 24.9125 23.4117 26 23.7117C26.225 22.5492 26.375 21.2742 26.375 19.9617C26.375 19.5492 26.375 19.0617 26.3375 18.6117V18.6117ZM17.075 23.3742H16.925C17 23.1492 17.075 22.8867 17.075 22.6242C17.075 21.3867 16.0625 20.3742 14.825 20.3742C13.5875 20.3742 12.575 21.3867 12.575 22.6242C12.575 23.7117 13.325 24.5742 14.3375 24.7992C13.9625 25.3617 13.7375 25.9992 13.7375 26.7492C13.7375 28.6242 15.2375 30.1242 17.1125 30.1242C18.9875 30.1242 20.4875 28.6242 20.4875 26.7492C20.45 24.9117 18.9125 23.3742 17.075 23.3742V23.3742ZM17 15.9492C17.825 15.9492 18.5 15.2742 18.5 14.4492C18.5 14.2242 18.425 13.9992 18.35 13.7742C18.5375 13.8492 18.725 13.8867 18.95 13.8867C20 13.8867 20.825 13.0617 20.825 12.0117C20.825 10.9617 20 10.1367 18.95 10.1367C17.9 10.1367 17.075 10.9617 17.075 12.0117C17.075 12.3867 17.1875 12.7242 17.375 12.9867C17.2625 12.9492 17.15 12.9492 17.0375 12.9492C16.2125 12.9492 15.5375 13.6242 15.5375 14.4492C15.5 15.3117 16.175 15.9492 17 15.9492" fill="#F4DC9F"/>
<path d="M21.875 16.3242C22.7034 16.3242 23.375 15.6526 23.375 14.8242C23.375 13.9958 22.7034 13.3242 21.875 13.3242C21.0466 13.3242 20.375 13.9958 20.375 14.8242C20.375 15.6526 21.0466 16.3242 21.875 16.3242Z" fill="#F4DC9F"/>
<path d="M12.5375 19.2109C13.3659 19.2109 14.0375 18.5394 14.0375 17.7109C14.0375 16.8825 13.3659 16.2109 12.5375 16.2109C11.709 16.2109 11.0375 16.8825 11.0375 17.7109C11.0375 18.5394 11.709 19.2109 12.5375 19.2109Z" fill="#F4DC9F"/>
<path d="M22.625 12.1992C23.0392 12.1992 23.375 11.8634 23.375 11.4492C23.375 11.035 23.0392 10.6992 22.625 10.6992C22.2108 10.6992 21.875 11.035 21.875 11.4492C21.875 11.8634 22.2108 12.1992 22.625 12.1992Z" fill="#F4DC9F"/>
<path d="M11.0375 23.375C11.4517 23.375 11.7875 23.0392 11.7875 22.625C11.7875 22.2108 11.4517 21.875 11.0375 21.875C10.6233 21.875 10.2875 22.2108 10.2875 22.625C10.2875 23.0392 10.6233 23.375 11.0375 23.375Z" fill="#F4DC9F"/>
<path d="M17.375 20.3359C17.9963 20.3359 18.5 19.8323 18.5 19.2109C18.5 18.5896 17.9963 18.0859 17.375 18.0859C16.7537 18.0859 16.25 18.5896 16.25 19.2109C16.25 19.8323 16.7537 20.3359 17.375 20.3359Z" fill="#F4DC9F"/>
<path d="M13.625 14.6367C14.0392 14.6367 14.375 14.3009 14.375 13.8867C14.375 13.4725 14.0392 13.1367 13.625 13.1367C13.2108 13.1367 12.875 13.4725 12.875 13.8867C12.875 14.3009 13.2108 14.6367 13.625 14.6367Z" fill="#F4DC9F"/>
<path d="M23.75 27.7257C23.75 28.0632 23.8625 28.4007 24.0875 28.6632C24.575 27.9507 24.9875 27.1632 25.325 26.2632H25.2875C24.425 26.2257 23.75 26.9007 23.75 27.7257Z" fill="#F4DC9F"/>
<path d="M29.375 21.1992C29.375 19.7367 28.2125 18.5742 26.75 18.5742C26.6 18.5742 26.45 18.5742 26.3375 18.6117C26.375 19.0617 26.375 19.5492 26.375 19.9992C26.375 21.3117 26.2625 22.5492 26 23.7492C26.225 23.8242 26.4875 23.8617 26.75 23.8617C28.2125 23.8242 29.375 22.6617 29.375 21.1992Z" fill="#464D51"/>
<path d="M27.5 27.5C27.9142 27.5 28.25 27.1642 28.25 26.75C28.25 26.3358 27.9142 26 27.5 26C27.0858 26 26.75 26.3358 26.75 26.75C26.75 27.1642 27.0858 27.5 27.5 27.5Z" fill="#464D51"/>
<path d="M25.25 29.2227C26.075 29.2227 26.75 28.5477 26.75 27.7227C26.75 26.8977 26.1125 26.2602 25.2875 26.2227C24.95 27.1227 24.5375 27.9477 24.05 28.6227C24.35 28.9977 24.7625 29.2227 25.25 29.2227" fill="#464D51"/>
</svg>
