<svg width="375" height="443" viewBox="0 0 375 443" fill="none" xmlns="http://www.w3.org/2000/svg">
<defs>
<filter id="filter0_d_4600_104101" x="-28.5649" y="-2.67389" width="374.013" height="299.943" filterUnits="userSpaceOnUse" color-interpolation-filters="sRGB">
<feFlood flood-opacity="0" result="BackgroundImageFix"/>
<feColorMatrix in="SourceAlpha" type="matrix" values="0 0 0 0 0 0 0 0 0 0 0 0 0 0 0 0 0 0 127 0" result="hardAlpha"/>
<feOffset dx="4.33376" dy="13.0013"/>
<feGaussianBlur stdDeviation="43.3376"/>
<feComposite in2="hardAlpha" operator="out"/>
<feColorMatrix type="matrix" values="0 0 0 0 0.0666667 0 0 0 0 0.0941176 0 0 0 0 0.152941 0 0 0 0.1 0"/>
<feBlend mode="normal" in2="BackgroundImageFix" result="effect1_dropShadow_4600_104101"/>
<feBlend mode="normal" in="SourceGraphic" in2="effect1_dropShadow_4600_104101" result="shape"/>
</filter>
<filter id="filter1_d_4600_104101" x="91.87" y="110.73" width="10.5695" height="9.57864" filterUnits="userSpaceOnUse" color-interpolation-filters="sRGB">
<feFlood flood-opacity="0" result="BackgroundImageFix"/>
<feColorMatrix in="SourceAlpha" type="matrix" values="0 0 0 0 0 0 0 0 0 0 0 0 0 0 0 0 0 0 127 0" result="hardAlpha"/>
<feOffset dy="1.02053"/>
<feColorMatrix type="matrix" values="0 0 0 0 0 0 0 0 0 0 0 0 0 0 0 0 0 0 0.06 0"/>
<feBlend mode="normal" in2="BackgroundImageFix" result="effect1_dropShadow_4600_104101"/>
<feBlend mode="normal" in="SourceGraphic" in2="effect1_dropShadow_4600_104101" result="shape"/>
</filter>
<filter id="filter2_d_4600_104101" x="-35.8238" y="180.588" width="360.303" height="262.089" filterUnits="userSpaceOnUse" color-interpolation-filters="sRGB">
<feFlood flood-opacity="0" result="BackgroundImageFix"/>
<feColorMatrix in="SourceAlpha" type="matrix" values="0 0 0 0 0 0 0 0 0 0 0 0 0 0 0 0 0 0 127 0" result="hardAlpha"/>
<feOffset dx="4.33376" dy="13.0013"/>
<feGaussianBlur stdDeviation="43.3376"/>
<feComposite in2="hardAlpha" operator="out"/>
<feColorMatrix type="matrix" values="0 0 0 0 0.0666667 0 0 0 0 0.0941176 0 0 0 0 0.152941 0 0 0 0.1 0"/>
<feBlend mode="normal" in2="BackgroundImageFix" result="effect1_dropShadow_4600_104101"/>
<feBlend mode="normal" in="SourceGraphic" in2="effect1_dropShadow_4600_104101" result="shape"/>
</filter>
<filter id="filter3_d_4600_104101" x="59.6586" y="106.326" width="360.35" height="256.35" filterUnits="userSpaceOnUse" color-interpolation-filters="sRGB">
<feFlood flood-opacity="0" result="BackgroundImageFix"/>
<feColorMatrix in="SourceAlpha" type="matrix" values="0 0 0 0 0 0 0 0 0 0 0 0 0 0 0 0 0 0 127 0" result="hardAlpha"/>
<feOffset dx="4.33376" dy="13.0013"/>
<feGaussianBlur stdDeviation="43.3376"/>
<feComposite in2="hardAlpha" operator="out"/>
<feColorMatrix type="matrix" values="0 0 0 0 0.0666667 0 0 0 0 0.0941176 0 0 0 0 0.152941 0 0 0 0.1 0"/>
<feBlend mode="normal" in2="BackgroundImageFix" result="effect1_dropShadow_4600_104101"/>
<feBlend mode="normal" in="SourceGraphic" in2="effect1_dropShadow_4600_104101" result="shape"/>
</filter>
<linearGradient id="paint0_linear_4600_104101" x1="93.317" y1="110.59" x2="91.7302" y2="117.206" gradientUnits="userSpaceOnUse">
<stop stop-color="white"/>
<stop offset="1" stop-color="#F0F0F0"/>
</linearGradient>
<clipPath id="clip0_4600_104101">
<rect width="49" height="54" fill="white" transform="translate(66 180)"/>
</clipPath>
<clipPath id="clip1_4600_104101">
<rect width="27" height="31.6957" fill="white" transform="translate(239 287)"/>
</clipPath>
</defs>
<path d="M171.243 83.7231C171.243 83.7231 158.883 147.306 87.8151 149.818C16.7471 152.33 -2.70042 254.696 69.445 273.71C141.59 292.723 106.049 341.932 153.536 351.898C207.508 363.226 208.178 283.488 245.709 282.206C328.541 279.378 371.406 241.494 341.45 210.767C288.866 156.83 261.775 165.525 263.615 122.421C265.454 79.3171 187.641 31.7805 171.243 83.7231Z" fill="#F5FBFD"/>
<g clip-path="url(#clip0_4600_104101)">
<path d="M114.267 214.852C110.994 228.383 97.6993 236.619 84.5713 233.245C71.4433 229.87 63.4596 216.163 66.7344 202.631C70.0092 189.098 83.3003 180.862 96.424 184.235C109.548 187.609 117.539 201.317 114.267 214.852Z" fill="#F7931A"/>
<path d="M101.302 205.142C101.789 201.78 99.3071 199.974 95.9131 198.772L97.0145 194.219L94.326 193.528L93.2533 197.957C92.5463 197.776 91.8206 197.604 91.0978 197.434L92.1756 192.971L89.4928 192.282L88.3906 196.833C87.8058 196.696 87.231 196.56 86.6742 196.417V196.403L82.969 195.446L82.2505 198.409C82.2505 198.409 84.245 198.88 84.2034 198.91C85.2918 199.19 85.4887 199.932 85.4564 200.521L84.2019 205.706C84.297 205.731 84.3903 205.762 84.4814 205.799C84.3916 205.776 84.296 205.751 84.194 205.725L82.4359 212.991C82.303 213.332 81.9653 213.844 81.2037 213.649C81.2303 213.689 79.2495 213.147 79.2495 213.147L77.9253 216.323L81.42 217.223C82.0709 217.391 82.7089 217.567 83.3369 217.732L82.2247 222.333L84.9103 223.025L86.0125 218.468C86.746 218.674 87.4581 218.863 88.155 219.042L87.0571 223.577L89.7457 224.268L90.8579 219.674C95.4425 220.568 98.8897 220.207 100.342 215.932C101.511 212.49 100.284 210.505 97.8716 209.21C99.6233 208.793 100.949 207.602 101.302 205.142ZM95.1594 214.021C94.3288 217.463 88.7075 215.603 86.8854 215.132L88.3619 209.031C90.1839 209.504 96.0309 210.432 95.1594 214.021ZM95.9907 205.091C95.2327 208.222 90.554 206.631 89.0365 206.242L90.3751 200.705C91.8932 201.098 96.7803 201.826 95.9907 205.091Z" fill="white"/>
</g>
<path d="M275.995 116.27L263.627 141.458L275.995 134.559V116.27Z" fill="#8A92B2"/>
<path d="M275.995 134.559L263.627 141.458L275.995 150.433V134.559Z" fill="#62688F"/>
<path d="M288.366 141.458L275.995 116.27V134.559L288.366 141.458Z" fill="#62688F"/>
<path d="M275.995 150.433L288.366 141.458L275.995 134.559V150.433Z" fill="#454A75"/>
<path d="M263.627 144.338L275.995 165.73V153.307L263.627 144.338Z" fill="#8A92B2"/>
<path d="M275.995 153.307V165.73L288.373 144.338L275.995 153.307Z" fill="#62688F"/>
<g clip-path="url(#clip1_4600_104101)">
<path d="M252.5 287L249.643 288.672L241.857 293.252L239 294.924V310.772L241.857 312.444L249.714 317.024L252.571 318.696L255.429 317.024L263.143 312.444L266 310.772V294.924L263.143 293.252L255.357 288.672L252.5 287V287ZM244.714 307.428V298.268L252.5 293.688L260.286 298.268V307.428L252.5 312.008L244.714 307.428Z" fill="#2563EB"/>
</g>
<g filter="url(#filter0_d_4600_104101)">
<rect width="187.491" height="83.368" rx="16.3285" transform="matrix(0.970296 0.241922 -0.224802 0.974404 72.5178 71)" fill="white"/>
<rect x="84.7686" y="96.6475" width="48.9823" height="40.8182" rx="10.2053" transform="matrix(0.972423 0.233222 -0.233224 0.972424 24.8782 -17.1047)" fill="#F3F4F6"/>
<rect x="92.3112" y="108.95" width="28.5749" height="20.4106" rx="2.04106" transform="matrix(0.972423 0.233222 -0.233224 0.972424 27.9554 -18.5245)" fill="white"/>
<mask id="mask0_4600_104101" style="mask-type:alpha" maskUnits="userSpaceOnUse" x="87" y="109" width="33" height="27">
<rect x="92.3112" y="108.95" width="28.5749" height="20.4106" rx="2.04106" transform="matrix(0.972423 0.233222 -0.233224 0.972424 27.9554 -18.5245)" fill="white"/>
</mask>
<g mask="url(#mask0_4600_104101)">
<path fill-rule="evenodd" clip-rule="evenodd" d="M120.098 115.614L92.3112 108.95L91.9939 110.273L119.781 116.937L120.098 115.614ZM119.463 118.261L91.6765 111.596L91.3592 112.919L119.146 119.584L119.463 118.261ZM91.0418 114.242L118.829 120.907L118.511 122.23L90.7245 115.565L91.0418 114.242ZM118.194 123.553L90.4071 116.889L90.0898 118.212L117.877 124.876L118.194 123.553ZM89.7724 119.535L117.559 126.2L117.242 127.523L89.4551 120.858L89.7724 119.535ZM116.925 128.846L89.1378 122.182L88.8204 123.505L116.607 130.169L116.925 128.846ZM88.5031 124.828L116.29 131.492L115.973 132.815L88.1857 126.151L88.5031 124.828ZM115.655 134.139L87.8684 127.474L87.551 128.797L115.338 135.462L115.655 134.139Z" fill="#D02F44"/>
<rect x="92.3112" y="108.95" width="12.2464" height="9.52496" transform="matrix(0.972423 0.233222 -0.233224 0.972424 27.9554 -18.5245)" fill="#46467F"/>
<g filter="url(#filter1_d_4600_104101)">
<path fill-rule="evenodd" clip-rule="evenodd" d="M98.954 113.341C99.3194 113.429 99.6866 113.204 99.7743 112.838C99.8619 112.473 99.6367 112.106 99.2714 112.018C98.906 111.93 98.5387 112.155 98.4511 112.521C98.3635 112.886 98.5886 113.253 98.954 113.341ZM94.4815 111.569C94.3939 111.934 94.0267 112.16 93.6613 112.072C93.2959 111.984 93.0707 111.617 93.1583 111.252C93.246 110.886 93.6132 110.661 93.9786 110.749C94.344 110.836 94.5692 111.204 94.4815 111.569ZM97.1279 112.204C97.0403 112.569 96.673 112.794 96.3076 112.707C95.9423 112.619 95.7171 112.252 95.8047 111.886C95.8924 111.521 96.2596 111.296 96.625 111.384C96.9904 111.471 97.2155 111.838 97.1279 112.204ZM102.421 113.473C102.333 113.838 101.966 114.064 101.6 113.976C101.235 113.888 101.01 113.521 101.097 113.156C101.185 112.79 101.552 112.565 101.918 112.653C102.283 112.74 102.508 113.108 102.421 113.473ZM94.6671 113.712C95.0325 113.8 95.3997 113.575 95.4874 113.209C95.575 112.844 95.3498 112.477 94.9845 112.389C94.6191 112.302 94.2518 112.527 94.1642 112.892C94.0766 113.257 94.3017 113.625 94.6671 113.712ZM98.1337 113.844C98.0461 114.21 97.6789 114.435 97.3135 114.347C96.9481 114.26 96.7229 113.892 96.8106 113.527C96.8982 113.162 97.2654 112.936 97.6308 113.024C97.9962 113.112 98.2214 113.479 98.1337 113.844ZM99.9598 114.982C100.325 115.07 100.692 114.844 100.78 114.479C100.868 114.114 100.643 113.746 100.277 113.659C99.9118 113.571 99.5446 113.796 99.4569 114.162C99.3693 114.527 99.5945 114.894 99.9598 114.982ZM101.786 116.12C101.698 116.485 101.331 116.71 100.966 116.622C100.6 116.535 100.375 116.168 100.463 115.802C100.55 115.437 100.918 115.212 101.283 115.299C101.648 115.387 101.874 115.754 101.786 116.12ZM98.3193 115.988C98.6847 116.075 99.0519 115.85 99.1396 115.485C99.2272 115.119 99.0021 114.752 98.6367 114.664C98.2713 114.577 97.904 114.802 97.8164 115.167C97.7288 115.533 97.9539 115.9 98.3193 115.988ZM96.4932 114.85C96.4056 115.215 96.0383 115.44 95.6729 115.353C95.3076 115.265 95.0824 114.898 95.17 114.532C95.2577 114.167 95.6249 113.942 95.9903 114.03C96.3557 114.117 96.5808 114.484 96.4932 114.85ZM93.0266 114.718C93.392 114.806 93.7592 114.581 93.8468 114.216C93.9345 113.85 93.7093 113.483 93.3439 113.395C92.9785 113.308 92.6113 113.533 92.5237 113.898C92.436 114.264 92.6612 114.631 93.0266 114.718ZM94.8527 115.856C94.765 116.221 94.3978 116.446 94.0324 116.359C93.667 116.271 93.4419 115.904 93.5295 115.539C93.6171 115.173 93.9844 114.948 94.3498 115.036C94.7151 115.123 94.9403 115.491 94.8527 115.856ZM96.6788 116.994C97.0442 117.081 97.4114 116.856 97.499 116.491C97.5867 116.125 97.3615 115.758 96.9961 115.671C96.6307 115.583 96.2635 115.808 96.1759 116.173C96.0882 116.539 96.3134 116.906 96.6788 116.994ZM100.145 117.125C100.058 117.491 99.6905 117.716 99.3251 117.628C98.9598 117.54 98.7346 117.173 98.8222 116.808C98.9099 116.442 99.2771 116.217 99.6425 116.305C100.008 116.392 100.233 116.76 100.145 117.125ZM100.331 119.269C100.696 119.357 101.064 119.131 101.151 118.766C101.239 118.401 101.014 118.033 100.648 117.946C100.283 117.858 99.9157 118.083 99.8281 118.449C99.7404 118.814 99.9656 119.181 100.331 119.269ZM98.5049 118.131C98.4172 118.497 98.05 118.722 97.6846 118.634C97.3192 118.546 97.0941 118.179 97.1817 117.814C97.2693 117.448 97.6366 117.223 98.002 117.311C98.3673 117.399 98.5925 117.766 98.5049 118.131ZM95.0382 117.999C95.4036 118.087 95.7709 117.862 95.8585 117.496C95.9461 117.131 95.721 116.764 95.3556 116.676C94.9902 116.588 94.623 116.814 94.5353 117.179C94.4477 117.544 94.6729 117.912 95.0382 117.999ZM93.2121 116.862C93.1245 117.227 92.7573 117.452 92.3919 117.364C92.0265 117.277 91.8013 116.91 91.889 116.544C91.9766 116.179 92.3438 115.954 92.7092 116.041C93.0746 116.129 93.2998 116.496 93.2121 116.862Z" fill="url(#paint0_linear_4600_104101)"/>
</g>
</g>
<path d="M146.245 116.006L144.551 123.068C144.365 123.843 144.443 124.52 144.785 125.1C145.134 125.675 145.716 126.061 146.533 126.257C147.349 126.452 148.043 126.373 148.615 126.018C149.187 125.658 149.567 125.091 149.753 124.315L151.446 117.253L153.439 117.731L151.702 124.971C151.406 126.207 150.751 127.104 149.736 127.664C148.727 128.226 147.52 128.338 146.114 128.001C144.714 127.665 143.689 127.017 143.039 126.058C142.389 125.099 142.212 124.002 142.509 122.766L144.245 115.526L146.245 116.006ZM153.335 126.208L155.273 126.672C155.213 127.199 155.377 127.675 155.767 128.102C156.157 128.524 156.696 128.817 157.384 128.982C158.056 129.143 158.639 129.125 159.135 128.927C159.636 128.73 159.942 128.399 160.054 127.934C160.15 127.53 160.073 127.168 159.823 126.845C159.573 126.518 159.117 126.187 158.454 125.853L157.086 125.164C156.115 124.68 155.438 124.127 155.057 123.505C154.682 122.885 154.59 122.174 154.782 121.373C155.019 120.386 155.598 119.678 156.521 119.249C157.444 118.82 158.517 118.753 159.742 119.046C160.972 119.341 161.889 119.884 162.492 120.673C163.101 121.459 163.3 122.348 163.09 123.341L161.183 122.884C161.261 122.351 161.134 121.889 160.802 121.497C160.471 121.101 159.982 120.825 159.336 120.67C158.706 120.519 158.16 120.539 157.699 120.729C157.243 120.92 156.96 121.248 156.848 121.713C156.759 122.085 156.836 122.424 157.08 122.728C157.329 123.034 157.778 123.352 158.425 123.682L159.641 124.285C160.711 124.815 161.443 125.389 161.835 126.008C162.228 126.627 162.324 127.352 162.125 128.184C161.871 129.244 161.271 129.991 160.325 130.425C159.385 130.856 158.239 130.909 156.885 130.584C155.593 130.274 154.625 129.728 153.982 128.945C153.346 128.158 153.13 127.246 153.335 126.208ZM165.832 120.704L169.917 121.683C171.592 122.085 172.78 122.884 173.483 124.08C174.185 125.276 174.324 126.757 173.9 128.525C173.475 130.297 172.677 131.565 171.504 132.328C170.332 133.09 168.909 133.271 167.235 132.869L163.149 131.89L165.832 120.704ZM167.427 122.873L165.555 130.679L167.431 131.129C168.557 131.399 169.501 131.271 170.261 130.742C171.022 130.214 171.555 129.315 171.86 128.043C172.16 126.793 172.087 125.762 171.643 124.95C171.199 124.133 170.419 123.591 169.303 123.323L167.427 122.873ZM186.375 128.902L182.148 136.446L180.264 135.994L179.947 124.089L182.024 124.587L181.93 133.525L181.992 133.54L186.272 125.606L188.04 126.03L188.256 135.042L188.318 135.057L192.288 127.049L194.365 127.547L188.682 138.013L186.799 137.562L186.453 128.92L186.375 128.902ZM195.352 138.211C195.905 138.344 196.409 138.293 196.865 138.057C197.326 137.818 197.616 137.453 197.734 136.962L197.884 136.335L195.957 135.995C195.485 135.915 195.095 135.944 194.788 136.084C194.488 136.22 194.299 136.45 194.221 136.776C194.14 137.112 194.202 137.411 194.407 137.673C194.619 137.931 194.934 138.111 195.352 138.211ZM194.421 139.529C193.62 139.337 193.016 138.949 192.61 138.365C192.209 137.782 192.096 137.124 192.272 136.39C192.447 135.662 192.854 135.15 193.493 134.855C194.137 134.561 194.968 134.504 195.985 134.682L198.186 135.079L198.327 134.49C198.43 134.061 198.373 133.695 198.156 133.391C197.944 133.089 197.598 132.88 197.117 132.765C196.668 132.657 196.277 132.67 195.944 132.803C195.612 132.937 195.373 133.169 195.228 133.5L193.437 133.071C193.666 132.301 194.151 131.747 194.893 131.412C195.641 131.072 196.529 131.025 197.557 131.272C198.576 131.516 199.33 131.959 199.821 132.602C200.317 133.245 200.466 133.981 200.267 134.807L198.91 140.466L197.05 140.02L197.364 138.71L197.325 138.701C196.987 139.084 196.552 139.351 196.018 139.502C195.486 139.648 194.954 139.657 194.421 139.529ZM200.82 140.924L203.503 129.738L205.433 130.201L202.75 141.387L200.82 140.924ZM204.746 141.866L207.429 130.68L209.359 131.143L206.676 142.329L204.746 141.866ZM213.812 136.753C213.275 136.624 212.781 136.702 212.33 136.987C211.885 137.269 211.573 137.694 211.393 138.263L215.23 139.183C215.349 138.594 215.28 138.075 215.021 137.625C214.763 137.175 214.36 136.884 213.812 136.753ZM214.648 141.642L216.454 142.075C216.143 142.826 215.596 143.364 214.813 143.69C214.031 144.011 213.157 144.055 212.19 143.824C210.96 143.529 210.084 142.92 209.563 141.996C209.042 141.068 208.939 139.948 209.254 138.635C209.566 137.333 210.165 136.373 211.051 135.754C211.943 135.137 212.98 134.971 214.163 135.255C215.326 135.534 216.159 136.129 216.661 137.042C217.165 137.95 217.267 139.029 216.967 140.28L216.816 140.908L211.072 139.53L211.044 139.647C210.886 140.308 210.944 140.885 211.219 141.377C211.5 141.871 211.956 142.193 212.586 142.344C213.03 142.451 213.437 142.442 213.806 142.317C214.181 142.189 214.462 141.964 214.648 141.642ZM220.455 134.911L222.385 135.374L221.924 137.296L223.474 137.668L223.117 139.156L221.567 138.785L220.543 143.056C220.462 143.392 220.483 143.659 220.604 143.858C220.726 144.056 220.958 144.197 221.299 144.278C221.526 144.333 221.713 144.364 221.858 144.372L221.505 145.844C221.26 145.84 220.921 145.786 220.487 145.682C219.598 145.469 219.003 145.146 218.702 144.713C218.407 144.282 218.355 143.665 218.547 142.864L219.637 138.322L218.459 138.039L218.815 136.551L219.994 136.833L220.455 134.911Z" fill="#001B21"/>
<path d="M139.929 149.758L140.148 148.843C142.092 149.144 143.455 148.395 143.841 146.787C144.169 145.417 143.572 144.406 142.023 143.568L141.481 143.287L142.276 139.971C143.251 140.333 143.768 141.139 143.593 141.986L144.746 142.263C145.05 140.786 144.19 139.468 142.528 138.919L142.755 137.976L141.846 137.758L141.618 138.708C139.848 138.463 138.527 139.215 138.17 140.7C137.868 141.962 138.469 143.046 139.829 143.773L140.336 144.053L139.49 147.58C138.403 147.176 137.856 146.406 138 145.479L136.84 145.201C136.484 146.716 137.439 148.056 139.238 148.631L139.02 149.54L139.929 149.758ZM142.644 146.601C142.407 147.591 141.589 148.04 140.394 147.818L141.201 144.454C142.418 145.033 142.859 145.705 142.644 146.601ZM139.353 140.912C139.558 140.057 140.405 139.579 141.367 139.753L140.619 142.873C139.601 142.392 139.16 141.719 139.353 140.912ZM147.483 150.587L148.663 150.87L151.011 141.083L149.817 140.796L146.763 142.044L146.454 143.332L149.493 142.089L149.52 142.095L147.483 150.587ZM154.83 152.521C157.109 153.068 158.898 151.41 159.64 148.317C160.377 145.244 159.528 142.953 157.255 142.408C154.983 141.863 153.17 143.53 152.435 146.596C151.693 149.689 152.544 151.973 154.83 152.521ZM155.085 151.457C153.552 151.089 153.079 149.325 153.664 146.884C154.237 144.496 155.486 143.117 156.998 143.48C158.511 143.843 158.988 145.621 158.411 148.029C157.825 150.471 156.611 151.823 155.085 151.457ZM160.207 155.698L161.965 152.468L160.71 152.167L159.224 155.462L160.207 155.698ZM165.329 147.501L165.327 147.507L166.507 147.79L166.509 147.784C166.771 146.692 167.837 146.072 168.984 146.347C170.062 146.606 170.743 147.565 170.517 148.508C170.322 149.322 169.884 149.77 168.237 150.838L163.921 153.64L163.719 154.481L170.176 156.03L170.436 154.945L165.668 153.801L165.675 153.774L168.764 151.811C170.803 150.514 171.494 149.818 171.756 148.726C172.115 147.227 171.023 145.71 169.273 145.29C167.428 144.848 165.739 145.791 165.329 147.501ZM175.21 157.409C177.252 157.899 179.027 156.869 179.498 154.902C179.954 153.002 178.927 151.3 177.049 150.849C176.113 150.625 175.214 150.782 174.632 151.267L174.605 151.26L175.668 148.144L180.266 149.247L180.527 148.162L174.924 146.818L173.074 152.17L174.22 152.445C174.784 151.856 175.664 151.629 176.579 151.849C177.882 152.161 178.585 153.327 178.269 154.643C177.954 155.959 176.81 156.66 175.481 156.341C174.307 156.059 173.591 155.127 173.733 154.057L172.532 153.769C172.234 155.462 173.338 156.96 175.21 157.409ZM183.694 159.444C185.974 159.991 187.763 158.333 188.505 155.24C189.242 152.167 188.392 149.876 186.12 149.331C183.848 148.786 182.035 150.453 181.3 153.519C180.558 156.612 181.409 158.896 183.694 159.444ZM183.95 158.379C182.417 158.012 181.943 156.248 182.529 153.806C183.102 151.419 184.35 150.04 185.863 150.403C187.376 150.765 187.853 152.544 187.275 154.952C186.69 157.394 185.476 158.745 183.95 158.379ZM189.713 160.787C190.147 160.891 190.567 160.634 190.671 160.199C190.775 159.765 190.518 159.345 190.083 159.241C189.649 159.137 189.229 159.394 189.125 159.829C189.021 160.263 189.278 160.683 189.713 160.787ZM195.97 162.388C198.249 162.935 200.038 161.277 200.78 158.184C201.517 155.111 200.668 152.82 198.395 152.275C196.123 151.73 194.31 153.397 193.575 156.463C192.833 159.556 193.684 161.84 195.97 162.388ZM196.225 161.323C194.692 160.956 194.219 159.192 194.804 156.751C195.377 154.363 196.626 152.984 198.138 153.347C199.651 153.71 200.128 155.488 199.551 157.896C198.965 160.338 197.751 161.689 196.225 161.323ZM204.692 164.48C206.971 165.027 208.76 163.369 209.502 160.276C210.239 157.203 209.39 154.912 207.117 154.367C204.845 153.822 203.032 155.489 202.297 158.555C201.555 161.648 202.406 163.932 204.692 164.48ZM204.947 163.415C203.414 163.048 202.941 161.284 203.526 158.842C204.099 156.455 205.348 155.076 206.86 155.439C208.373 155.801 208.85 157.58 208.273 159.988C207.687 162.43 206.473 163.781 204.947 163.415Z" fill="#001B21"/>
<rect x="0.3804" y="0.62065" width="186.47" height="82.3475" rx="15.8182" transform="matrix(0.970296 0.241922 -0.224802 0.974404 72.6686 70.9239)" stroke="#F3F4F6" stroke-width="1.02053"/>
</g>
<g filter="url(#filter2_d_4600_104101)">
<rect width="184.839" height="83.5356" rx="16.3285" transform="matrix(0.999599 0.0283034 -0.0261912 0.999657 48.7055 254.262)" fill="white"/>
<rect x="65.5166" y="276.181" width="48.9854" height="40.8212" rx="10.2053" transform="rotate(1.56018 65.5166 276.181)" fill="#F3F4F6"/>
<rect x="75.4402" y="286.66" width="28.5748" height="20.4106" rx="2.04106" transform="rotate(1.56018 75.4402 286.66)" fill="white"/>
<mask id="mask1_4600_104101" style="mask-type:alpha" maskUnits="userSpaceOnUse" x="74" y="286" width="30" height="22">
<rect x="75.4402" y="286.66" width="28.5748" height="20.4106" rx="2.04106" transform="rotate(1.56018 75.4402 286.66)" fill="white"/>
</mask>
<g mask="url(#mask1_4600_104101)">
<rect x="75.4402" y="286.66" width="28.5748" height="20.4106" transform="rotate(1.56018 75.4402 286.66)" fill="#043CAE"/>
<path fill-rule="evenodd" clip-rule="evenodd" d="M88.6417 291.385L89.6112 291.129L90.5654 291.437L90.3099 290.468L90.6178 289.514L89.6483 289.769L88.6941 289.461L88.9497 290.431L88.6417 291.385ZM88.2713 304.987L89.2408 304.732L90.1949 305.039L89.9394 304.07L90.2473 303.116L89.2778 303.371L88.3237 303.063L88.5792 304.033L88.2713 304.987ZM96.227 298.115L95.2575 298.371L95.5654 297.417L95.3099 296.447L96.264 296.755L97.2335 296.5L96.9256 297.454L97.1811 298.423L96.227 298.115ZM81.6555 298.001L82.625 297.745L83.5791 298.053L83.3236 297.084L83.6315 296.13L82.662 296.385L81.7079 296.077L81.9634 297.047L81.6555 298.001ZM95.4085 294.691L94.439 294.946L94.7469 293.992L94.4914 293.023L95.4455 293.33L96.415 293.075L96.1071 294.029L96.3626 294.999L95.4085 294.691ZM82.4741 301.426L83.4435 301.171L84.3977 301.479L84.1422 300.509L84.4501 299.555L83.4806 299.81L82.5264 299.502L82.782 300.472L82.4741 301.426ZM92.9869 292.133L92.0174 292.389L92.3253 291.435L92.0698 290.465L93.024 290.773L93.9934 290.518L93.6855 291.472L93.9411 292.441L92.9869 292.133ZM84.8956 303.983L85.8651 303.728L86.8192 304.036L86.5637 303.066L86.8716 302.112L85.9021 302.368L84.948 302.06L85.2035 303.029L84.8956 303.983ZM95.2232 301.492L94.2537 301.747L94.5616 300.793L94.3061 299.823L95.2603 300.131L96.2298 299.876L95.9218 300.83L96.1774 301.799L95.2232 301.492ZM82.6593 294.625L83.6288 294.37L84.5829 294.678L84.3274 293.708L84.6353 292.754L83.6658 293.01L82.7117 292.702L82.9672 293.671L82.6593 294.625ZM92.6661 303.913L91.6966 304.168L92.0045 303.214L91.749 302.245L92.7031 302.553L93.6726 302.297L93.3647 303.251L93.6202 304.221L92.6661 303.913ZM85.2165 292.203L86.1859 291.948L87.1401 292.256L86.8846 291.286L87.1925 290.332L86.223 290.588L85.2688 290.28L85.5244 291.249L85.2165 292.203Z" fill="#FFD429"/>
</g>
<path d="M134.794 292.327L134.746 294.065L127.302 293.862L127.616 282.362L135.06 282.564L135.012 284.302L129.625 284.155L129.54 287.263L134.633 287.402L134.588 289.036L129.495 288.897L129.406 292.181L134.794 292.327ZM139.207 282.677L139.009 289.938C138.988 290.735 139.204 291.381 139.658 291.878C140.118 292.369 140.768 292.626 141.607 292.649C142.447 292.672 143.11 292.45 143.596 291.985C144.082 291.514 144.335 290.881 144.357 290.084L144.555 282.823L146.603 282.879L146.4 290.323C146.366 291.593 145.91 292.606 145.034 293.364C144.162 294.122 143.004 294.481 141.559 294.442C140.119 294.403 138.982 293.981 138.147 293.177C137.313 292.372 136.914 291.335 136.948 290.065L137.151 282.621L139.207 282.677ZM150.96 284.664L150.853 288.594L153.173 288.657C153.826 288.674 154.338 288.516 154.709 288.18C155.08 287.845 155.274 287.366 155.291 286.744C155.307 286.139 155.131 285.655 154.764 285.294C154.396 284.933 153.888 284.744 153.24 284.726L150.96 284.664ZM150.81 290.172L150.693 294.499L148.636 294.443L148.95 282.943L153.516 283.067C154.754 283.101 155.718 283.449 156.407 284.111C157.096 284.768 157.426 285.649 157.396 286.754C157.375 287.524 157.165 288.199 156.766 288.779C156.368 289.353 155.825 289.753 155.139 289.978L157.523 294.685L155.18 294.621L153.034 290.232L150.81 290.172ZM169.647 286.689L167.069 294.945L165.132 294.893L162.361 283.308L164.497 283.366L166.253 292.132L166.316 292.133L168.865 283.485L170.682 283.535L172.756 292.309L172.82 292.31L175.05 283.654L177.185 283.712L173.788 295.128L171.851 295.076L169.727 286.691L169.647 286.689ZM180.356 293.943C180.924 293.959 181.407 293.804 181.804 293.48C182.206 293.151 182.414 292.734 182.428 292.229L182.446 291.584L180.49 291.65C180.011 291.669 179.636 291.778 179.364 291.978C179.098 292.173 178.961 292.438 178.952 292.772C178.942 293.118 179.065 293.398 179.32 293.612C179.58 293.821 179.925 293.932 180.356 293.943ZM179.717 295.425C178.893 295.403 178.222 295.148 177.704 294.661C177.191 294.173 176.945 293.553 176.965 292.798C176.985 292.049 177.278 291.464 177.842 291.043C178.412 290.623 179.213 290.395 180.246 290.359L182.481 290.292L182.497 289.687C182.509 289.246 182.378 288.899 182.103 288.647C181.833 288.395 181.451 288.262 180.957 288.249C180.495 288.236 180.115 288.33 179.817 288.529C179.519 288.728 179.334 289.005 179.26 289.359L177.419 289.309C177.483 288.508 177.844 287.866 178.5 287.384C179.162 286.897 180.022 286.668 181.079 286.697C182.126 286.726 182.956 287.003 183.569 287.531C184.187 288.058 184.485 288.747 184.462 289.597L184.303 295.415L182.391 295.363L182.427 294.016L182.387 294.015C182.136 294.46 181.765 294.811 181.274 295.069C180.783 295.321 180.264 295.44 179.717 295.425ZM186.267 295.468L186.58 283.968L188.565 284.022L188.252 295.522L186.267 295.468ZM190.303 295.578L190.616 284.077L192.601 284.132L192.288 295.632L190.303 295.578ZM198.119 288.7C197.566 288.685 197.099 288.864 196.716 289.237C196.339 289.604 196.121 290.084 196.063 290.678L200.008 290.786C200.003 290.185 199.828 289.691 199.482 289.304C199.136 288.917 198.682 288.716 198.119 288.7ZM199.947 293.312L201.804 293.363C201.655 294.162 201.23 294.802 200.531 295.282C199.833 295.758 198.986 295.982 197.993 295.955C196.728 295.921 195.745 295.506 195.044 294.71C194.342 293.91 194.01 292.834 194.047 291.485C194.083 290.146 194.471 289.082 195.21 288.294C195.955 287.506 196.936 287.129 198.152 287.162C199.348 287.195 200.286 287.606 200.966 288.395C201.647 289.179 201.97 290.214 201.935 291.5L201.917 292.146L196.011 291.985L196.008 292.104C195.989 292.785 196.166 293.337 196.537 293.762C196.914 294.187 197.426 294.408 198.074 294.426C198.531 294.438 198.927 294.345 199.262 294.147C199.603 293.944 199.831 293.666 199.947 293.312ZM204.238 285.525L206.222 285.579L206.169 287.556L207.763 287.599L207.721 289.129L206.127 289.086L206.007 293.478C205.998 293.823 206.073 294.08 206.234 294.249C206.394 294.419 206.649 294.508 207 294.517C207.234 294.524 207.423 294.516 207.567 294.493L207.526 296.007C207.285 296.054 206.942 296.071 206.495 296.059C205.581 296.034 204.933 295.841 204.549 295.48C204.171 295.118 203.993 294.526 204.015 293.702L204.142 289.032L202.931 288.999L202.973 287.469L204.184 287.502L204.238 285.525Z" fill="#001B21"/>
<path d="M134.046 305.805C133.776 305.707 133.136 305.627 132.648 305.613C130.389 305.552 128.404 306.684 127.732 309.053L126.254 309.012L126.228 309.961L127.546 309.997C127.526 310.219 127.506 310.442 127.499 310.679C127.493 310.896 127.495 311.112 127.51 311.315L126.192 311.279L126.166 312.227L127.638 312.267C128.158 314.696 130.085 315.949 132.365 316.011C132.853 316.024 133.496 315.986 133.771 315.903L133.801 314.773C133.513 314.849 132.884 314.874 132.396 314.86C130.744 314.815 129.448 313.943 128.977 312.304L132.763 312.407L132.789 311.459L128.814 311.35C128.799 311.147 128.79 310.938 128.796 310.722C128.803 310.485 128.823 310.248 128.85 310.032L132.825 310.14L132.851 309.192L129.085 309.089C129.651 307.521 130.985 306.734 132.616 306.778C133.105 306.791 133.731 306.864 134.015 306.942L134.046 305.805ZM135.597 308.764L135.597 308.771L136.811 308.804L136.811 308.797C136.841 307.675 137.757 306.848 138.936 306.88C140.045 306.911 140.909 307.709 140.883 308.678C140.86 309.515 140.525 310.043 139.133 311.429L135.489 315.063L135.465 315.928L142.104 316.109L142.134 314.993L137.232 314.86L137.233 314.832L139.85 312.272C141.578 310.581 142.109 309.758 142.14 308.636C142.182 307.094 140.8 305.835 139 305.786C137.104 305.735 135.645 307.007 135.597 308.764ZM144.608 318.18L145.66 314.656L144.37 314.621L143.597 318.153L144.608 318.18ZM151.31 316.527C153.653 316.591 155.061 314.598 155.148 311.418C155.234 308.259 153.93 306.193 151.593 306.129C149.257 306.066 147.828 308.072 147.742 311.224C147.655 314.404 148.96 316.463 151.31 316.527ZM151.34 315.432C149.764 315.389 148.936 313.762 149.004 311.251C149.071 308.796 150.008 307.189 151.563 307.231C153.118 307.274 153.953 308.915 153.886 311.391C153.817 313.902 152.909 315.475 151.34 315.432ZM160.277 316.771C162.621 316.835 164.029 314.843 164.115 311.663C164.201 308.504 162.897 306.437 160.561 306.374C158.224 306.31 156.795 308.316 156.709 311.468C156.623 314.648 157.927 316.707 160.277 316.771ZM160.307 315.677C158.731 315.634 157.903 314.006 157.972 311.495C158.038 309.041 158.976 307.433 160.531 307.475C162.086 307.518 162.92 309.16 162.853 311.635C162.785 314.146 161.876 315.719 160.307 315.677ZM169.245 317.016C171.588 317.079 172.996 315.087 173.083 311.907C173.169 308.748 171.864 306.681 169.528 306.618C167.192 306.554 165.762 308.56 165.677 311.712C165.59 314.892 166.895 316.952 169.245 317.016ZM169.275 315.921C167.699 315.878 166.871 314.25 166.939 311.74C167.006 309.285 167.943 307.677 169.498 307.72C171.053 307.762 171.888 309.404 171.82 311.88C171.752 314.39 170.844 315.964 169.275 315.921ZM175.411 317.086C175.858 317.098 176.216 316.759 176.228 316.313C176.24 315.866 175.901 315.508 175.455 315.496C175.008 315.484 174.65 315.823 174.638 316.269C174.626 316.716 174.965 317.074 175.411 317.086ZM181.942 317.361C184.041 317.419 185.565 316.043 185.62 314.021C185.674 312.068 184.317 310.615 182.386 310.562C181.423 310.536 180.577 310.876 180.107 311.47L180.079 311.469L180.475 308.2L185.203 308.329L185.234 307.213L179.473 307.056L178.769 312.676L179.948 312.708C180.378 312.015 181.192 311.611 182.133 311.637C183.472 311.673 184.401 312.669 184.364 314.022C184.327 315.375 183.353 316.297 181.986 316.26C180.78 316.227 179.886 315.463 179.804 314.386L178.57 314.352C178.628 316.071 180.018 317.309 181.942 317.361ZM190.666 317.599C193.009 317.663 194.417 315.67 194.504 312.49C194.59 309.331 193.285 307.265 190.949 307.201C188.613 307.138 187.183 309.144 187.097 312.296C187.011 315.476 188.316 317.535 190.666 317.599ZM190.695 316.504C189.119 316.461 188.291 314.834 188.36 312.323C188.427 309.868 189.364 308.261 190.919 308.303C192.474 308.346 193.309 309.987 193.241 312.463C193.173 314.974 192.265 316.547 190.695 316.504Z" fill="#2B4146"/>
<rect x="0.496697" y="0.524533" width="183.819" height="82.515" rx="15.8182" transform="matrix(0.999599 0.0283034 -0.0261912 0.999657 48.7194 254.248)" stroke="#F3F4F6" stroke-width="1.02053"/>
</g>
<g filter="url(#filter3_d_4600_104101)">
<rect x="142" y="180" width="187" height="83" rx="16.3285" fill="white"/>
<rect x="159.335" y="201.089" width="48.9855" height="40.8213" rx="10.2053" fill="#F3F4F6"/>
<rect x="169.54" y="211.294" width="28.5749" height="20.4106" rx="2.04106" fill="white"/>
<mask id="mask2_4600_104101" style="mask-type:alpha" maskUnits="userSpaceOnUse" x="169" y="211" width="30" height="21">
<rect x="169.54" y="211.294" width="28.5749" height="20.4106" rx="2.04106" fill="white"/>
</mask>
<g mask="url(#mask2_4600_104101)">
<rect x="169.54" y="211.294" width="28.5749" height="20.4106" fill="#0A17A7"/>
<path fill-rule="evenodd" clip-rule="evenodd" d="M176.351 224.902L166.71 231.405L168.232 233.661L180.426 225.436V233.066H187.23V225.436L199.424 233.661L200.946 231.405L191.304 224.902H198.115V218.098H191.305L200.946 211.595L199.424 209.339L187.23 217.564V209.934H180.426V217.564L168.232 209.339L166.71 211.595L176.351 218.098H169.54V224.902H176.351Z" fill="white"/>
<path d="M188.592 217.757L201.517 209.253" stroke="#DB1F35" stroke-width="0.680355" stroke-linecap="round"/>
<path d="M189.964 225.273L201.551 233.083" stroke="#DB1F35" stroke-width="0.680355" stroke-linecap="round"/>
<path d="M177.71 217.735L165.624 209.589" stroke="#DB1F35" stroke-width="0.680355" stroke-linecap="round"/>
<path d="M179.021 225.179L165.624 234.063" stroke="#DB1F35" stroke-width="0.680355" stroke-linecap="round"/>
<path fill-rule="evenodd" clip-rule="evenodd" d="M169.54 223.541H181.787V231.705H185.869V223.541H198.115V219.459H185.869V211.294H181.787V219.459H169.54V223.541Z" fill="#E6273E"/>
</g>
<path d="M231.649 212.282C231.649 213.845 231.205 215.068 230.318 215.95C229.435 216.832 228.208 217.273 226.634 217.273C224.955 217.273 223.626 216.739 222.648 215.671C221.675 214.597 221.189 213.135 221.189 211.286C221.189 209.463 221.673 208.025 222.64 206.972C223.613 205.915 224.931 205.386 226.594 205.386C227.902 205.386 229.01 205.739 229.919 206.446C230.828 207.153 231.376 208.083 231.562 209.237H229.473C229.276 208.578 228.925 208.062 228.42 207.69C227.915 207.318 227.309 207.132 226.602 207.132C225.566 207.132 224.755 207.496 224.171 208.224C223.586 208.952 223.294 209.965 223.294 211.262C223.294 212.585 223.594 213.627 224.195 214.387C224.801 215.147 225.622 215.527 226.658 215.527C227.525 215.527 228.232 215.277 228.779 214.778C229.332 214.278 229.616 213.624 229.632 212.817L229.64 212.625H226.866V211.055H231.649V212.282ZM238.461 217.082H233.638V205.577H238.414C239.461 205.577 240.295 205.838 240.917 206.358C241.539 206.879 241.85 207.576 241.85 208.447C241.85 209.064 241.648 209.611 241.244 210.09C240.84 210.568 240.343 210.855 239.753 210.951V211.015C240.54 211.089 241.177 211.384 241.666 211.9C242.161 212.415 242.408 213.053 242.408 213.813C242.408 214.828 242.057 215.628 241.356 216.213C240.654 216.792 239.689 217.082 238.461 217.082ZM235.695 207.18V210.425H237.576C238.294 210.425 238.847 210.281 239.235 209.994C239.623 209.702 239.817 209.287 239.817 208.75C239.817 208.251 239.649 207.865 239.314 207.594C238.985 207.318 238.512 207.18 237.895 207.18H235.695ZM235.695 215.479H237.991C238.746 215.479 239.32 215.325 239.713 215.017C240.112 214.709 240.311 214.26 240.311 213.67C240.311 213.085 240.106 212.641 239.697 212.338C239.293 212.035 238.695 211.884 237.903 211.884H235.695V215.479ZM244.181 205.577H248.654C249.802 205.577 250.735 205.933 251.452 206.645C252.17 207.352 252.529 208.28 252.529 209.428C252.529 210.571 252.159 211.498 251.421 212.211C250.687 212.923 249.736 213.279 248.566 213.279H246.238V217.082H244.181V205.577ZM246.238 207.259V211.621H248.104C248.843 211.621 249.417 211.429 249.826 211.047C250.235 210.664 250.44 210.124 250.44 209.428C250.44 208.737 250.235 208.203 249.826 207.825C249.422 207.448 248.851 207.259 248.112 207.259H246.238ZM264.622 208.758L262.27 217.082H260.333L257.247 205.577H259.384L261.377 214.292H261.441L263.753 205.577H265.571L267.883 214.292H267.947L269.94 205.577H272.077L268.991 217.082H267.054L264.702 208.758H264.622ZM275.524 215.719C276.093 215.719 276.571 215.551 276.959 215.216C277.353 214.876 277.549 214.454 277.549 213.949V213.303L275.596 213.422C275.118 213.454 274.746 213.574 274.48 213.781C274.219 213.983 274.089 214.252 274.089 214.587C274.089 214.932 274.219 215.208 274.48 215.416C274.746 215.618 275.094 215.719 275.524 215.719ZM274.926 217.218C274.102 217.218 273.425 216.981 272.893 216.508C272.367 216.035 272.104 215.421 272.104 214.666C272.104 213.917 272.38 213.324 272.933 212.888C273.491 212.452 274.286 212.203 275.317 212.139L277.549 212.011V211.405C277.549 210.964 277.408 210.621 277.127 210.377C276.85 210.132 276.465 210.01 275.971 210.01C275.508 210.01 275.131 210.114 274.839 210.321C274.546 210.528 274.368 210.81 274.304 211.166H272.463C272.505 210.364 272.848 209.712 273.491 209.213C274.14 208.708 274.993 208.455 276.05 208.455C277.098 208.455 277.935 208.71 278.562 209.221C279.194 209.731 279.511 210.411 279.511 211.262V217.082H277.597V215.735H277.557C277.318 216.186 276.957 216.548 276.473 216.819C275.989 217.085 275.474 217.218 274.926 217.218ZM281.475 217.082V205.577H283.46V217.082H281.475ZM285.513 217.082V205.577H287.498V217.082H285.513ZM293.138 209.994C292.585 209.994 292.123 210.185 291.751 210.568C291.384 210.946 291.179 211.432 291.137 212.027H295.083C295.062 211.427 294.873 210.938 294.517 210.56C294.161 210.183 293.701 209.994 293.138 209.994ZM295.091 214.555H296.949C296.821 215.357 296.415 216.008 295.729 216.508C295.043 217.002 294.204 217.249 293.21 217.249C291.945 217.249 290.951 216.861 290.228 216.085C289.505 215.304 289.144 214.238 289.144 212.888C289.144 211.549 289.502 210.475 290.22 209.667C290.943 208.859 291.913 208.455 293.13 208.455C294.326 208.455 295.275 208.841 295.976 209.611C296.678 210.377 297.029 211.403 297.029 212.689V213.335H291.121V213.454C291.121 214.135 291.312 214.682 291.695 215.097C292.083 215.511 292.601 215.719 293.25 215.719C293.707 215.719 294.1 215.615 294.43 215.408C294.764 215.195 294.985 214.911 295.091 214.555ZM299.169 206.653H301.154V208.631H302.749V210.162H301.154V214.555C301.154 214.9 301.236 215.155 301.401 215.32C301.566 215.485 301.824 215.567 302.174 215.567C302.408 215.567 302.597 215.554 302.741 215.527V217.042C302.501 217.095 302.159 217.122 301.712 217.122C300.798 217.122 300.144 216.946 299.751 216.596C299.363 216.245 299.169 215.658 299.169 214.834V210.162H297.957V208.631H299.169V206.653Z" fill="#001B21"/>
<path d="M223.176 237.843V237.815C223.923 237.369 224.634 236.559 224.634 235.374C224.634 235.032 224.571 234.697 224.488 234.362H227.446V233.357H224.16C223.943 232.743 223.741 232.13 223.741 231.495C223.741 230.385 224.634 229.723 226.127 229.723C226.943 229.723 227.808 229.897 228.157 230.099V228.983C227.697 228.767 226.915 228.613 226.064 228.613C223.811 228.613 222.458 229.702 222.458 231.523C222.458 232.143 222.667 232.75 222.883 233.357H221.251V234.362H223.232C223.33 234.711 223.399 235.067 223.399 235.422C223.399 236.539 222.485 237.578 221.251 237.857V238.917H228.659V237.843H223.176ZM233.8 239.085C235.9 239.085 237.386 237.669 237.386 235.646C237.386 233.692 235.991 232.276 234.058 232.276C233.096 232.276 232.258 232.639 231.805 233.246H231.777L232.084 229.967H236.814V228.851H231.052L230.5 234.488H231.679C232.091 233.783 232.893 233.357 233.835 233.357C235.175 233.357 236.13 234.327 236.13 235.68C236.13 237.034 235.181 237.983 233.814 237.983C232.607 237.983 231.693 237.243 231.582 236.169H230.347C230.452 237.885 231.875 239.085 233.8 239.085ZM242.527 239.085C244.871 239.085 246.224 237.055 246.224 233.874C246.224 230.713 244.864 228.683 242.527 228.683C240.19 228.683 238.815 230.727 238.815 233.881C238.815 237.062 240.176 239.085 242.527 239.085ZM242.527 237.99C240.95 237.99 240.078 236.385 240.078 233.874C240.078 231.418 240.971 229.786 242.527 229.786C244.082 229.786 244.961 231.404 244.961 233.881C244.961 236.392 244.096 237.99 242.527 237.99ZM248.693 238.987C249.139 238.987 249.488 238.638 249.488 238.192C249.488 237.745 249.139 237.397 248.693 237.397C248.246 237.397 247.898 237.745 247.898 238.192C247.898 238.638 248.246 238.987 248.693 238.987ZM255.152 239.085C257.496 239.085 258.85 237.055 258.85 233.874C258.85 230.713 257.489 228.683 255.152 228.683C252.815 228.683 251.441 230.727 251.441 233.881C251.441 237.062 252.801 239.085 255.152 239.085ZM255.152 237.99C253.576 237.99 252.704 236.385 252.704 233.874C252.704 231.418 253.597 229.786 255.152 229.786C256.708 229.786 257.587 231.404 257.587 233.881C257.587 236.392 256.722 237.99 255.152 237.99ZM264.123 239.085C266.467 239.085 267.82 237.055 267.82 233.874C267.82 230.713 266.46 228.683 264.123 228.683C261.786 228.683 260.412 230.727 260.412 233.881C260.412 237.062 261.772 239.085 264.123 239.085ZM264.123 237.99C262.546 237.99 261.674 236.385 261.674 233.874C261.674 231.418 262.567 229.786 264.123 229.786C265.679 229.786 266.558 231.404 266.558 233.881C266.558 236.392 265.693 237.99 264.123 237.99Z" fill="#2B4146"/>
<rect x="142.51" y="180.51" width="185.979" height="81.9795" rx="15.8182" stroke="#F3F4F6" stroke-width="1.02053"/>
</g>

</svg>
