<svg width="25" height="24" viewBox="0 0 25 24" fill="none" xmlns="http://www.w3.org/2000/svg">
<path d="M19.5 0C20.8261 0 22.0979 0.526784 23.0355 1.46447C23.9732 2.40215 24.5 3.67392 24.5 5V19C24.5 20.3261 23.9732 21.5979 23.0355 22.5355C22.0979 23.4732 20.8261 24 19.5 24H5.5C4.17392 24 2.90215 23.4732 1.96447 22.5355C1.02678 21.5979 0.5 20.3261 0.5 19V5C0.5 3.67392 1.02678 2.40215 1.96447 1.46447C2.90215 0.526784 4.17392 0 5.5 0H19.5ZM19.5 2H5.5C4.70435 2 3.94129 2.31607 3.37868 2.87868C2.81607 3.44129 2.5 4.20435 2.5 5V19C2.5 19.7957 2.81607 20.5587 3.37868 21.1213C3.94129 21.6839 4.70435 22 5.5 22H19.5C20.2957 22 21.0587 21.6839 21.6213 21.1213C22.1839 20.5587 22.5 19.7957 22.5 19V5C22.5 4.20435 22.1839 3.44129 21.6213 2.87868C21.0587 2.31607 20.2957 2 19.5 2ZM19.5 13.3333C19.7652 13.3333 20.0196 13.4387 20.2071 13.6262C20.3946 13.8138 20.5 14.0681 20.5 14.3333V17.3333C20.5 18.0406 20.219 18.7189 19.719 19.219C19.2189 19.719 18.5406 20 17.8333 20H14.8333C14.5681 20 14.3138 19.8946 14.1262 19.7071C13.9387 19.5196 13.8333 19.2652 13.8333 19C13.8333 18.7348 13.9387 18.4804 14.1262 18.2929C14.3138 18.1054 14.5681 18 14.8333 18H17.8333C18.0101 18 18.1797 17.9298 18.3047 17.8047C18.4298 17.6797 18.5 17.5101 18.5 17.3333V14.3333C18.5 14.0681 18.6054 13.8138 18.7929 13.6262C18.9804 13.4387 19.2348 13.3333 19.5 13.3333ZM5.5 13.3333C5.76522 13.3333 6.01957 13.4387 6.20711 13.6262C6.39464 13.8138 6.5 14.0681 6.5 14.3333V17.3333C6.5 17.5101 6.57024 17.6797 6.69526 17.8047C6.82029 17.9298 6.98986 18 7.16667 18H10.1667C10.4319 18 10.6862 18.1054 10.8738 18.2929C11.0613 18.4804 11.1667 18.7348 11.1667 19C11.1667 19.2652 11.0613 19.5196 10.8738 19.7071C10.6862 19.8946 10.4319 20 10.1667 20H7.16667C6.45942 20 5.78115 19.719 5.28105 19.219C4.78095 18.7189 4.5 18.0406 4.5 17.3333V14.3333C4.5 14.0681 4.60536 13.8138 4.79289 13.6262C4.98043 13.4387 5.23478 13.3333 5.5 13.3333ZM7.16667 4H10.1667C10.42 4.00008 10.6639 4.09633 10.8491 4.2693C11.0342 4.44227 11.1468 4.67906 11.164 4.93184C11.1813 5.18462 11.102 5.43452 10.9421 5.63107C10.7822 5.82761 10.5537 5.95613 10.3027 5.99067L10.1667 6H7.16667C7.01063 5.99995 6.85952 6.05463 6.73965 6.15452C6.61979 6.25441 6.53875 6.39318 6.51067 6.54667L6.5 6.66667V9.66667C6.49992 9.92003 6.40367 10.1639 6.2307 10.3491C6.05773 10.5342 5.82094 10.6468 5.56816 10.664C5.31538 10.6813 5.06548 10.602 4.86893 10.4421C4.67239 10.2822 4.54387 10.0537 4.50933 9.80267L4.5 9.66667V6.66667C4.49979 5.9939 4.75388 5.34591 5.21133 4.8526C5.66878 4.35929 6.29579 4.05712 6.96667 4.00667L7.16667 4H10.1667H7.16667ZM17.8333 4C18.5406 4 19.2189 4.28095 19.719 4.78105C20.219 5.28115 20.5 5.95942 20.5 6.66667V9.66667C20.5 9.93188 20.3946 10.1862 20.2071 10.3738C20.0196 10.5613 19.7652 10.6667 19.5 10.6667C19.2348 10.6667 18.9804 10.5613 18.7929 10.3738C18.6054 10.1862 18.5 9.93188 18.5 9.66667V6.66667C18.5 6.48986 18.4298 6.32029 18.3047 6.19526C18.1797 6.07024 18.0101 6 17.8333 6H14.8333C14.5681 6 14.3138 5.89464 14.1262 5.70711C13.9387 5.51957 13.8333 5.26522 13.8333 5C13.8333 4.73478 13.9387 4.48043 14.1262 4.29289C14.3138 4.10536 14.5681 4 14.8333 4H17.8333Z" fill="#008AA7"/>
</svg>
