<svg width="25" height="24" viewBox="0 0 25 24" fill="none" xmlns="http://www.w3.org/2000/svg">
<path d="M9.5 1.5C9.10218 1.5 8.72064 1.65804 8.43934 1.93934C8.15804 2.22064 8 2.60218 8 3V3.75C8 3.94891 7.92098 4.13968 7.78033 4.28033C7.63968 4.42098 7.44891 4.5 7.25 4.5C7.05109 4.5 6.86032 4.42098 6.71967 4.28033C6.57902 4.13968 6.5 3.94891 6.5 3.75V3C6.5 2.20435 6.81607 1.44129 7.37868 0.87868C7.94129 0.31607 8.70435 0 9.5 0H10.25C10.4489 0 10.6397 0.0790178 10.7803 0.21967C10.921 0.360322 11 0.551088 11 0.75C11 0.948912 10.921 1.13968 10.7803 1.28033C10.6397 1.42098 10.4489 1.5 10.25 1.5H9.5ZM8 15C8 15.3978 8.15804 15.7794 8.43934 16.0607C8.72064 16.342 9.10218 16.5 9.5 16.5H10.25C10.4489 16.5 10.6397 16.579 10.7803 16.7197C10.921 16.8603 11 17.0511 11 17.25C11 17.4489 10.921 17.6397 10.7803 17.7803C10.6397 17.921 10.4489 18 10.25 18H9.5C8.70435 18 7.94129 17.6839 7.37868 17.1213C6.81607 16.5587 6.5 15.7956 6.5 15V14.25C6.5 14.0511 6.57902 13.8603 6.71967 13.7197C6.86032 13.579 7.05109 13.5 7.25 13.5C7.44891 13.5 7.63968 13.579 7.78033 13.7197C7.92098 13.8603 8 14.0511 8 14.25V15ZM8 6.75C8 6.55109 7.92098 6.36032 7.78033 6.21967C7.63968 6.07902 7.44891 6 7.25 6C7.05109 6 6.86032 6.07902 6.71967 6.21967C6.57902 6.36032 6.5 6.55109 6.5 6.75V11.25C6.5 11.4489 6.57902 11.6397 6.71967 11.7803C6.86032 11.921 7.05109 12 7.25 12C7.44891 12 7.63968 11.921 7.78033 11.7803C7.92098 11.6397 8 11.4489 8 11.25V6.75ZM21.5 1.5C21.8978 1.5 22.2794 1.65804 22.5607 1.93934C22.842 2.22064 23 2.60218 23 3V3.75C23 3.94891 23.079 4.13968 23.2197 4.28033C23.3603 4.42098 23.5511 4.5 23.75 4.5C23.9489 4.5 24.1397 4.42098 24.2803 4.28033C24.421 4.13968 24.5 3.94891 24.5 3.75V3C24.5 2.20435 24.1839 1.44129 23.6213 0.87868C23.0587 0.31607 22.2956 0 21.5 0H20.75C20.5511 0 20.3603 0.0790178 20.2197 0.21967C20.079 0.360322 20 0.551088 20 0.75C20 0.948912 20.079 1.13968 20.2197 1.28033C20.3603 1.42098 20.5511 1.5 20.75 1.5H21.5ZM21.5 16.5C21.8978 16.5 22.2794 16.342 22.5607 16.0607C22.842 15.7794 23 15.3978 23 15V14.25C23 14.0511 23.079 13.8603 23.2197 13.7197C23.3603 13.579 23.5511 13.5 23.75 13.5C23.9489 13.5 24.1397 13.579 24.2803 13.7197C24.421 13.8603 24.5 14.0511 24.5 14.25V15C24.5 15.7956 24.1839 16.5587 23.6213 17.1213C23.0587 17.6839 22.2956 18 21.5 18H20.75C20.5511 18 20.3603 17.921 20.2197 17.7803C20.079 17.6397 20 17.4489 20 17.25C20 17.0511 20.079 16.8603 20.2197 16.7197C20.3603 16.579 20.5511 16.5 20.75 16.5H21.5ZM23.75 6C23.5511 6 23.3603 6.07902 23.2197 6.21967C23.079 6.36032 23 6.55109 23 6.75V11.25C23 11.4489 23.079 11.6397 23.2197 11.7803C23.3603 11.921 23.5511 12 23.75 12C23.9489 12 24.1397 11.921 24.2803 11.7803C24.421 11.6397 24.5 11.4489 24.5 11.25V6.75C24.5 6.55109 24.421 6.36032 24.2803 6.21967C24.1397 6.07902 23.9489 6 23.75 6ZM13.25 0C13.0511 0 12.8603 0.0790178 12.7197 0.21967C12.579 0.360322 12.5 0.551088 12.5 0.75C12.5 0.948912 12.579 1.13968 12.7197 1.28033C12.8603 1.42098 13.0511 1.5 13.25 1.5H17.75C17.9489 1.5 18.1397 1.42098 18.2803 1.28033C18.421 1.13968 18.5 0.948912 18.5 0.75C18.5 0.551088 18.421 0.360322 18.2803 0.21967C18.1397 0.0790178 17.9489 0 17.75 0H13.25ZM12.5 17.25C12.5 17.0511 12.579 16.8603 12.7197 16.7197C12.8603 16.579 13.0511 16.5 13.25 16.5H17.75C17.9489 16.5 18.1397 16.579 18.2803 16.7197C18.421 16.8603 18.5 17.0511 18.5 17.25C18.5 17.4489 18.421 17.6397 18.2803 17.7803C18.1397 17.921 17.9489 18 17.75 18H13.25C13.0511 18 12.8603 17.921 12.7197 17.7803C12.579 17.6397 12.5 17.4489 12.5 17.25ZM3.5 6H5V7.5H3.5C3.10218 7.5 2.72064 7.65804 2.43934 7.93934C2.15804 8.22064 2 8.60218 2 9V18.75C2 19.7446 2.39509 20.6984 3.09835 21.4016C3.80161 22.1049 4.75544 22.5 5.75 22.5H15.5C15.8978 22.5 16.2794 22.342 16.5607 22.0607C16.842 21.7794 17 21.3978 17 21V19.5H18.5V21C18.5 21.7956 18.1839 22.5587 17.6213 23.1213C17.0587 23.6839 16.2956 24 15.5 24H5.75C4.35761 24 3.02226 23.4469 2.03769 22.4623C1.05312 21.4777 0.5 20.1424 0.5 18.75V9C0.5 8.20435 0.81607 7.44129 1.37868 6.87868C1.94129 6.31607 2.70435 6 3.5 6Z" fill="#008AA7"/>
</svg>
