<svg width="20" height="21" viewBox="0 0 20 21" fill="none" xmlns="http://www.w3.org/2000/svg">
<path fill-rule="evenodd" clip-rule="evenodd" d="M9.98233 0.812641C14.4945 0.812641 18.3068 3.812 19.5426 7.92876H16.684C15.5675 5.3284 12.9874 3.50725 9.98233 3.50725C6.02562 3.50725 2.80521 6.66406 2.69325 10.6005L2.63903 17.5851C1.00094 15.8039 0 13.4255 0 10.8124C0 5.2896 4.46922 0.8125 9.98233 0.8125V0.812641ZM4.10642 10.6491C4.23726 7.45471 6.97388 4.81893 9.98247 4.81893C12.9909 4.81893 15.1266 6.74039 15.7827 9.33709C17.1317 9.33709 18.494 9.35077 19.8582 9.35077C19.928 9.82793 19.9647 10.3159 19.9647 10.8126C19.9647 16.3354 15.4954 20.8125 9.98233 20.8125C9.37109 20.8125 8.77281 20.7572 8.19199 20.6518V17.8957C8.76478 18.0406 9.36461 18.1177 9.98233 18.1177C13.5834 18.1177 16.5744 15.503 17.1675 12.0653H15.8343C15.2593 14.7741 12.8578 16.8063 9.98233 16.8063C8.73154 16.8063 7.57047 16.4217 6.61024 15.7643C6.61024 17.2726 6.67939 18.7083 6.67939 20.2514C5.76915 19.9318 4.91919 19.4839 4.1512 18.9293V17.8869L4.10628 10.6489L4.10642 10.6491ZM9.98247 7.52342C11.7959 7.52342 13.266 8.99608 13.266 10.8127C13.266 12.6293 11.7959 14.102 9.98247 14.102C8.16904 14.102 6.69897 12.6293 6.69897 10.8127C6.69897 8.99608 8.16904 7.52342 9.98247 7.52342Z" fill="#0188A5"/>
<path d="M9.98234 12.6053C10.9675 12.6053 11.7662 11.8052 11.7662 10.8183C11.7662 9.83132 10.9675 9.03125 9.98234 9.03125C8.99715 9.03125 8.19849 9.83132 8.19849 10.8183C8.19849 11.8052 8.99715 12.6053 9.98234 12.6053Z" fill="#FDAE09"/>
</svg>
