<svg width="21" height="24" viewBox="0 0 21 24" fill="none" xmlns="http://www.w3.org/2000/svg">
<g clip-path="url(#clip0_1665_2829)">
<path d="M19.6002 18.2422C19.2497 19.0531 18.8349 19.7994 18.3543 20.4857C17.6992 21.4212 17.1629 22.0687 16.7495 22.4283C16.1087 23.0185 15.4221 23.3208 14.6869 23.338C14.1591 23.338 13.5226 23.1876 12.7817 22.8824C12.0383 22.5787 11.3552 22.4283 10.7306 22.4283C10.0755 22.4283 9.3729 22.5787 8.62139 22.8824C7.86874 23.1876 7.26242 23.3466 6.79884 23.3624C6.09382 23.3925 5.39109 23.0816 4.68965 22.4283C4.24195 22.0372 3.68197 21.3667 3.01114 20.4169C2.29139 19.4026 1.69965 18.2264 1.23608 16.8855C0.739603 15.4371 0.490723 14.0346 0.490723 12.6768C0.490723 11.1214 0.826282 9.77988 1.4984 8.6557C2.02663 7.75273 2.72936 7.04043 3.60888 6.51752C4.4884 5.99462 5.43872 5.72815 6.46214 5.7111C7.02212 5.7111 7.75646 5.88459 8.66902 6.22556C9.57901 6.56767 10.1633 6.74116 10.4195 6.74116C10.611 6.74116 11.2601 6.5383 12.3605 6.13387C13.401 5.75881 14.2793 5.60351 14.9987 5.66469C16.9483 5.82228 18.413 6.59202 19.387 7.97879C17.6435 9.03692 16.781 10.519 16.7981 12.4202C16.8139 13.9011 17.3502 15.1334 18.4044 16.1119C18.8821 16.566 19.4157 16.917 20.0092 17.1663C19.8805 17.5402 19.7446 17.8984 19.6002 18.2422ZM15.1289 0.619587C15.1289 1.78031 14.7055 2.86407 13.8616 3.86718C12.8432 5.05969 11.6114 5.74878 10.2756 5.64005C10.2586 5.5008 10.2487 5.35424 10.2487 5.20023C10.2487 4.08594 10.733 2.89343 11.5931 1.9184C12.0225 1.42472 12.5686 1.01423 13.2308 0.686776C13.8917 0.364208 14.5167 0.185821 15.1046 0.155273C15.1217 0.310443 15.1289 0.465623 15.1289 0.619572V0.619587Z" fill="black"/>
</g>
<defs>
<clipPath id="clip0_1665_2829">
<rect width="19.5185" height="23.2091" fill="white" transform="translate(0.490723 0.154297)"/>
</clipPath>
</defs>
</svg>
