<svg width="10" height="12" viewBox="0 0 10 12" fill="none" xmlns="http://www.w3.org/2000/svg">
<path d="M9.08353 6.81049C9.03228 6.8631 8.83878 7.08803 8.65854 7.27305C7.6018 8.4367 4.84508 10.3414 3.40222 10.9227C3.1831 11.0161 2.62911 11.2139 2.33311 11.2266C2.04949 11.2266 1.77912 11.1613 1.52112 11.0288C1.1995 10.8438 0.941503 10.5527 0.800133 10.2089C0.709126 9.9704 0.567756 9.25661 0.567756 9.24391C0.426386 8.463 0.348633 7.19414 0.348633 5.79196C0.348633 4.45598 0.426386 3.23882 0.542133 2.44612C0.555386 2.43342 0.696756 1.5464 0.85138 1.24256C1.135 0.687492 1.689 0.342841 2.28187 0.342841H2.33311C2.71923 0.356446 3.53122 0.701097 3.53122 0.713796C4.89633 1.29607 7.58943 3.10731 8.67179 4.31086C8.67179 4.31086 8.97662 4.62014 9.10915 4.81333C9.31591 5.09086 9.4184 5.43461 9.4184 5.77835C9.4184 6.162 9.30265 6.51935 9.08353 6.81049Z" fill="#008AA7"/>
</svg>
