<svg width="19" height="23" viewBox="0 0 19 23" fill="none" xmlns="http://www.w3.org/2000/svg">
<path d="M4.22656 5.10742C4.11914 5.10742 4.03125 5.19531 4.03125 5.30273V6.47461C4.03125 6.58203 4.11914 6.66992 4.22656 6.66992H13.6016C13.709 6.66992 13.7969 6.58203 13.7969 6.47461V5.30273C13.7969 5.19531 13.709 5.10742 13.6016 5.10742H4.22656ZM8.71875 8.62305H4.22656C4.11914 8.62305 4.03125 8.71094 4.03125 8.81836V9.99023C4.03125 10.0977 4.11914 10.1855 4.22656 10.1855H8.71875C8.82617 10.1855 8.91406 10.0977 8.91406 9.99023V8.81836C8.91406 8.71094 8.82617 8.62305 8.71875 8.62305ZM7.54688 19.8047H2.07812V2.61719H15.75V10.4297C15.75 10.5371 15.8379 10.625 15.9453 10.625H17.3125C17.4199 10.625 17.5078 10.5371 17.5078 10.4297V1.64062C17.5078 1.2085 17.1587 0.859375 16.7266 0.859375H1.10156C0.669434 0.859375 0.320312 1.2085 0.320312 1.64062V20.7812C0.320312 21.2134 0.669434 21.5625 1.10156 21.5625H7.54688C7.6543 21.5625 7.74219 21.4746 7.74219 21.3672V20C7.74219 19.8926 7.6543 19.8047 7.54688 19.8047ZM18.2891 17.6562H14.7734V16.7627C15.9038 16.4258 16.7266 15.3809 16.7266 14.1406C16.7266 12.6294 15.5034 11.4062 13.9922 11.4062C12.481 11.4062 11.2578 12.6294 11.2578 14.1406C11.2578 15.3784 12.0806 16.4258 13.2109 16.7627V17.6562H9.69531C9.48047 17.6562 9.30469 17.832 9.30469 18.0469V21.7578C9.30469 21.9727 9.48047 22.1484 9.69531 22.1484H18.2891C18.5039 22.1484 18.6797 21.9727 18.6797 21.7578V18.0469C18.6797 17.832 18.5039 17.6562 18.2891 17.6562ZM12.7715 14.1406C12.7715 13.4668 13.3184 12.9199 13.9922 12.9199C14.666 12.9199 15.2129 13.4668 15.2129 14.1406C15.2129 14.8145 14.666 15.3613 13.9922 15.3613C13.3184 15.3613 12.7715 14.8145 12.7715 14.1406ZM17.166 20.6348H10.8184V19.1699H17.166V20.6348Z" fill="#111111"/>
</svg>
