<svg width="18" height="19" viewBox="0 0 18 19" fill="none" xmlns="http://www.w3.org/2000/svg">
<path d="M8.73254 5.3107C8.99781 5.3107 9.25221 5.20533 9.43979 5.01775C9.62736 4.83018 9.73274 4.57577 9.73274 4.3105C9.73274 4.04523 9.62736 3.79083 9.43979 3.60326C9.25221 3.41568 8.99781 3.3103 8.73254 3.3103C8.46727 3.3103 8.21286 3.41568 8.02529 3.60326C7.83772 3.79083 7.73234 4.04523 7.73234 4.3105C7.73234 4.57577 7.83772 4.83018 8.02529 5.01775C8.21286 5.20533 8.46727 5.3107 8.73254 5.3107ZM15.9325 14.2699V7.8619H16.0429C17.1145 7.8619 17.5549 6.4843 16.6789 5.8639L9.65894 0.881504C9.38829 0.689234 9.06453 0.585938 8.73254 0.585938C8.40055 0.585938 8.07678 0.689234 7.80614 0.881504L0.783736 5.8639C-0.0898638 6.4843 0.348136 7.8607 1.41974 7.8607H1.53254V14.2687C0.811336 14.7319 0.332536 15.5407 0.332536 16.4611V18.0607C0.332536 18.2198 0.395751 18.3724 0.508272 18.485C0.620794 18.5975 0.773406 18.6607 0.932536 18.6607H16.5325C16.6917 18.6607 16.8443 18.5975 16.9568 18.485C17.0693 18.3724 17.1325 18.2198 17.1325 18.0607V16.4611C17.1325 15.5407 16.6549 14.7319 15.9325 14.2699V14.2699ZM8.49974 1.8607C8.56727 1.81286 8.64798 1.78717 8.73074 1.78717C8.81349 1.78717 8.89421 1.81286 8.96174 1.8607L15.7285 6.6607H1.73414L8.50094 1.8607H8.49974ZM14.7301 7.8607V13.8679C14.6639 13.863 14.5974 13.8606 14.5309 13.8607H12.3301V7.8619H14.7301V7.8607ZM2.73254 13.8679V7.8619H5.13254V13.8619H2.93174C2.86454 13.8619 2.79734 13.8643 2.73134 13.8691L2.73254 13.8679ZM2.93294 15.0607H14.5333C15.3061 15.0607 15.9325 15.6871 15.9325 16.4611V17.4607H1.53254V16.4611C1.53254 15.6871 2.16014 15.0607 2.93294 15.0607ZM8.13254 13.8607H6.33254V7.8619H8.13254V13.8619V13.8607ZM9.33254 13.8607V7.8619H11.1325V13.8619H9.33254V13.8607Z" fill="white"/>
</svg>
