<svg width="20" height="20" viewBox="0 0 20 20" fill="none" xmlns="http://www.w3.org/2000/svg">
<path d="M18.9996 1L12.4996 19C12.4557 19.0957 12.3853 19.1769 12.2966 19.2338C12.208 19.2906 12.1049 19.3209 11.9996 19.3209C11.8943 19.3209 11.7912 19.2906 11.7025 19.2338C11.6139 19.1769 11.5435 19.0957 11.4996 19L7.99958 12L0.999582 8.5C0.90384 8.45613 0.822708 8.38569 0.765828 8.29705C0.708948 8.20842 0.678711 8.10532 0.678711 8C0.678711 7.89468 0.708948 7.79158 0.765828 7.70295C0.822708 7.61431 0.90384 7.54387 0.999582 7.5L18.9996 1Z" stroke="#008AA8" stroke-linecap="round" stroke-linejoin="round"/>
</svg>
