<svg width="18" height="37" viewBox="0 0 18 37" fill="none" xmlns="http://www.w3.org/2000/svg">
<path d="M4.15254 27.2825V36.96H0.0400391V8.26C0.0400391 5.7225 0.792539 3.7275 2.28004 2.24C3.75004 0.7525 5.79754 0 8.31754 0C10.75 0 12.6225 0.595 14.0225 1.75C15.405 2.94 16.0875 4.585 16.0875 6.6675C16.0875 8.1025 15.6325 9.45 14.7225 10.6925C13.8125 11.935 12.64 12.7925 11.1875 13.265V13.335C13.375 13.685 15.0725 14.4725 16.2275 15.75C17.3825 16.9925 17.96 18.585 17.96 20.545C17.96 22.855 17.155 24.745 15.5625 26.1975C13.9525 27.65 11.8525 28.3675 9.22754 28.3675C7.37254 28.3675 5.67504 28 4.15254 27.2825ZM6.76004 15.3125V11.9525C8.28254 11.76 9.52504 11.2 10.5225 10.255C11.5025 9.2925 11.9925 8.225 11.9925 7C11.9925 4.585 10.75 3.36 8.30004 3.36C6.97004 3.36 5.93754 3.78 5.22004 4.6375C4.50254 5.495 4.15254 6.685 4.15254 8.2425V23.625C5.74504 24.5525 7.30254 25.0075 8.80754 25.0075C10.2775 25.0075 11.4325 24.6225 12.255 23.87C13.0775 23.1 13.48 22.015 13.48 20.6325C13.48 17.5 11.24 15.75 6.76004 15.3125Z" fill="#E0F7FE"/>
</svg>
