<svg width="17" height="16" viewBox="0 0 17 16" fill="none" xmlns="http://www.w3.org/2000/svg">
<path d="M9.44816 11.2396H7.78149C7.32316 11.2396 6.94816 10.8646 6.94816 10.4062H1.12316V13.7396C1.12316 14.6562 1.87316 15.4062 2.78983 15.4062H14.4482C15.3648 15.4062 16.1148 14.6562 16.1148 13.7396V10.4062H10.2815C10.2815 10.8646 9.90649 11.2396 9.44816 11.2396ZM15.2815 3.73958H11.9482C11.9482 1.89792 10.4565 0.40625 8.61483 0.40625C6.77316 0.40625 5.28149 1.89792 5.28149 3.73958H1.94816C1.03149 3.73958 0.281494 4.48958 0.281494 5.40625V7.90625C0.281494 8.83125 1.02316 9.57292 1.94816 9.57292H6.94816V8.73958C6.94816 8.28125 7.32316 7.90625 7.78149 7.90625H9.44816C9.90649 7.90625 10.2815 8.28125 10.2815 8.73958V9.57292H15.2815C16.1982 9.57292 16.9482 8.82292 16.9482 7.90625V5.40625C16.9482 4.48958 16.1982 3.73958 15.2815 3.73958ZM6.94816 3.73958C6.94816 2.82292 7.69816 2.07292 8.61483 2.07292C9.53149 2.07292 10.2815 2.82292 10.2815 3.73958H6.93983H6.94816Z" fill="#008AA7"/>
</svg>
