<svg width="26" height="26" viewBox="0 0 26 26" fill="none" xmlns="http://www.w3.org/2000/svg">
<path d="M8.9375 21.125V24.375V21.125ZM4.0625 1.625H13.8125C14.2435 1.625 14.6568 1.7962 14.9615 2.10095C15.2663 2.4057 15.4375 2.81902 15.4375 3.25V24.1719C15.4375 24.2257 15.4161 24.2774 15.378 24.3155C15.3399 24.3536 15.2882 24.375 15.2344 24.375H2.4375V3.25C2.4375 2.81902 2.6087 2.4057 2.91345 2.10095C3.2182 1.7962 3.63152 1.625 4.0625 1.625V1.625ZM16.25 9.75H21.9375C22.3685 9.75 22.7818 9.92121 23.0865 10.226C23.3913 10.5307 23.5625 10.944 23.5625 11.375V24.375H15.4375V10.5625C15.4375 10.347 15.5231 10.1403 15.6755 9.98798C15.8278 9.8356 16.0345 9.75 16.25 9.75Z" stroke="#111111" stroke-width="1.875" stroke-linecap="round" stroke-linejoin="round"/>
<path d="M4.98037 21.9306C4.81209 21.9526 4.64115 21.9214 4.49153 21.8413C4.34192 21.7612 4.22113 21.6363 4.14614 21.484C4.07114 21.3318 4.0457 21.1599 4.07338 20.9925C4.10106 20.825 4.18048 20.6705 4.30048 20.5505C4.42048 20.4305 4.57504 20.3511 4.74248 20.3234C4.90991 20.2957 5.08181 20.3211 5.23405 20.3961C5.38629 20.4711 5.51122 20.5919 5.59132 20.7415C5.67141 20.8911 5.70265 21.0621 5.68064 21.2304C5.65741 21.4079 5.57617 21.5729 5.44953 21.6995C5.32288 21.8262 5.15795 21.9074 4.98037 21.9306ZM4.98037 17.8681C4.81209 17.8901 4.64115 17.8589 4.49153 17.7788C4.34192 17.6987 4.22113 17.5738 4.14614 17.4215C4.07114 17.2693 4.0457 17.0974 4.07338 16.93C4.10106 16.7625 4.18048 16.608 4.30048 16.488C4.42048 16.368 4.57504 16.2886 4.74248 16.2609C4.90991 16.2332 5.08181 16.2586 5.23405 16.3336C5.38629 16.4086 5.51122 16.5294 5.59132 16.679C5.67141 16.8286 5.70265 16.9996 5.68064 17.1679C5.65741 17.3454 5.57617 17.5104 5.44953 17.637C5.32288 17.7637 5.15795 17.8449 4.98037 17.8681ZM4.98037 13.8056C4.81209 13.8276 4.64115 13.7964 4.49153 13.7163C4.34192 13.6362 4.22113 13.5113 4.14614 13.359C4.07114 13.2068 4.0457 13.0349 4.07338 12.8675C4.10106 12.7 4.18048 12.5455 4.30048 12.4255C4.42048 12.3055 4.57504 12.2261 4.74248 12.1984C4.90991 12.1707 5.08181 12.1961 5.23405 12.2711C5.38629 12.3461 5.51122 12.4669 5.59132 12.6165C5.67141 12.7661 5.70265 12.9371 5.68064 13.1054C5.65741 13.2829 5.57617 13.4479 5.44953 13.5745C5.32288 13.7012 5.15795 13.7824 4.98037 13.8056ZM4.98037 9.74314C4.81209 9.76515 4.64115 9.73391 4.49153 9.65382C4.34192 9.57372 4.22113 9.44879 4.14614 9.29655C4.07114 9.14431 4.0457 8.97241 4.07338 8.80498C4.10106 8.63754 4.18048 8.48298 4.30048 8.36298C4.42048 8.24298 4.57504 8.16356 4.74248 8.13588C4.90991 8.1082 5.08181 8.13364 5.23405 8.20864C5.38629 8.28363 5.51122 8.40442 5.59132 8.55403C5.67141 8.70365 5.70265 8.87459 5.68064 9.04287C5.65741 9.22045 5.57617 9.38538 5.44953 9.51202C5.32288 9.63867 5.15795 9.71991 4.98037 9.74314ZM4.98037 5.68064C4.81209 5.70265 4.64115 5.67141 4.49153 5.59132C4.34192 5.51122 4.22113 5.38629 4.14614 5.23405C4.07114 5.08181 4.0457 4.90991 4.07338 4.74248C4.10106 4.57504 4.18048 4.42048 4.30048 4.30048C4.42048 4.18048 4.57504 4.10106 4.74248 4.07338C4.90991 4.0457 5.08181 4.07114 5.23405 4.14614C5.38629 4.22113 5.51122 4.34192 5.59132 4.49153C5.67141 4.64115 5.70265 4.81209 5.68064 4.98037C5.65741 5.15795 5.57617 5.32288 5.44953 5.44953C5.32288 5.57617 5.15795 5.65741 4.98037 5.68064ZM9.04287 17.8681C8.87459 17.8901 8.70365 17.8589 8.55403 17.7788C8.40442 17.6987 8.28363 17.5738 8.20864 17.4215C8.13364 17.2693 8.1082 17.0974 8.13588 16.93C8.16356 16.7625 8.24298 16.608 8.36298 16.488C8.48298 16.368 8.63754 16.2886 8.80498 16.2609C8.97241 16.2332 9.14431 16.2586 9.29655 16.3336C9.44879 16.4086 9.57372 16.5294 9.65382 16.679C9.73391 16.8286 9.76515 16.9996 9.74314 17.1679C9.71991 17.3454 9.63867 17.5104 9.51202 17.637C9.38538 17.7637 9.22045 17.8449 9.04287 17.8681ZM9.04287 13.8056C8.87459 13.8276 8.70365 13.7964 8.55403 13.7163C8.40442 13.6362 8.28363 13.5113 8.20864 13.359C8.13364 13.2068 8.1082 13.0349 8.13588 12.8675C8.16356 12.7 8.24298 12.5455 8.36298 12.4255C8.48298 12.3055 8.63754 12.2261 8.80498 12.1984C8.97241 12.1707 9.14431 12.1961 9.29655 12.2711C9.44879 12.3461 9.57372 12.4669 9.65382 12.6165C9.73391 12.7661 9.76515 12.9371 9.74314 13.1054C9.71991 13.2829 9.63867 13.4479 9.51202 13.5745C9.38538 13.7012 9.22045 13.7824 9.04287 13.8056ZM9.04287 9.74314C8.87459 9.76515 8.70365 9.73391 8.55403 9.65382C8.40442 9.57372 8.28363 9.44879 8.20864 9.29655C8.13364 9.14431 8.1082 8.97241 8.13588 8.80498C8.16356 8.63754 8.24298 8.48298 8.36298 8.36298C8.48298 8.24298 8.63754 8.16356 8.80498 8.13588C8.97241 8.1082 9.14431 8.13364 9.29655 8.20864C9.44879 8.28363 9.57372 8.40442 9.65382 8.55403C9.73391 8.70365 9.76515 8.87459 9.74314 9.04287C9.71991 9.22045 9.63867 9.38538 9.51202 9.51202C9.38538 9.63867 9.22045 9.71991 9.04287 9.74314ZM9.04287 5.68064C8.87459 5.70265 8.70365 5.67141 8.55403 5.59132C8.40442 5.51122 8.28363 5.38629 8.20864 5.23405C8.13364 5.08181 8.1082 4.90991 8.13588 4.74248C8.16356 4.57504 8.24298 4.42048 8.36298 4.30048C8.48298 4.18048 8.63754 4.10106 8.80498 4.07338C8.97241 4.0457 9.14431 4.07114 9.29655 4.14614C9.44879 4.22113 9.57372 4.34192 9.65382 4.49153C9.73391 4.64115 9.76515 4.81209 9.74314 4.98037C9.71991 5.15795 9.63867 5.32288 9.51202 5.44953C9.38538 5.57617 9.22045 5.65741 9.04287 5.68064ZM13.1054 21.9306C12.9371 21.9526 12.7661 21.9214 12.6165 21.8413C12.4669 21.7612 12.3461 21.6363 12.2711 21.484C12.1961 21.3318 12.1707 21.1599 12.1984 20.9925C12.2261 20.825 12.3055 20.6705 12.4255 20.5505C12.5455 20.4305 12.7 20.3511 12.8675 20.3234C13.0349 20.2957 13.2068 20.3211 13.359 20.3961C13.5113 20.4711 13.6362 20.5919 13.7163 20.7415C13.7964 20.8911 13.8276 21.0621 13.8056 21.2304C13.7824 21.4079 13.7012 21.5729 13.5745 21.6995C13.4479 21.8262 13.2829 21.9074 13.1054 21.9306ZM13.1054 17.8681C12.9371 17.8901 12.7661 17.8589 12.6165 17.7788C12.4669 17.6987 12.3461 17.5738 12.2711 17.4215C12.1961 17.2693 12.1707 17.0974 12.1984 16.93C12.2261 16.7625 12.3055 16.608 12.4255 16.488C12.5455 16.368 12.7 16.2886 12.8675 16.2609C13.0349 16.2332 13.2068 16.2586 13.359 16.3336C13.5113 16.4086 13.6362 16.5294 13.7163 16.679C13.7964 16.8286 13.8276 16.9996 13.8056 17.1679C13.7824 17.3454 13.7012 17.5104 13.5745 17.637C13.4479 17.7637 13.2829 17.8449 13.1054 17.8681ZM13.1054 13.8056C12.9371 13.8276 12.7661 13.7964 12.6165 13.7163C12.4669 13.6362 12.3461 13.5113 12.2711 13.359C12.1961 13.2068 12.1707 13.0349 12.1984 12.8675C12.2261 12.7 12.3055 12.5455 12.4255 12.4255C12.5455 12.3055 12.7 12.2261 12.8675 12.1984C13.0349 12.1707 13.2068 12.1961 13.359 12.2711C13.5113 12.3461 13.6362 12.4669 13.7163 12.6165C13.7964 12.7661 13.8276 12.9371 13.8056 13.1054C13.7824 13.2829 13.7012 13.4479 13.5745 13.5745C13.4479 13.7012 13.2829 13.7824 13.1054 13.8056Z" fill="#111111"/>
<path d="M13.5755 9.51597C13.8918 9.19966 13.8905 8.68554 13.5726 8.36764C13.2547 8.04975 12.7406 8.04846 12.4243 8.36477C12.108 8.68108 12.1093 9.19521 12.4272 9.5131C12.7451 9.831 13.2592 9.83228 13.5755 9.51597Z" fill="#111111"/>
<path d="M13.1054 5.68064C12.9371 5.70265 12.7661 5.67141 12.6165 5.59132C12.4669 5.51122 12.3461 5.38629 12.2711 5.23405C12.1961 5.08181 12.1707 4.90991 12.1984 4.74248C12.2261 4.57504 12.3055 4.42048 12.4255 4.30048C12.5455 4.18048 12.7 4.10106 12.8675 4.07338C13.0349 4.0457 13.2068 4.07114 13.3591 4.14614C13.5113 4.22113 13.6362 4.34192 13.7163 4.49153C13.7964 4.64115 13.8276 4.81209 13.8056 4.98037C13.7824 5.15795 13.7012 5.32288 13.5745 5.44953C13.4479 5.57617 13.2829 5.65741 13.1054 5.68064ZM20.3122 20.3122C20.1515 20.3122 19.9945 20.3599 19.8608 20.4492C19.7272 20.5385 19.6231 20.6653 19.5616 20.8138C19.5001 20.9623 19.484 21.1256 19.5154 21.2833C19.5467 21.4409 19.6241 21.5856 19.7377 21.6993C19.8513 21.8129 19.9961 21.8903 20.1537 21.9216C20.3113 21.953 20.4747 21.9369 20.6232 21.8754C20.7716 21.8139 20.8985 21.7098 20.9878 21.5761C21.0771 21.4425 21.1247 21.2854 21.1247 21.1247C21.1247 20.9093 21.0391 20.7026 20.8868 20.5502C20.7344 20.3978 20.5277 20.3122 20.3122 20.3122ZM20.3122 16.2497C20.1515 16.2497 19.9945 16.2974 19.8608 16.3867C19.7272 16.476 19.6231 16.6028 19.5616 16.7513C19.5001 16.8998 19.484 17.0631 19.5154 17.2208C19.5467 17.3784 19.6241 17.5231 19.7377 17.6368C19.8513 17.7504 19.9961 17.8278 20.1537 17.8591C20.3113 17.8905 20.4747 17.8744 20.6232 17.8129C20.7716 17.7514 20.8985 17.6473 20.9878 17.5136C21.0771 17.38 21.1247 17.2229 21.1247 17.0622C21.1247 16.8468 21.0391 16.6401 20.8868 16.4877C20.7344 16.3353 20.5277 16.2497 20.3122 16.2497ZM20.3122 12.1872C20.1515 12.1872 19.9945 12.2349 19.8608 12.3242C19.7272 12.4135 19.6231 12.5403 19.5616 12.6888C19.5001 12.8373 19.484 13.0006 19.5154 13.1583C19.5467 13.3159 19.6241 13.4606 19.7377 13.5743C19.8513 13.6879 19.9961 13.7653 20.1537 13.7966C20.3113 13.828 20.4747 13.8119 20.6232 13.7504C20.7716 13.6889 20.8985 13.5848 20.9878 13.4511C21.0771 13.3175 21.1247 13.1604 21.1247 12.9997C21.1247 12.7843 21.0391 12.5776 20.8868 12.4252C20.7344 12.2728 20.5277 12.1872 20.3122 12.1872ZM17.0622 20.3122C16.9015 20.3122 16.7445 20.3599 16.6108 20.4492C16.4772 20.5385 16.3731 20.6653 16.3116 20.8138C16.2501 20.9623 16.234 21.1256 16.2654 21.2833C16.2967 21.4409 16.3741 21.5856 16.4877 21.6993C16.6013 21.8129 16.7461 21.8903 16.9037 21.9216C17.0613 21.953 17.2247 21.9369 17.3732 21.8754C17.5216 21.8139 17.6485 21.7098 17.7378 21.5761C17.8271 21.4425 17.8747 21.2854 17.8747 21.1247C17.8747 20.9093 17.7891 20.7026 17.6368 20.5502C17.4844 20.3978 17.2777 20.3122 17.0622 20.3122ZM17.0622 16.2497C16.9015 16.2497 16.7445 16.2974 16.6108 16.3867C16.4772 16.476 16.3731 16.6028 16.3116 16.7513C16.2501 16.8998 16.234 17.0631 16.2654 17.2208C16.2967 17.3784 16.3741 17.5231 16.4877 17.6368C16.6013 17.7504 16.7461 17.8278 16.9037 17.8591C17.0613 17.8905 17.2247 17.8744 17.3732 17.8129C17.5216 17.7514 17.6485 17.6473 17.7378 17.5136C17.8271 17.38 17.8747 17.2229 17.8747 17.0622C17.8747 16.8468 17.7891 16.6401 17.6368 16.4877C17.4844 16.3353 17.2777 16.2497 17.0622 16.2497ZM17.0622 12.1872C16.9015 12.1872 16.7445 12.2349 16.6108 12.3242C16.4772 12.4135 16.3731 12.5403 16.3116 12.6888C16.2501 12.8373 16.234 13.0006 16.2654 13.1583C16.2967 13.3159 16.3741 13.4606 16.4877 13.5743C16.6013 13.6879 16.7461 13.7653 16.9037 13.7966C17.0613 13.828 17.2247 13.8119 17.3732 13.7504C17.5216 13.6889 17.6485 13.5848 17.7378 13.4511C17.8271 13.3175 17.8747 13.1604 17.8747 12.9997C17.8747 12.7843 17.7891 12.5776 17.6368 12.4252C17.4844 12.2728 17.2777 12.1872 17.0622 12.1872Z" fill="#111111"/>
</svg>
