<svg width="25" height="26" viewBox="0 0 25 26" fill="none" xmlns="http://www.w3.org/2000/svg">
<path d="M10.1198 13.0026C11.3188 13.0026 12.2032 12.1182 12.2032 10.9193C12.2032 9.72031 11.3188 8.83594 10.1198 8.83594C8.92087 8.83594 8.0365 9.72031 8.0365 10.9193C8.0365 12.1182 8.91983 13.0026 10.1198 13.0026Z" fill="black"/>
<path d="M20.8334 4.66406H4.16671C3.01775 4.66406 2.08337 5.5401 2.08337 6.61719V19.3776C2.08337 20.4547 3.01775 21.3307 4.16671 21.3307H20.8334C21.9823 21.3307 22.9167 20.4547 22.9167 19.3776V6.61719C22.9167 5.5401 21.9823 4.66406 20.8334 4.66406ZM20.8334 19.2474L4.16671 19.2359V6.7474L20.8334 6.75885V19.2474Z" fill="black"/>
<path d="M14.5833 9.875H18.75V11.9583H14.5833V9.875ZM15.625 14.0417H18.75V16.125H15.625V14.0417ZM13.9896 16.6833C13.9896 15.2521 12.2438 13.7813 10.1198 13.7813C7.99583 13.7813 6.25 15.2521 6.25 16.6833V17.1667H13.9896V16.6833Z" fill="black"/>
</svg>
