<svg width="20" height="20" viewBox="0 0 20 20" fill="none" xmlns="http://www.w3.org/2000/svg">
<path d="M10.0003 1.66406C5.40533 1.66406 1.66699 5.4024 1.66699 9.9974C1.66699 14.5924 5.40533 18.3307 10.0003 18.3307C14.5953 18.3307 18.3337 14.5924 18.3337 9.9974C18.3337 5.4024 14.5953 1.66406 10.0003 1.66406ZM10.0003 16.6641C6.32449 16.6641 3.33366 13.6732 3.33366 9.9974C3.33366 6.32156 6.32449 3.33073 10.0003 3.33073C13.6762 3.33073 16.667 6.32156 16.667 9.9974C16.667 13.6732 13.6762 16.6641 10.0003 16.6641Z" fill="black"/>
<path d="M10.8337 5.83594H9.16699V10.3476L11.9112 13.0918L13.0895 11.9134L10.8337 9.6576V5.83594Z" fill="black"/>
</svg>
