<svg width="30" height="31" viewBox="0 0 30 31" fill="none" xmlns="http://www.w3.org/2000/svg">
<path d="M5.62504 27.9375C5.62223 28.3071 5.7661 28.6626 6.0251 28.9263C6.2841 29.1899 6.63708 29.34 7.00662 29.3438H22.9935C23.363 29.34 23.716 29.1899 23.975 28.9263C24.234 28.6626 24.3779 28.3071 24.375 27.9375V9.1875H5.62504V27.9375ZM7.50004 11.0625H22.5V27.4688H7.50004V11.0625Z" fill="#111111"/>
<path d="M9.84375 12.9375H11.7188V24.6562H9.84375V12.9375ZM14.0625 12.9375H15.9375V24.6562H14.0625V12.9375ZM18.2812 12.9375H20.1562V24.6562H18.2812V12.9375ZM19.2188 5.4375V2.625C19.2188 1.83645 18.6628 1.21875 17.9531 1.21875H12.0469C11.3372 1.21875 10.7812 1.83645 10.7812 2.625V5.4375H3.75V7.3125H26.25V5.4375H19.2188ZM12.6562 3.09375H17.3438V5.4375H12.6562V3.09375Z" fill="#111111"/>
</svg>
