<svg width="25" height="18" viewBox="0 0 25 18" fill="none" xmlns="http://www.w3.org/2000/svg">
<path d="M22.4581 6.46744C21.286 5.82907 19.7267 5.37907 18 5.1593V4.39535C18 3.12907 16.9953 1.97791 15.1744 1.16163C13.5209 0.408139 11.3233 0 9 0C6.67674 0 4.47907 0.408139 2.82558 1.16163C1.00465 1.97791 0 3.12907 0 4.39535V8.5814C0 9.84767 1.00465 10.9988 2.82558 11.8151C4.05901 12.345 5.36367 12.6906 6.69767 12.8407V13.6047C6.69767 14.8709 7.70233 16.0221 9.52326 16.8384C11.1767 17.5919 13.3744 18 15.6977 18C18.0209 18 20.2186 17.5919 21.8721 16.8384C23.693 16.0221 24.6977 14.8709 24.6977 13.6047V9.4186C24.6977 8.29884 23.9023 7.25233 22.4581 6.46744ZM21.8512 7.56628C22.8767 8.1314 23.4419 8.78023 23.4419 9.4186C23.4419 10.9047 20.2605 12.5581 15.6977 12.5581C14.9561 12.5558 14.2153 12.5104 13.4791 12.4221C14.0602 12.2675 14.6273 12.0645 15.1744 11.8151C16.9953 10.9988 18 9.84767 18 8.5814V6.42558C19.507 6.63488 20.857 7.03256 21.8512 7.56628ZM7.39884 11.6477H7.36744C6.9907 11.6163 6.62442 11.564 6.27907 11.5116V8.59186C7.18012 8.7232 8.08943 8.78965 9 8.7907C9.91057 8.78965 10.8199 8.7232 11.7209 8.59186V11.5116C10.821 11.6542 9.91112 11.7242 9 11.7209C8.46538 11.7236 7.93098 11.6991 7.39884 11.6477ZM16.7442 6.68721V8.5814C16.7442 9.57558 15.3105 10.6535 12.9767 11.25V8.35116C13.7325 8.18801 14.4691 7.94599 15.1744 7.62907C15.7391 7.39001 16.2675 7.07297 16.7442 6.68721ZM9 1.25581C13.5628 1.25581 16.7442 2.9093 16.7442 4.39535C16.7442 5.8814 13.5628 7.53488 9 7.53488C4.43721 7.53488 1.25581 5.8814 1.25581 4.39535C1.25581 2.9093 4.43721 1.25581 9 1.25581ZM1.25581 8.5814V6.68721C1.73249 7.07297 2.26089 7.39001 2.82558 7.62907C3.53086 7.94599 4.26745 8.18801 5.02326 8.35116V11.25C2.68954 10.6535 1.25581 9.57558 1.25581 8.5814ZM7.95349 13.6047V12.9453C8.29884 12.9663 8.64419 12.9767 9 12.9767C9.35581 12.9767 9.81628 12.9663 10.2244 12.9349C10.7111 13.12 11.2114 13.267 11.7209 13.3744V16.2733C9.38721 15.6767 7.95349 14.5988 7.95349 13.6047ZM12.9767 16.5349V13.6151C13.8778 13.7461 14.7871 13.8125 15.6977 13.814C16.6082 13.8129 17.5176 13.7465 18.4186 13.6151V16.5349C16.6154 16.814 14.78 16.814 12.9767 16.5349ZM19.6744 16.2733V13.3744C20.4302 13.2113 21.1668 12.9692 21.8721 12.6523C22.4368 12.4133 22.9652 12.0962 23.4419 11.7105V13.6047C23.4419 14.5988 22.0081 15.6767 19.6744 16.2733Z" fill="#111111"/>
</svg>
