<svg width="21" height="11" viewBox="0 0 21 11" fill="none" xmlns="http://www.w3.org/2000/svg">
<path d="M15.708 0.289062H5.29134C3.91001 0.289063 2.58525 0.837796 1.60849 1.81455C0.631741 2.7913 0.0830078 4.11606 0.0830078 5.4974C0.0830078 6.87873 0.631741 8.20349 1.60849 9.18024C2.58525 10.157 3.91001 10.7057 5.29134 10.7057H15.708C17.0893 10.7057 18.4141 10.157 19.3909 9.18024C20.3676 8.20349 20.9163 6.87873 20.9163 5.4974C20.9163 4.11606 20.3676 2.7913 19.3909 1.81455C18.4141 0.837796 17.0893 0.289062 15.708 0.289062ZM15.708 8.6224C14.8792 8.6224 14.0843 8.29316 13.4983 7.7071C12.9122 7.12105 12.583 6.3262 12.583 5.4974C12.583 4.66859 12.9122 3.87374 13.4983 3.28769C14.0843 2.70164 14.8792 2.3724 15.708 2.3724C16.5368 2.3724 17.3317 2.70164 17.9177 3.28769C18.5038 3.87374 18.833 4.66859 18.833 5.4974C18.833 6.3262 18.5038 7.12105 17.9177 7.7071C17.3317 8.29316 16.5368 8.6224 15.708 8.6224Z" fill="#111111"/>
</svg>
