<svg width="21" height="26" viewBox="0 0 21 26" fill="none" xmlns="http://www.w3.org/2000/svg">
<path d="M4.25 13.3125C4.25 13.0639 4.34877 12.8254 4.52459 12.6496C4.7004 12.4738 4.93886 12.375 5.1875 12.375C5.43614 12.375 5.6746 12.4738 5.85041 12.6496C6.02623 12.8254 6.125 13.0639 6.125 13.3125C6.125 13.5611 6.02623 13.7996 5.85041 13.9754C5.6746 14.1512 5.43614 14.25 5.1875 14.25C4.93886 14.25 4.7004 14.1512 4.52459 13.9754C4.34877 13.7996 4.25 13.5611 4.25 13.3125ZM5.1875 16.125C4.93886 16.125 4.7004 16.2238 4.52459 16.3996C4.34877 16.5754 4.25 16.8139 4.25 17.0625C4.25 17.3111 4.34877 17.5496 4.52459 17.7254C4.7004 17.9012 4.93886 18 5.1875 18C5.43614 18 5.6746 17.9012 5.85041 17.7254C6.02623 17.5496 6.125 17.3111 6.125 17.0625C6.125 16.8139 6.02623 16.5754 5.85041 16.3996C5.6746 16.2238 5.43614 16.125 5.1875 16.125V16.125ZM4.25 20.8125C4.25 20.5639 4.34877 20.3254 4.52459 20.1496C4.7004 19.9738 4.93886 19.875 5.1875 19.875C5.43614 19.875 5.6746 19.9738 5.85041 20.1496C6.02623 20.3254 6.125 20.5639 6.125 20.8125C6.125 21.0611 6.02623 21.2996 5.85041 21.4754C5.6746 21.6512 5.43614 21.75 5.1875 21.75C4.93886 21.75 4.7004 21.6512 4.52459 21.4754C4.34877 21.2996 4.25 21.0611 4.25 20.8125ZM8.9375 12.375C8.68886 12.375 8.4504 12.4738 8.27459 12.6496C8.09877 12.8254 8 13.0639 8 13.3125C8 13.5611 8.09877 13.7996 8.27459 13.9754C8.4504 14.1512 8.68886 14.25 8.9375 14.25H15.8125C16.0611 14.25 16.2996 14.1512 16.4754 13.9754C16.6512 13.7996 16.75 13.5611 16.75 13.3125C16.75 13.0639 16.6512 12.8254 16.4754 12.6496C16.2996 12.4738 16.0611 12.375 15.8125 12.375H8.9375ZM8 17.0625C8 16.8139 8.09877 16.5754 8.27459 16.3996C8.4504 16.2238 8.68886 16.125 8.9375 16.125H15.8125C16.0611 16.125 16.2996 16.2238 16.4754 16.3996C16.6512 16.5754 16.75 16.8139 16.75 17.0625C16.75 17.3111 16.6512 17.5496 16.4754 17.7254C16.2996 17.9012 16.0611 18 15.8125 18H8.9375C8.68886 18 8.4504 17.9012 8.27459 17.7254C8.09877 17.5496 8 17.3111 8 17.0625ZM8.9375 19.875C8.68886 19.875 8.4504 19.9738 8.27459 20.1496C8.09877 20.3254 8 20.5639 8 20.8125C8 21.0611 8.09877 21.2996 8.27459 21.4754C8.4504 21.6512 8.68886 21.75 8.9375 21.75H15.8125C16.0611 21.75 16.2996 21.6512 16.4754 21.4754C16.6512 21.2996 16.75 21.0611 16.75 20.8125C16.75 20.5639 16.6512 20.3254 16.4754 20.1496C16.2996 19.9738 16.0611 19.875 15.8125 19.875H8.9375ZM19.7675 8.5175L12.4813 1.2325C12.4619 1.21454 12.4415 1.19784 12.42 1.1825C12.4045 1.17057 12.3895 1.15806 12.375 1.145C12.289 1.06384 12.1975 0.988663 12.1013 0.92C12.0692 0.899352 12.0358 0.880974 12.0013 0.865L11.9412 0.835L11.8787 0.79875C11.8112 0.76 11.7425 0.72 11.6713 0.69C11.4223 0.590579 11.1589 0.532318 10.8912 0.5175C10.8665 0.51589 10.8419 0.51297 10.8175 0.50875C10.7836 0.50351 10.7493 0.500587 10.715 0.5H3C2.33696 0.5 1.70107 0.763392 1.23223 1.23223C0.763392 1.70107 0.5 2.33696 0.5 3V23C0.5 23.663 0.763392 24.2989 1.23223 24.7678C1.70107 25.2366 2.33696 25.5 3 25.5H18C18.663 25.5 19.2989 25.2366 19.7678 24.7678C20.2366 24.2989 20.5 23.663 20.5 23V10.285C20.4999 9.62201 20.2364 8.98623 19.7675 8.5175V8.5175ZM18.625 23C18.625 23.1658 18.5592 23.3247 18.4419 23.4419C18.3247 23.5592 18.1658 23.625 18 23.625H3C2.83424 23.625 2.67527 23.5592 2.55806 23.4419C2.44085 23.3247 2.375 23.1658 2.375 23V3C2.375 2.83424 2.44085 2.67527 2.55806 2.55806C2.67527 2.44085 2.83424 2.375 3 2.375H10.5V8C10.5 8.66304 10.7634 9.29893 11.2322 9.76777C11.7011 10.2366 12.337 10.5 13 10.5H18.625V23ZM12.375 3.77625L17.2225 8.625H13C12.8342 8.625 12.6753 8.55915 12.5581 8.44194C12.4408 8.32473 12.375 8.16576 12.375 8V3.77625Z" fill="black"/>
</svg>
