<svg width="20" height="20" viewBox="0 0 20 20" fill="none" xmlns="http://www.w3.org/2000/svg">
<path fill-rule="evenodd" clip-rule="evenodd" d="M9.66958 0.53125C4.36131 0.53125 0.0541992 4.83837 0.0541992 10.1466C0.0541992 15.4549 4.36131 19.762 9.66958 19.762C14.9674 19.762 19.285 15.4549 19.285 10.1466C19.285 4.83837 14.9674 0.53125 9.66958 0.53125ZM16.0207 4.9635C17.1679 6.36096 17.8562 8.14431 17.8771 10.0736C17.6059 10.0215 14.8944 9.46877 12.1621 9.8129C12.0995 9.67735 12.0474 9.53133 11.9848 9.38533C11.8179 8.98904 11.6302 8.58231 11.4425 8.19644C14.4669 6.96585 15.8434 5.19294 16.0207 4.9635ZM9.66958 1.94957C11.7554 1.94957 13.6638 2.73173 15.1134 4.01448C14.9674 4.22306 13.7264 5.88125 10.8063 6.97627C9.46101 4.50463 7.96968 2.48144 7.74026 2.16858C8.35555 2.02257 9.00214 1.94957 9.66958 1.94957ZM6.17593 2.72131C6.39493 3.01331 7.85497 5.04694 9.22114 7.46642C5.38333 8.48844 1.99397 8.4676 1.62895 8.4676C2.16081 5.92296 3.88158 3.8059 6.17593 2.72131ZM1.45166 10.1571C1.45166 10.0736 1.45166 9.99021 1.45166 9.90677C1.80624 9.91719 5.79007 9.96935 9.88858 8.73875C10.1284 9.19761 10.3474 9.6669 10.556 10.1362C10.4517 10.1675 10.337 10.1988 10.2327 10.2301C5.99864 11.5962 3.74601 15.3298 3.5583 15.6426C2.25468 14.193 1.45166 12.2637 1.45166 10.1571ZM9.66958 18.3646C7.77155 18.3646 6.01949 17.718 4.63245 16.6334C4.77847 16.3309 6.44708 13.1188 11.0775 11.5024C11.0983 11.492 11.1088 11.492 11.1296 11.4815C12.2872 14.4746 12.7565 16.9879 12.8817 17.7075C11.8909 18.1351 10.8063 18.3646 9.66958 18.3646ZM14.2479 16.9567C14.1644 16.4561 13.7264 14.0574 12.6522 11.1061C15.2282 10.6994 17.4808 11.3668 17.7624 11.4607C17.4078 13.7446 16.0937 15.7156 14.2479 16.9567Z" fill="#FA9191"/>
</svg>
