<svg width="21" height="21" viewBox="0 0 21 21" fill="none" xmlns="http://www.w3.org/2000/svg">
<path d="M18.5758 4.24023C18.5001 4.23242 18.4238 4.23242 18.348 4.24023H2.79249C2.69279 4.24176 2.59376 4.25671 2.49805 4.28467L10.5258 12.2791L18.5758 4.24023Z" fill="#008AA7"/>
<path d="M19.3981 5.01562L11.3092 13.0712C11.1011 13.2781 10.8194 13.3943 10.5259 13.3943C10.2324 13.3943 9.95075 13.2781 9.74257 13.0712L1.7259 5.07674C1.70126 5.16731 1.68819 5.26065 1.68701 5.35451V16.4656C1.68701 16.7603 1.80407 17.0429 2.01245 17.2513C2.22082 17.4597 2.50344 17.5767 2.79812 17.5767H18.3537C18.6484 17.5767 18.931 17.4597 19.1394 17.2513C19.3477 17.0429 19.4648 16.7603 19.4648 16.4656V5.35451C19.4604 5.23877 19.4379 5.12442 19.3981 5.01562ZM3.55923 16.4656H2.78701V15.6712L6.8259 11.6656L7.60923 12.449L3.55923 16.4656ZM18.3426 16.4656H17.5648L13.5148 12.449L14.2981 11.6656L18.337 15.6712L18.3426 16.4656Z" fill="#008AA7"/>
</svg>
