<svg width="239" height="283" viewBox="0 0 239 283" fill="none" xmlns="http://www.w3.org/2000/svg">
<defs>
<linearGradient id="paint0_linear_1083_12586" x1="120" y1="84.2819" x2="120" y2="282" gradientUnits="userSpaceOnUse">
<stop stop-color="#FFB9AA" stop-opacity="0.2"/>
<stop offset="1" stop-color="#FFB9AA" stop-opacity="0"/>
</linearGradient>
</defs>
<path d="M188.022 133.084L187.029 133.205L187.034 133.243L187.042 133.281L188.022 133.084ZM175.381 123.288C176.069 122.199 176.966 121.756 177.954 121.737C178.998 121.716 180.256 122.169 181.543 123.126C184.112 125.037 186.487 128.731 187.029 133.205L189.015 132.964C188.409 127.968 185.763 123.772 182.736 121.521C181.226 120.398 179.542 119.704 177.914 119.737C176.23 119.771 174.724 120.584 173.69 122.22L175.381 123.288ZM187.042 133.281C187.513 135.636 187.491 139.134 186.95 143.207C186.412 147.261 185.369 151.815 183.848 156.254C182.326 160.696 180.335 164.995 177.914 168.557C175.488 172.126 172.672 174.894 169.521 176.369L170.368 178.18C173.96 176.499 177.026 173.421 179.568 169.681C182.115 165.935 184.177 161.464 185.74 156.903C187.304 152.339 188.377 147.656 188.933 143.47C189.486 139.302 189.536 135.555 189.003 132.888L187.042 133.281Z" fill="#E5E7EB"/>
<path d="M50.3543 133.094L51.347 133.215L51.3424 133.253L51.3348 133.29L50.3543 133.094ZM62.9953 123.298C62.3073 122.209 61.4102 121.766 60.4221 121.746C59.3781 121.725 58.1203 122.179 56.8334 123.136C54.2641 125.047 51.8892 128.741 51.347 133.215L49.3615 132.974C49.9671 127.978 52.6138 123.781 55.64 121.531C57.1508 120.408 58.8343 119.714 60.4624 119.747C62.1466 119.781 63.6527 120.594 64.6863 122.23L62.9953 123.298ZM51.3348 133.29C50.8638 135.645 50.8855 139.143 51.4263 143.216C51.9645 147.271 53.0074 151.825 54.5284 156.264C56.0504 160.706 58.0413 165.005 60.4623 168.567C62.8882 172.135 65.7047 174.904 68.8559 176.379L68.0081 178.19C64.416 176.509 61.3501 173.43 58.8082 169.691C56.2614 165.944 54.1992 161.473 52.6364 156.912C51.0728 152.349 49.9994 147.666 49.4437 143.48C48.8904 139.312 48.8404 135.564 49.3737 132.898L51.3348 133.29Z" fill="#E5E7EB"/>
<path d="M118.007 47C76.227 47 62.0518 82.4859 60.3301 100.372C59.2253 111.85 58.6084 139.684 61.1909 145.997C64.3474 155.18 68.4933 192.483 68.9385 195.065C70.6206 204.822 90.4597 222.612 91.3205 223.186C92.1813 223.76 102.302 233.839 106.529 234.951C111.981 236.386 124.893 236.96 130.919 234.951C137.519 233.803 144.119 225.195 147.275 222.612C149.284 220.604 168.035 204.822 169.944 195.065C172.583 181.579 174.922 155.18 177.118 145.997C180.274 132.798 179.414 110.989 178.266 98.6507C175.396 81.4338 162.197 47 118.007 47Z" fill="white"/>
<path d="M60.3301 100.372L61.3255 100.468L61.3255 100.468L60.3301 100.372ZM178.266 98.6507L179.262 98.5581L179.258 98.522L179.252 98.4863L178.266 98.6507ZM177.118 145.997L176.145 145.765L176.145 145.765L177.118 145.997ZM169.944 195.065L168.963 194.873L168.963 194.873L169.944 195.065ZM147.275 222.612L147.909 223.386L147.947 223.355L147.983 223.319L147.275 222.612ZM130.919 234.951L130.748 233.966L130.674 233.979L130.603 234.002L130.919 234.951ZM106.529 234.951L106.783 233.984L106.783 233.984L106.529 234.951ZM68.9385 195.065L69.924 194.895L69.924 194.895L68.9385 195.065ZM61.1909 145.997L62.1366 145.672L62.1273 145.645L62.1165 145.619L61.1909 145.997ZM61.3255 100.468C62.1709 91.6852 66.0864 78.5372 74.9242 67.6075C83.7321 56.7149 97.4438 48 118.007 48V46C96.7899 46 82.5241 55.028 73.3691 66.35C64.2439 77.6349 60.211 91.1731 59.3347 100.277L61.3255 100.468ZM118.007 48C139.803 48 153.874 56.4754 162.871 67.0181C171.899 77.5976 175.864 90.3203 177.279 98.8151L179.252 98.4863C177.799 89.7642 173.729 76.6615 164.392 65.7199C155.024 54.7415 140.401 46 118.007 46V48ZM177.27 98.7433C178.418 111.081 179.26 132.741 176.145 145.765L178.091 146.23C181.289 132.854 180.409 110.898 179.262 98.5581L177.27 98.7433ZM168.963 194.873C168.528 197.098 167.1 199.771 165.066 202.622C163.046 205.451 160.496 208.363 157.924 211.053C155.355 213.741 152.78 216.191 150.717 218.099C148.687 219.976 147.087 221.387 146.568 221.905L147.983 223.319C148.468 222.833 149.965 221.519 152.075 219.567C154.154 217.645 156.762 215.164 159.37 212.435C161.976 209.709 164.597 206.721 166.693 203.784C168.774 200.869 170.407 197.911 170.926 195.257L168.963 194.873ZM146.642 221.838C145.801 222.527 144.752 223.597 143.602 224.768C142.434 225.959 141.126 227.293 139.715 228.581C136.855 231.19 133.74 233.446 130.748 233.966L131.091 235.936C134.698 235.309 138.183 232.686 141.063 230.058C142.521 228.728 143.867 227.354 145.03 226.169C146.212 224.964 147.172 223.989 147.909 223.386L146.642 221.838ZM130.603 234.002C127.758 234.951 123.165 235.314 118.524 235.243C113.899 235.171 109.398 234.672 106.783 233.984L106.274 235.918C109.111 236.665 113.793 237.17 118.493 237.242C123.179 237.314 128.055 236.96 131.236 235.9L130.603 234.002ZM106.783 233.984C105.92 233.757 104.625 233.019 103.071 231.91C101.55 230.826 99.8885 229.466 98.3155 228.109C96.7448 226.755 95.2764 225.415 94.1419 224.374C93.5771 223.855 93.0898 223.405 92.719 223.07C92.381 222.764 92.0606 222.478 91.8752 222.354L90.7658 224.018C90.7605 224.015 90.8059 224.048 90.9336 224.158C91.0468 224.256 91.1947 224.387 91.3765 224.552C91.7405 224.882 92.2181 225.322 92.7892 225.847C93.9266 226.891 95.4139 228.248 97.0093 229.624C98.6024 230.998 100.317 232.402 101.91 233.538C103.469 234.65 105.024 235.589 106.274 235.918L106.783 233.984ZM91.8752 222.354C91.8803 222.358 91.8006 222.297 91.5938 222.121C91.4085 221.964 91.1567 221.744 90.8464 221.467C90.2263 220.914 89.3815 220.141 88.3843 219.196C86.3895 217.307 83.7933 214.741 81.1736 211.892C78.5512 209.041 75.9203 205.922 73.8466 202.925C71.7539 199.901 70.3058 197.11 69.924 194.895L67.9531 195.235C68.4124 197.899 70.0749 200.99 72.202 204.063C74.3481 207.165 77.0461 210.359 79.7014 213.246C82.3593 216.136 84.9894 218.735 87.0091 220.648C88.0192 221.605 88.8786 222.392 89.5149 222.959C89.8327 223.243 90.097 223.474 90.2977 223.645C90.4769 223.797 90.6531 223.943 90.7658 224.018L91.8752 222.354ZM69.924 194.895C69.7042 193.62 68.5672 183.728 67.0721 172.87C66.328 167.467 65.4981 161.849 64.6557 157.003C63.8173 152.181 62.9551 148.053 62.1366 145.672L60.2452 146.322C61.0049 148.532 61.8446 152.511 62.6853 157.346C63.5219 162.158 64.3481 167.749 65.0908 173.143C66.569 183.878 67.7276 193.928 67.9531 195.235L69.924 194.895ZM62.1165 145.619C61.5379 144.204 61.0975 141.43 60.8085 137.741C60.5231 134.099 60.3929 129.696 60.3777 125.118C60.3473 115.96 60.777 106.166 61.3255 100.468L59.3347 100.277C58.7783 106.056 58.3472 115.919 58.3778 125.125C58.393 129.73 58.5238 134.187 58.8146 137.897C59.1017 141.561 59.5527 144.634 60.2654 146.376L62.1165 145.619ZM176.145 145.765C175.031 150.423 173.89 159.39 172.705 168.792C171.514 178.241 170.274 188.172 168.963 194.873L170.926 195.257C172.253 188.472 173.502 178.46 174.689 169.042C175.882 159.577 177.009 150.753 178.091 146.23L176.145 145.765Z" fill="#E5E7EB"/>
<path d="M93.5 65L104.5 106.5M93.5 65H145M93.5 65L66.5 80M104.5 106.5H134M104.5 106.5L93.5 120M104.5 106.5L66.5 80M134 106.5L145 65M134 106.5L145 120M134 106.5L173 80M145 65L173 80M93.5 120L119 143.5M93.5 120H74M119 143.5L145 120M119 143.5L144 158M119 143.5L95.5 158M119 143.5L128.5 171M119 143.5L109.5 171M145 120H164.5M173 80L164.5 120M164.5 120L178 143L144 158M66.5 80L74 120M74 120L60.5 143L95.5 158M144 158L128.5 171M144 158L144.5 202M144 158L168.5 197L144.5 202M128.5 171H109.5M128.5 171L119 179.5L109.5 171M128.5 171L144.5 202M109.5 171L95.5 158M109.5 171L93.5 202M95.5 158L93.5 202M95.5 158L69.5 197L93.5 202M144.5 202L119 218M144.5 202L146 224L119 218M119 218L93.5 202M119 218L92.5 224L93.5 202" stroke="#008AA8" stroke-width="0.5" stroke-linecap="round" stroke-dasharray="2 2"/>
<circle cx="144.693" cy="201.952" r="1.22169" fill="#008AA8" stroke="#008AA8"/>
<circle cx="118.868" cy="218.021" r="1.22169" fill="#008AA8" stroke="#008AA8"/>
<circle cx="93.616" cy="201.952" r="1.22169" fill="#008AA8" stroke="#008AA8"/>
<circle cx="69.7217" cy="196.722" r="1.22169" fill="#008AA8" stroke="#008AA8"/>
<circle cx="60.7217" cy="142.722" r="1.22169" fill="#008AA8" stroke="#008AA8"/>
<circle cx="177.722" cy="142.722" r="1.22169" fill="#008AA8" stroke="#008AA8"/>
<circle cx="168.722" cy="196.722" r="1.22169" fill="#008AA8" stroke="#008AA8"/>
<circle cx="145.722" cy="223.722" r="1.22169" fill="#008AA8" stroke="#008AA8"/>
<circle cx="92.7217" cy="223.722" r="1.22169" fill="#008AA8" stroke="#008AA8"/>
<circle cx="118.868" cy="179.57" r="1.22169" fill="#008AA8" stroke="#008AA8"/>
<circle cx="128.624" cy="170.961" r="1.22169" fill="#008AA8" stroke="#008AA8"/>
<circle cx="143.722" cy="157.722" r="1.22169" fill="#008AA8" stroke="#008AA8"/>
<circle cx="95.3378" cy="157.762" r="1.22169" fill="#008AA8" stroke="#008AA8"/>
<circle cx="109.685" cy="170.961" r="1.22169" fill="#008AA8" stroke="#008AA8"/>
<circle cx="118.868" cy="143.414" r="1.22169" fill="#008AA8" stroke="#008AA8"/>
<circle cx="104.52" cy="106.685" r="1.22169" fill="#008AA8" stroke="#008AA8"/>
<circle cx="93.6161" cy="119.885" r="1.22169" fill="#008AA8" stroke="#008AA8"/>
<circle cx="144.693" cy="119.885" r="1.22169" fill="#008AA8" stroke="#008AA8"/>
<circle cx="164.205" cy="119.885" r="1.22169" fill="#008AA8" stroke="#008AA8"/>
<circle cx="172.722" cy="79.7217" r="1.22169" fill="#008AA8" stroke="#008AA8"/>
<circle cx="66.7217" cy="79.7217" r="1.22169" fill="#008AA8" stroke="#008AA8"/>
<circle cx="133.789" cy="106.685" r="1.22169" fill="#008AA8" stroke="#008AA8"/>
<circle cx="74.1035" cy="119.885" r="1.22169" fill="#008AA8" stroke="#008AA8"/>
<circle cx="93.6161" cy="64.7905" r="1.22169" fill="#008AA8" stroke="#008AA8"/>
<circle cx="144.693" cy="64.7905" r="1.22169" fill="#008AA8" stroke="#008AA8"/>
<path d="M200 1H217C223.523 1 226.785 1 229.358 2.06569C232.788 3.4866 235.513 6.21204 236.934 9.64243C238 12.2152 238 15.4768 238 22V35" stroke="#E5E7EB" stroke-width="2" stroke-linecap="round"/>
<path d="M38 1H22C15.4768 1 12.2152 1 9.64243 2.06569C6.21204 3.4866 3.4866 6.21204 2.06569 9.64243C1 12.2152 1 15.4768 1 22V36" stroke="#E5E7EB" stroke-width="2" stroke-linecap="round"/>
<path d="M200 282H217C223.523 282 226.785 282 229.358 280.934C232.788 279.513 235.513 276.788 236.934 273.358C238 270.785 238 267.523 238 261V247" stroke="#E5E7EB" stroke-width="2" stroke-linecap="round"/>
<path d="M38 282H22C15.4768 282 12.2152 282 9.64243 280.934C6.21204 279.513 3.4866 276.788 2.06569 273.358C1 270.785 1 267.523 1 261V247" stroke="#E5E7EB" stroke-width="2" stroke-linecap="round"/>
<line x1="1.75" y1="161.25" x2="237.25" y2="161.25" stroke="#FFB9AA" stroke-width="1.5" stroke-linecap="round"/>
<rect x="1" y="162" width="237" height="120" fill="url(#paint0_linear_1083_12586)"/>

</svg>
