<svg width="19" height="23" viewBox="0 0 19 23" fill="none" xmlns="http://www.w3.org/2000/svg">
<path d="M18.3158 0.905938C18.4097 0.968689 18.4866 1.05357 18.5398 1.15309C18.593 1.25261 18.621 1.3637 18.6211 1.47656V11.7891C18.6211 11.9264 18.5799 12.0605 18.503 12.1742C18.426 12.2879 18.3168 12.376 18.1893 12.4271L17.9336 11.7891L18.1893 12.4271L18.1852 12.4284L18.177 12.4326L18.1453 12.4449C17.9646 12.5168 17.7826 12.5855 17.5995 12.6512C17.2365 12.7818 16.7318 12.9578 16.1598 13.1324C15.0378 13.4789 13.5762 13.8516 12.4336 13.8516C11.269 13.8516 10.3051 13.4666 9.46634 13.1297L9.42784 13.1159C8.55609 12.7653 7.81359 12.4766 6.93359 12.4766C5.97109 12.4766 4.68134 12.7928 3.58272 13.1324C3.09082 13.2857 2.60341 13.4531 2.12109 13.6343V22.1016C2.12109 22.2839 2.04866 22.4588 1.91973 22.5877C1.7908 22.7166 1.61593 22.7891 1.43359 22.7891C1.25126 22.7891 1.07639 22.7166 0.947458 22.5877C0.818527 22.4588 0.746094 22.2839 0.746094 22.1016V1.47656C0.746094 1.29423 0.818527 1.11936 0.947458 0.990427C1.07639 0.861495 1.25126 0.789063 1.43359 0.789062C1.61593 0.789063 1.7908 0.861495 1.91973 0.990427C2.04866 1.11936 2.12109 1.29423 2.12109 1.47656V1.86431C2.43184 1.75569 2.80309 1.63056 3.20734 1.50681C4.32934 1.16306 5.79234 0.789062 6.93359 0.789062C8.08859 0.789062 9.02909 1.16994 9.84997 1.50269L9.90909 1.52744C10.7643 1.87256 11.5096 2.16406 12.4336 2.16406C13.3961 2.16406 14.6858 1.84781 15.7845 1.50819C16.4105 1.31268 17.0292 1.09437 17.6393 0.853687L17.6655 0.844062L17.671 0.841312H17.6723" fill="#111111"/>
</svg>
