<svg width="31" height="30" viewBox="0 0 31 30" fill="none" xmlns="http://www.w3.org/2000/svg">
<path d="M22.4411 20.9408C20.683 19.1829 18.2986 18.1953 15.8123 18.1953C13.3261 18.1953 10.9417 19.1829 9.18359 20.9408" stroke="black" stroke-width="2" stroke-linecap="round" stroke-linejoin="round"/>
<path d="M22.9999 4.75479C21.2773 3.76028 19.2302 3.49077 17.3089 4.00555C15.3876 4.52033 13.7495 5.77725 12.7549 7.49979L25.7449 14.9998C26.7394 13.2772 27.0089 11.2301 26.4941 9.3088C25.9793 7.38751 24.7224 5.74939 22.9999 4.75479V4.75479Z" stroke="black" stroke-width="2" stroke-linecap="round" stroke-linejoin="round"/>
<path d="M21.415 12.4981C23.4875 8.91064 24.1962 5.44314 23 4.75314C21.8037 4.06314 19.1562 6.41064 17.085 9.99814" stroke="black" stroke-width="2" stroke-linecap="round" stroke-linejoin="round"/>
<path d="M19.25 11.25L15.5 17.745" stroke="black" stroke-width="2" stroke-linecap="round" stroke-linejoin="round"/>
<path d="M4.25 24.0632C4.63912 23.8697 5.06562 23.7631 5.5 23.7507C5.98687 23.7405 6.4689 23.8489 6.90447 24.0667C7.34003 24.2845 7.71604 24.605 8 25.0007C8.28396 25.3963 8.65997 25.7168 9.09553 25.9346C9.5311 26.1524 10.0131 26.2609 10.5 26.2507C10.9869 26.2609 11.4689 26.1524 11.9045 25.9346C12.34 25.7168 12.716 25.3963 13 25.0007C13.284 24.605 13.66 24.2845 14.0955 24.0667C14.5311 23.8489 15.0131 23.7405 15.5 23.7507C15.9869 23.7405 16.4689 23.8489 16.9045 24.0667C17.34 24.2845 17.716 24.605 18 25.0007C18.284 25.3963 18.66 25.7168 19.0955 25.9346C19.5311 26.1524 20.0131 26.2609 20.5 26.2507C20.9869 26.2609 21.4689 26.1524 21.9045 25.9346C22.34 25.7168 22.716 25.3963 23 25.0007C23.284 24.605 23.66 24.2845 24.0955 24.0667C24.5311 23.8489 25.0131 23.7405 25.5 23.7507C25.9344 23.7631 26.3609 23.8697 26.75 24.0632" stroke="black" stroke-width="2" stroke-linecap="round" stroke-linejoin="round"/>
</svg>
