<svg width="10" height="12" viewBox="0 0 10 12" fill="none" xmlns="http://www.w3.org/2000/svg">
<path d="M5.31054 5.71143L1.57079 0.933106C1.52685 0.875977 1.458 0.84375 1.38622 0.84375H0.253899C0.155755 0.84375 0.101555 0.956543 0.161614 1.03271L4.04931 6L0.161614 10.9673C0.148089 10.9846 0.139697 11.0053 0.137397 11.0271C0.135097 11.0489 0.138983 11.0709 0.14861 11.0907C0.158237 11.1104 0.173216 11.127 0.191835 11.1386C0.210454 11.1502 0.231962 11.1563 0.253899 11.1562H1.38622C1.458 11.1562 1.52685 11.1226 1.57079 11.0669L5.31054 6.29004C5.44384 6.11865 5.44384 5.88135 5.31054 5.71143ZM9.76366 5.71143L6.02392 0.933106C5.97997 0.875977 5.91113 0.84375 5.83935 0.84375H4.70702C4.60888 0.84375 4.55468 0.956543 4.61474 1.03271L8.50243 6L4.61474 10.9673C4.60121 10.9846 4.59282 11.0053 4.59052 11.0271C4.58822 11.0489 4.59211 11.0709 4.60173 11.0907C4.61136 11.1104 4.62634 11.127 4.64496 11.1386C4.66358 11.1502 4.68509 11.1563 4.70702 11.1562H5.83935C5.91113 11.1562 5.97997 11.1226 6.02392 11.0669L9.76366 6.29004C9.89697 6.11865 9.89697 5.88135 9.76366 5.71143Z" fill="#111111"/>
</svg>
