<svg width="30" height="30" viewBox="0 0 30 30" fill="none" xmlns="http://www.w3.org/2000/svg">
<path d="M18.25 28.375H15.8125C15.3817 28.3746 14.9686 28.2032 14.6639 27.8986C14.3593 27.5939 14.1879 27.1808 14.1875 26.75V22.6875H15.8125V26.75H18.25V22.6875H19.875V19.4375C19.8748 19.2221 19.7891 19.0155 19.6368 18.8632C19.4845 18.7109 19.2779 18.6252 19.0625 18.625H11.9775L10.3525 13.75H5.25C5.03458 13.7502 4.82804 13.8359 4.67571 13.9882C4.52339 14.1405 4.43772 14.3471 4.4375 14.5625V19.4375H6.0625V26.75H9.3125V21.0625H10.9375V26.75C10.9371 27.1808 10.7657 27.5939 10.4611 27.8986C10.1564 28.2032 9.74334 28.3746 9.3125 28.375H6.0625C5.63166 28.3746 5.21858 28.2032 4.91393 27.8986C4.60927 27.5939 4.43793 27.1808 4.4375 26.75V21.0625C4.00666 21.0621 3.59358 20.8907 3.28893 20.5861C2.98427 20.2814 2.81293 19.8683 2.8125 19.4375V14.5625C2.81315 13.9162 3.07016 13.2966 3.52714 12.8396C3.98412 12.3827 4.60373 12.1256 5.25 12.125H10.3525C10.6935 12.1248 11.0259 12.232 11.3026 12.4313C11.5793 12.6307 11.7861 12.9121 11.8938 13.2357L13.1475 17H19.0625C19.7088 17.0006 20.3284 17.2577 20.7854 17.7146C21.2423 18.1716 21.4994 18.7912 21.5 19.4375V22.6875C21.4996 23.1183 21.3282 23.5314 21.0236 23.8361C20.7189 24.1407 20.3058 24.3121 19.875 24.3125V26.75C19.8746 27.1808 19.7032 27.5939 19.3986 27.8986C19.0939 28.2032 18.6808 28.3746 18.25 28.375ZM24.75 28.375H23.125V19.4375H25.5625V14.5625C25.5623 14.3471 25.4766 14.1405 25.3243 13.9882C25.172 13.8359 24.9654 13.7502 24.75 13.75H21.5V12.125H24.75C25.3963 12.1256 26.0159 12.3827 26.4729 12.8396C26.9298 13.2966 27.1869 13.9162 27.1875 14.5625V19.4375C27.1871 19.8683 27.0157 20.2814 26.7111 20.5861C26.4064 20.8907 25.9933 21.0621 25.5625 21.0625H24.75V28.375ZM7.6875 11.3125C7.04471 11.3125 6.41636 11.1219 5.8819 10.7648C5.34744 10.4077 4.93088 9.90008 4.68489 9.30622C4.43891 8.71236 4.37455 8.0589 4.49995 7.42846C4.62535 6.79802 4.93488 6.21893 5.3894 5.7644C5.84392 5.30988 6.42302 5.00035 7.05346 4.87495C7.68389 4.74955 8.33736 4.81391 8.93122 5.05989C9.52508 5.30588 10.0327 5.72244 10.3898 6.2569C10.7469 6.79136 10.9375 7.41971 10.9375 8.0625C10.9364 8.92413 10.5937 9.75015 9.98441 10.3594C9.37515 10.9687 8.54912 11.3114 7.6875 11.3125ZM7.6875 6.4375C7.36611 6.4375 7.05193 6.53281 6.7847 6.71136C6.51747 6.88992 6.30919 7.14371 6.1862 7.44064C6.0632 7.73757 6.03102 8.0643 6.09372 8.37952C6.15642 8.69474 6.31119 8.98429 6.53845 9.21155C6.76571 9.43881 7.05526 9.59358 7.37048 9.65628C7.6857 9.71898 8.01243 9.6868 8.30936 9.56381C8.60629 9.44081 8.86008 9.23253 9.03864 8.9653C9.2172 8.69807 9.3125 8.3839 9.3125 8.0625C9.31207 7.63166 9.14073 7.21858 8.83607 6.91393C8.53142 6.60927 8.11834 6.43793 7.6875 6.4375ZM22.3125 11.3125C21.6697 11.3125 21.0414 11.1219 20.5069 10.7648C19.9724 10.4077 19.5559 9.90008 19.3099 9.30622C19.0639 8.71236 18.9995 8.0589 19.1249 7.42846C19.2503 6.79802 19.5599 6.21893 20.0144 5.7644C20.4689 5.30988 21.048 5.00035 21.6785 4.87495C22.3089 4.74955 22.9624 4.81391 23.5562 5.05989C24.1501 5.30588 24.6577 5.72244 25.0148 6.2569C25.3719 6.79136 25.5625 7.41971 25.5625 8.0625C25.5614 8.92413 25.2187 9.75015 24.6094 10.3594C24.0001 10.9687 23.1741 11.3114 22.3125 11.3125ZM22.3125 6.4375C21.9911 6.4375 21.6769 6.53281 21.4097 6.71136C21.1425 6.88992 20.9342 7.14371 20.8112 7.44064C20.6882 7.73757 20.656 8.0643 20.7187 8.37952C20.7814 8.69474 20.9362 8.98429 21.1635 9.21155C21.3907 9.43881 21.6803 9.59358 21.9955 9.65628C22.3107 9.71898 22.6374 9.6868 22.9344 9.56381C23.2313 9.44081 23.4851 9.23253 23.6636 8.9653C23.8422 8.69807 23.9375 8.3839 23.9375 8.0625C23.9371 7.63166 23.7657 7.21858 23.4611 6.91393C23.1564 6.60927 22.7433 6.43793 22.3125 6.4375Z" fill="#111111"/>
<path d="M17.0313 16.1875C16.4688 16.1875 15.919 16.0207 15.4513 15.7082C14.9837 15.3958 14.6192 14.9516 14.404 14.432C14.1887 13.9124 14.1324 13.3406 14.2421 12.789C14.3519 12.2373 14.6227 11.7306 15.0204 11.3329C15.4181 10.9352 15.9248 10.6644 16.4765 10.5546C17.0281 10.4449 17.5999 10.5012 18.1195 10.7165C18.6391 10.9317 19.0833 11.2962 19.3957 11.7638C19.7082 12.2315 19.875 12.7813 19.875 13.3438C19.8741 14.0977 19.5743 14.8205 19.0411 15.3536C18.508 15.8868 17.7852 16.1866 17.0313 16.1875ZM17.0313 12.125C16.7902 12.125 16.5546 12.1965 16.3542 12.3304C16.1537 12.4643 15.9975 12.6547 15.9053 12.8774C15.813 13.1001 15.7889 13.3451 15.8359 13.5815C15.8829 13.8179 15.999 14.0351 16.1695 14.2055C16.3399 14.376 16.5571 14.4921 16.7935 14.5391C17.0299 14.5861 17.2749 14.562 17.4976 14.4697C17.7203 14.3775 17.9107 14.2213 18.0446 14.0209C18.1785 13.8204 18.25 13.5848 18.25 13.3438C18.2496 13.0207 18.121 12.7109 17.8926 12.4824C17.6641 12.254 17.3544 12.1254 17.0313 12.125Z" fill="#111111"/>
</svg>
