<svg width="23" height="19" viewBox="0 0 23 19" fill="none" xmlns="http://www.w3.org/2000/svg">
<path d="M21.2071 18.6687C20.1671 19.1887 18.7804 18.8421 18.0871 17.8021L16.1804 15.3754H6.82043L4.91376 17.8021C4.0471 19.0154 2.4871 19.1887 1.27376 18.3221C0.407096 17.6287 0.0604297 16.5887 0.233763 15.7221L1.4471 9.30875C1.79376 7.22875 3.70043 5.66875 5.78043 5.66875H10.6338V3.06875C10.6338 1.68208 11.6738 0.46875 13.0604 0.46875H18.4338C18.9538 0.46875 19.3004 0.815417 19.3004 1.33542C19.3004 1.85542 18.9538 2.20208 18.4338 2.20208H13.2338C12.7138 2.20208 12.3671 2.54875 12.3671 2.89542V5.66875H17.2204C19.3004 5.66875 21.2071 7.22875 21.5538 9.30875L22.7671 15.7221C22.9404 16.9354 22.4204 18.1487 21.2071 18.6687ZM8.90043 10.0021C8.90043 8.61542 7.6871 7.40208 6.30043 7.40208C4.91376 7.40208 3.70043 8.61542 3.70043 10.0021C3.70043 11.3887 4.91376 12.6021 6.30043 12.6021C7.6871 12.6021 8.90043 11.3887 8.90043 10.0021ZM19.3004 10.0021C19.3004 9.48208 18.9538 9.13542 18.4338 9.13542H17.5671V8.26875C17.5671 7.74875 17.2204 7.40208 16.7004 7.40208C16.1804 7.40208 15.8338 7.74875 15.8338 8.26875V9.13542H14.9671C14.4471 9.13542 14.1004 9.48208 14.1004 10.0021C14.1004 10.5221 14.4471 10.8687 14.9671 10.8687H15.8338V11.7354C15.8338 12.2554 16.1804 12.6021 16.7004 12.6021C17.2204 12.6021 17.5671 12.2554 17.5671 11.7354V10.8687H18.4338C18.9538 10.8687 19.3004 10.5221 19.3004 10.0021Z" fill="black"/>
</svg>
