<svg width="50" height="46" viewBox="0 0 50 46" fill="none" xmlns="http://www.w3.org/2000/svg">
<rect x="14.7048" y="0.703125" width="43.5165" height="24" rx="3" transform="rotate(35.9945 14.7048 0.703125)" fill="#EBD75C"/>
<path d="M46.7192 27.6446L46.7305 27.6532L46.7379 27.6429C46.7395 27.6407 46.7403 27.6383 46.7405 27.6363C46.7405 27.6342 46.7395 27.6324 46.7376 27.631C46.7358 27.6295 46.7339 27.6292 46.732 27.6299C46.7301 27.6306 46.7282 27.6321 46.7266 27.6343L46.7192 27.6446ZM46.7188 27.6283C46.7226 27.623 46.7268 27.6199 46.7313 27.6188C46.7357 27.6177 46.74 27.6188 46.7441 27.6219C46.7477 27.6246 46.7497 27.6279 46.7503 27.6319C46.7509 27.6358 46.75 27.6401 46.7476 27.6449L46.7731 27.6433L46.7655 27.6538L46.7407 27.6546L46.7378 27.6586L46.7535 27.6705L46.7471 27.6793L46.705 27.6475L46.7188 27.6283ZM46.7736 27.6739C46.7772 27.6691 46.7793 27.6638 46.7805 27.6583C46.7816 27.6527 46.7818 27.6472 46.7808 27.6416C46.7799 27.6361 46.7779 27.6308 46.7748 27.6257C46.7718 27.6207 46.768 27.6163 46.763 27.6126C46.7581 27.6088 46.7527 27.6063 46.7472 27.6048C46.7417 27.6035 46.7361 27.603 46.7306 27.6037C46.7251 27.6045 46.72 27.6062 46.7152 27.609C46.7104 27.6118 46.7063 27.6156 46.7028 27.6204C46.6992 27.6253 46.6969 27.6306 46.6956 27.6361C46.6944 27.6418 46.6941 27.6474 46.6951 27.653C46.696 27.6585 46.6981 27.6639 46.7011 27.6688C46.704 27.6738 46.708 27.6782 46.7129 27.682C46.7179 27.6857 46.7231 27.6882 46.7287 27.6896C46.7343 27.6912 46.7398 27.6916 46.7453 27.6909C46.7508 27.6902 46.7559 27.6883 46.7609 27.6854C46.7658 27.6826 46.7701 27.6788 46.7736 27.6739ZM46.6925 27.6127C46.6971 27.6063 46.7026 27.6015 46.709 27.5977C46.7153 27.594 46.722 27.5918 46.7292 27.5907C46.7362 27.5896 46.7434 27.59 46.7506 27.5919C46.7578 27.5937 46.7646 27.597 46.7709 27.6017C46.7771 27.6064 46.7822 27.6121 46.786 27.6186C46.7898 27.6251 46.7922 27.6319 46.7934 27.6392C46.7945 27.6464 46.7943 27.6537 46.7927 27.661C46.7911 27.6683 46.7882 27.675 46.7836 27.6814C46.7789 27.6879 46.7734 27.6929 46.767 27.6966C46.7606 27.7004 46.7538 27.7028 46.7468 27.7038C46.7396 27.7047 46.7326 27.7043 46.7253 27.7026C46.7182 27.7008 46.7113 27.6975 46.7051 27.6928C46.6988 27.6881 46.6938 27.6824 46.69 27.6759C46.6862 27.6693 46.6836 27.6625 46.6826 27.6553C46.6813 27.6481 46.6816 27.6408 46.6832 27.6334C46.6848 27.626 46.6878 27.6192 46.6925 27.6127ZM43.506 31.6789C43.4255 31.6182 43.3967 31.5166 43.4577 31.4321C43.516 31.3513 43.6187 31.3446 43.702 31.4075C43.7853 31.4703 43.8093 31.5726 43.751 31.6534C43.6899 31.7379 43.5865 31.7397 43.506 31.6789ZM43.7684 31.3155L43.5395 31.1427L43.469 31.2404L43.5246 31.2824C43.4611 31.2822 43.4012 31.3096 43.3551 31.3734C43.2643 31.4993 43.2936 31.674 43.4334 31.7795C43.5733 31.8851 43.7451 31.8622 43.836 31.7364C43.8821 31.6725 43.8901 31.6059 43.8712 31.5439L43.9268 31.5859L43.9973 31.4882L43.7684 31.3155ZM46.15 28.0164C46.0695 27.9556 46.0407 27.854 46.1017 27.7695C46.1601 27.6887 46.2627 27.6821 46.346 27.7449C46.4293 27.8078 46.4534 27.91 46.395 27.9909C46.334 28.0754 46.2305 28.0771 46.15 28.0164ZM46.4125 27.6528L45.9997 27.3413L45.9291 27.439L46.1686 27.6198C46.1051 27.6196 46.0452 27.647 45.9991 27.7109C45.9082 27.8368 45.9376 28.0115 46.0774 28.117C46.2173 28.2226 46.3891 28.1998 46.48 28.0738C46.5261 28.01 46.5341 27.9434 46.5152 27.8814L46.5708 27.9233L46.6414 27.8255L46.4125 27.6528ZM44.4919 29.9895C44.5374 29.9266 44.6067 29.9165 44.6851 29.9597L44.5169 30.1926C44.4583 30.1323 44.4417 30.059 44.4919 29.9895ZM44.4041 29.9203C44.3092 30.0518 44.3405 30.2176 44.4832 30.3253C44.6288 30.4352 44.7928 30.411 44.8898 30.2766C44.9387 30.2089 44.9661 30.134 44.9585 30.0441L44.8502 30.0363C44.8536 30.097 44.8364 30.158 44.8038 30.2031C44.7585 30.266 44.6873 30.3009 44.5947 30.2527L44.8353 29.9193C44.8237 29.909 44.8118 29.8986 44.7985 29.8886C44.6552 29.7818 44.495 29.7944 44.4041 29.9203ZM45.4956 28.9229C45.4151 28.8622 45.3864 28.7605 45.4474 28.676C45.5056 28.5953 45.6083 28.5886 45.6916 28.6515C45.7749 28.7143 45.7988 28.8166 45.7406 28.8973C45.6796 28.9818 45.5761 28.9837 45.4956 28.9229ZM45.758 28.5594L45.5291 28.3867L45.4587 28.4843L45.5143 28.5263C45.4506 28.5262 45.3909 28.5535 45.3448 28.6173C45.2538 28.7433 45.2832 28.9179 45.423 29.0235C45.5629 29.129 45.7347 29.1062 45.8257 28.9803C45.8717 28.9164 45.8796 28.85 45.8608 28.7878L45.9164 28.8298L45.9869 28.7322L45.758 28.5594ZM45.0976 29.4743C45.2364 29.5791 45.4065 29.5609 45.5109 29.4162C45.5598 29.3485 45.5769 29.2919 45.5729 29.2134L45.4586 29.1997C45.4591 29.2565 45.4457 29.3059 45.4151 29.3482C45.3577 29.4255 45.2589 29.4394 45.1708 29.3729C45.0826 29.3063 45.0665 29.2057 45.1218 29.1269C45.1524 29.0846 45.1946 29.0569 45.2478 29.0406L45.2013 28.933C45.1268 28.9522 45.0789 28.9856 45.0301 29.0533C44.9256 29.198 44.9587 29.3695 45.0976 29.4743ZM45.7658 28.034C45.7252 28.0904 45.7256 28.1473 45.7475 28.2032L45.6919 28.1612L45.622 28.258L46.0798 28.6035L46.1504 28.5057L45.8938 28.3121C45.818 28.2548 45.799 28.1912 45.845 28.1273C45.8594 28.1075 45.8771 28.0891 45.9006 28.0749L45.8285 27.974C45.8043 27.989 45.7801 28.0143 45.7658 28.034ZM43.9245 30.6873C43.8589 30.7105 43.7959 30.7629 43.7444 30.8342C43.6622 30.948 43.665 31.0632 43.756 31.1319C43.8306 31.1882 43.9161 31.1684 44.0029 31.0788L44.0429 31.0378C44.0892 30.9901 44.1218 30.9756 44.1477 30.9951C44.1831 31.0218 44.1774 31.0728 44.1294 31.1394C44.0805 31.2071 44.0232 31.2393 43.9737 31.2526L44.018 31.3571C44.0968 31.334 44.1648 31.2809 44.2177 31.2076C44.3114 31.0779 44.3033 30.9558 44.2161 30.89C44.1357 30.8293 44.0509 30.8566 43.9659 30.9435L43.926 30.9844C43.8898 31.0224 43.8568 31.0498 43.8261 31.0266C43.7925 31.0013 43.7955 30.9542 43.8341 30.9007C43.8755 30.8434 43.9376 30.8045 43.9745 30.7903L43.9245 30.6873ZM44.7859 29.3915C44.7452 29.4479 44.7456 29.5047 44.7677 29.5605L44.7121 29.5185L44.6422 29.6153L45.0999 29.9608L45.1705 29.8631L44.9139 29.6694C44.8381 29.6122 44.8191 29.5485 44.8651 29.4847C44.8794 29.4649 44.8972 29.4465 44.9207 29.4323L44.8486 29.3313C44.8244 29.3464 44.8002 29.3717 44.7859 29.3915ZM44.196 30.2333L44.0807 30.393L43.9418 30.2882L43.8705 30.3869L44.0095 30.4917L43.9438 30.5827L44.0347 30.6514L44.1004 30.5604L44.3092 30.718C44.4156 30.7982 44.508 30.8055 44.5914 30.69C44.622 30.6476 44.6437 30.5887 44.6441 30.5411L44.5385 30.505C44.5346 30.5471 44.5202 30.5856 44.5019 30.6109C44.4667 30.6597 44.4245 30.6525 44.3785 30.6178L44.1717 30.4617L44.287 30.302L44.196 30.2333ZM43.6 32.0385L43.3127 31.8217C43.2044 31.74 43.0828 31.7528 43.0031 31.8611C42.9608 31.9176 42.9363 31.9905 42.9707 32.0804C42.8975 32.073 42.8316 32.0986 42.7821 32.1672C42.7474 32.2152 42.728 32.2729 42.7551 32.35L42.6987 32.3075L42.6282 32.4052L43.0859 32.7507L43.1571 32.6521L42.9033 32.4605C42.8238 32.4006 42.8128 32.3255 42.861 32.2587C42.9078 32.1939 42.9745 32.1936 43.0522 32.2522L43.307 32.4445L43.3782 32.3458L43.1244 32.1543C43.045 32.0943 43.0352 32.0173 43.0821 31.9524C43.1301 31.8859 43.1963 31.8864 43.274 31.945L43.5287 32.1372L43.6 32.0385Z" fill="black"/>
<path d="M45.2663 26.458L45.1992 26.4074L45.1868 26.4245L45.2186 26.4791L45.1584 26.464L45.146 26.4812L45.213 26.5319L45.2218 26.5197L45.1713 26.4815L45.2282 26.496L45.2373 26.4833L45.2069 26.4318L45.2576 26.4701L45.2663 26.458ZM45.188 26.5667L45.1324 26.5247L45.1482 26.5027L45.1369 26.4941L45.0965 26.5501L45.1079 26.5587L45.1237 26.5366L45.1793 26.5786L45.188 26.5667Z" fill="#6C6C6C"/>
<path d="M44.1496 28.6151L43.0795 30.0998L40.3554 28.0409L41.4255 26.5561L44.1496 28.6151Z" fill="#5D5D5D"/>
<path d="M41.7866 28.9693C41.2344 28.5519 40.925 27.9267 40.8921 27.2926C40.4525 27.4058 40.0517 27.6652 39.7666 28.0608C39.0917 28.9973 39.3198 30.3424 40.2762 31.0653C41.2324 31.7881 42.5548 31.615 43.2297 30.6784C43.5148 30.2828 43.6387 29.8142 43.6147 29.3505C43.0135 29.5053 42.3389 29.3868 41.7866 28.9693Z" fill="black"/>
<path d="M44.2283 25.5901C45.1845 26.3129 45.4128 27.658 44.7378 28.5946C44.4527 28.9902 44.052 29.2496 43.6122 29.3628C43.5795 28.7287 43.27 28.1036 42.7178 27.6861C42.1655 27.2687 41.491 27.1501 40.8897 27.3049C40.8658 26.8412 40.9897 26.3726 41.2748 25.9769C41.9497 25.0404 43.2719 24.8672 44.2283 25.5901Z" fill="#6C6C6C"/>
<path d="M18.3716 7.53436C18.3332 7.56306 18.2601 7.56573 18.2111 7.54008C18.1792 7.52336 18.1644 7.50188 18.1154 7.40182C17.9178 6.99736 17.679 6.70261 17.3271 6.42907C16.987 6.16471 16.6773 6.02032 16.2479 5.92647C16.1558 5.90626 16.0728 5.88396 16.0636 5.87685C16.0299 5.85063 16.0014 5.78487 16.0042 5.74003C16.0081 5.67851 16.0637 5.6134 16.1196 5.60495C16.141 5.60176 16.2204 5.61164 16.2959 5.62699C16.5949 5.68788 16.8899 5.79962 17.1669 5.95681C17.3383 6.05409 17.6345 6.27726 17.7625 6.4056C17.9988 6.6421 18.182 6.89077 18.3306 7.17624C18.4204 7.34887 18.4471 7.4339 18.4217 7.46837C18.4166 7.47526 18.4102 7.48777 18.4073 7.49618C18.4044 7.50471 18.3883 7.52195 18.3716 7.53436ZM17.8075 7.79441C17.7486 7.83828 17.6467 7.82388 17.6052 7.76579C17.5952 7.75175 17.5552 7.67829 17.5164 7.6027C17.3519 7.28277 17.1167 7.01989 16.8306 6.8367C16.5957 6.68608 16.4284 6.61694 16.1538 6.55652C15.9696 6.51592 15.9462 6.50259 15.9193 6.42198C15.8938 6.34522 15.9516 6.24859 16.0308 6.23566C16.0857 6.22667 16.3781 6.29377 16.5303 6.35004C17.0337 6.53645 17.4565 6.89647 17.7339 7.37473C17.8761 7.61966 17.8952 7.72908 17.8075 7.79441ZM17.2299 8.06567C17.1877 8.08838 17.1273 8.08913 17.0828 8.06749C17.0557 8.05445 17.0362 8.02552 16.9804 7.91643C16.7758 7.51525 16.4707 7.27555 16.0494 7.1846C15.8644 7.14471 15.8361 7.12507 15.8235 7.02738C15.8173 6.97902 15.8211 6.96378 15.8497 6.92491C15.8975 6.85994 15.9556 6.85225 16.12 6.88875C16.3728 6.94492 16.5621 7.03461 16.7698 7.19661C16.9834 7.36312 17.1051 7.51139 17.2323 7.76014C17.305 7.90269 17.315 7.95287 17.2824 8.01353C17.2724 8.03206 17.2489 8.05547 17.2299 8.06567ZM16.6914 8.31906C16.6589 8.33789 16.5967 8.33953 16.5559 8.32282C16.5104 8.30404 16.4868 8.2721 16.4472 8.17539C16.3963 8.05098 16.357 8.00056 16.2386 7.90851C16.1202 7.81646 16.0623 7.79126 15.9319 7.77479C15.8877 7.76924 15.8374 7.75896 15.82 7.75213C15.7476 7.723 15.7102 7.61742 15.7459 7.54211C15.7762 7.47825 15.8295 7.45978 15.9484 7.47195C16.2926 7.50715 16.6071 7.75166 16.7318 8.08097C16.7758 8.19722 16.762 8.27807 16.6914 8.31906Z" fill="black"/>
<g clip-path="url(#clip0_2_4)">
<rect x="8.79441" y="13.0693" width="4.36364" height="6" rx="1" transform="rotate(-54.0055 8.79441 13.0693)" fill="url(#paint0_linear_2_4)"/>
<path fill-rule="evenodd" clip-rule="evenodd" d="M14.6315 11.8036L13.3365 11.9633L13.0903 10.6794L12.9843 10.6926L13.2364 12.0073L12.9458 12.4074L12.2328 11.8873L12.1437 11.8223L10.1829 10.3921L10.1223 10.4756L12.0831 11.9058L11.234 13.0746L9.27327 11.6444L9.21263 11.7279L11.1734 13.1581L11.2625 13.2231L11.9755 13.7431L11.6849 14.1433L10.3589 14.3069L10.379 14.4119L11.674 14.2521L11.9202 15.536L12.0262 15.523L11.774 14.2083L12.0647 13.8081L12.7777 14.3282L12.8668 14.3932L14.8275 15.8234L14.8882 15.7399L12.9274 14.3097L13.7764 13.1409L15.7372 14.5711L15.7978 14.4876L13.7925 13.0249C13.7679 13.007 13.7344 13.0111 13.7176 13.0342L12.8383 14.2447L12.0807 13.6921L11.3232 13.1396L12.1722 11.9708L12.9297 12.5233C12.9544 12.5413 12.9879 12.5372 13.0046 12.5141L13.3256 12.0723L14.6516 11.9087L14.6315 11.8036Z" fill="#47453F"/>
</g>
<rect x="8.79441" y="13.0693" width="4.36364" height="6" rx="1" transform="rotate(-54.0055 8.79441 13.0693)" stroke="#47453F" stroke-width="0.1"/>
<defs>
<linearGradient id="paint0_linear_2_4" x1="8.8296" y1="13.0693" x2="16.054" y2="19.3756" gradientUnits="userSpaceOnUse">
<stop stop-color="#F8ECC1"/>
<stop offset="1" stop-color="#C8AC48"/>
</linearGradient>
<clipPath id="clip0_2_4">
<rect x="8.79441" y="13.0693" width="4.36364" height="6" rx="1" transform="rotate(-54.0055 8.79441 13.0693)" fill="white"/>
</clipPath>
</defs>
</svg>
