<svg width="24" height="24" viewBox="0 0 24 24" fill="none" xmlns="http://www.w3.org/2000/svg">
<g clip-path="url(#clip0_1665_2824)">
<path d="M5.29664 14.1774L4.48971 17.1898L1.54041 17.2522C0.659006 15.6174 0.159058 13.7469 0.159058 11.7593C0.159058 9.83721 0.626497 8.02468 1.45507 6.42871H1.4557L4.0814 6.9101L5.23162 9.52004C4.99088 10.2219 4.85967 10.9753 4.85967 11.7593C4.85976 12.6101 5.01388 13.4253 5.29664 14.1774Z" fill="#FBBB00"/>
<path d="M23.1383 9.59375C23.2714 10.2949 23.3408 11.019 23.3408 11.7591C23.3408 12.5889 23.2535 13.3984 23.0873 14.1792C22.5231 16.8362 21.0487 19.1563 19.0063 20.7981L19.0057 20.7975L15.6985 20.6287L15.2304 17.7068C16.5856 16.912 17.6448 15.6682 18.2027 14.1792H12.0047V9.59375H18.2931H23.1383Z" fill="#518EF8"/>
<path d="M19.0053 20.7969L19.0059 20.7976C17.0195 22.3942 14.4962 23.3495 11.7495 23.3495C7.33537 23.3495 3.49765 20.8823 1.53992 17.2515L5.29614 14.1768C6.27499 16.7892 8.79506 18.6488 11.7495 18.6488C13.0194 18.6488 14.2091 18.3055 15.2299 17.7062L19.0053 20.7969Z" fill="#28B446"/>
<path d="M19.1483 2.83641L15.3933 5.91054C14.3368 5.25013 13.0879 4.86863 11.7499 4.86863C8.72857 4.86863 6.16136 6.81359 5.23155 9.51966L1.45559 6.42833H1.45496C3.38403 2.70905 7.27015 0.167969 11.7499 0.167969C14.5622 0.167969 17.1409 1.16977 19.1483 2.83641Z" fill="#F14336"/>
</g>
<defs>
<clipPath id="clip0_1665_2824">
<rect width="23.1818" height="23.1818" fill="white" transform="translate(0.159058 0.167969)"/>
</clipPath>
</defs>
</svg>
