<svg width="26" height="26" viewBox="0 0 26 26" fill="none" xmlns="http://www.w3.org/2000/svg">
<path d="M9.00002 11.6667C11.9455 11.6667 14.3334 9.27885 14.3334 6.33333C14.3334 3.38781 11.9455 1 9.00002 1C6.0545 1 3.66669 3.38781 3.66669 6.33333C3.66669 9.27885 6.0545 11.6667 9.00002 11.6667Z" stroke="#1D2734" stroke-width="2" stroke-linecap="round" stroke-linejoin="round"/>
<path d="M1 25V22.3333C1 20.9188 1.5619 19.5623 2.5621 18.5621C3.56229 17.5619 4.91885 17 6.33333 17H11.6667C13.0812 17 14.4377 17.5619 15.4379 18.5621C16.4381 19.5623 17 20.9188 17 22.3333V25" stroke="#1D2734" stroke-width="2" stroke-linecap="round" stroke-linejoin="round"/>
<path d="M18.3333 1.17334C19.4805 1.46707 20.4974 2.13427 21.2235 3.06975C21.9496 4.00523 22.3438 5.15578 22.3438 6.34001C22.3438 7.52423 21.9496 8.67478 21.2235 9.61026C20.4974 10.5457 19.4805 11.2129 18.3333 11.5067" stroke="#1D2734" stroke-width="2" stroke-linecap="round" stroke-linejoin="round"/>
<path d="M25 25V22.3333C24.9932 21.1562 24.5972 20.0144 23.8737 19.0858C23.1502 18.1573 22.1398 17.4942 21 17.2" stroke="#1D2734" stroke-width="2" stroke-linecap="round" stroke-linejoin="round"/>
</svg>
