<svg width="53" height="47" viewBox="0 0 53 47" fill="none" xmlns="http://www.w3.org/2000/svg">
<path d="M52.4465 21.875C52.4465 33.9562 40.705 43.75 26.2232 43.75C23.626 43.7533 21.0395 43.4318 18.53 42.7938C16.6157 43.7188 12.22 45.4938 4.82508 46.65C4.1695 46.75 3.67125 46.1 3.93021 45.5187C5.09059 42.9062 6.13952 39.425 6.4542 36.25C2.43876 32.4062 0 27.375 0 21.875C0 9.79375 11.7415 0 26.2232 0C40.705 0 52.4465 9.79375 52.4465 21.875ZM16.3895 21.875C16.3895 21.0462 16.0442 20.2513 15.4295 19.6653C14.8147 19.0792 13.981 18.75 13.1116 18.75C12.2423 18.75 11.4085 19.0792 10.7938 19.6653C10.1791 20.2513 9.83372 21.0462 9.83372 21.875C9.83372 22.7038 10.1791 23.4987 10.7938 24.0847C11.4085 24.6708 12.2423 25 13.1116 25C13.981 25 14.8147 24.6708 15.4295 24.0847C16.0442 23.4987 16.3895 22.7038 16.3895 21.875ZM29.5011 21.875C29.5011 21.0462 29.1558 20.2513 28.5411 19.6653C27.9263 19.0792 27.0926 18.75 26.2232 18.75C25.3539 18.75 24.5201 19.0792 23.9054 19.6653C23.2907 20.2513 22.9453 21.0462 22.9453 21.875C22.9453 22.7038 23.2907 23.4987 23.9054 24.0847C24.5201 24.6708 25.3539 25 26.2232 25C27.0926 25 27.9263 24.6708 28.5411 24.0847C29.1558 23.4987 29.5011 22.7038 29.5011 21.875ZM39.3349 25C40.2042 25 41.038 24.6708 41.6527 24.0847C42.2674 23.4987 42.6128 22.7038 42.6128 21.875C42.6128 21.0462 42.2674 20.2513 41.6527 19.6653C41.038 19.0792 40.2042 18.75 39.3349 18.75C38.4655 18.75 37.6318 19.0792 37.017 19.6653C36.4023 20.2513 36.057 21.0462 36.057 21.875C36.057 22.7038 36.4023 23.4987 37.017 24.0847C37.6318 24.6708 38.4655 25 39.3349 25Z" fill="#EBD75C"/>
</svg>
