<svg width="20" height="21" viewBox="0 0 20 21" fill="none" xmlns="http://www.w3.org/2000/svg">
<path d="M10 20.5C4.47059 20.5 0 16.0294 0 10.5C0 4.97059 4.47059 0.5 10 0.5C15.5294 0.5 20 4.97059 20 10.5C20 16.0294 15.5294 20.5 10 20.5ZM10 1.67647C5.11765 1.67647 1.17647 5.61765 1.17647 10.5C1.17647 15.3824 5.11765 19.3235 10 19.3235C14.8824 19.3235 18.8235 15.3824 18.8235 10.5C18.8235 5.61765 14.8824 1.67647 10 1.67647Z" fill="#008AA7"/>
<path d="M6.94135 7.32445C7.11782 6.85386 7.29429 6.50092 7.64723 6.2068C7.94135 5.91268 8.29429 5.67739 8.76488 5.50092C9.23547 5.32445 9.70606 5.26562 10.2355 5.26562C10.6472 5.26562 11.059 5.32445 11.4119 5.4421C11.7649 5.55974 12.1178 5.73621 12.4119 5.97151C12.7061 6.2068 12.9414 6.50092 13.059 6.85386C13.2355 7.2068 13.2943 7.61857 13.2943 8.03033C13.2943 8.61857 13.1766 9.08915 12.9414 9.50092C12.7061 9.91268 12.3531 10.2656 12.0002 10.6774L11.2355 11.4421C11.059 11.6186 10.8825 11.795 10.8237 11.9715C10.7061 12.148 10.6472 12.3833 10.6472 12.6186C10.5884 12.8539 10.5884 13.0303 10.5884 13.5009H9.64723C9.64723 13.0303 9.64723 12.8539 9.70606 12.5009C9.76488 12.2068 9.88253 11.9127 10.0002 11.6186C10.1178 11.3833 10.2943 11.148 10.5296 10.9127C10.7649 10.6774 11.059 10.4421 11.3531 10.0892C11.6472 9.79504 11.8825 9.50092 12.059 9.2068C12.2355 8.91268 12.3531 8.50092 12.3531 8.14798C12.3531 7.85386 12.2943 7.55974 12.1766 7.32445C12.059 7.08915 11.8825 6.85386 11.7061 6.67739C11.5296 6.50092 11.2943 6.38327 11.0002 6.26562C10.7061 6.14798 10.4708 6.08915 10.1766 6.08915C9.76488 6.08915 9.41194 6.14798 9.11782 6.32445C8.8237 6.4421 8.52959 6.67739 8.35311 6.91268C8.17664 7.14798 8.00017 7.4421 7.88253 7.79504C7.76488 8.14798 7.64723 8.32445 7.64723 8.73621H6.70605C6.70605 8.2068 6.76488 7.79504 6.94135 7.32445ZM10.5884 14.6186V15.795H9.41194V14.6186H10.5884Z" fill="#008AA7"/>
</svg>
