<svg width="17" height="18" viewBox="0 0 17 18" fill="none" xmlns="http://www.w3.org/2000/svg">
<path d="M8.61483 0.570312C4.01483 0.570312 0.281494 4.30365 0.281494 8.90365C0.281494 13.5036 4.01483 17.237 8.61483 17.237C13.2148 17.237 16.9482 13.5036 16.9482 8.90365C16.9482 4.30365 13.2148 0.570312 8.61483 0.570312ZM9.44816 14.737H7.78149V13.0703H9.44816V14.737ZM11.1732 8.27865L10.4232 9.04531C10.0065 9.47031 9.70649 9.85365 9.55649 10.4536C9.48983 10.7203 9.44816 11.0203 9.44816 11.4036H7.78149V10.987C7.78101 10.5491 7.86688 10.1154 8.03418 9.71073C8.20148 9.30607 8.44694 8.93836 8.75649 8.62865L9.78983 7.57865C10.1732 7.21198 10.3565 6.66198 10.2482 6.07865C10.1904 5.78042 10.0518 5.50379 9.84753 5.27895C9.64326 5.0541 9.38116 4.88969 9.08983 4.80365C8.16483 4.54531 7.30649 5.07031 7.03149 5.86198C6.93149 6.17031 6.67316 6.40365 6.34816 6.40365H6.09816C5.61483 6.40365 5.28149 5.93698 5.41483 5.47031C5.59356 4.86237 5.94155 4.31782 6.41816 3.90023C6.89477 3.48264 7.48034 3.20925 8.10649 3.11198C9.37316 2.91198 10.5815 3.57031 11.3315 4.61198C12.3148 5.97031 12.0232 7.42865 11.1732 8.27865Z" fill="#008AA7"/>
</svg>
