<svg width="21" height="20" viewBox="0 0 21 20" fill="none" xmlns="http://www.w3.org/2000/svg">
<path d="M1.06821 0.183275C1.0101 0.12517 0.941119 0.0790781 0.8652 0.0476317C0.789282 0.0161853 0.707913 6.12239e-10 0.62574 0C0.543567 -6.12239e-10 0.462198 0.0161853 0.38628 0.0476317C0.310361 0.0790781 0.24138 0.12517 0.183275 0.183275C0.12517 0.24138 0.0790781 0.310361 0.0476317 0.38628C0.0161853 0.462198 -6.12239e-10 0.543567 0 0.62574C6.12239e-10 0.707913 0.0161853 0.789282 0.0476317 0.8652C0.0790781 0.941119 0.12517 1.0101 0.183275 1.06821L4.55793 5.44036C2.39132 6.91816 0.882979 9.17932 0.350762 11.7474C0.33402 11.8277 0.333267 11.9106 0.348546 11.9912C0.363826 12.0718 0.394838 12.1487 0.439813 12.2173C0.484788 12.286 0.542844 12.3451 0.610667 12.3913C0.678491 12.4375 0.754752 12.4699 0.835099 12.4867C0.915445 12.5034 0.998302 12.5042 1.07894 12.4889C1.15958 12.4736 1.23641 12.4426 1.30507 12.3976C1.37372 12.3527 1.43284 12.2946 1.47905 12.2268C1.52527 12.1589 1.55767 12.0827 1.57442 12.0023C1.81301 10.848 2.27947 9.75294 2.94651 8.78115C3.61355 7.80935 4.46775 6.98039 5.45911 6.34279L7.4377 8.32013C6.92203 8.69001 6.493 9.16766 6.18039 9.71994C5.86778 10.2722 5.67907 10.8859 5.62735 11.5184C5.57563 12.1509 5.66214 12.7871 5.88089 13.3828C6.09963 13.9785 6.44537 14.5195 6.8941 14.9683C7.34284 15.417 7.88384 15.7627 8.47956 15.9815C9.07528 16.2002 9.71146 16.2867 10.344 16.235C10.9765 16.1833 11.5901 15.9946 12.1424 15.682C12.6947 15.3694 13.1723 14.9403 13.5422 14.4247L18.933 19.8167C19.0504 19.9341 19.2096 20 19.3755 20C19.5415 20 19.7006 19.9341 19.818 19.8167C19.9353 19.6994 20.0012 19.5402 20.0012 19.3743C20.0012 19.2083 19.9353 19.0491 19.818 18.9318L1.06946 0.183275H1.06821ZM10.155 7.50395L14.3584 11.7074C14.3161 10.6061 13.8596 9.56133 13.0803 8.78203C12.301 8.00272 11.2563 7.54627 10.155 7.50395ZM6.91274 4.26295L7.91642 5.26662C8.59684 5.08989 9.29699 5.00043 10 5.00039C14.0072 5.00039 17.5707 7.90892 18.4243 12.0023C18.4581 12.1648 18.5551 12.3071 18.6939 12.3981C18.8326 12.489 19.0018 12.5211 19.1643 12.4873C19.3267 12.4535 19.4691 12.3565 19.56 12.2178C19.651 12.079 19.6831 11.9098 19.6492 11.7474C18.6781 7.09148 14.6159 3.75049 10 3.75049C8.93133 3.75049 7.89142 3.92923 6.91399 4.26295H6.91274Z" fill="#008AA7"/>
</svg>
