<svg width="26" height="26" viewBox="0 0 26 26" fill="none" xmlns="http://www.w3.org/2000/svg">
<path d="M10.4853 15.9758C10.1355 15.6598 9.50014 15.6638 9.04189 15.9783C8.9318 16.0538 8.76727 16.0526 8.68236 15.975C8.59827 15.899 8.62305 15.7731 8.73314 15.698C8.84405 15.6216 9.00127 15.6216 9.08942 15.7016C9.29661 15.557 9.50217 15.4115 9.70733 15.2653C9.41808 15.0016 8.9513 14.9553 8.54302 15.1085C8.48492 15.0553 8.42683 15.0029 8.36833 14.9488C8.18308 15.0776 7.99702 15.2052 7.81055 15.3319C7.87189 15.3876 7.93405 15.444 7.99661 15.4997C7.77683 15.7902 7.77805 16.1436 8.0482 16.3882C8.19892 16.5251 8.40123 16.6059 8.6263 16.6295C8.92692 16.662 9.26045 16.5905 9.52045 16.4113C9.63095 16.3362 9.78858 16.3362 9.87308 16.413C9.95798 16.4901 9.94011 16.6165 9.82961 16.6925C9.71952 16.7684 9.55458 16.7668 9.46967 16.6908C9.26127 16.831 9.05164 16.9703 8.84039 17.108C9.10852 17.351 9.56433 17.4127 9.96367 17.2856C10.036 17.351 10.1071 17.4172 10.1798 17.4822C10.3671 17.3559 10.5527 17.2291 10.7376 17.1003C10.6674 17.0383 10.598 16.9754 10.5296 16.9114C10.7741 16.61 10.7636 16.2301 10.4853 15.9758ZM17.5187 8.84411C17.7832 8.84411 18.0598 8.71858 18.256 8.48173C18.3397 8.38139 18.475 8.36229 18.5595 8.43908C18.6448 8.51586 18.6489 8.66211 18.5656 8.76245C18.4819 8.8632 18.3397 8.88189 18.2552 8.80551C18.0968 8.99279 17.9371 9.17845 17.7767 9.36289C18.0444 9.60623 18.447 9.61801 18.7708 9.4222L18.9873 9.61842C19.1295 9.45064 19.2696 9.28245 19.4086 9.11264L19.201 8.92454C19.3639 8.54998 19.2956 8.11814 19.0182 7.86504C18.6676 7.54817 18.1232 7.63348 17.7779 8.04786C17.6942 8.14861 17.552 8.16729 17.4675 8.09092C17.3826 8.01373 17.3859 7.86748 17.4683 7.76714C17.5532 7.6672 17.6877 7.64689 17.7755 7.72611C17.9319 7.53679 18.0866 7.34504 18.239 7.15289C17.9489 6.88964 17.5423 6.89451 17.2148 7.12079L17.0389 6.96154C16.9004 7.13136 16.7594 7.29995 16.6176 7.46733C16.6798 7.52339 16.742 7.58026 16.8037 7.63551C16.6595 7.99504 16.7131 8.39804 16.9841 8.64261C17.1352 8.78033 17.3209 8.84736 17.5187 8.84411Z" fill="#111111"/>
<path d="M24.2515 12.8753C24.5743 12.4835 24.8864 12.0831 25.1875 11.6744C25.0612 10.662 24.9226 9.63909 24.7707 8.60925L24.7183 8.56213L24.9096 8.28181L24.4303 7.84631C22.0606 5.69522 19.6917 3.54453 17.3221 1.39425L16.6814 0.8125L16.1947 1.52628C15.3655 2.73677 14.4696 3.90018 13.5111 5.01109C13.5635 4.78847 13.6207 4.55894 13.6833 4.32047C13.9397 3.3475 13.6394 2.68694 13.3421 2.30466C12.7883 1.59169 11.7402 1.19844 10.3894 1.19844C6.55931 1.19844 1.01806 4.21037 1.01806 9.65616C1.01806 10.4037 1.51613 10.9261 2.22869 10.9261C2.75478 10.9261 3.36253 10.632 4.04503 10.049C4.10922 10.2696 4.20591 10.478 4.34728 10.6551C4.61784 10.9948 5.01678 11.182 5.47097 11.182C5.57294 11.182 5.67775 11.1731 5.78541 11.1544C5.83375 11.3888 5.92231 11.6208 6.06369 11.8231C4.74264 12.7752 3.36955 13.653 1.95081 14.4523L1.04934 14.9581L1.76881 15.6114C1.62175 15.7024 1.47428 15.7938 1.32762 15.8823C1.16512 16.6331 0.993281 17.3741 0.8125 18.1017C3.41453 20.4644 6.01616 22.8252 8.61778 25.1875C10.8829 23.9552 13.0743 22.592 15.1807 21.1047C15.1816 21.1059 15.1816 21.1075 15.1824 21.1083C15.3782 21.4484 15.6975 21.6807 16.1342 21.8047C15.3782 22.6777 15.1064 23.4256 15.3258 24.0362C15.5009 24.5225 15.9514 24.8129 16.5315 24.8129C22.0102 24.8129 25.04 19.305 25.04 15.4976C25.04 14.5897 24.8592 13.8072 24.5172 13.2356C24.4394 13.1079 24.3505 12.9873 24.2515 12.8753ZM13.2137 6.47603C14.5222 5.044 15.7316 3.53478 16.8155 1.94472C19.1852 4.09541 21.5544 6.24569 23.9237 8.39719C22.9403 9.83304 21.8658 11.2044 20.707 12.5027C20.3316 12.582 19.9769 12.6506 19.6519 12.7034C20.6667 11.6098 21.6283 10.4743 22.5111 9.28444L22.2743 9.06953C22.0122 8.83187 21.9745 8.40653 22.1821 8.11647C22.2446 8.02791 22.3076 7.94056 22.3702 7.85281C20.7902 6.41956 19.2108 4.98509 17.6321 3.55184L17.444 3.8155C17.236 4.10475 16.8488 4.14497 16.588 3.90731L16.3507 3.69322C15.3433 5.05091 14.2387 6.34197 13.0613 7.57372C13.0967 7.24303 13.1458 6.87862 13.2137 6.47603ZM16.0757 10.4585C15.2466 9.70531 14.0855 9.53509 13.0467 9.87716C13.0154 9.67281 12.9703 9.24422 12.9911 8.56984C14.2304 7.32359 15.3892 5.9998 16.4604 4.60647C16.8638 4.81569 17.3436 4.76897 17.6979 4.47972L21.5483 7.97469C21.3671 8.42075 21.411 8.944 21.6726 9.33888C20.7383 10.5588 19.7243 11.7228 18.6509 12.8387C18.2008 12.8889 17.7482 12.9153 17.2953 12.9179C17.1657 12.9179 17.0511 12.9147 16.9443 12.9102C17.0901 12.036 16.7907 11.1073 16.0757 10.4585ZM5.55831 10.4272C5.52988 10.4297 5.49819 10.4358 5.47137 10.4358C4.56341 10.4358 4.65237 9.13453 4.74866 8.50444C5.24956 8.00556 5.72081 7.48475 6.21278 6.99237C6.73197 6.46344 7.27756 5.96294 7.89141 5.564C8.50484 5.16831 9.20156 4.88759 9.95678 4.81772C9.20238 4.73972 8.41384 4.93634 7.7415 5.31334C7.06063 5.68344 6.47928 6.19613 5.94466 6.73156C5.41369 7.27269 4.92659 7.84469 4.43584 8.40734C3.94144 8.96269 3.45231 9.52006 2.85553 9.97913C2.60487 10.1164 2.39444 10.1794 2.22828 10.1794C1.92563 10.1794 1.768 9.97547 1.768 9.65575C1.768 4.56259 7.06022 1.94431 10.3886 1.94431C12.1355 1.94431 13.3421 2.66663 12.9553 4.13156C11.8349 8.38825 12.35 10.2241 12.35 10.2241C11.9113 11.0427 11.0654 11.3088 11.0654 11.3088C10.6045 11.1845 10.1291 11.1223 9.65169 11.1239C8.69537 11.1239 8.01897 11.3612 8.01897 11.3612C7.66147 11.5635 7.38522 11.6452 7.17194 11.6452C6.40006 11.6452 6.45856 10.5694 6.50163 10.1969C6.60359 10.1489 6.70272 10.0969 6.79819 10.0409C7.18087 9.82069 7.51888 9.54444 7.84875 9.27387C8.17456 8.99844 8.49144 8.72341 8.827 8.48169C9.16378 8.24363 9.52616 8.04537 9.95597 7.96575C9.84728 7.94641 9.73678 7.93919 9.6265 7.94422C9.295 7.95925 8.96228 8.07625 8.67262 8.23347C8.27816 8.44187 7.93731 8.71731 7.60663 8.98828C7.28041 9.26575 6.96434 9.54362 6.63528 9.79916C6.30744 10.051 5.96172 10.2745 5.55831 10.4272ZM13.782 18.7586C12.3857 19.7734 10.932 20.7069 9.42825 21.5544C7.059 19.4029 4.69016 17.2538 2.3205 15.1019C3.82764 14.2528 5.28445 13.3173 6.68362 12.3C6.83597 12.3565 6.99888 12.3923 7.17234 12.3923C7.35028 12.3923 7.53675 12.3614 7.73337 12.3013C6.61002 13.1503 5.44625 13.9445 4.24612 14.6811C4.32494 14.753 4.40456 14.8249 4.48297 14.8972C4.74378 15.134 4.70031 15.4846 4.38181 15.6727C4.28431 15.7296 4.18762 15.7869 4.09094 15.8429L8.82944 20.1447C8.92694 20.0878 9.02322 20.0318 9.12031 19.9733C9.43922 19.7856 9.90844 19.8205 10.1697 20.0574L10.4065 20.2735C11.643 19.5133 12.8409 18.6921 13.9957 17.8128C13.8413 18.1553 13.7707 18.4714 13.782 18.7586ZM14.2667 16.8106C13.0485 17.7768 11.78 18.6779 10.4666 19.5102C10.0311 19.2733 9.45425 19.2339 8.96472 19.3988L5.11387 15.9039C5.43156 15.5825 5.48316 15.1462 5.25362 14.7798C6.65818 13.8912 8.01164 12.9243 9.30759 11.8836C9.41728 11.8759 9.53103 11.8706 9.65209 11.8706C10.0625 11.8692 10.4712 11.9224 10.8676 12.0287L10.9371 12.0478C10.7372 12.8887 10.9765 13.7751 11.6992 14.4312C12.363 15.0333 13.2921 15.3095 14.1932 15.2397C14.3236 15.8356 14.3162 16.3873 14.2667 16.8106ZM16.5311 24.0667C16.0318 24.0667 15.8182 23.6864 16.2114 22.9787C16.6725 22.3892 17.2311 21.9042 17.7873 21.4155C18.3532 20.928 18.9284 20.4429 19.4732 19.9156C20.0111 19.3842 20.5274 18.8069 20.8995 18.1297C21.2786 17.4614 21.4768 16.6774 21.3984 15.9274C21.3277 16.6782 21.0462 17.3713 20.6477 17.9814C20.2463 18.5912 19.7425 19.1336 19.2107 19.6499C18.7155 20.1382 18.1919 20.6066 17.6906 21.1043C17.4972 21.1335 17.2421 21.162 16.9796 21.162C16.3568 21.162 15.6995 20.9999 15.7528 20.3072C15.9063 19.9026 16.1326 19.5565 16.3869 19.2278C16.6441 18.9008 16.9236 18.5868 17.2027 18.2626C17.4757 17.9335 17.7527 17.5947 17.9619 17.2031C18.1724 16.8192 18.3117 16.3593 18.2313 15.9274C18.1517 16.3548 17.9522 16.7152 17.7129 17.0499C17.47 17.3834 17.1933 17.6987 16.9154 18.0229C16.6437 18.3511 16.3654 18.6871 16.1444 19.0673C16.0874 19.1629 16.0352 19.2612 15.988 19.3619C15.8636 19.3759 15.7386 19.3832 15.6134 19.3838C14.9788 19.3838 14.0575 19.1811 14.8163 17.8531C14.8163 17.8531 15.316 16.4446 14.8692 14.8249C14.8692 14.8249 15.1365 13.9839 15.9595 13.5476C15.9595 13.5476 16.3833 13.665 17.2953 13.665C18.2873 13.665 19.8575 13.5261 22.089 12.9456C22.2598 12.8995 22.4358 12.8754 22.6127 12.8737C26.1828 12.8737 24.0041 24.0667 16.5311 24.0667Z" fill="#111111"/>
</svg>
