<svg width="16" height="16" viewBox="0 0 16 16" fill="none" xmlns="http://www.w3.org/2000/svg">
<path d="M14.953 7.5426C14.984 7.7816 15 8.0356 15 8.3056C15 9.8406 14.535 10.8726 14.09 11.5136C13.9142 11.7681 13.7095 12.0013 13.48 12.2086C13.405 12.2758 13.3262 12.3385 13.244 12.3966L13.235 12.4026C13.1631 12.4475 13.1038 12.51 13.0627 12.5842C13.0216 12.6584 13 12.7418 13 12.8266V14.4976C13 14.6302 12.9473 14.7574 12.8536 14.8512C12.7598 14.9449 12.6326 14.9976 12.5 14.9976H11.116C11.0852 14.9976 11.0557 14.9854 11.034 14.9636C11.0122 14.9419 11 14.9124 11 14.8816C11 14.2646 10.5 13.7646 9.884 13.7646H8.116C7.5 13.7646 7 14.2646 7 14.8816C7 14.9124 6.98778 14.9419 6.96602 14.9636C6.94427 14.9854 6.91476 14.9976 6.884 14.9976H5.5C5.36739 14.9976 5.24021 14.9449 5.14645 14.8512C5.05268 14.7574 5 14.6302 5 14.4976V13.6476C4.99971 13.5429 4.96655 13.4409 4.90518 13.356C4.84382 13.2712 4.75736 13.2077 4.658 13.1746L4.618 13.1556C4.53859 13.1166 4.46176 13.0725 4.388 13.0236C4.168 12.8816 3.821 12.6176 3.356 12.1466C2.93657 11.7149 2.59879 11.2107 2.359 10.6586C2.175 10.2366 1.79 9.8656 1.275 9.7786C1.19834 9.76565 1.12872 9.72604 1.0784 9.66676C1.02809 9.60749 1.00033 9.53235 1 9.4546V7.9476C1 7.87901 1.02431 7.81264 1.06862 7.76028C1.11292 7.70792 1.17436 7.67296 1.242 7.6616C1.792 7.5686 2.182 7.1476 2.334 6.6836C2.464 6.2856 2.698 5.7636 3.086 5.3706C3.4132 5.04432 3.77928 4.75952 4.176 4.5226C4.33495 4.42701 4.49848 4.33924 4.666 4.2596L4.692 4.2476L4.697 4.2456C4.78716 4.20695 4.86395 4.14264 4.91783 4.06067C4.97171 3.9787 5.00028 3.88269 5 3.7846V1.6876C5.253 1.9076 5.548 2.1456 5.866 2.3576C6.3 2.6496 6.817 2.9236 7.348 3.0226C7.47076 2.68909 7.63184 2.37095 7.828 2.0746C7.76701 2.06813 7.70602 2.0618 7.645 2.0556C7.29 2.0196 6.863 1.8226 6.422 1.5276C6.02494 1.25456 5.65192 0.948111 5.307 0.611602C5.19907 0.508629 5.06359 0.439176 4.91698 0.411664C4.77036 0.384152 4.61892 0.399762 4.481 0.456602C4.33946 0.512167 4.21791 0.609014 4.13213 0.734561C4.04635 0.860107 4.00032 1.00855 4 1.1606V3.4746C3.40249 3.79048 2.85464 4.19244 2.374 4.6676C1.831 5.2176 1.536 5.9076 1.384 6.3726C1.324 6.5506 1.194 6.6556 1.076 6.6756C0.77539 6.72617 0.5024 6.88156 0.305437 7.11422C0.108474 7.34688 0.000266211 7.64177 1.63253e-07 7.9466V9.4536C-0.000155522 9.76796 0.111045 10.0722 0.313874 10.3124C0.516703 10.5526 0.798049 10.7131 1.108 10.7656C1.233 10.7856 1.368 10.8876 1.442 11.0586C1.731 11.7231 2.13827 12.3296 2.644 12.8486C3.153 13.3646 3.555 13.6756 3.843 13.8626C3.9 13.8996 3.953 13.9316 4 13.9596V14.4976C4 14.6946 4.0388 14.8896 4.11418 15.0716C4.18956 15.2536 4.30005 15.419 4.43934 15.5583C4.57863 15.6976 4.74399 15.808 4.92597 15.8834C5.10796 15.9588 5.30302 15.9976 5.5 15.9976H6.884C7.5 15.9976 8 15.4976 8 14.8816C8 14.8166 8.052 14.7646 8.116 14.7646H9.884C9.948 14.7646 10 14.8166 10 14.8816C10 15.4976 10.5 15.9976 11.116 15.9976H12.5C12.8978 15.9976 13.2794 15.8396 13.5607 15.5583C13.842 15.277 14 14.8954 14 14.4976V13.0786C14.3472 12.7903 14.6534 12.4558 14.91 12.0846C15.465 11.2876 16 10.0586 16 8.3056C16 7.5796 15.899 6.9296 15.707 6.3486C15.5199 6.78373 15.2655 7.18666 14.953 7.5426ZM14.803 3.2296C15.103 3.95486 15.1506 4.75991 14.9381 5.51545C14.7255 6.271 14.2652 6.93317 13.631 7.3956C13.201 7.7076 12.634 7.6856 12.144 7.4826L9.104 6.2236C8.614 6.0206 8.197 5.6356 8.114 5.1116C7.9846 4.26712 8.16854 3.40447 8.63117 2.68622C9.09379 1.96798 9.80314 1.44375 10.6255 1.21233C11.4479 0.980903 12.3266 1.05827 13.0959 1.42985C13.8652 1.80143 14.472 2.44156 14.802 3.2296H14.803ZM13.043 6.5876C13.4021 6.32615 13.6851 5.97374 13.8628 5.56664C14.0405 5.15953 14.1065 4.71242 14.054 4.27133C14.0016 3.83024 13.8326 3.41108 13.5644 3.057C13.2962 2.70291 12.9384 2.42668 12.528 2.25673C12.1176 2.08678 11.6694 2.02924 11.2293 2.09004C10.7893 2.15085 10.3734 2.32779 10.0245 2.60267C9.67557 2.87754 9.40617 3.24043 9.24403 3.65398C9.08189 4.06753 9.03287 4.51681 9.102 4.9556C9.11369 5.01233 9.14269 5.06404 9.185 5.1036C9.249 5.1716 9.351 5.2436 9.487 5.2996L12.527 6.5596C12.6382 6.6076 12.7579 6.63244 12.879 6.6326C12.937 6.6349 12.9943 6.61918 13.043 6.5876ZM4.75 7.4976C4.94891 7.4976 5.13968 7.41858 5.28033 7.27793C5.42098 7.13728 5.5 6.94651 5.5 6.7476C5.5 6.54869 5.42098 6.35792 5.28033 6.21727C5.13968 6.07662 4.94891 5.9976 4.75 5.9976C4.55109 5.9976 4.36032 6.07662 4.21967 6.21727C4.07902 6.35792 4 6.54869 4 6.7476C4 6.94651 4.07902 7.13728 4.21967 7.27793C4.36032 7.41858 4.55109 7.4976 4.75 7.4976Z" fill="white"/>
</svg>
