<svg width="25" height="20" viewBox="0 0 25 20" fill="none" xmlns="http://www.w3.org/2000/svg">
<path d="M17.1875 5.875C17.1875 5.6678 17.2698 5.46909 17.4163 5.32257C17.5628 5.17606 17.7615 5.09375 17.9688 5.09375H21.0938C21.301 5.09375 21.4997 5.17606 21.6462 5.32257C21.7927 5.46909 21.875 5.6678 21.875 5.875V7.4375C21.875 7.6447 21.7927 7.84341 21.6462 7.98993C21.4997 8.13644 21.301 8.21875 21.0938 8.21875H17.9688C17.7615 8.21875 17.5628 8.13644 17.4163 7.98993C17.2698 7.84341 17.1875 7.6447 17.1875 7.4375V5.875Z" fill="#111111"/>
<path d="M3.125 0.40625C2.2962 0.40625 1.50134 0.73549 0.915291 1.32154C0.32924 1.90759 0 2.70245 0 3.53125L0 16.0312C0 16.8601 0.32924 17.6549 0.915291 18.241C1.50134 18.827 2.2962 19.1562 3.125 19.1562H21.875C22.7038 19.1562 23.4987 18.827 24.0847 18.241C24.6708 17.6549 25 16.8601 25 16.0312V3.53125C25 2.70245 24.6708 1.90759 24.0847 1.32154C23.4987 0.73549 22.7038 0.40625 21.875 0.40625H3.125ZM23.4375 3.53125V11.3438H1.5625V3.53125C1.5625 3.11685 1.72712 2.71942 2.02015 2.4264C2.31317 2.13337 2.7106 1.96875 3.125 1.96875H21.875C22.2894 1.96875 22.6868 2.13337 22.9799 2.4264C23.2729 2.71942 23.4375 3.11685 23.4375 3.53125ZM21.875 17.5938H3.125C2.7106 17.5938 2.31317 17.4291 2.02015 17.1361C1.72712 16.8431 1.5625 16.4457 1.5625 16.0312V14.4688H23.4375V16.0312C23.4375 16.4457 23.2729 16.8431 22.9799 17.1361C22.6868 17.4291 22.2894 17.5938 21.875 17.5938Z" fill="#111111"/>
</svg>
