<svg width="22" height="23" viewBox="0 0 22 23" fill="none" xmlns="http://www.w3.org/2000/svg">
<path d="M13.0695 2.1525L10.8162 4.41667H13.167C15.4655 4.41667 17.6699 5.32976 19.2953 6.95507C20.9206 8.58039 21.8337 10.7848 21.8337 13.0833H19.667C19.667 11.3594 18.9822 9.70613 17.7632 8.48714C16.5442 7.26815 14.8909 6.58333 13.167 6.58333H10.8162L13.0803 8.8475L11.542 10.375L6.66699 5.5L8.19449 3.9725L11.542 0.625L13.0695 2.1525ZM0.166992 12V22.8333H17.5003V12H0.166992ZM2.33366 19.1067V15.7375C2.98487 15.3593 3.52627 14.8179 3.90449 14.1667H13.7628C14.141 14.8179 14.6824 15.3593 15.3337 15.7375V19.1067C14.6916 19.4847 14.158 20.022 13.7845 20.6667H3.90449C3.52494 20.0193 2.98363 19.4817 2.33366 19.1067ZM8.83366 19.5833C9.73066 19.5833 10.4587 18.6138 10.4587 17.4167C10.4587 16.2196 9.73066 15.25 8.83366 15.25C7.93666 15.25 7.20866 16.2196 7.20866 17.4167C7.20866 18.6138 7.93666 19.5833 8.83366 19.5833Z" fill="#111111"/>
</svg>
