<svg width="16" height="14" viewBox="0 0 16 14" fill="none" xmlns="http://www.w3.org/2000/svg">
<path d="M3.448 1.90885C3.66901 1.90885 3.88097 1.82106 4.03725 1.66478C4.19353 1.5085 4.28133 1.29653 4.28133 1.07552C4.28133 0.854507 4.19353 0.642546 4.03725 0.486265C3.88097 0.329985 3.66901 0.242188 3.448 0.242188H1.78133C1.56032 0.242188 1.34836 0.329985 1.19208 0.486265C1.0358 0.642546 0.947998 0.854507 0.947998 1.07552V12.7422C0.947998 12.9632 1.0358 13.1752 1.19208 13.3314C1.34836 13.4877 1.56032 13.5755 1.78133 13.5755H3.448C3.66901 13.5755 3.88097 13.4877 4.03725 13.3314C4.19353 13.1752 4.28133 12.9632 4.28133 12.7422C4.28133 12.5212 4.19353 12.3092 4.03725 12.1529C3.88097 11.9967 3.66901 11.9089 3.448 11.9089H2.61466V1.90885H3.448ZM14.9647 6.42552L12.6147 3.09219C12.4872 2.91253 12.2938 2.79064 12.0768 2.75316C11.8597 2.71568 11.6366 2.76567 11.4563 2.89219C11.3662 2.95534 11.2895 3.03572 11.2306 3.12869C11.1717 3.22166 11.1318 3.32537 11.1132 3.43384C11.0946 3.54231 11.0977 3.65339 11.1222 3.76066C11.1468 3.86794 11.1924 3.96929 11.2563 4.05885L12.6897 6.07552H5.948C5.72698 6.07552 5.51502 6.16332 5.35874 6.3196C5.20246 6.47588 5.11466 6.68784 5.11466 6.90885C5.11466 7.12987 5.20246 7.34183 5.35874 7.49811C5.51502 7.65439 5.72698 7.74219 5.948 7.74219H12.6147L11.1147 9.74219C11.049 9.82973 11.0012 9.92936 10.9741 10.0354C10.9469 10.1414 10.9409 10.2517 10.9564 10.36C10.9718 10.4684 11.0085 10.5726 11.0643 10.6668C11.12 10.7609 11.1938 10.8432 11.2813 10.9089C11.4256 11.017 11.601 11.0755 11.7813 11.0755C11.9107 11.0755 12.0383 11.0454 12.154 10.9875C12.2697 10.9297 12.3704 10.8457 12.448 10.7422L14.948 7.40885C15.0547 7.26791 15.1139 7.09668 15.1169 6.91991C15.1199 6.74314 15.0666 6.57 14.9647 6.42552Z" fill="#008AA7"/>
</svg>
