<svg width="150" height="150" viewBox="0 0 150 150" fill="none" xmlns="http://www.w3.org/2000/svg">
<path fill-rule="evenodd" clip-rule="evenodd" d="M75.0124 0.0166834C108.827 0.0166834 137.398 22.4944 146.658 53.3461H125.236C116.869 33.8585 97.5328 20.2106 75.0124 20.2106C45.3601 20.2106 21.2259 43.8682 20.3868 73.3687L19.9804 125.713C7.70432 112.364 0.203125 94.5395 0.203125 74.9568C0.203125 33.5678 33.6962 0.015625 75.0124 0.015625V0.0166834ZM30.9773 73.7324C31.9578 49.7935 52.4666 30.0405 75.0134 30.0405C97.5592 30.0405 113.564 44.4403 118.482 63.9003C128.591 63.9003 138.8 64.0029 149.024 64.0029C149.547 67.5788 149.822 71.2361 149.822 74.9579C149.822 116.347 116.329 149.899 75.0124 149.899C70.4317 149.899 65.948 149.485 61.5953 148.695V128.04C65.8879 129.126 70.3831 129.704 75.0124 129.704C102 129.704 124.414 110.109 128.859 84.3459H118.868C114.559 104.647 96.5618 119.876 75.0124 119.876C65.6388 119.876 56.9375 116.994 49.7414 112.067C49.7414 123.371 50.2596 134.13 50.2596 145.694C43.4381 143.299 37.0684 139.942 31.313 135.786V127.974L30.9763 73.7314L30.9773 73.7324ZM75.0134 50.3084C88.6036 50.3084 99.6205 61.3448 99.6205 74.9589C99.6205 88.573 88.6036 99.6094 75.0134 99.6094C61.4233 99.6094 50.4063 88.573 50.4063 74.9589C50.4063 61.3448 61.4233 50.3084 75.0134 50.3084Z" fill="#0188A5"/>
<path d="M75.013 88.3545C82.3963 88.3545 88.3815 82.3587 88.3815 74.9624C88.3815 67.5662 82.3963 61.5703 75.013 61.5703C67.6298 61.5703 61.6445 67.5662 61.6445 74.9624C61.6445 82.3587 67.6298 88.3545 75.013 88.3545Z" fill="#FDAE09"/>
</svg>
