<svg width="24" height="24" viewBox="0 0 24 24" fill="none" xmlns="http://www.w3.org/2000/svg">
<path d="M9.75884 2.508C10.0395 2.19024 10.3845 1.93577 10.771 1.76148C11.1575 1.5872 11.5766 1.49706 12.0006 1.49706C12.4246 1.49706 12.8437 1.5872 13.2302 1.76148C13.6167 1.93577 13.9617 2.19024 14.2423 2.508C14.6896 2.24811 15.1626 2.03546 15.6538 1.8735C15.2376 1.29357 14.6892 0.82115 14.054 0.49535C13.4188 0.169549 12.7152 -0.000253931 12.0013 1.38695e-06C11.2869 -0.000559895 10.5825 0.169245 9.94679 0.495331C9.31105 0.821417 8.76223 1.29438 8.34584 1.875C8.84084 2.037 9.31484 2.25 9.75884 2.508ZM1.49984 9C1.49953 8.0554 1.79647 7.13465 2.34859 6.36822C2.90072 5.60178 3.68003 5.02852 4.5761 4.72966C5.47218 4.43081 6.43958 4.4215 7.34124 4.70308C8.24289 4.98465 9.03308 5.54282 9.59984 6.2985C10.1299 6.16425 10.6703 6.07493 11.2153 6.0315C10.7731 5.25519 10.1631 4.58744 9.42977 4.07701C8.69648 3.56658 7.85846 3.22636 6.97689 3.08119C6.09531 2.93601 5.19245 2.98955 4.33421 3.23789C3.47597 3.48623 2.68403 3.9231 2.0162 4.51661C1.34837 5.11012 0.821522 5.84528 0.474117 6.66842C0.126711 7.49156 -0.0324805 8.38189 0.00816593 9.27441C0.0488124 10.1669 0.288271 11.0391 0.709056 11.8273C1.12984 12.6154 1.72133 13.2997 2.44034 13.83C2.54684 13.2885 2.69984 12.762 2.89484 12.2565C2.45345 11.8368 2.10213 11.3316 1.8623 10.7718C1.62247 10.2119 1.49914 9.60907 1.49984 9V9ZM17.9998 3C16.9404 2.99962 15.8997 3.27978 14.9837 3.81198C14.0676 4.34418 13.3088 5.10945 12.7843 6.03C13.3378 6.075 13.8778 6.165 14.4013 6.2985C14.775 5.80116 15.2477 5.3867 15.7896 5.08127C16.3316 4.77585 16.9309 4.5861 17.5499 4.524C18.1688 4.4619 18.7939 4.52881 19.3857 4.7205C19.9775 4.91218 20.5231 5.22448 20.9882 5.63768C21.4532 6.05088 21.8274 6.556 22.0874 7.12116C22.3473 7.68631 22.4873 8.29921 22.4984 8.92118C22.5095 9.54314 22.3915 10.1607 22.1519 10.7347C21.9123 11.3088 21.5563 11.827 21.1063 12.2565C21.2998 12.762 21.4513 13.2885 21.5608 13.83C22.5781 13.0803 23.3327 12.0285 23.717 10.8246C24.1013 9.62079 24.0957 8.32634 23.701 7.12586C23.3063 5.92539 22.5426 4.88019 21.5188 4.13931C20.4951 3.39844 19.2635 2.99972 17.9998 3V3ZM5.24984 15.75C5.24984 14.8636 5.42444 13.9858 5.76365 13.1669C6.10287 12.3479 6.60008 11.6038 7.22687 10.977C7.85367 10.3502 8.59778 9.85303 9.41673 9.51381C10.2357 9.17459 11.1134 9 11.9998 9C12.8863 9 13.764 9.17459 14.583 9.51381C15.4019 9.85303 16.146 10.3502 16.7728 10.977C17.3996 11.6038 17.8968 12.3479 18.236 13.1669C18.5752 13.9858 18.7498 14.8636 18.7498 15.75C18.7498 17.5402 18.0387 19.2571 16.7728 20.523C15.5069 21.7888 13.7901 22.5 11.9998 22.5C10.2096 22.5 8.49274 21.7888 7.22687 20.523C5.961 19.2571 5.24984 17.5402 5.24984 15.75V15.75ZM11.9998 7.5C9.81181 7.5 7.71339 8.36919 6.16621 9.91637C4.61904 11.4635 3.74984 13.562 3.74984 15.75C3.74984 17.938 4.61904 20.0365 6.16621 21.5836C7.71339 23.1308 9.81181 24 11.9998 24C14.1879 24 16.2863 23.1308 17.8335 21.5836C19.3806 20.0365 20.2498 17.938 20.2498 15.75C20.2498 13.562 19.3806 11.4635 17.8335 9.91637C16.2863 8.36919 14.1879 7.5 11.9998 7.5V7.5ZM9.74984 12C9.55093 12 9.36016 12.079 9.21951 12.2197C9.07886 12.3603 8.99984 12.5511 8.99984 12.75C8.99984 12.9489 9.07886 13.1397 9.21951 13.2803C9.36016 13.421 9.55093 13.5 9.74984 13.5H13.1098C12.9568 13.719 12.7948 13.965 12.6298 14.2275C11.9053 15.3855 11.0878 16.9965 10.8808 18.657C10.8661 18.7559 10.8713 18.8567 10.8961 18.9536C10.9209 19.0505 10.9648 19.1414 11.0252 19.221C11.0857 19.3007 11.1614 19.3674 11.248 19.4174C11.3347 19.4673 11.4304 19.4994 11.5296 19.5118C11.6288 19.5242 11.7295 19.5167 11.8258 19.4896C11.922 19.4625 12.0119 19.4165 12.0901 19.3541C12.1683 19.2918 12.2332 19.2145 12.2811 19.1267C12.329 19.0389 12.3588 18.9425 12.3688 18.843C12.5368 17.5035 13.2193 16.1145 13.9018 15.0225C14.285 14.4117 14.7073 13.8265 15.1663 13.2705L15.1843 13.2495L15.1888 13.2435C15.2836 13.1351 15.3451 13.0017 15.3661 12.8592C15.3871 12.7168 15.3666 12.5713 15.3071 12.4402C15.2476 12.3091 15.1517 12.1979 15.0307 12.1198C14.9097 12.0417 14.7688 12.0001 14.6248 12H9.74984Z" fill="#111111"/>
</svg>
