<svg width="16" height="16" viewBox="0 0 16 16" fill="none" xmlns="http://www.w3.org/2000/svg">
<path d="M11.3647 11.6562H12.6147V15.4062H2.61475V11.6562H3.86475V12.9062H11.3647V11.6562ZM15.0472 8.68375C15.086 8.83625 15.1147 8.9925 15.1147 9.15625C15.1147 9.40248 15.0662 9.6463 14.972 9.87378C14.8778 10.1013 14.7397 10.308 14.5656 10.4821C14.3915 10.6562 14.1848 10.7943 13.9573 10.8885C13.7298 10.9828 13.486 11.0312 13.2397 11.0312C12.9935 11.0312 12.7497 10.9828 12.5222 10.8885C12.2947 10.7943 12.088 10.6562 11.9139 10.4821C11.7398 10.308 11.6017 10.1013 11.5075 9.87378C11.4132 9.6463 11.3647 9.40248 11.3647 9.15625C11.3647 9.65353 11.1672 10.1304 10.8156 10.4821C10.4639 10.8337 9.98703 11.0312 9.48975 11.0312C8.99247 11.0312 8.51555 10.8337 8.16392 10.4821C7.81229 10.1304 7.61475 9.65353 7.61475 9.15625C7.61475 9.65353 7.4172 10.1304 7.06557 10.4821C6.71394 10.8337 6.23703 11.0312 5.73975 11.0312C5.24247 11.0312 4.76555 10.8337 4.41392 10.4821C4.06229 10.1304 3.86475 9.65353 3.86475 9.15625C3.86475 9.40248 3.81625 9.6463 3.72202 9.87378C3.62779 10.1013 3.48968 10.308 3.31557 10.4821C3.14146 10.6562 2.93476 10.7943 2.70728 10.8885C2.47979 10.9828 2.23597 11.0312 1.98975 11.0312C1.74352 11.0312 1.4997 10.9828 1.27221 10.8885C1.04473 10.7943 0.838031 10.6562 0.663921 10.4821C0.489811 10.308 0.3517 10.1013 0.257472 9.87378C0.163245 9.6463 0.114746 9.40248 0.114746 9.15625C0.114746 8.9925 0.142246 8.83625 0.180996 8.68375L1.36475 0.40625H13.8647L15.0472 8.68375Z" fill="#008AA7"/>
</svg>
