<svg width="17" height="17" viewBox="0 0 17 17" fill="none" xmlns="http://www.w3.org/2000/svg">
<path d="M11.3633 8.47656H5.61328C5.54453 8.47656 5.48828 8.53281 5.48828 8.60156V9.35156C5.48828 9.42031 5.54453 9.47656 5.61328 9.47656H11.3633C11.432 9.47656 11.4883 9.42031 11.4883 9.35156V8.60156C11.4883 8.53281 11.432 8.47656 11.3633 8.47656Z" fill="#008AA7"/>
<path d="M8.48828 1.97656C4.62266 1.97656 1.48828 5.11094 1.48828 8.97656C1.48828 12.8422 4.62266 15.9766 8.48828 15.9766C12.3539 15.9766 15.4883 12.8422 15.4883 8.97656C15.4883 5.11094 12.3539 1.97656 8.48828 1.97656ZM8.48828 14.7891C5.27891 14.7891 2.67578 12.1859 2.67578 8.97656C2.67578 5.76719 5.27891 3.16406 8.48828 3.16406C11.6977 3.16406 14.3008 5.76719 14.3008 8.97656C14.3008 12.1859 11.6977 14.7891 8.48828 14.7891Z" fill="#008AA7"/>
</svg>
