<svg width="24" height="24" viewBox="0 0 24 24" fill="none" xmlns="http://www.w3.org/2000/svg">
<path d="M12.1769 16.5369L12.1969 16.5458L12.2176 16.5529C12.2348 16.5588 12.2514 16.5665 12.267 16.5759L12.3719 16.6598C12.4084 16.7001 12.4382 16.746 12.46 16.7959C12.4975 16.8864 12.5077 16.986 12.4892 17.0822C12.4715 17.174 12.4284 17.2589 12.365 17.3274C12.3076 17.3763 12.2447 17.4182 12.1775 17.4523C12.09 17.4848 11.995 17.4922 11.9034 17.4735C11.8067 17.4537 11.7181 17.4058 11.6486 17.3358C11.5791 17.2658 11.5319 17.1767 11.5129 17.0799C11.4939 16.9833 11.5039 16.8833 11.5415 16.7923C11.5685 16.728 11.6056 16.6684 11.6514 16.6159C11.7085 16.5618 11.7776 16.5219 11.8531 16.4995C11.9184 16.4801 11.9868 16.4743 12.0541 16.4823L12.1769 16.5369ZM8 2.5H16C16.663 2.5 17.2989 2.76339 17.7678 3.23223C18.2366 3.70107 18.5 4.33696 18.5 5V19C18.5 19.663 18.2366 20.2989 17.7678 20.7678C17.2989 21.2366 16.663 21.5 16 21.5H8C7.33696 21.5 6.70107 21.2366 6.23223 20.7678C5.76339 20.2989 5.5 19.663 5.5 19V5C5.5 4.33696 5.76339 3.70107 6.23223 3.23223C6.70107 2.76339 7.33696 2.5 8 2.5ZM17.0607 20.0607C17.342 19.7794 17.5 19.3978 17.5 19V5C17.5 4.60218 17.342 4.22065 17.0607 3.93934C16.7794 3.65804 16.3978 3.5 16 3.5H8C7.60217 3.5 7.22064 3.65804 6.93934 3.93934C6.65804 4.22064 6.5 4.60217 6.5 5V19C6.5 19.3978 6.65804 19.7794 6.93934 20.0607C7.22065 20.342 7.60218 20.5 8 20.5H16C16.3978 20.5 16.7794 20.342 17.0607 20.0607Z" fill="#008AA8" stroke="#008AA8"/>
</svg>
