<svg width="22" height="24" viewBox="0 0 22 24" fill="none" xmlns="http://www.w3.org/2000/svg">
<path d="M0.375 0.71875V21.8438H13.375V20.2188H2V2.34375H10.125V7.21875H15V8.84375H16.625V6.08125L16.3813 5.8375L11.5063 0.9625L11.2625 0.71875H0.375ZM11.75 3.48125L13.8625 5.59375H11.75V3.48125ZM3.625 8.84375V10.4688H13.375V8.84375H3.625ZM17.4375 10.4688V12.0938C16.0562 12.3375 15 13.475 15 14.9375C15 16.5625 16.2188 17.7812 17.8438 17.7812H18.6562C19.3062 17.7812 19.875 18.35 19.875 19C19.875 19.65 19.3062 20.2188 18.6562 20.2188H15.8125V21.8438H17.4375V23.4688H19.0625V21.8438C20.4438 21.6 21.5 20.4625 21.5 19C21.5 17.375 20.2812 16.1562 18.6562 16.1562H17.8438C17.1938 16.1562 16.625 15.5875 16.625 14.9375C16.625 14.2875 17.1938 13.7188 17.8438 13.7188H20.6875V12.0938H19.0625V10.4688H17.4375ZM3.625 12.9062V14.5312H9.3125V12.9062H3.625ZM10.9375 12.9062V14.5312H13.375V12.9062H10.9375ZM3.625 16.1562V17.7812H9.3125V16.1562H3.625ZM10.9375 16.1562V17.7812H13.375V16.1562H10.9375Z" fill="#008AA7"/>
</svg>
