<svg width="35" height="39" viewBox="0 0 35 39" fill="none" xmlns="http://www.w3.org/2000/svg">
<path d="M17.505 1.93893C17.788 1.53322 18.1515 1.19017 18.573 0.931207C18.9944 0.672241 19.4647 0.502907 19.9545 0.433772C20.4443 0.364637 20.9431 0.397184 21.4198 0.529382C21.8965 0.66158 22.3408 0.890592 22.725 1.20213L30.573 7.57413C31.2742 8.14316 31.736 8.95496 31.8667 9.84851C31.9974 10.7421 31.7875 11.6521 31.2786 12.3981H28.3506L29.2866 11.0565C29.4608 10.808 29.5344 10.5027 29.4926 10.2021C29.4507 9.90154 29.2965 9.62798 29.061 9.43653L25.0194 6.15813L20.709 12.3981H17.7882L23.1498 4.64133L21.2106 3.06693C21.0826 2.96304 20.9345 2.88665 20.7757 2.84252C20.6168 2.7984 20.4506 2.78748 20.2873 2.81045C20.124 2.83341 19.9672 2.88978 19.8267 2.97603C19.6862 3.06227 19.565 3.17655 19.4706 3.31173L13.1322 12.3957H10.2042L17.505 1.93893ZM25.9002 26.7981C25.5819 26.7981 25.2767 26.9246 25.0517 27.1496C24.8266 27.3746 24.7002 27.6799 24.7002 27.9981C24.7002 28.3164 24.8266 28.6216 25.0517 28.8467C25.2767 29.0717 25.5819 29.1981 25.9002 29.1981H28.3002C28.6185 29.1981 28.9237 29.0717 29.1487 28.8467C29.3738 28.6216 29.5002 28.3164 29.5002 27.9981C29.5002 27.6799 29.3738 27.3746 29.1487 27.1496C28.9237 26.9246 28.6185 26.7981 28.3002 26.7981H25.9002ZM4.3002 9.99813H9.5058L7.82579 12.3981H4.3002C3.98194 12.3981 3.67671 12.5246 3.45167 12.7496C3.22662 12.9746 3.1002 13.2799 3.1002 13.5981C3.1002 13.9164 3.22662 14.2216 3.45167 14.4467C3.67671 14.6717 3.98194 14.7981 4.3002 14.7981H29.5002C30.7732 14.7981 31.9941 15.3038 32.8943 16.204C33.7945 17.1042 34.3002 18.3251 34.3002 19.5981V33.9981C34.3002 35.2712 33.7945 36.4921 32.8943 37.3922C31.9941 38.2924 30.7732 38.7981 29.5002 38.7981H6.70019C5.1089 38.7981 3.58277 38.166 2.45755 37.0408C1.33234 35.9156 0.700195 34.3894 0.700195 32.7981V13.5981C0.700195 12.6433 1.07948 11.7277 1.75461 11.0525C2.42974 10.3774 3.34542 9.99813 4.3002 9.99813ZM3.1002 32.7981C3.1002 33.7529 3.47948 34.6686 4.15461 35.3437C4.82974 36.0188 5.74542 36.3981 6.70019 36.3981H29.5002C30.1367 36.3981 30.7472 36.1453 31.1972 35.6952C31.6473 35.2451 31.9002 34.6347 31.9002 33.9981V19.5981C31.9002 18.9616 31.6473 18.3512 31.1972 17.9011C30.7472 17.451 30.1367 17.1981 29.5002 17.1981H4.3002C3.8802 17.1981 3.4746 17.1261 3.1002 16.9941V32.7981Z" fill="#008AA7"/>
</svg>
