<svg width="20" height="21" viewBox="0 0 20 21" fill="none" xmlns="http://www.w3.org/2000/svg">
<path d="M10.0166 2.92188C7.25828 2.92188 5.01662 5.16354 5.01662 7.92187V10.3302C5.01662 10.8385 4.79995 11.6135 4.54162 12.0469L3.58328 13.6385C2.99162 14.6219 3.39995 15.7135 4.48328 16.0802C8.07495 17.2802 11.95 17.2802 15.5416 16.0802C16.55 15.7469 16.9916 14.5552 16.4416 13.6385L15.4833 12.0469C15.2333 11.6135 15.0166 10.8385 15.0166 10.3302V7.92187C15.0166 5.17187 12.7666 2.92188 10.0166 2.92188Z" stroke="#008AA7" stroke-width="1.5" stroke-miterlimit="10" stroke-linecap="round"/>
<path d="M11.5583 3.16719C11.3 3.09219 11.0333 3.03385 10.7583 3.00052C9.95831 2.90052 9.19164 2.95885 8.47498 3.16719C8.71664 2.55052 9.31664 2.11719 10.0166 2.11719C10.7166 2.11719 11.3166 2.55052 11.5583 3.16719Z" stroke="#008AA7" stroke-width="1.5" stroke-miterlimit="10" stroke-linecap="round" stroke-linejoin="round"/>
<path d="M12.5167 16.3828C12.5167 17.7578 11.3917 18.8828 10.0167 18.8828C9.33339 18.8828 8.70006 18.5995 8.25006 18.1495C7.80006 17.6995 7.51672 17.0661 7.51672 16.3828" stroke="#008AA7" stroke-width="1.5" stroke-miterlimit="10"/>
</svg>
