<svg width="13" height="18" viewBox="0 0 13 18" fill="none" xmlns="http://www.w3.org/2000/svg">
<path d="M6.61479 17.2422C7.53146 17.2422 8.28146 16.4922 8.28146 15.5755H4.94812C4.94812 16.0175 5.12372 16.4415 5.43628 16.754C5.74884 17.0666 6.17276 17.2422 6.61479 17.2422ZM11.6148 12.2422V8.07552C11.6148 5.51719 10.2481 3.37552 7.86479 2.80885V2.24219C7.86479 1.55052 7.30646 0.992188 6.61479 0.992188C5.92312 0.992188 5.36479 1.55052 5.36479 2.24219V2.80885C2.97312 3.37552 1.61479 5.50885 1.61479 8.07552V12.2422L0.539789 13.3172C0.014789 13.8422 0.381456 14.7422 1.12312 14.7422H12.0981C12.8398 14.7422 13.2148 13.8422 12.6898 13.3172L11.6148 12.2422Z" fill="#008AA7"/>
</svg>
