<svg width="24" height="19" viewBox="0 0 24 19" fill="none" xmlns="http://www.w3.org/2000/svg">
<path d="M5.92031 8.56281H7.20047V16.2428H9.12047V9.52281H11.0405V16.2428H12.9605V9.52281H14.8805V16.2428H16.8005V8.56281H18.0801C18.4334 8.56281 18.7205 8.20953 18.7205 7.89129C18.7205 7.69881 18.6144 7.48185 18.4541 7.37721L18.455 7.35225L18.4449 7.33449L18.5093 7.31865L12.4805 4.21353V3.30537C13.4405 3.81369 14.3769 2.93817 15.8405 3.46473V1.45881C14.376 0.932732 13.4405 1.80777 12.4805 1.29945V1.17081C12.4805 1.01193 12.1776 0.882812 12.0005 0.882812C11.8233 0.882812 11.5205 1.01193 11.5205 1.17081V4.21353L5.49215 7.31241L5.62223 7.32249L5.76047 7.32777V7.32873C5.28047 7.43337 5.38799 7.69833 5.38799 7.89081C5.38751 8.20953 5.56703 8.56281 5.92031 8.56281ZM6.72047 16.7228L5.28047 18.1628H18.7205L17.2805 16.7228H6.72047ZM17.2805 9.04281V16.2428H17.7053L17.8929 16.5083L19.1726 17.7078L19.6253 18.1628H23.5205V9.04281H17.2805ZM20.1605 14.8028H18.7205V13.3628H20.1605V14.8028ZM20.1605 11.9228H18.7205V10.4828H20.1605V11.9228ZM22.0805 14.8028H21.1205V13.3628H22.0805V14.8028ZM22.0805 11.9228H21.1205V10.4828H22.0805V11.9228ZM6.29519 16.2428H6.72047V9.04281H0.480469V18.1628H4.37519L4.82735 17.7558L6.10751 16.5078L6.29519 16.2428ZM2.88047 14.8028H1.92047V13.3628H2.88047V14.8028ZM2.88047 11.9228H1.92047V10.4828H2.88047V11.9228ZM5.28047 14.8028H3.84047V13.3628H5.28047V14.8028ZM5.28047 11.9228H3.84047V10.4828H5.28047V11.9228Z" fill="#111111"/>
</svg>
