<svg width="24" height="24" viewBox="0 0 24 24" fill="none" xmlns="http://www.w3.org/2000/svg">
<path d="M15.8737 17.3359C15.6403 17.9359 15.247 18.3359 14.8003 18.3359H9.16033C8.70699 18.3359 8.32033 17.9359 8.08699 17.3359H0.666992V18.5026C0.701113 18.9301 0.902023 19.3271 1.22633 19.6077C1.55064 19.8884 1.97233 20.0302 2.40033 20.0026H21.6003C22.0283 20.0302 22.45 19.8884 22.7743 19.6077C23.0986 19.3271 23.2995 18.9301 23.3337 18.5026V17.3359H15.8737Z" fill="#111111"/>
<path d="M4.66622 6.66667H19.3329V16H21.3329V5.04667C21.3383 4.77549 21.2361 4.51321 21.0487 4.3171C20.8614 4.12099 20.604 4.00699 20.3329 4H3.66622C3.39508 4.00699 3.13772 4.12099 2.95036 4.3171C2.76299 4.51321 2.66084 4.77549 2.66622 5.04667V16H4.66622V6.66667Z" fill="#111111"/>
</svg>
