<svg width="24" height="24" viewBox="0 0 24 24" fill="none" xmlns="http://www.w3.org/2000/svg">
<path fill-rule="evenodd" clip-rule="evenodd" d="M16.6095 6.605L16.5645 6.57C16.478 5.913 16.1635 5.2285 15.6725 4.6515C14.875 3.714 13.575 3 11.835 3C10.12 3 8.91147 3.782 8.19847 4.7515C7.86589 5.2 7.62822 5.71158 7.49997 6.255C7.47662 6.35676 7.45794 6.45953 7.44397 6.563L7.38997 6.6045C6.82797 7.04 6.41547 7.568 6.51347 8.1735C6.60747 8.7585 7.13647 9.1145 7.62847 9.332C7.75347 9.3875 7.88847 9.4395 8.03197 9.488C7.95968 10.0516 8.00831 10.6242 8.17463 11.1676C8.34094 11.711 8.62113 12.2127 8.99652 12.6393C9.37191 13.0659 9.83388 13.4076 10.3517 13.6417C10.8695 13.8758 11.4312 13.9969 11.9995 13.9969C12.5677 13.9969 13.1295 13.8758 13.6473 13.6417C14.1651 13.4076 14.627 13.0659 15.0024 12.6393C15.3778 12.2127 15.658 11.711 15.8243 11.1676C15.9906 10.6242 16.0393 10.0516 15.967 9.488C16.1105 9.4395 16.2455 9.388 16.3705 9.332C16.8625 9.1145 17.391 8.7585 17.4855 8.1735C17.5835 7.568 17.171 7.04 16.609 6.6045L16.6095 6.605ZM8.47247 7.336C8.40747 7.149 8.39047 6.8485 8.47497 6.477C8.55797 6.1145 8.72997 5.717 8.99997 5.349V6.75C8.99997 6.88261 9.05265 7.00979 9.14642 7.10355C9.24018 7.19732 9.36736 7.25 9.49997 7.25C9.63258 7.25 9.75976 7.19732 9.85352 7.10355C9.94729 7.00979 9.99997 6.88261 9.99997 6.75V4.455C10.4115 4.221 10.909 4.0575 11.5 4.0125V5.75C11.5 5.88261 11.5526 6.00979 11.6464 6.10355C11.7402 6.19732 11.8674 6.25 12 6.25C12.1326 6.25 12.2598 6.19732 12.3535 6.10355C12.4473 6.00979 12.5 5.88261 12.5 5.75V4.0435C13.028 4.11005 13.5377 4.27995 14 4.5435V6.75C14 6.88261 14.0526 7.00979 14.1464 7.10355C14.2402 7.19732 14.3674 7.25 14.5 7.25C14.6326 7.25 14.7598 7.19732 14.8535 7.10355C14.9473 7.00979 15 6.88261 15 6.75V5.409C15.5525 6.117 15.682 6.881 15.5265 7.3395C15.4879 7.45298 15.4915 7.57652 15.5364 7.68762C15.5813 7.79872 15.6646 7.89 15.7712 7.94483C15.8777 7.99965 16.0005 8.01438 16.117 7.98633C16.2335 7.95828 16.336 7.88932 16.406 7.792C16.5045 7.9295 16.501 8.0025 16.499 8.014C16.4925 8.054 16.416 8.219 15.9665 8.418C15.7715 8.504 15.5395 8.5815 15.279 8.65L15.267 8.653C14.9845 8.726 14.67 8.788 14.3335 8.839C13.7094 8.92899 13.0804 8.98075 12.45 8.994C12.0166 9.00483 11.583 9.00016 11.15 8.98C10.6519 8.9577 10.1553 8.91031 9.66197 8.838C9.34929 8.79258 9.0392 8.73083 8.73297 8.653L8.72097 8.65C8.48604 8.59092 8.25616 8.51334 8.03347 8.418C7.58397 8.219 7.50747 8.054 7.50097 8.014C7.49897 8.0025 7.49547 7.9295 7.59397 7.792C7.66402 7.88976 7.76696 7.95899 7.88391 7.98701C8.00087 8.01503 8.12401 7.99995 8.23075 7.94455C8.33749 7.88914 8.42069 7.79712 8.46508 7.68535C8.50948 7.57358 8.5121 7.44955 8.47247 7.336ZM9.01097 9.7405C9.17697 9.773 9.34897 9.8025 9.52497 9.829C10.059 9.909 10.634 9.96 11.219 9.984C11.7404 10.0054 12.2625 10.0054 12.784 9.984C13.366 9.96 13.939 9.909 14.4705 9.829C14.644 9.80374 14.8169 9.77423 14.989 9.7405C15.0245 10.1546 14.9737 10.5715 14.8396 10.9649C14.7055 11.3583 14.4912 11.7195 14.2102 12.0257C13.9292 12.3319 13.5876 12.5764 13.2071 12.7436C12.8266 12.9108 12.4156 12.9972 12 12.9972C11.5844 12.9972 11.1733 12.9108 10.7928 12.7436C10.4124 12.5764 10.0708 12.3319 9.78977 12.0257C9.50874 11.7195 9.29441 11.3583 9.16034 10.9649C9.02628 10.5715 8.97541 10.1546 9.01097 9.7405Z" fill="#111111"/>
<path fill-rule="evenodd" clip-rule="evenodd" d="M14.5 14.2422C14.829 14.2997 15.164 14.3667 15.5 14.4432C18.2215 15.0647 21 16.3072 21 17.9972V20.9972H3V17.9972C3 16.3072 5.7785 15.0647 8.5 14.4432C8.83156 14.3676 9.165 14.3006 9.5 14.2422V16.4972H14.5V14.2422ZM7.5 15.7422C7.827 15.6422 8.1625 15.5517 8.5 15.4702V17.4972H15.5V15.4707C16.0065 15.5919 16.507 15.7367 17 15.9047V19.9972H18V16.2957C18.145 16.3602 18.285 16.4267 18.419 16.4952C18.9875 16.7842 19.409 17.0822 19.676 17.3672C19.9385 17.6472 20 17.8537 20 17.9972V19.9972H4V17.9972C4 17.8537 4.0615 17.6472 4.324 17.3672C4.591 17.0822 5.0125 16.7842 5.581 16.4952C5.8655 16.3502 6.174 16.2142 6.5 16.0877V19.9972H7.5V15.7427V15.7422Z" fill="#111111"/>
</svg>
