<svg width="18" height="22" viewBox="0 0 18 22" fill="none" xmlns="http://www.w3.org/2000/svg">
<path d="M5.39118 8.84618C5.44553 9.00961 5.43279 9.18792 5.35577 9.34197C5.27875 9.49601 5.14373 9.61319 4.98038 9.66778C4.7808 9.73088 4.59569 9.83286 4.43571 9.96785C4.27574 10.1028 4.14406 10.2682 4.04828 10.4543C3.80778 10.908 3.64268 11.6542 3.79478 12.8723C3.81082 13.0407 3.76056 13.2088 3.65467 13.3407C3.54877 13.4727 3.3956 13.5581 3.22769 13.579C3.05979 13.5998 2.89038 13.5543 2.75546 13.4522C2.62055 13.3501 2.53076 13.1994 2.50518 13.0322C2.33228 11.6503 2.49218 10.609 2.90168 9.84328C3.31768 9.06328 3.95078 8.64078 4.56958 8.43538C4.73301 8.38103 4.91133 8.39377 5.06538 8.47079C5.21942 8.54781 5.3366 8.68283 5.39118 8.84618ZM11.8054 1.86778C11.9627 1.8086 12.0911 1.69075 12.1634 1.53898C12.2357 1.38721 12.2464 1.21332 12.1932 1.05383C12.1401 0.894335 12.0272 0.761645 11.8783 0.683619C11.7293 0.605594 11.556 0.588302 11.3946 0.635376C10.1752 1.04098 9.41468 2.04198 8.96878 3.11448C8.9083 3.25943 8.8528 3.40642 8.80238 3.55518C8.55925 3.09394 8.2481 2.67192 7.87938 2.30328C7.37971 1.80252 6.78288 1.40927 6.12561 1.14771C5.46833 0.886136 4.7645 0.761778 4.05738 0.782276C3.69524 0.792104 3.35062 0.940264 3.09433 1.19631C2.83804 1.45236 2.68955 1.79684 2.67938 2.15898C2.65889 2.87559 2.78716 3.58867 3.05611 4.25321C3.32506 4.91776 3.72885 5.51933 4.24198 6.01998C3.14998 6.25652 2.16314 6.83834 1.4275 7.67933C0.691869 8.52033 0.246527 9.57581 0.157384 10.6896L0.149584 10.7858C-0.0220397 12.9271 0.434237 15.0721 1.46258 16.9582L1.92928 17.8136C1.94228 17.8357 1.95528 17.8578 1.97088 17.8786L3.27088 19.7012C3.56552 20.1138 3.94652 20.4573 4.38737 20.7077C4.82822 20.9582 5.31834 21.1096 5.82364 21.1514C6.32894 21.1932 6.83728 21.1245 7.31331 20.9499C7.78934 20.7753 8.22162 20.4992 8.58008 20.1406C8.63513 20.0855 8.70049 20.0418 8.77243 20.012C8.84437 19.9822 8.92147 19.9669 8.99933 19.9669C9.0772 19.9669 9.1543 19.9822 9.22624 20.012C9.29817 20.0418 9.36353 20.0855 9.41858 20.1406C9.77705 20.4992 10.2093 20.7753 10.6854 20.9499C11.1614 21.1245 11.6697 21.1932 12.175 21.1514C12.6803 21.1096 13.1704 20.9582 13.6113 20.7077C14.0521 20.4573 14.4331 20.1138 14.7278 19.7012L16.0278 17.8799C16.0434 17.8586 16.0577 17.8365 16.0707 17.8136L16.5361 16.9582C17.5649 15.0722 18.0216 12.9273 17.8504 10.7858L17.8426 10.6896C17.785 9.97182 17.579 9.27385 17.2377 8.63986C16.8963 8.00587 16.427 7.4497 15.8594 7.00656C15.2919 6.56342 14.6385 6.24299 13.9406 6.06555C13.2428 5.88811 12.5157 5.85754 11.8054 5.97578L9.64998 6.33458C9.66298 5.44928 9.81898 4.45348 10.1674 3.61368C10.5327 2.73618 11.0735 2.11218 11.8054 1.86778ZM7.33338 6.16558L7.13318 6.13178C6.37026 5.98425 5.6692 5.61108 5.12078 5.06058C4.74495 4.68599 4.44979 4.23841 4.25349 3.74543C4.05719 3.25244 3.9639 2.72448 3.97938 2.19408C3.97973 2.16396 3.99193 2.1352 4.01335 2.11402C4.03476 2.09285 4.06367 2.08097 4.09378 2.08098C4.62397 2.06567 5.15168 2.15904 5.64443 2.35534C6.13719 2.55163 6.58455 2.8467 6.95898 3.22238C7.74808 4.01148 8.12898 5.05278 8.10038 6.08888C8.10005 6.11877 8.08802 6.14734 8.06688 6.16848C8.04575 6.18961 8.01717 6.20164 7.98728 6.20198C7.76868 6.20808 7.54996 6.1959 7.33338 6.16558ZM6.90698 7.41228L7.13318 7.44998L8.14458 7.61898C8.71094 7.71343 9.28903 7.71343 9.85538 7.61898L12.0186 7.25758C12.5514 7.1687 13.097 7.1915 13.6205 7.32452C14.1441 7.45755 14.6344 7.6979 15.0602 8.03034C15.486 8.36278 15.8381 8.78006 16.0942 9.25573C16.3503 9.73139 16.5047 10.2551 16.5478 10.7936L16.5543 10.8898C16.7055 12.7796 16.3026 14.6725 15.3947 16.3368L14.9475 17.1558L13.6696 18.9446C13.4848 19.2036 13.2457 19.4193 12.9691 19.5766C12.6925 19.7338 12.3849 19.829 12.0678 19.8553C11.7507 19.8817 11.4317 19.8386 11.1329 19.7292C10.8341 19.6197 10.5627 19.4465 10.3377 19.2215C9.98272 18.8665 9.50131 18.6671 8.99933 18.6671C8.49736 18.6671 8.01595 18.8665 7.66098 19.2215C7.43595 19.4465 7.1646 19.6197 6.86581 19.7292C6.56702 19.8386 6.24797 19.8817 5.93085 19.8553C5.61374 19.829 5.30617 19.7338 5.02955 19.5766C4.75293 19.4193 4.5139 19.2036 4.32908 18.9446L3.05118 17.1558L2.60398 16.3368C1.6961 14.6725 1.29313 12.7796 1.44438 10.8898L1.45218 10.7936C1.49524 10.2551 1.64971 9.73139 1.90579 9.25573C2.16187 8.78006 2.51397 8.36278 2.93979 8.03034C3.36561 7.6979 3.85585 7.45755 4.37943 7.32452C4.90302 7.1915 5.44853 7.1687 5.98138 7.25758L6.90698 7.41228Z" fill="#111111"/>
</svg>
