<svg width="20" height="22" viewBox="0 0 20 22" fill="none" xmlns="http://www.w3.org/2000/svg">
<path d="M14.5004 5.75H17.5724C17.7582 5.75018 17.9373 5.81933 18.075 5.94403C18.2127 6.06874 18.2993 6.24013 18.3179 6.425L18.7754 11H17.2664L16.8914 7.25H14.5004V9.5C14.5004 9.69891 14.4213 9.88968 14.2807 10.0303C14.14 10.171 13.9493 10.25 13.7504 10.25C13.5514 10.25 13.3607 10.171 13.22 10.0303C13.0794 9.88968 13.0004 9.69891 13.0004 9.5V7.25H7.00036V9.5C7.00036 9.69891 6.92134 9.88968 6.78069 10.0303C6.64004 10.171 6.44927 10.25 6.25036 10.25C6.05145 10.25 5.86068 10.171 5.72003 10.0303C5.57938 9.88968 5.50036 9.69891 5.50036 9.5V7.25H3.10786L1.90786 19.25H10.0004V20.75H1.07836C0.973607 20.7499 0.870036 20.7278 0.774322 20.6853C0.678607 20.6427 0.592871 20.5806 0.522638 20.5028C0.452406 20.4251 0.399233 20.3335 0.366547 20.234C0.333861 20.1345 0.322386 20.0292 0.332861 19.925L1.68286 6.425C1.70144 6.24013 1.78798 6.06874 1.92571 5.94403C2.06344 5.81933 2.24256 5.75018 2.42836 5.75H5.50036V5.2265C5.50036 2.6255 7.50436 0.5 10.0004 0.5C12.4964 0.5 14.5004 2.6255 14.5004 5.2265V5.7515V5.75ZM13.0004 5.75V5.2265C13.0004 3.4355 11.6474 2 10.0004 2C8.35336 2 7.00036 3.4355 7.00036 5.2265V5.7515H13.0004V5.75ZM17.7209 17.09L16.0004 15.371V20.75C16.0004 20.9489 15.9213 21.1397 15.7807 21.2803C15.64 21.421 15.4493 21.5 15.2504 21.5C15.0514 21.5 14.8607 21.421 14.72 21.2803C14.5794 21.1397 14.5004 20.9489 14.5004 20.75V15.371L12.7814 17.09C12.7122 17.1616 12.6294 17.2188 12.5379 17.2581C12.4464 17.2974 12.348 17.3181 12.2484 17.3189C12.1488 17.3198 12.0501 17.3008 11.9579 17.2631C11.8657 17.2254 11.782 17.1697 11.7116 17.0993C11.6411 17.0289 11.5855 16.9451 11.5477 16.853C11.51 16.7608 11.4911 16.662 11.4919 16.5625C11.4928 16.4629 11.5135 16.3644 11.5528 16.2729C11.5921 16.1814 11.6492 16.0987 11.7209 16.0295L14.7209 13.0295C14.8615 12.8889 15.0522 12.8099 15.2511 12.8099C15.45 12.8099 15.6407 12.8889 15.7814 13.0295L18.7814 16.0295C18.853 16.0987 18.9101 16.1814 18.9494 16.2729C18.9887 16.3644 19.0094 16.4629 19.0103 16.5625C19.0112 16.662 18.9922 16.7608 18.9545 16.853C18.9168 16.9451 18.8611 17.0289 18.7907 17.0993C18.7202 17.1697 18.6365 17.2254 18.5443 17.2631C18.4522 17.3008 18.3534 17.3198 18.2538 17.3189C18.1542 17.3181 18.0558 17.2974 17.9643 17.2581C17.8728 17.2188 17.79 17.1616 17.7209 17.09Z" fill="#111111"/>
</svg>
