<svg width="20" height="20" viewBox="0 0 20 20" fill="none" xmlns="http://www.w3.org/2000/svg">
<path d="M10.0004 0.398438C7.45431 0.398438 5.01252 1.40986 3.21217 3.21021C1.41182 5.01056 0.400391 7.45236 0.400391 9.99844C0.400391 12.5445 1.41182 14.9863 3.21217 16.7867C5.01252 18.587 7.45431 19.5984 10.0004 19.5984C12.5465 19.5984 14.9883 18.587 16.7886 16.7867C18.589 14.9863 19.6004 12.5445 19.6004 9.99844C19.6004 7.45236 18.589 5.01056 16.7886 3.21021C14.9883 1.40986 12.5465 0.398438 10.0004 0.398438ZM8.00359 1.83724C9.3163 1.5166 10.6869 1.5166 11.9996 1.83724L10.0004 3.00244L8.00359 1.83844V1.83724ZM6.51079 2.35564L9.40279 4.04164V6.08164L6.07999 8.42404L4.20799 7.74364L3.45679 4.72924C4.27693 3.71159 5.32246 2.89859 6.51079 2.35444V2.35564ZM2.56159 6.09364L3.03319 7.98964L1.63639 9.23044C1.73839 8.10604 2.06119 7.04644 2.56279 6.09364H2.56159ZM1.64119 10.8288L3.83359 8.88484L5.68879 9.55804L6.94279 13.506L6.08239 14.7936H3.10279C2.28379 13.6192 1.78048 12.2539 1.64119 10.8288ZM4.11679 15.9936H5.98159L6.59359 17.6784C5.67388 17.2695 4.83499 16.6988 4.11679 15.9936ZM8.04799 18.1704L7.06999 15.4752L7.92199 14.1996H12.0824L12.9356 15.4752L11.9576 18.1692C10.6724 18.4761 9.33313 18.4761 8.04799 18.1692V18.1704ZM13.4132 17.676L14.0252 15.9936H15.884C15.1673 16.6973 14.3305 17.2671 13.4132 17.676ZM16.898 14.7936H13.9244L13.0604 13.5036L14.2904 9.55924L16.1708 8.88244L18.3596 10.8288C18.2203 12.2539 17.717 13.6192 16.898 14.7936ZM18.3656 9.22804L16.9736 7.99084L17.4452 6.10444C17.942 7.05244 18.2636 8.10844 18.3656 9.22804ZM16.5488 4.73764L15.7988 7.74124L13.898 8.42524L10.6016 6.08284V4.04284L13.4924 2.35444C14.6828 2.90014 15.7297 3.7157 16.55 4.73644L16.5488 4.73764ZM6.87679 9.33364L10.0004 7.12684L13.1036 9.33124L11.9612 12.9984H8.04079L6.87679 9.33124V9.33364Z" fill="#111111"/>
</svg>
