<svg width="19" height="22" viewBox="0 0 19 22" fill="none" xmlns="http://www.w3.org/2000/svg">
<path d="M7.79977 0.601562L8.59977 2.20156H16.5998L17.3998 0.601562H7.79977ZM8.59977 3.00156V5.00156C8.59977 5.00156 8.59977 9.40156 12.5998 9.40156C16.5998 9.40156 16.5998 5.00156 16.5998 5.00156V3.00156H8.59977ZM2.17417 5.37916C1.75037 5.3859 1.34656 5.56053 1.05138 5.8647C0.756204 6.16888 0.593782 6.57775 0.599769 7.00156V13.4016C0.599571 13.6413 0.653239 13.878 0.756808 14.0942C0.860377 14.3104 1.0112 14.5005 1.19813 14.6506C1.38506 14.8006 1.60333 14.9068 1.8368 14.9612C2.07026 15.0156 2.31296 15.0168 2.54697 14.9648L6.99977 13.9728V21.4016L16.4062 10.3136C16.179 10.2435 15.9431 10.2058 15.7054 10.2016H9.39977L3.79977 11.408V7.00156C3.8028 6.7874 3.76279 6.57481 3.68213 6.37639C3.60147 6.17797 3.48179 5.99777 3.33018 5.84647C3.17858 5.69517 2.99815 5.57584 2.79957 5.49557C2.601 5.4153 2.38833 5.37571 2.17417 5.37916ZM17.7966 11.3392L9.25897 21.4016H18.1998V12.696C18.1998 12.1936 18.0494 11.7296 17.7966 11.3392Z" fill="#111111"/>
</svg>
