<svg width="20" height="19" viewBox="0 0 20 19" fill="none" xmlns="http://www.w3.org/2000/svg">
<path d="M9.45833 10.5417V8.64583C9.45833 8.43034 9.54394 8.22368 9.69631 8.07131C9.84868 7.91894 10.0553 7.83333 10.2708 7.83333C10.4863 7.83333 10.693 7.91894 10.8454 8.07131C10.9977 8.22368 11.0833 8.43034 11.0833 8.64583V10.5417H12.9792C13.1947 10.5417 13.4013 10.6273 13.5537 10.7796C13.7061 10.932 13.7917 11.1387 13.7917 11.3542C13.7917 11.5697 13.7061 11.7763 13.5537 11.9287C13.4013 12.0811 13.1947 12.1667 12.9792 12.1667H11.0833V14.0625C11.0833 14.278 10.9977 14.4847 10.8454 14.637C10.693 14.7894 10.4863 14.875 10.2708 14.875C10.0553 14.875 9.84868 14.7894 9.69631 14.637C9.54394 14.4847 9.45833 14.278 9.45833 14.0625V12.1667H7.5625C7.34701 12.1667 7.14035 12.0811 6.98798 11.9287C6.8356 11.7763 6.75 11.5697 6.75 11.3542C6.75 11.1387 6.8356 10.932 6.98798 10.7796C7.14035 10.6273 7.34701 10.5417 7.5625 10.5417H9.45833ZM6.47917 0.25H13.5208C13.7172 0.250008 13.9069 0.321113 14.0548 0.450164C14.2028 0.579216 14.299 0.757483 14.3258 0.952L14.3333 1.0625V4.58333H16.2292C17.163 4.58333 18.0585 4.95428 18.7188 5.61456C19.3791 6.27485 19.75 7.17038 19.75 8.10417V15.1458C19.75 16.0796 19.3791 16.9752 18.7188 17.6354C18.0585 18.2957 17.163 18.6667 16.2292 18.6667H3.77083C2.83705 18.6667 1.94151 18.2957 1.28123 17.6354C0.620944 16.9752 0.25 16.0796 0.25 15.1458V8.10417C0.25 7.17038 0.620944 6.27485 1.28123 5.61456C1.94151 4.95428 2.83705 4.58333 3.77083 4.58333H5.66667V1.0625C5.66668 0.866159 5.73778 0.676463 5.86683 0.528492C5.99588 0.380521 6.17415 0.284286 6.36867 0.257583L6.47917 0.25ZM16.2292 6.20833H3.77083C3.26803 6.20833 2.78581 6.40807 2.43028 6.76361C2.07474 7.11915 1.875 7.60136 1.875 8.10417V15.1458C1.875 16.1923 2.72433 17.0417 3.77083 17.0417H16.2292C16.732 17.0417 17.2142 16.8419 17.5697 16.4864C17.9253 16.1309 18.125 15.6486 18.125 15.1458V8.10417C18.125 7.60136 17.9253 7.11915 17.5697 6.76361C17.2142 6.40807 16.732 6.20833 16.2292 6.20833ZM12.7083 1.875H7.29167V4.58333H12.7083V1.875Z" fill="#111111"/>
</svg>
