<svg width="20" height="20" viewBox="0 0 20 20" fill="none" xmlns="http://www.w3.org/2000/svg">
<path fill-rule="evenodd" clip-rule="evenodd" d="M19.7178 1.0359L19.1832 0.950854L19.0429 0.427604L19.8495 0.210938L19.7184 1.0359H19.7178ZM12.557 8.52715L12.0961 8.81098L12.095 8.8099L12.0933 8.80719L12.0879 8.79852L12.0695 8.76765C12.0543 8.74165 12.0316 8.70373 12.0045 8.65552C11.9286 8.5229 11.8555 8.38871 11.7851 8.25306C11.5625 7.82664 11.3682 7.38604 11.2034 6.9341C11.0203 6.42277 10.8632 5.83723 10.8388 5.27065C10.815 4.70623 10.9201 4.0936 11.3404 3.61315C11.718 3.18198 12.4297 2.78494 13.1778 2.44152C13.9529 2.08456 14.8651 1.74223 15.729 1.44594C16.7992 1.08046 17.8801 0.747366 18.9703 0.447104L19.0245 0.431938L19.0435 0.426521L19.1843 0.950312L19.7189 1.03535L19.7157 1.0554L19.7065 1.11281C19.6524 1.44512 19.5957 1.77699 19.5364 2.1084C19.3921 2.92339 19.2346 3.73599 19.0641 4.5459C18.8712 5.45644 18.647 6.41085 18.4092 7.20981C18.3037 7.57525 18.1795 7.93502 18.0371 8.28773C17.9136 8.58565 17.7673 8.8749 17.5896 9.07856C17.2094 9.51298 16.6173 9.64894 16.1001 9.68361C15.5606 9.7199 14.9626 9.65435 14.4247 9.55902C13.945 9.4726 13.4699 9.36233 13.0012 9.22861C12.8094 9.17459 12.6187 9.1168 12.4292 9.05527L12.3951 9.04335L12.3858 9.0401L12.3831 9.03956H12.3821L12.5576 8.5266L12.557 8.52715ZM12.557 8.52715L12.0961 8.81098L12.1979 8.97619L12.3821 9.03956L12.557 8.52715ZM12.921 8.07594C13.4756 8.24903 14.0401 8.38832 14.6116 8.49302C15.1121 8.58131 15.6126 8.63115 16.0275 8.60298C16.4657 8.57373 16.6856 8.46648 16.7739 8.36573C16.8302 8.30073 16.9223 8.1469 17.0361 7.87281C17.164 7.555 17.2755 7.23083 17.3703 6.9016C17.5961 6.14327 17.8133 5.22081 18.004 4.32219C18.187 3.45277 18.3546 2.58019 18.5067 1.70485L18.3393 1.7536C17.7386 1.93073 16.9272 2.18044 16.0806 2.47077C15.2323 2.76165 14.3586 3.09044 13.6301 3.42573C12.8739 3.77348 12.3636 4.08927 12.1556 4.32706C11.9893 4.51665 11.9038 4.8086 11.9216 5.22406C11.939 5.63735 12.0576 6.10698 12.2233 6.56794C12.4131 7.08932 12.6465 7.59378 12.921 8.07594ZM2.55947 2.39927L2.41918 2.92252L1.88401 3.00756L1.75293 2.18315L2.56001 2.39981L2.55947 2.39927ZM7.80389 9.07965L8.26485 9.36294L8.26593 9.36185L8.26701 9.35969L8.27135 9.35265L8.28706 9.32665C8.36873 9.18751 8.44676 9.04627 8.52105 8.90306C8.66405 8.6279 8.8466 8.24385 8.99935 7.81919C9.14993 7.39885 9.28101 6.9119 9.30105 6.4374C9.32164 5.96452 9.23389 5.43694 8.8688 5.01985C8.54597 4.65044 7.94851 4.3211 7.34185 4.0416C6.70755 3.74965 5.96276 3.47015 5.25914 3.2291C4.38766 2.93146 3.50741 2.66014 2.6196 2.41552L2.57518 2.4036L2.55947 2.39927L2.41918 2.92252L1.88401 3.00756L1.88672 3.02381L1.8943 3.07094L1.92355 3.24752C2.06971 4.12368 2.23423 4.99668 2.41701 5.86594C2.5741 6.60694 2.75718 7.38531 2.9511 8.03802C3.0486 8.36411 3.15043 8.66798 3.25714 8.92419C3.35843 9.16794 3.48247 9.41656 3.63847 9.59423C3.9743 9.97881 4.49051 10.0926 4.91789 10.1207C5.36855 10.1511 5.8631 10.0964 6.30455 10.0189C6.85884 9.91938 7.40546 9.7811 7.94039 9.60506L7.96801 9.59585L7.97614 9.59315L7.97885 9.59206L7.80389 9.07965ZM7.80389 9.07965L8.26485 9.36294L8.16301 9.52869L7.97885 9.59206L7.80389 9.07965ZM7.43935 8.6279C7.651 8.25179 7.83161 7.85904 7.97939 7.45356C8.1121 7.0836 8.20526 6.71256 8.2188 6.39081C8.23289 6.0669 8.16464 5.85998 8.0536 5.73269C7.9003 5.55827 7.50489 5.3091 6.88901 5.02581C6.30185 4.75552 5.59551 4.48956 4.9076 4.25394C4.30833 4.04936 3.70478 3.85756 3.09735 3.67869L3.09951 3.69223C3.1916 4.21223 3.32268 4.91423 3.47705 5.64169C3.63143 6.37077 3.80747 7.11665 3.98947 7.72927C4.08101 8.03585 4.17093 8.30073 4.2576 8.50873C4.34968 8.72919 4.41901 8.84131 4.45368 8.8814C4.4981 8.93177 4.64164 9.01681 4.99047 9.0401C5.31601 9.06177 5.7136 9.02277 6.1166 8.95181C6.56382 8.8712 7.00558 8.76283 7.43935 8.62735V8.6279ZM6.2531 13.7921C6.11551 13.7997 6.04835 13.8192 6.03101 13.8268C5.78564 13.9379 5.0403 14.1979 4.3968 14.4172C4.06639 14.5304 3.74951 14.6366 3.51551 14.7151L3.50035 14.7206V17.6472C3.59568 17.6429 3.69805 17.6391 3.8026 17.6353C4.2511 17.619 4.78464 17.6028 5.01593 17.6125C5.9866 17.651 6.71568 17.8806 7.3906 18.0935L7.40522 18.0984C8.03789 18.2977 8.62397 18.4808 9.39151 18.5388C9.60818 18.555 9.81889 18.5761 10.0155 18.5956H10.0182C10.7733 18.6715 11.2706 18.7094 11.6557 18.5696C11.9552 18.4608 13.0521 17.9521 14.1582 17.3959C14.7053 17.1207 15.2415 16.8406 15.6678 16.6007C15.8818 16.4804 16.0632 16.3732 16.2024 16.2833C16.2718 16.2383 16.327 16.2004 16.3693 16.1695C16.3859 16.1573 16.4021 16.1447 16.418 16.1316L16.4332 16.1186C16.4873 16.0639 16.5448 15.8732 16.4516 15.6939C16.4078 15.6101 16.3353 15.5448 16.2474 15.5098C16.1391 15.4626 15.9549 15.4264 15.6624 15.4746C15.0026 15.5829 14.2145 15.9003 13.4275 16.2204L13.4166 16.2253C13.0299 16.3824 12.6421 16.54 12.2981 16.6549C11.9677 16.7648 11.601 16.8634 11.2814 16.8444C10.8426 16.8174 10.0729 16.7036 9.4381 16.6007C9.07327 16.5417 8.7089 16.4799 8.34501 16.4154L8.2746 16.403L8.24968 16.3981L8.3526 15.3234L10.828 15.3532H10.8334C10.8623 15.3501 10.891 15.3447 10.919 15.337C11.0046 15.3153 11.1514 15.2617 11.3361 15.1311C11.393 15.0905 11.4677 15.0158 11.5376 14.9156C11.5646 14.8763 11.5892 14.8354 11.6113 14.7931C11.3095 14.7739 11.0096 14.7316 10.7143 14.6664C10.5535 14.6314 10.3939 14.5907 10.236 14.5445L10.2176 14.5391L7.18585 13.8642L7.15714 13.8593C6.99574 13.8325 6.83327 13.8126 6.67018 13.7997C6.53146 13.7882 6.39214 13.7857 6.2531 13.7921ZM7.29201 13.3334L7.39005 12.8009L7.3998 12.8025L10.4971 13.4915L10.5198 13.4986L10.5241 13.5002L10.5447 13.5061L10.6303 13.5305C10.7056 13.5511 10.8139 13.5793 10.9428 13.6074C11.2061 13.6643 11.5354 13.7169 11.8398 13.7169C12.1448 13.7169 12.4763 13.8306 12.6551 14.1545C12.8078 14.4319 12.7699 14.7319 12.7163 14.9302C12.6665 15.1055 12.5923 15.2729 12.4958 15.4274C12.6605 15.3624 12.8354 15.292 13.0191 15.2173L13.0526 15.2032C13.7991 14.8999 14.6939 14.5359 15.4863 14.4053C16.4072 14.2547 17.0978 14.5851 17.4136 15.1961C17.692 15.7351 17.6303 16.4458 17.2051 16.878C17.0983 16.9864 16.9396 17.0963 16.788 17.1944C16.5948 17.3166 16.3983 17.4335 16.1986 17.5448C15.7518 17.7961 15.1987 18.0849 14.6441 18.3638C13.5488 18.9147 12.3951 19.4536 12.0246 19.588C11.3821 19.8209 10.639 19.7467 9.97868 19.6806L9.90989 19.6736C9.71006 19.6531 9.50999 19.635 9.30972 19.6194C8.41055 19.5511 7.72156 19.3339 7.09214 19.1357L7.0786 19.1314C6.40151 18.9179 5.7916 18.7278 4.9726 18.6948C4.79276 18.6877 4.30851 18.7007 3.8416 18.7181C3.57866 18.7276 3.31577 18.7383 3.05293 18.75L2.98305 18.7533L2.41647 18.7793V13.9389L2.89151 13.7813C3.27697 13.6532 3.66192 13.5236 4.04635 13.3924C4.72018 13.1622 5.39943 12.9233 5.58468 12.8399C5.78347 12.75 6.00935 12.7207 6.19026 12.7099C6.38255 12.6991 6.58026 12.7072 6.75305 12.7202C6.96105 12.7365 7.16819 12.7623 7.3738 12.7976L7.38518 12.7998H7.38843L7.38951 12.8004H7.3906L7.29201 13.3334Z" fill="#111111"/>
<path fill-rule="evenodd" clip-rule="evenodd" d="M16.0398 4.16902C16.0939 4.21525 16.1383 4.27168 16.1706 4.33509C16.2028 4.39849 16.2223 4.46763 16.2278 4.53855C16.2333 4.60947 16.2248 4.68079 16.2028 4.74843C16.1808 4.81607 16.1456 4.87871 16.0994 4.93277C14.4847 6.81668 12.4746 9.57756 11.5873 11.8217C11.5611 11.8878 11.5222 11.9482 11.4727 11.9993C11.4232 12.0504 11.3641 12.0912 11.2988 12.1195C11.2335 12.1478 11.1633 12.1629 11.0922 12.164C11.0211 12.1652 10.9504 12.1523 10.8842 12.1261C10.8181 12.0999 10.7577 12.061 10.7066 12.0115C10.6555 11.962 10.6147 11.9029 10.5864 11.8376C10.5581 11.7723 10.543 11.7021 10.5419 11.631C10.5408 11.5598 10.5536 11.4892 10.5798 11.423C11.5348 9.00773 13.6408 6.13635 15.2761 4.22806C15.3696 4.11903 15.5026 4.05162 15.6458 4.04065C15.7891 4.02968 15.9308 4.07605 16.0398 4.16956V4.16902ZM5.33107 5.90669C5.27521 5.95077 5.22859 6.00544 5.19387 6.06755C5.15914 6.12967 5.137 6.19801 5.1287 6.26869C5.1204 6.33936 5.1261 6.41098 5.14549 6.47945C5.16488 6.54792 5.19757 6.6119 5.2417 6.66773C6.45611 8.20877 7.78211 10.181 8.41153 11.8168C8.46557 11.9474 8.56849 12.0517 8.69833 12.1074C8.82818 12.1631 8.97466 12.1659 9.10654 12.1152C9.23842 12.0645 9.34525 11.9642 9.40424 11.8358C9.46322 11.7074 9.4697 11.561 9.42228 11.4279C8.73382 9.63823 7.32711 7.5631 6.09211 5.99714C6.00324 5.88433 5.8732 5.81142 5.73059 5.79446C5.58798 5.7775 5.44447 5.81786 5.33161 5.90669H5.33107Z" fill="#111111"/>
<path d="M0.25 12.7031H3.5V19.7448H0.25V12.7031Z" fill="#111111"/>
</svg>
