<svg width="18" height="24" viewBox="0 0 18 24" fill="none" xmlns="http://www.w3.org/2000/svg">
<path d="M15 5.25V6.75C15 7.1625 14.6625 7.5 14.25 7.5C13.8375 7.5 13.5 7.1625 13.5 6.75V5.25C13.5 4.8375 13.8375 4.5 14.25 4.5C14.6625 4.5 15 4.8375 15 5.25ZM15.75 0C16.9922 0 18 1.00734 18 2.25V21.75C18 22.9922 16.9922 24 15.75 24H11.25V20.25C11.25 19.0078 10.2422 18 9 18C7.75781 18 6.75 19.0078 6.75 20.25V24H2.25C1.00734 24 0 22.9922 0 21.75V2.25C0 1.00734 1.00734 0 2.25 0H15.75ZM3 12.75C3 13.1625 3.33562 13.5 3.75 13.5H5.25C5.6625 13.5 6 13.1625 6 12.75V11.25C6 10.8375 5.6625 10.5 5.25 10.5H3.75C3.33562 10.5 3 10.8375 3 11.25V12.75ZM8.25 10.5C7.8375 10.5 7.5 10.8375 7.5 11.25V12.75C7.5 13.1625 7.8375 13.5 8.25 13.5H9.75C10.1625 13.5 10.5 13.1625 10.5 12.75V11.25C10.5 10.8375 10.1625 10.5 9.75 10.5H8.25ZM12 12.75C12 13.1625 12.3375 13.5 12.75 13.5H14.25C14.6625 13.5 15 13.1625 15 12.75V11.25C15 10.8375 14.6625 10.5 14.25 10.5H12.75C12.3375 10.5 12 10.8375 12 11.25V12.75ZM7.875 3C7.4625 3 7.125 3.33562 7.125 3.75V7.875C7.125 8.49844 7.62656 9 8.25 9H9.75C10.3734 9 10.875 8.49844 10.875 7.875V6.75C10.875 6.3375 10.5375 6 10.125 6C9.7125 6 9.375 6.3375 9.375 6.75V7.5H8.625V4.5H10.125C10.5375 4.5 10.875 4.16437 10.875 3.75C10.875 3.33562 10.5375 3 10.125 3H7.875ZM12 6.75C12 7.99219 13.0078 9 14.25 9C15.4922 9 16.5 7.99219 16.5 6.75V5.25C16.5 4.00734 15.4922 3 14.25 3C13.0078 3 12 4.00734 12 5.25V6.75ZM2.87391 3.33375C2.78459 3.19985 2.65455 3.09825 2.50302 3.04397C2.3515 2.98969 2.18652 2.98561 2.0325 3.03234C1.8785 3.07901 1.74358 3.17397 1.64769 3.3032C1.55181 3.43243 1.50002 3.58908 1.5 3.75V8.25C1.5 8.6625 1.83562 9 2.25 9C2.66438 9 3 8.6625 3 8.25V6.225L4.62609 8.66719C4.80938 8.93906 5.15156 9.06563 5.46562 8.96719C5.78437 8.87344 6 8.58281 6 8.25V3.75C6 3.33562 5.6625 3 5.25 3C4.8375 3 4.5 3.33562 4.5 3.75V5.775L2.87391 3.33375Z" fill="#111111"/>
</svg>
