<svg width="20" height="15" viewBox="0 0 20 15" fill="none" xmlns="http://www.w3.org/2000/svg">
<path d="M17.375 0H2.375C1.34094 0 0.5 0.840937 0.5 1.875V13.125C0.5 14.1591 1.34094 15 2.375 15H17.375C18.4091 15 19.25 14.1591 19.25 13.125V1.875C19.25 0.840937 18.4091 0 17.375 0ZM10.3438 11.25C9.72215 11.25 9.12601 11.0031 8.68647 10.5635C8.24693 10.124 8 9.52785 8 8.90625C8 8.28465 8.24693 7.68851 8.68647 7.24897C9.12601 6.80943 9.72215 6.5625 10.3438 6.5625C10.8525 6.56368 11.3467 6.73236 11.75 7.0425C11.1838 7.47 10.8125 8.14219 10.8125 8.90625C10.8125 9.67031 11.1838 10.3425 11.75 10.77C11.3467 11.0801 10.8525 11.2488 10.3438 11.25ZM14.0938 11.25C13.4721 11.25 12.876 11.0031 12.4365 10.5635C11.9969 10.124 11.75 9.52785 11.75 8.90625C11.75 8.28465 11.9969 7.68851 12.4365 7.24897C12.876 6.80943 13.4721 6.5625 14.0938 6.5625C14.7154 6.5625 15.3115 6.80943 15.751 7.24897C16.1906 7.68851 16.4375 8.28465 16.4375 8.90625C16.4375 9.52785 16.1906 10.124 15.751 10.5635C15.3115 11.0031 14.7154 11.25 14.0938 11.25Z" fill="black"/>
</svg>
