<svg width="18" height="22" viewBox="0 0 18 22" fill="none" xmlns="http://www.w3.org/2000/svg">
<path d="M2.49998 0.166748C1.92534 0.166748 1.37424 0.395021 0.967915 0.80135C0.561586 1.20768 0.333313 1.75878 0.333313 2.33341V19.6667C0.333313 20.2414 0.561586 20.7925 0.967915 21.1988C1.37424 21.6051 1.92534 21.8334 2.49998 21.8334H15.5C16.0746 21.8334 16.6257 21.6051 17.032 21.1988C17.4384 20.7925 17.6666 20.2414 17.6666 19.6667V2.33341C17.6666 1.75878 17.4384 1.20768 17.032 0.80135C16.6257 0.395021 16.0746 0.166748 15.5 0.166748H2.49998ZM8.99998 3.41675C10.4366 3.41675 11.8143 3.98743 12.8301 5.00325C13.846 6.01908 14.4166 7.39683 14.4166 8.83342C14.4166 10.27 13.846 11.6478 12.8301 12.6636C11.8143 13.6794 10.4366 14.2501 8.99998 14.2501C7.56339 14.2501 6.18564 13.6794 5.16982 12.6636C4.154 11.6478 3.58331 10.27 3.58331 8.83342C3.58331 7.39683 4.154 6.01908 5.16982 5.00325C6.18564 3.98743 7.56339 3.41675 8.99998 3.41675V3.41675ZM8.99998 4.50008C8.55581 5.17175 8.18748 5.89758 7.95998 6.66675H10.04C9.80684 5.89532 9.45605 5.1645 8.99998 4.50008V4.50008ZM7.59165 4.73841C6.59498 5.07425 5.74998 5.76758 5.25165 6.66675H6.83331C7.02831 5.99508 7.26665 5.34508 7.59165 4.73841ZM10.3975 4.73841C10.7225 5.34508 10.9716 5.99508 11.1666 6.66675H12.7483C12.25 5.76758 11.3941 5.08508 10.3975 4.73841V4.73841ZM4.80748 7.75008C4.72081 8.09675 4.66665 8.45425 4.66665 8.83342C4.66665 9.21258 4.72081 9.57008 4.80748 9.91675H6.63831C6.59498 9.55925 6.56248 9.20175 6.56248 8.83342C6.56248 8.46508 6.59498 8.10758 6.63831 7.75008H4.80748ZM7.73248 7.75008C7.67831 8.09675 7.64581 8.46508 7.64581 8.83342C7.64581 9.20175 7.67831 9.55925 7.73248 9.91675H10.2675C10.3108 9.55925 10.3541 9.20175 10.3541 8.83342C10.3541 8.46508 10.3108 8.09675 10.2675 7.75008H7.73248ZM11.3616 7.75008C11.405 8.10758 11.4375 8.46508 11.4375 8.83342C11.4375 9.20175 11.405 9.55925 11.3616 9.91675H13.1925C13.2791 9.57008 13.3333 9.21258 13.3333 8.83342C13.3333 8.45425 13.2791 8.09675 13.1925 7.75008H11.3616V7.75008ZM5.25165 11.0001C5.74998 11.8992 6.59498 12.5817 7.59165 12.9284C7.26665 12.3217 7.02831 11.6826 6.83331 11.0001H5.25165ZM7.95998 11.0001C8.18748 11.7801 8.55581 12.4951 8.99998 13.1667C9.45498 12.4951 9.81248 11.7801 10.04 11.0001H7.95998V11.0001ZM11.1666 11.0001C10.9716 11.6826 10.7225 12.3217 10.3975 12.9284C11.3941 12.5817 12.25 11.8992 12.7483 11.0001H11.1666ZM3.58331 16.4167H14.4166V18.5834H3.58331V16.4167Z" fill="#AB92F0"/>
</svg>
