<svg width="28" height="33" viewBox="0 0 28 33" fill="none" xmlns="http://www.w3.org/2000/svg">
<g clip-path="url(#clip0_5286_125920)">
<path d="M8.13074 23.6363C7.94726 23.6125 7.76242 23.6009 7.57741 23.6016L7.44807 23.6029H7.45474H6.99341V24.9216H7.50807C7.76238 24.9398 8.01791 24.9127 8.26274 24.8416L8.24674 24.8456C8.36227 24.8008 8.46232 24.7235 8.53474 24.6229L8.53607 24.6216C8.61315 24.5035 8.65045 24.3638 8.64254 24.223C8.63462 24.0822 8.5819 23.9476 8.49207 23.8389L8.49341 23.8403C8.40269 23.7297 8.2737 23.6574 8.13207 23.6376H8.12941L8.13074 23.6363ZM11.1201 25.6296H12.3841L11.7521 23.9043L11.1201 25.6296Z" fill="#E0F7FE"/>
<path d="M25.2359 0.101562H3.16793C1.85993 0.101562 0.799927 1.16156 0.799927 2.46956V29.7349C0.799927 31.0429 1.85993 32.1029 3.16793 32.1029H25.2373C26.5453 32.1029 27.6053 31.0429 27.6053 29.7349V2.46956C27.6053 1.16156 26.5453 0.101562 25.2373 0.101562H25.2359ZM14.6759 3.72823C14.7719 3.7389 14.8799 3.7389 14.9759 3.74956C15.2986 3.78156 15.5853 3.90956 15.8133 4.10556L15.8106 4.10423C16.3079 4.5429 16.7199 5.06423 17.0279 5.64956L17.0426 5.6789C17.2013 5.96156 17.3599 6.30023 17.4946 6.6509L17.5133 6.7069C16.6853 6.8189 15.7026 6.89623 14.7079 6.92023H14.6759V3.72823ZM17.9013 14.9349C16.8415 14.782 15.7732 14.6965 14.7026 14.6789H14.6759V12.0976H18.3026C18.2613 13.1269 18.1159 14.1016 17.8759 15.0376L17.8973 14.9402L17.9013 14.9349ZM14.6759 15.8229C15.68 15.8391 16.6822 15.9152 17.6773 16.0509L17.5466 16.0362C17.3995 16.4397 17.223 16.8319 17.0186 17.2096L17.0426 17.1616C16.7363 17.757 16.3206 18.2893 15.8173 18.7309L15.8106 18.7362C15.5772 18.9365 15.2875 19.0595 14.9813 19.0882H14.9746C14.876 19.1013 14.7767 19.1084 14.6773 19.1096H14.6746L14.6759 15.8229ZM17.8586 17.6016C18.0813 17.2029 18.2946 16.7322 18.4706 16.2442L18.4919 16.1762C18.9853 16.2616 19.4879 16.3696 19.9853 16.4962H19.9959C19.8893 16.6256 19.7706 16.7429 19.6639 16.8509C19.0019 17.5172 18.2227 18.0555 17.3653 18.4389L17.3173 18.4589C17.5093 18.2109 17.6879 17.9322 17.8413 17.6389L17.8559 17.6082L17.8586 17.6016ZM21.8853 12.0949C21.7779 13.3246 21.3784 14.5108 20.7199 15.5549L20.7386 15.5229L20.6093 15.4909C20.0209 15.3357 19.4277 15.1996 18.8306 15.0829C19.0599 14.2016 19.2119 13.1776 19.2559 12.1256L19.2573 12.0962L21.8853 12.0949ZM14.6759 8.05623C15.7939 8.03359 16.9095 7.94589 18.0173 7.79356L17.8693 7.8109C18.1079 8.67889 18.2666 9.68423 18.3079 10.7202L18.3093 10.7469H14.6826L14.6759 8.05623ZM18.8013 7.66023C19.4013 7.55356 19.9746 7.42423 20.5479 7.2629L20.6759 7.2309C21.3319 8.22823 21.7639 9.42556 21.8746 10.7162L21.8759 10.7442H19.2399C19.2044 9.67067 19.0488 8.60447 18.7759 7.56556L18.7986 7.66556L18.8013 7.66023ZM19.9146 6.24556C19.4319 6.36423 18.9399 6.4709 18.4573 6.55623C18.2876 6.0809 18.0821 5.61912 17.8426 5.1749L17.8693 5.22823C17.7003 4.91957 17.5124 4.62167 17.3066 4.33623L17.3239 4.36156C18.1978 4.74913 18.9932 5.29369 19.6706 5.96823C19.7453 6.06423 19.8319 6.1509 19.9173 6.2469L19.9146 6.24556ZM12.6079 4.1029C12.8333 3.90823 13.1213 3.78023 13.4373 3.74956H13.4439C13.5319 3.73756 13.6359 3.72956 13.7413 3.72823H13.7439V6.90956C12.7509 6.89338 11.7598 6.81725 10.7759 6.68156L10.9039 6.69623C11.0626 6.28556 11.2213 5.9469 11.3986 5.62023L11.3746 5.66823C11.6933 5.0589 12.0973 4.54156 12.5799 4.10956L12.5853 4.10556L12.6079 4.1029ZM9.59726 15.0842C8.98659 15.2016 8.38659 15.3309 7.81859 15.4922L7.68926 15.5242C7.03505 14.5012 6.64178 13.3333 6.54393 12.1229L6.54259 12.0962H9.17859C9.20793 13.1722 9.35726 14.2002 9.61593 15.1842L9.59459 15.0896L9.59726 15.0842ZM8.42926 16.5082C8.92221 16.3802 9.42045 16.2734 9.92259 16.1882C10.1226 16.7469 10.3359 17.2162 10.5813 17.6669L10.5546 17.6136C10.7413 17.9509 10.9213 18.2349 11.1173 18.5056L11.0999 18.4802C10.226 18.0927 9.43066 17.5481 8.75326 16.8736C8.64659 16.7549 8.53993 16.6376 8.43326 16.5082H8.42926ZM10.8719 16.0362C11.7253 15.9122 12.7199 15.8349 13.7293 15.8229H13.7426V19.1109C13.5024 19.0972 13.2631 19.0723 13.0253 19.0362C12.8768 18.9458 12.7355 18.8442 12.6026 18.7322L12.6079 18.7362C12.1118 18.2992 11.6994 17.7755 11.3906 17.1909L11.3759 17.1616C11.1907 16.8206 11.029 16.4673 10.8919 16.1042L10.8706 16.0416L10.8719 16.0362ZM13.7439 14.6749C12.5853 14.6976 11.4693 14.7896 10.3759 14.9496L10.5199 14.9322C10.2774 14.0127 10.1375 13.0692 10.1026 12.1189L10.1013 12.0936H13.7439V14.6749ZM10.5519 7.80823C11.6046 7.96341 12.6666 8.04583 13.7306 8.0549H13.7439V10.7442H10.1013C10.1506 9.68156 10.3106 8.67889 10.5706 7.71756L10.5479 7.81623L10.5519 7.80823ZM11.0973 4.3589C10.9186 4.60556 10.7373 4.88823 10.5733 5.1829L10.5506 5.2269C10.3268 5.63252 10.1364 6.0557 9.98126 6.49223L9.96259 6.5549C9.47367 6.46667 8.98765 6.36306 8.50526 6.24423H8.49459C8.57803 6.14921 8.66384 6.05629 8.75193 5.96556C9.41703 5.30824 10.1935 4.77418 11.0453 4.38823L11.0946 4.36823L11.0973 4.3589ZM7.87326 7.26156C8.44126 7.41223 9.01993 7.54023 9.61993 7.6589C9.35741 8.65868 9.20671 9.68452 9.17059 10.7176L9.16926 10.7442H6.53326C6.64075 9.47941 7.06289 8.26156 7.76126 7.20156L7.74393 7.22956L7.87326 7.26156ZM9.07326 25.4216C8.92701 25.5232 8.76411 25.5986 8.59193 25.6442L8.58126 25.6469C8.30075 25.6909 8.0172 25.7127 7.73326 25.7122L7.59993 25.7109H7.60659H6.99593V27.4682H6.05326V22.8082H7.56393C7.94708 22.7897 8.33108 22.8166 8.70793 22.8882L8.67726 22.8829C8.94553 22.9579 9.18196 23.1185 9.35059 23.3402L9.35326 23.3429C9.52126 23.6002 9.62126 23.9149 9.62126 24.2536C9.62126 24.5149 9.56259 24.7616 9.45593 24.9816L9.45993 24.9709C9.37516 25.1542 9.2425 25.3113 9.07593 25.4256L9.07193 25.4282L9.07326 25.4216ZM13.1013 27.4669L12.6933 26.4069H10.8266L10.4399 27.4669H9.44393L11.2573 22.8069H12.2533L14.1173 27.4669H13.1013ZM17.9546 26.8562C17.8057 27.0906 17.5877 27.2728 17.3306 27.3776L17.3213 27.3802C17.0466 27.4896 16.7293 27.5536 16.3959 27.5536L16.2986 27.5522H16.3026C15.8126 27.5827 15.3279 27.437 14.9359 27.1416L14.9413 27.1456C14.6088 26.8373 14.4061 26.4139 14.3746 25.9616V25.9562L15.2853 25.8709C15.3173 26.1376 15.4373 26.3709 15.6173 26.5442C15.8199 26.6815 16.0584 26.7564 16.3031 26.7597C16.5479 26.7631 16.7883 26.6946 16.9946 26.5629L16.9893 26.5656C17.0597 26.513 17.1174 26.4454 17.1582 26.3677C17.1991 26.2899 17.222 26.204 17.2253 26.1162V26.1042C17.2254 26.0062 17.1909 25.9113 17.1279 25.8362V25.8376C17.0324 25.7461 16.9176 25.6773 16.7919 25.6362L16.7853 25.6349C16.6786 25.5922 16.4213 25.5282 16.0386 25.4309C15.6524 25.3586 15.2876 25.1995 14.9719 24.9656L14.9786 24.9709C14.845 24.858 14.7376 24.7173 14.664 24.5586C14.5903 24.4 14.552 24.2272 14.5519 24.0522V24.0189C14.5519 23.7736 14.6279 23.5469 14.7586 23.3602L14.7559 23.3642C14.8999 23.1576 15.0959 22.9949 15.3253 22.8962L15.3333 22.8936C15.5879 22.7909 15.8826 22.7322 16.1919 22.7322L16.2573 22.7336H16.2546C16.7282 22.6956 17.1991 22.8348 17.5759 23.1242L17.5706 23.1202C17.7153 23.245 17.8315 23.3995 17.9111 23.5732C17.9907 23.747 18.0319 23.9358 18.0319 24.1269V24.1496V24.1482L17.0893 24.1909C17.0672 23.9946 16.976 23.8126 16.8319 23.6776C16.6763 23.5702 16.4916 23.513 16.3026 23.5136L16.2293 23.5162H16.2319C16.0039 23.5005 15.7772 23.5615 15.5879 23.6896L15.5919 23.6869C15.5458 23.7199 15.5081 23.7632 15.4819 23.8135C15.4558 23.8638 15.4418 23.9195 15.4413 23.9762V23.9802C15.4413 24.0922 15.4959 24.1922 15.5799 24.2549H15.5813C15.8319 24.4029 16.1239 24.5122 16.4346 24.5629L16.4493 24.5642C16.8373 24.6482 17.1773 24.7629 17.4986 24.9096L17.4666 24.8962C17.6786 25.0096 17.8519 25.1696 17.9773 25.3629L17.9799 25.3682C18.1013 25.5742 18.1649 25.8091 18.1639 26.0482L18.1626 26.1096V26.1069V26.1429C18.1626 26.4122 18.0826 26.6629 17.9439 26.8709L17.9466 26.8656L17.9546 26.8562ZM22.2933 26.8562C22.1444 27.0906 21.9263 27.2728 21.6693 27.3776L21.6599 27.3802C21.3853 27.4896 21.0679 27.5536 20.7346 27.5536L20.6373 27.5522H20.6413C20.1513 27.5827 19.6666 27.437 19.2746 27.1416L19.2799 27.1456C18.9474 26.8373 18.7448 26.4139 18.7133 25.9616V25.9562L19.6239 25.8709C19.6559 26.1376 19.7759 26.3709 19.9559 26.5442C20.1586 26.6815 20.397 26.7564 20.6418 26.7597C20.8866 26.7631 21.1269 26.6946 21.3333 26.5629L21.3279 26.5656C21.3983 26.513 21.4561 26.4454 21.4969 26.3677C21.5377 26.2899 21.5606 26.204 21.5639 26.1162V26.1042C21.5641 26.0062 21.5296 25.9113 21.4666 25.8362V25.8376C21.3711 25.7461 21.2563 25.6773 21.1306 25.6362L21.1239 25.6349C21.0173 25.5922 20.7599 25.5282 20.3773 25.4309C19.991 25.3586 19.6263 25.1995 19.3106 24.9656L19.3173 24.9709C19.1837 24.858 19.0763 24.7173 19.0026 24.5586C18.9289 24.4 18.8907 24.2272 18.8906 24.0522V24.0189C18.8906 23.7736 18.9666 23.5469 19.0973 23.3602L19.0946 23.3642C19.2366 23.1578 19.4339 22.9956 19.6639 22.8962L19.6719 22.8936C19.9266 22.7909 20.2226 22.7322 20.5306 22.7322L20.5959 22.7336H20.5933C21.0669 22.6956 21.5378 22.8348 21.9146 23.1242L21.9093 23.1202C22.054 23.245 22.1701 23.3995 22.2497 23.5732C22.3293 23.747 22.3706 23.9358 22.3706 24.1269V24.1496V24.1482L21.4279 24.1909C21.4059 23.9946 21.3147 23.8126 21.1706 23.6776C21.015 23.5702 20.8303 23.513 20.6413 23.5136L20.5679 23.5162H20.5706C20.3426 23.5005 20.1159 23.5615 19.9266 23.6896L19.9306 23.6869C19.8845 23.7199 19.8468 23.7632 19.8206 23.8135C19.7944 23.8638 19.7805 23.9195 19.7799 23.9762V23.9802C19.7799 24.0922 19.8346 24.1922 19.9186 24.2549H19.9199C20.1693 24.4029 20.4613 24.5109 20.7719 24.5629L20.7866 24.5656C21.1746 24.6496 21.5146 24.7642 21.8359 24.9109L21.8039 24.8976C22.0159 25.0109 22.1893 25.1709 22.3146 25.3642L22.3173 25.3696C22.4386 25.5756 22.5022 25.8105 22.5013 26.0496L22.4999 26.1109V26.1082L22.5026 26.1869C22.503 26.4328 22.4261 26.6726 22.2826 26.8722L22.2853 26.8682L22.2933 26.8562Z" fill="#E0F7FE"/>
</g>
<defs>
<clipPath id="clip0_5286_125920">
<rect width="26.672" height="32" fill="white" transform="translate(0.800049 0.101562)"/>
</clipPath>
</defs>
</svg>
