<svg width="21" height="20" viewBox="0 0 21 20" fill="none" xmlns="http://www.w3.org/2000/svg">
<path fill-rule="evenodd" clip-rule="evenodd" d="M20.5 9.88609L20.5 14.9254C20.5 17.445 18.5 19.5 16.06 19.5L4.94 19.5C2.49 19.5 0.499999 17.445 0.499999 14.9047L0.5 9.87576C0.5 7.35611 2.49 5.29083 4.93 5.29083L9.73 5.29083L9.73 11.6932L8.13 10.041C7.83 9.73119 7.34 9.73119 7.04 10.041C6.89 10.1959 6.82 10.4024 6.82 10.6089C6.82 10.8051 6.89 11.0117 7.04 11.1666L9.95 14.1819C10.09 14.3368 10.29 14.4194 10.5 14.4194C10.7 14.4194 10.9 14.3368 11.04 14.1819L13.95 11.1666C14.25 10.8568 14.25 10.3508 13.95 10.041C13.65 9.73119 13.16 9.73119 12.86 10.041L11.27 11.6932L11.27 5.29083L16.05 5.29083C18.5 5.29083 20.5 7.35611 20.5 9.88609ZM10.5001 0.5C10.9201 0.5 11.2701 0.855229 11.2701 1.2815L11.2701 5.29052L9.7301 5.29052L9.7301 1.2815C9.7301 0.855229 10.0701 0.5 10.5001 0.5Z" fill="white"/>
</svg>
