<svg width="21" height="20" viewBox="0 0 21 20" fill="none" xmlns="http://www.w3.org/2000/svg">
<path fill-rule="evenodd" clip-rule="evenodd" d="M14.5799 20H6.40988C2.87988 20 0.499878 17.729 0.499878 14.34V5.67C0.499878 2.28 2.87988 0 6.40988 0H14.5799C18.1199 0 20.4999 2.28 20.4999 5.67V14.34C20.4999 17.729 18.1199 20 14.5799 20ZM12.7699 9.25H6.41988C5.99988 9.25 5.66988 9.59 5.66988 10C5.66988 10.42 5.99988 10.75 6.41988 10.75H12.7699L10.2899 13.22C10.1499 13.36 10.0699 13.56 10.0699 13.75C10.0699 13.939 10.1499 14.13 10.2899 14.28C10.5799 14.57 11.0599 14.57 11.3499 14.28L15.1199 10.53C15.3999 10.25 15.3999 9.75 15.1199 9.47L11.3499 5.72C11.0599 5.43 10.5799 5.43 10.2899 5.72C9.99988 6.02 9.99988 6.49 10.2899 6.79L12.7699 9.25Z" fill="white"/>
</svg>
