<svg width="21" height="24" viewBox="0 0 21 24" fill="none" xmlns="http://www.w3.org/2000/svg">
<path d="M2.25 0C1.65326 0 1.08097 0.237053 0.65901 0.65901C0.237053 1.08097 0 1.65326 0 2.25V21.75C0 22.3467 0.237053 22.919 0.65901 23.341C1.08097 23.7629 1.65326 24 2.25 24H12.75C13.3467 24 13.919 23.7629 14.341 23.341C14.7629 22.919 15 22.3467 15 21.75V19.5C15 19.3011 14.921 19.1103 14.7803 18.9697C14.6397 18.829 14.4489 18.75 14.25 18.75C13.6305 18.75 13.2345 18.597 12.966 18.396C12.6915 18.1905 12.483 17.883 12.33 17.4615C12.009 16.5795 12 15.411 12 14.25C12 14.1513 11.9805 14.0536 11.9427 13.9625C11.9048 13.8714 11.8494 13.7887 11.7795 13.719L11.3505 13.2885L9.531 11.469C8.8305 10.7685 8.625 10.299 8.586 10.0365C8.556 9.8265 8.619 9.6855 8.769 9.5415C9.09 9.234 9.3195 9.0255 9.579 8.9625C9.7335 8.9235 10.086 8.8965 10.719 9.5295L15.219 14.0295C15.3596 14.1703 15.5504 14.2495 15.7495 14.2497C15.848 14.2497 15.9456 14.2304 16.0367 14.1927C16.1278 14.1551 16.2105 14.0999 16.2803 14.0303C16.35 13.9606 16.4053 13.8779 16.4431 13.7869C16.4809 13.6959 16.5003 13.5983 16.5004 13.4998C16.5005 13.4012 16.4811 13.3036 16.4435 13.2126C16.4058 13.1215 16.3506 13.0387 16.281 12.969L15 11.6895V7.0605L18.84 10.9005C19.0492 11.1094 19.2151 11.3575 19.3284 11.6306C19.4416 11.9037 19.4999 12.1964 19.5 12.492V23.25C19.5 23.4489 19.579 23.6397 19.7197 23.7803C19.8603 23.921 20.0511 24 20.25 24C20.4489 24 20.6397 23.921 20.7803 23.7803C20.921 23.6397 21 23.4489 21 23.25V12.492C20.9998 11.4979 20.6049 10.5445 19.902 9.8415L15 4.9395V2.25C15 1.65326 14.7629 1.08097 14.341 0.65901C13.919 0.237053 13.3467 0 12.75 0H2.25ZM13.5 5.25V10.1895L11.781 8.469C10.9125 7.602 10.05 7.3035 9.2235 7.5045C9.06114 7.54457 8.90369 7.60242 8.754 7.677C8.08349 7.48277 7.37699 7.44714 6.69034 7.57293C6.00369 7.69872 5.35571 7.98248 4.7976 8.4018C4.23949 8.82111 3.78654 9.36447 3.47456 9.98896C3.16258 10.6134 3.00012 11.3019 3 12C2.99994 12.8699 3.25202 13.7212 3.72574 14.4508C4.19946 15.1804 4.87451 15.7571 5.66918 16.111C6.46384 16.465 7.34406 16.581 8.20329 16.445C9.06252 16.3091 9.86392 15.927 10.5105 15.345C10.536 16.212 10.623 17.16 10.92 17.9745C11.142 18.585 11.496 19.1685 12.066 19.5945L12.075 19.6035C11.6182 19.7471 11.2192 20.0328 10.936 20.4188C10.6527 20.8048 10.5 21.2712 10.5 21.75V22.5H4.5V21.75C4.5 21.1533 4.26295 20.581 3.84099 20.159C3.41903 19.7371 2.84674 19.5 2.25 19.5H1.5V4.5H2.25C2.84674 4.5 3.41903 4.26295 3.84099 3.84099C4.26295 3.41903 4.5 2.84674 4.5 2.25V1.5H10.5V2.25C10.5 2.84674 10.7371 3.41903 11.159 3.84099C11.581 4.26295 12.1533 4.5 12.75 4.5H13.5V5.25ZM13.5 21.75V21.7635C13.4965 21.9601 13.4159 22.1474 13.2756 22.2851C13.1353 22.4229 12.9466 22.5 12.75 22.5H12V21.75C12 21.5511 12.079 21.3603 12.2197 21.2197C12.3603 21.079 12.5511 21 12.75 21H13.5V21.75ZM4.5 12C4.50001 11.2371 4.79069 10.5028 5.31289 9.94661C5.8351 9.39041 6.54959 9.05406 7.311 9.006C7.125 9.351 7.0305 9.771 7.1025 10.2555C7.209 10.9785 7.6695 11.73 8.469 12.5295L9.8295 13.89C9.43893 14.3713 8.90887 14.7198 8.31218 14.8876C7.7155 15.0554 7.08148 15.0343 6.4973 14.8271C5.91311 14.6199 5.40743 14.2369 5.04978 13.7307C4.69213 13.2244 4.50007 12.6198 4.5 12ZM3 1.5V2.25C3 2.44891 2.92098 2.63968 2.78033 2.78033C2.63968 2.92098 2.44891 3 2.25 3H1.5V2.25C1.5 2.05109 1.57902 1.86032 1.71967 1.71967C1.86032 1.57902 2.05109 1.5 2.25 1.5H3ZM1.5 21H2.25C2.44891 21 2.63968 21.079 2.78033 21.2197C2.92098 21.3603 3 21.5511 3 21.75V22.5H2.25C2.05109 22.5 1.86032 22.421 1.71967 22.2803C1.57902 22.1397 1.5 21.9489 1.5 21.75V21ZM13.5 3H12.75C12.5511 3 12.3603 2.92098 12.2197 2.78033C12.079 2.63968 12 2.44891 12 2.25V1.5H12.75C12.9489 1.5 13.1397 1.57902 13.2803 1.71967C13.421 1.86032 13.5 2.05109 13.5 2.25V3Z" fill="black"/>
</svg>
