<svg width="157" height="159" viewBox="0 0 157 159" fill="none" xmlns="http://www.w3.org/2000/svg">
<path d="M78.0646 114.506C83.9208 114.506 88.6682 109.701 88.6682 103.775C88.6682 97.8485 83.9208 93.0442 78.0646 93.0442C72.2083 93.0442 67.4609 97.8485 67.4609 103.775C67.4609 109.701 72.2083 114.506 78.0646 114.506Z" fill="#292D32"/>
<path d="M108.314 62.4319H47.815C47.2946 62.4319 46.8393 62.4319 46.3188 62.4319V54.7952C46.3188 35.5061 51.7182 22.6686 78.0647 22.6686C106.233 22.6686 109.811 36.5594 109.811 48.6727C109.811 51.2402 111.827 53.2811 114.364 53.2811C116.901 53.2811 118.918 51.2402 118.918 48.6727C118.918 25.3019 105.192 13.4519 78.0647 13.4519C41.4399 13.4519 37.2114 37.0202 37.2114 54.7952V63.0244C18.9966 65.3286 13.0117 74.6769 13.0117 97.6527V109.898C13.0117 136.889 21.1433 145.119 47.815 145.119H108.314C134.986 145.119 143.118 136.889 143.118 109.898V97.6527C143.118 70.6611 134.986 62.4319 108.314 62.4319ZM78.0647 123.657C67.2008 123.657 58.4187 114.704 58.4187 103.775C58.4187 92.7811 67.2659 83.8936 78.0647 83.8936C88.8635 83.8936 97.7107 92.8469 97.7107 103.775C97.7107 114.769 88.9285 123.657 78.0647 123.657Z" fill="#55676B"/>
</svg>
