<svg width="159" height="158" viewBox="0 0 159 158" fill="none" xmlns="http://www.w3.org/2000/svg">
<path d="M139.255 45.9574C133.642 39.769 124.266 36.6749 110.664 36.6749H109.08V36.4115C109.08 25.3515 109.08 11.6582 84.2529 11.6582H74.2166C49.3897 11.6582 49.3898 25.4174 49.3898 36.4115V36.7407H47.8051C34.1371 36.7407 24.8271 39.8349 19.2146 46.0232C12.6778 53.2649 12.8759 63.0082 13.5361 69.6574L13.6022 70.1182L14.113 75.4655C14.2075 76.4557 14.7416 77.3498 15.5747 77.8933C17.1584 78.9266 19.8061 80.6281 21.3936 81.5074C22.318 82.0999 23.3084 82.6265 24.2988 83.1532C35.5897 89.3415 48.0031 93.489 60.6146 95.5299C61.2089 101.718 63.9161 108.96 78.3764 108.96C92.8367 108.96 95.6759 101.784 96.1381 95.3982C109.608 93.2257 122.616 88.5515 134.369 81.7049C134.765 81.5074 135.029 81.3099 135.359 81.1124C137.978 79.6368 140.694 77.8187 143.17 76.0377C143.919 75.4997 144.397 74.6665 144.499 73.7508L144.603 72.8174L144.933 69.7232C144.999 69.3282 144.999 68.999 145.065 68.5382C145.594 61.889 145.462 52.804 139.255 45.9574ZM86.4319 91.0532C86.4319 98.0315 86.4319 99.0849 78.3103 99.0849C70.1888 99.0849 70.1888 97.834 70.1888 91.119V82.824H86.4319V91.0532ZM58.8319 36.6749V36.4115C58.8319 25.2199 58.8319 21.0724 74.2166 21.0724H84.2529C99.6376 21.0724 99.6376 25.2857 99.6376 36.4115V36.7407H58.8319V36.6749Z" fill="#55676B"/>
<path d="M137.827 90.4098C140.162 89.3021 142.847 91.1533 142.613 93.727L140.244 119.745C138.857 132.912 133.443 146.342 104.39 146.342H54.0765C25.0239 146.342 19.6095 132.912 18.2229 119.811L15.9742 95.149C15.7423 92.6052 18.367 90.7561 20.6954 91.8064C28.2183 95.2 42.1077 101.222 50.6869 103.463C51.7716 103.746 52.6492 104.521 53.1254 105.536C57.1338 114.08 65.8254 118.626 78.3751 118.626C90.8008 118.626 99.6021 113.905 103.624 105.34C104.101 104.325 104.979 103.549 106.065 103.265C115.175 100.875 129.959 94.1428 137.827 90.4098Z" fill="#55676B"/>
</svg>
