<svg width="19" height="18" viewBox="0 0 19 18" fill="none" xmlns="http://www.w3.org/2000/svg">
<path d="M18.5037 8.22873C18.7102 8.07491 18.8633 7.86033 18.9417 7.61507C19.0201 7.36981 19.0197 7.10617 18.9407 6.86113C18.8617 6.61608 18.7079 6.40191 18.501 6.24865C18.2942 6.09538 18.0445 6.01071 17.787 6.00651L12.787 5.81762C12.7625 5.81592 12.7389 5.80715 12.7192 5.79237C12.6995 5.77758 12.6844 5.75741 12.6759 5.73429L10.9482 1.06762C10.8613 0.830197 10.7037 0.625184 10.4965 0.480339C10.2893 0.335494 10.0426 0.257813 9.78982 0.257812C9.53703 0.257812 9.29034 0.335494 9.08315 0.480339C8.87597 0.625184 8.7183 0.830197 8.63149 1.06762L6.90927 5.75095C6.90075 5.77408 6.88573 5.79425 6.86602 5.80903C6.84631 5.82382 6.82274 5.83259 6.79815 5.83429L1.79815 6.02318C1.54071 6.02738 1.29104 6.11205 1.08415 6.26531C0.877259 6.41857 0.723521 6.63275 0.644493 6.87779C0.565465 7.12284 0.56511 7.38648 0.643479 7.63174C0.721847 7.877 0.875009 8.09158 1.08149 8.2454L5.00371 11.3287C5.02334 11.3442 5.03801 11.365 5.04591 11.3887C5.05381 11.4124 5.05459 11.4379 5.04815 11.4621L3.69815 16.2454C3.6282 16.489 3.63497 16.7482 3.71756 16.9878C3.80015 17.2274 3.95455 17.4357 4.15974 17.5844C4.36493 17.7332 4.61096 17.8151 4.86435 17.819C5.11775 17.823 5.36621 17.7488 5.57593 17.6065L9.72038 14.8287C9.74079 14.8146 9.76501 14.8071 9.78982 14.8071C9.81463 14.8071 9.83885 14.8146 9.85927 14.8287L14.0037 17.6065C14.2106 17.7536 14.4582 17.8327 14.712 17.8327C14.9659 17.8327 15.2135 17.7536 15.4204 17.6065C15.6256 17.4592 15.7802 17.2519 15.8627 17.0131C15.9453 16.7743 15.9519 16.5158 15.8815 16.2732L14.5204 11.4732C14.5132 11.4491 14.5136 11.4233 14.5215 11.3995C14.5295 11.3756 14.5446 11.3548 14.5648 11.3398L18.5037 8.22873Z" fill="#008AA7"/>
</svg>
