<svg width="23" height="20" viewBox="0 0 23 20" fill="none" xmlns="http://www.w3.org/2000/svg">
<path d="M12.5837 14.3333H10.417C9.82116 14.3333 9.33366 13.8458 9.33366 13.25H1.76116V17.5833C1.76116 18.775 2.73616 19.75 3.92783 19.75H19.0837C20.2753 19.75 21.2503 18.775 21.2503 17.5833V13.25H13.667C13.667 13.8458 13.1795 14.3333 12.5837 14.3333ZM20.167 4.58333H15.8337C15.8337 2.18917 13.8945 0.25 11.5003 0.25C9.10616 0.25 7.16699 2.18917 7.16699 4.58333H2.83366C1.64199 4.58333 0.666992 5.55833 0.666992 6.75V10C0.666992 11.2025 1.63116 12.1667 2.83366 12.1667H9.33366V11.0833C9.33366 10.4875 9.82116 10 10.417 10H12.5837C13.1795 10 13.667 10.4875 13.667 11.0833V12.1667H20.167C21.3587 12.1667 22.3337 11.1917 22.3337 10V6.75C22.3337 5.55833 21.3587 4.58333 20.167 4.58333ZM9.33366 4.58333C9.33366 3.39167 10.3087 2.41667 11.5003 2.41667C12.692 2.41667 13.667 3.39167 13.667 4.58333H9.32282H9.33366Z" fill="black"/>
</svg>
