<svg width="21" height="21" viewBox="0 0 21 21" fill="none" xmlns="http://www.w3.org/2000/svg">
<path d="M6.04134 15.1439L7.87572 14.6148L18.9205 3.43768C19.0076 3.3484 19.0561 3.22844 19.0555 3.1037C19.055 2.97897 19.0053 2.85947 18.9174 2.77101L18.2559 2.10226C18.2132 2.05834 18.1621 2.02337 18.1057 1.9994C18.0493 1.97543 17.9887 1.96294 17.9274 1.96265C17.8661 1.96236 17.8054 1.97428 17.7488 1.99771C17.6921 2.02114 17.6407 2.05562 17.5976 2.09914L6.58197 13.2471L6.0403 15.1429L6.04134 15.1439ZM19.5653 0.777261L20.2268 1.44705C21.1393 2.37101 21.1476 3.86164 20.2434 4.77622L8.86217 16.295L4.94134 17.4241C4.70196 17.4911 4.44578 17.4604 4.22901 17.3388C4.01224 17.2171 3.85259 17.0144 3.78509 16.7752C3.73486 16.6032 3.73414 16.4205 3.78301 16.2481L4.92363 12.2481L16.2747 0.759553C16.4905 0.542217 16.7475 0.370034 17.0306 0.253045C17.3136 0.136056 17.6172 0.0766032 17.9235 0.0781546C18.2298 0.079706 18.5327 0.14223 18.8146 0.262081C19.0965 0.381931 19.3517 0.556709 19.5653 0.776219V0.777261ZM7.56634 1.9783C8.08301 1.9783 8.50176 2.40226 8.50176 2.92518C8.50258 3.04879 8.47903 3.17135 8.43245 3.28586C8.38588 3.40036 8.31719 3.50456 8.23031 3.5925C8.14344 3.68044 8.04008 3.7504 7.92615 3.79836C7.81222 3.84633 7.68995 3.87137 7.56634 3.87205H3.82467C2.79134 3.87205 1.95384 4.71997 1.95384 5.76476V17.1252C1.95384 18.171 2.79134 19.0189 3.82467 19.0189H15.0497C16.083 19.0189 16.9215 18.171 16.9215 17.1252V13.3387C16.9215 12.8158 17.3403 12.3918 17.857 12.3918C18.3736 12.3918 18.7924 12.8158 18.7924 13.3398V17.1252C18.7924 19.2168 17.1163 20.9127 15.0497 20.9127H3.82467C1.75801 20.9127 0.0830078 19.2168 0.0830078 17.1252V5.76476C0.0830078 3.67414 1.75801 1.9783 3.82467 1.9783H7.56634Z" fill="#111111"/>
</svg>
