<svg width="22" height="22" viewBox="0 0 22 22" fill="none" xmlns="http://www.w3.org/2000/svg">
<path d="M4.22949 16.4141C4.46421 16.4141 4.65813 16.3375 4.81124 16.1844C4.96508 16.0306 5.04199 15.8363 5.04199 15.6016V14.7891H16.9587V15.6016C16.9587 15.8363 17.0352 16.0306 17.1883 16.1844C17.3422 16.3375 17.5364 16.4141 17.7712 16.4141C18.0059 16.4141 18.2002 16.3375 18.354 16.1844C18.5071 16.0306 18.5837 15.8363 18.5837 15.6016V12.2432C18.5837 11.8641 18.5114 11.5073 18.367 11.1729C18.2225 10.8392 18.0239 10.546 17.7712 10.2932V7.7474C17.7712 7.15156 17.5592 6.64131 17.1352 6.21665C16.7106 5.7927 16.2003 5.58073 15.6045 5.58073H12.0837C11.885 5.58073 11.6955 5.60781 11.5149 5.66198C11.3344 5.71615 11.1628 5.7974 11.0003 5.90573C10.8378 5.7974 10.6663 5.71615 10.4857 5.66198C10.3052 5.60781 10.1156 5.58073 9.91699 5.58073H6.39616C5.80033 5.58073 5.29044 5.7927 4.86649 6.21665C4.44183 6.64131 4.22949 7.15156 4.22949 7.7474V10.2932C3.97671 10.546 3.7781 10.8392 3.63366 11.1729C3.48921 11.5073 3.41699 11.8641 3.41699 12.2432V15.6016C3.41699 15.8363 3.49391 16.0306 3.64774 16.1844C3.80085 16.3375 3.99477 16.4141 4.22949 16.4141ZM11.8128 9.3724V7.20573H16.1462V9.3724H11.8128ZM5.85449 9.3724V7.20573H10.1878V9.3724H5.85449ZM5.04199 13.1641V12.0807C5.04199 11.7738 5.14563 11.5163 5.35291 11.3083C5.56091 11.101 5.81838 10.9974 6.12533 10.9974H15.8753C16.1823 10.9974 16.4394 11.101 16.6467 11.3083C16.8547 11.5163 16.9587 11.7738 16.9587 12.0807V13.1641H5.04199ZM2.33366 21.8307C1.73783 21.8307 1.22794 21.6188 0.803992 21.1948C0.379326 20.7701 0.166992 20.2599 0.166992 19.6641V2.33073C0.166992 1.7349 0.379326 1.22465 0.803992 0.799979C1.22794 0.376035 1.73783 0.164062 2.33366 0.164062H19.667C20.2628 0.164062 20.7731 0.376035 21.1977 0.799979C21.6217 1.22465 21.8337 1.7349 21.8337 2.33073V19.6641C21.8337 20.2599 21.6217 20.7701 21.1977 21.1948C20.7731 21.6188 20.2628 21.8307 19.667 21.8307H2.33366ZM2.33366 19.6641H19.667V2.33073H2.33366V19.6641ZM2.33366 19.6641V2.33073V19.6641Z" fill="#111111"/>
</svg>
