<svg width="25" height="26" viewBox="0 0 25 26" fill="none" xmlns="http://www.w3.org/2000/svg">
<path d="M12.2221 17.17L10.5137 18.8645C9.99389 19.3776 9.29282 19.6653 8.56236 19.6653C7.83189 19.6653 7.13083 19.3776 6.61097 18.8645C6.35753 18.6116 6.15646 18.3112 6.01927 17.9806C5.88208 17.6499 5.81146 17.2954 5.81146 16.9374C5.81146 16.5794 5.88208 16.2249 6.01927 15.8942C6.15646 15.5635 6.35753 15.2632 6.61097 15.0103L9.86791 11.7811C10.3878 11.268 11.0888 10.9803 11.8193 10.9803C12.5498 10.9803 13.2508 11.268 13.7707 11.7811C14.1015 12.1098 14.3409 12.5191 14.4651 12.9686C14.5335 12.9123 14.5963 12.8495 14.6526 12.7811L15.5485 11.8922C15.3479 11.4747 15.0778 11.0943 14.7499 10.7672C13.9698 9.99542 12.9167 9.5625 11.8193 9.5625C10.7219 9.5625 9.66883 9.99542 8.88875 10.7672L5.62486 14.0242C5.24041 14.4057 4.93528 14.8595 4.72705 15.3595C4.51882 15.8595 4.41162 16.3958 4.41162 16.9374C4.41162 17.479 4.51882 18.0153 4.72705 18.5153C4.93528 19.0152 5.24041 19.4691 5.62486 19.8506C6.40495 20.6224 7.45803 21.0553 8.55541 21.0553C9.6528 21.0553 10.7059 20.6224 11.486 19.8506L14.0207 17.3367H13.6735C13.1844 17.3453 12.6964 17.2892 12.2221 17.17Z" fill="#111111"/>
<path d="M19.8681 5.71256C19.088 4.94073 18.0349 4.50781 16.9375 4.50781C15.8401 4.50781 14.787 4.94073 14.0069 5.71256L11.4722 8.22645H11.8125C12.3051 8.22633 12.7955 8.29172 13.2708 8.4209L14.9792 6.72645C15.499 6.2133 16.2001 5.92557 16.9306 5.92557C17.661 5.92557 18.3621 6.2133 18.8819 6.72645C19.1354 6.97931 19.3364 7.27968 19.4736 7.61036C19.6108 7.94104 19.6814 8.29553 19.6814 8.65353C19.6814 9.01154 19.6108 9.36603 19.4736 9.69671C19.3364 10.0274 19.1354 10.3278 18.8819 10.5806L15.625 13.8098C15.1051 14.3229 14.4041 14.6107 13.6736 14.6107C12.9431 14.6107 12.2421 14.3229 11.7222 13.8098C11.3914 13.4811 11.152 13.0718 11.0278 12.6223C10.9583 12.6695 10.8932 12.723 10.8333 12.782L9.9375 13.6709C10.1381 14.0884 10.4081 14.4688 10.7361 14.7959C11.5162 15.5677 12.5693 16.0006 13.6667 16.0006C14.7641 16.0006 15.8171 15.5677 16.5972 14.7959L19.8542 11.5667C20.2378 11.1847 20.5422 10.7308 20.7499 10.2308C20.9576 9.73092 21.0645 9.19489 21.0645 8.65353C21.0645 8.11218 20.9576 7.57615 20.7499 7.07623C20.5422 6.5763 20.2378 6.12232 19.8542 5.74034L19.8681 5.71256Z" fill="#111111"/>
</svg>
