<svg width="30" height="24" viewBox="0 0 30 24" fill="none" xmlns="http://www.w3.org/2000/svg">
<path fill-rule="evenodd" clip-rule="evenodd" d="M14.7542 0C9.17232 0 4.30857 3.195 2.90419 7.73438H1.87294C1.59959 7.73467 1.3296 7.79474 1.0819 7.91037C0.834205 8.02599 0.614784 8.19438 0.439014 8.40373C0.263243 8.61309 0.135374 8.85834 0.0643658 9.12231C-0.00664296 9.38629 -0.019074 9.66259 0.0279435 9.93188L0.504193 12.6694C0.617688 13.322 0.957896 13.9136 1.46486 14.34C1.97183 14.7663 2.61302 15.0001 3.27544 15H3.76857C4.33107 15.9619 5.05857 16.8337 5.91544 17.5912L4.54857 22.2356C4.50747 22.3755 4.49953 22.523 4.5254 22.6664C4.55127 22.8098 4.61023 22.9453 4.6976 23.0619C4.78496 23.1786 4.89833 23.2733 5.02869 23.3385C5.15905 23.4037 5.30281 23.4376 5.44857 23.4375H9.19857C9.39201 23.4375 9.58072 23.3777 9.73883 23.2663C9.89694 23.1548 10.0167 22.9972 10.0817 22.815L10.9854 20.2819C12.1761 20.6062 13.4417 20.7825 14.7561 20.7825C16.0817 20.7825 17.3586 20.6044 18.5586 20.2725L19.5767 22.845C19.6459 23.0198 19.766 23.1697 19.9215 23.2754C20.0769 23.3811 20.2606 23.4375 20.4486 23.4375H24.1986C24.3449 23.4373 24.4891 23.403 24.6197 23.3371C24.7503 23.2712 24.8637 23.1757 24.9508 23.0582C25.0379 22.9407 25.0963 22.8044 25.1213 22.6602C25.1463 22.5161 25.1372 22.3681 25.0948 22.2281L23.6679 17.5294C25.7154 15.69 27.0092 13.185 27.0092 10.3912C27.0092 10.1194 26.9961 9.8475 26.9717 9.58313C27.4611 9.37687 27.9242 9.08437 28.2936 8.75062C28.8842 9.32437 29.8217 9.32438 29.8217 7.96875C29.8217 8.38688 28.8842 8.38688 28.9573 7.92C29.0361 7.76949 29.0929 7.60848 29.1261 7.44187C29.1702 7.22471 29.1586 6.99991 29.0923 6.78845C29.0261 6.57698 28.9074 6.38572 28.7473 6.2325C28.5785 6.05847 28.3563 5.94586 28.1161 5.91257C27.8759 5.87927 27.6315 5.92721 27.4217 6.04875C27.2288 6.15536 27.0642 6.30669 26.9419 6.49005C26.8195 6.6734 26.743 6.88343 26.7186 7.1025C26.6736 7.55813 26.8723 8.0025 27.3186 8.32875C27.1637 8.4358 27.0014 8.53166 26.8329 8.61563C25.8317 3.62063 20.6754 0 14.7542 0ZM4.53919 8.87438C5.39232 5.00063 9.53982 1.875 14.7542 1.875C20.6529 1.875 25.1342 5.83875 25.1342 10.3912C25.1342 12.7425 23.9642 14.91 22.0029 16.4813C21.8572 16.5985 21.7498 16.7567 21.6947 16.9354C21.6396 17.1142 21.6392 17.3054 21.6936 17.4844L22.9311 21.5625H21.0842L19.9779 18.7744C19.8889 18.5497 19.7165 18.3681 19.4967 18.2675C19.277 18.1669 19.0269 18.155 18.7986 18.2344C17.5592 18.6656 16.1923 18.9075 14.7542 18.9075C13.3779 18.911 12.0108 18.6835 10.7098 18.2344C10.4763 18.1532 10.2202 18.1676 9.99718 18.2743C9.77419 18.3811 9.6024 18.5716 9.51919 18.8044L8.53482 21.5625H6.69919L7.88607 17.5312C7.93902 17.3516 7.93696 17.1602 7.88015 16.9818C7.82334 16.8033 7.71438 16.646 7.56732 16.53C6.56413 15.7535 5.74251 14.7675 5.15982 13.6406C5.08177 13.4857 4.96228 13.3555 4.81464 13.2645C4.66701 13.1735 4.49701 13.1252 4.32357 13.125H3.27357C3.05307 13.1248 2.83971 13.0468 2.67099 12.9048C2.50227 12.7629 2.38899 12.566 2.35107 12.3488L1.87482 9.61125H3.62419C3.83785 9.61107 4.04503 9.53792 4.21143 9.40391C4.37783 9.26991 4.49347 9.08308 4.53919 8.87438ZM28.2036 7.2675C28.1702 7.41004 28.1076 7.54411 28.0198 7.66125C27.9918 7.64662 27.9642 7.63098 27.9373 7.61437C27.6636 7.44562 27.6429 7.28625 27.6523 7.19625C27.6615 7.12897 27.6861 7.06472 27.7242 7.00847C27.7622 6.95223 27.8127 6.90549 27.8717 6.87187C27.9636 6.82125 28.0217 6.8325 28.0836 6.89437C28.1357 6.93971 28.1744 6.99844 28.1956 7.06421C28.2167 7.12998 28.2195 7.20028 28.2036 7.2675Z" fill="#111111"/>
</svg>
