<svg width="20" height="21" viewBox="0 0 20 21" fill="none" xmlns="http://www.w3.org/2000/svg">
<path d="M9.07232 3.30295C10.2757 3.30185 11.4524 3.6577 12.4536 4.32548C13.4547 4.99325 14.2353 5.94296 14.6965 7.05444C15.1578 8.16593 15.2791 9.38926 15.045 10.5697C14.8109 11.7501 14.232 12.8346 13.3814 13.6859C12.5309 14.5372 11.4469 15.1171 10.2667 15.3523C9.08652 15.5875 7.86308 15.4674 6.75117 15.0071C5.63927 14.5468 4.68885 13.7671 4.02016 12.7666C3.35147 11.7661 2.99455 10.5897 2.99455 9.38628C3.00184 7.77609 3.64434 6.23385 4.78241 5.09474C5.92048 3.95563 7.46214 3.31172 9.07232 3.30295ZM9.07232 2.16406C7.6439 2.16406 6.24756 2.58764 5.05987 3.38123C3.87218 4.17481 2.94649 5.30277 2.39986 6.62246C1.85323 7.94215 1.7102 9.3943 1.98887 10.7953C2.26754 12.1962 2.95539 13.4831 3.96544 14.4932C4.97549 15.5032 6.26236 16.1911 7.66334 16.4697C9.06431 16.7484 10.5165 16.6054 11.8361 16.0587C13.1558 15.5121 14.2838 14.5864 15.0774 13.3987C15.871 12.211 16.2945 10.8147 16.2945 9.38628C16.2945 7.47083 15.5336 5.63383 14.1792 4.2794C12.8248 2.92497 10.9878 2.16406 9.07232 2.16406Z" fill="#008AA7"/>
<path d="M19.4444 18.9972L15.3499 14.875L14.561 15.6583L18.6555 19.7806C18.7069 19.8324 18.768 19.8735 18.8354 19.9017C18.9027 19.9299 18.975 19.9445 19.048 19.9448C19.121 19.945 19.1933 19.9309 19.2608 19.9032C19.3284 19.8755 19.3898 19.8348 19.4416 19.7833C19.4934 19.7319 19.5346 19.6708 19.5627 19.6034C19.5909 19.5361 19.6055 19.4639 19.6058 19.3909C19.606 19.3179 19.5919 19.2455 19.5642 19.178C19.5365 19.1104 19.4958 19.049 19.4444 18.9972Z" fill="#008AA7"/>
</svg>
