<svg width="21" height="21" viewBox="0 0 21 21" fill="none" xmlns="http://www.w3.org/2000/svg">
<g clip-path="url(#clip0_5641_131095)">
<path d="M15.2815 15.5755H13.9482V14.2422H15.2815V15.5755ZM11.2815 15.5755H12.6148V14.2422H11.2815V15.5755ZM17.9482 15.5755H16.6148V14.2422H17.9482V15.5755Z" fill="#008AA7"/>
<path fill-rule="evenodd" clip-rule="evenodd" d="M4.61475 8.90625V5.57292C4.61475 4.96008 4.73545 4.35325 4.96997 3.78706C5.2045 3.22087 5.54824 2.70643 5.98158 2.27309C6.41492 1.83975 6.92937 1.496 7.49556 1.26148C8.06174 1.02696 8.66858 0.90625 9.28141 0.90625C9.89425 0.90625 10.5011 1.02696 11.0673 1.26148C11.6335 1.496 12.1479 1.83975 12.5812 2.27309C13.0146 2.70643 13.3583 3.22087 13.5929 3.78706C13.8274 4.35325 13.9481 4.96008 13.9481 5.57292V8.90625H15.9481C16.4785 8.90625 16.9872 9.11696 17.3623 9.49204C17.7374 9.86711 17.9481 10.3758 17.9481 10.9062V11.6396C18.7016 11.7926 19.3791 12.2014 19.8657 12.7967C20.3523 13.3921 20.6181 14.1373 20.6181 14.9062C20.6181 15.6752 20.3523 16.4204 19.8657 17.0158C19.3791 17.6111 18.7016 18.0199 17.9481 18.1729V18.9062C17.9481 19.4367 17.7374 19.9454 17.3623 20.3205C16.9872 20.6955 16.4785 20.9062 15.9481 20.9062H2.61475C2.08431 20.9062 1.57561 20.6955 1.20053 20.3205C0.82546 19.9454 0.614746 19.4367 0.614746 18.9062L0.614746 10.9062C0.614746 10.3758 0.82546 9.86711 1.20053 9.49204C1.57561 9.11696 2.08431 8.90625 2.61475 8.90625H4.61475ZM5.94808 5.57292C5.94808 4.68886 6.29927 3.84102 6.92439 3.21589C7.54951 2.59077 8.39736 2.23958 9.28141 2.23958C10.1655 2.23958 11.0133 2.59077 11.6384 3.21589C12.2636 3.84102 12.6147 4.68886 12.6147 5.57292V8.90625H5.94808V5.57292ZM11.9481 12.9062C11.4176 12.9062 10.9089 13.117 10.5339 13.492C10.1588 13.8671 9.94808 14.3758 9.94808 14.9062C9.94808 15.4367 10.1588 15.9454 10.5339 16.3205C10.9089 16.6955 11.4176 16.9062 11.9481 16.9062H17.2814C17.8118 16.9062 18.3206 16.6955 18.6956 16.3205C19.0707 15.9454 19.2814 15.4367 19.2814 14.9062C19.2814 14.3758 19.0707 13.8671 18.6956 13.492C18.3206 13.117 17.8118 12.9062 17.2814 12.9062H11.9481Z" fill="#008AA7"/>
</g>
<defs>
<clipPath id="clip0_5641_131095">
<rect width="20" height="20" fill="white" transform="translate(0.614746 0.90625)"/>
</clipPath>
</defs>
</svg>
