<svg width="23" height="25" viewBox="0 0 23 25" fill="none" xmlns="http://www.w3.org/2000/svg">
<path d="M21.7241 4.83082C21.6304 4.72391 21.5158 4.63748 21.3872 4.57692C21.2587 4.51637 21.119 4.483 20.9769 4.4789C18.7702 4.4212 15.9779 2.06159 14.1317 1.13563C12.9914 0.565434 12.2385 0.189473 11.6731 0.0904341C11.5583 0.0737058 11.4416 0.0740298 11.3269 0.0913956C10.7616 0.190434 10.0087 0.566396 8.86925 1.13659C7.02309 2.06159 4.23079 4.4212 2.02406 4.4789C1.88191 4.48321 1.74217 4.51667 1.61349 4.57721C1.48481 4.63774 1.36993 4.72406 1.27598 4.83082C1.08124 5.05114 0.980767 5.3391 0.996171 5.63274C1.47021 15.2702 4.92694 21.2347 10.9923 24.701C11.15 24.7904 11.325 24.8366 11.4991 24.8366C11.6731 24.8366 11.8481 24.7904 12.0067 24.701C18.0721 21.2347 21.5279 15.2702 22.0029 5.63274C22.0192 5.33914 21.919 5.05097 21.7241 4.83082ZM16.901 8.6212L11.7827 16.1741C11.5991 16.4452 11.3106 16.625 11.025 16.625C10.7385 16.625 10.4202 16.4683 10.2192 16.2674L6.61156 12.6587C6.49377 12.5405 6.42764 12.3804 6.42764 12.2135C6.42764 12.0466 6.49377 11.8865 6.61156 11.7683L7.5029 10.875C7.62137 10.7577 7.78136 10.6919 7.94809 10.6919C8.11482 10.6919 8.27482 10.7577 8.39329 10.875L10.7394 13.2212L14.8154 7.20486C14.9097 7.06718 15.0547 6.97241 15.2186 6.94125C15.3825 6.91008 15.5522 6.94505 15.6904 7.03851L16.7337 7.7462C16.8715 7.84036 16.9665 7.98524 16.9978 8.14919C17.0292 8.31314 16.9943 8.48284 16.901 8.6212Z" fill="#111111"/>
</svg>
