<svg width="26" height="18" viewBox="0 0 26 18" fill="none" xmlns="http://www.w3.org/2000/svg">
<path d="M8 9C10.418 9 12.375 7.04297 12.375 4.625C12.375 2.20703 10.418 0.25 8 0.25C5.58203 0.25 3.625 2.20703 3.625 4.625C3.625 7.04297 5.58203 9 8 9ZM11 10.25H10.6758C9.86328 10.6406 8.96094 10.875 8 10.875C7.03906 10.875 6.14062 10.6406 5.32422 10.25H5C2.51562 10.25 0.5 12.2656 0.5 14.75V15.875C0.5 16.9102 1.33984 17.75 2.375 17.75H13.625C14.6602 17.75 15.5 16.9102 15.5 15.875V14.75C15.5 12.2656 13.4844 10.25 11 10.25ZM19.25 9C21.3203 9 23 7.32031 23 5.25C23 3.17969 21.3203 1.5 19.25 1.5C17.1797 1.5 15.5 3.17969 15.5 5.25C15.5 7.32031 17.1797 9 19.25 9ZM21.125 10.25H20.9766C20.4336 10.4375 19.8594 10.5625 19.25 10.5625C18.6406 10.5625 18.0664 10.4375 17.5234 10.25H17.375C16.5781 10.25 15.8438 10.4805 15.1992 10.8516C16.1523 11.8789 16.75 13.2422 16.75 14.75V16.25C16.75 16.3359 16.7305 16.418 16.7266 16.5H23.625C24.6602 16.5 25.5 15.6602 25.5 14.625C25.5 12.207 23.543 10.25 21.125 10.25Z" fill="black"/>
</svg>
