<svg width="19" height="26" viewBox="0 0 19 26" fill="none" xmlns="http://www.w3.org/2000/svg">
<path d="M9.24997 6.6875C9.27281 6.64064 9.30836 6.60115 9.35257 6.57353C9.39677 6.5459 9.44785 6.53125 9.49997 6.53125C9.5521 6.53125 9.60318 6.5459 9.64738 6.57353C9.69158 6.60115 9.72713 6.64064 9.74997 6.6875L10.7406 8.69531C10.7604 8.73593 10.7899 8.7711 10.8263 8.79778C10.8628 8.82446 10.9053 8.84185 10.95 8.84844L13.1687 9.17031C13.3953 9.20313 13.4875 9.48281 13.3218 9.64375L11.7187 11.2078C11.6864 11.2394 11.6622 11.2784 11.6483 11.3214C11.6344 11.3644 11.6313 11.4102 11.639 11.4547L12.0172 13.6641C12.0257 13.7151 12.0198 13.7675 12.0001 13.8153C11.9805 13.8631 11.9479 13.9046 11.906 13.9349C11.8642 13.9653 11.8146 13.9834 11.7631 13.9871C11.7115 13.9909 11.6599 13.9802 11.614 13.9562L9.62966 12.9125C9.58988 12.8917 9.54565 12.8808 9.50075 12.8808C9.45586 12.8808 9.41163 12.8917 9.37185 12.9125L7.38747 13.9562C7.34168 13.9798 7.29026 13.9901 7.23893 13.9861C7.18761 13.9822 7.13839 13.964 7.09677 13.9337C7.05514 13.9035 7.02274 13.8622 7.00317 13.8146C6.98359 13.767 6.97762 13.7149 6.98591 13.6641L7.36404 11.4547C7.37201 11.4103 7.36907 11.3646 7.35546 11.3216C7.34185 11.2786 7.31798 11.2395 7.28591 11.2078L5.67654 9.64375C5.63967 9.60756 5.61362 9.56181 5.60129 9.51164C5.58897 9.46147 5.59086 9.40886 5.60676 9.3597C5.62266 9.31055 5.65193 9.26679 5.6913 9.23334C5.73067 9.19989 5.77858 9.17806 5.82966 9.17031L8.04841 8.84844C8.09313 8.84185 8.13556 8.82446 8.17204 8.79778C8.20852 8.7711 8.23795 8.73593 8.25779 8.69531L9.24997 6.6875Z" fill="#111111"/>
<path d="M0.125 3.40625C0.125 2.57745 0.45424 1.78259 1.04029 1.19654C1.62634 0.61049 2.4212 0.28125 3.25 0.28125L15.75 0.28125C16.5788 0.28125 17.3737 0.61049 17.9597 1.19654C18.5458 1.78259 18.875 2.57745 18.875 3.40625V24.5C18.8749 24.6413 18.8365 24.78 18.7639 24.9012C18.6912 25.0224 18.5871 25.1216 18.4625 25.1883C18.3379 25.255 18.1976 25.2867 18.0564 25.28C17.9153 25.2732 17.7786 25.2283 17.6609 25.15L9.5 20.7516L1.33906 25.15C1.22141 25.2283 1.08473 25.2732 0.94358 25.28C0.802426 25.2867 0.662083 25.255 0.537499 25.1883C0.412915 25.1216 0.308756 25.0224 0.236116 24.9012C0.163475 24.78 0.125073 24.6413 0.125 24.5V3.40625ZM3.25 1.84375C2.8356 1.84375 2.43817 2.00837 2.14515 2.3014C1.85212 2.59442 1.6875 2.99185 1.6875 3.40625V23.0406L9.06719 19.1625C9.19541 19.0772 9.34599 19.0317 9.5 19.0317C9.65401 19.0317 9.80459 19.0772 9.93281 19.1625L17.3125 23.0406V3.40625C17.3125 2.99185 17.1479 2.59442 16.8549 2.3014C16.5618 2.00837 16.1644 1.84375 15.75 1.84375H3.25Z" fill="#111111"/>
</svg>
