<svg width="18" height="14" viewBox="0 0 18 14" fill="none" xmlns="http://www.w3.org/2000/svg">
<path fill-rule="evenodd" clip-rule="evenodd" d="M8.99964 5.03906C7.89131 5.03906 6.99048 5.94073 6.99048 7.04906C6.99048 8.15656 7.89131 9.0574 8.99964 9.0574C10.108 9.0574 11.0096 8.15656 11.0096 7.04906C11.0096 5.94073 10.108 5.03906 8.99964 5.03906ZM8.99964 10.3074C7.20214 10.3074 5.74048 8.84573 5.74048 7.04906C5.74048 5.25156 7.20214 3.78906 8.99964 3.78906C10.7971 3.78906 12.2596 5.25156 12.2596 7.04906C12.2596 8.84573 10.7971 10.3074 8.99964 10.3074Z" fill="#008AA7"/>
<mask id="mask0_5762_8940" style="mask-type:alpha" maskUnits="userSpaceOnUse" x="0" y="0" width="18" height="14">
<path fill-rule="evenodd" clip-rule="evenodd" d="M0.666748 0.335938H17.3333V13.7568H0.666748V0.335938Z" fill="white"/>
</mask>
<g mask="url(#mask0_5762_8940)">
<path fill-rule="evenodd" clip-rule="evenodd" d="M1.97487 7.04656C3.52487 10.4707 6.1357 12.5066 8.99987 12.5074C11.864 12.5066 14.4749 10.4707 16.0249 7.04656C14.4749 3.62322 11.864 1.58739 8.99987 1.58656C6.13654 1.58739 3.52487 3.62322 1.97487 7.04656ZM9.00154 13.7574H8.99821H8.99737C5.55071 13.7549 2.45571 11.3391 0.717373 7.29323C0.649873 7.13573 0.649873 6.9574 0.717373 6.7999C2.45571 2.7549 5.55154 0.339063 8.99737 0.336562C8.99904 0.335729 8.99904 0.335729 8.99987 0.336562C9.00154 0.335729 9.00154 0.335729 9.00237 0.336562C12.449 0.339063 15.544 2.7549 17.2824 6.7999C17.3507 6.9574 17.3507 7.13573 17.2824 7.29323C15.5449 11.3391 12.449 13.7549 9.00237 13.7574H9.00154Z" fill="#008AA7"/>
</g>
</svg>
