<svg width="20" height="20" viewBox="0 0 20 20" fill="none" xmlns="http://www.w3.org/2000/svg">
<path d="M10.0153 0.523438C4.70468 0.523438 0.399902 4.82822 0.399902 10.1388C0.399902 15.4494 4.70468 19.7542 10.0153 19.7542C15.3259 19.7542 19.6307 15.4494 19.6307 10.1388C19.6307 4.82887 15.3259 0.524094 10.0153 0.523438ZM14.425 14.3911C14.2525 14.6746 13.8831 14.7631 13.601 14.5906C11.3433 13.2108 8.50097 12.8991 5.15412 13.6635C4.83131 13.7376 4.50982 13.5355 4.43633 13.2127C4.36219 12.8899 4.56362 12.5684 4.88708 12.4949C8.54952 11.6584 11.6917 12.0186 14.2262 13.567C14.5084 13.7409 14.5983 14.109 14.425 14.3911ZM15.6015 11.7739C15.3843 12.1269 14.9224 12.2371 14.57 12.0206C11.9863 10.4321 8.04563 9.97217 4.98878 10.8999C4.59249 11.02 4.17388 10.7963 4.05316 10.4006C3.93374 10.0043 4.15748 9.58637 4.55312 9.46565C8.04497 8.40602 12.3865 8.9191 15.3541 10.7431C15.7071 10.9603 15.8186 11.4215 15.6015 11.7739ZM15.7025 9.04704C12.603 7.20664 7.49055 7.03736 4.53147 7.93493C4.05644 8.07927 3.55385 7.81092 3.41016 7.33589C3.26647 6.86087 3.53417 6.35828 4.00985 6.21393C7.40657 5.18318 13.0524 5.38198 16.6204 7.49992C17.0475 7.75384 17.188 8.30563 16.9347 8.73211C16.6821 9.1599 16.129 9.30096 15.7025 9.04704Z" fill="#15CF74"/>
</svg>
