<svg width="15" height="15" viewBox="0 0 15 15" fill="none" xmlns="http://www.w3.org/2000/svg">
<path d="M3.5876 10C3.65635 9.69375 3.53135 9.25625 3.3126 9.0375L1.79384 7.51875C1.31884 7.04375 1.13134 6.5375 1.26884 6.1C1.41259 5.6625 1.85635 5.3625 2.51885 5.25L4.46885 4.925C4.7501 4.875 5.09385 4.625 5.2251 4.36875L6.3001 2.2125C6.6126 1.59375 7.0376 1.25 7.5001 1.25C7.9626 1.25 8.3876 1.59375 8.7001 2.2125L9.7751 4.36875C9.85635 4.53125 10.0251 4.6875 10.2063 4.79375L3.4751 11.525C3.3876 11.6125 3.2376 11.5312 3.2626 11.4062L3.5876 10Z" fill="#FFDA44"/>
<path d="M11.6875 9.0367C11.4625 9.2617 11.3375 9.69295 11.4125 9.9992L11.8438 11.8805C12.025 12.6617 11.9125 13.2492 11.525 13.5305C11.3688 13.643 11.1813 13.6992 10.9625 13.6992C10.6438 13.6992 10.2688 13.5805 9.85625 13.3367L8.025 12.2492C7.7375 12.0805 7.2625 12.0805 6.975 12.2492L5.14375 13.3367C4.45 13.743 3.85625 13.8117 3.475 13.5305C3.33125 13.4242 3.225 13.2805 3.15625 13.093L10.7562 5.49295C11.0437 5.20545 11.45 5.0742 11.8438 5.14295L12.475 5.2492C13.1375 5.3617 13.5813 5.6617 13.725 6.0992C13.8625 6.5367 13.675 7.04295 13.2 7.51795L11.6875 9.0367Z" fill="#FFDA44"/>
</svg>
