<svg width="24" height="16" viewBox="0 0 24 16" fill="none" xmlns="http://www.w3.org/2000/svg">
<path d="M12 0.320312L11.7653 0.3975L2.39029 3.80025L0.258789 4.56156L1.50004 4.99219V12.1016C1.05229 12.3835 0.750039 12.8978 0.750039 13.4991C0.750039 13.93 0.908074 14.3434 1.18938 14.6481C1.47068 14.9529 1.85221 15.1241 2.25004 15.1241C2.64786 15.1241 3.0294 14.9529 3.3107 14.6481C3.592 14.3434 3.75004 13.93 3.75004 13.4991C3.75004 12.8978 3.44779 12.3835 3.00004 12.1016V5.55281L4.50004 6.085V10.2491C4.50004 10.9153 4.87504 11.4678 5.32054 11.8497C5.76604 12.2291 6.31954 12.4972 6.98404 12.7377C8.31454 13.2171 10.068 13.4991 12 13.4991C13.932 13.4991 15.6855 13.2179 17.016 12.7369C17.6805 12.4972 18.234 12.2291 18.6795 11.8489C19.125 11.4678 19.5 10.9153 19.5 10.2491V6.085L21.6098 5.32288L23.7413 4.56156L21.609 3.79944L12.234 0.3975L12 0.320312ZM12 2.0225L19.0313 4.56156L12 7.10062L4.96879 4.56156L12 2.0225ZM6.00004 6.644L11.766 8.72562L12 8.802L12.2348 8.72481L18 6.64319V10.2491C18 10.2572 18.003 10.3514 17.7653 10.5537C17.5283 10.7569 17.103 11.0128 16.5465 11.2143C15.435 11.6149 13.7963 11.8741 12 11.8741C10.2038 11.8741 8.56504 11.6157 7.45279 11.2135C6.89779 11.0128 6.47179 10.7561 6.23479 10.5537C5.99629 10.3506 6.00004 10.2572 6.00004 10.2491V6.64319V6.644Z" fill="#111111"/>
</svg>
