<svg width="20" height="17" viewBox="0 0 20 17" fill="none" xmlns="http://www.w3.org/2000/svg">
<path d="M8 8C6.9 8 5.95833 7.60833 5.175 6.825C4.39167 6.04167 4 5.1 4 4C4 2.9 4.39167 1.95833 5.175 1.175C5.95833 0.391667 6.9 0 8 0C9.1 0 10.0417 0.391667 10.825 1.175C11.6083 1.95833 12 2.9 12 4C12 5.1 11.6083 6.04167 10.825 6.825C10.0417 7.60833 9.1 8 8 8ZM1 16C0.716667 16 0.479333 15.904 0.288 15.712C0.0960001 15.5207 0 15.2833 0 15V13.2C0 12.65 0.141667 12.1333 0.425 11.65C0.708333 11.1667 1.1 10.8 1.6 10.55C2.45 10.1167 3.40833 9.75 4.475 9.45C5.54167 9.15 6.71667 9 8 9H8.35C8.45 9 8.55 9.01667 8.65 9.05C8.51667 9.35 8.404 9.66267 8.312 9.988C8.22067 10.3127 8.15 10.65 8.1 11H8C6.81667 11 5.754 11.15 4.812 11.45C3.87067 11.75 3.1 12.05 2.5 12.35C2.35 12.4333 2.22933 12.55 2.138 12.7C2.046 12.85 2 13.0167 2 13.2V14H8.3C8.4 14.35 8.53333 14.696 8.7 15.038C8.86667 15.3793 9.05 15.7 9.25 16H1ZM8 6C8.55 6 9.021 5.804 9.413 5.412C9.80433 5.02067 10 4.55 10 4C10 3.45 9.80433 2.97933 9.413 2.588C9.021 2.196 8.55 2 8 2C7.45 2 6.97933 2.196 6.588 2.588C6.196 2.97933 6 3.45 6 4C6 4.55 6.196 5.02067 6.588 5.412C6.97933 5.804 7.45 6 8 6ZM15 14C15.55 14 16.021 13.8043 16.413 13.413C16.8043 13.021 17 12.55 17 12C17 11.45 16.8043 10.979 16.413 10.587C16.021 10.1957 15.55 10 15 10C14.45 10 13.9793 10.1957 13.588 10.587C13.196 10.979 13 11.45 13 12C13 12.55 13.196 13.021 13.588 13.413C13.9793 13.8043 14.45 14 15 14ZM13.7 15.5C13.5 15.4167 13.3123 15.3293 13.137 15.238C12.9623 15.146 12.7833 15.0333 12.6 14.9L11.525 15.225C11.4083 15.2583 11.3 15.254 11.2 15.212C11.1 15.1707 11.0167 15.1 10.95 15L10.35 14C10.2833 13.9 10.2627 13.7917 10.288 13.675C10.3127 13.5583 10.375 13.4583 10.475 13.375L11.3 12.65C11.2667 12.4167 11.25 12.2 11.25 12C11.25 11.8 11.2667 11.5833 11.3 11.35L10.475 10.625C10.375 10.5417 10.3127 10.4417 10.288 10.325C10.2627 10.2083 10.2833 10.1 10.35 10L10.95 9C11.0167 8.9 11.1 8.829 11.2 8.787C11.3 8.74567 11.4083 8.74167 11.525 8.775L12.6 9.1C12.7833 8.96667 12.9623 8.854 13.137 8.762C13.3123 8.67067 13.5 8.58333 13.7 8.5L13.925 7.4C13.9583 7.28333 14.0167 7.18767 14.1 7.113C14.1833 7.03767 14.2833 7 14.4 7H15.6C15.7167 7 15.8167 7.03767 15.9 7.113C15.9833 7.18767 16.0417 7.28333 16.075 7.4L16.3 8.5C16.5 8.58333 16.6877 8.675 16.863 8.775C17.0377 8.875 17.2167 9 17.4 9.15L18.45 8.775C18.5667 8.725 18.6793 8.725 18.788 8.775C18.896 8.825 18.9833 8.9 19.05 9L19.65 10.05C19.7167 10.15 19.7417 10.2583 19.725 10.375C19.7083 10.4917 19.65 10.5917 19.55 10.675L18.7 11.4C18.7333 11.6 18.75 11.8083 18.75 12.025C18.75 12.2417 18.7333 12.45 18.7 12.65L19.525 13.375C19.625 13.4583 19.6873 13.5583 19.712 13.675C19.7373 13.7917 19.7167 13.9 19.65 14L19.05 15C18.9833 15.1 18.9 15.1707 18.8 15.212C18.7 15.254 18.5917 15.2583 18.475 15.225L17.4 14.9C17.2167 15.0333 17.0377 15.146 16.863 15.238C16.6877 15.3293 16.5 15.4167 16.3 15.5L16.075 16.6C16.0417 16.7167 15.9833 16.8123 15.9 16.887C15.8167 16.9623 15.7167 17 15.6 17H14.4C14.2833 17 14.1833 16.9623 14.1 16.887C14.0167 16.8123 13.9583 16.7167 13.925 16.6L13.7 15.5Z" fill="#111111"/>
</svg>
