<svg width="20" height="22" viewBox="0 0 20 22" fill="none" xmlns="http://www.w3.org/2000/svg">
<path fill-rule="evenodd" clip-rule="evenodd" d="M13.3704 15.9609H5.84961C5.41836 15.9609 5.06836 15.6109 5.06836 15.1797C5.06836 14.7484 5.41836 14.3984 5.84961 14.3984H13.3704C13.8017 14.3984 14.1517 14.7484 14.1517 15.1797C14.1517 15.6109 13.8017 15.9609 13.3704 15.9609Z" fill="black"/>
<path fill-rule="evenodd" clip-rule="evenodd" d="M13.3704 11.6016H5.84961C5.41836 11.6016 5.06836 11.2516 5.06836 10.8203C5.06836 10.3891 5.41836 10.0391 5.84961 10.0391H13.3704C13.8017 10.0391 14.1517 10.3891 14.1517 10.8203C14.1517 11.2516 13.8017 11.6016 13.3704 11.6016Z" fill="black"/>
<path fill-rule="evenodd" clip-rule="evenodd" d="M8.7194 7.25H5.84961C5.41836 7.25 5.06836 6.9 5.06836 6.46875C5.06836 6.0375 5.41836 5.6875 5.84961 5.6875H8.7194C9.15065 5.6875 9.50065 6.0375 9.50065 6.46875C9.50065 6.9 9.15065 7.25 8.7194 7.25Z" fill="black"/>
<mask id="mask0_6179_34793" style="mask-type:alpha" maskUnits="userSpaceOnUse" x="0" y="0" width="20" height="22">
<path fill-rule="evenodd" clip-rule="evenodd" d="M0.125 0.367188H19.0466V21.1066H0.125V0.367188Z" fill="white"/>
</mask>
<g mask="url(#mask0_6179_34793)">
<path fill-rule="evenodd" clip-rule="evenodd" d="M13.5714 1.92969L5.56201 1.93385C3.13701 1.94844 1.68701 3.44844 1.68701 5.9474V15.5266C1.68701 18.0422 3.15055 19.5443 5.59951 19.5443L13.6089 19.5411C16.0339 19.5266 17.4839 18.0245 17.4839 15.5266V5.9474C17.4839 3.43177 16.0214 1.92969 13.5714 1.92969ZM5.60055 21.1068C2.32555 21.1068 0.124512 18.8641 0.124512 15.5266V5.9474C0.124512 2.57969 2.2568 0.391146 5.5568 0.371354L13.5703 0.367188H13.5714C16.8464 0.367188 19.0464 2.6099 19.0464 5.9474V15.5266C19.0464 18.8932 16.9141 21.0828 13.6141 21.1036L5.60055 21.1068Z" fill="black"/>
</g>
</svg>
