<svg width="24" height="24" viewBox="0 0 24 24" fill="none" xmlns="http://www.w3.org/2000/svg">
<path d="M8.25 19.5V22.5V19.5ZM3.75 1.5H12.75C13.1478 1.5 13.5294 1.65804 13.8107 1.93934C14.092 2.22064 14.25 2.60218 14.25 3V22.3125C14.25 22.3622 14.2302 22.4099 14.1951 22.4451C14.1599 22.4802 14.1122 22.5 14.0625 22.5H2.25V3C2.25 2.60218 2.40804 2.22064 2.68934 1.93934C2.97064 1.65804 3.35218 1.5 3.75 1.5V1.5ZM15 9H20.25C20.6478 9 21.0294 9.15804 21.3107 9.43934C21.592 9.72064 21.75 10.1022 21.75 10.5V22.5H14.25V9.75C14.25 9.55109 14.329 9.36032 14.4697 9.21967C14.6103 9.07902 14.8011 9 15 9Z" stroke="#111111" stroke-width="1.5" stroke-linecap="round" stroke-linejoin="round"/>
<path d="M4.59726 20.2437C4.44193 20.264 4.28414 20.2351 4.14603 20.1612C4.00792 20.0873 3.89643 19.972 3.8272 19.8314C3.75798 19.6909 3.73449 19.5322 3.76004 19.3777C3.7856 19.2231 3.8589 19.0804 3.96967 18.9697C4.08044 18.8589 4.22312 18.7856 4.37767 18.76C4.53223 18.7345 4.6909 18.758 4.83143 18.8272C4.97196 18.8964 5.08728 19.0079 5.16122 19.146C5.23515 19.2841 5.26398 19.4419 5.24367 19.5973C5.22223 19.7612 5.14723 19.9134 5.03033 20.0303C4.91343 20.1472 4.76119 20.2222 4.59726 20.2437ZM4.59726 16.4937C4.44193 16.514 4.28414 16.4851 4.14603 16.4112C4.00792 16.3373 3.89643 16.222 3.8272 16.0814C3.75798 15.9409 3.73449 15.7822 3.76004 15.6277C3.7856 15.4731 3.8589 15.3304 3.96967 15.2197C4.08044 15.1089 4.22312 15.0356 4.37767 15.01C4.53223 14.9845 4.6909 15.008 4.83143 15.0772C4.97196 15.1464 5.08728 15.2579 5.16122 15.396C5.23515 15.5341 5.26398 15.6919 5.24367 15.8473C5.22223 16.0112 5.14723 16.1634 5.03033 16.2803C4.91343 16.3972 4.76119 16.4722 4.59726 16.4937ZM4.59726 12.7437C4.44193 12.764 4.28414 12.7351 4.14603 12.6612C4.00792 12.5873 3.89643 12.472 3.8272 12.3314C3.75798 12.1909 3.73449 12.0322 3.76004 11.8777C3.7856 11.7231 3.8589 11.5804 3.96967 11.4697C4.08044 11.3589 4.22312 11.2856 4.37767 11.26C4.53223 11.2345 4.6909 11.258 4.83143 11.3272C4.97196 11.3964 5.08728 11.5079 5.16122 11.646C5.23515 11.7841 5.26398 11.9419 5.24367 12.0973C5.22223 12.2612 5.14723 12.4134 5.03033 12.5303C4.91343 12.6472 4.76119 12.7222 4.59726 12.7437ZM4.59726 8.99367C4.44193 9.01398 4.28414 8.98515 4.14603 8.91122C4.00792 8.83728 3.89643 8.72196 3.8272 8.58143C3.75798 8.4409 3.73449 8.28223 3.76004 8.12767C3.7856 7.97312 3.8589 7.83044 3.96967 7.71967C4.08044 7.6089 4.22312 7.5356 4.37767 7.51004C4.53223 7.48449 4.6909 7.50798 4.83143 7.57721C4.97196 7.64643 5.08728 7.75792 5.16122 7.89603C5.23515 8.03414 5.26398 8.19193 5.24367 8.34726C5.22223 8.51119 5.14723 8.66343 5.03033 8.78033C4.91343 8.89723 4.76119 8.97223 4.59726 8.99367ZM4.59726 5.24367C4.44193 5.26398 4.28414 5.23515 4.14603 5.16122C4.00792 5.08728 3.89643 4.97196 3.8272 4.83143C3.75798 4.6909 3.73449 4.53223 3.76004 4.37767C3.7856 4.22312 3.8589 4.08044 3.96967 3.96967C4.08044 3.8589 4.22312 3.7856 4.37767 3.76004C4.53223 3.73449 4.6909 3.75798 4.83143 3.8272C4.97196 3.89643 5.08728 4.00792 5.16122 4.14603C5.23515 4.28414 5.26398 4.44193 5.24367 4.59726C5.22223 4.76119 5.14723 4.91343 5.03033 5.03033C4.91343 5.14723 4.76119 5.22223 4.59726 5.24367ZM8.34726 16.4937C8.19193 16.514 8.03414 16.4851 7.89603 16.4112C7.75792 16.3373 7.64643 16.222 7.57721 16.0814C7.50798 15.9409 7.48449 15.7822 7.51005 15.6277C7.5356 15.4731 7.6089 15.3304 7.71967 15.2197C7.83044 15.1089 7.97312 15.0356 8.12767 15.01C8.28223 14.9845 8.4409 15.008 8.58143 15.0772C8.72196 15.1464 8.83728 15.2579 8.91122 15.396C8.98515 15.5341 9.01398 15.6919 8.99367 15.8473C8.97223 16.0112 8.89723 16.1634 8.78033 16.2803C8.66343 16.3972 8.51119 16.4722 8.34726 16.4937ZM8.34726 12.7437C8.19193 12.764 8.03414 12.7351 7.89603 12.6612C7.75792 12.5873 7.64643 12.472 7.57721 12.3314C7.50798 12.1909 7.48449 12.0322 7.51005 11.8777C7.5356 11.7231 7.6089 11.5804 7.71967 11.4697C7.83044 11.3589 7.97312 11.2856 8.12767 11.26C8.28223 11.2345 8.4409 11.258 8.58143 11.3272C8.72196 11.3964 8.83728 11.5079 8.91122 11.646C8.98515 11.7841 9.01398 11.9419 8.99367 12.0973C8.97223 12.2612 8.89723 12.4134 8.78033 12.5303C8.66343 12.6472 8.51119 12.7222 8.34726 12.7437ZM8.34726 8.99367C8.19193 9.01398 8.03414 8.98515 7.89603 8.91122C7.75792 8.83728 7.64643 8.72196 7.57721 8.58143C7.50798 8.4409 7.48449 8.28223 7.51005 8.12767C7.5356 7.97312 7.6089 7.83044 7.71967 7.71967C7.83044 7.6089 7.97312 7.5356 8.12767 7.51004C8.28223 7.48449 8.4409 7.50798 8.58143 7.57721C8.72196 7.64643 8.83728 7.75792 8.91122 7.89603C8.98515 8.03414 9.01398 8.19193 8.99367 8.34726C8.97223 8.51119 8.89723 8.66343 8.78033 8.78033C8.66343 8.89723 8.51119 8.97223 8.34726 8.99367ZM8.34726 5.24367C8.19193 5.26398 8.03414 5.23515 7.89603 5.16122C7.75792 5.08728 7.64643 4.97196 7.57721 4.83143C7.50798 4.6909 7.48449 4.53223 7.51005 4.37767C7.5356 4.22312 7.6089 4.08044 7.71967 3.96967C7.83044 3.8589 7.97312 3.7856 8.12767 3.76004C8.28223 3.73449 8.4409 3.75798 8.58143 3.8272C8.72196 3.89643 8.83728 4.00792 8.91122 4.14603C8.98515 4.28414 9.01398 4.44193 8.99367 4.59726C8.97223 4.76119 8.89723 4.91343 8.78033 5.03033C8.66343 5.14723 8.51119 5.22223 8.34726 5.24367ZM12.0973 20.2437C11.9419 20.264 11.7841 20.2351 11.646 20.1612C11.5079 20.0873 11.3964 19.972 11.3272 19.8314C11.258 19.6909 11.2345 19.5322 11.26 19.3777C11.2856 19.2231 11.3589 19.0804 11.4697 18.9697C11.5804 18.8589 11.7231 18.7856 11.8777 18.76C12.0322 18.7345 12.1909 18.758 12.3314 18.8272C12.472 18.8964 12.5873 19.0079 12.6612 19.146C12.7352 19.2841 12.764 19.4419 12.7437 19.5973C12.7222 19.7612 12.6472 19.9134 12.5303 20.0303C12.4134 20.1472 12.2612 20.2222 12.0973 20.2437ZM12.0973 16.4937C11.9419 16.514 11.7841 16.4851 11.646 16.4112C11.5079 16.3373 11.3964 16.222 11.3272 16.0814C11.258 15.9409 11.2345 15.7822 11.26 15.6277C11.2856 15.4731 11.3589 15.3304 11.4697 15.2197C11.5804 15.1089 11.7231 15.0356 11.8777 15.01C12.0322 14.9845 12.1909 15.008 12.3314 15.0772C12.472 15.1464 12.5873 15.2579 12.6612 15.396C12.7352 15.5341 12.764 15.6919 12.7437 15.8473C12.7222 16.0112 12.6472 16.1634 12.5303 16.2803C12.4134 16.3972 12.2612 16.4722 12.0973 16.4937ZM12.0973 12.7437C11.9419 12.764 11.7841 12.7351 11.646 12.6612C11.5079 12.5873 11.3964 12.472 11.3272 12.3314C11.258 12.1909 11.2345 12.0322 11.26 11.8777C11.2856 11.7231 11.3589 11.5804 11.4697 11.4697C11.5804 11.3589 11.7231 11.2856 11.8777 11.26C12.0322 11.2345 12.1909 11.258 12.3314 11.3272C12.472 11.3964 12.5873 11.5079 12.6612 11.646C12.7352 11.7841 12.764 11.9419 12.7437 12.0973C12.7222 12.2612 12.6472 12.4134 12.5303 12.5303C12.4134 12.6472 12.2612 12.7222 12.0973 12.7437Z" fill="#111111"/>
<path d="M12.5318 8.78398C12.8237 8.492 12.8225 8.01742 12.5291 7.72398C12.2357 7.43054 11.7611 7.42935 11.4691 7.72133C11.1771 8.01331 11.1783 8.48788 11.4718 8.78132C11.7652 9.07477 12.2398 9.07595 12.5318 8.78398Z" fill="#111111"/>
<path d="M12.0973 5.24367C11.9419 5.26398 11.7841 5.23515 11.646 5.16122C11.5079 5.08728 11.3964 4.97196 11.3272 4.83143C11.258 4.6909 11.2345 4.53223 11.26 4.37767C11.2856 4.22312 11.3589 4.08044 11.4697 3.96967C11.5804 3.8589 11.7231 3.7856 11.8777 3.76004C12.0322 3.73449 12.1909 3.75798 12.3314 3.8272C12.472 3.89643 12.5873 4.00792 12.6612 4.14603C12.7351 4.28414 12.764 4.44193 12.7437 4.59726C12.7222 4.76119 12.6472 4.91343 12.5303 5.03033C12.4134 5.14723 12.2612 5.22223 12.0973 5.24367ZM18.7498 18.7498C18.6014 18.7498 18.4564 18.7937 18.3331 18.8762C18.2097 18.9586 18.1136 19.0757 18.0569 19.2127C18.0001 19.3498 17.9852 19.5006 18.0142 19.6461C18.0431 19.7916 18.1145 19.9252 18.2194 20.0301C18.3243 20.135 18.458 20.2064 18.6034 20.2353C18.7489 20.2643 18.8997 20.2494 19.0368 20.1927C19.1738 20.1359 19.291 20.0398 19.3734 19.9164C19.4558 19.7931 19.4998 19.6481 19.4998 19.4998C19.4998 19.3008 19.4207 19.1101 19.2801 18.9694C19.1394 18.8288 18.9487 18.7498 18.7498 18.7498ZM18.7498 14.9998C18.6014 14.9998 18.4564 15.0437 18.3331 15.1262C18.2097 15.2086 18.1136 15.3257 18.0569 15.4627C18.0001 15.5998 17.9852 15.7506 18.0142 15.8961C18.0431 16.0416 18.1145 16.1752 18.2194 16.2801C18.3243 16.385 18.458 16.4564 18.6034 16.4853C18.7489 16.5143 18.8997 16.4994 19.0368 16.4427C19.1738 16.3859 19.291 16.2898 19.3734 16.1664C19.4558 16.0431 19.4998 15.8981 19.4998 15.7498C19.4998 15.5508 19.4207 15.3601 19.2801 15.2194C19.1394 15.0788 18.9487 14.9998 18.7498 14.9998ZM18.7498 11.2498C18.6014 11.2498 18.4564 11.2937 18.3331 11.3762C18.2097 11.4586 18.1136 11.5757 18.0569 11.7127C18.0001 11.8498 17.9852 12.0006 18.0142 12.1461C18.0431 12.2916 18.1145 12.4252 18.2194 12.5301C18.3243 12.635 18.458 12.7064 18.6034 12.7353C18.7489 12.7643 18.8997 12.7494 19.0368 12.6927C19.1738 12.6359 19.291 12.5398 19.3734 12.4164C19.4558 12.2931 19.4998 12.1481 19.4998 11.9998C19.4998 11.8008 19.4207 11.6101 19.2801 11.4694C19.1394 11.3288 18.9487 11.2498 18.7498 11.2498ZM15.7498 18.7498C15.6014 18.7498 15.4564 18.7937 15.3331 18.8762C15.2097 18.9586 15.1136 19.0757 15.0569 19.2127C15.0001 19.3498 14.9852 19.5006 15.0142 19.6461C15.0431 19.7916 15.1145 19.9252 15.2194 20.0301C15.3243 20.135 15.458 20.2064 15.6034 20.2353C15.7489 20.2643 15.8997 20.2494 16.0368 20.1927C16.1738 20.1359 16.291 20.0398 16.3734 19.9164C16.4558 19.7931 16.4998 19.6481 16.4998 19.4998C16.4998 19.3008 16.4207 19.1101 16.2801 18.9694C16.1394 18.8288 15.9487 18.7498 15.7498 18.7498ZM15.7498 14.9998C15.6014 14.9998 15.4564 15.0437 15.3331 15.1262C15.2097 15.2086 15.1136 15.3257 15.0569 15.4627C15.0001 15.5998 14.9852 15.7506 15.0142 15.8961C15.0431 16.0416 15.1145 16.1752 15.2194 16.2801C15.3243 16.385 15.458 16.4564 15.6034 16.4853C15.7489 16.5143 15.8997 16.4994 16.0368 16.4427C16.1738 16.3859 16.291 16.2898 16.3734 16.1664C16.4558 16.0431 16.4998 15.8981 16.4998 15.7498C16.4998 15.5508 16.4207 15.3601 16.2801 15.2194C16.1394 15.0788 15.9487 14.9998 15.7498 14.9998ZM15.7498 11.2498C15.6014 11.2498 15.4564 11.2937 15.3331 11.3762C15.2097 11.4586 15.1136 11.5757 15.0569 11.7127C15.0001 11.8498 14.9852 12.0006 15.0142 12.1461C15.0431 12.2916 15.1145 12.4252 15.2194 12.5301C15.3243 12.635 15.458 12.7064 15.6034 12.7353C15.7489 12.7643 15.8997 12.7494 16.0368 12.6927C16.1738 12.6359 16.291 12.5398 16.3734 12.4164C16.4558 12.2931 16.4998 12.1481 16.4998 11.9998C16.4998 11.8008 16.4207 11.6101 16.2801 11.4694C16.1394 11.3288 15.9487 11.2498 15.7498 11.2498Z" fill="#111111"/>
</svg>
