<svg width="16" height="22" viewBox="0 0 16 22" fill="none" xmlns="http://www.w3.org/2000/svg">
<path fill-rule="evenodd" clip-rule="evenodd" d="M4.88774 7.20573C3.8174 7.20573 2.96265 7.56323 2.37549 8.13577C2.10174 8.4018 1.88339 8.71941 1.73306 9.07028C1.58273 9.42115 1.50339 9.79832 1.49961 10.18C1.49473 10.5617 1.56729 10.9404 1.7129 11.2933C1.85851 11.6461 2.07414 11.9658 2.34678 12.2329C2.91174 12.7871 3.73182 13.1364 4.76315 13.1624L5.29128 13.176V20.3504C5.29128 20.495 5.4462 20.7328 5.80532 20.7469C6.16607 20.7609 6.35674 20.5318 6.37299 20.3785L6.90274 15.3307H9.09649L9.62624 20.3791C9.64249 20.5318 9.83316 20.7609 10.1939 20.7469C10.553 20.7328 10.7079 20.495 10.7079 20.3504V8.4234L11.4739 8.77169C12.0713 9.04306 12.4597 9.38919 12.7164 9.70065C12.9981 10.0435 13.2657 10.5126 13.3356 11.0283L13.3367 11.0391L13.3377 11.0478C13.3659 11.3251 13.6302 11.5645 13.9693 11.5369C14.2943 11.5109 14.5256 11.2303 14.5018 10.9524C14.4779 10.7404 14.4299 10.5318 14.3588 10.3306C14.2018 9.86161 13.9598 9.42552 13.6449 9.04415C12.8551 8.08431 11.4094 7.20573 8.85328 7.20573H4.88774ZM1.61932 7.3601C2.43182 6.56819 3.56932 6.1224 4.88774 6.1224H8.85274C11.6829 6.1224 13.4558 7.10931 14.4817 8.35569C14.8814 8.84003 15.1884 9.39382 15.3874 9.98935C15.4741 10.2515 15.5521 10.544 15.5802 10.8549V10.8571C15.6631 11.7926 14.921 12.5471 14.056 12.617C13.1698 12.6879 12.3573 12.0618 12.2609 11.1675C12.2252 10.9161 12.08 10.6329 11.8796 10.3891C11.8513 10.3547 11.8218 10.3213 11.7913 10.2889V20.3504C11.7913 21.2089 11.0351 21.7977 10.2367 21.8291C9.44045 21.8605 8.6377 21.3384 8.54886 20.4912L8.12095 16.4141H7.87828L7.45036 20.4917C7.36153 21.3384 6.55878 21.8605 5.76253 21.8296C4.96411 21.7982 4.20795 21.2089 4.20795 20.3504V14.2079C3.16524 14.0833 2.26336 13.6689 1.5879 13.0054C1.2114 12.6362 0.913499 12.1947 0.712145 11.7073C0.510792 11.22 0.410149 10.697 0.41628 10.1697C0.42143 9.64531 0.530338 9.1271 0.736723 8.64498C0.943109 8.16286 1.24289 7.72636 1.61878 7.36065L1.61932 7.3601ZM5.29128 8.26577V12.1024L4.72578 12.0775C4.00753 12.045 3.51407 11.8012 3.19557 11.4887C3.02448 11.319 2.88953 11.1165 2.79886 10.8932C2.70818 10.67 2.66367 10.4307 2.66799 10.1898C2.66953 9.94609 2.71923 9.70512 2.81424 9.48071C2.90924 9.25631 3.04767 9.0529 3.22157 8.88219C3.54495 8.56748 4.03353 8.3259 4.72361 8.29285L5.29128 8.26577ZM4.20795 9.50131C4.07228 9.56112 3.95691 9.65905 3.87585 9.78319C3.79478 9.90733 3.75152 10.0523 3.75132 10.2006C3.74915 10.4086 3.82553 10.5895 3.95445 10.7152C4.00536 10.7656 4.08553 10.8273 4.20795 10.8799V9.50131ZM7.99961 1.2474C7.56864 1.2474 7.15531 1.4186 6.85056 1.72335C6.54582 2.02809 6.37461 2.44142 6.37461 2.8724C6.37461 3.30337 6.54582 3.7167 6.85056 4.02144C7.15531 4.32619 7.56864 4.4974 7.99961 4.4974C8.43059 4.4974 8.84392 4.32619 9.14866 4.02144C9.45341 3.7167 9.62461 3.30337 9.62461 2.8724C9.62461 2.44142 9.45341 2.02809 9.14866 1.72335C8.84392 1.4186 8.43059 1.2474 7.99961 1.2474ZM5.29128 2.8724C5.29128 2.1541 5.57662 1.46523 6.08453 0.957315C6.59244 0.449404 7.28132 0.164063 7.99961 0.164062C8.71791 0.164062 9.40678 0.449404 9.91469 0.957315C10.4226 1.46523 10.7079 2.1541 10.7079 2.8724C10.7079 3.59069 10.4226 4.27957 9.91469 4.78748C9.40678 5.29539 8.71791 5.58073 7.99961 5.58073C7.28132 5.58073 6.59244 5.29539 6.08453 4.78748C5.57662 4.27957 5.29128 3.59069 5.29128 2.8724Z" fill="#111111"/>
</svg>
