<svg width="13" height="17" viewBox="0 0 13 17" fill="none" xmlns="http://www.w3.org/2000/svg">
<path d="M6.61475 5.40625V0.90625H2.11475C1.71692 0.90625 1.33539 1.06429 1.05409 1.34559C0.772781 1.62689 0.614746 2.00843 0.614746 2.40625V15.4062C0.614746 15.8041 0.772781 16.1856 1.05409 16.4669C1.33539 16.7482 1.71692 16.9062 2.11475 16.9062H11.1147C11.5126 16.9062 11.8941 16.7482 12.1754 16.4669C12.4567 16.1856 12.6147 15.8041 12.6147 15.4062V6.90625H8.11475C7.71692 6.90625 7.33539 6.74821 7.05409 6.46691C6.77278 6.18561 6.61475 5.80407 6.61475 5.40625ZM2.61475 9.40625C2.61475 9.27364 2.66742 9.14646 2.76119 9.0527C2.85496 8.95893 2.98214 8.90625 3.11475 8.90625C3.24735 8.90625 3.37453 8.95893 3.4683 9.0527C3.56207 9.14646 3.61475 9.27364 3.61475 9.40625C3.61475 9.53886 3.56207 9.66604 3.4683 9.7598C3.37453 9.85357 3.24735 9.90625 3.11475 9.90625C2.98214 9.90625 2.85496 9.85357 2.76119 9.7598C2.66742 9.66604 2.61475 9.53886 2.61475 9.40625ZM2.61475 11.4062C2.61475 11.2736 2.66742 11.1465 2.76119 11.0527C2.85496 10.9589 2.98214 10.9062 3.11475 10.9062C3.24735 10.9062 3.37453 10.9589 3.4683 11.0527C3.56207 11.1465 3.61475 11.2736 3.61475 11.4062C3.61475 11.5389 3.56207 11.666 3.4683 11.7598C3.37453 11.8536 3.24735 11.9062 3.11475 11.9062C2.98214 11.9062 2.85496 11.8536 2.76119 11.7598C2.66742 11.666 2.61475 11.5389 2.61475 11.4062ZM2.61475 13.4062C2.61475 13.2736 2.66742 13.1465 2.76119 13.0527C2.85496 12.9589 2.98214 12.9062 3.11475 12.9062C3.24735 12.9062 3.37453 12.9589 3.4683 13.0527C3.56207 13.1465 3.61475 13.2736 3.61475 13.4062C3.61475 13.5389 3.56207 13.666 3.4683 13.7598C3.37453 13.8536 3.24735 13.9062 3.11475 13.9062C2.98214 13.9062 2.85496 13.8536 2.76119 13.7598C2.66742 13.666 2.61475 13.5389 2.61475 13.4062ZM4.61475 9.40625C4.61475 9.27364 4.66742 9.14646 4.76119 9.0527C4.85496 8.95893 4.98214 8.90625 5.11475 8.90625H10.1147C10.2474 8.90625 10.3745 8.95893 10.4683 9.0527C10.5621 9.14646 10.6147 9.27364 10.6147 9.40625C10.6147 9.53886 10.5621 9.66604 10.4683 9.7598C10.3745 9.85357 10.2474 9.90625 10.1147 9.90625H5.11475C4.98214 9.90625 4.85496 9.85357 4.76119 9.7598C4.66742 9.66604 4.61475 9.53886 4.61475 9.40625ZM4.61475 11.4062C4.61475 11.2736 4.66742 11.1465 4.76119 11.0527C4.85496 10.9589 4.98214 10.9062 5.11475 10.9062H10.1147C10.2474 10.9062 10.3745 10.9589 10.4683 11.0527C10.5621 11.1465 10.6147 11.2736 10.6147 11.4062C10.6147 11.5389 10.5621 11.666 10.4683 11.7598C10.3745 11.8536 10.2474 11.9062 10.1147 11.9062H5.11475C4.98214 11.9062 4.85496 11.8536 4.76119 11.7598C4.66742 11.666 4.61475 11.5389 4.61475 11.4062ZM4.61475 13.4062C4.61475 13.2736 4.66742 13.1465 4.76119 13.0527C4.85496 12.9589 4.98214 12.9062 5.11475 12.9062H10.1147C10.2474 12.9062 10.3745 12.9589 10.4683 13.0527C10.5621 13.1465 10.6147 13.2736 10.6147 13.4062C10.6147 13.5389 10.5621 13.666 10.4683 13.7598C10.3745 13.8536 10.2474 13.9062 10.1147 13.9062H5.11475C4.98214 13.9062 4.85496 13.8536 4.76119 13.7598C4.66742 13.666 4.61475 13.5389 4.61475 13.4062ZM7.61475 5.40625V1.15625L12.3647 5.90625H8.11475C7.98214 5.90625 7.85496 5.85357 7.76119 5.7598C7.66742 5.66604 7.61475 5.53886 7.61475 5.40625Z" fill="#008AA7"/>
</svg>
