<svg width="12" height="15" viewBox="0 0 12 15" fill="none" xmlns="http://www.w3.org/2000/svg">
<path fill-rule="evenodd" clip-rule="evenodd" d="M5.16675 13.3359C5.16675 13.5569 5.07895 13.7689 4.92267 13.9252C4.76639 14.0815 4.55443 14.1693 4.33342 14.1693C4.1124 14.1693 3.90044 14.0815 3.74416 13.9252C3.58788 13.7689 3.50008 13.5569 3.50008 13.3359V4.16927C3.50008 3.94826 3.58788 3.7363 3.74416 3.58002C3.90044 3.42373 4.1124 3.33594 4.33342 3.33594C4.55443 3.33594 4.76639 3.42373 4.92267 3.58002C5.07895 3.7363 5.16675 3.94826 5.16675 4.16927V13.3359ZM1.83341 13.3359C1.83341 13.5569 1.74562 13.7689 1.58934 13.9252C1.43306 14.0815 1.2211 14.1693 1.00008 14.1693C0.779068 14.1693 0.567106 14.0815 0.410826 13.9252C0.254546 13.7689 0.166748 13.5569 0.166748 13.3359V7.5026C0.166748 7.28159 0.254546 7.06963 0.410826 6.91335C0.567106 6.75707 0.779068 6.66927 1.00008 6.66927C1.2211 6.66927 1.43306 6.75707 1.58934 6.91335C1.74562 7.06963 1.83341 7.28159 1.83341 7.5026V13.3359ZM6.83342 13.3359V5.83594C6.83342 5.61492 6.92121 5.40296 7.07749 5.24668C7.23377 5.0904 7.44573 5.0026 7.66675 5.0026C7.88776 5.0026 8.09972 5.0904 8.256 5.24668C8.41228 5.40296 8.50008 5.61492 8.50008 5.83594V13.3359C8.50008 13.5569 8.41228 13.7689 8.256 13.9252C8.09972 14.0815 7.88776 14.1693 7.66675 14.1693C7.44573 14.1693 7.23377 14.0815 7.07749 13.9252C6.92121 13.7689 6.83342 13.5569 6.83342 13.3359ZM10.1667 1.66927C10.1667 1.44826 10.2545 1.2363 10.4108 1.08002C10.5671 0.923735 10.7791 0.835937 11.0001 0.835938C11.2211 0.835937 11.4331 0.923735 11.5893 1.08002C11.7456 1.2363 11.8334 1.44826 11.8334 1.66927V13.3359C11.8334 13.5569 11.7456 13.7689 11.5893 13.9252C11.4331 14.0815 11.2211 14.1693 11.0001 14.1693C10.7791 14.1693 10.5671 14.0815 10.4108 13.9252C10.2545 13.7689 10.1667 13.5569 10.1667 13.3359V1.66927Z" fill="#008AA7"/>
</svg>
