<svg width="24" height="24" viewBox="0 0 24 24" fill="none" xmlns="http://www.w3.org/2000/svg">
<path d="M6.39967 15.2533V7.06667H16.2663L17.3197 6H5.33301V15.2533H6.39967Z" fill="#111111"/>
<path d="M4.00033 4.66927H20.0003V15.3359H21.3337V4.33594C21.3337 4.07072 21.2283 3.81637 21.0408 3.62883C20.8532 3.44129 20.5989 3.33594 20.3337 3.33594H3.66699C3.40178 3.33594 3.14742 3.44129 2.95989 3.62883C2.77235 3.81637 2.66699 4.07072 2.66699 4.33594V15.3359H4.00033V4.66927Z" fill="#111111"/>
<path d="M0.666992 16.6641V18.9307C0.666992 19.3904 0.849611 19.8313 1.17467 20.1564C1.49974 20.4814 1.94062 20.6641 2.40033 20.6641H21.5603C22.02 20.6641 22.4609 20.4814 22.786 20.1564C23.111 19.8313 23.2937 19.3904 23.2937 18.9307V16.6641H0.666992ZM22.0003 18.9307C22.0003 19.0368 21.9582 19.1386 21.8832 19.2136C21.8082 19.2886 21.7064 19.3307 21.6003 19.3307H2.37366C2.26757 19.3307 2.16583 19.2886 2.09082 19.2136C2.0158 19.1386 1.97366 19.0368 1.97366 18.9307V17.6841H8.60699C8.69034 17.8807 8.82946 18.0486 9.00717 18.1671C9.18489 18.2856 9.39341 18.3494 9.60699 18.3507H14.3603C14.5739 18.3494 14.7824 18.2856 14.9601 18.1671C15.1379 18.0486 15.277 17.8807 15.3603 17.6841H22.0003V18.9307Z" fill="#111111"/>
</svg>
