<svg width="24" height="24" viewBox="0 0 24 24" fill="none" xmlns="http://www.w3.org/2000/svg">
<path d="M12.2795 10.8732C11.5297 10.8653 10.799 10.6358 10.1794 10.2135C9.55975 9.79114 9.07893 9.19494 8.79744 8.49992C8.51595 7.80491 8.44638 7.04214 8.59749 6.30767C8.7486 5.5732 9.11363 4.89985 9.64663 4.3724C10.1796 3.84496 10.8568 3.48699 11.5928 3.34358C12.3288 3.20017 13.0908 3.27772 13.7828 3.56648C14.4749 3.85523 15.066 4.34227 15.4818 4.96628C15.8976 5.59029 16.1195 6.32337 16.1195 7.07323C16.1125 8.08581 15.7044 9.05432 14.9846 9.76658C14.2649 10.4788 13.2921 10.8768 12.2795 10.8732ZM12.2795 4.60656C11.7935 4.61445 11.3205 4.76579 10.9202 5.04157C10.5199 5.31736 10.2099 5.7053 10.0293 6.15666C9.84877 6.60803 9.80559 7.10268 9.90524 7.5785C10.0049 8.05433 10.2429 8.49009 10.5894 8.83107C10.9359 9.17205 11.3755 9.40304 11.8528 9.49502C12.3302 9.587 12.8241 9.53587 13.2725 9.34805C13.7209 9.16024 14.1038 8.84412 14.3731 8.43939C14.6424 8.03466 14.7861 7.55937 14.7862 7.07323C14.7792 6.41427 14.5115 5.7849 14.0418 5.32268C13.5721 4.86047 12.9385 4.603 12.2795 4.60656Z" fill="#111111"/>
<path d="M12.2802 10.8732C11.5304 10.8653 10.7997 10.6358 10.18 10.2135C9.56041 9.79114 9.07959 9.19494 8.7981 8.49992C8.51661 7.80491 8.44704 7.04214 8.59815 6.30767C8.74926 5.5732 9.1143 4.89985 9.64729 4.3724C10.1803 3.84496 10.8574 3.48699 11.5934 3.34358C12.3295 3.20017 13.0914 3.27772 13.7835 3.56648C14.4755 3.85523 15.0666 4.34227 15.4825 4.96628C15.8983 5.59029 16.1202 6.32337 16.1202 7.07323C16.1131 8.08581 15.705 9.05432 14.9853 9.76658C14.2655 10.4788 13.2928 10.8768 12.2802 10.8732ZM12.2802 4.60656C11.7941 4.61445 11.3212 4.76579 10.9209 5.04157C10.5205 5.31736 10.2106 5.7053 10.03 6.15666C9.84943 6.60803 9.80625 7.10268 9.9059 7.5785C10.0055 8.05433 10.2436 8.49009 10.5901 8.83107C10.9366 9.17205 11.3761 9.40304 11.8535 9.49502C12.3309 9.587 12.8248 9.53587 13.2732 9.34805C13.7216 9.16024 14.1045 8.84412 14.3738 8.43939C14.6431 8.03466 14.7868 7.55937 14.7869 7.07323C14.7798 6.41427 14.5122 5.7849 14.0425 5.32268C13.5728 4.86047 12.9392 4.603 12.2802 4.60656ZM14.6069 11.7666C11.6499 11.252 8.60577 11.7203 5.94019 13.0999C5.75098 13.205 5.5943 13.36 5.4873 13.5482C5.3803 13.7363 5.3271 13.9502 5.33353 14.1666V16.5399C5.33353 16.7167 5.40377 16.8863 5.52879 17.0113C5.65381 17.1363 5.82338 17.2066 6.00019 17.2066C6.17701 17.2066 6.34657 17.1363 6.4716 17.0113C6.59662 16.8863 6.66686 16.7167 6.66686 16.5399V14.2532C9.13864 13.013 11.9495 12.6195 14.6669 13.1332L14.6069 11.7666Z" fill="#111111"/>
<path d="M22.0003 14.669H17.5337V13.6823C17.5337 13.5055 17.4634 13.3359 17.3384 13.2109C17.2134 13.0859 17.0438 13.0156 16.867 13.0156C16.6902 13.0156 16.5206 13.0859 16.3956 13.2109C16.2706 13.3359 16.2003 13.5055 16.2003 13.6823V14.669H11.3337C11.1568 14.669 10.9873 14.7392 10.8623 14.8642C10.7372 14.9892 10.667 15.1588 10.667 15.3356V22.0023C10.667 22.1791 10.7372 22.3487 10.8623 22.4737C10.9873 22.5987 11.1568 22.669 11.3337 22.669H22.0003C22.1771 22.669 22.3467 22.5987 22.4717 22.4737C22.5968 22.3487 22.667 22.1791 22.667 22.0023V15.3356C22.667 15.1588 22.5968 14.9892 22.4717 14.8642C22.3467 14.7392 22.1771 14.669 22.0003 14.669ZM21.3337 21.3356H12.0003V16.0023H16.2003V16.2756C16.2003 16.4524 16.2706 16.622 16.3956 16.747C16.5206 16.8721 16.6902 16.9423 16.867 16.9423C17.0438 16.9423 17.2134 16.8721 17.3384 16.747C17.4634 16.622 17.5337 16.4524 17.5337 16.2756V16.0023H21.3337V21.3356Z" fill="#111111"/>
<path d="M14.5397 18.2788H18.513V19.2121H14.5397V18.2788ZM7.22634 8.15878C5.38064 8.18966 3.56694 8.64593 1.92634 9.49211C1.74792 9.58636 1.59846 9.72732 1.49395 9.89994C1.38944 10.0726 1.33381 10.2703 1.33301 10.4721V12.5388C1.33301 12.7156 1.40325 12.8852 1.52827 13.0102C1.65329 13.1352 1.82286 13.2054 1.99967 13.2054C2.17649 13.2054 2.34605 13.1352 2.47108 13.0102C2.5961 12.8852 2.66634 12.7156 2.66634 12.5388V10.6054C4.23387 9.82519 5.96938 9.44283 7.71967 9.49211C7.49067 9.07429 7.32445 8.62503 7.22634 8.15878ZM22.073 9.48544C20.6016 8.71358 18.9845 8.25934 17.3263 8.15211C17.2287 8.61754 17.0648 9.06655 16.8397 9.48544C18.4017 9.52283 19.9362 9.9053 21.333 10.6054V12.5388C21.333 12.7156 21.4032 12.8852 21.5283 13.0102C21.6533 13.1352 21.8229 13.2054 21.9997 13.2054C22.1765 13.2054 22.3461 13.1352 22.4711 13.0102C22.5961 12.8852 22.6663 12.7156 22.6663 12.5388V10.4721C22.6667 10.2692 22.6117 10.07 22.5071 9.89613C22.4025 9.72223 22.2524 9.58022 22.073 9.48544ZM7.10634 7.07211V6.62544C6.58409 6.55555 6.10891 6.28693 5.77972 5.87551C5.45054 5.46408 5.29271 4.94155 5.3391 4.41668C5.38549 3.89182 5.63251 3.40506 6.02875 3.05775C6.425 2.71043 6.93992 2.52932 7.46634 2.55211C8.01389 2.55112 8.54017 2.76402 8.93301 3.14544C9.2796 2.85956 9.66028 2.61772 10.0663 2.42544C9.61275 1.90388 9.01176 1.532 8.3426 1.35882C7.67343 1.18564 6.9675 1.21929 6.31784 1.45534C5.66818 1.69138 5.10529 2.11874 4.70336 2.68108C4.30143 3.24342 4.07934 3.91435 4.06634 4.60544C4.08033 5.45128 4.40914 6.26152 4.98854 6.87791C5.56794 7.49429 6.35632 7.87254 7.19967 7.93878C7.14312 7.6532 7.11189 7.36318 7.10634 7.07211ZM16.513 1.21878C16.0549 1.21888 15.6013 1.31031 15.179 1.48774C14.7566 1.66517 14.3738 1.92502 14.053 2.25211C14.5037 2.41542 14.9299 2.63973 15.3197 2.91878C15.6309 2.70273 15.9949 2.5752 16.373 2.54978C16.751 2.52437 17.1288 2.60202 17.4661 2.77446C17.8035 2.9469 18.0877 3.20766 18.2885 3.52894C18.4893 3.85022 18.5992 4.21998 18.6063 4.59878C18.6021 4.98787 18.4878 5.36781 18.2766 5.69463C18.0655 6.02144 17.766 6.28176 17.413 6.44544C17.4398 6.65102 17.4532 6.85813 17.453 7.06544C17.4512 7.33342 17.4289 7.60087 17.3863 7.86544C18.1126 7.67873 18.7568 7.25716 19.2186 6.66635C19.6804 6.07554 19.9339 5.34863 19.9397 4.59878C19.9309 3.69698 19.5655 2.83531 18.9235 2.202C18.2814 1.56869 17.4148 1.21521 16.513 1.21878Z" fill="#111111"/>
</svg>
