<svg width="18" height="17" viewBox="0 0 18 17" fill="none" xmlns="http://www.w3.org/2000/svg">
<path d="M0.281494 1.70052C0.281494 0.895521 0.934827 0.242188 1.73983 0.242188H12.9898C13.7948 0.242188 14.4482 0.895521 14.4482 1.70052V6.07552H11.9482C11.5061 6.07552 11.0822 6.25112 10.7696 6.56368C10.4571 6.87624 10.2815 7.30016 10.2815 7.74219V10.2422H1.73983C1.35305 10.2422 0.982121 10.0885 0.70863 9.81505C0.43514 9.54156 0.281494 9.17063 0.281494 8.78385V1.70052ZM2.78149 2.11719C2.78149 2.28295 2.71565 2.44192 2.59844 2.55913C2.48123 2.67634 2.32225 2.74219 2.15649 2.74219H1.32316V3.99219H2.15649C2.65377 3.99219 3.13069 3.79464 3.48232 3.44301C3.83395 3.09138 4.03149 2.61447 4.03149 2.11719V1.28385H2.78149V2.11719ZM7.36483 7.32552C7.86211 7.32552 8.33902 7.12798 8.69065 6.77635C9.04228 6.42472 9.23983 5.9478 9.23983 5.45052C9.23983 4.95324 9.04228 4.47633 8.69065 4.1247C8.33902 3.77307 7.86211 3.57552 7.36483 3.57552C6.86755 3.57552 6.39063 3.77307 6.039 4.1247C5.68737 4.47633 5.48983 4.95324 5.48983 5.45052C5.48983 5.9478 5.68737 6.42472 6.039 6.77635C6.39063 7.12798 6.86755 7.32552 7.36483 7.32552ZM2.15649 7.74219C2.32225 7.74219 2.48123 7.80804 2.59844 7.92525C2.71565 8.04246 2.78149 8.20143 2.78149 8.36719V9.20052H4.03149V8.36719C4.03149 7.86991 3.83395 7.39299 3.48232 7.04136C3.13069 6.68973 2.65377 6.49219 2.15649 6.49219H1.32316V7.74219H2.15649ZM12.5732 2.74219C12.4074 2.74219 12.2484 2.67634 12.1312 2.55913C12.014 2.44192 11.9482 2.28295 11.9482 2.11719V1.28385H10.6982V2.11719C10.6982 2.61447 10.8957 3.09138 11.2473 3.44301C11.599 3.79464 12.0759 3.99219 12.5732 3.99219H13.4065V2.74219H12.5732ZM2.28233 11.4922H10.2815V12.7422H4.44816C4.00919 12.7423 3.57792 12.6269 3.19772 12.4074C2.81753 12.188 2.50181 11.8723 2.28233 11.4922ZM16.9482 4.40885V6.07552H15.6982V2.24302C16.0784 2.46244 16.3941 2.77814 16.6135 3.15835C16.833 3.53856 16.9484 3.96987 16.9482 4.40885ZM12.3648 6.90885C12.0333 6.90885 11.7154 7.04055 11.4809 7.27497C11.2465 7.50939 11.1148 7.82733 11.1148 8.15885V14.8255C11.1148 15.157 11.2465 15.475 11.4809 15.7094C11.7154 15.9438 12.0333 16.0755 12.3648 16.0755H16.5315C16.863 16.0755 17.181 15.9438 17.4154 15.7094C17.6498 15.475 17.7815 15.157 17.7815 14.8255V8.15885C17.7815 7.82733 17.6498 7.50939 17.4154 7.27497C17.181 7.04055 16.863 6.90885 16.5315 6.90885H12.3648ZM12.7815 10.6589H13.6148C13.7253 10.6589 13.8313 10.7028 13.9095 10.7809C13.9876 10.859 14.0315 10.965 14.0315 11.0755C14.0315 11.186 13.9876 11.292 13.9095 11.3701C13.8313 11.4483 13.7253 11.4922 13.6148 11.4922H12.7815C12.671 11.4922 12.565 11.4483 12.4869 11.3701C12.4087 11.292 12.3648 11.186 12.3648 11.0755C12.3648 10.965 12.4087 10.859 12.4869 10.7809C12.565 10.7028 12.671 10.6589 12.7815 10.6589ZM15.2815 10.6589H16.1148C16.2253 10.6589 16.3313 10.7028 16.4095 10.7809C16.4876 10.859 16.5315 10.965 16.5315 11.0755C16.5315 11.186 16.4876 11.292 16.4095 11.3701C16.3313 11.4483 16.2253 11.4922 16.1148 11.4922H15.2815C15.171 11.4922 15.065 11.4483 14.9869 11.3701C14.9087 11.292 14.8648 11.186 14.8648 11.0755C14.8648 10.965 14.9087 10.859 14.9869 10.7809C15.065 10.7028 15.171 10.6589 15.2815 10.6589ZM12.7815 12.3255H13.6148C13.7253 12.3255 13.8313 12.3694 13.9095 12.4476C13.9876 12.5257 14.0315 12.6317 14.0315 12.7422C14.0315 12.8527 13.9876 12.9587 13.9095 13.0368C13.8313 13.115 13.7253 13.1589 13.6148 13.1589H12.7815C12.671 13.1589 12.565 13.115 12.4869 13.0368C12.4087 12.9587 12.3648 12.8527 12.3648 12.7422C12.3648 12.6317 12.4087 12.5257 12.4869 12.4476C12.565 12.3694 12.671 12.3255 12.7815 12.3255ZM15.2815 12.3255H16.1148C16.2253 12.3255 16.3313 12.3694 16.4095 12.4476C16.4876 12.5257 16.5315 12.6317 16.5315 12.7422C16.5315 12.8527 16.4876 12.9587 16.4095 13.0368C16.3313 13.115 16.2253 13.1589 16.1148 13.1589H15.2815C15.171 13.1589 15.065 13.115 14.9869 13.0368C14.9087 12.9587 14.8648 12.8527 14.8648 12.7422C14.8648 12.6317 14.9087 12.5257 14.9869 12.4476C15.065 12.3694 15.171 12.3255 15.2815 12.3255ZM12.7815 13.9922H13.6148C13.7253 13.9922 13.8313 14.0361 13.9095 14.1142C13.9876 14.1924 14.0315 14.2983 14.0315 14.4089C14.0315 14.5194 13.9876 14.6253 13.9095 14.7035C13.8313 14.7816 13.7253 14.8255 13.6148 14.8255H12.7815C12.671 14.8255 12.565 14.7816 12.4869 14.7035C12.4087 14.6253 12.3648 14.5194 12.3648 14.4089C12.3648 14.2983 12.4087 14.1924 12.4869 14.1142C12.565 14.0361 12.671 13.9922 12.7815 13.9922ZM15.2815 13.9922H16.1148C16.2253 13.9922 16.3313 14.0361 16.4095 14.1142C16.4876 14.1924 16.5315 14.2983 16.5315 14.4089C16.5315 14.5194 16.4876 14.6253 16.4095 14.7035C16.3313 14.7816 16.2253 14.8255 16.1148 14.8255H15.2815C15.171 14.8255 15.065 14.7816 14.9869 14.7035C14.9087 14.6253 14.8648 14.5194 14.8648 14.4089C14.8648 14.2983 14.9087 14.1924 14.9869 14.1142C15.065 14.0361 15.171 13.9922 15.2815 13.9922ZM12.3648 8.57552C12.3648 8.46501 12.4087 8.35903 12.4869 8.28089C12.565 8.20275 12.671 8.15885 12.7815 8.15885H16.1148C16.2253 8.15885 16.3313 8.20275 16.4095 8.28089C16.4876 8.35903 16.5315 8.46501 16.5315 8.57552V9.40885C16.5315 9.51936 16.4876 9.62534 16.4095 9.70348C16.3313 9.78162 16.2253 9.82552 16.1148 9.82552H12.7815C12.671 9.82552 12.565 9.78162 12.4869 9.70348C12.4087 9.62534 12.3648 9.51936 12.3648 9.40885V8.57552Z" fill="#008AA7"/>
</svg>
