<svg width="23" height="21" viewBox="0 0 23 21" fill="none" xmlns="http://www.w3.org/2000/svg">
<path d="M19.8333 0.0859375H9.41663C8.58782 0.0859375 7.79297 0.415178 7.20692 1.00123C6.62087 1.58728 6.29163 2.38214 6.29163 3.21094V10.5026C6.29163 11.3314 6.62087 12.1263 7.20692 12.7123C7.79297 13.2984 8.58782 13.6276 9.41663 13.6276H19.8333C20.6621 13.6276 21.4569 13.2984 22.043 12.7123C22.6291 12.1263 22.9583 11.3314 22.9583 10.5026V3.21094C22.9583 2.38214 22.6291 1.58728 22.043 1.00123C21.4569 0.415178 20.6621 0.0859375 19.8333 0.0859375ZM20.875 10.5026C20.875 10.7789 20.7652 11.0438 20.5699 11.2392C20.3745 11.4345 20.1096 11.5443 19.8333 11.5443H9.41663C9.14036 11.5443 8.87541 11.4345 8.68006 11.2392C8.48471 11.0438 8.37496 10.7789 8.37496 10.5026V3.21094C8.37496 2.93467 8.48471 2.66972 8.68006 2.47437C8.87541 2.27902 9.14036 2.16927 9.41663 2.16927H19.8333C20.1096 2.16927 20.3745 2.27902 20.5699 2.47437C20.7652 2.66972 20.875 2.93467 20.875 3.21094V10.5026ZM17.2291 6.33594C16.8435 6.33724 16.4722 6.48207 16.1875 6.74219C15.9635 6.53859 15.6852 6.40445 15.3864 6.35604C15.0876 6.30764 14.7811 6.34707 14.5043 6.46954C14.2275 6.592 13.9922 6.79224 13.8271 7.0459C13.6619 7.29957 13.574 7.59575 13.574 7.89844C13.574 8.20113 13.6619 8.4973 13.8271 8.75097C13.9922 9.00464 14.2275 9.20487 14.5043 9.32734C14.7811 9.44981 15.0876 9.48923 15.3864 9.44083C15.6852 9.39243 15.9635 9.25828 16.1875 9.05469C16.3756 9.22565 16.6025 9.34815 16.8487 9.41154C17.0949 9.47493 17.3528 9.47731 17.6001 9.41847C17.8474 9.35963 18.0766 9.24134 18.2678 9.07387C18.459 8.9064 18.6065 8.69481 18.6974 8.45744C18.7884 8.22007 18.8201 7.9641 18.7897 7.71173C18.7593 7.45936 18.6678 7.2182 18.5232 7.00919C18.3785 6.80017 18.185 6.62961 17.9595 6.51229C17.734 6.39497 17.4833 6.33443 17.2291 6.33594ZM15.6666 15.7109C15.3904 15.7109 15.1254 15.8207 14.9301 16.016C14.7347 16.2114 14.625 16.4763 14.625 16.7526V17.7943C14.625 18.0705 14.5152 18.3355 14.3199 18.5308C14.1245 18.7262 13.8596 18.8359 13.5833 18.8359H3.16663C2.89036 18.8359 2.62541 18.7262 2.43006 18.5308C2.23471 18.3355 2.12496 18.0705 2.12496 17.7943V13.6276H3.16663C3.44289 13.6276 3.70784 13.5179 3.9032 13.3225C4.09855 13.1272 4.20829 12.8622 4.20829 12.5859C4.20829 12.3097 4.09855 12.0447 3.9032 11.8494C3.70784 11.654 3.44289 11.5443 3.16663 11.5443H2.12496V10.5026C2.12496 10.2263 2.23471 9.96138 2.43006 9.76603C2.62541 9.57068 2.89036 9.46094 3.16663 9.46094C3.44289 9.46094 3.70784 9.35119 3.9032 9.15584C4.09855 8.96049 4.20829 8.69554 4.20829 8.41927C4.20829 8.143 4.09855 7.87805 3.9032 7.6827C3.70784 7.48735 3.44289 7.3776 3.16663 7.3776C2.33782 7.3776 1.54297 7.70684 0.956917 8.29289C0.370866 8.87895 0.041626 9.6738 0.041626 10.5026V17.7943C0.041626 18.6231 0.370866 19.4179 0.956917 20.004C1.54297 20.59 2.33782 20.9193 3.16663 20.9193H13.5833C14.4121 20.9193 15.207 20.59 15.793 20.004C16.3791 19.4179 16.7083 18.6231 16.7083 17.7943V16.7526C16.7083 16.4763 16.5985 16.2114 16.4032 16.016C16.2078 15.8207 15.9429 15.7109 15.6666 15.7109ZM5.24996 16.7526H6.29163C6.56789 16.7526 6.83284 16.6429 7.02819 16.4475C7.22355 16.2522 7.33329 15.9872 7.33329 15.7109C7.33329 15.4347 7.22355 15.1697 7.02819 14.9744C6.83284 14.779 6.56789 14.6693 6.29163 14.6693H5.24996C4.97369 14.6693 4.70874 14.779 4.51339 14.9744C4.31804 15.1697 4.20829 15.4347 4.20829 15.7109C4.20829 15.9872 4.31804 16.2522 4.51339 16.4475C4.70874 16.6429 4.97369 16.7526 5.24996 16.7526Z" fill="#111111"/>
</svg>
