<svg width="16" height="21" viewBox="0 0 16 21" fill="none" xmlns="http://www.w3.org/2000/svg">
<path d="M8.51998 0.778265C8.4629 0.692667 8.38558 0.622482 8.29486 0.57394C8.20415 0.525398 8.10286 0.5 7.99998 0.5C7.8971 0.5 7.7958 0.525398 7.70509 0.57394C7.61438 0.622482 7.53706 0.692667 7.47998 0.778265L3.72998 6.40326C3.66735 6.49738 3.63142 6.60673 3.62602 6.71965C3.62061 6.83257 3.64594 6.94485 3.6993 7.04452C3.75266 7.14418 3.83206 7.22751 3.92903 7.28562C4.02601 7.34373 4.13693 7.37446 4.24998 7.37451H4.37248L1.84498 11.4183C1.78585 11.5129 1.75312 11.6216 1.75019 11.7331C1.74726 11.8446 1.77424 11.9549 1.82833 12.0525C1.88241 12.1501 1.96163 12.2314 2.05775 12.288C2.15388 12.3447 2.26341 12.3745 2.37498 12.3745H2.61373L0.566229 16.4695C0.518481 16.5648 0.495894 16.6707 0.500613 16.7772C0.505333 16.8837 0.537202 16.9872 0.593193 17.0779C0.649185 17.1685 0.727437 17.2434 0.820514 17.2953C0.91359 17.3472 1.0184 17.3745 1.12498 17.3745H6.74998V20.4995H9.24998V17.3745H14.875C14.9816 17.3745 15.0864 17.3472 15.1794 17.2953C15.2725 17.2434 15.3508 17.1685 15.4068 17.0779C15.4628 16.9872 15.4946 16.8837 15.4993 16.7772C15.5041 16.6707 15.4815 16.5648 15.4337 16.4695L13.3875 12.3745H13.6262C13.7378 12.3745 13.8473 12.3447 13.9435 12.288C14.0396 12.2314 14.1188 12.1501 14.1729 12.0525C14.227 11.9549 14.2539 11.8446 14.251 11.7331C14.2481 11.6216 14.2154 11.5129 14.1562 11.4183L11.6275 7.37451H11.75C11.863 7.37446 11.974 7.34373 12.0709 7.28562C12.1679 7.22751 12.2473 7.14418 12.3007 7.04452C12.354 6.94485 12.3793 6.83257 12.3739 6.71965C12.3685 6.60673 12.3326 6.49738 12.27 6.40326L8.51998 0.778265Z" fill="#008AA7"/>
</svg>
