<svg width="18" height="16" viewBox="0 0 18 16" fill="none" xmlns="http://www.w3.org/2000/svg">
<path d="M17.25 1.25C16.5318 1.75661 15.7366 2.14409 14.895 2.3975C14.4433 1.87814 13.843 1.51002 13.1753 1.34295C12.5076 1.17587 11.8046 1.2179 11.1616 1.46334C10.5185 1.70879 9.96633 2.1458 9.57974 2.71529C9.19314 3.28478 8.99077 3.95926 9 4.6475V5.3975C7.68198 5.43168 6.37596 5.13936 5.19826 4.54659C4.02056 3.95381 3.00774 3.07898 2.25 2C2.25 2 -0.75 8.75 6 11.75C4.4554 12.7985 2.61537 13.3242 0.75 13.25C7.5 17 15.75 13.25 15.75 4.625C15.7493 4.41609 15.7292 4.2077 15.69 4.0025C16.4555 3.24762 16.9956 2.29454 17.25 1.25V1.25Z" stroke="white" stroke-width="1.25" stroke-linecap="round" stroke-linejoin="round"/>
</svg>
