<svg width="21" height="20" viewBox="0 0 21 20" fill="none" xmlns="http://www.w3.org/2000/svg">
<path d="M16.8333 8.95833C16.8333 7.95937 16.125 7.12396 15.1864 6.92292C15.5614 6.29687 15.7916 5.57292 15.7916 4.79167C15.7916 2.49375 13.9229 0.625 11.625 0.625C10.0448 0.625 8.68642 1.51771 7.97913 2.81667C7.27183 1.51771 5.9135 0.625 4.33329 0.625C2.03538 0.625 0.166626 2.49375 0.166626 4.79167C0.166626 5.73125 0.491626 6.59062 1.01767 7.2875C0.754739 7.47977 0.540713 7.73117 0.392876 8.02142C0.24504 8.31166 0.167536 8.63261 0.166626 8.95833V17.2917C0.166626 18.4406 1.101 19.375 2.24996 19.375H14.75C15.8989 19.375 16.8333 18.4406 16.8333 17.2917V14.5437L21 16.6271V9.33542L16.8333 11.4187V8.95833ZM11.625 2.70833C12.7739 2.70833 13.7083 3.64271 13.7083 4.79167C13.7083 5.94062 12.7739 6.875 11.625 6.875C10.476 6.875 9.54163 5.94062 9.54163 4.79167C9.54163 3.64271 10.476 2.70833 11.625 2.70833ZM4.33329 2.70833C5.48225 2.70833 6.41663 3.64271 6.41663 4.79167C6.41663 5.94062 5.48225 6.875 4.33329 6.875C3.18433 6.875 2.24996 5.94062 2.24996 4.79167C2.24996 3.64271 3.18433 2.70833 4.33329 2.70833ZM2.24996 17.2917V8.95833H14.75L14.752 17.2917H2.24996Z" fill="black"/>
</svg>
