<svg width="21" height="16" viewBox="0 0 21 16" fill="none" xmlns="http://www.w3.org/2000/svg">
<path d="M2.375 0.28125C1.87772 0.28125 1.40081 0.478794 1.04917 0.830425C0.697544 1.18206 0.5 1.65897 0.5 2.15625V4.65625C0.5 5.15353 0.697544 5.63044 1.04917 5.98208C1.40081 6.33371 1.87772 6.53125 2.375 6.53125H4.875C5.37228 6.53125 5.84919 6.33371 6.20083 5.98208C6.55246 5.63044 6.75 5.15353 6.75 4.65625V2.15625C6.75 1.65897 6.55246 1.18206 6.20083 0.830425C5.84919 0.478794 5.37228 0.28125 4.875 0.28125H2.375ZM1.75 2.15625C1.75 1.99049 1.81585 1.83152 1.93306 1.71431C2.05027 1.5971 2.20924 1.53125 2.375 1.53125H4.875C5.04076 1.53125 5.19973 1.5971 5.31694 1.71431C5.43415 1.83152 5.5 1.99049 5.5 2.15625V4.65625C5.5 4.82201 5.43415 4.98098 5.31694 5.09819C5.19973 5.2154 5.04076 5.28125 4.875 5.28125H2.375C2.20924 5.28125 2.05027 5.2154 1.93306 5.09819C1.81585 4.98098 1.75 4.82201 1.75 4.65625V2.15625ZM9.875 1.53125C9.70924 1.53125 9.55027 1.5971 9.43306 1.71431C9.31585 1.83152 9.25 1.99049 9.25 2.15625C9.25 2.32201 9.31585 2.48098 9.43306 2.59819C9.55027 2.7154 9.70924 2.78125 9.875 2.78125H19.875C20.0408 2.78125 20.1997 2.7154 20.3169 2.59819C20.4342 2.48098 20.5 2.32201 20.5 2.15625C20.5 1.99049 20.4342 1.83152 20.3169 1.71431C20.1997 1.5971 20.0408 1.53125 19.875 1.53125H9.875ZM9.875 4.03125C9.70924 4.03125 9.55027 4.0971 9.43306 4.21431C9.31585 4.33152 9.25 4.49049 9.25 4.65625C9.25 4.82201 9.31585 4.98098 9.43306 5.09819C9.55027 5.2154 9.70924 5.28125 9.875 5.28125H17.375C17.5408 5.28125 17.6997 5.2154 17.8169 5.09819C17.9342 4.98098 18 4.82201 18 4.65625C18 4.49049 17.9342 4.33152 17.8169 4.21431C17.6997 4.0971 17.5408 4.03125 17.375 4.03125H9.875ZM2.375 9.03125C1.87772 9.03125 1.40081 9.22879 1.04917 9.58042C0.697544 9.93206 0.5 10.409 0.5 10.9062V13.4062C0.5 13.9035 0.697544 14.3804 1.04917 14.7321C1.40081 15.0837 1.87772 15.2812 2.375 15.2812H4.875C5.37228 15.2812 5.84919 15.0837 6.20083 14.7321C6.55246 14.3804 6.75 13.9035 6.75 13.4062V10.9062C6.75 10.409 6.55246 9.93206 6.20083 9.58042C5.84919 9.22879 5.37228 9.03125 4.875 9.03125H2.375ZM1.75 10.9062C1.75 10.7405 1.81585 10.5815 1.93306 10.4643C2.05027 10.3471 2.20924 10.2812 2.375 10.2812H4.875C5.04076 10.2812 5.19973 10.3471 5.31694 10.4643C5.43415 10.5815 5.5 10.7405 5.5 10.9062V13.4062C5.5 13.572 5.43415 13.731 5.31694 13.8482C5.19973 13.9654 5.04076 14.0312 4.875 14.0312H2.375C2.20924 14.0312 2.05027 13.9654 1.93306 13.8482C1.81585 13.731 1.75 13.572 1.75 13.4062V10.9062ZM9.875 10.2812C9.70924 10.2812 9.55027 10.3471 9.43306 10.4643C9.31585 10.5815 9.25 10.7405 9.25 10.9062C9.25 11.072 9.31585 11.231 9.43306 11.3482C9.55027 11.4654 9.70924 11.5312 9.875 11.5312H19.875C20.0408 11.5312 20.1997 11.4654 20.3169 11.3482C20.4342 11.231 20.5 11.072 20.5 10.9062C20.5 10.7405 20.4342 10.5815 20.3169 10.4643C20.1997 10.3471 20.0408 10.2812 19.875 10.2812H9.875ZM9.875 12.7812C9.70924 12.7812 9.55027 12.8471 9.43306 12.9643C9.31585 13.0815 9.25 13.2405 9.25 13.4062C9.25 13.572 9.31585 13.731 9.43306 13.8482C9.55027 13.9654 9.70924 14.0312 9.875 14.0312H17.375C17.5408 14.0312 17.6997 13.9654 17.8169 13.8482C17.9342 13.731 18 13.572 18 13.4062C18 13.2405 17.9342 13.0815 17.8169 12.9643C17.6997 12.8471 17.5408 12.7812 17.375 12.7812H9.875Z" fill="#111111"/>
</svg>
