<svg width="20" height="20" viewBox="0 0 20 20" fill="none" xmlns="http://www.w3.org/2000/svg">
<path d="M14.5872 5.45469C14.1121 5.45469 13.6758 5.18179 13.4577 4.76076L12.8969 3.63022C12.5386 2.9207 11.6039 2.33594 10.8094 2.33594H9.02562C8.22332 2.33594 7.2886 2.9207 6.93029 3.63022L6.36946 4.76076C6.15136 5.18179 5.71515 5.45469 5.24 5.45469C3.54972 5.45469 2.20996 6.88151 2.31901 8.56564L2.72405 15.0059C2.81752 16.612 3.68214 17.9297 5.83199 17.9297H13.9952C16.1451 17.9297 17.0019 16.612 17.1032 15.0059L17.5082 8.56564C17.6172 6.88151 16.2775 5.45469 14.5872 5.45469ZM8.7452 6.42929H11.082C11.4014 6.42929 11.6662 6.69439 11.6662 7.01406C11.6662 7.33373 11.4014 7.59882 11.082 7.59882H8.7452C8.42584 7.59882 8.161 7.33373 8.161 7.01406C8.161 6.69439 8.42584 6.42929 8.7452 6.42929ZM9.9136 14.9045C8.46479 14.9045 7.28081 13.7272 7.28081 12.2691C7.28081 10.8111 8.457 9.63381 9.9136 9.63381C11.3702 9.63381 12.5464 10.8111 12.5464 12.2691C12.5464 13.7272 11.3624 14.9045 9.9136 14.9045Z" fill="white"/>
</svg>
