<svg width="18" height="18" viewBox="0 0 18 18" fill="none" xmlns="http://www.w3.org/2000/svg">
<path d="M15 4.75879H7C5.89543 4.75879 5 5.65422 5 6.75879V14.7588C5 15.8634 5.89543 16.7588 7 16.7588H15C16.1046 16.7588 17 15.8634 17 14.7588V6.75879C17 5.65422 16.1046 4.75879 15 4.75879Z" stroke="#6B7280" stroke-width="1.5" stroke-linecap="round" stroke-linejoin="round"/>
<path d="M13 4.75879V2.75879C13 2.22836 12.7893 1.71965 12.4142 1.34458C12.0391 0.969503 11.5304 0.758789 11 0.758789H3C2.46957 0.758789 1.96086 0.969503 1.58579 1.34458C1.21071 1.71965 1 2.22836 1 2.75879V10.7588C1 11.2892 1.21071 11.7979 1.58579 12.173C1.96086 12.5481 2.46957 12.7588 3 12.7588H5" stroke="#6B7280" stroke-width="1.5" stroke-linecap="round" stroke-linejoin="round"/>
</svg>
