<svg width="247" height="205" viewBox="0 0 247 205" fill="none" xmlns="http://www.w3.org/2000/svg">
<path d="M116.231 204.76C142.868 204.76 164.462 201 164.462 196.363C164.462 191.725 142.868 187.966 116.231 187.966C89.5937 187.966 68 191.725 68 196.363C68 201 89.5937 204.76 116.231 204.76Z" fill="#E5E7EB"/>
<path d="M150.727 121.168C146.55 117.461 148.008 105.165 148.008 105.165H102.409C102.409 105.165 103.867 117.454 99.6905 121.168C95.5137 124.881 87.3331 126.729 87.3331 137.634V194.731H163.146V137.634C163.115 126.735 154.897 124.881 150.727 121.168Z" fill="white"/>
<path d="M163.115 195.041H87.3022C87.2203 195.041 87.1417 195.008 87.0838 194.95C87.0258 194.892 86.9933 194.814 86.9933 194.732V137.634C86.9933 129.145 92.0104 125.944 96.0451 123.374C97.2528 122.652 98.4033 121.838 99.4866 120.94C103.497 117.374 102.119 105.32 102.106 105.196C102.1 105.153 102.103 105.109 102.116 105.067C102.129 105.026 102.151 104.987 102.181 104.955C102.21 104.924 102.245 104.899 102.285 104.882C102.324 104.865 102.366 104.857 102.409 104.856H148.008C148.051 104.857 148.093 104.865 148.132 104.882C148.172 104.899 148.207 104.924 148.237 104.955C148.266 104.987 148.288 105.026 148.301 105.067C148.314 105.109 148.317 105.153 148.311 105.196C148.311 105.32 146.92 117.374 150.93 120.94C152.014 121.838 153.164 122.652 154.372 123.374C158.407 125.944 163.424 129.145 163.424 137.634V194.732C163.424 194.772 163.416 194.812 163.4 194.85C163.385 194.887 163.362 194.922 163.333 194.95C163.305 194.979 163.271 195.002 163.233 195.017C163.196 195.033 163.155 195.041 163.115 195.041ZM87.6112 194.423H162.806V137.634C162.806 129.485 158.153 126.513 154.044 123.899C152.806 123.158 151.626 122.321 150.516 121.397C146.618 117.931 147.427 107.544 147.662 105.474H102.755C102.965 107.544 103.799 117.931 99.9006 121.397C98.791 122.321 97.6115 123.158 96.3726 123.899C92.2637 126.519 87.6112 129.46 87.6112 137.634V194.423Z" fill="#0A6375"/>
<path d="M117.176 172.815C114.977 176.472 117.442 184.597 117.442 184.597L120.704 186.964C123.048 188.373 125.856 188.794 128.51 188.132C131.165 187.471 133.447 185.783 134.857 183.439C136.266 181.095 136.686 178.287 136.025 175.633C135.364 172.979 133.676 170.696 131.332 169.287L127.68 167.52C127.68 167.52 119.345 169.151 117.176 172.815Z" fill="#FFB9AA"/>
<path d="M125.969 188.75C124.045 188.752 122.158 188.226 120.513 187.23L117.226 184.845C117.17 184.807 117.13 184.75 117.114 184.684C117.009 184.351 114.643 176.392 116.88 172.654C119.129 168.947 127.272 167.285 127.618 167.217C127.68 167.196 127.748 167.196 127.81 167.217L131.437 168.984C133.45 170.17 135.016 171.987 135.892 174.153C136.768 176.32 136.905 178.714 136.282 180.966C135.659 183.218 134.311 185.202 132.446 186.61C130.582 188.019 128.305 188.773 125.969 188.756V188.75ZM117.677 184.425L120.853 186.729C121.98 187.405 123.229 187.852 124.528 188.045C125.828 188.237 127.153 188.172 128.428 187.853C129.702 187.534 130.901 186.966 131.957 186.184C133.012 185.401 133.903 184.418 134.579 183.291C135.254 182.164 135.701 180.915 135.894 179.615C136.086 178.315 136.021 176.99 135.702 175.716C135.383 174.441 134.816 173.242 134.033 172.187C133.25 171.131 132.267 170.24 131.14 169.565L127.637 167.853C126.691 168.057 119.388 169.707 117.411 172.988C115.434 176.269 117.411 183.479 117.677 184.412V184.425Z" fill="#0A6375"/>
<path d="M123.738 187.094C129.433 187.094 134.05 182.477 134.05 176.782C134.05 171.087 129.433 166.47 123.738 166.47C118.043 166.47 113.426 171.087 113.426 176.782C113.426 182.477 118.043 187.094 123.738 187.094Z" fill="#FFB9AA"/>
<path d="M123.719 187.396C121.376 187.39 119.1 186.608 117.247 185.173C115.395 183.739 114.069 181.731 113.477 179.463C112.884 177.196 113.059 174.796 113.974 172.638C114.888 170.481 116.491 168.686 118.533 167.535C120.574 166.384 122.939 165.941 125.258 166.274C127.578 166.608 129.722 167.7 131.356 169.38C132.99 171.059 134.022 173.233 134.292 175.561C134.561 177.889 134.053 180.24 132.845 182.249C131.902 183.825 130.564 185.129 128.964 186.031C127.364 186.933 125.556 187.404 123.719 187.396ZM123.757 166.772C122.936 166.773 122.119 166.872 121.322 167.068C118.857 167.683 116.72 169.214 115.345 171.35C113.971 173.487 113.463 176.066 113.925 178.564C114.386 181.062 115.783 183.29 117.831 184.793C119.878 186.297 122.422 186.963 124.944 186.655C127.465 186.348 129.775 185.091 131.401 183.14C133.028 181.189 133.849 178.691 133.698 176.155C133.546 173.62 132.434 171.237 130.586 169.494C128.739 167.75 126.297 166.777 123.757 166.772Z" fill="#0A6375"/>
<path d="M117.955 172.055C118.387 172.315 118.814 172.568 119.24 172.834C119.326 172.883 119.37 172.877 119.431 172.834C119.934 172.271 120.572 171.845 121.285 171.598C122.027 171.333 122.841 171.35 123.571 171.647C123.769 171.721 123.967 171.82 124.189 171.913L122.99 173.903C122.689 173.725 122.336 173.655 121.989 173.705C121.724 173.775 121.462 173.86 121.205 173.958V173.983L123.676 175.472L123.855 175.293C124.285 174.816 124.768 174.391 125.295 174.026C125.684 173.749 126.14 173.583 126.615 173.545C127.091 173.507 127.568 173.598 127.995 173.81C128.746 174.123 129.364 174.689 129.74 175.411C130.116 176.132 130.227 176.963 130.053 177.758C129.96 178.203 129.812 178.635 129.682 179.099L130.646 179.673L129.546 181.527L128.557 180.909C128.236 181.218 127.94 181.527 127.624 181.799C127.011 182.337 126.234 182.652 125.419 182.695C124.718 182.709 124.029 182.518 123.435 182.145L124.591 180.162C124.941 180.346 125.341 180.414 125.732 180.355C126.123 180.296 126.486 180.114 126.766 179.834L124.103 178.234C123.775 178.543 123.448 178.852 123.114 179.154C122.721 179.528 122.244 179.801 121.724 179.951C121.188 180.085 120.624 180.046 120.111 179.84C119.472 179.615 118.907 179.217 118.48 178.691C118.173 178.311 117.954 177.869 117.837 177.394C117.721 176.92 117.71 176.426 117.806 175.948C117.881 175.558 118.035 175.188 118.146 174.805L118.196 174.675L116.861 173.872L117.955 172.055ZM127.89 178.024C128.034 177.698 128.081 177.338 128.026 176.986C127.971 176.688 127.808 176.421 127.569 176.235C127.33 176.05 127.031 175.958 126.729 175.979C126.301 176.101 125.915 176.335 125.61 176.658L127.89 178.024ZM119.858 175.713C119.814 176.018 119.793 176.326 119.796 176.633C119.81 176.799 119.859 176.959 119.941 177.104C120.024 177.248 120.136 177.372 120.272 177.468C120.407 177.564 120.562 177.63 120.725 177.659C120.889 177.689 121.057 177.683 121.217 177.641C121.542 177.498 121.833 177.288 122.07 177.023L119.858 175.713Z" fill="white"/>
<path d="M123.627 115.978C120.883 119.228 121.94 127.643 121.94 127.643L124.764 130.522C126.843 132.302 129.544 133.183 132.273 132.971C135.002 132.758 137.535 131.471 139.315 129.392C141.094 127.312 141.975 124.611 141.763 121.882C141.551 119.153 140.263 116.62 138.184 114.841L134.903 112.499C134.903 112.499 126.407 112.734 123.627 115.978Z" fill="#FFB9AA"/>
<path d="M131.461 133.296C128.939 133.288 126.502 132.379 124.591 130.732L121.742 127.834C121.698 127.783 121.668 127.721 121.656 127.655C121.613 127.309 120.587 119.067 123.417 115.755C126.247 112.443 134.538 112.177 134.909 112.165C134.975 112.167 135.038 112.187 135.094 112.221L138.375 114.569C140.032 115.976 141.216 117.859 141.768 119.962C142.32 122.064 142.213 124.286 141.461 126.326C140.71 128.365 139.35 130.125 137.566 131.368C135.782 132.61 133.66 133.274 131.486 133.271L131.461 133.296ZM122.237 127.501L124.986 130.306C127.006 132.026 129.626 132.874 132.271 132.663C134.916 132.451 137.368 131.198 139.089 129.178C140.81 127.158 141.657 124.538 141.446 121.893C141.235 119.248 139.981 116.796 137.961 115.075L134.798 112.814C133.834 112.851 126.358 113.265 123.862 116.181C121.365 119.098 122.119 126.543 122.237 127.501Z" fill="#0A6375"/>
<path d="M129.478 131.294C135.173 131.294 139.79 126.677 139.79 120.982C139.79 115.287 135.173 110.67 129.478 110.67C123.783 110.67 119.166 115.287 119.166 120.982C119.166 126.677 123.783 131.294 129.478 131.294Z" fill="#FFB9AA"/>
<path d="M129.472 131.598C127.76 131.598 126.074 131.184 124.556 130.391C123.039 129.599 121.736 128.451 120.758 127.046C119.779 125.642 119.155 124.021 118.938 122.323C118.721 120.626 118.918 118.9 119.511 117.295C120.104 115.689 121.077 114.251 122.346 113.102C123.615 111.953 125.143 111.128 126.8 110.697C128.457 110.267 130.193 110.242 131.861 110.627C133.529 111.012 135.079 111.794 136.38 112.907C138.029 114.319 139.206 116.202 139.753 118.303C140.299 120.404 140.189 122.622 139.436 124.659C138.683 126.695 137.325 128.452 135.543 129.693C133.762 130.933 131.643 131.598 129.472 131.598ZM129.472 110.98C127.125 110.979 124.853 111.804 123.054 113.31C121.255 114.817 120.042 116.908 119.629 119.217C119.217 121.527 119.629 123.909 120.796 125.945C121.962 127.981 123.807 129.542 126.008 130.355C128.21 131.168 130.627 131.18 132.836 130.39C135.046 129.6 136.907 128.058 138.094 126.034C139.281 124.01 139.718 121.633 139.329 119.319C138.94 117.005 137.749 114.901 135.966 113.377C134.163 111.824 131.864 110.967 129.484 110.961L129.472 110.98Z" fill="#0A6375"/>
<path d="M124.554 115.366L125.697 116.342C125.708 116.357 125.723 116.368 125.739 116.376C125.756 116.384 125.774 116.388 125.792 116.388C125.811 116.388 125.829 116.384 125.845 116.376C125.862 116.368 125.877 116.357 125.888 116.342C126.473 115.873 127.165 115.557 127.902 115.422C128.677 115.287 129.474 115.439 130.145 115.848C130.331 115.959 130.504 116.089 130.695 116.213L129.188 117.974C128.917 117.751 128.58 117.625 128.23 117.615C127.956 117.639 127.684 117.678 127.414 117.733V117.788L129.608 119.642L129.818 119.487C130.318 119.09 130.863 118.754 131.443 118.486C131.872 118.277 132.349 118.187 132.824 118.228C133.3 118.268 133.756 118.436 134.143 118.715C134.906 119.186 135.452 119.939 135.663 120.81C135.841 121.52 135.789 122.268 135.515 122.947C135.354 123.374 135.138 123.775 134.934 124.183L135.786 124.912L134.402 126.537L133.519 125.783C133.148 126.037 132.815 126.29 132.45 126.506C131.812 126.918 131.055 127.107 130.298 127.044C129.542 126.98 128.827 126.667 128.267 126.154L129.75 124.418C130.061 124.662 130.444 124.798 130.84 124.805C131.236 124.812 131.624 124.689 131.943 124.455L129.589 122.441C129.212 122.688 128.842 122.941 128.459 123.182C128.01 123.484 127.495 123.673 126.957 123.732C126.406 123.779 125.854 123.649 125.382 123.361C124.791 123.032 124.301 122.547 123.967 121.959C123.726 121.534 123.583 121.061 123.547 120.574C123.51 120.087 123.582 119.598 123.757 119.141C123.91 118.775 124.086 118.418 124.282 118.072L124.35 117.949L123.163 116.936L124.554 115.366ZM133.364 122.898C133.559 122.6 133.666 122.253 133.673 121.897C133.675 121.59 133.562 121.293 133.356 121.064C133.15 120.836 132.867 120.692 132.561 120.661C132.113 120.706 131.686 120.873 131.325 121.143L133.364 122.898ZM125.857 119.296C125.762 119.586 125.69 119.884 125.641 120.186C125.627 120.351 125.649 120.518 125.706 120.675C125.763 120.831 125.854 120.973 125.972 121.091C126.089 121.208 126.231 121.299 126.388 121.356C126.544 121.413 126.711 121.435 126.877 121.421C127.22 121.338 127.541 121.184 127.822 120.97L125.857 119.296Z" fill="white"/>
<path d="M96.9101 101.451V109.799C96.9101 113.259 109.583 116.064 125.209 116.064C140.834 116.064 153.507 113.259 153.507 109.799V101.451H96.9101Z" fill="white"/>
<path d="M125.209 116.373C111.146 116.373 96.6012 113.902 96.6012 109.799V101.452C96.6012 101.37 96.6337 101.291 96.6917 101.233C96.7496 101.175 96.8282 101.143 96.9101 101.143H153.507C153.589 101.143 153.667 101.175 153.725 101.233C153.783 101.291 153.816 101.37 153.816 101.452V109.799C153.816 113.914 139.271 116.373 125.209 116.373ZM97.2191 101.76V109.793C97.2191 112.672 108.464 115.749 125.209 115.749C141.953 115.749 153.198 112.66 153.198 109.793V101.76H97.2191Z" fill="#0A6375"/>
<path d="M125.209 107.716C140.837 107.716 153.507 104.911 153.507 101.451C153.507 97.9906 140.837 95.1855 125.209 95.1855C109.58 95.1855 96.9101 97.9906 96.9101 101.451C96.9101 104.911 109.58 107.716 125.209 107.716Z" fill="white"/>
<path d="M125.209 108.019C111.146 108.019 96.6012 105.548 96.6012 101.451C96.6012 97.3546 111.146 94.8955 125.209 94.8955C139.271 94.8955 153.816 97.367 153.816 101.47C153.816 105.572 139.271 108.019 125.209 108.019ZM125.209 95.5134C108.464 95.5134 97.2191 98.6027 97.2191 101.47C97.2191 104.337 108.464 107.42 125.209 107.42C141.953 107.42 153.198 104.33 153.198 101.47C153.198 98.6089 141.953 95.5134 125.209 95.5134Z" fill="#0A6375"/>
<path d="M125.209 203.121C146.144 203.121 163.115 199.365 163.115 194.731C163.115 190.096 146.144 186.34 125.209 186.34C104.273 186.34 87.3022 190.096 87.3022 194.731C87.3022 199.365 104.273 203.121 125.209 203.121Z" fill="white"/>
<path d="M125.209 203.425C103.781 203.425 86.9933 199.607 86.9933 194.732C86.9933 189.857 103.781 186.032 125.209 186.032C146.636 186.032 163.424 189.851 163.424 194.732C163.424 199.613 146.636 203.425 125.209 203.425ZM125.209 186.65C107.049 186.65 87.6112 189.894 87.6112 194.732C87.6112 199.57 107.049 202.807 125.209 202.807C143.368 202.807 162.806 199.564 162.806 194.732C162.806 189.9 143.368 186.65 125.209 186.65Z" fill="#0A6375"/>
<path d="M91.8436 187.613C91.7617 187.613 91.6831 187.581 91.6252 187.523C91.5672 187.465 91.5347 187.386 91.5347 187.304V136.021C91.5347 132.654 95.9648 129.385 99.8697 126.494C102.218 124.757 104.436 123.12 104.769 122.014C105.341 120.077 105.687 118.08 105.801 116.064C105.8 116.022 105.808 115.981 105.824 115.943C105.84 115.905 105.864 115.871 105.895 115.843C105.925 115.815 105.961 115.793 106 115.78C106.04 115.767 106.081 115.763 106.123 115.767C106.163 115.769 106.203 115.778 106.24 115.795C106.277 115.812 106.31 115.837 106.337 115.866C106.365 115.896 106.386 115.931 106.4 115.969C106.414 116.007 106.421 116.048 106.419 116.089C106.303 118.159 105.948 120.21 105.363 122.199C104.961 123.497 102.774 125.116 100.234 126.988C96.6383 129.651 92.1525 132.969 92.1525 136.021V187.304C92.1525 187.386 92.12 187.465 92.062 187.523C92.0041 187.581 91.9255 187.613 91.8436 187.613Z" fill="#E5E7EB"/>
<path d="M158.573 187.613C158.492 187.613 158.413 187.581 158.355 187.523C158.297 187.465 158.265 187.386 158.265 187.305V136.021C158.265 132.969 153.779 129.651 150.183 126.988C147.643 125.134 145.456 123.497 145.054 122.2C144.469 120.21 144.114 118.16 143.998 116.089C143.996 116.048 144.003 116.008 144.017 115.97C144.031 115.932 144.052 115.897 144.08 115.867C144.107 115.837 144.14 115.813 144.177 115.796C144.214 115.779 144.254 115.769 144.295 115.768C144.374 115.768 144.451 115.798 144.509 115.854C144.566 115.909 144.6 115.984 144.603 116.064C144.718 118.081 145.064 120.077 145.635 122.014C145.969 123.12 148.187 124.758 150.535 126.494C154.44 129.385 158.87 132.672 158.87 136.021V187.305C158.87 187.384 158.839 187.461 158.784 187.519C158.729 187.576 158.653 187.61 158.573 187.613Z" fill="#E5E7EB"/>
<path d="M97.0399 185.907V191.215C97.0399 193.223 101.983 194.854 108.007 194.854C114.031 194.854 118.968 193.223 118.968 191.215V185.907H97.0399Z" fill="#FFB9AA"/>
<path d="M108.007 195.163C102.446 195.163 96.731 193.687 96.731 191.215V185.908C96.731 185.826 96.7635 185.747 96.8214 185.689C96.8794 185.631 96.958 185.599 97.0399 185.599H118.968C119.05 185.599 119.129 185.631 119.187 185.689C119.244 185.747 119.277 185.826 119.277 185.908V191.215C119.277 193.687 113.543 195.163 108.007 195.163ZM97.3488 186.217V191.215C97.3488 192.822 101.631 194.545 108.007 194.545C114.383 194.545 118.659 192.822 118.659 191.215V186.217H97.3488Z" fill="#0A6375"/>
<path d="M108.007 189.547C114.061 189.547 118.968 187.918 118.968 185.908C118.968 183.898 114.061 182.269 108.007 182.269C101.953 182.269 97.046 183.898 97.046 185.908C97.046 187.918 101.953 189.547 108.007 189.547Z" fill="#0A6375"/>
<path d="M108.007 189.856C102.446 189.856 96.731 188.38 96.731 185.908C96.731 183.437 102.465 181.96 108.007 181.96C113.549 181.96 119.277 183.437 119.277 185.908C119.277 188.38 113.543 189.856 108.007 189.856ZM108.007 182.578C101.631 182.578 97.3488 184.302 97.3488 185.908C97.3488 187.515 101.631 189.238 108.007 189.238C114.383 189.238 118.659 187.515 118.659 185.908C118.659 184.302 114.377 182.578 108.007 182.578Z" fill="#0A6375"/>
<path d="M99.6226 178.636V183.937C99.6226 185.951 104.535 187.576 110.59 187.576C116.645 187.576 121.551 185.951 121.551 183.937V178.636H99.6226Z" fill="#FFB9AA"/>
<path d="M110.59 187.886C105.029 187.886 99.3137 186.409 99.3137 183.937V178.636C99.3137 178.554 99.3462 178.476 99.4041 178.418C99.4621 178.36 99.5407 178.327 99.6226 178.327H121.551C121.633 178.327 121.711 178.36 121.769 178.418C121.827 178.476 121.86 178.554 121.86 178.636V183.937C121.86 186.409 116.126 187.886 110.59 187.886ZM99.9315 178.926V183.919C99.9315 185.532 104.213 187.249 110.59 187.249C116.966 187.249 121.242 185.532 121.242 183.919V178.926H99.9315Z" fill="#0A6375"/>
<path d="M110.59 182.276C116.643 182.276 121.551 180.646 121.551 178.636C121.551 176.626 116.643 174.997 110.59 174.997C104.536 174.997 99.6287 176.626 99.6287 178.636C99.6287 180.646 104.536 182.276 110.59 182.276Z" fill="#0A6375"/>
<path d="M110.59 182.578C105.029 182.578 99.3137 181.101 99.3137 178.636C99.3137 176.17 105.047 174.688 110.59 174.688C116.132 174.688 121.86 176.164 121.86 178.636C121.86 181.107 116.126 182.578 110.59 182.578ZM110.59 175.305C104.213 175.305 99.9315 177.023 99.9315 178.636C99.9315 180.248 104.213 181.96 110.59 181.96C116.966 181.96 121.242 180.242 121.242 178.636C121.242 177.029 116.96 175.305 110.59 175.305Z" fill="#0A6375"/>
<path d="M97.4044 170.523V175.837C97.4044 177.845 102.316 179.476 108.372 179.476C114.427 179.476 119.333 177.845 119.333 175.837V170.523H97.4044Z" fill="#FFB9AA"/>
<path d="M108.347 179.778C102.786 179.778 97.0707 178.302 97.0707 175.83V170.523C97.0707 170.441 97.1033 170.362 97.1612 170.304C97.2192 170.246 97.2977 170.214 97.3797 170.214H119.308C119.39 170.214 119.468 170.246 119.526 170.304C119.584 170.362 119.617 170.441 119.617 170.523V175.836C119.648 178.308 113.883 179.778 108.347 179.778ZM97.6886 170.832V175.836C97.6886 177.443 101.97 179.167 108.347 179.167C114.723 179.167 119.03 177.437 119.03 175.836V170.832H97.6886Z" fill="#0A6375"/>
<path d="M108.347 174.162C114.4 174.162 119.308 172.533 119.308 170.523C119.308 168.513 114.4 166.884 108.347 166.884C102.293 166.884 97.3859 168.513 97.3859 170.523C97.3859 172.533 102.293 174.162 108.347 174.162Z" fill="#0A6375"/>
<path d="M108.347 174.472C102.786 174.472 97.0707 172.995 97.0707 170.523C97.0707 168.052 102.805 166.575 108.347 166.575C113.889 166.575 119.648 168.052 119.648 170.523C119.648 172.995 113.883 174.472 108.347 174.472ZM108.347 167.193C101.97 167.193 97.6886 168.917 97.6886 170.523C97.6886 172.13 101.97 173.854 108.347 173.854C114.723 173.854 119.03 172.13 119.03 170.523C119.03 168.917 114.705 167.187 108.347 167.187V167.193Z" fill="#0A6375"/>
<path d="M125.901 184.981V190.289C125.901 192.303 130.806 193.928 136.862 193.928C142.917 193.928 147.829 192.303 147.829 190.289V184.981H125.901Z" fill="#FFB9AA"/>
<path d="M136.862 194.236C131.301 194.236 125.592 192.76 125.592 190.288V184.981C125.592 184.899 125.624 184.82 125.682 184.762C125.74 184.704 125.819 184.672 125.901 184.672H147.829C147.911 184.672 147.989 184.704 148.047 184.762C148.105 184.82 148.138 184.899 148.138 184.981V190.288C148.138 192.76 142.404 194.236 136.862 194.236ZM126.209 185.29V190.288C126.209 191.901 130.491 193.619 136.862 193.619C143.232 193.619 147.52 191.901 147.52 190.288V185.29H126.209Z" fill="#0A6375"/>
<path d="M136.862 188.62C142.915 188.62 147.823 186.991 147.823 184.981C147.823 182.971 142.915 181.342 136.862 181.342C130.808 181.342 125.901 182.971 125.901 184.981C125.901 186.991 130.808 188.62 136.862 188.62Z" fill="#0A6375"/>
<path d="M136.862 188.929C131.301 188.929 125.592 187.453 125.592 184.981C125.592 182.51 131.325 181.039 136.862 181.039C142.398 181.039 148.138 182.516 148.138 184.981C148.138 187.446 142.404 188.929 136.862 188.929ZM136.862 181.657C130.491 181.657 126.209 183.375 126.209 184.981C126.209 186.588 130.491 188.311 136.862 188.311C143.232 188.311 147.52 186.594 147.52 184.981C147.52 183.368 143.238 181.657 136.862 181.657Z" fill="#0A6375"/>
<path d="M124.473 178.691V183.999C124.473 186.007 129.379 187.638 135.434 187.638C141.489 187.638 146.401 186.007 146.401 183.999V178.691H124.473Z" fill="#FFB9AA"/>
<path d="M135.434 187.946C129.873 187.946 124.164 186.47 124.164 183.998V178.691C124.164 178.609 124.197 178.53 124.255 178.472C124.313 178.414 124.391 178.382 124.473 178.382H146.401C146.483 178.382 146.562 178.414 146.62 178.472C146.678 178.53 146.71 178.609 146.71 178.691V183.998C146.71 186.47 140.977 187.946 135.434 187.946ZM124.782 179V183.998C124.782 185.605 129.064 187.329 135.434 187.329C141.804 187.329 146.093 185.605 146.093 183.998V179H124.782Z" fill="#0A6375"/>
<path d="M135.434 182.33C141.488 182.33 146.395 180.701 146.395 178.691C146.395 176.681 141.488 175.052 135.434 175.052C129.381 175.052 124.473 176.681 124.473 178.691C124.473 180.701 129.381 182.33 135.434 182.33Z" fill="#0A6375"/>
<path d="M135.434 182.633C129.873 182.633 124.164 181.156 124.164 178.685C124.164 176.213 129.898 174.736 135.434 174.736C140.97 174.736 146.71 176.213 146.71 178.685C146.71 181.156 140.977 182.633 135.434 182.633ZM135.434 175.354C129.064 175.354 124.782 177.078 124.782 178.685C124.782 180.291 129.064 182.015 135.434 182.015C141.804 182.015 146.093 180.291 146.093 178.685C146.093 177.078 141.811 175.36 135.434 175.36V175.354Z" fill="#0A6375"/>
<path d="M126.24 171.029V176.337C126.24 178.345 131.146 179.976 137.201 179.976C143.256 179.976 148.169 178.345 148.169 176.337V171.029H126.24Z" fill="#FFB9AA"/>
<path d="M137.201 180.285C131.641 180.285 125.931 178.809 125.931 176.337V171.03C125.931 170.948 125.964 170.869 126.022 170.811C126.08 170.753 126.158 170.721 126.24 170.721H148.169C148.251 170.721 148.329 170.753 148.387 170.811C148.445 170.869 148.478 170.948 148.478 171.03V176.337C148.478 178.809 142.744 180.285 137.201 180.285ZM126.549 171.339V176.337C126.549 177.944 130.831 179.667 137.201 179.667C143.572 179.667 147.86 177.944 147.86 176.337V171.339H126.549Z" fill="#0A6375"/>
<path d="M137.201 174.669C143.255 174.669 148.162 173.04 148.162 171.03C148.162 169.02 143.255 167.391 137.201 167.391C131.148 167.391 126.24 169.02 126.24 171.03C126.24 173.04 131.148 174.669 137.201 174.669Z" fill="#0A6375"/>
<path d="M137.201 174.977C131.641 174.977 125.931 173.501 125.931 171.029C125.931 168.558 131.665 167.081 137.201 167.081C142.738 167.081 148.478 168.558 148.478 171.029C148.478 173.501 142.744 174.977 137.201 174.977ZM137.201 167.699C130.831 167.699 126.549 169.423 126.549 171.029C126.549 172.636 130.831 174.36 137.201 174.36C143.572 174.36 147.86 172.636 147.86 171.029C147.86 169.423 143.578 167.699 137.201 167.699Z" fill="#0A6375"/>
<path d="M124.473 163.337V168.644C124.473 170.652 129.379 172.284 135.434 172.284C141.489 172.284 146.401 170.652 146.401 168.644V163.337H124.473Z" fill="#FFB9AA"/>
<path d="M135.434 172.593C129.873 172.593 124.164 171.116 124.164 168.645V163.337C124.164 163.255 124.197 163.177 124.255 163.119C124.313 163.061 124.391 163.028 124.473 163.028H146.401C146.483 163.028 146.562 163.061 146.62 163.119C146.678 163.177 146.71 163.255 146.71 163.337V168.645C146.71 171.116 140.977 172.593 135.434 172.593ZM124.782 163.646V168.645C124.782 170.251 129.064 171.975 135.434 171.975C141.804 171.975 146.093 170.251 146.093 168.645V163.646H124.782Z" fill="#0A6375"/>
<path d="M135.434 166.977C141.488 166.977 146.395 165.347 146.395 163.337C146.395 161.328 141.488 159.698 135.434 159.698C129.381 159.698 124.473 161.328 124.473 163.337C124.473 165.347 129.381 166.977 135.434 166.977Z" fill="#0A6375"/>
<path d="M135.434 167.285C129.873 167.285 124.164 165.808 124.164 163.337C124.164 160.865 129.898 159.389 135.434 159.389C140.97 159.389 146.71 160.865 146.71 163.337C146.71 165.808 140.977 167.285 135.434 167.285ZM135.434 160.007C129.064 160.007 124.782 161.73 124.782 163.337C124.782 164.943 129.064 166.667 135.434 166.667C141.804 166.667 146.093 164.943 146.093 163.337C146.093 161.73 141.811 160.007 135.434 160.007Z" fill="#0A6375"/>
<path d="M128.008 157.047V162.354C128.008 164.362 132.913 165.987 138.969 165.987C145.024 165.987 149.923 164.362 149.923 162.354V157.047H128.008Z" fill="#FFB9AA"/>
<path d="M138.968 166.297C133.408 166.297 127.699 164.826 127.699 162.355V157.047C127.699 156.965 127.731 156.887 127.789 156.829C127.847 156.771 127.926 156.738 128.007 156.738H149.923C150.005 156.738 150.084 156.771 150.142 156.829C150.2 156.887 150.232 156.965 150.232 157.047V162.355C150.245 164.826 144.511 166.297 138.968 166.297ZM128.298 157.356V162.355C128.298 163.961 132.58 165.679 138.95 165.679C145.32 165.679 149.608 163.961 149.608 162.355V157.356H128.298Z" fill="#0A6375"/>
<path d="M138.969 160.687C145.022 160.687 149.93 159.057 149.93 157.047C149.93 155.038 145.022 153.408 138.969 153.408C132.915 153.408 128.008 155.038 128.008 157.047C128.008 159.057 132.915 160.687 138.969 160.687Z" fill="#0A6375"/>
<path d="M138.968 161.008C133.408 161.008 127.699 159.538 127.699 157.066C127.699 154.595 133.432 153.118 138.968 153.118C144.505 153.118 150.245 154.595 150.245 157.066C150.245 159.538 144.511 161.008 138.968 161.008ZM138.968 153.736C132.623 153.717 128.298 155.448 128.298 157.048C128.298 158.648 132.623 160.39 138.968 160.39C145.314 160.39 149.627 158.673 149.627 157.066C149.627 155.46 145.345 153.717 138.968 153.717V153.736Z" fill="#0A6375"/>
<path d="M125.604 150.758V156.065C125.604 158.08 130.51 159.705 136.565 159.705C142.62 159.705 147.532 158.08 147.532 156.065V150.764L125.604 150.758Z" fill="#FFB9AA"/>
<path d="M136.565 160.007C131.004 160.007 125.295 158.53 125.295 156.058V150.757C125.295 150.675 125.328 150.597 125.386 150.539C125.443 150.481 125.522 150.448 125.604 150.448H147.532C147.614 150.448 147.693 150.481 147.751 150.539C147.809 150.597 147.841 150.675 147.841 150.757V156.065C147.841 158.536 142.107 160.007 136.565 160.007ZM125.913 151.066V156.065C125.913 157.677 130.195 159.395 136.565 159.395C142.935 159.395 147.223 157.677 147.223 156.065V151.072L125.913 151.066Z" fill="#0A6375"/>
<path d="M136.565 154.397C142.619 154.397 147.526 152.767 147.526 150.757C147.526 148.748 142.619 147.118 136.565 147.118C130.511 147.118 125.604 148.748 125.604 150.757C125.604 152.767 130.511 154.397 136.565 154.397Z" fill="#FFB9AA"/>
<path d="M136.565 154.7C131.004 154.7 125.295 153.223 125.295 150.758C125.295 148.292 131.023 146.81 136.565 146.81C142.107 146.81 147.841 148.286 147.841 150.758C147.841 153.229 142.107 154.7 136.565 154.7ZM136.565 147.427C130.195 147.427 125.913 149.145 125.913 150.758C125.913 152.37 130.195 154.082 136.565 154.082C142.935 154.082 147.223 152.364 147.223 150.758C147.223 149.151 142.941 147.415 136.565 147.415V147.427Z" fill="#0A6375"/>
<path d="M113.518 191.655L113.759 195.609C113.809 198.26 118.869 200.317 125.06 200.2C131.251 200.082 136.231 197.839 136.182 195.189L135.941 191.234L113.518 191.655Z" fill="#FFB9AA"/>
<path d="M124.591 200.514C122.01 200.563 119.442 200.127 117.022 199.229C114.767 198.315 113.506 197.029 113.481 195.614L113.24 191.672C113.238 191.589 113.266 191.507 113.321 191.444C113.379 191.383 113.459 191.347 113.543 191.345L135.966 190.925C136.044 190.925 136.12 190.955 136.178 191.009C136.235 191.063 136.27 191.137 136.275 191.215L136.516 195.17C136.571 198.049 131.573 200.391 125.091 200.508L124.591 200.514ZM113.877 191.957L114.087 195.608C114.087 196.757 115.255 197.87 117.238 198.698C119.744 199.616 122.406 200.036 125.073 199.933C130.979 199.822 135.935 197.672 135.892 195.238L135.669 191.592L113.877 191.957Z" fill="#0A6375"/>
<path d="M124.813 196.255C131.006 196.139 135.986 193.893 135.936 191.239C135.886 188.585 130.826 186.526 124.634 186.642C118.441 186.758 113.462 189.003 113.511 191.658C113.561 194.312 118.621 196.37 124.813 196.255Z" fill="#FFB9AA"/>
<path d="M124.319 196.561C121.738 196.608 119.171 196.172 116.75 195.275C114.495 194.361 113.234 193.076 113.21 191.661C113.16 188.794 118.152 186.452 124.634 186.335C127.384 186.229 130.127 186.664 132.709 187.614C134.965 188.528 136.225 189.813 136.25 191.228C136.305 194.095 131.307 196.437 124.825 196.554L124.319 196.561ZM125.141 186.959H124.646C118.739 187.07 113.784 189.22 113.827 191.655C113.827 192.792 115.001 193.904 116.985 194.707C119.488 195.627 122.148 196.047 124.813 195.943C130.726 195.838 135.681 193.681 135.632 191.247C135.632 190.11 134.464 188.998 132.481 188.195C130.133 187.327 127.643 186.907 125.141 186.959Z" fill="#0A6375"/>
<path d="M132.691 190.771L131.103 190.931C130.998 190.931 130.986 190.931 131.029 191.012C131.194 191.159 131.32 191.345 131.395 191.553C131.469 191.762 131.49 191.986 131.455 192.204C131.338 192.624 130.837 192.915 130.071 193.082C129.861 193.125 129.632 193.162 129.398 193.199L127.865 191.864C128.153 191.855 128.431 191.754 128.656 191.574C128.732 191.456 128.788 191.327 128.823 191.191H128.767L125.802 191.487L125.882 191.63C126.103 191.947 126.256 192.307 126.333 192.686C126.426 193.304 125.931 193.675 124.887 193.86C123.879 194.028 122.846 193.989 121.853 193.743C121.102 193.584 120.385 193.289 119.74 192.871C119.413 192.649 119.122 192.414 118.826 192.186L117.738 192.297L116.991 191.222L118.06 191.111C118.005 190.907 117.964 190.701 117.936 190.493C117.93 190.288 117.986 190.087 118.096 189.915C118.206 189.743 118.366 189.608 118.554 189.529C119.032 189.29 119.553 189.147 120.086 189.109L120.982 190.091C120.247 190.215 119.858 190.468 119.988 190.9L122.916 190.592C122.836 190.375 122.743 190.165 122.675 189.974C122.62 189.863 122.6 189.739 122.617 189.617C122.633 189.494 122.686 189.38 122.768 189.288C123.036 189.045 123.373 188.89 123.732 188.843C124.341 188.717 124.964 188.669 125.585 188.701C126.599 188.745 127.596 188.966 128.533 189.356C128.885 189.51 129.188 189.683 129.521 189.85L129.639 189.912L131.196 189.751L132.691 190.771ZM120.846 191.963C121.097 192.175 121.387 192.337 121.699 192.439C121.98 192.551 122.281 192.603 122.583 192.592C122.885 192.582 123.182 192.508 123.454 192.377C123.67 192.179 123.54 191.938 123.485 191.698L120.846 191.963ZM127.643 190.11C127.334 189.986 127.074 189.869 126.778 189.776C126.08 189.56 125.202 189.621 125.042 189.893C124.961 190.035 125.042 190.202 125.122 190.375L127.643 190.11Z" fill="white"/>
<path d="M132.184 145.012L131.387 148.892C130.769 151.468 135.094 154.768 141.113 156.263C147.131 157.758 152.512 156.881 153.149 154.304L153.946 150.424L132.184 145.012Z" fill="#FFB9AA"/>
<path d="M146.717 157.301C144.799 157.285 142.89 157.036 141.032 156.559C134.767 155.002 130.399 151.616 131.084 148.817L131.882 144.943C131.89 144.903 131.906 144.864 131.929 144.83C131.952 144.796 131.983 144.767 132.017 144.745C132.09 144.703 132.176 144.69 132.258 144.708L154.02 150.121C154.097 150.14 154.163 150.188 154.206 150.254C154.248 150.321 154.263 150.402 154.248 150.479L153.451 154.359C153.112 155.75 151.598 156.72 149.194 157.109C148.375 157.238 147.546 157.302 146.717 157.301ZM132.419 145.388L131.69 148.953C131.072 151.332 135.447 154.514 141.187 155.96C143.762 156.658 146.449 156.843 149.095 156.503C151.209 156.164 152.574 155.33 152.852 154.23L153.581 150.652L132.419 145.388Z" fill="#0A6375"/>
<path d="M153.953 150.433C154.594 147.857 150.241 144.556 144.231 143.061C138.22 141.566 132.829 142.442 132.188 145.019C131.547 147.595 135.899 150.896 141.91 152.391C147.92 153.886 153.312 153.01 153.953 150.433Z" fill="#FFB9AA"/>
<path d="M147.507 153.421C145.592 153.404 143.685 153.155 141.829 152.679C139.147 152.069 136.611 150.937 134.365 149.349C132.419 147.878 131.542 146.309 131.894 144.937C132.246 143.566 133.747 142.596 136.151 142.206C141.656 141.602 147.196 142.98 151.777 146.093C153.717 147.563 154.601 149.127 154.248 150.498C153.902 151.876 152.395 152.846 149.985 153.235C149.165 153.363 148.337 153.425 147.507 153.421ZM138.622 142.633C137.824 142.63 137.027 142.69 136.238 142.812C134.124 143.158 132.759 143.986 132.481 145.086C132.203 146.186 133.031 147.557 134.736 148.855C139.183 151.859 144.55 153.194 149.886 152.624C152.006 152.284 153.371 151.456 153.643 150.35C153.921 149.25 153.099 147.878 151.394 146.581C149.21 145.046 146.748 143.95 144.146 143.356C142.341 142.895 140.486 142.652 138.622 142.633Z" fill="#0A6375"/>
<path d="M150.924 149.132L149.349 148.872C149.25 148.872 149.231 148.872 149.262 148.934C149.377 149.117 149.447 149.324 149.464 149.54C149.481 149.755 149.446 149.971 149.361 150.17C149.139 150.547 148.601 150.707 147.792 150.664C147.582 150.664 147.347 150.621 147.112 150.602L145.981 148.909C146.261 148.977 146.556 148.953 146.822 148.841C146.922 148.744 147.009 148.634 147.081 148.514L147.032 148.477L144.091 147.995C144.091 148.044 144.091 148.094 144.134 148.149C144.263 148.516 144.318 148.904 144.295 149.292C144.227 149.91 143.677 150.145 142.595 150.046C141.576 149.949 140.588 149.644 139.691 149.15C139.008 148.801 138.395 148.33 137.881 147.76C137.622 147.457 137.411 147.142 137.177 146.858L136.095 146.685L135.651 145.449L136.713 145.622C136.713 145.416 136.725 145.209 136.75 145.004C136.795 144.805 136.899 144.623 137.049 144.484C137.199 144.345 137.388 144.255 137.591 144.226C138.113 144.123 138.65 144.123 139.172 144.226L139.79 145.406C139.043 145.338 138.604 145.474 138.61 145.925L141.526 146.395C141.526 146.16 141.471 145.937 141.458 145.715C141.438 145.597 141.453 145.476 141.5 145.367C141.547 145.257 141.625 145.163 141.724 145.097C142.045 144.928 142.41 144.863 142.768 144.912C143.399 144.948 144.022 145.067 144.622 145.264C145.59 145.565 146.496 146.038 147.297 146.66C147.6 146.895 147.847 147.142 148.125 147.396L148.218 147.482L149.769 147.729L150.924 149.132ZM139.185 147.21C139.37 147.481 139.607 147.712 139.883 147.89C140.126 148.07 140.403 148.198 140.697 148.267C140.992 148.336 141.297 148.344 141.594 148.291C141.854 148.156 141.792 147.884 141.798 147.674L139.185 147.21ZM146.259 147.173C145.987 146.969 145.771 146.784 145.512 146.623C144.894 146.228 144.029 146.061 143.806 146.283C143.683 146.401 143.726 146.586 143.757 146.771L146.259 147.173Z" fill="white"/>
<path d="M105.393 152.357L108.773 154.427C110.973 155.91 115.57 152.944 119.017 147.809C122.465 142.675 123.497 137.306 121.291 135.823L117.918 133.753L105.393 152.357Z" fill="#FFB9AA"/>
<path d="M110.126 155.101C109.586 155.113 109.054 154.962 108.6 154.669L105.233 152.599C105.164 152.553 105.115 152.482 105.098 152.401C105.08 152.32 105.096 152.236 105.14 152.166L117.664 133.562C117.707 133.496 117.775 133.448 117.852 133.431C117.93 133.414 118.011 133.428 118.078 133.469L121.452 135.539C123.843 137.152 122.879 142.602 119.277 147.965C116.33 152.358 112.666 155.101 110.126 155.101ZM105.801 152.24L108.891 154.15C110.923 155.515 115.415 152.518 118.721 147.619C122.026 142.719 123.102 137.424 121.075 136.058L117.986 134.149L105.801 152.24Z" fill="#0A6375"/>
<path d="M115.642 145.712C119.1 140.573 120.118 135.206 117.916 133.724C115.713 132.242 111.124 135.206 107.666 140.344C104.208 145.482 103.191 150.849 105.393 152.331C107.596 153.814 112.184 150.85 115.642 145.712Z" fill="#FFB9AA"/>
<path d="M106.747 153.031C106.207 153.042 105.677 152.889 105.227 152.592C104.053 151.801 103.651 150.053 104.108 147.649C105.426 142.271 108.613 137.537 113.098 134.291C115.143 132.975 116.917 132.678 118.091 133.469C119.265 134.26 119.66 136.015 119.209 138.412C117.885 143.787 114.7 148.519 110.219 151.77C109.202 152.506 107.999 152.943 106.747 153.031ZM116.558 133.66C115.425 133.749 114.338 134.151 113.42 134.822C109.071 137.98 105.982 142.578 104.701 147.797C104.306 149.898 104.615 151.474 105.554 152.122C106.493 152.771 108.069 152.456 109.879 151.294C114.225 148.133 117.313 143.537 118.597 138.319C118.999 136.218 118.69 134.649 117.745 133.994C117.392 133.765 116.978 133.649 116.558 133.66Z" fill="#0A6375"/>
<path d="M115.669 136.133L114.89 137.529C114.841 137.616 114.847 137.64 114.89 137.634C115.108 137.58 115.336 137.583 115.552 137.643C115.769 137.702 115.966 137.816 116.126 137.974C116.404 138.308 116.367 138.864 116.052 139.611C115.965 139.809 115.86 140.013 115.761 140.229L113.784 140.711C113.943 140.472 114.021 140.189 114.007 139.902C113.947 139.774 113.872 139.653 113.784 139.543L113.735 139.581L112.283 142.182H112.437C112.827 142.184 113.211 142.266 113.568 142.423C114.112 142.688 114.149 143.319 113.698 144.276C113.248 145.199 112.617 146.023 111.844 146.698C111.282 147.224 110.629 147.643 109.916 147.934C109.546 148.076 109.193 148.175 108.829 148.292L108.297 149.244H106.994L107.513 148.305C107.315 148.235 107.123 148.15 106.938 148.052C106.766 147.942 106.632 147.783 106.554 147.595C106.475 147.407 106.456 147.2 106.499 147.001C106.576 146.475 106.757 145.968 107.031 145.512L108.347 145.333C108.032 146.013 108.007 146.476 108.44 146.618C108.917 145.761 109.395 144.902 109.873 144.042C109.644 143.986 109.422 143.937 109.212 143.875C109.09 143.856 108.977 143.801 108.887 143.717C108.797 143.634 108.733 143.525 108.705 143.405C108.654 143.046 108.719 142.68 108.891 142.361C109.135 141.783 109.458 141.24 109.848 140.748C110.461 139.942 111.215 139.253 112.073 138.716C112.4 138.512 112.691 138.363 113.043 138.184L113.16 138.129L113.926 136.757L115.669 136.133ZM109.854 146.513C110.172 146.43 110.47 146.285 110.732 146.087C110.984 145.921 111.199 145.704 111.364 145.451C111.529 145.198 111.64 144.914 111.69 144.616C111.652 144.326 111.381 144.289 111.152 144.202L109.854 146.513ZM112.233 139.846C111.949 140.038 111.702 140.18 111.461 140.365C110.88 140.816 110.429 141.57 110.559 141.854C110.627 142.009 110.818 142.027 111.004 142.064L112.233 139.846Z" fill="white"/>
<path d="M97.2314 164.227L97.4724 168.181C97.5218 170.838 102.582 172.889 108.773 172.778C114.964 172.667 119.944 170.418 119.895 167.761L119.654 163.807L97.2314 164.227Z" fill="#FFB9AA"/>
<path d="M108.26 173.094C102.082 173.094 97.2191 170.981 97.1388 168.188L96.904 164.246C96.9002 164.205 96.9054 164.164 96.9193 164.126C96.9332 164.087 96.9554 164.052 96.9843 164.023C97.0113 163.992 97.0443 163.966 97.0815 163.948C97.1187 163.93 97.1592 163.92 97.2005 163.918L119.648 163.48C119.726 163.478 119.802 163.506 119.859 163.559C119.917 163.612 119.952 163.686 119.957 163.764L120.198 167.718C120.198 169.145 119.018 170.48 116.799 171.481C114.251 172.529 111.522 173.066 108.767 173.063L108.26 173.094ZM97.5589 164.53L97.7813 168.163C97.8308 170.634 102.86 172.581 108.767 172.488C111.441 172.487 114.088 171.96 116.558 170.937C118.511 170.06 119.648 168.904 119.598 167.768L119.376 164.122L97.5589 164.53Z" fill="#0A6375"/>
<path d="M108.53 168.828C114.722 168.712 119.702 166.467 119.652 163.812C119.603 161.158 114.543 159.1 108.35 159.215C102.158 159.331 97.1781 161.577 97.2277 164.231C97.2773 166.885 102.337 168.943 108.53 168.828Z" fill="#FFB9AA"/>
<path d="M108.026 169.139C101.81 169.139 96.9781 167.026 96.9039 164.233C96.8298 161.44 101.847 159.031 108.328 158.907C111.08 158.805 113.825 159.24 116.41 160.186C118.665 161.107 119.92 162.392 119.944 163.807C119.975 165.216 118.764 166.55 116.546 167.551C113.998 168.599 111.269 169.137 108.514 169.133L108.026 169.139ZM108.86 159.519H108.359C102.452 159.63 97.4971 161.78 97.5404 164.221C97.5836 166.661 102.625 168.62 108.532 168.509C111.2 168.511 113.842 167.992 116.311 166.983C118.264 166.099 119.401 164.944 119.345 163.807C119.345 162.676 118.177 161.564 116.194 160.755C113.848 159.889 111.36 159.47 108.86 159.519Z" fill="#0A6375"/>
<path d="M116.404 163.35L114.816 163.504C114.711 163.504 114.699 163.535 114.742 163.585C114.907 163.732 115.033 163.918 115.108 164.126C115.182 164.335 115.203 164.559 115.168 164.777C115.051 165.197 114.55 165.488 113.784 165.661C113.574 165.704 113.345 165.735 113.111 165.778L111.578 164.437C111.865 164.427 112.142 164.328 112.369 164.153C112.443 164.031 112.501 163.901 112.542 163.764H112.48L109.515 164.06L109.595 164.196C109.817 164.516 109.97 164.878 110.046 165.259C110.139 165.877 109.644 166.248 108.6 166.427C107.592 166.594 106.56 166.557 105.566 166.316C104.815 166.153 104.099 165.855 103.453 165.438C103.126 165.216 102.835 164.987 102.545 164.752L101.451 164.864L100.71 163.795L101.779 163.684C101.723 163.48 101.68 163.274 101.649 163.066C101.643 162.861 101.698 162.658 101.808 162.485C101.919 162.312 102.078 162.176 102.267 162.096C102.743 161.858 103.262 161.717 103.793 161.682L104.695 162.658C103.96 162.788 103.565 163.035 103.694 163.467L106.623 163.165C106.543 162.948 106.456 162.732 106.382 162.547C106.332 162.435 106.314 162.312 106.33 162.191C106.347 162.069 106.397 161.955 106.475 161.861C106.742 161.616 107.079 161.458 107.439 161.41C108.048 161.283 108.671 161.237 109.292 161.274C110.306 161.315 111.304 161.536 112.239 161.929C112.598 162.077 112.894 162.25 113.228 162.423L113.345 162.485L114.902 162.324L116.404 163.35ZM104.559 164.542C104.812 164.75 105.101 164.909 105.412 165.012C105.693 165.123 105.993 165.176 106.295 165.166C106.597 165.157 106.894 165.085 107.167 164.956C107.383 164.759 107.259 164.512 107.167 164.277L104.559 164.542ZM111.356 162.689C111.041 162.565 110.781 162.442 110.485 162.349C109.787 162.133 108.909 162.195 108.755 162.466C108.668 162.615 108.755 162.781 108.835 162.948L111.356 162.689Z" fill="white"/>
<path d="M128.594 80.9381L131.19 83.9101C132.839 85.9738 138.079 84.528 142.892 80.6663C147.705 76.8046 150.263 72.0161 148.613 69.9524L146.025 66.9805L128.594 80.9381Z" fill="#FFB9AA"/>
<path d="M133.636 85.1646C133.137 85.2038 132.635 85.1291 132.168 84.9461C131.701 84.7631 131.282 84.4765 130.942 84.108L128.36 81.1423C128.333 81.111 128.312 81.0747 128.299 81.0354C128.287 80.9962 128.282 80.9548 128.286 80.9136C128.295 80.829 128.337 80.7515 128.403 80.6974L145.827 66.7397C145.89 66.6904 145.969 66.6673 146.049 66.6754C146.128 66.6835 146.202 66.722 146.253 66.783L148.848 69.7549C149.732 70.8609 149.59 72.6465 148.447 74.7844C147.075 77.1555 145.253 79.2356 143.084 80.9075C139.673 83.6384 136.12 85.1646 133.636 85.1646ZM129.039 80.9816L131.418 83.7064C132.944 85.6094 138.104 84.1018 142.694 80.4255C144.8 78.8065 146.57 76.7916 147.903 74.494C148.904 72.6404 149.077 71.0277 148.373 70.1689L145.981 67.4255L129.039 80.9816Z" fill="#0A6375"/>
<path d="M140.3 77.6963C145.113 73.8417 147.676 69.0458 146.025 66.9842C144.374 64.9227 139.134 66.3762 134.321 70.2307C129.508 74.0852 126.945 78.8812 128.596 80.9427C130.247 83.0043 135.487 81.5508 140.3 77.6963Z" fill="#FFB9AA"/>
<path d="M131.041 82.1924C130.542 82.2312 130.041 82.1562 129.576 81.9732C129.11 81.7902 128.692 81.5039 128.353 81.1359C126.568 78.9054 129.107 74.0057 134.124 70.0142C136.228 68.252 138.657 66.9191 141.273 66.0908C143.615 65.442 145.382 65.6891 146.266 66.7889C148.045 69.0195 145.512 73.913 140.495 77.9106C137.084 80.6848 133.531 82.1924 131.041 82.1924ZM143.578 66.3564C142.854 66.3711 142.135 66.4812 141.44 66.6839C138.906 67.4814 136.553 68.7682 134.514 70.4715C129.917 74.1787 127.322 78.8559 128.835 80.7466C130.349 82.6373 135.515 81.1297 140.105 77.4534C144.696 73.7771 147.297 69.0689 145.784 67.1782C145.501 66.8851 145.156 66.6591 144.774 66.5168C144.392 66.3746 143.984 66.3198 143.578 66.3564Z" fill="#0A6375"/>
<path d="M143.176 68.5928L142.021 69.6864C141.947 69.7544 141.947 69.7791 142.021 69.7914C142.242 69.8062 142.455 69.8769 142.641 69.9968C142.827 70.1168 142.979 70.2822 143.084 70.4773C143.244 70.8789 143.046 71.3917 142.527 72.0096L142.07 72.5101L140.05 72.3865C140.291 72.127 140.495 71.8798 140.495 71.6821C140.482 71.542 140.449 71.4046 140.396 71.2743H140.34L138.184 73.3318L138.326 73.3936C138.695 73.5089 139.036 73.7004 139.327 73.9559C139.766 74.3699 139.611 74.9754 138.901 75.7539C138.206 76.5021 137.365 77.0994 136.429 77.5086C135.742 77.848 134.999 78.0575 134.236 78.1265C133.84 78.1265 133.482 78.1265 133.099 78.1265L132.308 78.8741L131.072 78.4787L131.851 77.7434C131.685 77.6186 131.528 77.4823 131.381 77.3356C131.249 77.1811 131.168 76.9898 131.148 76.7877C131.128 76.5856 131.171 76.3822 131.27 76.2049C131.505 75.7359 131.828 75.3164 132.221 74.9692L133.525 75.1978C133.025 75.7477 132.864 76.1802 133.229 76.4335L135.354 74.4069C135.162 74.2895 134.959 74.1783 134.779 74.0547C134.665 73.9996 134.571 73.9108 134.509 73.8003C134.447 73.6898 134.421 73.5629 134.433 73.4369C134.497 73.0817 134.668 72.7542 134.921 72.4977C135.329 72.0269 135.796 71.6115 136.312 71.262C137.134 70.6783 138.055 70.2472 139.03 69.9892C139.401 69.8903 139.747 69.847 140.112 69.7791H140.241L141.372 68.704L143.176 68.5928ZM134.563 76.7301C134.889 76.7449 135.214 76.6967 135.521 76.588C136.139 76.3779 136.806 75.8342 136.868 75.4758C136.93 75.1175 136.67 75.0742 136.479 74.9198L134.563 76.7301ZM138.802 71.1075C138.48 71.2002 138.184 71.262 137.912 71.367C137.226 71.6203 136.577 72.2011 136.614 72.5101C136.614 72.6769 136.812 72.7572 136.973 72.8437L138.802 71.1075Z" fill="white"/>
<path d="M106.055 62.6924L103.299 65.5099C101.377 67.3264 103.249 72.43 107.476 76.9157C111.702 81.4015 116.688 83.5764 118.597 81.766L121.353 78.9424L106.055 62.6924Z" fill="#FFB9AA"/>
<path d="M116.775 82.7113C115.747 82.6727 114.739 82.4268 113.809 81.9884C111.341 80.8094 109.126 79.1597 107.29 77.1319C102.879 72.4485 101.056 67.246 103.132 65.2874L105.882 62.4761C105.909 62.4445 105.943 62.4198 105.982 62.4037C106.021 62.3877 106.062 62.3807 106.104 62.3834C106.188 62.3859 106.268 62.4214 106.326 62.4822L121.631 78.7322C121.686 78.7897 121.716 78.866 121.716 78.9454C121.716 79.0247 121.686 79.1011 121.631 79.1585L118.875 81.9822C118.298 82.4908 117.543 82.7525 116.775 82.7113ZM106.055 63.1372L103.521 65.726C101.748 67.4005 103.663 72.4238 107.698 76.7056C109.495 78.6844 111.666 80.2868 114.087 81.4199C116.039 82.2726 117.633 82.3158 118.455 81.5435L120.995 78.9423L106.055 63.1372Z" fill="#0A6375"/>
<path d="M121.39 78.9524C123.313 77.1417 121.445 72.0347 117.218 67.5456C112.99 63.0566 108.004 60.8853 106.082 62.696C104.159 64.5067 106.027 69.6137 110.254 74.1028C114.482 78.5919 119.467 80.7631 121.39 78.9524Z" fill="#FFB9AA"/>
<path d="M119.524 79.8933C117.016 79.8933 113.345 77.8173 110.027 74.3325C105.616 69.6491 103.793 64.4466 105.869 62.4941C106.895 61.5241 108.687 61.5241 110.911 62.4941C113.384 63.6718 115.602 65.3215 117.442 67.3506C119.357 69.3032 120.87 71.6122 121.897 74.1472C122.731 76.4209 122.626 78.2066 121.6 79.1766C121.027 79.6752 120.283 79.9321 119.524 79.8933ZM107.939 62.3644C107.341 62.3301 106.753 62.527 106.296 62.9143C104.528 64.5764 106.444 69.5996 110.479 73.8877C114.513 78.1757 119.413 80.3815 121.18 78.7194C122.002 77.9471 122.051 76.353 121.322 74.3511C120.324 71.8908 118.855 69.6492 116.997 67.7522C115.218 65.7811 113.068 64.1792 110.67 63.0379C109.815 62.6303 108.886 62.4011 107.939 62.3644Z" fill="#0A6375"/>
<path d="M119.555 76.2363L118.375 75.1736C118.301 75.0994 118.276 75.1056 118.27 75.1736C118.269 75.3961 118.212 75.6148 118.104 75.8093C117.996 76.0038 117.841 76.1677 117.652 76.2857C117.269 76.4773 116.731 76.3228 116.076 75.8532C115.903 75.7235 115.73 75.5814 115.545 75.4331L115.502 73.4126C115.702 73.6168 115.961 73.753 116.243 73.8019C116.383 73.7772 116.519 73.7314 116.645 73.666V73.6104L114.445 71.627C114.424 71.6748 114.408 71.7244 114.396 71.7753C114.308 72.1524 114.144 72.5077 113.914 72.8195C113.537 73.2891 112.919 73.184 112.06 72.5353C111.261 71.9032 110.599 71.1148 110.114 70.2183C109.731 69.5582 109.471 68.8337 109.348 68.0804C109.292 67.6912 109.274 67.3266 109.243 66.9497L108.433 66.2206L108.724 64.954L109.521 65.6646C109.651 65.4916 109.756 65.3062 109.885 65.1641C110.03 65.0217 110.214 64.9266 110.414 64.8913C110.614 64.856 110.819 64.8821 111.004 64.9664C111.499 65.1594 111.953 65.4469 112.338 65.8128L112.233 67.1289C111.646 66.6779 111.195 66.5481 110.96 66.9374L113.148 68.896C113.253 68.6921 113.352 68.482 113.457 68.2781C113.502 68.1642 113.58 68.0663 113.682 67.9969C113.783 67.9276 113.902 67.89 114.025 67.8889C114.385 67.9204 114.726 68.0629 115.001 68.2967C115.505 68.6664 115.959 69.0982 116.354 69.5818C116.998 70.3574 117.5 71.24 117.837 72.1893C117.967 72.5538 118.035 72.8936 118.134 73.252C118.134 73.2891 118.134 73.3323 118.134 73.3817L119.302 74.4198L119.555 76.2363ZM110.757 68.3276C110.768 68.6535 110.842 68.9743 110.973 69.2729C111.232 69.8908 111.826 70.5087 112.209 70.5087C112.592 70.5087 112.598 70.28 112.734 70.0761L110.757 68.3276ZM116.7 72.1028C116.583 71.7876 116.497 71.4849 116.367 71.2377C116.064 70.5766 115.428 69.9711 115.131 70.0391C114.964 70.07 114.902 70.2491 114.828 70.4222L116.7 72.1028Z" fill="white"/>
<path d="M140.655 179.5C138.456 183.164 140.921 191.283 140.921 191.283L144.183 193.656C146.527 195.065 149.335 195.485 151.99 194.824C154.644 194.163 156.926 192.475 158.336 190.131C159.745 187.787 160.165 184.979 159.504 182.324C158.843 179.67 157.155 177.388 154.811 175.978L151.184 174.205C151.184 174.205 142.861 175.836 140.655 179.5Z" fill="#FFB9AA"/>
<path d="M149.485 195.435C147.562 195.437 145.676 194.913 144.029 193.921L140.742 191.536C140.689 191.496 140.65 191.44 140.631 191.376C140.526 191.036 138.159 183.078 140.396 179.339C142.645 175.632 150.788 173.97 151.134 173.902C151.197 173.884 151.263 173.884 151.326 173.902L154.953 175.675C156.948 176.869 158.496 178.685 159.359 180.844C160.223 183.002 160.355 185.385 159.734 187.625C159.113 189.866 157.774 191.841 155.923 193.247C154.071 194.653 151.81 195.413 149.485 195.41V195.435ZM141.193 191.11L144.369 193.415C146.643 194.753 149.354 195.139 151.911 194.488C154.469 193.836 156.665 192.201 158.022 189.938C159.379 187.674 159.787 184.966 159.156 182.404C158.526 179.841 156.908 177.632 154.656 176.256L151.159 174.532C150.214 174.73 142.91 176.386 140.933 179.661C138.95 182.948 140.927 190.171 141.193 191.098V191.11Z" fill="#0A6375"/>
<path d="M147.254 193.78C152.949 193.78 157.566 189.163 157.566 183.468C157.566 177.772 152.949 173.155 147.254 173.155C141.559 173.155 136.942 177.772 136.942 183.468C136.942 189.163 141.559 193.78 147.254 193.78Z" fill="#FFB9AA"/>
<path d="M147.242 194.088C145.318 194.09 143.431 193.565 141.786 192.568C140.59 191.849 139.548 190.902 138.718 189.781C137.889 188.66 137.288 187.386 136.951 186.033C136.613 184.679 136.546 183.272 136.752 181.893C136.958 180.513 137.434 179.188 138.153 177.992C138.871 176.797 139.818 175.754 140.94 174.925C142.061 174.095 143.335 173.495 144.688 173.157C146.042 172.82 147.448 172.752 148.828 172.959C150.207 173.165 151.533 173.641 152.728 174.359C154.722 175.555 156.268 177.372 157.129 179.532C157.99 181.691 158.119 184.073 157.496 186.313C156.874 188.552 155.533 190.526 153.681 191.93C151.828 193.335 149.566 194.093 147.242 194.088ZM147.273 173.463C144.854 173.462 142.517 174.337 140.695 175.926C138.872 177.515 137.688 179.711 137.36 182.107C137.033 184.503 137.585 186.937 138.915 188.957C140.244 190.977 142.261 192.446 144.591 193.093C146.921 193.74 149.407 193.521 151.587 192.475C153.768 191.43 155.496 189.629 156.45 187.408C157.405 185.186 157.522 182.693 156.78 180.392C156.038 178.09 154.486 176.136 152.413 174.891C150.861 173.958 149.084 173.465 147.273 173.463Z" fill="#0A6375"/>
<path d="M141.471 178.747C141.903 179.001 142.33 179.26 142.756 179.52C142.843 179.569 142.886 179.563 142.948 179.489C143.453 178.929 144.09 178.504 144.801 178.253C145.544 177.991 146.357 178.008 147.087 178.302C147.285 178.383 147.483 178.475 147.705 178.568L146.513 180.558C146.208 180.383 145.854 180.314 145.506 180.36C145.24 180.43 144.978 180.515 144.721 180.613V180.669L147.192 182.158L147.378 181.973C147.805 181.505 148.286 181.09 148.811 180.737C149.199 180.459 149.655 180.292 150.131 180.253C150.606 180.213 151.083 180.304 151.511 180.514C152.343 180.854 153.009 181.506 153.365 182.331C153.658 183.004 153.732 183.752 153.575 184.469C153.482 184.907 153.334 185.346 153.204 185.803L154.174 186.384L153.074 188.238L152.08 187.62C151.758 187.929 151.462 188.238 151.147 188.51C150.533 189.047 149.756 189.363 148.941 189.405C148.24 189.423 147.55 189.231 146.958 188.856L148.138 186.897C148.485 187.088 148.886 187.16 149.278 187.101C149.67 187.041 150.031 186.855 150.306 186.569L147.643 184.975C147.316 185.278 147.026 185.593 146.655 185.89C146.266 186.265 145.791 186.539 145.271 186.687C144.733 186.82 144.168 186.783 143.652 186.582C143.015 186.353 142.451 185.956 142.021 185.433C141.714 185.053 141.495 184.61 141.38 184.136C141.264 183.661 141.255 183.167 141.354 182.689C141.443 182.302 141.554 181.921 141.687 181.546C141.687 181.503 141.687 181.466 141.737 181.41L140.402 180.607L141.471 178.747ZM151.406 184.716C151.548 184.389 151.595 184.03 151.542 183.678C151.487 183.381 151.325 183.115 151.087 182.93C150.849 182.744 150.552 182.652 150.251 182.671C149.822 182.79 149.434 183.023 149.126 183.344L151.406 184.716ZM143.374 182.405C143.33 182.708 143.309 183.014 143.312 183.319C143.326 183.485 143.376 183.646 143.458 183.79C143.54 183.934 143.652 184.059 143.788 184.156C143.923 184.252 144.078 184.318 144.241 184.349C144.404 184.379 144.572 184.374 144.733 184.333C145.061 184.191 145.354 183.98 145.592 183.715L143.374 182.405Z" fill="white"/>
<path d="M104.498 177.393C100.308 176.541 93.4686 181.564 93.4686 181.564L92.3194 185.426C92.0472 186.752 92.0389 188.12 92.2951 189.449C92.5513 190.779 93.0669 192.046 93.8124 193.176C94.558 194.307 95.519 195.279 96.6405 196.039C97.7619 196.798 99.022 197.329 100.349 197.601C103.028 198.151 105.816 197.613 108.099 196.108C110.382 194.602 111.974 192.251 112.524 189.572L112.993 185.568C112.993 185.568 108.681 178.252 104.498 177.393Z" fill="#FFB9AA"/>
<path d="M102.446 198.123C100.868 198.126 99.3095 197.777 97.8831 197.103C96.4567 196.428 95.1985 195.444 94.1998 194.222C93.2011 193 92.4871 191.572 92.1094 190.039C91.7318 188.507 91.7001 186.91 92.0166 185.364L93.172 181.478C93.1905 181.412 93.2322 181.355 93.2894 181.317C93.5736 181.107 100.29 176.22 104.559 177.091C108.829 177.969 113.08 185.124 113.259 185.408C113.289 185.467 113.302 185.533 113.296 185.599L112.833 189.609C112.348 192.008 111.05 194.166 109.157 195.718C107.264 197.269 104.894 198.119 102.446 198.123ZM93.7343 181.75L92.6159 185.519C92.0866 188.12 92.6124 190.826 94.0776 193.039C95.5428 195.253 97.8275 196.794 100.429 197.323C103.03 197.853 105.735 197.327 107.949 195.862C110.163 194.396 111.704 192.112 112.233 189.51L112.684 185.636C112.184 184.808 108.205 178.469 104.448 177.697C100.679 176.931 94.5251 181.194 93.7343 181.75Z" fill="#0A6375"/>
<path d="M102.947 195.245C108.642 195.245 113.259 190.628 113.259 184.932C113.259 179.237 108.642 174.62 102.947 174.62C97.2514 174.62 92.6345 179.237 92.6345 184.932C92.6345 190.628 97.2514 195.245 102.947 195.245Z" fill="#FFB9AA"/>
<path d="M102.965 195.559C101.467 195.582 99.9802 195.287 98.6035 194.694C97.2269 194.102 95.9911 193.225 94.9774 192.121C93.9637 191.017 93.195 189.711 92.7217 188.289C92.2484 186.867 92.0813 185.361 92.2313 183.869C92.3813 182.378 92.845 180.935 93.5921 179.636C94.3391 178.337 95.3525 177.21 96.5658 176.33C97.779 175.45 99.1647 174.837 100.632 174.53C102.099 174.224 103.614 174.231 105.078 174.552C107.838 175.118 110.26 176.758 111.812 179.11C113.363 181.462 113.917 184.334 113.352 187.094C112.852 189.482 111.548 191.625 109.657 193.166C107.767 194.707 105.404 195.551 102.965 195.559ZM102.922 174.929C101.032 174.935 99.1822 175.477 97.5874 176.491C95.9925 177.506 94.7177 178.952 93.9107 180.661C93.1037 182.37 92.7975 184.273 93.0275 186.149C93.2575 188.025 94.0144 189.798 95.2104 191.261C96.4065 192.725 97.9927 193.82 99.7854 194.419C101.578 195.018 103.504 195.097 105.34 194.647C107.175 194.197 108.846 193.236 110.158 191.875C111.47 190.514 112.369 188.809 112.752 186.958L113.055 187.02L112.752 186.958C113.283 184.359 112.761 181.655 111.3 179.44C109.839 177.225 107.56 175.68 104.961 175.145C104.292 175.006 103.611 174.933 102.928 174.929H102.922Z" fill="#0A6375"/>
<path d="M105.48 177.906C105.381 178.4 105.282 178.888 105.177 179.376C105.177 179.475 105.177 179.512 105.264 179.549C105.958 179.832 106.57 180.284 107.043 180.865C107.538 181.479 107.791 182.253 107.754 183.04C107.754 183.25 107.723 183.466 107.704 183.695L105.437 183.25C105.504 182.907 105.452 182.552 105.288 182.243C105.137 182.012 104.969 181.791 104.788 181.582H104.745L104.164 184.418L104.399 184.523C104.989 184.771 105.549 185.086 106.067 185.462C106.457 185.735 106.766 186.11 106.96 186.545C107.153 186.981 107.225 187.461 107.167 187.934C107.122 188.829 106.73 189.671 106.073 190.281C105.536 190.781 104.855 191.099 104.127 191.19C103.676 191.245 103.219 191.251 102.743 191.282L102.52 192.388L100.426 191.956L100.661 190.819C100.265 190.621 99.8759 190.448 99.5114 190.238C98.8 189.84 98.2445 189.213 97.9358 188.459C97.6853 187.802 97.6358 187.086 97.7937 186.401L100.03 186.865C99.9669 187.256 100.033 187.658 100.22 188.008C100.406 188.359 100.702 188.638 101.062 188.805C101.272 187.779 101.476 186.772 101.68 185.759C101.278 185.555 100.877 185.351 100.481 185.141C99.9902 184.899 99.5659 184.541 99.2457 184.097C98.9391 183.637 98.7875 183.091 98.8132 182.54C98.8134 181.862 98.9993 181.197 99.3507 180.618C99.6068 180.202 99.9518 179.848 100.361 179.581C100.77 179.313 101.233 179.14 101.717 179.073C102.111 179.028 102.507 179.007 102.903 179.011H103.046L103.361 177.485L105.48 177.906ZM103.157 189.262C103.51 189.289 103.864 189.214 104.176 189.046C104.438 188.895 104.636 188.653 104.732 188.366C104.827 188.079 104.814 187.767 104.695 187.489C104.442 187.124 104.094 186.835 103.688 186.655L103.157 189.262ZM102.675 180.945C102.373 181.006 102.075 181.089 101.785 181.193C101.634 181.261 101.5 181.361 101.391 181.486C101.283 181.612 101.203 181.759 101.157 181.918C101.111 182.078 101.1 182.245 101.126 182.409C101.151 182.573 101.211 182.729 101.303 182.867C101.542 183.13 101.832 183.34 102.156 183.485L102.675 180.945Z" fill="white"/>
<path d="M134.878 101.297C133.803 98.3192 131.869 94.1177 129.175 92.6472C124.85 90.3302 115.632 93.6358 115.632 93.6358L113.098 97.5283C112.484 98.6872 112.067 99.94 111.863 101.236L134.878 101.297Z" fill="#FFB9AA"/>
<path d="M134.878 101.606H111.85C111.806 101.607 111.762 101.598 111.721 101.579C111.68 101.561 111.644 101.534 111.615 101.501C111.585 101.466 111.564 101.426 111.552 101.382C111.54 101.338 111.539 101.292 111.547 101.247C111.764 99.9042 112.204 98.6071 112.851 97.4104L115.397 93.4993C115.435 93.4437 115.489 93.4007 115.551 93.3757C115.934 93.2398 124.937 90.0454 129.342 92.4056C132.079 93.8638 134.038 97.9665 135.193 101.192C135.21 101.238 135.216 101.288 135.209 101.338C135.202 101.387 135.184 101.434 135.156 101.474C135.127 101.515 135.089 101.548 135.045 101.571C135.001 101.594 134.952 101.606 134.903 101.606H134.878ZM112.215 100.988H134.458C133.327 97.9541 131.505 94.2592 129.052 92.9555C125.116 90.8548 116.849 93.5734 115.86 93.9318L113.389 97.7317C112.841 98.7522 112.451 99.8502 112.233 100.988H112.215Z" fill="#0A6375"/>
<path d="M136.843 101.297C136.961 99.6695 136.742 98.0354 136.2 96.4964C135.658 94.9574 134.804 93.5466 133.693 92.352C132.582 91.1574 131.236 90.2046 129.74 89.5531C128.244 88.9017 126.63 88.5654 124.998 88.5654C123.367 88.5654 121.753 88.9017 120.257 89.5531C118.761 90.2046 117.415 91.1574 116.304 92.352C115.193 93.5466 114.339 94.9574 113.797 96.4964C113.255 98.0354 113.036 99.6695 113.154 101.297H136.843Z" fill="#FFB9AA"/>
<path d="M136.843 101.606H113.154C113.076 101.606 113.001 101.577 112.944 101.525C112.886 101.472 112.851 101.4 112.845 101.322C112.726 99.6531 112.952 97.9776 113.509 96.3998C114.065 94.8221 114.941 93.3759 116.082 92.1515C117.222 90.927 118.602 89.9505 120.136 89.2828C121.67 88.6151 123.325 88.2705 124.998 88.2705C126.672 88.2705 128.327 88.6151 129.861 89.2828C131.395 89.9505 132.775 90.927 133.915 92.1515C135.056 93.3759 135.931 94.8221 136.488 96.3998C137.045 97.9776 137.271 99.6531 137.152 101.322C137.146 101.4 137.11 101.472 137.053 101.525C136.996 101.577 136.921 101.606 136.843 101.606ZM113.444 100.988H136.553C136.625 99.4261 136.38 97.8654 135.832 96.4006C135.284 94.9358 134.444 93.5974 133.364 92.4663C132.284 91.3352 130.986 90.4348 129.548 89.8196C128.11 89.2045 126.562 88.8873 124.998 88.8873C123.435 88.8873 121.887 89.2045 120.449 89.8196C119.011 90.4348 117.713 91.3352 116.633 92.4663C115.553 93.5974 114.713 94.9358 114.165 96.4006C113.617 97.8654 113.372 99.4261 113.444 100.988Z" fill="#0A6375"/>
<path d="M122.206 99.9072C122.57 100.278 122.947 100.63 123.324 100.995L123.157 101.297H127.569C127.297 101.026 127.019 100.766 126.722 100.519L126.5 100.321L128.069 97.3678H128.131C128.26 97.6572 128.372 97.9543 128.465 98.2575C128.542 98.6524 128.483 99.0619 128.298 99.4191L130.658 100.655C130.751 100.414 130.85 100.185 130.924 99.9505C131.227 99.0944 131.201 98.156 130.85 97.3183C130.52 96.5213 129.995 95.8201 129.324 95.2794C129.237 95.2052 129.225 95.1558 129.274 95.0631C129.552 94.5565 129.824 94.0436 130.096 93.537L127.921 92.4248L127.062 93.988L126.908 93.9448C126.469 93.8117 126.023 93.7023 125.573 93.6173C125.016 93.5349 124.448 93.5757 123.909 93.7369C123.37 93.8981 122.873 94.1758 122.453 94.5503C121.868 95.072 121.441 95.7458 121.217 96.4966C121.011 97.0956 121 97.7446 121.186 98.3502C121.391 98.9459 121.742 99.4811 122.206 99.9072ZM124.937 95.9837C125.29 95.9594 125.646 95.9594 125.999 95.9837C125.511 96.892 125.054 97.7447 124.597 98.6097C124.284 98.3493 124.031 98.0248 123.855 97.6582C123.802 97.4767 123.788 97.2858 123.816 97.0986C123.843 96.9114 123.91 96.7322 124.013 96.5733C124.115 96.4144 124.251 96.2795 124.41 96.1777C124.57 96.076 124.749 96.0098 124.937 95.9837Z" fill="white"/>
<path d="M140.371 101.606H109.329C109.247 101.606 109.169 101.574 109.111 101.516C109.053 101.458 109.02 101.379 109.02 101.297C109.02 101.215 109.053 101.137 109.111 101.079C109.169 101.021 109.247 100.988 109.329 100.988H140.371C140.453 100.988 140.532 101.021 140.59 101.079C140.647 101.137 140.68 101.215 140.68 101.297C140.68 101.379 140.647 101.458 140.59 101.516C140.532 101.574 140.453 101.606 140.371 101.606Z" fill="#0A6375"/>
<g clip-path="url(#clip0_1611_13698)">
<path fill-rule="evenodd" clip-rule="evenodd" d="M194.862 94.4693C194.713 94.1428 194.579 93.8164 194.46 93.4858C194.282 92.99 194.171 92.472 194.02 91.9689C193.956 91.7555 193.78 91.2015 193.769 91.118C193.675 90.3897 194.213 90.1301 194.374 90.0664C194.451 90.0334 195.251 89.7203 195.674 90.587C196.192 91.6465 196.563 92.7534 196.781 93.8767C197.213 94.7659 197.771 95.6169 198.404 96.3531C200.924 99.2809 204.097 98.7808 207.431 97.8545C207.943 97.7091 208.478 97.9981 208.642 98.5019C208.806 99.0095 208.543 99.5576 208.044 99.7409C206.224 100.422 203.311 102.809 202.582 104.675C202.43 105.066 202.502 105.891 202.524 106.713C202.554 107.854 202.532 108.996 202.308 109.534C202.275 109.617 201.839 110.491 201.68 110.645C201.297 111.011 200.9 110.965 200.661 110.889C200.422 110.813 200.122 110.618 199.916 110.216C199.7 109.796 199.536 108.86 199.469 108.668C199.224 107.972 198.708 106.615 198.097 105.494C197.767 104.891 197.441 104.34 197.086 104.118C195.771 103.297 194.182 103.896 192.855 104.445C192.702 104.506 192.551 104.572 192.398 104.633C191.883 104.948 191.321 105.23 190.713 105.472C189.794 105.837 189.405 105.007 189.381 104.952C189.329 104.83 189.088 104.194 189.733 103.741C189.804 103.693 190.346 103.412 190.554 103.303C190.844 103.151 191.142 103.014 191.442 102.88C194.411 101.006 195.412 97.7066 194.862 94.4693ZM196.909 97.6637C198.809 99.8641 200.992 100.589 203.339 100.553L203.339 100.553C202.158 101.639 201.15 102.873 200.73 103.953C200.57 104.362 200.524 105.112 200.523 105.94C200.218 105.251 199.861 104.528 199.485 103.928C199.057 103.244 198.583 102.708 198.141 102.431C197.287 101.898 196.349 101.726 195.402 101.769C196.219 100.533 196.714 99.1325 196.909 97.6637Z" fill="#5FA8EE"/>
</g>
<g clip-path="url(#clip1_1611_13698)">
<path fill-rule="evenodd" clip-rule="evenodd" d="M170.795 48.8335C170.721 48.6714 170.655 48.5093 170.596 48.3452C170.507 48.099 170.452 47.8419 170.377 47.5921C170.345 47.4861 170.258 47.211 170.252 47.1696C170.206 46.808 170.473 46.6791 170.553 46.6475C170.591 46.6311 170.988 46.4756 171.198 46.906C171.455 47.432 171.64 47.9816 171.748 48.5393C171.962 48.9808 172.24 49.4033 172.554 49.7688C173.805 51.2225 175.38 50.9742 177.036 50.5143C177.29 50.4421 177.555 50.5856 177.637 50.8357C177.719 51.0877 177.588 51.3599 177.34 51.4509C176.436 51.7891 174.99 52.974 174.628 53.9009C174.553 54.0949 174.588 54.5045 174.6 54.9124C174.614 55.4789 174.603 56.0461 174.492 56.313C174.476 56.3542 174.259 56.7884 174.18 56.8648C173.99 57.0465 173.793 57.0237 173.674 56.986C173.556 56.9483 173.407 56.8512 173.304 56.6518C173.197 56.4433 173.116 55.9785 173.082 55.8832C172.961 55.5376 172.705 54.8641 172.401 54.3075C172.238 54.0079 172.076 53.7344 171.899 53.6242C171.247 53.2164 170.458 53.5138 169.799 53.7864C169.723 53.8169 169.648 53.8494 169.572 53.8798C169.316 54.0363 169.037 54.1764 168.735 54.2962C168.279 54.4778 168.086 54.0655 168.074 54.038C168.048 53.9774 167.929 53.6619 168.249 53.4371C168.284 53.4133 168.553 53.2738 168.656 53.2195C168.8 53.1441 168.948 53.0759 169.097 53.0094C170.571 52.0788 171.068 50.4409 170.795 48.8335ZM171.812 50.4196C172.755 51.5121 173.839 51.8718 175.004 51.8539L175.004 51.854C174.418 52.3934 173.917 53.0059 173.709 53.5422C173.629 53.7454 173.606 54.1175 173.606 54.5285C173.454 54.1868 173.277 53.8275 173.091 53.5299C172.878 53.1903 172.643 52.9241 172.423 52.7867C171.999 52.522 171.534 52.4363 171.063 52.458C171.469 51.8444 171.715 51.1488 171.812 50.4196Z" fill="#AB92F0"/>
</g>
<g clip-path="url(#clip2_1611_13698)">
<path fill-rule="evenodd" clip-rule="evenodd" d="M59.7118 82.8345C59.6044 82.7225 59.5033 82.6083 59.4078 82.4903C59.2645 82.3133 59.1456 82.1176 59.0124 81.9338C58.9558 81.8558 58.8051 81.6547 58.7886 81.6223C58.6465 81.3384 58.8294 81.1558 58.8859 81.1069C58.9127 81.0824 59.1946 80.8408 59.4906 81.1344C59.8527 81.4931 60.1619 81.892 60.4109 82.3195C60.7135 82.621 61.0625 82.8888 61.4258 83.0992C62.871 83.9355 64.0947 83.2798 65.3237 82.4272C65.512 82.2949 65.7714 82.3368 65.91 82.5191C66.0495 82.7028 66.0201 82.964 65.8424 83.1099C65.1965 83.6469 64.3471 85.0357 64.3157 85.9013C64.3092 86.0825 64.4558 86.409 64.582 86.7412C64.7565 87.2026 64.9101 87.672 64.8954 87.9232C64.8937 87.9618 64.8401 88.3809 64.7971 88.4662C64.6929 88.6702 64.5242 88.708 64.4159 88.711C64.3075 88.714 64.1573 88.6769 64.0158 88.5423C63.868 88.4017 63.668 88.0428 63.6131 87.9741C63.414 87.7249 63.0104 87.2446 62.6014 86.8741C62.381 86.6746 62.1695 86.4963 61.9929 86.4562C61.3395 86.3081 60.7759 86.7788 60.3126 87.1917C60.259 87.2386 60.2064 87.2869 60.153 87.3336C59.9874 87.5356 59.7984 87.7307 59.5844 87.9158C59.2614 88.1958 58.9842 87.9124 58.9666 87.8932C58.9281 87.8507 58.7394 87.6256 58.9382 87.349C58.9603 87.3194 59.1414 87.1276 59.2108 87.0533C59.3077 86.95 59.4097 86.8515 59.5132 86.7541C60.458 85.5666 60.3971 84.0776 59.7118 82.8345ZM61.0021 83.847C62.0907 84.4746 63.0847 84.4597 64.0376 84.1109L64.0375 84.111C63.7103 84.7224 63.4744 85.3695 63.4567 85.8701C63.4498 86.0599 63.5376 86.3724 63.6551 86.7104C63.4326 86.4729 63.1839 86.2283 62.9451 86.0372C62.6729 85.819 62.4034 85.6676 62.1835 85.6176C61.7592 85.5215 61.3517 85.5845 60.9713 85.7372C61.1288 85.1165 61.1315 84.4743 61.0021 83.847Z" fill="#FFCEC4"/>
</g>
<g clip-path="url(#clip3_1611_13698)">
<path fill-rule="evenodd" clip-rule="evenodd" d="M24.9102 58.9624C24.8028 58.8504 24.7017 58.7363 24.6062 58.6182C24.4629 58.4412 24.344 58.2456 24.2108 58.0617C24.1542 57.9837 24.0035 57.7827 23.987 57.7502C23.8449 57.4664 24.0278 57.2837 24.0844 57.2348C24.1112 57.2104 24.393 56.9687 24.689 57.2623C25.0512 57.621 25.3604 58.02 25.6093 58.4474C25.9119 58.7489 26.2609 59.0168 26.6242 59.2271C28.0694 60.0635 29.2931 59.4078 30.5221 58.5551C30.7104 58.4229 30.9699 58.4647 31.1084 58.647C31.248 58.8307 31.2185 59.0919 31.0408 59.2378C30.3949 59.7749 29.5456 61.1636 29.5141 62.0292C29.5076 62.2104 29.6543 62.5369 29.7804 62.8691C29.9549 63.3305 30.1085 63.7999 30.0938 64.0512C30.0921 64.0897 30.0385 64.5088 29.9955 64.5942C29.8914 64.7981 29.7227 64.8359 29.6143 64.8389C29.5059 64.8419 29.3557 64.8048 29.2143 64.6702C29.0664 64.5296 28.8664 64.1708 28.8115 64.102C28.6124 63.8528 28.2088 63.3725 27.7998 63.002C27.5795 62.8026 27.3679 62.6242 27.1914 62.5842C26.5379 62.4361 25.9744 62.9067 25.511 63.3197C25.4575 63.3665 25.4048 63.4148 25.3514 63.4615C25.1858 63.6636 24.9969 63.8586 24.7828 64.0438C24.4599 64.3237 24.1826 64.0403 24.165 64.0211C24.1266 63.9787 23.9379 63.7535 24.1367 63.4769C24.1587 63.4473 24.3398 63.2555 24.4092 63.1813C24.5061 63.0779 24.6082 62.9794 24.7116 62.882C25.6565 61.6945 25.5955 60.2055 24.9102 58.9624ZM26.2005 59.9749C27.2891 60.6026 28.2831 60.5876 29.2361 60.2388L29.2359 60.2389C28.9087 60.8504 28.6728 61.4974 28.6551 61.9981C28.6482 62.1878 28.736 62.5003 28.8535 62.8383C28.631 62.6009 28.3823 62.3562 28.1436 62.1652C27.8714 61.9469 27.6018 61.7955 27.3819 61.7455C26.9576 61.6494 26.5501 61.7125 26.1697 61.8652C26.3272 61.2444 26.3299 60.6022 26.2005 59.9749Z" fill="#4ADE80"/>
</g>
<g clip-path="url(#clip4_1611_13698)">
<path fill-rule="evenodd" clip-rule="evenodd" d="M4.22047 118.073C4.11308 117.961 4.01193 117.847 3.91646 117.729C3.77317 117.552 3.65422 117.356 3.52103 117.172C3.46446 117.094 3.31375 116.893 3.29728 116.861C3.15514 116.577 3.33803 116.394 3.3946 116.345C3.42141 116.321 3.70328 116.079 3.99925 116.373C4.36139 116.731 4.6706 117.13 4.91956 117.558C5.22218 117.859 5.57117 118.127 5.93446 118.337C7.37964 119.174 8.60335 118.518 9.83236 117.665C10.0206 117.533 10.2801 117.575 10.4187 117.757C10.5582 117.941 10.5288 118.202 10.351 118.348C9.70519 118.885 8.85581 120.274 8.82437 121.14C8.81786 121.321 8.9645 121.647 9.09064 121.979C9.26519 122.441 9.41879 122.91 9.40402 123.162C9.40238 123.2 9.34874 123.619 9.30576 123.705C9.20161 123.908 9.03291 123.946 8.92455 123.949C8.81619 123.952 8.66596 123.915 8.5245 123.781C8.37665 123.64 8.17663 123.281 8.12177 123.212C7.92268 122.963 7.51907 122.483 7.11003 122.112C6.88971 121.913 6.67813 121.735 6.5016 121.695C5.84815 121.546 5.28461 122.017 4.82128 122.43C4.76769 122.477 4.71507 122.525 4.66162 122.572C4.49609 122.774 4.30711 122.969 4.09305 123.154C3.77012 123.434 3.49289 123.151 3.47526 123.131C3.43681 123.089 3.24811 122.864 3.4469 122.587C3.46899 122.558 3.65003 122.366 3.71948 122.292C3.81637 122.188 3.9184 122.09 4.02183 121.992C4.9667 120.805 4.90576 119.316 4.22047 118.073ZM5.51075 119.085C6.59939 119.713 7.59336 119.698 8.54631 119.349L8.54617 119.349C8.21894 119.961 7.98308 120.608 7.96539 121.108C7.95849 121.298 8.04629 121.611 8.16375 121.949C7.94127 121.711 7.69253 121.467 7.45379 121.276C7.18161 121.057 6.91206 120.906 6.69214 120.856C6.26788 120.76 5.86037 120.823 5.47997 120.976C5.63744 120.355 5.64013 119.713 5.51075 119.085Z" fill="#E5E7EB"/>
</g>
<g clip-path="url(#clip5_1611_13698)">
<path fill-rule="evenodd" clip-rule="evenodd" d="M239.69 115.796C239.633 115.672 239.582 115.548 239.537 115.422C239.469 115.234 239.427 115.037 239.37 114.845C239.345 114.764 239.278 114.553 239.274 114.521C239.238 114.244 239.443 114.146 239.504 114.121C239.534 114.109 239.838 113.99 239.999 114.32C240.196 114.723 240.337 115.144 240.42 115.571C240.584 115.909 240.796 116.233 241.037 116.513C241.996 117.627 243.203 117.436 244.471 117.084C244.666 117.029 244.869 117.139 244.931 117.33C244.994 117.523 244.894 117.732 244.704 117.802C244.012 118.061 242.904 118.968 242.627 119.679C242.569 119.827 242.596 120.141 242.604 120.454C242.616 120.888 242.607 121.322 242.522 121.527C242.51 121.558 242.344 121.891 242.283 121.949C242.138 122.089 241.987 122.071 241.896 122.042C241.805 122.013 241.691 121.939 241.612 121.786C241.53 121.626 241.468 121.27 241.442 121.197C241.349 120.933 241.153 120.417 240.92 119.99C240.795 119.761 240.671 119.551 240.536 119.467C240.036 119.154 239.431 119.382 238.926 119.591C238.868 119.614 238.811 119.639 238.753 119.662C238.557 119.782 238.343 119.89 238.112 119.982C237.762 120.121 237.614 119.805 237.605 119.784C237.585 119.737 237.494 119.495 237.739 119.323C237.766 119.305 237.972 119.198 238.051 119.157C238.161 119.099 238.275 119.047 238.389 118.996C239.518 118.283 239.899 117.028 239.69 115.796ZM240.469 117.011C241.191 117.848 242.021 118.124 242.914 118.11L242.914 118.11C242.465 118.524 242.082 118.993 241.922 119.404C241.861 119.559 241.844 119.845 241.843 120.159C241.727 119.898 241.591 119.622 241.448 119.394C241.285 119.134 241.105 118.93 240.937 118.825C240.612 118.622 240.256 118.557 239.895 118.573C240.206 118.103 240.394 117.57 240.469 117.011Z" fill="#E5E7EB"/>
</g>
<circle cx="79.1135" cy="41.8204" r="2.5" transform="rotate(-19.2256 79.1135 41.8204)" stroke="#E5E7EB"/>
<circle opacity="0.5" cx="108" cy="2" r="1.5" stroke="#E5E7EB"/>
<defs>
<clipPath id="clip0_1611_13698">
<rect width="22.2734" height="22.2734" fill="white" transform="translate(185.204 92.5127) rotate(-15)"/>
</clipPath>
<clipPath id="clip1_1611_13698">
<rect width="11.0587" height="11.0587" fill="white" transform="translate(166 47.8623) rotate(-15)"/>
</clipPath>
<clipPath id="clip2_1611_13698">
<rect width="9.62799" height="9.62799" fill="white" transform="translate(55.4913 83.4111) rotate(-34.2256)"/>
</clipPath>
<clipPath id="clip3_1611_13698">
<rect width="9.62799" height="9.62799" fill="white" transform="translate(20.6898 59.5391) rotate(-34.2256)"/>
</clipPath>
<clipPath id="clip4_1611_13698">
<rect width="9.62799" height="9.62799" fill="white" transform="translate(0 118.649) rotate(-34.2256)"/>
</clipPath>
<clipPath id="clip5_1611_13698">
<rect width="8.47256" height="8.47256" fill="white" transform="translate(236.016 115.052) rotate(-15)"/>
</clipPath>
</defs>
</svg>
