<svg width="35" height="34" viewBox="0 0 35 34" fill="none" xmlns="http://www.w3.org/2000/svg">
<path d="M31.4061 25.5938H28.66C28.4725 25.5938 28.2968 25.6758 28.1796 25.8204C27.9061 26.1524 27.6132 26.4727 27.3046 26.7774C26.0424 28.0408 24.5474 29.0476 22.9022 29.7422C21.1978 30.4622 19.3658 30.8315 17.5155 30.8282C15.6444 30.8282 13.8319 30.461 12.1288 29.7422C10.4836 29.0476 8.98859 28.0408 7.72645 26.7774C6.46206 25.5183 5.45387 24.0259 4.75771 22.3829C4.03505 20.6797 3.67177 18.8712 3.67177 17.0001C3.67177 15.129 4.03896 13.3204 4.75771 11.6172C5.45302 9.97272 6.45302 8.49225 7.72645 7.22272C8.99989 5.95318 10.4804 4.95318 12.1288 4.25787C13.8319 3.53912 15.6444 3.17193 17.5155 3.17193C19.3866 3.17193 21.1991 3.53522 22.9022 4.25787C24.5507 4.95318 26.0311 5.95318 27.3046 7.22272C27.6132 7.53131 27.9022 7.85162 28.1796 8.17975C28.2968 8.32428 28.4765 8.40631 28.66 8.40631H31.4061C31.6522 8.40631 31.8046 8.13287 31.6679 7.92584C28.6718 3.26959 23.4296 0.187559 17.4725 0.203184C8.11317 0.226622 0.609267 7.82428 0.703017 17.1719C0.796767 26.3712 8.28896 33.7969 17.5155 33.7969C23.4569 33.7969 28.6757 30.7188 31.6679 26.0743C31.8007 25.8672 31.6522 25.5938 31.4061 25.5938ZM34.8788 16.754L29.3358 12.379C29.1288 12.2149 28.828 12.3633 28.828 12.6251V15.5938H16.5624C16.3905 15.5938 16.2499 15.7344 16.2499 15.9063V18.0938C16.2499 18.2657 16.3905 18.4063 16.5624 18.4063H28.828V21.3751C28.828 21.6368 29.1327 21.7852 29.3358 21.6212L34.8788 17.2462C34.9161 17.2169 34.9464 17.1796 34.9671 17.1369C34.9879 17.0943 34.9987 17.0475 34.9987 17.0001C34.9987 16.9526 34.9879 16.9058 34.9671 16.8632C34.9464 16.8205 34.9161 16.7832 34.8788 16.754Z" fill="white"/>
</svg>
