<svg width="16" height="16" viewBox="0 0 16 16" fill="none" xmlns="http://www.w3.org/2000/svg">
<path d="M1.52637 5.18673V11.6734C1.52637 12.9401 2.42637 13.4601 3.5197 12.8334L5.08637 11.9401C5.42637 11.7467 5.99303 11.7267 6.34637 11.9067L9.84637 13.6601C10.1997 13.8334 10.7664 13.8201 11.1064 13.6267L13.993 11.9734C14.3597 11.7601 14.6664 11.2401 14.6664 10.8134V4.32673C14.6664 3.06006 13.7664 2.54007 12.673 3.16673L11.1064 4.06007C10.7664 4.2534 10.1997 4.2734 9.84637 4.0934L6.34637 2.34673C5.99303 2.1734 5.42637 2.18673 5.08637 2.38007L2.1997 4.0334C1.82637 4.24673 1.52637 4.76673 1.52637 5.18673Z" stroke="#008AA8" stroke-width="1.5" stroke-linecap="round" stroke-linejoin="round"/>
<path d="M5.70703 2.66675V11.3334" stroke="#008AA8" stroke-width="1.5" stroke-linecap="round" stroke-linejoin="round"/>
<path d="M10.4863 4.41333V13.3333" stroke="#008AA8" stroke-width="1.5" stroke-linecap="round" stroke-linejoin="round"/>
</svg>
