<svg width="224" height="300" viewBox="0 0 224 300" fill="none" xmlns="http://www.w3.org/2000/svg">
<g clip-path="url(#clip0_6506_140400)">
<path d="M173.144 231.167C178.467 231.167 180.608 233.493 175.716 234.412C170.823 235.33 168.252 236.554 172.96 237.044C177.669 237.534 202.02 236.554 204.834 239.677C207.589 242.799 136.865 243.228 121.631 243.228C106.397 243.228 87.493 243.167 68.8337 240.718C58.6791 239.368 53.3569 233.861 60.8819 232.881C79.2351 230.371 167.761 231.167 173.144 231.167Z" fill="#008AA7"/>
<path d="M57.517 242.428C60.0884 242.428 61.068 245.122 58.7415 246.163C56.415 247.204 40.2047 256.326 32.9852 256.326C25.7656 256.326 25.6438 255.285 23.6859 253.265C21.7267 251.306 12.8572 249.53 7.96291 249.347C3.06866 249.163 0.437866 245.489 3.98335 244.326C12.7953 241.51 54.9475 242.428 57.517 242.428Z" fill="#008AA7"/>
<path d="M221.17 243.593C222.15 243.654 223.497 245.062 223.007 246.471C221.66 250.083 217.562 252.226 211.444 251.981C201.839 251.613 201.472 245.369 205.816 244.267C209.546 243.226 220.191 243.532 221.17 243.593Z" fill="#008AA7"/>
<path d="M61.6772 241.269L29.253 254.738C29.253 254.738 22.2783 254.37 13.8361 250.085C7.71803 246.962 0.927063 237.901 0.927063 237.901L4.47806 237.35L40.3872 231.473C40.3872 231.473 41.7953 233.432 46.3216 236.86C47.0292 237.385 47.7882 237.836 48.5869 238.207C53.663 240.473 61.6772 241.269 61.6772 241.269Z" fill="#E1CA39"/>
<path d="M61.6772 241.266L52.1336 245.246L29.1918 254.735C29.1918 254.735 22.2171 254.368 13.7749 250.082C11.2035 248.797 8.51334 246.409 6.24989 244.082C4.33797 242.126 2.54031 240.062 0.865845 237.899L4.41684 237.348C10.837 239.447 17.543 240.542 24.2975 240.593C32.4403 240.707 40.5694 239.886 48.5245 238.144C53.663 240.47 61.6772 241.266 61.6772 241.266Z" fill="#F5E684"/>
<path d="M52.1942 245.187L29.2524 254.676C29.2524 254.676 22.2777 254.309 13.8355 250.023C11.266 248.738 8.57577 246.35 6.31049 244.023C13.5633 245.643 20.9648 246.505 28.3958 246.595C36.3531 246.742 44.3098 246.272 52.1942 245.187Z" fill="#EBD75C"/>
<path d="M30.4762 252.717C30.2313 253.206 29.313 253.574 28.4558 253.574C27.5987 253.574 27.1701 253.206 27.415 252.717C27.6599 252.227 28.5795 251.859 29.436 251.859C30.2925 251.859 30.7211 252.288 30.4762 252.717Z" fill="#E1CA39"/>
<path d="M57.517 242.002C57.2721 242.491 56.3537 242.859 55.4966 242.859C54.6395 242.859 54.2109 242.491 54.4558 242.002C54.7007 241.512 55.6203 241.145 56.4768 241.145C57.3333 241.206 57.7619 241.573 57.517 242.002Z" fill="#E1CA39"/>
<path d="M40.5708 233.37C40.2969 233.629 39.9654 233.819 39.6036 233.926C39.2418 234.032 38.8599 234.051 38.4892 233.982C37.6321 233.921 37.2035 233.492 37.5096 233.063C37.7836 232.804 38.1151 232.614 38.4769 232.507C38.8387 232.401 39.2206 232.382 39.5913 232.451C40.5096 232.512 40.9382 232.941 40.5708 233.37Z" fill="#F5E684"/>
<path d="M6.18802 239.124C5.8819 239.553 4.90232 239.798 4.1064 239.675C3.24927 239.553 2.88192 239.124 3.18804 238.696C3.49416 238.267 4.47375 238.022 5.26966 238.145C6.1268 238.267 6.49414 238.696 6.18802 239.124Z" fill="#E1CA39"/>
<path d="M211.751 247.695L208.506 243.531L213.951 239.98L220.558 240.654L222.701 244.45L218.538 248.123L211.751 247.695Z" fill="#E1CA39"/>
<path d="M208.506 243.469L209.057 248.061L211.873 250.877L211.69 247.632L208.506 243.469Z" fill="#EBD75C"/>
<path d="M211.871 250.878L218.539 251.306L218.478 248.061L211.687 247.633L211.871 250.878Z" fill="#F5E684"/>
<path d="M222.638 244.387L222.458 247.509L218.539 251.305L218.478 248.06L222.638 244.387Z" fill="#EBD75C"/>
<path d="M219.09 243.775C219.095 243.945 219.065 244.114 219.002 244.272C218.938 244.43 218.844 244.573 218.723 244.693C218.014 244.12 217.125 243.816 216.213 243.836C215.696 243.796 215.177 243.869 214.691 244.049C214.205 244.228 213.763 244.511 213.396 244.877C213.193 244.733 213.03 244.539 212.922 244.314C212.815 244.089 212.768 243.84 212.784 243.591C212.784 242.489 214.254 241.571 216.029 241.632C217.683 241.693 219.09 242.611 219.09 243.775Z" fill="#EBD75C"/>
<path d="M74.0965 263.122C69.1411 265.142 64.3693 262.632 64.3693 262.632L36.227 276.346C36.1658 277.326 35.5536 283.816 27.9067 285.469C20.9327 286.936 18.1206 282.834 18.1206 282.834L19.59 281.977L26.9926 277.63L24.5436 274.875L15.488 279.161C15.1968 278.399 15.0514 277.589 15.0594 276.774C15.0495 276.068 15.1528 275.365 15.3656 274.692C16.1615 272.366 18.9778 268.876 23.9308 268.08C28.8838 267.284 31.2722 269.243 31.2722 269.243L61.3111 256.447C61.4159 255.248 61.9355 254.122 62.7805 253.264C64.1274 251.794 66.5764 249.835 69.9382 250.141C71.384 250.214 72.7909 250.634 74.0402 251.366C74.3944 251.547 74.7237 251.773 75.0198 252.039L67.556 256.08L70.2498 259.08L77.1632 255.468C77.6125 255.787 77.9542 256.236 78.1428 256.754L78.3265 257.305C78.8077 258.775 79.052 261.102 74.0965 263.122Z" fill="#E0F7FE"/>
<path d="M73.8516 263.917C68.8961 265.938 64.3692 262.693 64.3692 262.693L36.227 276.407C36.1658 277.386 35.5535 283.876 27.9067 285.529C20.9345 286.999 18.1182 282.897 18.1182 282.897L19.5875 282.039C20.9345 282.958 24.1151 284.488 28.8869 282.835C30.6698 282.287 32.2174 281.157 33.282 279.625C34.3465 278.093 34.8666 276.249 34.7589 274.386L64.5529 260.733C65.956 261.701 67.5933 262.275 69.2938 262.393C70.9942 262.512 72.6952 262.171 74.219 261.407C77.4026 259.876 78.1985 257.978 78.2598 256.754L78.4434 257.305C78.8071 258.774 78.8071 261.836 73.8516 263.917Z" fill="#E0F7FE"/>
<path d="M27.9067 276.957L26.9271 277.753L24.4781 274.998L15.4267 279.284C15.1355 278.522 14.9901 277.712 14.9982 276.896L24.603 273.039L27.9067 276.957Z" fill="#E0F7FE"/>
<path d="M75.0754 252.103L67.6122 256.144L67.1224 255.164L74.0971 251.43C74.4542 251.605 74.7838 251.832 75.0754 252.103Z" fill="#E0F7FE"/>
<path d="M95.9376 258.284C95.6315 259.754 94.958 260.794 93.856 261.223C93.3747 261.433 92.8481 261.517 92.3254 261.468C90.4274 261.284 89.3254 259.141 89.8152 255.529C90.305 251.917 92.4503 251.182 93.9797 251.488C94.1021 251.55 94.2246 251.55 94.347 251.611C96.1213 252.468 96.305 256.325 95.9376 258.284Z" fill="#E1CA39"/>
<path d="M95.9394 258.287C95.6333 259.756 94.9598 260.797 93.8578 261.225C91.9598 260.981 91.2864 258.593 91.7149 255.47C92.0211 253.266 92.6333 252.042 94.3476 251.613C96.1231 252.47 96.3067 256.328 95.9394 258.287Z" fill="#EBD75C"/>
<path d="M107.439 256.937C107.474 257.235 107.409 257.536 107.255 257.794C107.033 258.241 106.72 258.637 106.337 258.958L93.5517 258.407C93.5517 258.407 91.8986 256.264 94.0415 254.672H94.5925L106.705 255.1C107.094 255.645 107.346 256.275 107.439 256.937Z" fill="#E1CA39"/>
<path d="M107.256 257.857C107.033 258.304 106.721 258.7 106.338 259.02L93.5517 258.469C93.5517 258.469 91.8986 256.326 94.0415 254.734H94.5925C94.5377 255.108 94.5891 255.49 94.7406 255.837C94.8921 256.183 95.1378 256.48 95.4496 256.694C96.3049 257.367 103.646 257.734 107.256 257.857Z" fill="#EBD75C"/>
<path d="M140.659 262.14C139.189 261.467 138.087 257.548 138.087 254.487C138.05 253.024 138.3 251.568 138.822 250.201C138.264 250.14 137.7 250.203 137.169 250.385C133.495 251.609 134.291 256.691 134.291 256.691C134.32 256.902 134.265 257.115 134.14 257.286C134.014 257.457 133.827 257.573 133.618 257.609C133.407 257.638 133.194 257.584 133.023 257.458C132.852 257.332 132.736 257.145 132.699 256.936C132.332 254.732 132.699 250.201 136.615 248.854C137.573 248.492 138.619 248.428 139.615 248.671C140.138 247.958 140.833 247.39 141.635 247.018C143.778 245.977 145.798 245.793 147.57 246.467C148.104 245.543 148.919 244.814 149.896 244.385C150.626 244.052 151.419 243.879 152.221 243.879C153.023 243.879 153.816 244.052 154.545 244.385C157.056 245.548 158.28 248.303 158.647 249.467C159.236 251.155 159.425 252.958 159.198 254.732C159.178 254.832 159.139 254.928 159.082 255.013C159.025 255.098 158.951 255.171 158.866 255.228C158.781 255.285 158.685 255.325 158.585 255.344C158.484 255.364 158.381 255.364 158.28 255.344C158.18 255.324 158.084 255.284 157.999 255.227C157.914 255.17 157.841 255.097 157.784 255.012C157.727 254.926 157.687 254.831 157.668 254.73C157.648 254.63 157.648 254.526 157.668 254.426C157.86 252.918 157.692 251.387 157.178 249.956C156.933 249.222 155.892 246.712 153.933 245.793C153.39 245.561 152.803 245.446 152.212 245.457C151.621 245.467 151.039 245.603 150.505 245.854C149.852 246.11 149.31 246.587 148.974 247.201C150.703 248.467 151.954 250.279 152.525 252.344C153.382 255.099 153.015 257.671 151.607 258.65C150.688 259.262 149.586 259.14 148.545 258.283C146.892 256.936 145.974 252.895 146.525 249.467C146.612 248.928 146.734 248.397 146.892 247.875C145.546 247.447 144.016 247.63 142.304 248.426C141.848 248.661 141.434 248.972 141.08 249.344C142.917 250.63 144.263 253.385 144.692 256.814C145.059 259.936 144.202 261.344 143.406 261.895C143.229 262.088 143.01 262.238 142.766 262.334C142.522 262.429 142.259 262.468 141.998 262.446C141.536 262.432 141.081 262.328 140.659 262.14Z" fill="#004351"/>
<path d="M125.732 285.835C125.745 286.061 125.724 286.288 125.67 286.508C125.181 288.467 123.834 288.1 122.303 287.61C120.773 287.059 112.515 281.855 110.679 280.753C109.576 280.09 108.433 279.497 107.255 278.977L108.235 276.896L109.643 273.773C109.643 273.773 117.657 277.324 121.022 279.651C124.019 281.733 125.732 283.998 125.732 285.835Z" fill="#004351"/>
<path d="M125.732 285.833C125.745 286.06 125.724 286.286 125.67 286.507C125.181 288.466 123.834 288.099 122.303 287.609C120.776 287.058 112.517 281.854 110.684 280.752C109.58 280.088 108.434 279.495 107.255 278.976L108.235 276.895C111.113 278.67 117.717 281.364 122.672 284.548C123.774 285.221 125.119 285.894 125.732 285.833Z" fill="black"/>
<path d="M126.894 292.508C126.907 292.734 126.886 292.961 126.832 293.181C126.343 295.14 124.996 294.773 123.465 294.283C121.935 293.732 109.149 285.957 107.314 284.855C106.211 284.192 105.068 283.599 103.891 283.079L104.87 280.997L106.278 277.875C106.278 277.875 118.818 283.936 122.183 286.324C125.119 288.406 126.832 290.671 126.894 292.508Z" fill="#004351"/>
<path d="M126.894 292.506C126.907 292.732 126.886 292.959 126.832 293.18C126.343 295.139 124.996 294.772 123.465 294.282C121.938 293.731 109.152 285.955 107.319 284.853C106.215 284.19 105.07 283.597 103.891 283.078L104.87 280.996C107.748 282.772 122.367 291.465 124.63 292.261C125.363 292.484 126.131 292.567 126.894 292.506Z" fill="black"/>
<path d="M123.223 296.73C123.236 296.956 123.215 297.183 123.162 297.404C122.672 299.363 121.325 298.995 119.794 298.506C118.264 297.955 105.478 290.179 103.643 289.077C102.54 288.414 101.397 287.821 100.22 287.302L101.199 285.22L102.607 282.098C102.607 282.098 114.841 288.832 118.145 291.22C121.204 293.302 123.223 294.893 123.223 296.73Z" fill="#004351"/>
<path d="M123.223 296.729C123.236 296.955 123.215 297.182 123.162 297.402C122.672 299.362 121.325 298.994 119.794 298.504C118.267 297.953 105.481 290.178 103.648 289.076C102.544 288.413 101.399 287.82 100.22 287.3L101.199 285.219C104.077 286.994 118.696 295.688 120.959 296.484C121.693 296.702 122.46 296.784 123.223 296.729Z" fill="black"/>
<path d="M116.554 297.711V298.385C116.187 300.405 114.84 300.099 113.309 299.732C111.782 299.303 98.3841 292.507 96.4904 291.589C95.3436 290.997 94.1571 290.486 92.9395 290.058L93.7354 287.916L95.7558 284.242C95.7558 284.242 107.806 290.854 111.354 292.936C114.413 294.834 116.432 295.875 116.554 297.711Z" fill="#004351"/>
<path d="M116.554 297.71V298.384C116.187 300.404 114.84 300.098 113.309 299.731C111.782 299.302 98.3841 292.506 96.4904 291.588C95.3436 290.996 94.1571 290.485 92.9395 290.057L94.7762 286.996C97.7762 288.527 111.967 297.037 114.292 297.649C115.034 297.82 115.804 297.84 116.554 297.71Z" fill="black"/>
<path d="M109.703 273.773C108.494 277.107 106.87 280.274 104.87 283.202C103.584 285.1 102.421 286.814 101.441 288.222C100.951 288.896 100.523 289.508 100.155 290.059C99.0533 291.59 98.3799 292.508 98.3799 292.508C95.1643 291.475 92.0689 290.1 89.1467 288.406C84.4361 285.651 80.3978 282.467 79.3582 281.182C78.0725 279.651 78.6235 277.447 78.6235 277.447C78.7137 276.936 78.8787 276.441 79.1133 275.978C79.898 274.399 80.9788 272.985 82.2969 271.814C84.2348 270.001 86.496 268.568 88.963 267.59L109.703 273.773Z" fill="#004351"/>
<path d="M100.158 289.996C99.0563 291.526 98.3829 292.445 98.3829 292.445C95.1656 291.412 92.0685 290.036 89.1448 288.343C84.436 285.587 80.3977 282.404 79.3581 281.118C78.073 279.588 78.624 277.383 78.624 277.383C78.7141 276.872 78.8789 276.377 79.1132 275.914C82.8479 280.077 86.2709 282.465 93.0619 286.322C95.1423 287.547 98.3847 289.2 100.158 289.996Z" fill="black"/>
<path d="M211.993 271.691L156.015 298.502C156.015 298.502 151.121 299.727 147.083 296.359C146.213 295.676 145.467 294.847 144.879 293.91C142.92 290.91 142.43 288.278 142.552 286.257C142.601 285.009 142.892 283.782 143.41 282.645L202.633 256.202C204.649 256.154 206.639 256.663 208.384 257.672C209.538 258.401 210.486 259.412 211.139 260.61C211.931 262.085 212.391 263.715 212.486 265.386C212.698 267.5 212.531 269.635 211.993 271.691Z" fill="#F5E684"/>
<path d="M211.993 271.69L156.015 298.506C156.015 298.506 151.124 299.731 147.083 296.363L212.544 265.445C212.717 267.543 212.531 269.655 211.993 271.69Z" fill="#EBD75C"/>
<path d="M208.445 257.734L142.555 286.264C142.604 285.016 142.895 283.789 143.413 282.652L202.633 256.203C202.694 256.264 205.753 256.081 208.445 257.734Z" fill="#E1CA39"/>
<path d="M143.411 282.712C143.411 282.712 149.712 278.916 154.239 285.589C159.745 293.732 155.954 298.569 155.954 298.569C155.954 298.569 148.921 301.078 144.819 295.568C140.842 290.058 141.452 285.589 143.411 282.712Z" fill="#EBD75C"/>
<path d="M171.064 291.221C170.978 291.23 170.891 291.208 170.819 291.159C170.669 291.126 170.527 291.062 170.402 290.973C170.277 290.883 170.171 290.769 170.091 290.638C170.011 290.506 169.959 290.36 169.937 290.208C169.914 290.055 169.923 289.9 169.962 289.751C170.46 286.706 169.805 283.584 168.126 280.996C165.371 276.894 162.13 277.323 162.13 277.323C161.823 277.362 161.512 277.283 161.262 277.101C161.011 276.919 160.84 276.648 160.783 276.343C160.743 276.036 160.823 275.725 161.005 275.475C161.187 275.224 161.458 275.053 161.763 274.996C161.946 274.996 166.534 274.323 170.083 279.649C172.165 282.76 172.956 286.558 172.287 290.241C172.22 290.516 172.063 290.761 171.842 290.938C171.621 291.116 171.348 291.215 171.064 291.221Z" fill="#EBD75C"/>
<path d="M187.093 282.894C187.007 282.903 186.92 282.881 186.849 282.832C186.698 282.799 186.556 282.735 186.431 282.646C186.306 282.556 186.201 282.442 186.12 282.311C186.04 282.179 185.988 282.033 185.966 281.881C185.943 281.728 185.952 281.573 185.991 281.424C186.459 278.552 185.848 275.608 184.277 273.159C181.767 269.363 178.832 269.731 178.71 269.731C178.405 269.758 178.1 269.674 177.853 269.494C177.605 269.313 177.431 269.05 177.363 268.751C177.324 268.444 177.403 268.133 177.585 267.883C177.767 267.632 178.038 267.461 178.343 267.404C178.526 267.404 182.809 266.731 186.234 271.873C188.175 274.859 188.918 278.466 188.316 281.975C188.22 282.228 188.054 282.449 187.837 282.611C187.621 282.774 187.363 282.872 187.093 282.894Z" fill="#EBD75C"/>
<path d="M202.327 275.978C202.24 275.987 202.154 275.965 202.082 275.916C201.932 275.883 201.79 275.819 201.665 275.73C201.539 275.64 201.434 275.526 201.354 275.395C201.274 275.263 201.221 275.117 201.199 274.965C201.177 274.812 201.185 274.657 201.225 274.508C201.692 271.636 201.082 268.692 199.51 266.243C197 262.386 194.127 262.814 194.066 262.814C193.913 262.841 193.756 262.836 193.605 262.8C193.454 262.765 193.311 262.7 193.186 262.609C193.06 262.517 192.954 262.402 192.874 262.269C192.794 262.136 192.741 261.988 192.719 261.835C192.693 261.682 192.697 261.525 192.733 261.374C192.768 261.223 192.833 261.08 192.925 260.955C193.016 260.829 193.131 260.723 193.264 260.643C193.397 260.563 193.545 260.51 193.698 260.488C193.882 260.488 198.165 259.876 201.468 264.957C203.408 267.943 204.131 271.557 203.489 275.059C203.429 275.322 203.281 275.557 203.07 275.724C202.858 275.891 202.596 275.98 202.327 275.978Z" fill="#EBD75C"/>
<path d="M178.592 204.966C174.187 213.354 167.335 219.538 162.746 219.66C159.318 219.721 158.219 218.436 158.767 214.701C159.034 213.174 159.381 211.661 159.808 210.17C161.889 202.885 165.62 196.15 167.761 192.66C170.944 187.579 176.387 188.436 179.14 190.579C179.55 190.878 179.92 191.227 180.242 191.62C182.566 194.192 182.382 197.62 178.592 204.966Z" fill="#004351"/>
<path d="M178.592 204.968C174.184 213.356 167.333 219.539 162.744 219.662C159.315 219.723 158.216 218.437 158.764 214.703C159.56 215.682 160.907 216.478 163.047 216.049C167.577 215.131 175.714 206.682 178.714 198.784C179.939 195.539 180.306 193.213 180.306 191.621C182.566 194.193 182.382 197.621 178.592 204.968Z" fill="black"/>
<path d="M176.999 194.008C177.182 196.702 174.733 200.926 171.064 203.865C167.395 206.804 165.069 204.661 166.537 199.824C168.066 194.988 171.615 190.641 174.062 190.641C175.652 190.641 176.815 191.804 176.999 194.008Z" fill="black"/>
<path d="M173.634 198.537C173.24 199.256 172.722 199.898 172.103 200.435C171.022 201.397 169.717 202.07 168.307 202.394C168.307 202.394 153.38 198.476 135.944 179.252C126.278 168.599 121.567 159.966 119.242 154.334C117.344 149.803 117.099 147.232 117.099 147.232C117.313 145.951 117.962 144.784 118.936 143.926C120.455 142.522 122.308 141.531 124.319 141.048C125.588 140.666 126.913 140.5 128.237 140.558C132.459 140.742 134.111 143.497 134.111 143.497C134.111 143.497 134.662 145.15 135.703 147.721C138.335 154.272 144.268 166.885 153.139 175.211C165.619 186.782 173.939 191.19 173.939 191.19C174.236 192.125 174.421 193.09 174.49 194.068C174.71 195.612 174.408 197.184 173.634 198.537Z" fill="#F5E684"/>
<path d="M172.105 200.435C171.024 201.396 169.718 202.07 168.309 202.394C168.309 202.394 153.381 198.476 135.945 179.252C118.509 160.027 117.166 147.236 117.166 147.236C117.381 145.956 118.029 144.788 119.003 143.93C122.003 151.583 130.505 170.195 147.39 183.603C159.563 193.211 167.516 198.047 172.105 200.435Z" fill="#EBD75C"/>
<path d="M174.552 194.068C168.985 191.313 157.788 185.007 147.939 174.905C136.56 163.154 130.137 146.011 128.301 140.562C132.522 140.746 134.174 143.501 134.174 143.501C134.174 143.501 140.781 163.583 153.262 175.215C165.742 186.787 174.062 191.195 174.062 191.195C174.354 192.126 174.519 193.093 174.552 194.068Z" fill="#E1CA39"/>
<path d="M135.764 147.725C134.846 148.338 133.866 149.011 132.826 149.623C126.83 153.174 122.119 154.154 119.244 154.338C117.346 149.807 117.101 147.236 117.101 147.236C117.315 145.955 117.964 144.788 118.938 143.929C120.456 142.526 122.31 141.535 124.321 141.052C125.59 140.67 126.915 140.504 128.239 140.562C132.461 140.746 134.113 143.501 134.113 143.501C134.113 143.501 134.725 145.093 135.764 147.725Z" fill="#EBD75C"/>
<path d="M124.997 160.337C124.114 160.338 123.232 160.256 122.364 160.093C122.17 160.038 122.001 159.915 121.888 159.747C121.776 159.578 121.728 159.375 121.752 159.174C121.8 158.975 121.921 158.801 122.091 158.688C122.261 158.574 122.468 158.529 122.67 158.562C125.629 159.08 128.676 158.561 131.297 157.093C135.338 154.644 135.763 152.011 135.763 152.011C135.775 151.91 135.807 151.813 135.857 151.725C135.906 151.637 135.973 151.559 136.052 151.497C136.132 151.434 136.223 151.388 136.321 151.361C136.418 151.333 136.52 151.325 136.62 151.338C136.721 151.35 136.818 151.381 136.906 151.431C136.995 151.481 137.072 151.547 137.135 151.627C137.197 151.706 137.243 151.797 137.271 151.895C137.298 151.992 137.306 152.094 137.294 152.195C137.294 152.317 136.804 155.562 132.093 158.44C129.944 159.705 127.491 160.361 124.997 160.337Z" fill="#EBD75C"/>
<path d="M134.724 176.377C134.273 176.376 133.822 176.335 133.377 176.254C133.185 176.189 133.024 176.052 132.929 175.872C132.834 175.692 132.812 175.482 132.867 175.286C132.922 175.09 133.05 174.923 133.224 174.818C133.399 174.713 133.607 174.68 133.806 174.724C133.928 174.785 136.806 175.458 140.658 172.336C144.209 169.459 144.27 166.887 144.27 166.765C144.274 166.555 144.359 166.354 144.507 166.206C144.656 166.057 144.856 165.972 145.066 165.969V165.969C145.276 165.972 145.477 166.057 145.625 166.206C145.774 166.354 145.859 166.555 145.862 166.765C145.862 166.887 145.801 170.193 141.641 173.561C138.762 175.948 136.192 176.377 134.724 176.377Z" fill="#EBD75C"/>
<path d="M143.841 186.662C143.735 186.666 143.63 186.648 143.532 186.609C143.434 186.57 143.345 186.512 143.27 186.437C143.196 186.362 143.137 186.273 143.098 186.175C143.059 186.077 143.041 185.972 143.045 185.867C143.048 185.657 143.133 185.456 143.282 185.308C143.43 185.159 143.631 185.074 143.841 185.071C146.26 184.999 148.568 184.04 150.325 182.377C151.094 181.649 151.695 180.763 152.086 179.78C152.477 178.796 152.649 177.74 152.591 176.683C152.579 176.582 152.586 176.481 152.614 176.383C152.641 176.286 152.687 176.194 152.75 176.115C152.812 176.035 152.89 175.969 152.978 175.919C153.066 175.87 153.164 175.838 153.264 175.826C153.365 175.814 153.466 175.822 153.564 175.849C153.661 175.876 153.753 175.922 153.832 175.985C153.912 176.048 153.978 176.125 154.028 176.213C154.077 176.302 154.109 176.399 154.121 176.499C154.214 177.798 154.021 179.102 153.555 180.318C153.09 181.535 152.363 182.634 151.427 183.54C149.381 185.497 146.672 186.612 143.841 186.662Z" fill="#EBD75C"/>
<path d="M155.587 195.721H155.342C155.137 195.691 154.949 195.588 154.814 195.43C154.679 195.272 154.605 195.071 154.607 194.864C154.637 194.658 154.74 194.47 154.898 194.335C155.056 194.2 155.257 194.127 155.464 194.129C155.587 194.129 158.22 194.251 160.787 191.068C162.746 188.68 162.073 185.006 162.073 184.945C162.053 184.845 162.053 184.741 162.073 184.641C162.093 184.54 162.132 184.445 162.189 184.359C162.246 184.274 162.319 184.201 162.404 184.144C162.489 184.087 162.585 184.047 162.685 184.027C162.786 184.007 162.889 184.007 162.99 184.027C163.09 184.046 163.186 184.086 163.271 184.143C163.356 184.2 163.43 184.273 163.487 184.358C163.544 184.443 163.584 184.539 163.604 184.639C163.665 184.823 164.4 189.047 162.012 192.047C159.257 195.476 156.383 195.721 155.587 195.721Z" fill="#EBD75C"/>
<path d="M102.544 235.329C99.3607 236.308 89.2073 236.737 81.0094 236.614C73.5455 236.492 70.1807 235.268 72.8115 232.451C73.1164 232.101 73.4664 231.792 73.8523 231.533C78.1961 228.043 88.6575 225.104 93.6129 224.737C98.2623 224.37 102.361 223.819 103.218 225.533C103.955 227.198 104.39 228.981 104.503 230.798C104.625 232.88 104.196 234.839 102.544 235.329Z" fill="#004351"/>
<path d="M102.544 235.327C99.3632 236.307 89.208 236.736 81.0101 236.613C73.5463 236.491 70.1814 235.266 72.8122 232.45C74.955 233.062 79.3583 233.858 87.495 233.613C97.2835 233.307 101.872 232.144 104.441 230.797C104.625 232.878 104.196 234.838 102.544 235.327Z" fill="black"/>
<path d="M90.7985 225.226C85.843 225.839 81.1937 229.084 87.3087 229.451C94.5889 229.88 103.338 226.573 102.603 225.471C101.871 224.308 96.0595 224.553 90.7985 225.226Z" fill="black"/>
<path d="M101.994 224.918C101.994 224.918 101.32 226.449 97.9532 227.673C97.6535 227.794 97.3468 227.896 97.0348 227.979C94.9184 228.543 92.7028 228.627 90.55 228.224C89.683 228.09 88.8244 227.906 87.9785 227.673C87.9785 227.673 80.8208 213.224 78.3737 200.183C75.9266 187.143 74.2717 176.551 77.5166 162.959C78.2513 160.021 78.8635 157.633 79.4758 155.674C81.6186 148.633 83.0267 147.347 83.0267 147.347C84.0113 147.073 85.0137 146.869 86.0267 146.735C88.5369 146.368 92.1448 146.368 94.6532 148.204C95.2696 148.664 95.8622 149.154 96.4287 149.674C98.0179 151.069 99.2377 152.836 99.9797 154.816C98.3609 157.326 97.0456 160.018 96.0613 162.837C93.4603 170.021 92.1342 177.604 92.143 185.245C91.9606 204.901 101.994 224.918 101.994 224.918Z" fill="#F5E684"/>
<path d="M101.994 224.92C101.994 224.92 101.321 226.45 97.9532 227.675C94.7083 221.308 90.1227 209.981 87.6143 192.961C84.2525 169.64 93.1233 154.456 96.4269 149.742C98.0161 151.138 99.2359 152.904 99.9779 154.885C99.9779 154.885 92.328 165.66 92.1443 185.313C91.9606 204.966 101.994 224.92 101.994 224.92Z" fill="#EBD75C"/>
<path d="M90.6149 228.225C89.7479 228.091 88.8893 227.907 88.0435 227.674C88.0435 227.674 80.8858 213.225 78.4387 200.185C75.9915 187.144 74.3367 176.552 77.5815 162.96C80.8264 149.436 83.0899 147.354 83.0899 147.354C84.0744 147.081 85.0768 146.876 86.0898 146.742C80.9209 157.918 78.6277 170.209 79.4189 182.497C80.5203 200.248 87.7392 220.695 90.6149 228.225Z" fill="#E1CA39"/>
<path d="M93.6129 168.723C93.4939 168.724 93.3764 168.697 93.27 168.644C93.1636 168.59 93.0713 168.513 93.0007 168.417C93.0007 168.417 91.164 165.968 86.5771 164.805C81.8665 163.641 78.6853 164.437 78.6853 164.437C78.5848 164.467 78.4794 164.476 78.3754 164.464C78.2713 164.452 78.1707 164.419 78.0795 164.368C77.9882 164.317 77.9081 164.248 77.8439 164.165C77.7797 164.082 77.7327 163.987 77.7057 163.886C77.6764 163.786 77.6674 163.68 77.6793 163.576C77.6912 163.472 77.7238 163.372 77.7752 163.281C77.8265 163.189 77.8955 163.109 77.9782 163.045C78.0609 162.981 78.1556 162.934 78.2567 162.907C78.3792 162.845 81.8077 161.988 86.9438 163.274C92.1442 164.56 94.1627 167.376 94.2852 167.499C94.3463 167.583 94.3901 167.678 94.4139 167.779C94.4378 167.88 94.4413 167.985 94.4242 168.088C94.4071 168.191 94.3698 168.289 94.3144 168.377C94.2589 168.465 94.1866 168.541 94.1015 168.601C93.9448 168.663 93.7805 168.704 93.6129 168.723Z" fill="#EBD75C"/>
<path d="M91.4102 184.889C91.3055 184.894 91.201 184.875 91.1053 184.832C91.0095 184.79 90.9252 184.725 90.8592 184.644C90.8592 184.644 88.7775 182.624 84.3743 182.256C79.9086 181.95 77.156 183.236 77.156 183.236C76.9683 183.318 76.7563 183.326 76.563 183.258C76.3698 183.189 76.2097 183.05 76.1152 182.868C76.0674 182.777 76.039 182.676 76.0318 182.573C76.0245 182.469 76.0385 182.366 76.073 182.268C76.1074 182.171 76.1615 182.081 76.232 182.005C76.3024 181.93 76.3877 181.869 76.4825 181.828C76.605 181.766 79.6049 180.297 84.558 180.664C89.5747 181.032 91.9606 183.419 92.083 183.481C92.1557 183.553 92.2134 183.639 92.2528 183.733C92.2922 183.828 92.3125 183.929 92.3125 184.032C92.3125 184.134 92.2922 184.236 92.2528 184.33C92.2134 184.425 92.1557 184.511 92.083 184.583C91.9037 184.764 91.6644 184.873 91.4102 184.889Z" fill="#EBD75C"/>
<path d="M84.558 200.741C82.6406 200.795 80.7305 200.483 78.9297 199.823C78.8304 199.786 78.7397 199.73 78.6635 199.656C78.5872 199.583 78.527 199.494 78.4868 199.397C78.4465 199.299 78.4269 199.194 78.4294 199.088C78.4319 198.982 78.4563 198.878 78.5011 198.782C78.5376 198.683 78.5942 198.592 78.6676 198.516C78.741 198.439 78.8294 198.379 78.9273 198.339C79.0251 198.298 79.1303 198.279 79.2361 198.281C79.342 198.284 79.4461 198.308 79.5419 198.353C81.5096 199.014 83.5919 199.264 85.66 199.088C87.8898 198.97 90.0736 198.408 92.0837 197.436C92.2631 197.343 92.4717 197.322 92.6656 197.38C92.8596 197.437 93.024 197.566 93.1245 197.742C93.2173 197.921 93.2372 198.13 93.1802 198.324C93.1232 198.517 92.9936 198.682 92.8184 198.783C90.5939 199.848 88.1839 200.472 85.7219 200.619C85.3427 200.72 84.95 200.761 84.558 200.741Z" fill="#EBD75C"/>
<path d="M87.8623 215.984C84.8623 215.984 83.1517 215.066 83.0905 215.005C82.9988 214.96 82.9174 214.897 82.8515 214.819C82.7856 214.741 82.7368 214.65 82.708 214.552C82.6792 214.454 82.6711 214.351 82.6842 214.25C82.6974 214.149 82.7315 214.051 82.7844 213.964C82.8849 213.789 83.0493 213.659 83.2432 213.602C83.4372 213.545 83.6457 213.565 83.8252 213.658C83.8864 213.658 86.0905 214.821 90.0039 214.27C93.861 213.719 95.3267 212.127 95.3267 212.127C95.4647 211.973 95.6584 211.88 95.8651 211.868C96.0717 211.857 96.2745 211.928 96.4288 212.066C96.583 212.204 96.6761 212.398 96.6876 212.604C96.6991 212.811 96.628 213.014 96.49 213.168C96.4288 213.229 94.7145 215.188 90.1888 215.801C89.4229 215.951 88.6423 216.012 87.8623 215.984Z" fill="#EBD75C"/>
<path d="M100.036 154.824C98.4172 157.333 97.1019 160.026 96.1177 162.845C95.2605 162.355 94.3422 161.865 93.3626 161.314C89.0293 158.825 84.3804 156.93 79.5413 155.681C81.6841 148.641 83.0923 147.355 83.0923 147.355C84.0768 147.081 85.0792 146.877 86.0922 146.743C88.6024 146.375 92.2103 146.375 94.7187 148.212C95.3351 148.671 95.9277 149.162 96.4942 149.681C99.3019 152.376 100.036 154.824 100.036 154.824Z" fill="#EBD75C"/>
<path d="M84.3136 89.8709C84.3136 89.8709 78.2567 105.361 75.6872 115.585C73.1176 125.809 67.428 147.605 67.428 147.605C66.2577 148.578 64.9046 149.306 63.4485 149.748C62.4362 150.047 61.3725 150.13 60.326 149.993C57.9668 149.521 55.835 148.269 54.2747 146.438C54.2747 146.438 58.9852 133.091 62.5338 119.744C66.0848 106.336 73.1176 82.7646 73.1176 82.7646C77.4614 82.2748 80.1528 82.9483 81.8047 83.9891C82.7509 84.618 83.4925 85.5099 83.9383 86.555C84.3841 87.6 84.5145 88.7526 84.3136 89.8709Z" fill="#F5E684"/>
<path d="M84.3135 89.871C84.3135 89.871 78.2566 105.361 75.687 115.585C73.1175 125.809 67.4279 147.605 67.4279 147.605C66.2576 148.578 64.9045 149.306 63.4484 149.748C64.7953 144.666 67.1218 135.973 69.7495 125.442C73.4848 110.687 80.0921 89.5036 81.7439 84.0547C82.7031 84.6577 83.4602 85.5336 83.918 86.57C84.3758 87.6063 84.5136 88.7558 84.3135 89.871Z" fill="#EBD75C"/>
<path d="M68.7125 139.15C68.5554 139.15 68.4017 139.103 68.271 139.016C68.1402 138.929 68.0382 138.805 67.9778 138.66C67.9778 138.66 66.8758 135.844 64.488 135.293C61.4268 134.558 59.7162 135.293 59.7162 135.293C59.5285 135.375 59.3165 135.383 59.1233 135.314C58.93 135.246 58.7699 135.107 58.6754 134.925C58.5933 134.738 58.5855 134.526 58.6537 134.332C58.7219 134.139 58.861 133.979 59.0428 133.884C59.104 133.823 61.1856 132.844 64.8548 133.762C68.0384 134.497 69.3823 137.986 69.4429 138.109C69.5194 138.304 69.5175 138.521 69.4376 138.715C69.3578 138.909 69.2061 139.065 69.0143 139.15H68.7125Z" fill="#EBD75C"/>
<path d="M73.4237 121.706C73.2761 121.698 73.1324 121.655 73.0047 121.58C72.877 121.506 72.7688 121.402 72.689 121.277C72.689 121.277 71.2809 118.461 69.0156 117.91C66.0768 117.237 64.4881 117.91 64.4881 117.91C64.3004 117.992 64.0884 118 63.8951 117.932C63.7019 117.864 63.5417 117.725 63.4473 117.543C63.3651 117.355 63.3574 117.143 63.4256 116.95C63.4938 116.757 63.6328 116.596 63.8146 116.502C63.8758 116.441 65.8962 115.522 69.4429 116.379C72.4429 117.114 74.0923 120.42 74.1535 120.543C74.2356 120.73 74.2434 120.942 74.1752 121.135C74.107 121.329 73.9679 121.489 73.7862 121.583C73.6759 121.651 73.5521 121.692 73.4237 121.706Z" fill="#EBD75C"/>
<path d="M78.1342 104.501C77.993 104.5 77.855 104.459 77.7359 104.384C77.6168 104.308 77.5214 104.2 77.4607 104.073C77.4607 104.073 76.2362 101.624 73.9097 101.012C70.9709 100.277 69.3216 101.012 69.3216 101.012C69.1339 101.094 68.9219 101.102 68.7286 101.033C68.5353 100.965 68.3752 100.826 68.2808 100.644C68.1986 100.456 68.1909 100.245 68.2591 100.051C68.3273 99.8581 68.4663 99.698 68.6481 99.6034C68.7093 99.5422 70.7297 98.6238 74.2764 99.4809C77.2764 100.216 78.7427 103.216 78.804 103.338C78.8861 103.526 78.8938 103.738 78.8256 103.931C78.7574 104.124 78.6184 104.284 78.4366 104.379C78.3538 104.455 78.2464 104.498 78.1342 104.501Z" fill="#EBD75C"/>
<path d="M67.4281 147.54L65.4689 160.09C64.5277 160.417 63.5666 160.683 62.5914 160.886C61.2689 161.228 59.9149 161.433 58.5506 161.499C54.3904 161.744 52.5549 161.131 52.5549 161.131C52.5549 161.131 51.8202 159.539 52.5549 154.152C52.8455 151.309 53.4828 148.513 54.4529 145.825C54.4529 145.825 56.412 144.723 60.5098 145.091C61.7786 145.192 63.0316 145.439 64.2444 145.825C65.4231 146.145 66.5124 146.731 67.4281 147.54Z" fill="#004351"/>
<path d="M67.428 147.538L65.4725 160.089C64.5313 160.416 63.5702 160.682 62.595 160.885L64.248 145.824C65.4267 146.144 66.516 146.73 67.4317 147.538H67.428Z" fill="black"/>
<path d="M64.3687 151.398L68.4707 156.357C68.4707 156.357 70.0013 158.868 72.0829 157.521C73.491 156.541 71.8992 154.46 71.4094 153.602C71.287 153.357 69.2054 150.541 67.8584 148.704C67.6523 148.421 67.3797 148.192 67.0645 148.038C66.7492 147.884 66.401 147.809 66.0504 147.822C65.6998 147.834 65.3575 147.932 65.0536 148.107C64.7497 148.282 64.4935 148.529 64.3074 148.827C63.8182 149.378 63.6958 150.235 64.3687 151.398Z" fill="#004351"/>
<path d="M52.6228 160.516C52.6228 160.516 53.235 165.781 54.0922 168.23C54.9493 170.74 56.2962 173.434 57.0922 173.802C57.8881 174.169 58.5615 173.373 58.684 172.149C58.8064 170.924 57.8268 168.659 57.3983 165.781C56.9697 162.904 56.6024 160.7 56.6024 160.7C56.6024 160.7 54.2146 158.374 52.6228 160.516Z" fill="#004351"/>
<path d="M56.7217 160.58C56.7217 160.58 57.8849 166.151 58.987 168.723C60.089 171.294 61.742 174.11 62.538 174.416C63.3339 174.723 63.9461 173.865 63.9461 172.519C63.9461 171.172 62.7216 168.906 61.9869 165.845C61.5457 164.021 61.3197 162.151 61.3135 160.274C61.3135 160.274 58.0686 158.132 56.7217 160.58Z" fill="#004351"/>
<path d="M61.3099 159.722C61.3099 159.722 62.4732 164.926 63.5752 167.314C64.6773 169.702 66.3303 172.334 67.1262 172.64C67.9221 172.947 68.5344 172.089 68.5344 170.865C68.5344 169.64 67.3099 167.498 66.5752 164.62C65.8405 161.804 65.2895 159.661 65.2895 159.661C65.2895 159.661 62.6569 157.457 61.3099 159.722Z" fill="#004351"/>
<path d="M142.188 125.688C141.713 127.34 141.12 128.957 140.412 130.524C138.995 133.715 137.252 136.752 135.212 139.585C133.314 142.218 128.36 146.626 121.447 149.993C115.642 152.889 109.273 154.478 102.788 154.646C89.6345 154.83 82.4156 151.646 78.7446 149.014C77.4085 148.108 76.2481 146.967 75.3197 145.647L94.9579 139.769L142.188 125.688Z" fill="#EBD75C"/>
<path d="M121.448 149.994C115.643 152.89 109.274 154.478 102.789 154.647C89.6357 154.831 82.4168 151.647 78.7458 149.014C77.4093 148.109 76.2484 146.968 75.3197 145.647L94.9579 139.77C98.0191 141.974 109.274 140.504 122.489 143.565C123.528 143.81 123.039 147.912 121.448 149.994Z" fill="#F5E684"/>
<path d="M142.188 125.688C141.713 127.34 141.12 128.957 140.412 130.524C139.127 131.994 137.657 133.585 135.885 135.3C131.77 139.331 127.261 142.941 122.427 146.075C122.427 146.075 114.902 148.708 102.422 149.381C93.2449 149.871 83.2727 149.259 78.6258 148.953C77.2884 148.047 76.1267 146.906 75.1973 145.585L142.188 125.688Z" fill="#004351"/>
<path d="M122.794 143.254L121.998 143.438C113.757 145.492 105.336 146.743 96.8541 147.173C92.6349 147.421 88.4036 147.38 84.1899 147.05C78.133 146.561 75.3192 145.581 75.3192 145.581L70.4255 79.6482L74.7082 78.8522L100.036 74.1992C100.036 74.1992 104.747 87.9134 111.293 107.077C117.778 126.174 122.794 143.254 122.794 143.254Z" fill="#F5E684"/>
<path d="M142.188 125.686C142.188 125.686 140.045 128.318 135.703 132.788L135.642 132.849C131.237 137.379 122.795 143.257 122.795 143.257H122.733C121.264 138.053 118.39 128.379 115.086 118.461C110.192 103.953 100.036 74.2011 100.036 74.2011L106.398 65.3848L109.827 60.6094C109.827 60.6094 118.879 69.242 127.26 86.3235C135.642 103.405 142.188 125.686 142.188 125.686Z" fill="#E1CA39"/>
<path d="M109.824 60.6094L100.036 74.2011L70.3643 79.65L81.193 68.0787L100.158 63.1196L109.824 60.6094Z" fill="#F5E684"/>
<path d="M84.1905 147.112C78.1336 146.622 75.3198 145.643 75.3198 145.643L70.4255 79.71L74.7082 78.9141L84.1905 147.112Z" fill="#EBD75C"/>
<path d="M100.158 63.1211C99.0266 65.3387 97.6073 67.3973 95.9369 69.2435C93.1849 72.3079 89.8596 74.8039 86.1484 76.5904L70.3643 79.6516L81.1317 68.0802L100.158 63.1211Z" fill="#EBD75C"/>
<path d="M142.188 125.686C142.188 125.686 140.045 128.318 135.703 132.788C132.49 121.565 128.712 110.512 124.385 99.6703C117.594 82.65 110.803 71.5685 106.398 65.3848L109.827 60.6094C109.827 60.6094 118.879 69.242 127.26 86.3235C135.642 103.405 142.188 125.686 142.188 125.686Z" fill="#EBD75C"/>
<path d="M112.027 132.787C112.061 132.983 112.052 133.184 112 133.376C111.948 133.568 111.854 133.747 111.726 133.898C111.597 134.05 111.437 134.172 111.256 134.255C111.075 134.338 110.879 134.38 110.68 134.379C110.25 134.366 109.839 134.198 109.523 133.905C109.208 133.613 109.01 133.215 108.965 132.787C108.931 132.591 108.94 132.39 108.992 132.198C109.044 132.006 109.138 131.827 109.267 131.675C109.395 131.524 109.556 131.402 109.737 131.319C109.918 131.236 110.114 131.194 110.314 131.195C110.74 131.219 111.145 131.391 111.458 131.681C111.771 131.972 111.972 132.363 112.027 132.787Z" fill="#EBD75C"/>
<path d="M103.525 95.9317C103.535 96.1331 103.505 96.3345 103.436 96.5241C103.367 96.7137 103.261 96.8877 103.124 97.0359C102.988 97.1841 102.823 97.3036 102.639 97.3873C102.456 97.471 102.257 97.5173 102.056 97.5235C101.639 97.5059 101.244 97.3326 100.95 97.0378C100.655 96.743 100.481 96.3482 100.464 95.9317C100.454 95.7302 100.484 95.5288 100.553 95.3392C100.622 95.1496 100.728 94.9756 100.865 94.8274C101.001 94.6792 101.166 94.5598 101.35 94.476C101.533 94.3923 101.732 94.346 101.933 94.3398C102.353 94.3469 102.754 94.5169 103.051 94.8139C103.348 95.1109 103.518 95.5117 103.525 95.9317Z" fill="#EBD75C"/>
<path d="M76.7285 100.279C76.7399 100.457 76.7154 100.635 76.6564 100.803C76.5974 100.971 76.5051 101.125 76.3851 101.257C76.265 101.388 76.1197 101.494 75.9578 101.568C75.7959 101.642 75.6208 101.683 75.4428 101.687C75.2617 101.684 75.083 101.645 74.9171 101.572C74.7512 101.5 74.6013 101.395 74.4761 101.264C74.3509 101.133 74.2528 100.979 74.1876 100.81C74.1223 100.641 74.0912 100.46 74.0959 100.279C74.0844 100.102 74.109 99.9235 74.168 99.7555C74.227 99.5876 74.3193 99.4332 74.4393 99.3018C74.5593 99.1703 74.7046 99.0644 74.8665 98.9904C75.0285 98.9164 75.2036 98.8758 75.3816 98.8711C75.5627 98.8744 75.7413 98.9136 75.9073 98.9863C76.0732 99.059 76.223 99.1638 76.3483 99.2947C76.4735 99.4256 76.5715 99.58 76.6368 99.749C76.702 99.9179 76.7332 100.098 76.7285 100.279Z" fill="#F5E684"/>
<path d="M81.0724 135.603C81.0838 135.781 81.0593 135.959 81.0003 136.127C80.9413 136.295 80.849 136.449 80.7289 136.581C80.6089 136.712 80.4636 136.818 80.3017 136.892C80.1398 136.966 79.9646 137.007 79.7867 137.012C79.6056 137.008 79.4269 136.969 79.261 136.896C79.0951 136.824 78.9452 136.719 78.82 136.588C78.6948 136.457 78.5967 136.303 78.5315 136.134C78.4662 135.965 78.435 135.785 78.4397 135.603C78.4283 135.426 78.4528 135.248 78.5118 135.08C78.5709 134.912 78.6631 134.757 78.7832 134.626C78.9032 134.495 79.0485 134.389 79.2104 134.315C79.3723 134.241 79.5475 134.2 79.7254 134.195C80.0841 134.222 80.4201 134.381 80.6688 134.641C80.9174 134.901 81.0612 135.244 81.0724 135.603Z" fill="#F5E684"/>
<path d="M125.729 137.683C125.757 137.886 125.741 138.093 125.683 138.289C125.625 138.486 125.527 138.668 125.394 138.823C125.261 138.979 125.097 139.105 124.912 139.193C124.727 139.281 124.526 139.329 124.321 139.333C123.889 139.315 123.479 139.135 123.173 138.829C122.867 138.523 122.686 138.113 122.668 137.68C122.64 137.477 122.655 137.271 122.713 137.074C122.77 136.877 122.869 136.695 123.002 136.539C123.135 136.382 123.299 136.256 123.484 136.168C123.67 136.08 123.871 136.032 124.076 136.027C124.513 136.035 124.929 136.212 125.237 136.521C125.546 136.83 125.722 137.247 125.729 137.683Z" fill="#F5E684"/>
<path d="M140.537 124.461C140.556 124.62 140.543 124.78 140.497 124.933C140.451 125.085 140.373 125.227 140.27 125.348C140.166 125.468 140.038 125.567 139.894 125.635C139.751 125.704 139.594 125.742 139.435 125.747C139.104 125.732 138.792 125.59 138.564 125.351C138.336 125.111 138.209 124.792 138.21 124.461C138.191 124.303 138.205 124.143 138.251 123.99C138.297 123.838 138.374 123.696 138.478 123.575C138.582 123.454 138.71 123.356 138.853 123.287C138.997 123.219 139.154 123.181 139.313 123.176C139.636 123.211 139.936 123.36 140.16 123.595C140.384 123.83 140.518 124.137 140.537 124.461Z" fill="#F5E684"/>
<path d="M121.142 80.5062C121.999 86.0776 119.183 90.5469 114.78 90.5469C110.377 90.5469 106.092 86.0164 105.236 80.5062C104.38 74.9348 107.194 70.4655 111.599 70.4655C116.003 70.4042 120.286 74.9348 121.142 80.5062Z" fill="#EBD75C"/>
<path d="M120.714 78.3639C122.061 82.7108 120.714 86.6904 117.775 87.1802C114.837 87.67 111.354 84.5476 110.069 80.1394C108.722 75.7925 110.069 71.813 113.008 71.3232C115.947 70.8334 119.369 74.0176 120.714 78.3639Z" fill="#E1CA39"/>
<path d="M118.084 78.9151C118.635 80.6906 118.084 82.3437 116.859 82.5273C115.635 82.711 114.226 81.4253 113.675 79.6498C113.124 77.8743 113.675 76.2213 114.9 76.0376C116.126 75.7933 117.533 77.079 118.084 78.9151Z" fill="#EBD75C"/>
<path d="M136.498 87.9142C135.664 87.9111 134.836 87.7662 134.049 87.4857C131.478 86.5061 130.743 85.8326 127.993 83.2C127.38 82.5877 126.646 81.9143 125.788 81.1184C124.722 80.0448 123.317 79.373 121.812 79.2168C120.307 79.0606 118.794 79.4296 117.529 80.2612C117.27 80.4398 116.949 80.5079 116.639 80.4505C116.329 80.3931 116.055 80.2149 115.876 79.9551C115.698 79.6953 115.63 79.3752 115.687 79.0652C115.744 78.7552 115.923 78.4807 116.182 78.3021C117.888 77.163 119.936 76.6503 121.977 76.8513C124.018 77.0522 125.927 77.9543 127.378 79.4041C128.235 80.2 128.97 80.9347 129.582 81.4857C132.215 84.0571 132.704 84.4857 134.843 85.2816C135.693 85.6351 136.636 85.6946 137.522 85.4505C138.409 85.2064 139.189 84.6729 139.738 83.9347C139.916 83.6749 140.191 83.4967 140.501 83.4392C140.811 83.3818 141.131 83.4499 141.391 83.6285C141.651 83.8072 141.829 84.0817 141.886 84.3917C141.944 84.7017 141.876 85.0218 141.697 85.2816C141.108 86.1081 140.327 86.7794 139.422 87.2379C138.516 87.6965 137.513 87.9285 136.498 87.9142Z" fill="#004351"/>
<path d="M109.152 129.483L108.845 129.544L100.709 130.463L93.9796 131.197L92.449 131.381L87.2487 131.932L86.8813 131.993L85.9017 132.054L80.1559 132.728L79.36 126.361L76.4824 103.034L81.8052 102.177L86.9444 101.381H87.0056L92.0835 100.585L101.871 99.0547L103.463 105.912L103.647 106.524L105.178 113.136L105.484 114.238L107.137 121.157L109.096 129.238L109.152 129.483Z" fill="black"/>
<path d="M109.152 129.481L108.845 129.543L100.709 130.461L93.9796 131.196L92.449 131.379L87.2486 131.93L86.8813 131.992L85.9017 132.053L83.0284 109.094L88.4119 108.298L93.4898 107.502L93.551 107.441L98.6902 106.645L103.462 105.91L103.646 106.522L105.176 113.135L105.482 114.237L107.135 121.155L109.095 129.237L109.152 129.481Z" fill="#004351"/>
<path d="M100.281 126.545C100.281 127.245 100.434 127.938 100.73 128.572C101.026 129.207 101.458 129.769 101.996 130.218L96.245 130.831L94.898 130.953L90.4317 131.443L90.3093 129.055L90.1256 124.708L94.1052 124.586C94.2109 123.96 94.3749 123.345 94.595 122.749L90.7991 120.239L94.8974 114.055L99.0576 117.178C99.5474 116.872 100.037 116.627 100.527 116.382L99.3025 111.055L102.486 110.259L104.384 109.77L105.731 115.402L105.976 116.382L107.384 122.32C106.661 121.897 105.834 121.685 104.996 121.708C103.737 121.746 102.541 122.272 101.662 123.174C100.782 124.076 100.287 125.285 100.281 126.545Z" fill="#E0F7FE"/>
<path d="M88.1677 110.138L83.091 110.873L81.8053 102.179L86.9444 101.383L88.1677 110.138Z" fill="#E0F7FE"/>
<path d="M92.8789 106.586L87.7404 107.259L86.9445 101.382L92.0224 100.586L92.8789 106.586Z" fill="#E0F7FE"/>
<path d="M86.8832 131.991L80.1541 132.726L79.3582 126.358L86.0879 125.562L86.8832 131.991Z" fill="#E0F7FE"/>
<path d="M100.281 126.544C100.281 127.244 100.434 127.936 100.73 128.571C101.026 129.206 101.458 129.768 101.996 130.217L96.2449 130.829L94.898 130.952L90.4317 131.442L90.3705 130.278L97.6506 129.605C97.0084 127.041 97.3583 124.33 98.6302 122.013C99.1837 120.977 99.9896 120.097 100.973 119.455C101.957 118.813 103.087 118.429 104.259 118.34L102.545 110.197L104.443 109.707L105.79 115.34L106.035 116.319L107.443 122.258C106.72 121.834 105.893 121.622 105.055 121.646C103.784 121.696 102.58 122.232 101.692 123.143C100.804 124.054 100.299 125.271 100.281 126.544Z" fill="#E0F7FE"/>
<path d="M65.2864 113.502C61.2456 113.502 58.924 110.992 58.2511 109.461C58.1182 109.176 58.1014 108.851 58.2043 108.554C58.3071 108.257 58.5215 108.011 58.8021 107.87C59.087 107.736 59.4126 107.719 59.7099 107.822C60.0071 107.925 60.2525 108.14 60.3939 108.421C60.4552 108.543 62.1082 111.727 66.5727 110.992C69.1441 110.563 70.0012 109.4 70.9777 108.114C71.8349 106.951 72.8145 105.604 74.9573 104.992C78.0185 104.074 81.0754 106.339 81.1973 106.461C81.4372 106.657 81.5954 106.934 81.6407 107.24C81.686 107.546 81.6152 107.858 81.4422 108.114C81.2489 108.357 80.9707 108.517 80.6639 108.563C80.3571 108.608 80.0444 108.535 79.7891 108.359C79.7279 108.359 77.5238 106.706 75.6289 107.257C74.282 107.686 73.6698 108.482 72.8739 109.523C72.2367 110.569 71.3726 111.459 70.3454 112.126C69.3183 112.794 68.1543 113.222 66.9394 113.38C66.3946 113.481 65.8402 113.522 65.2864 113.502Z" fill="#E0F7FE"/>
<path d="M69.6921 120.115C68.4263 120.794 66.9985 121.114 65.5638 121.038C64.1292 120.962 62.7427 120.495 61.5554 119.686C61.3118 119.491 61.1557 119.208 61.1212 118.898C61.0868 118.588 61.1769 118.277 61.3717 118.033C61.5666 117.789 61.8502 117.633 62.1602 117.599C62.4702 117.564 62.7812 117.654 63.0248 117.849C63.1472 117.911 66.0248 120.053 69.7545 117.36C71.8974 115.829 72.1423 114.421 72.3872 112.768C72.6321 111.298 72.9382 109.707 74.53 108.176C76.8565 105.972 80.5869 106.645 80.77 106.707C81.0683 106.767 81.3312 106.942 81.5027 107.193C81.6742 107.445 81.7408 107.754 81.6883 108.053C81.6278 108.352 81.4531 108.615 81.2015 108.786C80.9499 108.958 80.6413 109.025 80.3414 108.972C80.2802 108.972 77.5863 108.482 76.12 109.89C75.0792 110.87 74.8955 111.911 74.7118 113.196C74.4057 114.972 74.0384 117.176 71.0996 119.319C70.6704 119.564 70.1813 119.87 69.6921 120.115Z" fill="#2FA2B9"/>
<path d="M99.4243 47.446C97.066 51.7501 94.1218 55.7062 90.676 59.201C87.7568 62.243 84.3435 64.7684 80.5808 66.6704C75.8969 68.9956 71.0515 70.9803 66.0823 72.6091C63.3709 73.5252 60.6142 74.3018 57.8232 74.9356C57.8232 74.9356 47.0557 56.8745 45.4651 43.1603C44.3631 33.4257 47.6692 26.5686 53.4794 21.9768C54.9941 20.7807 56.6353 19.7542 58.3736 18.9156C59.5369 18.3646 60.7001 17.8748 61.9246 17.385C72.6896 13.4698 82.7236 20.7524 87.8003 26.9972C92.9395 33.3033 99.4243 47.446 99.4243 47.446Z" fill="#F5E684"/>
<path d="M66.0823 72.6091C63.3709 73.5252 60.6142 74.3017 57.8232 74.9356C57.8232 74.9356 47.0557 56.8782 45.4651 43.164C44.3631 33.4294 47.6692 26.5723 53.4794 21.9805C52.1287 28.4942 52.3808 35.2386 54.2141 41.6334C56.9667 50.5109 62.1665 63.3036 66.0823 72.6091Z" fill="#EBD75C"/>
<path d="M71.3743 58.9356C75.8879 57.1176 77.6732 50.9917 75.3618 45.2529C73.0504 39.5141 67.5176 36.3356 63.0039 38.1536C58.4902 39.9716 56.7049 46.0975 59.0163 51.8363C61.3277 57.5751 66.8606 60.7536 71.3743 58.9356Z" fill="#E1CA39"/>
<path d="M69.8626 57.8748C73.7807 56.2967 75.3187 50.95 73.2979 45.9326C71.277 40.9152 66.4626 38.1271 62.5445 39.7051C58.6264 41.2832 57.0884 46.6299 59.1093 51.6473C61.1301 56.6647 65.9446 59.4528 69.8626 57.8748Z" fill="#004351"/>
<path d="M68.7327 56.1796C71.9924 54.8667 73.2833 50.4467 71.6161 46.3072C69.9488 42.1677 65.9547 39.8763 62.695 41.1892C59.4353 42.5021 58.1443 46.9221 59.8116 51.0616C61.4788 55.2012 65.4729 57.4926 68.7327 56.1796Z" fill="black"/>
<path d="M53.9813 65.0315C56.3321 64.0847 56.7019 59.5037 54.8072 54.7997C52.9126 50.0956 49.471 47.0498 47.1202 47.9966C44.7694 48.9434 44.3996 53.5243 46.2943 58.2284C48.1889 62.9325 51.6305 65.9783 53.9813 65.0315Z" fill="#F5E684"/>
<path d="M52.8666 65.0681C55.0608 64.1843 55.4164 59.9342 53.6607 55.5751C51.905 51.2161 48.7029 48.3988 46.5087 49.2826C44.3144 50.1664 43.9589 54.4165 45.7145 58.7756C47.4702 63.1346 50.6723 65.9519 52.8666 65.0681Z" fill="#004351"/>
<path d="M51.8826 63.6146C53.6378 62.9077 53.9138 59.4874 52.4992 55.9752C51.0846 52.463 48.515 50.1889 46.7599 50.8958C45.0047 51.6027 44.7286 55.023 46.1432 58.5352C47.5578 62.0474 50.1274 64.3216 51.8826 63.6146Z" fill="black"/>
<path d="M83.3346 5.93994L79.906 20.5725L74.6444 20.0215L66.1435 19.1643L61.8608 18.7358L71.4044 1.04202C72.1768 0.726217 72.9759 0.480335 73.7922 0.30733C75.3989 -0.140682 77.1029 -0.0980396 78.6852 0.429778C79.5782 0.821663 80.3729 1.40722 81.0117 2.14405C81.9847 3.27646 82.769 4.55817 83.3346 5.93994Z" fill="#F5E684"/>
<path d="M83.3339 5.9417L79.9084 20.5742L74.6469 20.0232L81.0093 2.20703C81.9887 3.31231 82.7746 4.57492 83.3339 5.9417Z" fill="#EBD75C"/>
<path d="M73.791 0.308594L66.1435 19.1656L61.8608 18.737L71.4044 1.04328C72.1764 0.72755 72.9751 0.481669 73.791 0.308594V0.308594Z" fill="#E1CA39"/>
<path d="M81.3774 10.1598C81.2105 10.1651 81.0468 10.1134 80.9133 10.0132C80.7798 9.91306 80.6843 9.77041 80.6427 9.60877C80.5814 9.48632 79.7243 6.85369 75.6872 5.75165C72.5035 4.83329 70.6093 5.8741 70.6093 5.93533C70.4222 6.03907 70.2018 6.06511 69.9956 6.00785C69.7894 5.95059 69.6141 5.8146 69.5072 5.62921C69.4038 5.44201 69.378 5.22172 69.4352 5.01566C69.4924 4.8096 69.6282 4.63421 69.8134 4.52717C69.9358 4.46595 72.3235 3.11902 76.1145 4.22105C81.0088 5.62921 82.049 8.99653 82.1102 9.1802C82.1395 9.2807 82.1485 9.38604 82.1366 9.49005C82.1247 9.59406 82.0921 9.69465 82.0407 9.78589C81.9894 9.87714 81.9204 9.95722 81.8377 10.0214C81.755 10.0856 81.6603 10.1327 81.5592 10.1598H81.3774Z" fill="#EBD75C"/>
<path d="M80.0309 16.2851C79.8502 16.2816 79.6754 16.2202 79.5322 16.11C79.3889 15.9998 79.2848 15.8466 79.235 15.6729C79.235 15.5504 78.5003 12.6117 74.0347 11.2647C69.569 9.91779 67.7335 11.5708 67.611 11.6933C67.4649 11.8394 67.2667 11.9215 67.06 11.9215C66.8533 11.9215 66.6551 11.8394 66.509 11.6933C66.3629 11.5472 66.2808 11.3489 66.2808 11.1423C66.2808 10.9356 66.3629 10.7374 66.509 10.5913C66.6314 10.4688 69.0192 8.20352 74.462 9.79535C79.8454 11.4484 80.702 15.1831 80.702 15.3667C80.7223 15.4673 80.7226 15.5708 80.7028 15.6714C80.683 15.772 80.6435 15.8678 80.5866 15.9531C80.5297 16.0384 80.4566 16.1117 80.3713 16.1687C80.286 16.2256 80.1903 16.2652 80.0897 16.2851H80.0309Z" fill="#EBD75C"/>
<path d="M99.4242 47.4446C97.0659 51.7487 94.1217 55.7047 90.6759 59.1996C85.598 48.669 76.666 31.2814 70.4255 25.159C67.1969 21.8294 62.9612 19.6562 58.3735 18.9754C59.5368 18.4244 60.7 17.9346 61.9245 17.4448C72.692 13.5264 82.7254 20.8121 87.8033 27.057C92.9394 33.3018 99.4242 47.4446 99.4242 47.4446Z" fill="#E1CA39"/>
<path d="M104.012 51.9788C99.7507 58.1094 94.4993 63.4889 88.4731 67.897C87.1524 68.8452 85.7832 69.724 84.3711 70.5296C79.5461 73.2734 74.4896 75.5884 69.2598 77.448C65.834 78.7118 62.3438 79.7939 58.8039 80.6898L55.6815 71.3256C55.6815 71.3256 60.7594 69.3052 67.3055 66.244C68.0402 65.8766 68.7749 65.5093 69.5708 65.1419C77.1571 61.4685 80.0322 59.142 80.0322 59.142L79.2362 50.7543C79.2362 50.7543 80.6444 49.8359 82.6036 48.489C84.7464 47.0196 87.4978 45.0605 89.4558 43.4074C93.1904 40.285 94.5337 37.6523 94.5337 37.6523C96.5611 40.167 98.46 42.7825 100.223 45.489C102.667 49.2849 104.012 51.9788 104.012 51.9788Z" fill="#F5E684"/>
<path d="M104.012 51.98C99.7507 58.1107 94.4994 63.4901 88.4731 67.8983L82.5387 48.5515C84.6815 47.0821 87.4329 45.123 89.3909 43.4699C93.1256 40.3475 94.4688 37.7148 94.4688 37.7148C96.4962 40.2295 98.3952 42.845 100.158 45.5515C101.566 47.6182 102.853 49.7646 104.012 51.98Z" fill="#E1CA39"/>
<path d="M69.3247 77.4462C65.8978 78.7112 62.4064 79.7943 58.8652 80.6911L55.7428 71.3238C55.7428 71.3238 60.8207 69.3034 67.3668 66.2422L69.3247 77.4462Z" fill="#EBD75C"/>
<path d="M95.0193 37.5301C95.8764 42.8566 93.1213 47.1423 88.9624 47.1423C84.8034 47.1423 80.7033 42.8566 79.8468 37.5301C78.9902 32.2037 81.7435 27.918 85.9036 27.918C90.0638 27.918 94.1628 32.2037 95.0193 37.5301Z" fill="#EBD75C"/>
<path d="M95.0193 35.5706C96.4275 40.2848 95.0193 44.5705 91.8357 45.1215C88.652 45.6725 84.8641 42.2434 83.4566 37.4685C82.049 32.6937 83.4566 28.4686 86.6402 27.9176C89.8196 27.4284 93.5512 30.8569 95.0193 35.5706Z" fill="#E1CA39"/>
<path d="M92.7558 35.0802C93.4292 37.223 92.7558 39.121 91.3476 39.3659C89.9395 39.6108 88.2252 38.0802 87.5517 35.9373C86.8783 33.7945 87.5517 31.8966 88.9599 31.6517C90.4311 31.468 92.1441 32.9986 92.7558 35.0802Z" fill="#F5E684"/>
<path d="M59.0464 106.155C58.937 106.103 58.8413 106.026 58.7669 105.93C58.6925 105.834 58.6414 105.723 58.6178 105.604L58.0668 102.91C58.0262 102.707 58.0679 102.496 58.1827 102.324C58.2975 102.152 58.4761 102.032 58.679 101.992C58.882 101.951 59.0928 101.993 59.265 102.108C59.4372 102.222 59.5568 102.401 59.5974 102.604L60.1484 105.298C60.1687 105.398 60.169 105.502 60.1492 105.603C60.1294 105.703 60.09 105.799 60.0331 105.884C59.9762 105.97 59.903 106.043 59.8177 106.1C59.7325 106.157 59.6368 106.196 59.5362 106.216C59.3704 106.23 59.2036 106.209 59.0464 106.155Z" fill="#2FA2B9"/>
<path d="M56.4769 107.686C56.4156 107.686 56.4156 107.686 56.3544 107.625L52.4361 105.788C52.2537 105.693 52.1108 105.536 52.0324 105.346C51.954 105.155 51.9452 104.943 52.0075 104.747C52.1028 104.565 52.2594 104.422 52.4498 104.343C52.6402 104.265 52.8521 104.256 53.0483 104.319L56.9667 106.155C57.1491 106.251 57.292 106.407 57.3704 106.598C57.4488 106.788 57.4576 107 57.3952 107.196C57.3329 107.379 57.2033 107.532 57.0328 107.622C56.8622 107.713 56.6635 107.736 56.4769 107.686Z" fill="#2FA2B9"/>
<path d="M52.684 111.848C52.5944 111.809 52.5148 111.75 52.4512 111.676C52.3875 111.601 52.3416 111.514 52.3167 111.419C52.2815 111.323 52.2663 111.22 52.2721 111.118C52.2779 111.016 52.3045 110.916 52.3504 110.824C52.3962 110.732 52.4603 110.651 52.5388 110.585C52.6172 110.519 52.7083 110.469 52.8065 110.44L55.8677 109.46C55.964 109.425 56.0665 109.409 56.1689 109.415C56.2713 109.421 56.3714 109.448 56.4632 109.494C56.5549 109.539 56.6363 109.604 56.7024 109.682C56.7684 109.76 56.8177 109.852 56.8473 109.95C56.8825 110.046 56.8976 110.149 56.8918 110.251C56.8861 110.353 56.8594 110.454 56.8135 110.545C56.7677 110.637 56.7036 110.718 56.6252 110.784C56.5467 110.85 56.4556 110.9 56.3575 110.929L53.2963 111.909C53.1963 111.946 53.0892 111.96 52.9831 111.949C52.877 111.939 52.7747 111.904 52.684 111.848Z" fill="#2FA2B9"/>
<path d="M143.289 80.5056C143.084 80.5464 142.871 80.5251 142.677 80.4444C142.589 80.3883 142.512 80.3153 142.451 80.2294C142.391 80.1436 142.348 80.0467 142.326 79.9443C142.303 79.8419 142.301 79.736 142.319 79.6326C142.337 79.5293 142.376 79.4307 142.432 79.3423L144.208 76.3424C144.321 76.1637 144.501 76.0376 144.708 75.9917C144.915 75.9457 145.131 75.9838 145.31 76.0975C145.488 76.2111 145.615 76.3911 145.661 76.5978C145.706 76.8044 145.668 77.0209 145.555 77.1995L143.779 80.1995C143.64 80.3361 143.473 80.4406 143.289 80.5056Z" fill="#2FA2B9"/>
<path d="M144.636 84.3025C144.479 84.2972 144.328 84.2404 144.206 84.1409C144.084 84.0413 143.999 83.9045 143.962 83.7515C143.933 83.651 143.924 83.5457 143.936 83.4416C143.948 83.3376 143.98 83.237 144.032 83.1458C144.083 83.0546 144.152 82.9745 144.235 82.9103C144.317 82.8461 144.412 82.799 144.513 82.7719L149.713 81.1801C149.814 81.1507 149.919 81.1416 150.023 81.1535C150.127 81.1654 150.228 81.198 150.319 81.2493C150.41 81.3007 150.49 81.3697 150.554 81.4525C150.619 81.5352 150.666 81.6299 150.693 81.7311C150.722 81.8316 150.731 81.9369 150.719 82.041C150.707 82.145 150.675 82.2455 150.623 82.3368C150.572 82.428 150.503 82.5081 150.42 82.5723C150.337 82.6365 150.243 82.6836 150.142 82.7107L144.941 84.3025C144.819 84.3025 144.758 84.3637 144.636 84.3025Z" fill="#2FA2B9"/>
<path d="M146.593 89.874C146.507 89.8767 146.423 89.8555 146.348 89.8127L144.205 88.9556C144.106 88.9191 144.015 88.8623 143.939 88.789C143.863 88.7156 143.803 88.6272 143.763 88.5293C143.722 88.4315 143.703 88.3263 143.705 88.2206C143.708 88.1148 143.732 88.0106 143.777 87.9148C143.813 87.8154 143.87 87.7247 143.943 87.6484C144.017 87.5721 144.105 87.5119 144.203 87.4716C144.301 87.4313 144.406 87.4118 144.512 87.4143C144.618 87.4168 144.722 87.4413 144.818 87.4862L146.961 88.3433C147.06 88.3799 147.151 88.4366 147.227 88.51C147.303 88.5833 147.363 88.6718 147.403 88.7696C147.444 88.8674 147.463 88.9726 147.461 89.0784C147.458 89.1842 147.434 89.2883 147.389 89.3842C147.337 89.5476 147.228 89.687 147.082 89.7769C146.936 89.8668 146.763 89.9012 146.593 89.874Z" fill="#2FA2B9"/>
<path d="M110.498 50.0176H110.314C110.115 49.97 109.941 49.8489 109.828 49.6786C109.714 49.5083 109.669 49.3013 109.702 49.0992L111.11 42.9156C111.158 42.7165 111.279 42.5428 111.449 42.4292C111.619 42.3157 111.826 42.2707 112.028 42.3034C112.228 42.3509 112.401 42.472 112.515 42.6424C112.628 42.8127 112.673 43.0196 112.641 43.2217L111.233 49.4053C111.205 49.579 111.115 49.7368 110.98 49.8493C110.845 49.9619 110.674 50.0217 110.498 50.0176Z" fill="#2FA2B9"/>
<path d="M114.351 52.6465C114.216 52.6497 114.083 52.6175 113.965 52.553C113.846 52.4885 113.747 52.3941 113.677 52.2792C113.619 52.1883 113.58 52.0862 113.564 51.9794C113.548 51.8727 113.555 51.7637 113.584 51.6597C113.613 51.5557 113.663 51.459 113.732 51.3758C113.801 51.2926 113.886 51.225 113.983 51.1772L121.326 46.8915C121.417 46.833 121.519 46.7944 121.626 46.7782C121.733 46.762 121.842 46.7686 121.946 46.7975C122.05 46.8264 122.147 46.877 122.23 46.9459C122.313 47.0149 122.381 47.1007 122.428 47.1976C122.487 47.2885 122.525 47.3906 122.541 47.4974C122.557 47.6041 122.551 47.7131 122.522 47.8171C122.493 47.9211 122.442 48.0179 122.374 48.101C122.305 48.1842 122.219 48.2518 122.122 48.2996L114.779 52.5853C114.595 52.5853 114.473 52.6465 114.351 52.6465Z" fill="#2FA2B9"/>
<path d="M123.957 58.3418L116.065 57.9133C115.963 57.9154 115.861 57.8958 115.767 57.8558C115.672 57.8157 115.588 57.7561 115.518 57.6808C115.449 57.6056 115.396 57.5164 115.364 57.4193C115.331 57.3222 115.32 57.2192 115.33 57.1174C115.328 57.015 115.347 56.9132 115.388 56.8189C115.428 56.7247 115.487 56.64 115.562 56.5705C115.638 56.501 115.727 56.4483 115.824 56.416C115.921 56.3836 116.024 56.3722 116.126 56.3827L123.957 56.8112C124.059 56.8091 124.161 56.8287 124.255 56.8687C124.349 56.9088 124.434 56.9685 124.503 57.0437C124.573 57.1189 124.625 57.2081 124.658 57.3052C124.69 57.4024 124.702 57.5053 124.691 57.6072C124.701 57.706 124.688 57.8057 124.655 57.8991C124.621 57.9926 124.567 58.0775 124.497 58.1477C124.427 58.2179 124.342 58.2717 124.249 58.3053C124.155 58.3388 124.056 58.3513 123.957 58.3418Z" fill="#2FA2B9"/>
</g>
<defs>
<clipPath id="clip0_6506_140400">
<rect width="222.245" height="300" fill="white" transform="translate(0.865845)"/>
</clipPath>
</defs>
</svg>
