<svg width="204" height="300" viewBox="0 0 204 300" fill="none" xmlns="http://www.w3.org/2000/svg">
<g clip-path="url(#clip0_6506_140272)">
<path d="M166.315 253.364C163.705 259.744 146.188 258.932 144.158 264.385C142.127 269.837 159.993 269.315 159.413 276.16C158.833 283.004 148.044 284.048 128.67 285.15C109.297 286.252 105.004 291.357 85.6309 297.679C66.2573 304.002 57.7306 295.823 46.8838 289.907C36.0949 284.048 15.3873 294.837 8.89074 285.73C2.39422 276.566 20.0856 273.317 35.6889 269.779C51.3501 266.183 44.2736 264.501 43.8675 256.902C43.8095 255.336 44.2736 254.118 45.1436 253.132C48.6819 249.304 58.9487 249.246 71.2457 249.478C86.733 249.826 90.6193 244.663 112.197 245.127C132.093 245.533 163.299 246.751 166.141 251.914C166.489 252.378 166.547 252.842 166.315 253.364Z" fill="#A6DFEB"/>
<path d="M196.594 264.672C196.42 265.021 196.13 265.369 195.782 265.775C193.287 268.501 185.109 270.183 178.554 270.299C170.434 270.357 161.965 269.835 161.675 264.905C161.443 259.974 182.209 259.684 189.459 260.496C195.724 261.076 197.696 262.526 196.594 264.672Z" fill="#A6DFEB"/>
<path d="M36.0948 263.862C35.9788 264.152 35.7467 264.442 35.4567 264.732C33.4845 266.878 27.046 268.27 21.8836 268.328C15.5031 268.386 8.77457 267.98 8.60056 263.978C8.42655 260.033 24.7839 259.801 30.4683 260.439C35.3987 260.961 37.0228 262.121 36.0948 263.862Z" fill="#A6DFEB"/>
<path d="M139.981 294.78C134.297 297.042 113.067 297.158 113.125 294.374C113.125 294.026 113.241 293.678 113.473 293.388C115.039 291.184 121.536 289.965 127.394 289.733C134.297 289.501 138.995 290.255 141.083 291.358C142.997 292.402 142.707 293.678 139.981 294.78Z" fill="#A6DFEB"/>
<path d="M85.805 287.875C80.5846 289.789 63.9953 289.325 64.1113 285.903C64.1113 285.497 64.2273 285.09 64.4013 284.684C65.7934 282.016 70.1437 281.03 75.1321 280.856C80.9326 280.624 85.689 281.552 87.6031 282.654C90.0393 283.988 90.0973 286.251 85.805 287.875Z" fill="#008AA7"/>
<path d="M150.132 255.336C147.058 256.845 135.863 256.729 135.921 254.756C135.921 254.524 135.979 254.292 136.095 254.06C136.965 252.552 140.387 251.74 143.519 251.624C147.174 251.508 149.668 252.088 150.712 252.9C151.756 253.654 151.582 254.582 150.132 255.336Z" fill="#008AA7"/>
<path d="M147.116 276.103C144.621 277.321 135.457 277.205 135.515 275.639C135.515 275.465 135.573 275.233 135.689 275.059C136.385 273.841 139.227 273.145 141.779 273.087C144.795 272.971 146.826 273.493 147.696 274.131C148.45 274.769 148.334 275.523 147.116 276.103Z" fill="#008AA7"/>
<path d="M119.389 275.115C93.0553 282.365 53.5542 270.3 53.9022 263.398C53.9602 262.528 54.3082 261.774 54.9463 261.078C59.4706 256.089 77.9161 254.697 94.6794 255.683C114.343 256.901 127.626 260.034 133.427 263.398C138.705 266.356 132.846 271.403 119.389 275.115Z" fill="#008AA7"/>
<path d="M52.5102 277.032C50.016 278.424 40.7353 278.308 40.8513 276.51C40.8513 276.278 40.9093 276.104 41.0253 275.872C41.7214 274.48 44.5636 273.726 47.1158 273.61C50.132 273.494 52.1622 274.016 53.0323 274.77C53.8443 275.524 53.7283 276.394 52.5102 277.032Z" fill="#008AA7"/>
<path d="M137.081 73.2016C137.081 73.2016 135.573 68.5032 140.793 68.2132C146.014 67.9812 140.793 60.2666 146.014 55.8002C151.234 51.3339 157.441 53.306 157.673 59.2805C157.905 65.255 156.919 68.9673 157.673 70.4754C158.427 71.9835 160.631 67.7492 163.357 70.7074C166.083 73.6656 149.204 130.8 149.204 130.8L140.039 128.538L137.081 73.2016Z" fill="#B0EDFF"/>
<path d="M153.67 82.3107C151.176 83.4708 146.072 117.578 150.306 114.213C151.292 113.459 160.051 79.3525 153.67 82.3107Z" fill="#E0F7FE"/>
<path d="M196.884 46.2885C196.652 47.9126 196.246 49.4207 195.84 50.7548C191.779 63.0518 180.701 63.5159 180.527 65.198C180.353 67.0541 188.531 73.2026 180.875 80.6852C173.218 88.1678 157.615 78.6551 153.496 78.307C147.696 77.843 135.631 88.1678 127.336 77.437C122 70.5344 130.585 66.6481 128.612 64.7339C126.64 62.8198 111.211 62.4718 111.211 45.1284C111.211 44.7804 111.211 44.4323 111.211 44.0843C111.791 26.7409 127.22 27.959 127.974 24.5367C128.728 21.1145 128.554 1.04486 152.916 0.174787C177.336 -0.695282 176.582 24.0147 178.786 25.1748C181.107 26.3929 199.494 29.5831 196.884 46.2885Z" fill="#E0F7FE"/>
<path d="M177.51 60.7322C182.731 58.586 190.561 54.7577 195.782 50.7554C191.721 63.0523 180.642 63.5164 180.468 65.1985C180.294 67.0547 188.473 73.2032 180.816 80.6858C173.16 88.1684 157.557 78.6556 153.438 78.3076C147.638 77.8435 135.573 88.1684 127.278 77.4375C121.942 70.5349 130.526 66.6486 128.554 64.7345C126.582 62.8203 111.153 62.4723 111.153 45.1289C112.487 47.8551 115.271 51.7414 121.246 54.4677C131.28 59.05 138.357 53.9456 141.895 58.876C145.434 63.8064 138.009 66.8806 141.315 69.7809C144.68 72.6811 149.9 65.3725 158.253 69.2588C166.663 73.1452 171.884 75.6974 175.19 72.1591C178.67 68.5628 170.086 63.8064 177.51 60.7322Z" fill="#B0EDFF"/>
<path d="M137.893 36.0789C137.893 36.0789 137.835 36.0209 137.661 35.9049C137.487 35.7889 137.313 35.6148 137.023 35.3248C136.501 34.8028 135.805 33.9907 135.225 32.8886C134.935 32.3666 134.645 31.7285 134.413 31.0325C134.181 30.3364 134.065 29.5824 133.949 28.7703C133.891 27.9582 133.891 27.1462 134.007 26.3341C134.065 25.9281 134.123 25.522 134.239 25.116C134.297 24.884 134.297 24.768 134.413 24.4199L134.587 23.8399C134.761 23.1438 135.225 22.2738 135.689 21.5197C136.153 20.8237 136.791 20.1276 137.429 19.6056C138.125 19.0835 138.821 18.6775 139.517 18.3875C140.213 18.0974 140.967 17.9234 141.605 17.8074C142.243 17.6914 142.881 17.6914 143.403 17.6914C143.925 17.6914 144.39 17.6914 144.796 17.7494C145.202 17.8074 145.492 17.8074 145.666 17.8654C145.898 17.9234 146.014 17.9234 146.014 17.9234C146.768 18.0974 147.232 18.7935 147.058 19.5476C146.884 20.3016 146.188 20.7657 145.434 20.5916H145.376H145.26C145.26 20.5916 145.202 20.5916 145.086 20.5336C144.912 20.4756 144.738 20.4176 144.39 20.4176C144.099 20.3596 143.751 20.3016 143.287 20.3016C142.881 20.3016 142.417 20.2436 141.895 20.3016C141.373 20.3596 140.851 20.4176 140.329 20.6496C139.807 20.8237 139.227 21.0557 138.763 21.4037C138.241 21.7517 137.777 22.2158 137.371 22.7378C136.965 23.2599 136.675 23.7239 136.385 24.536L136.153 25.058L136.037 25.522C135.921 25.8701 135.805 26.2181 135.805 26.5661C135.689 27.2622 135.631 27.9582 135.631 28.5963C135.631 29.2343 135.747 29.9304 135.863 30.5104C135.979 31.0905 136.211 31.6705 136.443 32.1346C136.907 33.1206 137.487 33.8747 137.893 34.3387C138.125 34.5708 138.299 34.7448 138.415 34.8608C138.531 34.9768 138.589 35.0348 138.589 35.0348H138.647C138.879 35.2668 138.937 35.6728 138.705 35.9049C138.531 36.1949 138.183 36.2529 137.893 36.0789Z" fill="#B0EDFF"/>
<path d="M144.912 19.0265C144.912 19.0265 144.912 18.9105 144.97 18.6204C145.028 18.3884 145.144 18.0404 145.26 17.5764C145.55 16.7063 146.014 15.4882 147 14.1541C147.464 13.516 148.102 12.82 148.856 12.2979C149.61 11.7179 150.48 11.2538 151.408 10.8478C151.872 10.6738 152.394 10.5578 152.916 10.3838C153.438 10.2678 153.96 10.2098 154.482 10.1518C155.004 10.0938 155.526 10.0938 156.048 10.0938H156.454H156.512H156.686H156.744H156.919L157.615 10.1518C157.847 10.2098 158.021 10.2098 158.311 10.2678L159.181 10.4998C159.471 10.6158 159.761 10.6738 160.051 10.7898L160.805 11.1378C161.327 11.3699 161.791 11.6599 162.197 12.0079C162.661 12.2979 163.009 12.704 163.415 13.052C164.865 14.5601 165.677 16.3583 166.141 17.8084C166.605 19.3165 166.837 20.5926 166.953 21.4627C167.011 21.9267 167.011 22.2747 167.069 22.5067C167.069 22.7968 167.069 22.9128 167.069 22.9128C167.127 23.9569 166.315 24.8269 165.271 24.8269C164.227 24.8849 163.357 24.0729 163.357 23.0288V22.9708V22.8548C163.357 22.8548 163.357 22.7968 163.357 22.6228C163.357 22.4487 163.357 22.1587 163.299 21.8107C163.241 21.1146 163.125 20.0125 162.777 18.8525C162.429 17.6924 161.849 16.3583 160.921 15.3142C160.689 15.0821 160.457 14.7921 160.167 14.5601C159.877 14.3281 159.587 14.0961 159.297 13.9801L158.833 13.69C158.659 13.632 158.543 13.574 158.369 13.516L157.905 13.342C157.731 13.284 157.441 13.284 157.267 13.226L156.57 13.11H156.396H156.338C156.222 13.11 156.512 13.11 156.454 13.11H156.396H156.106C155.7 13.11 155.294 13.052 154.888 13.11C154.482 13.168 154.076 13.168 153.728 13.226C153.38 13.342 152.974 13.4 152.626 13.516C151.93 13.748 151.292 14.0381 150.77 14.4441C150.248 14.7921 149.784 15.2562 149.436 15.7202C148.682 16.6483 148.276 17.5763 148.044 18.2724C147.928 18.6204 147.87 18.8525 147.812 19.0265C147.754 19.2005 147.754 19.2585 147.754 19.2585V19.3745C147.58 20.1286 146.884 20.5346 146.13 20.4186C145.202 20.4186 144.796 19.7225 144.912 19.0265Z" fill="#B0EDFF"/>
<path d="M173.74 27.5508C173.74 27.5508 174.146 27.5508 174.784 27.6088C175.422 27.6668 176.292 27.7828 177.336 28.0728C178.38 28.3628 179.598 28.8269 180.759 29.755C181.339 30.219 181.861 30.741 182.325 31.3791C182.557 31.7271 182.731 32.0171 182.905 32.4232L183.137 32.9452L183.253 33.5253C183.427 34.1053 183.601 34.9754 183.601 35.6714C183.659 36.4255 183.601 37.1215 183.427 37.7596C183.137 39.0937 182.615 40.2538 182.035 41.1239C181.455 41.9939 180.817 42.632 180.411 43.038C179.947 43.4441 179.656 43.6761 179.656 43.6761C179.366 43.9081 178.902 43.8501 178.67 43.5601C178.438 43.27 178.496 42.806 178.786 42.574C178.728 42.632 179.772 41.8199 180.643 40.2538C181.107 39.4997 181.455 38.5137 181.571 37.4116C181.629 36.8895 181.629 36.3095 181.571 35.7874C181.513 35.2074 181.397 34.8014 181.165 34.1053L181.049 33.6993L180.875 33.3512C180.759 33.1192 180.585 32.8872 180.469 32.7132C180.179 32.3072 179.772 32.0171 179.366 31.7271C178.496 31.2051 177.568 30.857 176.698 30.683C175.828 30.509 175.132 30.451 174.61 30.451C174.088 30.451 173.856 30.451 173.856 30.451C173.044 30.451 172.348 29.813 172.348 29.0009C172.29 28.2468 172.928 27.5508 173.74 27.5508Z" fill="#B0EDFF"/>
<path d="M135.225 34.6292C135.225 34.6292 135.167 34.6292 135.109 34.6292C134.993 34.6292 134.877 34.6872 134.703 34.7452C134.297 34.8612 133.775 35.0352 133.195 35.4412C132.905 35.6153 132.615 35.8473 132.383 36.1373C132.093 36.4273 131.861 36.7754 131.687 37.1814C131.513 37.5874 131.338 37.9935 131.222 38.5155C131.106 38.9795 131.048 39.5596 131.048 40.0236C131.048 40.6617 131.106 41.0677 131.222 41.5317C131.338 41.9958 131.512 42.4598 131.803 42.8658C132.325 43.6779 133.021 44.258 133.717 44.664C134.413 45.07 135.051 45.302 135.515 45.418C135.979 45.5341 136.269 45.5921 136.211 45.5921C136.501 45.5921 136.733 45.8821 136.675 46.1721C136.675 46.4621 136.385 46.6941 136.095 46.6361C136.095 46.6361 135.747 46.6361 135.225 46.5201C134.703 46.4041 133.949 46.2301 133.021 45.8821C132.151 45.4761 131.164 44.838 130.352 43.8519C129.946 43.3299 129.656 42.7498 129.424 42.1698C129.308 41.8798 129.25 41.4737 129.134 41.1837C129.018 40.8357 129.018 40.6037 128.96 40.2556C128.96 40.0816 128.902 40.0236 128.902 39.7336V39.2696C128.902 38.9215 128.902 38.6315 128.96 38.2835C129.018 37.6454 129.134 36.9494 129.366 36.3693C129.598 35.7313 129.888 35.1512 130.294 34.6872C130.642 34.1651 131.048 33.7591 131.512 33.4111C132.325 32.715 133.137 32.367 133.717 32.135C134.007 32.019 134.239 31.961 134.413 31.903C134.587 31.845 134.703 31.845 134.703 31.845C135.515 31.6709 136.327 32.135 136.501 32.947C136.675 33.7591 136.211 34.5712 135.399 34.7452C135.341 34.6292 135.283 34.6292 135.225 34.6292Z" fill="#B0EDFF"/>
<path d="M170.782 52.1482C170.782 52.1482 170.782 52.5542 170.666 53.1922C170.55 53.8303 170.376 54.7004 170.028 55.7444C169.68 56.7885 169.158 58.0066 168.171 59.1087C167.707 59.6308 167.127 60.1528 166.431 60.5588C166.083 60.7328 165.735 60.9649 165.387 61.0809L164.807 61.2549L164.285 61.3709C163.705 61.5449 162.835 61.6029 162.139 61.6029C161.385 61.6029 160.689 61.4869 160.051 61.3709C158.717 61.0229 157.615 60.4428 156.745 59.8048C155.874 59.1667 155.294 58.5287 154.888 58.0646C154.482 57.6006 154.308 57.3106 154.308 57.2526C154.076 56.9625 154.192 56.4985 154.482 56.2665C154.772 56.0345 155.236 56.1505 155.468 56.4405C155.468 56.3825 156.165 57.4266 157.731 58.4127C158.485 58.8767 159.471 59.3407 160.515 59.5147C161.037 59.6308 161.617 59.6308 162.139 59.5727C162.719 59.5147 163.125 59.4567 163.821 59.2247L164.227 59.1087L164.575 58.9347C164.807 58.8187 165.039 58.7027 165.213 58.5287C165.619 58.2386 165.967 57.8326 166.257 57.4846C166.837 56.6725 167.185 55.7444 167.417 54.8744C167.649 54.0043 167.707 53.3082 167.765 52.7862C167.823 52.2642 167.765 52.0321 167.765 52.0321C167.765 51.2201 168.461 50.582 169.274 50.582C170.144 50.64 170.84 51.2781 170.782 52.1482Z" fill="#B0EDFF"/>
<path d="M124.726 100.115L122.29 93.3281C122.29 93.3281 127.916 92.458 124.958 85.0914C123.276 80.9731 118.52 84.2214 118.52 84.2214C118.52 84.2214 117.707 78.2469 111.501 79.581C106.629 80.6251 106.513 88.4557 108.427 90.9499C110.283 93.4441 112.197 93.2121 112.197 93.2121C112.197 93.2121 108.137 93.0961 108.775 96.8084C109.413 100.521 112.603 100.695 115.039 99.4766C116.199 98.8965 117.069 97.4464 117.069 97.4464L122.348 101.797C122.812 102.203 123.508 102.261 124.088 101.971C124.726 101.681 125.016 100.869 124.726 100.115Z" fill="#B0EDFF"/>
<path d="M182.615 115.314C182.383 116.417 181.977 117.403 181.513 117.925C180.121 119.549 177.916 119.723 177.916 119.723C177.916 119.723 179.889 120.825 178.438 123.203C177.336 124.943 174.088 123.899 173.218 122.797C172.29 121.695 172.29 120.419 172.29 120.419L168.346 123.783C167.708 124.363 166.664 124.305 166.083 123.609C165.561 123.029 165.561 122.101 166.083 121.521L166.606 120.941L169.796 117.171C169.796 117.171 165.271 115.314 166.896 111.95C168.346 108.876 171.246 110.326 172 111.138C172.696 111.892 172.812 113.168 172.812 113.168C172.812 113.168 174.146 108.006 178.961 109.166C182.557 109.978 183.079 112.936 182.615 115.314Z" fill="#B0EDFF"/>
<path d="M59.2967 186.253C60.2248 187.53 60.2828 189.27 59.3547 190.604L59.0067 191.068C58.6587 191.532 58.1366 191.764 57.6146 191.764C57.2085 191.764 56.8605 191.648 56.5125 191.358L50.944 186.485C50.944 186.485 48.2178 192.808 40.7932 191.358C35.6308 190.314 34.2967 185.905 34.8767 182.251C35.1088 180.453 35.8048 178.829 36.7329 177.843C38.357 176.103 40.4452 175.871 41.9533 175.929C40.4452 175.465 38.299 174.246 37.487 171.23C36.9649 169.316 37.0809 167.402 37.777 165.894C38.8791 163.516 41.3733 162.008 44.9115 162.414C50.77 163.168 50.886 171.462 50.886 171.462C50.886 171.462 52.9162 165.836 58.4846 168.272C63.357 170.418 61.9649 176.915 58.6586 179.467C56.9185 180.801 55.4104 181.091 55.4104 181.091L59.2967 186.253Z" fill="#E0F7FE"/>
<path d="M46.7098 176.973C46.7098 176.973 44.3316 176.509 42.0115 175.871C40.5033 175.407 38.3572 174.247 37.4871 171.172C36.965 169.258 37.0811 167.344 37.7771 165.836C38.1251 167.866 39.0532 171.056 41.3154 173.145C44.8537 176.393 46.7098 176.973 46.7098 176.973Z" fill="#B0EDFF"/>
<path d="M59.0067 191.012C58.6586 191.476 58.1366 191.708 57.6146 191.708C57.2085 191.708 56.8605 191.592 56.5125 191.302L50.944 186.43C50.944 186.43 48.2178 192.752 40.7932 191.302C35.6308 190.258 34.2967 185.85 34.8767 182.195C35.6888 183.935 37.487 185.908 41.6053 186.604C49.8419 188.054 50.074 182.891 50.074 182.891L59.0067 191.012Z" fill="#B0EDFF"/>
<path d="M81.1065 173.436C80.3524 173.436 77.8582 173.262 75.5961 171.174C73.3339 169.086 72.1738 165.779 72.1158 161.429C71.9998 151.162 70.0276 149.77 67.8814 149.132C64.8652 148.262 61.6169 149.422 61.6169 149.422C60.4568 149.886 59.1807 149.306 58.7167 148.146C58.2527 146.986 58.8327 145.71 59.9928 145.246C60.1668 145.188 64.5752 143.506 69.0995 144.782C75.132 146.522 76.4661 152.38 76.5241 161.313C76.5821 164.329 77.2782 166.591 78.4963 167.809C79.6564 168.912 80.9905 168.912 80.9905 168.912C82.2086 168.796 83.2527 169.84 83.3107 171.058C83.3687 172.276 82.4406 173.32 81.2225 173.378C81.2805 173.436 81.2225 173.436 81.1065 173.436Z" fill="#EDDD7A"/>
<path d="M79.3084 142.229C78.7284 142.751 77.0463 144.607 76.8142 147.623C76.6402 150.697 78.0323 153.888 80.9906 157.136C87.8931 164.677 87.4871 167.055 86.327 168.969C84.7029 171.695 81.5706 173.029 81.5706 173.029C80.4105 173.493 79.8885 174.769 80.3525 175.929C80.8166 177.09 82.0927 177.612 83.2528 177.148C83.4268 177.09 87.8351 175.291 90.2133 171.231C93.4036 165.779 90.3293 160.674 84.3548 154.062C82.3247 151.858 81.2806 149.711 81.3386 147.971C81.3966 146.347 82.3827 145.477 82.4407 145.419C83.3688 144.665 83.4268 143.215 82.6147 142.287C81.8026 141.359 80.4685 141.243 79.4825 142.055C79.4245 142.113 79.3665 142.171 79.3084 142.229Z" fill="#A6DFEB"/>
<path d="M182.093 155.51C179.888 155.51 177.452 154.814 175.248 153.073C171.478 150.173 168.983 152.145 168.983 152.203C168.055 153.015 166.605 152.899 165.851 151.913C165.039 150.985 165.155 149.535 166.141 148.781C167.939 147.273 172.754 145.475 178.032 149.535C180.874 151.739 183.891 151.159 185.051 150.057C186.153 149.071 186.791 146.229 186.907 144.547C186.965 143.329 188.067 142.342 189.285 142.459C190.503 142.517 191.431 143.619 191.373 144.837C191.315 145.417 190.909 150.811 188.067 153.363C186.617 154.698 184.471 155.51 182.093 155.51Z" fill="#A6DFEB"/>
<path d="M180.932 183.122L199.436 203.829C199.436 203.829 194.042 194.548 189.401 188.69C184.529 182.657 180.932 183.122 180.932 183.122Z" fill="#E0F7FE"/>
<path d="M195.492 192.635C195.492 192.635 190.735 186.95 190.039 186.08C188.183 183.818 186.849 183.122 186.849 183.122C186.849 183.122 188.531 182.89 190.735 185.674C192.939 188.4 195.492 192.635 195.492 192.635Z" fill="#E0F7FE"/>
<path d="M167.128 173.319L175.48 158.934L170.492 172.217L177.858 179.525L167.128 173.319Z" fill="#EBD75C"/>
<path d="M180.179 166.125L168.172 172.564L171.13 173.666L180.179 166.125Z" fill="#EBD75C"/>
<path d="M58.8908 140.775L54.5405 135.729C54.0184 135.091 54.0764 134.163 54.7145 133.583C55.3525 133.061 56.2806 133.119 56.8607 133.757C56.9767 133.873 57.0347 133.989 57.0927 134.105L59.8769 140.137C59.9929 140.427 59.8769 140.775 59.5869 140.891C59.3549 141.065 59.0649 141.007 58.8908 140.775Z" fill="#EBD75C"/>
<path d="M54.8884 146.287L46.7097 147.099C45.8977 147.157 45.1436 146.577 45.0856 145.765C45.0276 144.953 45.6076 144.199 46.4197 144.141C46.5357 144.141 46.6517 144.141 46.7677 144.141L54.8884 145.127C55.2364 145.185 55.4104 145.475 55.4104 145.765C55.3524 146.055 55.1784 146.287 54.8884 146.287Z" fill="#EBD75C"/>
<path d="M58.4848 153.014L54.4824 158.003C53.9604 158.641 53.0323 158.757 52.3943 158.235C51.7562 157.713 51.6402 156.785 52.1623 156.146C52.2203 156.03 52.3363 155.914 52.4523 155.856L57.6727 152.144C57.9627 151.97 58.3108 152.028 58.5428 152.26C58.7168 152.492 58.6588 152.782 58.4848 153.014Z" fill="#EBD75C"/>
<path d="M82.7309 137.82L85.8051 133.76C86.2111 133.238 86.9072 133.18 87.4292 133.528C87.9513 133.934 88.0093 134.63 87.6613 135.152C87.6033 135.21 87.5452 135.326 87.4292 135.384L83.3689 138.458C83.1949 138.632 82.9049 138.574 82.7309 138.4C82.6149 138.226 82.6149 137.994 82.7309 137.82Z" fill="#EBD75C"/>
<path d="M77.9743 135.732L76.0022 129.758C75.8282 129.178 76.1182 128.482 76.7562 128.308C77.3363 128.134 78.0323 128.424 78.2064 129.062C78.2064 129.12 78.2644 129.236 78.2644 129.294L78.8444 135.558C78.8444 135.79 78.6704 136.022 78.4384 136.022C78.2064 136.022 78.0323 135.906 77.9743 135.732Z" fill="#EBD75C"/>
<path d="M73.5081 139.503L69.0998 137.299C68.5197 137.009 68.2877 136.313 68.5777 135.733C68.8678 135.153 69.5638 134.921 70.1439 135.211C70.2599 135.269 70.3179 135.327 70.4339 135.385L74.0882 138.691C74.2622 138.865 74.3202 139.155 74.1462 139.387C73.9142 139.561 73.6821 139.619 73.5081 139.503Z" fill="#EBD75C"/>
<path d="M190.503 131.961L189.459 137.936C189.401 138.284 189.111 138.458 188.763 138.4C188.473 138.342 188.299 138.11 188.241 137.878L187.487 131.845C187.371 131.033 187.951 130.279 188.821 130.163C189.633 130.047 190.387 130.627 190.503 131.497C190.561 131.671 190.561 131.787 190.503 131.961Z" fill="#EBD75C"/>
<path d="M201.002 137.587L194.912 141.589C194.506 141.821 193.984 141.763 193.752 141.357C193.52 141.009 193.578 140.545 193.868 140.255L199.204 135.266C199.784 134.686 200.77 134.744 201.292 135.324C201.872 135.905 201.814 136.891 201.234 137.413C201.118 137.471 201.06 137.529 201.002 137.587Z" fill="#EBD75C"/>
<path d="M200.016 150.351L194.796 147.856C194.448 147.682 194.274 147.276 194.448 146.87C194.564 146.58 194.912 146.406 195.202 146.464L200.886 147.45C201.698 147.566 202.278 148.378 202.104 149.19C201.988 150.003 201.176 150.583 200.364 150.409C200.306 150.467 200.19 150.409 200.016 150.351Z" fill="#EBD75C"/>
<path d="M118.287 121.924C118.287 121.924 93.8674 151.158 92.9394 150.404C92.7073 150.23 92.3013 148.896 91.7793 146.75C90.3872 140.659 88.473 127.898 88.241 114.325C87.951 96.0535 88.415 90.4851 93.2874 88.2229C96.8837 86.5408 106.686 102.724 113.125 113.571C115.445 117.283 117.243 120.357 118.287 121.924Z" fill="#EDDD7A"/>
<path d="M118.287 121.923C118.287 121.923 93.8674 151.157 92.9393 150.403C92.7073 150.229 92.3013 148.895 91.7792 146.749C94.1574 140.658 97.0577 134.22 100.248 129.348C105.41 121.575 110.051 116.529 113.125 113.57C115.445 117.283 117.243 120.357 118.287 121.923Z" fill="#EBD75C"/>
<path d="M202.858 222.447C201.35 225.579 187.371 221.229 175.944 217.285C173.74 216.531 171.594 215.777 169.622 215.081C165.097 213.515 162.081 209.222 162.081 204.408C162.139 193.213 161.095 175.405 163.241 174.477C165.793 173.317 178.439 185.788 189.981 199.187C201.93 213.05 205.121 217.633 202.858 222.447Z" fill="#EDDD7A"/>
<path d="M175.944 217.284C173.74 216.53 171.594 215.776 169.622 215.08C165.097 213.514 162.081 209.221 162.081 204.407C162.139 193.212 161.095 175.405 163.241 174.477C163.299 174.477 168.056 189.21 171.304 200.811C173.16 207.539 174.726 213.05 175.944 217.284Z" fill="#EBD75C"/>
<path d="M167.591 145.475C167.185 161.311 164.865 187.645 155.41 213.747C147.232 236.369 140.155 251.392 135.457 260.266C131.571 267.575 129.308 270.823 129.308 270.823C129.308 270.823 123.16 273.898 111.327 274.826C104.714 275.348 96.3617 275.232 86.3269 273.55C58.2526 268.851 55.2944 260.034 55.2944 260.034C55.2944 260.034 54.8884 254.988 56.2225 245.069C57.9046 232.308 62.545 211.543 74.6679 183.178C88.299 151.45 103.844 132.772 113.473 123.318C119.158 117.749 122.812 115.371 122.812 115.371C122.812 115.371 130.352 112.297 145.956 117.169C152.162 119.083 156.861 121.577 160.167 123.956C165.271 127.494 167.359 130.626 167.359 130.626C167.359 130.626 167.881 136.311 167.591 145.475Z" fill="#E0F7FE"/>
<path d="M167.591 145.473C167.185 161.308 164.865 187.642 155.41 213.744C147.232 236.366 140.155 251.389 135.457 260.264C131.57 267.573 129.308 270.821 129.308 270.821C129.308 270.821 123.16 273.895 111.327 274.823C118.867 264.498 130.062 246.575 141.199 219.429C159.297 175.345 160.399 136.598 160.225 123.953C165.329 127.491 167.417 130.624 167.417 130.624C167.417 130.624 167.881 136.308 167.591 145.473Z" fill="#B0EDFF"/>
<path d="M62.835 242.577C62.661 242.577 62.545 242.577 62.371 242.519C60.7468 242.287 59.6447 240.721 59.8768 239.097C60.0508 238.111 63.7631 214.213 74.0299 190.141C84.2967 166.127 92.4174 154.352 92.7654 153.83C93.6935 152.496 95.5496 152.148 96.9417 153.076C98.2758 154.004 98.6239 155.86 97.6958 157.252C97.6378 157.368 89.5171 169.085 79.5403 192.461C69.5635 215.837 65.7932 239.735 65.7932 239.967C65.5032 241.533 64.2271 242.577 62.835 242.577Z" fill="#F8FBFF"/>
<path d="M167.591 145.478C165.561 143.68 162.951 141.592 159.819 139.446C158.543 138.576 157.151 137.648 155.642 136.72C154.83 136.256 154.018 135.734 153.148 135.27C149.726 133.297 145.84 131.441 141.605 129.817C141.257 129.701 140.967 129.585 140.619 129.469C139.981 129.237 139.401 129.005 138.821 128.831C133.949 127.091 129.656 125.931 126.002 125.119C124.958 124.887 123.914 124.713 122.986 124.481C118.925 123.727 115.793 123.495 113.589 123.379C119.274 117.81 122.928 115.432 122.928 115.432C122.928 115.432 125.248 114.504 130.004 114.504C131.048 114.504 132.209 114.562 133.485 114.678C136.501 114.91 140.155 115.548 144.448 116.766C144.97 116.94 145.55 117.056 146.072 117.23C146.478 117.346 146.884 117.462 147.29 117.636C150.654 118.796 153.554 120.072 155.99 121.348C156.977 121.87 157.847 122.393 158.717 122.973C159.297 123.321 159.761 123.669 160.283 124.017C165.387 127.555 167.475 130.687 167.475 130.687C167.475 130.687 167.881 136.314 167.591 145.478Z" fill="#004351"/>
<path d="M167.591 145.477C165.561 143.679 162.951 141.591 159.819 139.445C160.283 132.658 160.283 127.38 160.283 124.016C165.387 127.554 167.475 130.686 167.475 130.686C167.475 130.686 167.881 136.313 167.591 145.477Z" fill="#004351"/>
<path d="M158.717 122.972L156.049 136.023C155.991 136.313 155.875 136.545 155.643 136.777C154.83 136.313 154.018 135.791 153.148 135.327L155.991 121.406C156.977 121.928 157.905 122.45 158.717 122.972Z" fill="#004351"/>
<path d="M147.29 117.636L141.605 129.817C141.257 129.701 140.967 129.585 140.619 129.469C139.981 129.237 139.401 129.005 138.821 128.831L144.389 116.766C144.912 116.94 145.492 117.056 146.014 117.23C146.478 117.404 146.884 117.52 147.29 117.636Z" fill="#004351"/>
<path d="M133.485 114.677C133.427 114.793 133.369 114.909 133.311 115.025L126.002 125.118C124.958 124.886 123.914 124.712 122.986 124.48C123.044 124.248 123.102 124.016 123.276 123.784L130.004 114.445C131.048 114.503 132.209 114.561 133.485 114.677Z" fill="#004351"/>
<path d="M91.5152 252.799C105.151 257.477 121.464 245.941 127.95 227.032C134.437 208.124 128.642 189.004 115.006 184.326C101.37 179.648 85.0572 191.184 78.5705 210.092C72.0838 229.001 77.8793 248.121 91.5152 252.799Z" fill="#C5DFFF"/>
<path d="M93.3829 251.312C107.019 255.99 123.272 244.626 129.686 225.93C136.1 207.233 130.246 188.285 116.61 183.607C102.974 178.929 86.7204 190.293 80.3064 208.989C73.8925 227.686 79.747 246.634 93.3829 251.312Z" fill="#004351"/>
<path d="M94.7338 244.84C105.552 248.551 118.526 239.302 123.714 224.181C128.901 209.06 124.336 193.794 113.519 190.083C102.701 186.372 89.7261 195.621 84.5388 210.742C79.3515 225.862 83.916 241.129 94.7338 244.84Z" fill="#A6DFEB"/>
<path d="M100.219 208.666C103.31 209.727 107.02 207.074 108.507 202.74C109.994 198.407 108.693 194.035 105.602 192.975C102.511 191.914 98.8007 194.567 97.3142 198.901C95.8276 203.234 97.1282 207.606 100.219 208.666Z" fill="#008AA7"/>
<path d="M93.1302 227.723C94.7968 228.294 96.7883 226.891 97.5783 224.588C98.3684 222.285 97.6578 219.955 95.9912 219.383C94.3246 218.811 92.333 220.215 91.543 222.518C90.753 224.82 91.4635 227.151 93.1302 227.723Z" fill="#008AA7"/>
<path d="M123.74 224.19C118.52 239.329 105.585 248.552 94.7377 244.84C89.0532 242.868 85.0509 237.705 83.3688 231.035C84.7609 231.963 86.269 232.775 87.8931 233.297C101.35 237.937 117.534 226.394 123.972 207.543C124.378 206.383 124.726 205.223 125.016 204.062C126.466 210.037 126.176 217.172 123.74 224.19Z" fill="#008AA7"/>
<path d="M135.515 260.326C131.629 267.635 129.366 270.883 129.366 270.883C129.366 270.883 123.218 273.957 111.385 274.885C104.772 275.407 96.4198 275.291 86.385 273.609C76.0022 271.869 69.0996 269.549 64.4592 267.345C56.5706 263.574 55.3525 260.094 55.3525 260.094C55.3525 260.094 54.9465 255.048 56.2806 245.129C58.7168 247.391 61.965 249.943 66.2574 252.321C72.8699 255.976 81.8606 259.398 94.0996 261.196C103.264 262.53 112.023 262.704 119.854 262.182C125.654 261.892 130.933 261.138 135.515 260.326Z" fill="#EDDD7A"/>
<path d="M135.515 260.324C131.629 267.633 129.366 270.881 129.366 270.881C129.366 270.881 123.218 273.955 111.385 274.883C113.879 271.461 116.721 267.285 119.854 262.18C125.654 261.89 130.933 261.136 135.515 260.324Z" fill="#EBD75C"/>
<path d="M66.2574 252.38L64.4592 267.403C56.5706 263.633 55.3525 260.153 55.3525 260.153C55.3525 260.153 54.9465 255.106 56.2806 245.188C58.7168 247.45 61.965 249.944 66.2574 252.38Z" fill="#FDF1A5"/>
</g>
<defs>
<clipPath id="clip0_6506_140272">
<rect width="202.9" height="300" fill="white" transform="translate(0.538147)"/>
</clipPath>
</defs>
</svg>
