<svg width="328" height="222" viewBox="0 0 328 222" fill="none" xmlns="http://www.w3.org/2000/svg">
<g clip-path="url(#clip0_6506_140095)">
<path d="M137.338 202.547C137.338 202.547 101.16 202.547 89.3008 202.547C77.4414 202.547 75.1761 205.242 80.1731 207.231C85.17 209.219 61.2513 208.257 57.1871 211.786C53.0563 215.315 63.5832 216.662 74.9763 216.662C86.3693 216.662 157.393 216.662 166.52 216.662C175.648 216.662 173.383 210.246 167.919 209.412C162.456 208.578 176.781 209.733 182.244 207.872C187.707 206.012 183.776 202.547 137.338 202.547Z" fill="#A6DFEB"/>
<path d="M207.428 214.29C206.029 216.151 201.365 216.6 193.437 216.408C187.441 216.215 181.178 215.766 181.178 213.071C181.178 210.377 196.435 210.697 201.765 211.275C206.362 211.788 208.228 213.2 207.428 214.29Z" fill="#A6DFEB"/>
<path d="M69.3797 205.307C68.4469 206.655 65.2489 207.04 59.6523 207.04C55.4549 207.04 51.0575 206.847 50.9243 204.987C50.791 203.062 61.5178 202.998 65.3155 203.319C68.5135 203.575 69.9127 204.473 69.3797 205.307Z" fill="#A6DFEB"/>
<path d="M303.969 200.946H280.184C278.319 200.946 276.786 199.47 276.786 197.674V173.999C276.786 172.202 278.319 170.727 280.184 170.727H303.969C305.835 170.727 307.367 172.202 307.367 173.999V197.674C307.367 199.47 305.835 200.946 303.969 200.946Z" fill="#D3F4FE"/>
<path d="M302.837 199.855H279.984C278.185 199.855 276.719 198.443 276.719 196.711V173.87C276.719 172.138 278.185 170.727 279.984 170.727H302.837C304.636 170.727 306.101 172.138 306.101 173.87V196.711C306.101 198.443 304.636 199.855 302.837 199.855Z" fill="#E0F7FE"/>
<path d="M291.643 194.787C296.942 194.787 301.238 190.65 301.238 185.548C301.238 180.445 296.942 176.309 291.643 176.309C286.345 176.309 282.049 180.445 282.049 185.548C282.049 190.65 286.345 194.787 291.643 194.787Z" fill="#D3F4FE"/>
<path d="M287.846 189.718C287.513 189.718 287.246 189.461 287.246 189.141V182.019C287.246 181.698 287.513 181.441 287.846 181.441C288.179 181.441 288.445 181.698 288.445 182.019V189.141C288.445 189.461 288.179 189.718 287.846 189.718Z" fill="#008AA7"/>
<path d="M294.775 189.718C294.442 189.718 294.175 189.461 294.175 189.141V182.019C294.175 181.698 294.442 181.441 294.775 181.441C295.108 181.441 295.374 181.698 295.374 182.019V189.141C295.374 189.461 295.108 189.718 294.775 189.718Z" fill="#008AA7"/>
<path d="M233.546 160.912C233.079 160.912 232.613 160.912 232.147 160.848C221.82 160.142 214.757 156.742 202.898 139.354C198.767 133.323 195.969 127.164 193.237 121.197C188.573 110.996 184.576 102.142 175.515 98.0356C161.59 91.748 147.932 102.142 147.798 102.27C147.199 102.719 146.333 102.655 145.866 102.078C145.4 101.5 145.466 100.666 146.066 100.217C146.666 99.7679 161.19 88.6683 176.647 95.6617C186.641 100.153 191.039 109.841 195.702 120.106C198.367 126.009 201.166 132.104 205.163 137.879C216.423 154.303 222.886 157.511 232.347 158.217C239.409 158.73 243.207 154.624 246.871 150.582C248.204 149.171 249.403 147.823 250.802 146.668C256.199 142.241 261.862 141.407 262.128 141.407C262.861 141.279 263.594 141.792 263.661 142.498C263.794 143.204 263.261 143.91 262.528 143.974C262.462 143.974 257.398 144.744 252.601 148.657C251.335 149.684 250.202 150.967 248.936 152.315C245.205 156.421 241.075 160.912 233.546 160.912Z" fill="#008AA7"/>
<path d="M272.322 136.983L277.919 132.428C278.518 131.978 279.318 132.043 279.784 132.62C280.184 133.133 280.117 133.839 279.584 134.288L273.921 139.1L272.322 136.983Z" fill="#008AA7"/>
<path d="M268.857 133.131L274.454 128.576C275.054 128.127 275.853 128.191 276.319 128.768C276.719 129.282 276.653 129.987 276.12 130.437L270.456 135.249L268.857 133.131Z" fill="#008AA7"/>
<path d="M276.253 139.356C276.253 139.356 274.054 141.858 270.656 144.745C267.258 147.568 262.861 147.055 260.862 144.873C260.729 144.745 260.662 144.617 260.529 144.489C258.797 142.179 258.73 139.035 261.329 136.789C264.06 134.351 268.591 130.887 268.591 130.887L274.054 136.982L276.253 139.356Z" fill="#E0F7FE"/>
<path d="M276.253 139.354C276.253 139.354 274.054 141.857 270.656 144.744C267.258 147.567 262.861 147.054 260.862 144.872C260.729 144.744 260.662 144.615 260.529 144.487C262.128 144.487 264.86 144.166 267.325 142.562C269.39 141.215 272.056 138.841 273.988 136.98L276.253 139.354Z" fill="#D3F4FE"/>
<path d="M174.315 188.501C174.249 188.501 174.115 188.501 174.049 188.501C169.518 188.436 157.725 179.903 154.727 175.925C151.662 171.947 148.931 166.879 152.662 163.607C153.395 162.965 154.461 162.516 155.66 162.323C157.459 162.003 159.657 162.388 161.523 163.542C164.721 165.531 173.716 175.604 176.247 179.903C178.712 184.138 178.646 188.436 174.315 188.501Z" fill="#008AA7"/>
<path d="M174.315 188.501C174.981 188.116 175.448 187.474 175.847 186.191C176.514 183.945 174.182 179.454 166.52 170.857C161.923 165.66 157.992 163.35 155.66 162.323C157.459 162.003 159.657 162.388 161.523 163.542C164.721 165.531 173.715 175.604 176.247 179.903C178.712 184.138 178.646 188.436 174.315 188.501Z" fill="#005F73"/>
<path d="M151.795 166.364C152.462 164.567 156.326 164.888 159.657 168.032C162.989 171.176 168.052 177.399 166.786 180.094C165.52 182.789 160.723 180.607 156.792 176.886C152.861 173.165 150.729 169.251 151.795 166.364Z" fill="#004351"/>
<path d="M160.19 174.386C160.057 176.439 159.258 177.722 159.258 177.722C159.258 177.722 141.335 185.935 118.882 170.857C96.0297 155.523 95.9631 136.404 95.9631 136.211C107.689 125.176 120.881 137.302 120.881 137.302C120.881 137.302 121.681 144.167 125.278 151.096C127.344 155.074 130.342 159.116 134.606 161.811C145.266 168.548 156.326 166.495 156.326 166.495C156.326 166.495 158.458 167.136 159.724 171.05C160.19 172.205 160.324 173.424 160.19 174.386Z" fill="#E0F7FE"/>
<path d="M160.19 174.386C160.057 176.439 159.258 177.722 159.258 177.722C159.258 177.722 141.335 185.935 118.882 170.857C96.0297 155.523 95.9631 136.404 95.9631 136.211C107.689 125.176 120.881 137.302 120.881 137.302C120.881 137.302 121.681 144.167 125.278 151.096C123.48 152.379 121.214 153.727 119.482 154.24C115.818 155.267 111.887 155.267 111.887 155.267C111.887 155.267 123.146 171.499 139.803 174.45C148.797 175.926 155.727 175.284 160.19 174.386Z" fill="#D3F4FE"/>
<path d="M135.072 177.656C134.739 177.656 134.406 177.464 134.273 177.079C134.073 176.63 134.339 176.181 134.806 175.988C134.872 175.988 138.47 174.641 139.536 171.818C140.669 168.931 139.736 166.621 139.736 166.621C139.536 166.172 139.803 165.723 140.203 165.53C140.669 165.338 141.135 165.594 141.335 165.979C141.402 166.108 142.468 168.931 141.135 172.395C139.736 175.988 135.539 177.464 135.339 177.528C135.272 177.656 135.139 177.656 135.072 177.656Z" fill="#D3F4FE"/>
<path d="M119.615 171.048C119.149 171.048 118.749 170.728 118.749 170.279C118.749 169.829 119.082 169.444 119.549 169.38C119.615 169.38 124.279 169.059 126.611 166.108C128.943 163.157 128.81 160.141 128.81 160.077C128.743 159.628 129.143 159.179 129.609 159.179C130.076 159.115 130.542 159.5 130.542 159.949C130.542 160.077 130.808 163.606 128.01 167.135C125.145 170.663 119.882 170.984 119.615 171.048Z" fill="#D3F4FE"/>
<path d="M88.035 158.928C87.7685 159.505 87.4354 160.083 86.969 160.66C86.1028 161.751 85.1034 162.392 84.1707 162.842C82.8382 163.483 81.7721 163.612 81.7721 163.612C81.7721 163.612 72.3779 154.822 64.1829 139.167C55.9879 123.576 55.3883 105.611 55.3883 105.611C56.1212 105.226 56.8541 104.906 57.5203 104.649C60.0521 103.687 62.384 103.622 64.3162 103.879C67.2477 104.264 69.1132 105.483 69.1132 105.483C69.1132 105.483 69.6462 120.368 75.1096 133.777C80.5729 147.251 88.568 155.207 88.568 155.207C88.568 155.207 88.9011 156.939 88.035 158.928Z" fill="#E0F7FE"/>
<path d="M88.035 158.932C85.1034 156.429 79.5069 150.719 74.1102 139.684C67.6474 126.467 65.049 109.465 64.3828 103.883C67.3143 104.268 69.1798 105.487 69.1798 105.487C69.1798 105.487 69.7129 120.372 75.1762 133.781C80.6395 147.255 88.6346 155.21 88.6346 155.21C88.6346 155.21 88.9011 156.943 88.035 158.932Z" fill="#F8FBFF"/>
<path d="M84.1707 162.841C82.8382 163.483 81.7721 163.611 81.7721 163.611C81.7721 163.611 72.3779 154.821 64.1829 139.166C55.9879 123.576 55.3883 105.611 55.3883 105.611C56.1212 105.226 56.8541 104.905 57.5203 104.648C57.9867 110.423 60.1854 129.414 69.513 144.299C75.9091 154.436 81.0393 159.954 84.1707 162.841Z" fill="#D3F4FE"/>
<path d="M102.759 172.08C102.759 172.08 99.2947 174.069 95.2305 173.171C91.1663 172.273 89.6339 170.99 89.6339 170.99C89.6339 170.99 88.3014 169.065 89.3008 167.974C89.3674 167.91 89.3674 167.91 89.434 167.846C90.6999 166.755 92.4322 166.562 92.4322 166.562C92.4322 166.562 94.8307 168.359 96.563 168.936C98.2953 169.514 101.36 168.936 102.493 169.642C103.026 169.963 103.092 170.54 103.026 171.054C103.026 171.631 102.759 172.08 102.759 172.08Z" fill="#E0F7FE"/>
<path d="M102.759 172.079C102.759 172.079 99.2947 174.068 95.2305 173.17C91.1663 172.271 89.6339 170.988 89.6339 170.988C89.6339 170.988 88.3014 169.063 89.3008 167.973C90.5 169.063 93.365 171.437 96.6963 171.822C99.4279 172.143 101.693 171.566 103.026 171.052C103.026 171.63 102.759 172.079 102.759 172.079Z" fill="#D3F4FE"/>
<path d="M101.493 170.285C98.0288 170.798 95.5636 169.9 93.6981 168.938C91.8325 167.975 91.0997 166.756 91.0997 166.756C91.0997 166.756 91.0997 165.281 92.099 164.511C92.6321 164.062 93.4982 163.869 94.8307 164.254C94.8307 164.254 97.4291 166.436 101.76 164.96C106.09 163.484 105.824 162.586 106.757 162.329C107.423 162.137 108.289 163.099 108.489 164.19C108.622 164.703 108.556 165.217 108.356 165.666C107.623 167.077 104.958 169.708 101.493 170.285Z" fill="#E0F7FE"/>
<path d="M101.493 170.287C98.0288 170.8 95.5636 169.902 93.6981 168.939C91.8325 167.977 91.0997 166.758 91.0997 166.758C91.0997 166.758 91.0997 165.282 92.099 164.512C93.6981 166.052 97.1626 168.811 100.96 168.105C104.691 167.399 107.356 165.282 108.556 164.191C108.689 164.705 108.622 165.218 108.422 165.667C107.623 167.079 104.958 169.709 101.493 170.287Z" fill="#D3F4FE"/>
<path d="M100.76 166.046C97.4291 166.56 95.0972 165.661 93.3649 164.763C91.566 163.865 90.8998 162.71 90.8998 162.71C90.8998 162.71 90.8998 161.299 91.8325 160.529C92.3656 160.08 93.1651 159.887 94.431 160.272C94.431 160.272 96.8961 162.325 101.027 160.914C105.158 159.502 104.891 158.668 105.757 158.411C106.357 158.219 107.223 159.181 107.423 160.208C107.556 160.657 107.49 161.17 107.29 161.619C106.557 163.031 104.025 165.533 100.76 166.046Z" fill="#E0F7FE"/>
<path d="M100.76 166.049C97.4291 166.563 95.0972 165.665 93.3649 164.766C91.566 163.868 90.8998 162.713 90.8998 162.713C90.8998 162.713 90.8998 161.302 91.8325 160.532C93.2983 162.007 96.6296 164.638 100.227 163.932C103.759 163.226 106.29 161.237 107.423 160.211C107.556 160.66 107.49 161.173 107.29 161.622C106.557 163.034 104.025 165.536 100.76 166.049Z" fill="#D3F4FE"/>
<path d="M100.294 162.838C97.4289 163.736 95.1637 163.287 93.498 162.71C91.7657 162.132 91.0329 161.234 91.0329 161.234C91.0329 161.234 90.833 159.951 91.6325 159.181C92.0322 158.732 92.7651 158.475 93.9644 158.603C93.9644 158.603 96.4296 160.079 99.9607 158.347C103.492 156.55 103.159 155.845 103.892 155.46C104.425 155.203 105.291 155.909 105.624 156.807C105.757 157.192 105.824 157.641 105.691 158.09C105.158 159.373 103.159 161.94 100.294 162.838Z" fill="#E0F7FE"/>
<path d="M100.294 162.84C97.4289 163.738 95.1637 163.289 93.498 162.711C91.7657 162.134 91.0329 161.236 91.0329 161.236C91.0329 161.236 90.833 159.952 91.6325 159.182C93.1649 160.273 96.4296 162.198 99.561 161.107C102.692 160.017 104.691 157.899 105.557 156.809C105.691 157.194 105.757 157.643 105.624 158.092C105.158 159.375 103.159 161.941 100.294 162.84Z" fill="#D3F4FE"/>
<path d="M97.962 159.76C97.962 159.76 97.7622 160.851 97.2958 162.326C96.7628 163.995 95.9633 166.048 94.764 167.652C94.231 168.293 93.698 168.871 93.165 169.32C91.3661 170.924 89.7004 171.245 89.7004 171.245C89.7004 171.245 84.5702 166.497 83.1045 164.893C81.6387 163.353 80.4394 161.685 80.4394 161.685C80.4394 161.685 80.0397 159.888 80.4394 157.964C80.6393 156.937 81.0391 155.846 81.8386 155.012C82.2383 154.627 82.7047 154.306 83.1045 154.05C85.3031 152.959 87.8349 153.793 87.8349 153.793C87.8349 153.793 92.7652 156.745 94.9639 157.899C97.1625 159.054 97.962 159.76 97.962 159.76Z" fill="#E0F7FE"/>
<path d="M97.962 159.76C97.962 159.76 97.7621 160.851 97.2958 162.326C96.2964 161.813 94.4975 160.722 92.0989 159.054C88.9675 156.937 84.5036 154.756 83.1044 154.05C85.3031 152.959 87.8349 153.793 87.8349 153.793C87.8349 153.793 92.7652 156.745 94.9639 157.899C97.1625 159.054 97.962 159.76 97.962 159.76Z" fill="#F8FBFF"/>
<path d="M93.165 169.255C91.3661 170.795 89.7004 171.179 89.7004 171.179C89.7004 171.179 84.5702 166.368 83.1045 164.828C81.6387 163.288 80.4394 161.62 80.4394 161.62C80.4394 161.62 80.0397 159.823 80.4394 157.898C82.5048 160.144 88.0348 165.918 91.8991 168.356C92.3655 168.741 92.8318 168.998 93.165 169.255Z" fill="#D3F4FE"/>
<path d="M74.1097 152.826C73.1104 152.762 72.5107 152.441 72.4441 152.441C72.0443 152.249 71.9111 151.735 72.111 151.35C72.3108 150.965 72.7772 150.773 73.177 150.965C73.2436 151.03 75.1091 151.864 77.5743 150.324C80.0394 148.784 80.4392 146.859 80.4392 146.795C80.5058 146.346 80.9056 146.025 81.372 146.154C81.7717 146.218 82.1049 146.667 82.0382 147.116C82.0382 147.244 81.5718 149.811 78.4404 151.8C76.6415 152.762 75.1758 152.89 74.1097 152.826Z" fill="#D3F4FE"/>
<path d="M66.981 139.933C65.5819 139.805 64.6491 139.355 64.5825 139.355C64.1828 139.163 64.0495 138.65 64.2494 138.265C64.4493 137.88 64.9156 137.687 65.2488 137.88C65.3154 137.944 67.6473 139.035 70.7121 137.687C73.7103 136.404 74.2433 134.543 74.2433 134.415C74.3765 133.966 74.7763 133.709 75.176 133.838C75.5758 133.966 75.8423 134.415 75.709 134.864C75.709 134.993 74.9761 137.559 71.2451 139.227C69.5795 139.933 68.1137 140.061 66.981 139.933Z" fill="#D3F4FE"/>
<path d="M61.9173 125.495C59.9852 125.367 58.9858 124.597 58.9192 124.533C58.586 124.276 58.5194 123.763 58.7859 123.378C59.0524 122.993 59.5188 122.929 59.9186 123.249C59.9852 123.249 61.451 124.34 64.7156 123.699C68.8464 122.865 69.9791 121.325 70.0457 121.261C70.3122 120.876 70.7786 120.811 71.1783 121.068C71.5115 121.325 71.5781 121.838 71.3116 122.223C71.1783 122.415 69.7126 124.276 65.0488 125.303C63.7829 125.559 62.7835 125.559 61.9173 125.495Z" fill="#D3F4FE"/>
<path d="M71.7782 114.783C71.7782 114.783 67.7806 116.771 62.1174 116.707C59.3192 116.643 57.387 116.13 56.1211 115.552C54.7886 114.975 54.189 114.398 54.189 114.398C54.189 114.398 54.2556 113.243 54.0557 109.457C53.3895 97.5236 58.986 95.9838 62.6505 95.8555C63.5166 95.8555 64.4493 95.9838 65.2489 96.2404C67.9139 97.1387 70.1792 99.4484 71.0453 102.271C72.178 106.185 71.7782 114.783 71.7782 114.783Z" fill="#008AA7"/>
<path d="M63.5831 103.234C59.3857 105.415 57.6534 104.004 57.6534 104.004C57.6534 104.004 56.654 107.276 56.1876 113.756C56.121 114.398 56.121 115.039 56.0544 115.552C54.7218 114.975 54.1222 114.398 54.1222 114.398C54.1222 114.398 54.1888 113.243 53.989 109.457C53.3227 97.5236 58.9193 95.9838 62.5837 95.8555C63.4498 95.8555 64.3826 95.9838 65.1821 96.2404C66.2481 97.9727 67.4474 101.245 63.5831 103.234Z" fill="#005F73"/>
<path d="M148.664 123.25C148.465 124.277 148.265 125.239 147.998 126.202C146.399 132.168 143.601 136.98 139.67 140.124C128.41 149.171 112.953 153.983 93.0984 141.6C77.2415 131.719 62.6504 109.328 57.387 100.666C56.0544 98.4847 55.3215 97.1374 55.3215 97.1374C55.3215 97.1374 64.4493 96.6882 78.8405 90.3364C84.7702 87.7059 91.6327 84.0488 99.1614 79.0444C112.153 70.3187 119.682 62.1704 124.013 55.8186C129.143 48.3761 129.876 43.5 129.876 43.5C129.876 43.5 131.142 45.7456 133.34 50.6859C136.006 56.781 140.003 66.9182 144.534 81.9315C149.397 98.0997 150.73 112.407 148.664 123.25Z" fill="#E0F7FE"/>
<path d="M133.34 50.6875C131.808 53.6389 129.676 57.1035 126.878 60.8889C121.414 68.0748 113.286 76.3513 101.293 83.7938C93.8978 88.4133 87.3019 91.7496 81.5054 94.1877C69.646 99.2563 61.451 100.411 57.3202 100.604C55.9877 98.4222 55.2548 97.0749 55.2548 97.0749C55.2548 97.0749 64.3825 96.6257 78.7737 90.274C84.7035 87.6434 91.5659 83.9863 99.0947 78.9819C112.087 70.2562 119.615 62.1079 123.946 55.7561C129.076 48.3136 129.809 43.4375 129.809 43.4375C129.809 43.4375 131.208 45.8114 133.34 50.6875Z" fill="#008AA7"/>
<path d="M147.998 126.205C146.399 132.172 143.601 136.984 139.67 140.128C128.41 149.174 112.953 153.986 93.0984 141.603C77.2415 131.723 62.6504 109.331 57.387 100.67C56.0544 98.4881 55.3215 97.1408 55.3215 97.1408C55.3215 97.1408 64.4493 96.6916 78.8405 90.3398C84.5037 98.8089 97.0294 116.324 109.355 126.654C123.68 138.716 140.003 131.594 147.998 126.205Z" fill="#D3F4FE"/>
<path d="M81.5054 94.2536C69.646 99.3222 61.451 100.477 57.3202 100.67C55.9877 98.4881 55.2548 97.1408 55.2548 97.1408C55.2548 97.1408 64.3825 96.6916 78.7737 90.3398C79.5733 91.4947 80.506 92.8421 81.5054 94.2536Z" fill="#004351"/>
<path d="M146.799 117.029C145.133 110.421 142.868 102.08 140.003 93.2262C135.406 78.8544 130.209 67.7549 127.344 62.9429C131.341 57.1044 132.074 54.7305 132.074 54.7305C132.074 54.7305 133.074 56.5269 134.806 60.3765C136.871 65.1243 140.003 73.0801 143.534 84.8213C147.398 97.3965 148.464 108.56 146.799 117.029Z" fill="#F8FBFF"/>
<path d="M133.34 50.6875C131.808 53.6389 129.676 57.1035 126.878 60.8889C125.812 58.9 124.879 57.1676 124.013 55.7561C129.143 48.3136 129.876 43.4375 129.876 43.4375C129.876 43.4375 131.208 45.8114 133.34 50.6875Z" fill="#005F73"/>
<path d="M112.486 122.421C112.486 122.421 106.49 126.784 94.2973 131.66C90.8994 133.008 87.5681 134.163 84.5699 135.125C84.3034 134.868 84.0369 134.612 83.7704 134.355C75.2423 126.463 67.5803 116.262 62.3835 108.563C62.0504 108.114 61.7839 107.665 61.5174 107.28C62.0504 107.151 70.9782 104.97 81.8383 100.286C93.098 95.4744 95.963 93.293 95.963 93.293L112.486 122.421Z" fill="#E0F7FE"/>
<path d="M110.621 122.357C110.621 122.357 105.224 126.528 93.7643 130.89C90.2331 132.238 86.702 133.393 83.7038 134.355C75.1757 126.463 67.5137 116.262 62.3169 108.563L63.3829 108.306C63.3829 108.306 71.7778 106.253 82.1714 101.826C92.565 97.335 95.4966 95.8594 95.4966 95.8594L110.621 122.357Z" fill="#008AA7"/>
<path d="M80.9054 124.86C80.7055 124.86 80.439 124.796 80.3057 124.667L72.9769 118.38L72.5105 119.727C72.3106 120.176 71.8442 120.433 71.3779 120.24C70.9115 120.048 70.645 119.599 70.8449 119.15L71.7776 116.583C71.9109 116.327 72.1107 116.07 72.3773 116.006C72.6438 115.942 72.9769 116.006 73.2434 116.198L79.7061 121.716L79.373 119.214C79.3063 118.829 79.5062 118.444 79.906 118.316L101.959 109.141C102.426 108.948 102.959 109.141 103.158 109.59C103.358 110.039 103.158 110.552 102.692 110.745L81.2385 119.663L81.8381 123.833C81.9048 124.218 81.7049 124.539 81.3718 124.732C81.1719 124.796 81.0386 124.86 80.9054 124.86Z" fill="#FBF3C2"/>
<path d="M129.876 43.5018C129.876 43.5018 128.876 50.3669 121.214 59.9267C116.817 65.4444 110.154 71.8604 100.16 78.4046C83.7705 89.1834 70.8451 93.7388 63.1165 95.7277C58.0529 97.0109 55.2546 97.1392 55.2546 97.1392C55.2546 97.1392 38.5315 69.6789 41.2632 44.785C41.9961 38.3049 44.0615 32.9155 47.1929 28.4885C49.4582 25.2164 52.2565 22.5217 55.4545 20.2761C64.7155 13.8601 77.1745 11.6146 89.3005 13.0261C111.42 15.6566 129.876 43.5018 129.876 43.5018Z" fill="#FDF1A5"/>
<path d="M129.876 43.5039C129.876 43.5039 129.409 46.5836 126.878 51.4597C125.612 53.8977 123.813 56.7849 121.214 59.9929C116.817 65.5106 110.155 71.9266 100.161 78.4708C82.5048 90.0196 68.8465 94.4466 61.451 96.1789C57.4534 97.0771 55.2548 97.2054 55.2548 97.2054C55.2548 97.013 55.3214 82.2563 80.2395 63.5217C105.291 44.5946 129.876 43.5039 129.876 43.5039Z" fill="#EDDD7A"/>
<path d="M126.878 51.457C125.612 53.8951 123.813 56.7823 121.214 59.9902C116.817 65.508 110.155 71.9239 100.161 78.4682C82.5048 90.0169 68.8465 94.4439 61.451 96.1762C64.2493 90.0169 70.3789 80.9063 84.1704 70.5124C101.093 57.7447 117.817 53.1252 126.878 51.457Z" fill="#EBD75C"/>
<path d="M129.876 43.5018C129.876 43.5018 128.876 50.3669 121.214 59.9267C116.95 52.8691 113.153 48.4421 113.153 48.4421C113.153 48.4421 103.359 56.9753 95.3634 50.8802C87.3683 44.7209 93.3647 33.4288 93.3647 33.4288C93.3647 33.4288 85.3029 25.0881 72.1776 22.3934C65.6483 21.046 59.7186 20.4686 55.3879 20.2761C64.6489 13.8601 77.1079 11.6146 89.2338 13.0261C111.42 15.6566 129.876 43.5018 129.876 43.5018Z" fill="#FFF6BC"/>
<path d="M63.1832 95.7275C58.1197 97.0106 55.3214 97.139 55.3214 97.139C55.3214 97.139 38.5983 69.6787 41.3299 44.7848C42.0628 38.3047 44.1282 32.9153 47.2596 28.4883C46.5268 35.8666 45.9271 52.9331 52.0567 71.3468C55.1215 80.7141 59.2523 89.0549 63.1832 95.7275Z" fill="#FFF6BC"/>
<path d="M139.27 207.493C139.27 207.878 139.27 208.263 139.204 208.712C138.937 212.497 126.878 213.203 118.483 213.588C110.221 213.973 101.493 211.727 104.492 209.097C104.558 209.033 104.558 209.033 104.625 208.968C106.757 207.236 110.888 205.247 115.485 203.643C118.15 202.681 120.882 201.911 123.613 201.269C127.211 200.435 134.54 198.767 136.938 200.499C137.405 200.82 137.805 201.333 138.138 201.911C138.871 203.258 139.27 205.247 139.27 207.493Z" fill="#008AA7"/>
<path d="M139.27 207.492C139.27 207.877 139.27 208.262 139.204 208.711C138.937 212.497 126.878 213.202 118.483 213.587C110.221 213.972 101.493 211.727 104.492 209.096C106.291 210.123 110.221 211.342 118.416 211.021C129.61 210.572 136.405 208.775 139.27 207.492Z" fill="#005F73"/>
<path d="M138.071 201.911C137.538 202.424 136.672 202.937 135.673 203.451C132.475 204.991 122.747 206.659 116.818 205.696C114.219 205.247 114.419 204.477 115.418 203.643C118.083 202.681 120.815 201.911 123.547 201.269C127.145 200.435 134.473 198.767 136.872 200.499C137.338 200.82 137.738 201.333 138.071 201.911Z" fill="#004351"/>
<path d="M123.08 171.114C125.745 187.539 135.473 200.114 135.473 200.114C135.473 200.114 134.54 201.397 132.674 202.552C131.875 203.065 130.942 203.45 129.809 203.835C128.077 204.349 126.212 204.349 124.613 204.22C122.681 204.028 121.281 203.643 121.281 203.643C121.281 203.643 104.692 183.048 102.626 159.565C100.561 136.083 113.686 124.278 113.686 124.278C113.686 124.278 113.819 124.213 113.953 124.085C115.285 123.251 121.148 120.171 128.21 124.021C128.743 124.278 129.21 124.598 129.61 124.855C135.006 128.255 135.806 131.72 135.806 131.72C135.806 131.72 132.141 134.8 129.41 139.419C126.678 143.91 120.415 154.689 123.08 171.114Z" fill="#E0F7FE"/>
<path d="M123.08 171.114C125.745 187.539 135.473 200.115 135.473 200.115C135.473 200.115 134.54 201.398 132.674 202.553C127.811 196.073 116.151 176.44 116.551 157.769C116.884 140.703 126.078 128.833 129.676 124.855C135.073 128.256 135.872 131.721 135.872 131.721C135.872 131.721 132.208 134.8 129.476 139.42C126.678 143.911 120.415 154.69 123.08 171.114Z" fill="#D3F4FE"/>
<path d="M124.546 204.155C122.614 203.962 121.215 203.577 121.215 203.577C121.215 203.577 104.625 182.982 102.559 159.5C100.494 136.017 113.619 124.212 113.619 124.212C113.619 124.212 113.753 124.148 113.886 124.02C111.354 129.024 105.691 141.984 106.224 156.613C106.89 175.411 115.352 189.911 121.281 199.15C122.414 201.011 123.547 202.679 124.546 204.155Z" fill="#F8FBFF"/>
<path d="M111.887 187.475C111.687 187.475 111.42 187.41 111.287 187.218C110.954 186.897 110.887 186.32 111.221 185.999C111.287 185.935 113.219 184.01 117.084 182.855C121.015 181.7 125.345 182.983 125.545 183.048C126.012 183.176 126.278 183.689 126.145 184.138C126.012 184.587 125.479 184.844 125.012 184.716C124.946 184.716 121.015 183.561 117.617 184.523C114.219 185.55 112.553 187.154 112.553 187.218C112.42 187.41 112.153 187.475 111.887 187.475Z" fill="#D3F4FE"/>
<path d="M105.024 166.945C104.691 166.945 104.425 166.817 104.225 166.496C103.958 166.047 104.092 165.533 104.558 165.277C104.691 165.213 108.622 163.031 113.086 162.839C117.617 162.582 121.414 165.084 121.548 165.213C121.947 165.469 122.081 166.047 121.747 166.432C121.481 166.817 120.881 166.945 120.482 166.624C120.415 166.624 117.084 164.379 113.153 164.571C109.089 164.764 105.491 166.753 105.424 166.817C105.357 166.945 105.158 166.945 105.024 166.945Z" fill="#D3F4FE"/>
<path d="M123.28 150.005C123.08 150.005 122.814 149.941 122.68 149.749C122.614 149.685 117.683 145.386 112.753 144.808C107.956 144.231 105.024 146.22 105.024 146.284C104.625 146.541 104.025 146.477 103.759 146.092C103.492 145.707 103.559 145.129 103.958 144.873C104.092 144.744 107.49 142.37 113.02 143.076C118.483 143.782 123.68 148.273 123.946 148.466C124.346 148.786 124.346 149.364 124.013 149.685C123.746 149.877 123.48 150.005 123.28 150.005Z" fill="#D3F4FE"/>
<path d="M181.445 131.785C181.445 131.785 180.179 135.955 176.181 138.457C172.184 140.96 169.918 141.216 169.918 141.216C169.918 141.216 167.32 140.831 167.32 139.227C167.32 139.163 167.32 139.099 167.32 139.035C167.453 137.303 168.719 135.763 168.719 135.763C168.719 135.763 172.117 135.185 173.982 134.287C175.848 133.389 177.847 130.502 179.312 130.181C180.045 130.053 180.512 130.373 180.912 130.822C181.311 131.272 181.445 131.785 181.445 131.785Z" fill="#E0F7FE"/>
<path d="M181.445 131.78C181.445 131.78 180.179 135.951 176.181 138.453C172.184 140.955 169.918 141.212 169.918 141.212C169.918 141.212 167.32 140.827 167.32 139.223C169.119 139.095 173.383 138.581 176.381 136.272C178.846 134.411 180.245 132.165 180.912 130.754C181.311 131.267 181.445 131.78 181.445 131.78Z" fill="#D3F4FE"/>
<path d="M178.979 131.466C176.581 134.61 173.849 135.829 171.584 136.599C169.319 137.369 167.786 137.048 167.786 137.048C167.786 137.048 166.587 135.958 166.787 134.61C166.853 133.84 167.386 133.006 168.786 132.236C168.786 132.236 172.583 131.787 174.982 127.296C177.38 122.805 176.381 122.356 176.981 121.457C177.38 120.816 178.846 120.88 179.845 121.457C180.312 121.714 180.712 122.163 180.845 122.676C181.444 124.28 181.378 128.323 178.979 131.466Z" fill="#E0F7FE"/>
<path d="M178.979 131.466C176.581 134.61 173.849 135.829 171.584 136.599C169.319 137.369 167.786 137.048 167.786 137.048C167.786 137.048 166.587 135.957 166.787 134.61C169.252 134.481 174.316 133.84 176.781 130.311C179.246 126.846 179.779 123.189 179.845 121.457C180.312 121.714 180.712 122.163 180.845 122.676C181.444 124.28 181.378 128.322 178.979 131.466Z" fill="#D3F4FE"/>
<path d="M174.515 129.477C172.25 132.429 169.652 133.648 167.453 134.353C165.321 135.059 163.855 134.738 163.855 134.738C163.855 134.738 162.722 133.712 162.922 132.429C162.989 131.723 163.522 130.889 164.855 130.183C164.855 130.183 168.452 129.798 170.718 125.499C172.983 121.265 172.05 120.816 172.583 119.917C172.983 119.34 174.315 119.34 175.315 119.917C175.781 120.174 176.114 120.559 176.314 121.072C176.847 122.676 176.781 126.526 174.515 129.477Z" fill="#E0F7FE"/>
<path d="M174.515 129.476C172.25 132.427 169.652 133.646 167.453 134.352C165.321 135.058 163.855 134.737 163.855 134.737C163.855 134.737 162.722 133.711 162.922 132.427C165.254 132.299 170.051 131.722 172.45 128.385C174.782 125.113 175.248 121.649 175.381 119.98C175.848 120.237 176.181 120.622 176.381 121.135C176.847 122.675 176.781 126.525 174.515 129.476Z" fill="#D3F4FE"/>
<path d="M172.717 135.182C172.783 137.042 172.317 138.582 171.784 139.737C171.051 141.213 170.251 141.983 170.251 141.983C170.251 141.983 153.395 147.693 135.673 133.45C126.545 126.135 119.216 116.576 114.286 109.069C109.622 101.947 107.023 96.6219 107.023 96.6219C107.023 96.6219 105.624 92.4516 108.223 88.8587C109.022 87.7038 110.221 86.6131 112.087 85.7148C115.218 84.175 117.817 84.0467 119.882 84.56C123.347 85.394 125.279 87.8963 125.279 87.8963C125.279 87.8963 127.877 93.414 131.742 100.215C136.272 108.106 142.535 117.73 148.531 122.222C159.658 130.562 168.919 127.354 168.919 127.354C168.919 127.354 169.918 128.317 170.918 129.792C171.65 131.14 172.65 133.065 172.717 135.182Z" fill="#E0F7FE"/>
<path d="M131.542 100.091C130.142 102.208 127.411 105.352 122.347 107.148C119.083 108.367 116.218 108.816 114.152 109.009C109.488 101.887 106.89 96.5618 106.89 96.5618C106.89 96.5618 104.492 89.3118 111.887 85.5906C120.215 81.4202 125.079 87.772 125.079 87.772C125.079 87.772 127.677 93.3539 131.542 100.091Z" fill="#D3F4FE"/>
<path d="M171.717 139.675C170.984 141.151 170.185 141.921 170.185 141.921C170.185 141.921 153.328 147.631 135.606 133.388C126.478 126.074 119.149 116.514 114.219 109.007C109.555 101.885 106.957 96.5602 106.957 96.5602C106.957 96.5602 105.557 92.3898 108.156 88.7969C110.355 93.6088 119.749 113.242 131.675 124.534C145.333 137.43 152.729 139.034 165.854 139.547C167.986 139.611 169.985 139.675 171.717 139.675Z" fill="#D3F4FE"/>
<path d="M170.718 129.732C167.32 130.695 162.589 131.401 157.659 129.925C148.465 127.166 140.936 121.584 133.541 110.87C127.478 102.016 121.614 88.927 119.749 84.5C123.213 85.3341 125.146 87.8363 125.146 87.8363C125.146 87.8363 127.744 93.354 131.608 100.155C136.139 108.047 142.402 117.67 148.398 122.162C159.525 130.502 168.786 127.294 168.786 127.294C168.786 127.294 169.718 128.193 170.718 129.732Z" fill="#F8FBFF"/>
<path d="M124.546 119.658C122.88 119.658 121.814 119.274 121.747 119.274C121.281 119.081 121.015 118.568 121.214 118.119C121.414 117.67 121.947 117.413 122.414 117.605C122.547 117.67 125.678 118.696 129.876 116.515C134.073 114.269 135.073 110.291 135.073 110.291C135.206 109.842 135.672 109.521 136.139 109.65C136.605 109.778 136.938 110.227 136.805 110.676C136.738 110.869 135.672 115.424 130.675 118.055C128.343 119.338 126.145 119.658 124.546 119.658Z" fill="#D3F4FE"/>
<path d="M137.271 134.032C136.738 134.032 136.338 133.647 136.338 133.134C136.338 132.621 136.738 132.236 137.271 132.236C137.338 132.236 141.469 132.171 143.8 129.413C146.199 126.59 145.733 122.612 145.733 122.548C145.666 122.034 146.066 121.649 146.532 121.585C146.999 121.521 147.465 121.906 147.532 122.355C147.532 122.548 148.065 127.103 145.2 130.503C142.335 134.032 137.471 134.032 137.271 134.032Z" fill="#D3F4FE"/>
<path d="M151.929 141.537C151.596 141.537 151.196 141.345 151.063 140.96C150.863 140.51 151.13 139.997 151.596 139.805C151.663 139.805 155.394 138.329 156.393 134.415C157.392 130.437 155.993 128.128 155.927 128.063C155.66 127.679 155.793 127.101 156.193 126.844C156.593 126.588 157.193 126.716 157.459 127.101C157.526 127.229 159.391 130.117 158.125 134.8C156.859 139.612 152.396 141.345 152.196 141.409C152.129 141.537 152.062 141.537 151.929 141.537Z" fill="#D3F4FE"/>
<path d="M132.075 92.3915C132.075 92.3915 131.941 93.1614 131.475 94.3162C130.542 96.4977 128.343 100.091 123.347 103.234C115.618 108.046 108.755 105.993 108.755 105.993C108.755 105.993 103.825 99.7698 102.826 91.1724C102.226 86.2321 105.624 82.3826 110.021 80.5219C113.286 79.1746 117.084 78.918 120.149 80.2011C127.411 83.345 132.075 92.3915 132.075 92.3915Z" fill="#008AA7"/>
<path d="M132.075 92.3915C132.075 92.3915 131.941 93.1614 131.475 94.3162C131.475 94.2521 131.408 94.2521 131.408 94.1879C125.212 86.2963 120.348 84.6923 120.348 84.6923C120.348 84.6923 118.549 88.7985 112.62 86.4246C108.489 84.8206 109.222 81.9976 110.088 80.5219C113.353 79.1746 117.15 78.918 120.215 80.2011C127.411 83.345 132.075 92.3915 132.075 92.3915Z" fill="#005F73"/>
<path d="M51.1238 58.4474C49.8579 58.255 48.6586 59.0249 48.3921 60.1798C47.7925 62.6178 46.8597 66.7882 46.46 69.9962C46.1269 72.6909 45.9936 74.9364 45.927 76.4763C45.8604 77.567 46.7265 78.5935 47.8591 78.786C49.1917 78.9785 50.3909 78.0803 50.5242 76.7971C50.6574 74.8081 50.9906 71.7926 51.7234 68.328C52.3897 65.0559 52.8561 62.7461 53.1892 61.2063C53.3891 59.9231 52.4563 58.7041 51.1238 58.4474Z" fill="#008AA7"/>
<path d="M39.5977 65.3106C39.9308 64.0274 41.33 63.3217 42.5959 63.8991C44.5946 64.7332 47.5262 65.9522 50.3245 66.9146C53.1894 67.877 55.8544 68.8394 57.5201 69.481C58.6527 69.8659 59.2523 71.0208 58.9858 72.1757C58.6527 73.3947 57.3202 74.1646 56.0543 73.7797C53.8557 73.2022 50.3911 72.1115 46.7267 70.6358C43.462 69.2885 41.5965 68.2619 40.4638 67.6203C39.7309 67.1071 39.3978 66.2088 39.5977 65.3106Z" fill="#008AA7"/>
<path d="M79.7733 42.7932C78.1743 42.5366 76.6419 43.5631 76.2421 45.103C75.5092 48.3109 74.4432 53.7003 73.9768 57.9349C73.6437 61.4636 73.4438 64.3508 73.4438 66.3398C73.3772 67.8154 74.5098 69.0345 75.9756 69.2269C77.7079 69.4836 79.2403 68.2645 79.3735 66.5964C79.5068 64.03 79.9065 60.1163 80.6394 55.6251C81.3723 51.3264 81.9719 48.3109 82.3051 46.322C82.7048 44.6538 81.5056 43.0498 79.7733 42.7932Z" fill="#008AA7"/>
<path d="M64.9823 52.0352C65.3821 50.3671 67.2476 49.4688 68.8466 50.1104C71.445 51.137 75.2427 52.6126 78.9071 53.8317C82.6382 55.0507 86.1027 56.2056 88.3014 56.9755C89.7672 57.4888 90.6333 58.9644 90.2335 60.4401C89.8338 62.0441 88.1015 63.0706 86.4359 62.6215C83.571 61.9158 79.107 60.6326 74.31 58.7719C70.0459 57.1038 67.5807 55.8206 66.1816 54.9865C65.2488 54.2808 64.7158 53.1259 64.9823 52.0352Z" fill="#008AA7"/>
<path d="M305.302 165.404C305.302 165.404 308.7 166.367 311.165 169.126C313.63 171.949 313.963 176.504 313.963 176.504L327.422 170.473C327.422 170.473 320.626 172.975 318.361 168.612C316.095 164.25 323.624 157.32 323.624 157.32C323.624 157.32 315.296 163.865 312.031 162.902C308.766 161.94 308.233 158.026 308.233 158.026L305.302 165.404Z" fill="#FDF1A5"/>
<path d="M292.576 163.926L294.975 163.99L298.706 137.684L290.244 136.145L292.576 163.926Z" fill="#E5F8FE"/>
<path d="M298.439 164.055L304.036 139.418L312.098 143.203L299.905 164.697L298.439 164.055Z" fill="#E5F8FE"/>
<path d="M31.8026 39.72L30.4034 42.6713L1.15467 34.0098L5.0856 22.9102L31.8026 39.72Z" fill="#FDF1A5"/>
<path d="M36.1999 29.967L33.6015 33.5599L0.555038 9.30762L9.68279 0.132812L36.1999 29.967Z" fill="#FDF1A5"/>
</g>
<defs>
<clipPath id="clip0_6506_140095">
<rect width="327" height="222" fill="white" transform="translate(0.488281)"/>
</clipPath>
</defs>
</svg>
