<svg width="18" height="12" viewBox="0 0 18 12" fill="none" xmlns="http://www.w3.org/2000/svg">
<path fill-rule="evenodd" clip-rule="evenodd" d="M17.75 6.00079C17.75 5.83503 17.6842 5.67606 17.5669 5.55885C17.4497 5.44164 17.2908 5.37579 17.125 5.37579H2.38375L6.3175 1.44329C6.37561 1.38518 6.42171 1.31619 6.45316 1.24027C6.48461 1.16434 6.50079 1.08297 6.50079 1.00079C6.50079 0.91861 6.48461 0.837234 6.45316 0.76131C6.42171 0.685386 6.37561 0.616399 6.3175 0.558289C6.25939 0.500179 6.19041 0.454084 6.11448 0.422635C6.03856 0.391187 5.95718 0.375 5.875 0.375C5.79282 0.375 5.71145 0.391187 5.63552 0.422635C5.5596 0.454084 5.49061 0.500179 5.4325 0.558289L0.432503 5.55829C0.374299 5.61635 0.328121 5.68532 0.296613 5.76125C0.265105 5.83718 0.248886 5.91858 0.248886 6.00079C0.248886 6.083 0.265105 6.1644 0.296613 6.24033C0.328121 6.31626 0.374299 6.38523 0.432503 6.44329L5.4325 11.4433C5.49061 11.5014 5.5596 11.5475 5.63552 11.5789C5.71145 11.6104 5.79282 11.6266 5.875 11.6266C5.95718 11.6266 6.03856 11.6104 6.11448 11.5789C6.19041 11.5475 6.25939 11.5014 6.3175 11.4433C6.37561 11.3852 6.42171 11.3162 6.45316 11.2403C6.48461 11.1643 6.50079 11.083 6.50079 11.0008C6.50079 10.9186 6.48461 10.8372 6.45316 10.7613C6.42171 10.6854 6.37561 10.6164 6.3175 10.5583L2.38375 6.62579H17.125C17.2908 6.62579 17.4497 6.55994 17.5669 6.44273C17.6842 6.32552 17.75 6.16655 17.75 6.00079Z" fill="#008AA7"/>
</svg>
