<svg width="24" height="24" viewBox="0 0 24 24" fill="none" xmlns="http://www.w3.org/2000/svg">
<path d="M13.8333 6.66536C15.3061 6.66536 16.5 5.47146 16.5 3.9987C16.5 2.52594 15.3061 1.33203 13.8333 1.33203C12.3606 1.33203 11.1667 2.52594 11.1667 3.9987C11.1667 5.47146 12.3606 6.66536 13.8333 6.66536Z" fill="white"/>
<path d="M16.56 17.4866C16.4863 17.437 16.4035 17.4027 16.3164 17.3855C16.2293 17.3684 16.1396 17.3689 16.0527 17.3869C15.9657 17.4049 15.8833 17.4401 15.8101 17.4904C15.737 17.5407 15.6746 17.6051 15.6267 17.6799C14.9822 18.6343 14.1927 19.4823 13.2867 20.1932C13.0667 20.3599 12.2467 20.9932 11.9 20.8599C11.66 20.7866 11.8 20.3132 11.8467 20.1132L12.2 19.0666C12.3467 18.6399 14.9 11.0666 15.18 10.1999C15.5933 8.93322 15.4133 7.68655 13.5267 7.98655C13.0133 8.03989 7.80667 8.71322 7.71333 8.71989C7.62578 8.72558 7.54022 8.74845 7.46151 8.78722C7.3828 8.82598 7.3125 8.87986 7.25462 8.94579C7.19674 9.01172 7.15241 9.0884 7.12416 9.17146C7.09592 9.25453 7.08431 9.34234 7.09 9.42989C7.09569 9.51743 7.11857 9.603 7.15733 9.68171C7.19609 9.76042 7.24997 9.83072 7.3159 9.8886C7.38183 9.94648 7.45852 9.99081 7.54158 10.0191C7.62464 10.0473 7.71245 10.0589 7.8 10.0532C7.8 10.0532 9.8 9.79322 10.02 9.77322C10.1327 9.76222 10.2462 9.78406 10.3467 9.83611C10.4473 9.88816 10.5306 9.96819 10.5867 10.0666C10.7075 10.44 10.6909 10.8443 10.54 11.2066C10.3667 11.8732 7.62667 19.5932 7.54 20.0399C7.44704 20.4137 7.47285 20.8071 7.61384 21.1656C7.75482 21.524 8.00398 21.8296 8.32667 22.0399C8.93234 22.4436 9.6535 22.6379 10.38 22.5932C11.0864 22.5846 11.785 22.4444 12.44 22.1799C14.1 21.5132 15.8333 19.7399 16.7467 18.3466C16.8253 18.205 16.8497 18.0396 16.8154 17.8814C16.781 17.7231 16.6903 17.5828 16.56 17.4866Z" fill="white"/>
</svg>
