<svg width="16" height="20" viewBox="0 0 16 20" fill="none" xmlns="http://www.w3.org/2000/svg">
<path d="M8 5.79844V0.398438H2.6C2.12261 0.398438 1.66478 0.58808 1.32721 0.925645C0.989645 1.26321 0.800003 1.72105 0.800003 2.19844V17.7984C0.800003 18.2758 0.989645 18.7337 1.32721 19.0712C1.66478 19.4088 2.12261 19.5984 2.6 19.5984H13.4C13.8774 19.5984 14.3352 19.4088 14.6728 19.0712C15.0104 18.7337 15.2 18.2758 15.2 17.7984V7.59844H9.8C9.32261 7.59844 8.86478 7.4088 8.52721 7.07123C8.18964 6.73366 8 6.27583 8 5.79844ZM3.2 10.5984C3.2 10.4393 3.26322 10.2867 3.37574 10.1742C3.48826 10.0617 3.64087 9.99844 3.8 9.99844C3.95913 9.99844 4.11174 10.0617 4.22427 10.1742C4.33679 10.2867 4.4 10.4393 4.4 10.5984C4.4 10.7576 4.33679 10.9102 4.22427 11.0227C4.11174 11.1352 3.95913 11.1984 3.8 11.1984C3.64087 11.1984 3.48826 11.1352 3.37574 11.0227C3.26322 10.9102 3.2 10.7576 3.2 10.5984ZM3.2 12.9984C3.2 12.8393 3.26322 12.6867 3.37574 12.5742C3.48826 12.4617 3.64087 12.3984 3.8 12.3984C3.95913 12.3984 4.11174 12.4617 4.22427 12.5742C4.33679 12.6867 4.4 12.8393 4.4 12.9984C4.4 13.1576 4.33679 13.3102 4.22427 13.4227C4.11174 13.5352 3.95913 13.5984 3.8 13.5984C3.64087 13.5984 3.48826 13.5352 3.37574 13.4227C3.26322 13.3102 3.2 13.1576 3.2 12.9984ZM3.2 15.3984C3.2 15.2393 3.26322 15.0867 3.37574 14.9742C3.48826 14.8617 3.64087 14.7984 3.8 14.7984C3.95913 14.7984 4.11174 14.8617 4.22427 14.9742C4.33679 15.0867 4.4 15.2393 4.4 15.3984C4.4 15.5576 4.33679 15.7102 4.22427 15.8227C4.11174 15.9352 3.95913 15.9984 3.8 15.9984C3.64087 15.9984 3.48826 15.9352 3.37574 15.8227C3.26322 15.7102 3.2 15.5576 3.2 15.3984ZM5.6 10.5984C5.6 10.4393 5.66322 10.2867 5.77574 10.1742C5.88826 10.0617 6.04087 9.99844 6.2 9.99844H12.2C12.3591 9.99844 12.5117 10.0617 12.6243 10.1742C12.7368 10.2867 12.8 10.4393 12.8 10.5984C12.8 10.7576 12.7368 10.9102 12.6243 11.0227C12.5117 11.1352 12.3591 11.1984 12.2 11.1984H6.2C6.04087 11.1984 5.88826 11.1352 5.77574 11.0227C5.66322 10.9102 5.6 10.7576 5.6 10.5984ZM5.6 12.9984C5.6 12.8393 5.66322 12.6867 5.77574 12.5742C5.88826 12.4617 6.04087 12.3984 6.2 12.3984H12.2C12.3591 12.3984 12.5117 12.4617 12.6243 12.5742C12.7368 12.6867 12.8 12.8393 12.8 12.9984C12.8 13.1576 12.7368 13.3102 12.6243 13.4227C12.5117 13.5352 12.3591 13.5984 12.2 13.5984H6.2C6.04087 13.5984 5.88826 13.5352 5.77574 13.4227C5.66322 13.3102 5.6 13.1576 5.6 12.9984ZM5.6 15.3984C5.6 15.2393 5.66322 15.0867 5.77574 14.9742C5.88826 14.8617 6.04087 14.7984 6.2 14.7984H12.2C12.3591 14.7984 12.5117 14.8617 12.6243 14.9742C12.7368 15.0867 12.8 15.2393 12.8 15.3984C12.8 15.5576 12.7368 15.7102 12.6243 15.8227C12.5117 15.9352 12.3591 15.9984 12.2 15.9984H6.2C6.04087 15.9984 5.88826 15.9352 5.77574 15.8227C5.66322 15.7102 5.6 15.5576 5.6 15.3984ZM9.2 5.79844V0.698438L14.9 6.39844H9.8C9.64087 6.39844 9.48826 6.33522 9.37574 6.2227C9.26322 6.11018 9.2 5.95757 9.2 5.79844Z" fill="white"/>
</svg>
