<svg width="81" height="29" viewBox="0 0 81 29" fill="none" xmlns="http://www.w3.org/2000/svg">
<defs>
<linearGradient id="paint0_linear_1744_16099" x1="43.3622" y1="-10.4403" x2="43.2838" y2="28.4296" gradientUnits="userSpaceOnUse">
<stop stop-color="#EF4444" stop-opacity="0.12"/>
<stop offset="1" stop-color="#EF4444" stop-opacity="0"/>
</linearGradient>
</defs>
<path d="M80 20.5499C80 20.5499 73.4107 19.3358 72.9401 20.5499C72.4694 21.7641 69.0179 22.4926 69.0179 22.4926C69.0179 22.4926 64.625 20.5499 62.7424 19.9428C60.8598 19.3358 58.5064 20.5499 58.5064 20.5499C58.5064 20.5499 52.7016 17.0289 52.3878 18.6073C52.0741 20.1857 45.7986 18.6073 45.7986 18.6073C45.7986 18.6073 42.8177 15.5719 40.9351 16.3004C39.0524 17.0289 37.6404 14.6005 37.6404 14.6005H33.7183C33.7183 14.6005 34.9734 13.5078 33.7183 12.0508C32.4632 10.5938 30.2667 9.25826 30.2667 9.25826H27.2859L24.1481 10.351L22.2655 8.28693C23.1022 8.00363 24.2736 7.24276 22.2655 6.4657C20.2573 5.68864 18.5002 5.00871 17.8726 4.76588C17.7158 5.13012 17.2137 5.64007 16.4607 4.76588C15.7076 3.89168 13.8459 2.05426 13.0091 1.24482C13.0091 1.24482 13.0091 1.24487 12.0678 0.637743C11.1265 0.0306209 3.07364 3.71132 1 6.46558" stroke="#EF4444"/>
<path d="M72.9401 20.5499C72.4694 21.7641 69.0179 22.4926 69.0179 22.4926C69.0179 22.4926 64.625 20.5499 62.7424 19.9428C60.8598 19.3358 58.5064 20.5499 58.5064 20.5499C58.5064 20.5499 52.7016 17.0289 52.3878 18.6073C52.0741 20.1857 45.7986 18.6073 45.7986 18.6073C45.7986 18.6073 42.8177 15.5719 40.9351 16.3004C39.0524 17.0289 37.6404 14.6005 37.6404 14.6005H33.7183C33.7183 14.6005 34.9734 13.5078 33.7183 12.0508C32.4632 10.5938 30.2667 9.25826 30.2667 9.25826H27.2859L24.1481 10.351L22.2655 8.28693C23.1022 8.00363 24.2736 7.24276 22.2655 6.4657L17.8726 4.76588C17.7158 5.13012 17.2137 5.64007 16.4607 4.76588C15.7076 3.89168 13.8459 2.05426 13.0091 1.24482C13.0091 1.24482 13.0091 1.24487 12.0678 0.637743C11.1265 0.0306209 3.07364 3.71132 1 6.46558V28.4296H80V20.5499C80 20.5499 73.4107 19.3358 72.9401 20.5499Z" fill="url(#paint0_linear_1744_16099)"/>

</svg>
