<svg width="81" height="29" viewBox="0 0 81 29" fill="none" xmlns="http://www.w3.org/2000/svg">
<defs>
<linearGradient id="paint0_linear_1744_15996" x1="37.6378" y1="-10.4403" x2="37.7162" y2="28.4296" gradientUnits="userSpaceOnUse">
<stop stop-color="#2FA2B9" stop-opacity="0.12"/>
<stop offset="1" stop-color="#2FA2B9" stop-opacity="0"/>
</linearGradient>
</defs>
<path d="M1 20.5499C1 20.5499 7.58927 19.3358 8.05993 20.5499C8.53059 21.7641 11.9821 22.4926 11.9821 22.4926C11.9821 22.4926 16.375 20.5499 18.2576 19.9428C20.1402 19.3358 22.4936 20.5499 22.4936 20.5499C22.4936 20.5499 28.2984 17.0289 28.6122 18.6073C28.9259 20.1857 35.2014 18.6073 35.2014 18.6073C35.2014 18.6073 38.1823 15.5719 40.0649 16.3004C41.9476 17.0289 43.3596 14.6005 43.3596 14.6005H47.2817C47.2817 14.6005 46.0266 13.5078 47.2817 12.0508C48.5368 10.5938 50.7333 9.25826 50.7333 9.25826H53.7141L56.8519 10.351L58.7345 8.28693C57.8978 8.00363 56.7264 7.24276 58.7345 6.4657C60.7427 5.68864 62.4998 5.00871 63.1274 4.76588C63.2842 5.13012 63.7863 5.64007 64.5393 4.76588C65.2924 3.89168 67.1541 2.05426 67.9909 1.24482C67.9909 1.24482 67.9909 1.24487 68.9322 0.637743C69.8735 0.0306209 77.9264 3.71132 80 6.46558" stroke="#5FA8EE"/>
<path d="M8.05993 20.5499C8.53059 21.7641 11.9821 22.4926 11.9821 22.4926C11.9821 22.4926 16.375 20.5499 18.2576 19.9428C20.1402 19.3358 22.4936 20.5499 22.4936 20.5499C22.4936 20.5499 28.2984 17.0289 28.6122 18.6073C28.9259 20.1857 35.2014 18.6073 35.2014 18.6073C35.2014 18.6073 38.1823 15.5719 40.0649 16.3004C41.9476 17.0289 43.3596 14.6005 43.3596 14.6005H47.2817C47.2817 14.6005 46.0266 13.5078 47.2817 12.0508C48.5368 10.5938 50.7333 9.25826 50.7333 9.25826H53.7141L56.8519 10.351L58.7345 8.28693C57.8978 8.00363 56.7264 7.24276 58.7345 6.4657L63.1274 4.76588C63.2842 5.13012 63.7863 5.64007 64.5393 4.76588C65.2924 3.89168 67.1541 2.05426 67.9909 1.24482C67.9909 1.24482 67.9909 1.24487 68.9322 0.637743C69.8735 0.0306209 77.9264 3.71132 80 6.46558V28.4296H1V20.5499C1 20.5499 7.58926 19.3358 8.05993 20.5499Z" fill="url(#paint0_linear_1744_15996)"/>

</svg>
