<svg width="17" height="16" viewBox="0 0 17 16" fill="none" xmlns="http://www.w3.org/2000/svg">
<g clip-path="url(#clip0_6605_140130)">
<path d="M8.98829 15.236C9.26826 15.2295 9.53693 15.1243 9.74678 14.9388C9.95663 14.7534 10.0941 14.4997 10.135 14.2227H7.79718C7.83917 14.5072 7.9831 14.7669 8.2022 14.9533C8.42131 15.1397 8.70066 15.2401 8.98829 15.236V15.236Z" fill="white"/>
<path d="M13.3517 12.6137C12.931 12.2306 12.5627 11.7913 12.2567 11.3077C11.9226 10.6403 11.7224 9.91133 11.6678 9.16372V6.96177C11.666 6.6943 11.6427 6.42744 11.598 6.1639C11.2546 6.09376 10.9246 5.96732 10.6208 5.78947C10.7366 6.17051 10.7954 6.56724 10.7953 6.96623V9.16818C10.8488 10.0802 11.0943 10.9696 11.5151 11.7758C11.8163 12.2634 12.1736 12.7123 12.5795 13.113H1.40738C1.81327 12.7123 2.17063 12.2634 2.47181 11.7758C2.89262 10.9696 3.13814 10.0802 3.19161 9.16818V6.96177C3.18931 6.44591 3.28663 5.93465 3.47798 5.45727C3.66933 4.97989 3.95096 4.54577 4.30674 4.17976C4.66252 3.81374 5.08547 3.52303 5.55136 3.32427C6.01725 3.12551 6.51694 3.0226 7.02181 3.02143C7.7607 3.02203 8.48301 3.2453 9.09832 3.6633C9.03049 3.40877 8.99241 3.14693 8.9849 2.88325V2.60243C8.5294 2.37348 8.04006 2.22288 7.53658 2.15669V1.59506C7.53658 1.43724 7.47522 1.28589 7.366 1.17429C7.25678 1.06269 7.10865 1 6.95419 1C6.79974 1 6.65161 1.06269 6.54239 1.17429C6.43317 1.28589 6.37181 1.43724 6.37181 1.59506V2.17898C5.24444 2.34148 4.21267 2.91523 3.46698 3.79431C2.72128 4.6734 2.31203 5.79845 2.31477 6.96177V9.16372C2.26013 9.91133 2.0599 10.6403 1.72584 11.3077C1.42522 11.7902 1.06284 12.2294 0.648322 12.6137C0.601789 12.6555 0.564495 12.7069 0.53892 12.7646C0.513346 12.8222 0.500078 12.8848 0.5 12.9481V13.5543C0.5 13.6725 0.545961 13.7859 0.627772 13.8694C0.709583 13.953 0.820543 14 0.936242 14H13.0638C13.1795 14 13.2904 13.953 13.3722 13.8694C13.454 13.7859 13.5 13.6725 13.5 13.5543V12.9481C13.4999 12.8848 13.4867 12.8222 13.4611 12.7646C13.4355 12.7069 13.3982 12.6555 13.3517 12.6137Z" fill="white"/>
<path d="M12.7222 5.44444C13.9495 5.44444 14.9444 4.44952 14.9444 3.22222C14.9444 1.99492 13.9495 1 12.7222 1C11.4949 1 10.5 1.99492 10.5 3.22222C10.5 4.44952 11.4949 5.44444 12.7222 5.44444Z" fill="white"/>
</g>
<defs>
<clipPath id="clip0_6605_140130">
<rect width="16" height="16" fill="white" transform="translate(0.988281)"/>
</clipPath>
</defs>
</svg>
