<svg width="295" height="300" viewBox="0 0 295 300" fill="none" xmlns="http://www.w3.org/2000/svg">
<path d="M55.3236 87.8856C55.3236 87.8856 41.9656 93.1699 40.0012 106.005C38.0368 118.841 68.3908 156.439 68.3908 156.439L161.999 105.997L132.403 54.0586L55.3236 87.8856Z" fill="#9CE6FC"/>
<path d="M76.0206 100.017C76.0206 100.017 66.171 110.13 63.1498 121.319C60.1285 132.508 59.7396 152.49 60.2425 159.974C74.9362 173.572 133.016 162.178 133.016 162.178L188.986 96.3394C188.986 96.3394 179.498 78.3258 174.681 73.3873C169.864 68.4488 154.251 62.308 136.237 69.5567C125.665 84.5608 76.0206 100.017 76.0206 100.017Z" fill="#DFF8FF"/>
<g style="mix-blend-mode:multiply">
<path d="M71.6242 105.249C71.6242 105.249 93.3544 112.222 117.815 102.773C142.276 93.3247 146.708 66.7109 146.708 66.7109L136.226 69.5633L76.0205 100.019L71.6242 105.249Z" fill="#DFF8FF"/>
</g>
<path d="M160.085 186.886C160.085 186.886 187.559 187.063 195.28 189.035C203 191.007 223.433 237.253 231.888 241.681C240.343 246.109 247.525 238.754 256.84 233.293C266.155 227.832 274.693 221.224 274.96 218.466C275.227 215.708 271.271 204.687 267.849 202.464C264.427 200.24 254.491 200.083 249.191 203.477C241.404 182.262 230.332 151.322 220.18 147.063C210.028 142.805 179.262 140.777 179.262 140.777L160.085 186.886Z" fill="#DFF8FF"/>
<g style="mix-blend-mode:multiply" opacity="0.51">
<path d="M188.986 166.633C188.986 166.633 211.356 169.08 217.536 177.406C223.716 185.731 235.963 236.672 249.67 237.878C249.89 254.379 221.501 260.339 221.501 260.339L153.45 184.725L188.986 166.633Z" fill="#DFF8FF"/>
</g>
<path d="M86.2708 182.711C86.2708 182.711 103.165 218.145 118.487 227.81C133.809 237.475 161.57 236.693 169.228 243.022C176.885 249.351 175.266 279.756 182.919 287.81C190.573 295.864 201.342 300.799 211.407 299.892C221.473 298.984 229.527 294.155 229.629 289.626C229.731 285.096 229.327 281.167 224.596 278.751C219.866 276.334 213.203 274.323 212.916 271.506C212.629 268.689 207.278 225.802 205.058 214.145C202.839 202.488 185.599 186.274 163.382 178.106C142.343 160.489 110.028 168.037 110.028 168.037L86.2708 182.711Z" fill="#DFF8FF"/>
<g style="mix-blend-mode:multiply">
<path d="M91.1857 192.193C91.1857 192.193 110.574 193.184 127.987 185.534C124.659 167.815 114.393 162.582 114.393 162.582L86.2708 182.713L91.1857 192.193Z" fill="#DFF8FF"/>
</g>
<path d="M118.016 7.14856C102.831 -0.980141 71.0075 -3.72244 51.3634 20.6401C31.7194 45.0026 41.51 70.2688 49.7644 82.0317C58.4078 94.376 88.1174 113.242 119.827 95.5232C151.536 77.8043 154.86 26.879 118.016 7.14856Z" fill="#DFF8FF"/>
<path d="M115.403 22.0474C128.891 25.269 137.652 44.1941 133.122 62.3138C128.592 80.4334 112.987 92.6167 95.4721 92.7149C77.9575 92.8131 60.5411 80.8538 60.6354 58.491C60.7297 37.0005 86.1137 15.0541 115.403 22.0474Z" fill="#005F73"/>
<g style="mix-blend-mode:multiply">
<path d="M76.5431 163.588C94.1167 155.432 80.9709 136.809 98.4895 132.574C121.587 135.859 127.975 134.68 127.975 134.68C127.975 134.68 83.7879 173.489 76.5431 163.588Z" fill="#DFF8FF"/>
</g>
<path d="M91.1858 113.778L120.432 189.034L161.806 188.048L199.656 164.09L210.932 129.862L183.552 47.7188L170.261 86.1739L135.833 113.554L91.1858 113.778Z" fill="#EBD75C"/>
<path d="M76.5431 163.587C86.2394 162.802 91.1779 156.488 94.1167 153.687C95.6136 152.257 95.315 151.003 94.5606 146.878C93.8063 142.753 96.4229 138.522 99.9981 136.71C101.963 141.995 104.375 142.996 106.237 142.749C108.099 142.501 110.013 131.375 116.102 131.473C122.192 131.572 127.075 139.63 127.889 143.653C128.702 147.676 124.769 159.152 119.835 167.206C114.9 175.26 107.938 185.231 92.2662 188.351C76.5942 191.47 67.6837 183.467 62.5487 173.35C60.8161 169.936 60.1914 165.218 60.2464 159.961C60.2464 159.961 63.7548 164.593 76.5431 163.587Z" fill="#DFF8FF"/>
<path d="M192.981 76.0104C192.981 76.0104 194.847 82.0804 193.59 84.4455C192.333 86.8107 190.62 88.7672 189.363 91.7963C188.106 94.8254 189.968 106.243 195.504 108.203C201.039 110.163 205.62 105.032 207.082 102.062C208.543 99.0921 207.734 91.2934 205.569 85.856C203.404 80.4185 199.334 75.5861 192.981 76.0104Z" fill="#DFF8FF"/>
<path d="M199.346 0.592349L200.587 3.10678C200.662 3.25915 200.772 3.39104 200.909 3.49101C201.046 3.59097 201.205 3.65599 201.373 3.68039L204.151 4.07327C204.345 4.10108 204.527 4.18278 204.678 4.30909C204.828 4.4354 204.939 4.60126 205 4.78783C205.06 4.97441 205.067 5.17423 205.02 5.3646C204.973 5.55497 204.873 5.72827 204.732 5.86481L202.725 7.82921C202.603 7.94752 202.511 8.09379 202.459 8.25535C202.406 8.41692 202.393 8.58891 202.422 8.75641L202.894 11.5066C202.927 11.6994 202.906 11.8978 202.832 12.0792C202.759 12.2606 202.636 12.4178 202.478 12.5331C202.32 12.6484 202.132 12.7171 201.937 12.7315C201.742 12.7458 201.547 12.7053 201.373 12.6145L198.886 11.3101C198.736 11.2307 198.569 11.1891 198.399 11.1891C198.229 11.1891 198.062 11.2307 197.912 11.3101L195.425 12.6145C195.251 12.7064 195.056 12.7478 194.86 12.734C194.664 12.7201 194.476 12.6516 194.317 12.5361C194.158 12.4207 194.035 12.263 193.961 12.081C193.888 11.899 193.867 11.7 193.901 11.5066L194.376 8.75641C194.405 8.58891 194.392 8.41692 194.339 8.25535C194.287 8.09379 194.195 7.94752 194.073 7.82921L192.066 5.86481C191.925 5.72827 191.825 5.55497 191.778 5.3646C191.731 5.17423 191.738 4.97441 191.798 4.78783C191.859 4.60126 191.97 4.4354 192.121 4.30909C192.271 4.18278 192.453 4.10108 192.647 4.07327L195.425 3.68039C195.593 3.65599 195.752 3.59097 195.889 3.49101C196.026 3.39104 196.136 3.25915 196.211 3.10678L197.452 0.592349C197.539 0.414753 197.673 0.265028 197.841 0.160285C198.008 0.0555424 198.202 0 198.399 0C198.597 0 198.79 0.0555424 198.957 0.160285C199.125 0.265028 199.26 0.414753 199.346 0.592349V0.592349Z" fill="#EBD75C"/>
<path d="M66.4265 266.687L67.4676 268.797C67.5296 268.925 67.6224 269.036 67.7375 269.119C67.8527 269.203 67.9867 269.257 68.1276 269.276L70.4574 269.614C70.6198 269.638 70.7723 269.706 70.8978 269.812C71.0232 269.918 71.1165 270.057 71.1672 270.213C71.2178 270.369 71.2238 270.536 71.1845 270.696C71.1452 270.855 71.0621 271 70.9446 271.115L69.2591 272.757C69.1556 272.857 69.0785 272.981 69.0346 273.118C68.9908 273.255 68.9815 273.401 69.0077 273.543L69.4006 275.861C69.4275 276.022 69.409 276.189 69.347 276.34C69.285 276.492 69.1819 276.624 69.0495 276.72C68.917 276.817 68.7602 276.875 68.5967 276.887C68.4333 276.9 68.2695 276.867 68.1237 276.792L66.0414 275.696C65.9153 275.63 65.7751 275.596 65.6328 275.596C65.4906 275.596 65.3504 275.63 65.2242 275.696L63.1498 276.784C63.0042 276.861 62.84 276.895 62.6758 276.883C62.5117 276.871 62.3542 276.813 62.2212 276.716C62.0882 276.619 61.9851 276.487 61.9235 276.334C61.862 276.182 61.8445 276.015 61.873 275.853L62.2658 273.535C62.2902 273.393 62.2796 273.247 62.2351 273.11C62.1906 272.974 62.1135 272.85 62.0105 272.749L60.3289 271.107C60.2115 270.992 60.1283 270.847 60.089 270.688C60.0497 270.528 60.0557 270.361 60.1064 270.205C60.157 270.049 60.2504 269.91 60.3758 269.804C60.5012 269.699 60.6537 269.63 60.8161 269.606L63.142 269.268C63.2833 269.248 63.4177 269.194 63.5334 269.111C63.6491 269.027 63.7427 268.917 63.8059 268.789L64.8471 266.679C64.9204 266.532 65.0334 266.408 65.1734 266.322C65.3134 266.236 65.4748 266.191 65.6392 266.191C65.8036 266.192 65.9645 266.239 66.1037 266.327C66.2428 266.414 66.3546 266.539 66.4265 266.687V266.687Z" fill="#EBD75C"/>
<g style="mix-blend-mode:soft-light" opacity="0.48">
<path d="M103.63 44.6355C113.298 42.5044 120.526 38.0043 119.772 34.5843C119.018 31.1643 110.569 30.1195 100.9 32.2506C91.2311 34.3817 84.004 38.8818 84.7578 42.3018C85.5116 45.7218 93.9609 46.7667 103.63 44.6355Z" fill="white"/>
</g>
<g style="mix-blend-mode:multiply">
<path d="M125.649 154.936C125.649 154.936 114.527 144.996 112.511 144.996C110.496 144.996 105.129 152.854 106.339 154.936C107.549 157.018 113.765 163.839 120.589 165.937C122.801 161.717 125.649 154.936 125.649 154.936Z" fill="#DFF8FF"/>
</g>
<g style="mix-blend-mode:multiply" opacity="0.5">
<path d="M135.833 113.552L161.806 188.046L199.656 164.088L170.261 86.1719L135.833 113.552Z" fill="#EBD75C"/>
</g>
<g style="mix-blend-mode:multiply">
<path d="M207.286 228.379C203.393 231.604 199.018 234.199 194.321 236.068C189.917 237.765 188.428 241.238 189.76 247.61C191.091 253.983 191.838 263.919 194.588 266.535C197.338 269.152 206.799 267.761 211.702 261.679C210.166 249.697 207.286 228.379 207.286 228.379Z" fill="#DFF8FF"/>
</g>
<g style="mix-blend-mode:multiply">
<path d="M232.921 163.406C232.921 163.406 227.421 165.803 227.944 169.626C228.466 173.448 234.084 191.925 236.3 193.591C238.516 195.257 245.073 192.303 245.073 192.303C238.339 173.224 232.921 163.406 232.921 163.406Z" fill="#DFF8FF"/>
</g>
<path d="M0.807458 207.62C-3.56531 198.552 10.6845 188.848 22.8088 189.547C34.9331 190.247 40.0288 201.44 44.3229 205.616C53.2924 214.33 53.0095 222.856 46.7981 226.521C40.5866 230.187 6.59459 219.615 0.807458 207.62Z" fill="#008AA7"/>
<path d="M245.399 67.1466C241.864 64.0507 245.502 49.4984 253.854 46.0921C262.207 42.6858 272.579 46.4103 274.795 52.2486C277.011 58.0868 252.648 73.4877 245.399 67.1466Z" fill="#008AA7"/>
<path d="M286.33 74.9347C284.518 77.5159 283.312 84.8667 287.135 86.175C290.958 87.4833 293.849 79.9203 292.506 75.9837C291.162 72.047 287.54 73.2099 286.33 74.9347Z" fill="#008AA7"/>
<path opacity="0.44" d="M289.08 15.2841C286.228 16.6277 281.525 22.4031 284.196 25.44C286.868 28.477 293.127 23.346 293.916 19.2639C294.706 15.1819 290.985 14.3883 289.08 15.2841Z" fill="#008AA7"/>
<path opacity="0.44" d="M20.8679 245.774C18.4006 243.81 11.1441 242.14 9.59618 245.876C8.04823 249.612 15.4187 252.948 19.4182 251.872C23.4177 250.795 22.5102 247.086 20.8679 245.774Z" fill="#008AA7"/>
<g style="mix-blend-mode:multiply" opacity="0.64">
<path d="M42.1739 203.129C37.7854 203.954 38.4926 207.879 39.8991 211.434C41.3056 214.99 46.2559 216.004 49.7486 212.754C47.4817 207.36 42.1739 203.129 42.1739 203.129Z" fill="#008AA7"/>
</g>
<g style="mix-blend-mode:multiply" opacity="0.64">
<path d="M16.947 197.208C13.8039 197.557 11.2424 202.107 13.4582 205.796C15.6741 209.485 19.8975 212.173 22.3138 211.167C24.73 210.161 25.1346 204.724 23.3902 201.235C21.6459 197.746 19.9683 196.87 16.947 197.208Z" fill="#008AA7"/>
</g>
<g style="mix-blend-mode:multiply" opacity="0.64">
<path d="M264.988 49.2259C263.264 49.776 261.515 51.6422 261.669 53.6576C261.822 55.6731 263.582 57.4332 265.491 57.1936C267.401 56.9539 269.027 53.8698 268.634 51.6539C268.242 49.4381 266.305 48.8095 264.988 49.2259Z" fill="#008AA7"/>
</g>
<g style="mix-blend-mode:multiply" opacity="0.64">
<path d="M246.723 53.1562C246.723 53.1562 249.081 55.5135 248.688 58.1891C248.295 60.8646 244.233 60.6171 244.233 60.6171C244.233 60.6171 244.838 56.0557 246.723 53.1562Z" fill="#008AA7"/>
</g>
</svg>
