<svg width="239" height="283" viewBox="0 0 239 283" fill="none" xmlns="http://www.w3.org/2000/svg">

<path d="M200 282H217C223.523 282 226.785 282 229.358 280.934C232.788 279.513 235.513 276.788 236.934 273.358C238 270.785 238 267.523 238 261V247" stroke="#E5E7EB" stroke-width="2" stroke-linecap="round"/>
<path d="M38 282H22C15.4768 282 12.2152 282 9.64243 280.934C6.21204 279.513 3.4866 276.788 2.06569 273.358C1 270.785 1 267.523 1 261V247" stroke="#E5E7EB" stroke-width="2" stroke-linecap="round"/>
<path d="M200 1H217C223.523 1 226.785 1 229.358 2.06569C232.788 3.4866 235.513 6.21204 236.934 9.64243C238 12.2152 238 15.4768 238 22V35" stroke="#E5E7EB" stroke-width="2" stroke-linecap="round"/>
<path d="M38 1H22C15.4768 1 12.2152 1 9.64243 2.06569C6.21204 3.4866 3.4866 6.21204 2.06569 9.64243C1 12.2152 1 15.4768 1 22V36" stroke="#E5E7EB" stroke-width="2" stroke-linecap="round"/>
<rect x="1" y="162" width="237" height="120" fill="url(#paint0_linear_2204_31137)"/>
</svg>
