<svg width="56" height="54" viewBox="0 0 56 54" fill="none" xmlns="http://www.w3.org/2000/svg">
<path d="M54.1667 24.4674C54.7861 24.006 55.2456 23.3622 55.4807 22.6265C55.7158 21.8907 55.7147 21.0998 55.4776 20.3646C55.2406 19.6295 54.7793 18.987 54.1587 18.5272C53.538 18.0674 52.789 17.8134 52.0167 17.8008L37.0167 17.2341C36.9429 17.229 36.8722 17.2027 36.8131 17.1584C36.7539 17.114 36.7089 17.0535 36.6833 16.9841L31.5 2.98411C31.2396 2.27184 30.7666 1.6568 30.145 1.22227C29.5235 0.787732 28.7834 0.554688 28.025 0.554688C27.2666 0.554688 26.5265 0.787732 25.905 1.22227C25.2834 1.6568 24.8104 2.27184 24.55 2.98411L19.3833 17.0341C19.3578 17.1035 19.3127 17.164 19.2536 17.2084C19.1945 17.2527 19.1237 17.279 19.05 17.2841L4.04999 17.8508C3.27767 17.8634 2.52866 18.1174 1.90798 18.5772C1.28731 19.037 0.826094 19.6795 0.589011 20.4146C0.351927 21.1498 0.350864 21.9407 0.585969 22.6765C0.821074 23.4122 1.28056 24.056 1.89999 24.5174L13.6667 33.7674C13.7256 33.8138 13.7696 33.8764 13.7933 33.9475C13.817 34.0186 13.8193 34.095 13.8 34.1674L9.75 48.5174C9.54012 49.2482 9.56046 50.0258 9.80823 50.7446C10.056 51.4634 10.5192 52.0884 11.1347 52.5346C11.7503 52.9808 12.4884 53.2265 13.2486 53.2384C14.0088 53.2502 14.7542 53.0276 15.3833 52.6008L27.8167 44.2674C27.8779 44.2252 27.9506 44.2025 28.025 44.2025C28.0994 44.2025 28.1721 44.2252 28.2333 44.2674L40.6667 52.6008C41.2873 53.0422 42.03 53.2793 42.7917 53.2793C43.5533 53.2793 44.296 53.0422 44.9167 52.6008C45.5324 52.1588 45.996 51.5368 46.2437 50.8205C46.4915 50.1042 46.5111 49.3287 46.3 48.6008L42.2167 34.2008C42.195 34.1285 42.1962 34.0513 42.2201 33.9797C42.2439 33.9081 42.2893 33.8456 42.35 33.8008L54.1667 24.4674Z" fill="#FDAE09"/>
</svg>
