<svg width="13" height="20" viewBox="0 0 13 20" fill="none" xmlns="http://www.w3.org/2000/svg">
<path d="M8.64859 20C10.7351 20 12.5621 18.7351 12.9729 16.7568L11.081 15.8054C10.8107 16.9838 10.0864 17.8378 8.64859 17.8378H3.35129C4.24859 16.7568 4.97291 15.3081 4.97291 13.5135C4.97291 13.1351 4.94048 12.7676 4.88643 12.4324H8.64859V10.2703H4.12967C3.24318 8.56216 2.1621 7.67568 2.1621 5.94595C2.16243 5.05889 2.47441 4.20015 3.04354 3.51973C3.61266 2.83931 4.40275 2.38048 5.27579 2.22339C6.14882 2.06629 7.0493 2.22092 7.81992 2.66026C8.59053 3.0996 9.1823 3.79573 9.49183 4.62703L11.4918 3.78378C10.627 1.56757 8.47561 0 5.94588 0C2.6594 0 -6.10352e-05 2.65946 -6.10352e-05 5.94595C-6.10352e-05 7.87027 0.853993 9.08108 1.61075 10.2703H-6.10352e-05V12.4324H2.67021C2.7567 12.7676 2.81075 13.1243 2.81075 13.5135C2.81075 16.4324 -6.10352e-05 17.8378 -6.10352e-05 17.8378V20H8.64859Z" fill="url(#paint0_linear_7429_140591)"/>
<defs>
<linearGradient id="paint0_linear_7429_140591" x1="6.48643" y1="0" x2="6.48643" y2="20" gradientUnits="userSpaceOnUse">
<stop stop-color="white"/>
<stop offset="1" stop-color="white" stop-opacity="0.15"/>
</linearGradient>
</defs>
</svg>
