<svg width="23" height="20" viewBox="0 0 23 20" fill="none" xmlns="http://www.w3.org/2000/svg">
<path d="M15.625 3.75L15.5898 3.77578C15.418 3.75859 15.2109 3.75 15 3.75H10C9.35547 3.75 8.73047 3.83125 8.13281 3.98438C8.12891 3.90625 8.125 3.82891 8.125 3.75C8.125 1.67891 9.76953 0 11.875 0C13.9453 0 15.625 1.67891 15.625 3.75ZM15 5C15.1367 5 15.2383 5.00391 15.4062 5.01172C15.5742 5.02344 15.7383 5.03906 15.8984 5.0625C16.5859 4.26172 17.6094 3.75 18.75 3.75H20L19.2656 6.68359C19.8867 7.26172 20.3867 7.96484 20.7305 8.75H21.25C21.9414 8.75 22.5 9.30859 22.5 10V13.75C22.5 14.4414 21.9414 15 21.25 15H20C19.6445 15.4727 19.2227 15.8945 18.75 16.25V18.75C18.75 19.4414 18.1914 20 17.5 20H16.25C15.5586 20 15 19.4414 15 18.75V17.5H10V18.75C10 19.4414 9.44141 20 8.75 20H7.5C6.80859 20 6.25 19.4414 6.25 18.75V16.25C4.88672 15.2266 3.95703 13.6641 3.78086 11.875H2.65625C1.18906 11.875 0 10.6875 0 9.21875C0 7.75 1.18906 6.5625 2.65625 6.5625H2.8125C3.33008 6.5625 3.75 6.98047 3.75 7.5C3.75 8.01953 3.33008 8.4375 2.8125 8.4375H2.65625C2.22461 8.4375 1.875 8.75391 1.875 9.21875C1.875 9.64844 2.22461 10 2.65625 10H3.875C4.34766 7.66406 6.12891 5.80078 8.41797 5.20312C8.92188 5.07031 9.41797 5 10 5H15ZM16.5625 9.375C16.043 9.375 15.625 9.79297 15.625 10.3125C15.625 10.832 16.043 11.25 16.5625 11.25C17.082 11.25 17.5 10.832 17.5 10.3125C17.5 9.79297 17.082 9.375 16.5625 9.375Z" fill="url(#paint0_linear_7429_140584)"/>
<defs>
<linearGradient id="paint0_linear_7429_140584" x1="11.25" y1="0" x2="11.25" y2="20" gradientUnits="userSpaceOnUse">
<stop stop-color="white"/>
<stop offset="1" stop-color="white" stop-opacity="0.3"/>
</linearGradient>
</defs>
</svg>
