<svg width="22" height="22" viewBox="0 0 22 22" fill="none" xmlns="http://www.w3.org/2000/svg">
<path d="M18.49 4.5714C19.0249 5.25996 19.4033 6.05684 19.5988 6.90654C19.7943 7.75625 19.8022 8.63836 19.622 9.49144C19.4418 10.3445 19.0778 11.1481 18.5554 11.8461C18.033 12.5442 17.3647 13.12 16.597 13.5334C15.948 13.8844 15.167 13.6684 14.645 13.1474L8.855 7.3564C8.333 6.8344 8.117 6.0534 8.467 5.4044C8.8804 4.63659 9.45623 3.96813 10.1544 3.4456C10.8525 2.92307 11.6562 2.55902 12.5094 2.37882C13.3626 2.19862 14.2448 2.2066 15.0947 2.4022C15.9445 2.59781 16.7414 2.97633 17.43 3.5114L19.72 1.2214C19.7892 1.14974 19.8719 1.09257 19.9634 1.05322C20.0549 1.01387 20.1533 0.993131 20.2528 0.992219C20.3524 0.991307 20.4512 1.01024 20.5434 1.0479C20.6356 1.08557 20.7193 1.14122 20.7898 1.21161C20.8602 1.28199 20.916 1.36571 20.9537 1.45786C20.9915 1.55001 21.0105 1.64876 21.0097 1.74835C21.0089 1.84793 20.9882 1.94636 20.949 2.03788C20.9097 2.1294 20.8526 2.21219 20.781 2.2814L18.491 4.5714H18.49ZM2.28 20.7814L4.57 18.4914C5.25856 19.0263 6.05543 19.4047 6.90514 19.6002C7.75484 19.7957 8.63695 19.8036 9.49003 19.6234C10.3431 19.4432 11.1467 19.0792 11.8447 18.5568C12.5428 18.0344 13.1186 17.3661 13.532 16.5984C13.883 15.9494 13.667 15.1684 13.145 14.6464L7.355 8.8564C6.833 8.3344 6.052 8.1184 5.403 8.4684C4.63519 8.88181 3.96673 9.45764 3.4442 10.1558C2.92166 10.8539 2.55762 11.6576 2.37742 12.5108C2.19722 13.364 2.2052 14.2463 2.4008 15.0961C2.5964 15.9459 2.97493 16.7428 3.51 17.4314L1.22 19.7214C1.14834 19.7906 1.09116 19.8733 1.05181 19.9648C1.01246 20.0563 0.991727 20.1547 0.990815 20.2542C0.989903 20.3538 1.00883 20.4526 1.0465 20.5448C1.08417 20.637 1.13982 20.7207 1.2102 20.7912C1.28059 20.8616 1.3643 20.9174 1.45646 20.9551C1.54861 20.9929 1.64736 21.0119 1.74694 21.0111C1.84653 21.0103 1.94495 20.9896 2.03648 20.9504C2.128 20.9111 2.21078 20.854 2.28 20.7824V20.7814Z" fill="url(#paint0_linear_7429_140560)"/>
<defs>
<linearGradient id="paint0_linear_7429_140560" x1="11.0002" y1="0.992187" x2="11.0002" y2="21.0111" gradientUnits="userSpaceOnUse">
<stop stop-color="white"/>
<stop offset="1" stop-color="white" stop-opacity="0.15"/>
</linearGradient>
</defs>
</svg>
