<svg width="36" height="40" viewBox="0 0 36 40" fill="none" xmlns="http://www.w3.org/2000/svg">
<path d="M18.4934 1.60469C18.7882 1.18207 19.1669 0.824731 19.6059 0.554973C20.0449 0.285214 20.5348 0.108824 21.0451 0.0368074C21.5553 -0.035209 22.0749 -0.00130595 22.5714 0.136401C23.0679 0.274108 23.5307 0.512665 23.931 0.837186L32.106 7.47474C32.8365 8.06749 33.3175 8.91311 33.4536 9.8439C33.5898 10.7747 33.3711 11.7227 32.841 12.4998H29.791L30.766 11.1023C30.9475 10.8434 31.0242 10.5254 30.9806 10.2123C30.937 9.89915 30.7763 9.61418 30.531 9.41475L26.321 5.99973L21.8309 12.4998H18.7884L24.3735 4.41971L22.3535 2.7797C22.2201 2.67149 22.0659 2.59191 21.9004 2.54594C21.7349 2.49998 21.5617 2.4886 21.3917 2.51253C21.2216 2.53645 21.0583 2.59517 20.9119 2.68501C20.7656 2.77485 20.6393 2.89389 20.5409 3.0347L13.9384 12.4973H10.8884L18.4934 1.60469ZM27.2385 27.4999C26.907 27.4999 26.589 27.6316 26.3546 27.866C26.1202 28.1004 25.9885 28.4184 25.9885 28.7499C25.9885 29.0814 26.1202 29.3994 26.3546 29.6338C26.589 29.8682 26.907 29.9999 27.2385 29.9999H29.7385C30.07 29.9999 30.388 29.8682 30.6224 29.6338C30.8568 29.3994 30.9885 29.0814 30.9885 28.7499C30.9885 28.4184 30.8568 28.1004 30.6224 27.866C30.388 27.6316 30.07 27.4999 29.7385 27.4999H27.2385ZM4.73831 9.99976H10.1609L8.41084 12.4998H4.73831C4.40679 12.4998 4.08884 12.6315 3.85442 12.8659C3.62 13.1003 3.4883 13.4183 3.4883 13.7498C3.4883 14.0813 3.62 14.3993 3.85442 14.6337C4.08884 14.8681 4.40679 14.9998 4.73831 14.9998H30.9885C32.3146 14.9998 33.5864 15.5266 34.5241 16.4643C35.4618 17.402 35.9886 18.6737 35.9886 19.9998V35C35.9886 36.326 35.4618 37.5978 34.5241 38.5355C33.5864 39.4732 32.3146 40 30.9885 40H7.23833C5.58072 40 3.99099 39.3415 2.81888 38.1694C1.64677 36.9973 0.988281 35.4076 0.988281 33.7499V13.7498C0.988281 12.7552 1.38337 11.8014 2.08664 11.0981C2.78991 10.3948 3.74374 9.99976 4.73831 9.99976ZM3.4883 33.7499C3.4883 34.7445 3.88339 35.6984 4.58666 36.4016C5.28993 37.1049 6.24376 37.5 7.23833 37.5H30.9885C31.6516 37.5 32.2875 37.2366 32.7563 36.7677C33.2252 36.2989 33.4885 35.663 33.4885 35V19.9998C33.4885 19.3368 33.2252 18.7009 32.7563 18.2321C32.2875 17.7632 31.6516 17.4998 30.9885 17.4998H4.73831C4.30081 17.4998 3.8783 17.4248 3.4883 17.2873V33.7499Z" fill="white"/>
</svg>
