<svg width="25" height="25" viewBox="0 0 25 25" fill="none" xmlns="http://www.w3.org/2000/svg">
<path d="M11.7188 15.625H7.03125C6.40965 15.625 5.81351 15.8719 5.37397 16.3115C4.93443 16.751 4.6875 17.3472 4.6875 17.9688V19.5313H6.25V17.9688C6.25 17.7616 6.33231 17.5628 6.47882 17.4163C6.62534 17.2698 6.82405 17.1875 7.03125 17.1875H11.7188C11.926 17.1875 12.1247 17.2698 12.2712 17.4163C12.4177 17.5628 12.5 17.7616 12.5 17.9688V19.5313H14.0625V17.9688C14.0625 17.3472 13.8156 16.751 13.376 16.3115C12.9365 15.8719 12.3404 15.625 11.7188 15.625ZM9.375 14.8438C9.99307 14.8438 10.5973 14.6605 11.1112 14.3171C11.6251 13.9737 12.0256 13.4857 12.2621 12.9146C12.4986 12.3436 12.5605 11.7153 12.44 11.1091C12.3194 10.5029 12.0217 9.94608 11.5847 9.50904C11.1477 9.072 10.5908 8.77438 9.98466 8.6538C9.37847 8.53322 8.75013 8.5951 8.17911 8.83163C7.60809 9.06815 7.12004 9.46869 6.77666 9.9826C6.43328 10.4965 6.25 11.1007 6.25 11.7188C6.25 12.5476 6.57924 13.3424 7.16529 13.9285C7.75134 14.5145 8.5462 14.8438 9.375 14.8438ZM9.375 10.1563C9.68403 10.1563 9.98613 10.2479 10.2431 10.4196C10.5 10.5913 10.7003 10.8353 10.8186 11.1208C10.9368 11.4063 10.9678 11.7205 10.9075 12.0236C10.8472 12.3267 10.6984 12.6051 10.4799 12.8236C10.2613 13.0421 9.98292 13.1909 9.67983 13.2512C9.37673 13.3115 9.06257 13.2806 8.77706 13.1623C8.49155 13.0441 8.24752 12.8438 8.07583 12.5868C7.90414 12.3299 7.8125 12.0278 7.8125 11.7188C7.8125 11.3044 7.97712 10.9069 8.27015 10.6139C8.56317 10.3209 8.9606 10.1563 9.375 10.1563Z" fill="#111111"/>
<path d="M21.875 14.8438V21.875H3.125V6.25H12.5V4.6875H3.125C2.7106 4.6875 2.31317 4.85212 2.02015 5.14515C1.72712 5.43817 1.5625 5.8356 1.5625 6.25V21.875C1.5625 22.2894 1.72712 22.6868 2.02015 22.9799C2.31317 23.2729 2.7106 23.4375 3.125 23.4375H21.875C22.2894 23.4375 22.6868 23.2729 22.9799 22.9799C23.2729 22.6868 23.4375 22.2894 23.4375 21.875V14.8438H21.875Z" fill="#111111"/>
<path d="M15.625 14.8438H20.3125V16.4062H15.625V14.8438ZM17.1875 17.9688H20.3125V19.5312H17.1875V17.9688ZM25 7.8125V6.25H23.3586C23.2578 5.76095 23.0637 5.29594 22.7867 4.88047L23.9508 3.71641L22.8461 2.61172L21.682 3.77578C21.2666 3.49884 20.8015 3.30466 20.3125 3.20391V1.5625H18.75V3.20391C18.261 3.30466 17.7959 3.49884 17.3805 3.77578L16.2164 2.61172L15.1117 3.71641L16.2758 4.88047C15.9988 5.29594 15.8047 5.76095 15.7039 6.25H14.0625V7.8125H15.7039C15.8047 8.30155 15.9988 8.76656 16.2758 9.18203L15.1117 10.3461L16.2164 11.4508L17.3805 10.2867C17.7959 10.5637 18.261 10.7578 18.75 10.8586V12.5H20.3125V10.8586C20.8015 10.7578 21.2666 10.5637 21.682 10.2867L22.8461 11.4508L23.9508 10.3461L22.7867 9.18203C23.0637 8.76656 23.2578 8.30155 23.3586 7.8125H25ZM19.5312 9.375C19.0677 9.375 18.6146 9.23754 18.2291 8.98001C17.8437 8.72247 17.5433 8.35643 17.3659 7.92816C17.1885 7.4999 17.1421 7.02865 17.2325 6.57401C17.323 6.11936 17.5462 5.70175 17.874 5.37397C18.2017 5.04619 18.6194 4.82297 19.074 4.73253C19.5286 4.6421 19.9999 4.68851 20.4282 4.86591C20.8564 5.0433 21.2225 5.3437 21.48 5.72913C21.7375 6.11456 21.875 6.5677 21.875 7.03125C21.8744 7.65266 21.6273 8.24844 21.1878 8.68785C20.7484 9.12725 20.1527 9.37438 19.5312 9.375Z" fill="#111111"/>
</svg>
