<svg width="21" height="21" viewBox="0 0 21 21" fill="none" xmlns="http://www.w3.org/2000/svg">
<path d="M11.25 9.25C10.75 9.125 10.25 8.875 9.875 8.5C9.5 8.375 9.375 8 9.375 7.75C9.375 7.5 9.5 7.125 9.75 7C10.125 6.75 10.5 6.5 10.875 6.625C11.625 6.625 12.25 7 12.625 7.5L13.75 6C13.375 5.625 13 5.375 12.625 5.125C12.25 4.875 11.75 4.75 11.25 4.75V3H9.75V4.75C9.125 4.875 8.5 5.25 8 5.75C7.5 6.375 7.125 7.125 7.25 7.875C7.25 8.625 7.5 9.375 8 9.875C8.625 10.5 9.5 10.875 10.25 11.25C10.625 11.375 11.125 11.625 11.5 11.875C11.75 12.125 11.875 12.5 11.875 12.875C11.875 13.25 11.75 13.625 11.5 14C11.125 14.375 10.625 14.5 10.25 14.5C9.75 14.5 9.125 14.375 8.75 14C8.375 13.75 8 13.375 7.75 13L6.5 14.375C6.875 14.875 7.25 15.25 7.75 15.625C8.375 16 9.125 16.375 9.875 16.375V18H11.25V16.125C12 16 12.625 15.625 13.125 15.125C13.75 14.5 14.125 13.5 14.125 12.625C14.125 11.875 13.875 11 13.25 10.5C12.625 9.875 12 9.5 11.25 9.25ZM10.5 0.5C5 0.5 0.5 5 0.5 10.5C0.5 16 5 20.5 10.5 20.5C16 20.5 20.5 16 20.5 10.5C20.5 5 16 0.5 10.5 0.5ZM10.5 19.125C5.75 19.125 1.875 15.25 1.875 10.5C1.875 5.75 5.75 1.875 10.5 1.875C15.25 1.875 19.125 5.75 19.125 10.5C19.125 15.25 15.25 19.125 10.5 19.125Z" fill="#111111"/>
</svg>
