<svg width="24" height="24" viewBox="0 0 24 24" fill="none" xmlns="http://www.w3.org/2000/svg">
<path d="M19 19.0491C19.9282 19.0491 20.8185 18.6804 21.4749 18.024C22.1312 17.3676 22.5 16.4774 22.5 15.5491C22.5 14.6209 22.1312 13.7307 21.4749 13.0743C20.8185 12.4179 19.9282 12.0491 19 12.0491H18C18.1459 11.3991 18.1481 10.7296 18.0065 10.0787C17.8649 9.42793 17.5823 8.80858 17.1748 8.25607C16.7672 7.70357 16.2427 7.22871 15.6313 6.85863C15.0198 6.48854 14.3334 6.23047 13.6111 6.09915C12.8888 5.96782 12.1449 5.96582 11.4218 6.09326C10.6986 6.22069 10.0105 6.47507 9.39658 6.84186C8.15675 7.58263 7.29467 8.73632 6.99999 10.0491C5.93394 10.0064 4.88553 10.3195 4.03426 10.9348C3.18299 11.5501 2.58181 12.4294 2.33366 13.422C2.08551 14.4146 2.20582 15.4588 2.67399 16.3759C3.14216 17.293 3.92907 18.0259 4.89999 18.4491" stroke="#55676B" stroke-width="1.5" stroke-linecap="round" stroke-linejoin="round"/>
<path d="M12 21.0004V12.0004" stroke="#17833F" stroke-width="1.5" stroke-linecap="round" stroke-linejoin="round"/>
<path d="M9 15.0004L12 12.0004L15 15.0004" stroke="#17833F" stroke-width="1.5" stroke-linecap="round" stroke-linejoin="round"/>
</svg>
