<svg width="25" height="24" viewBox="0 0 25 24" fill="none" xmlns="http://www.w3.org/2000/svg">
<path fill-rule="evenodd" clip-rule="evenodd" d="M16.2161 16.9737H8.99609C8.58209 16.9737 8.24609 16.6377 8.24609 16.2237C8.24609 15.8097 8.58209 15.4737 8.99609 15.4737H16.2161C16.6301 15.4737 16.9661 15.8097 16.9661 16.2237C16.9661 16.6377 16.6301 16.9737 16.2161 16.9737Z" fill="#55676B"/>
<path fill-rule="evenodd" clip-rule="evenodd" d="M16.2161 12.7872H8.99609C8.58209 12.7872 8.24609 12.4512 8.24609 12.0372C8.24609 11.6232 8.58209 11.2872 8.99609 11.2872H16.2161C16.6301 11.2872 16.9661 11.6232 16.9661 12.0372C16.9661 12.4512 16.6301 12.7872 16.2161 12.7872Z" fill="#17833F"/>
<path fill-rule="evenodd" clip-rule="evenodd" d="M11.7511 8.61041H8.99609C8.58209 8.61041 8.24609 8.27441 8.24609 7.86041C8.24609 7.44641 8.58209 7.11041 8.99609 7.11041H11.7511C12.1651 7.11041 12.5011 7.44641 12.5011 7.86041C12.5011 8.27441 12.1651 8.61041 11.7511 8.61041Z" fill="#55676B"/>
<mask id="mask0_2750_69692" style="mask-type:alpha" maskUnits="userSpaceOnUse" x="3" y="2" width="19" height="20">
<path fill-rule="evenodd" clip-rule="evenodd" d="M3.5 2.00018H21.6647V21.91H3.5V2.00018Z" fill="white"/>
</mask>
<g mask="url(#mask0_2750_69692)">
<path fill-rule="evenodd" clip-rule="evenodd" d="M16.409 3.5L8.72 3.504C6.392 3.518 5 4.958 5 7.357V16.553C5 18.968 6.405 20.41 8.756 20.41L16.445 20.407C18.773 20.393 20.165 18.951 20.165 16.553V7.357C20.165 4.942 18.761 3.5 16.409 3.5ZM8.757 21.91C5.613 21.91 3.5 19.757 3.5 16.553V7.357C3.5 4.124 5.547 2.023 8.715 2.004L16.408 2H16.409C19.553 2 21.665 4.153 21.665 7.357V16.553C21.665 19.785 19.618 21.887 16.45 21.907L8.757 21.91Z" fill="#55676B"/>
</g>
</svg>
