<svg width="19" height="20" viewBox="0 0 19 20" fill="none" xmlns="http://www.w3.org/2000/svg">
<path d="M2 11V19H9V11H2ZM10 11V19H17V11H10ZM18 11V20H1V11H0V5H3.035L3 4.5C2.99973 3.73467 3.25033 2.99035 3.71341 2.38102C4.1765 1.77168 4.82654 1.33093 5.564 1.12626C6.30145 0.921587 7.08567 0.964275 7.79655 1.24779C8.50743 1.5313 9.10579 2.04001 9.5 2.696C9.89421 2.04001 10.4926 1.5313 11.2034 1.24779C11.9143 0.964275 12.6985 0.921587 13.436 1.12626C14.1735 1.33093 14.8235 1.77168 15.2866 2.38102C15.7497 2.99035 16.0003 3.73467 16 4.5L15.965 5H19V11H18ZM1 6V10H9V6H1ZM18 10V6H10V10H18ZM14.95 5L15 4.5C15 3.83696 14.7366 3.20108 14.2678 2.73224C13.7989 2.2634 13.163 2 12.5 2C11.837 2 11.2011 2.2634 10.7322 2.73224C10.2634 3.20108 10 3.83696 10 4.5V5H14.95ZM9 5V4.5C9 3.83696 8.73661 3.20108 8.26777 2.73224C7.79893 2.2634 7.16304 2 6.5 2C5.83696 2 5.20107 2.2634 4.73223 2.73224C4.26339 3.20108 4 3.83696 4 4.5L4.05 5H9Z" fill="#55676B"/>
</svg>
