<svg width="24" height="24" viewBox="0 0 24 24" fill="none" xmlns="http://www.w3.org/2000/svg">
<path d="M18.6259 5.84812C18.4545 3.00712 15.9255 0.75 12.8224 0.75C10.9774 0.75 9.336 1.5495 8.2695 2.793C7.75276 2.65135 7.21942 2.57934 6.68363 2.57887C3.5805 2.57887 1.065 4.91475 1.065 7.79513C1.065 8.82975 1.3935 9.79163 1.953 10.6027C1.2015 11.526 0.75 12.672 0.75 13.9185C0.75 16.9616 3.40687 19.428 6.684 19.428C8.10787 19.428 9.4065 18.954 10.428 18.177C10.4528 18.3401 10.4756 18.507 10.5008 18.669C10.7445 20.2605 10.9579 21.7894 10.848 23.25L13.473 23.2219C13.3661 21.591 12.9499 20.0651 12.5291 18.6217C13.2396 18.9745 14.0222 19.158 14.8155 19.1576C17.4731 19.1576 19.6305 17.187 19.6961 14.7341C21.7463 14.1953 23.25 12.4485 23.25 10.3729C23.25 7.94887 21.2017 5.97525 18.6259 5.84812ZM19.41 13.6462L18.594 13.8608L18.5711 14.7041C18.522 16.5397 16.8371 18.0326 14.8151 18.0326C13.749 18.0326 12.7421 17.6182 12.0259 16.8967C11.736 15.8805 11.475 14.8733 11.3089 13.854C11.9089 13.8251 12.4931 13.752 13.0792 13.644C13.8956 13.4906 14.697 13.2607 15.4556 12.933C16.2131 12.6067 16.9268 12.18 17.5399 11.6456C18.148 11.1188 18.6512 10.4819 19.023 9.76838C18.6024 10.4432 18.0585 11.0328 17.4199 11.5065C16.7843 11.9805 16.0657 12.3379 15.3161 12.5963C14.5657 12.8554 13.7827 13.0181 12.9934 13.1063C12.4012 13.1729 11.8051 13.1973 11.2095 13.1794C11.043 11.8005 11.0745 10.3995 11.3737 9.02137C11.7045 7.48162 12.3499 5.988 13.197 4.60162C12.1703 5.86875 11.3066 7.28962 10.7415 8.85075C10.4134 9.75037 10.1989 10.6935 10.0789 11.6509C9.80297 11.4977 9.53373 11.3328 9.27188 11.1566C8.78974 10.8338 8.33878 10.4667 7.92487 10.0601C7.10437 9.25125 6.45187 8.23537 6.25575 7.07812C6.32475 8.24888 6.87825 9.37237 7.64288 10.2997C8.02929 10.7675 8.45881 11.1979 8.92575 11.5852C9.27075 11.8721 9.62325 12.1384 10.0057 12.3851C9.97159 12.8448 9.95858 13.3058 9.96675 13.7666C9.97762 14.5346 10.0414 15.2962 10.1291 16.05C9.85055 16.0311 9.57301 15.9993 9.29737 15.9548C8.72216 15.8632 8.15876 15.7087 7.61737 15.4939C6.5355 15.0664 5.559 14.3438 4.88363 13.3778C5.4495 14.4052 6.369 15.2587 7.45538 15.8209C8.00203 16.1051 8.5784 16.3281 9.174 16.4858C9.51675 16.5754 9.8595 16.6481 10.2105 16.7006C10.218 16.7546 10.2266 16.8068 10.2341 16.8608C9.32063 17.7769 8.03438 18.3034 6.68475 18.3034C4.03238 18.3034 1.875 16.3361 1.875 13.9185C1.875 12.9776 2.2035 12.0769 2.82562 11.3134L3.3585 10.659L2.87925 9.96412C2.4285 9.3105 2.19038 8.5605 2.19038 7.79513C2.19038 5.53913 4.20637 3.70388 6.684 3.70388C7.11525 3.70388 7.54913 3.76275 7.97363 3.87825L8.66062 4.06575L9.12375 3.52537C10.023 2.4765 11.3711 1.875 12.8224 1.875C15.3101 1.875 17.3659 3.64987 17.5028 5.91562L17.5631 6.92175L18.5704 6.97162C20.5635 7.07025 22.125 8.56387 22.125 10.3729C22.125 11.88 21.0082 13.2259 19.41 13.6462Z" fill="#55676B"/>
</svg>
