<svg width="26" height="26" viewBox="0 0 26 26" fill="none" xmlns="http://www.w3.org/2000/svg">
<path d="M10.2916 14.8958C10.2916 15.9467 11.1041 16.7917 12.1008 16.7917H14.1374C15.0041 16.7917 15.7083 16.055 15.7083 15.1342C15.7083 14.1483 15.275 13.7908 14.6358 13.5633L11.375 12.4258C10.7358 12.1983 10.3025 11.8517 10.3025 10.855C10.3025 9.94501 11.0066 9.19751 11.8733 9.19751H13.91C14.9066 9.19751 15.7191 10.0425 15.7191 11.0933" stroke="#2FA2B9" stroke-width="1.5" stroke-linecap="round" stroke-linejoin="round"/>
<path d="M13 8.125V17.875" stroke="#2FA2B9" stroke-width="1.5" stroke-linecap="round" stroke-linejoin="round"/>
<path d="M23.8333 13.0001C23.8333 18.9801 18.98 23.8334 13 23.8334C7.01996 23.8334 2.16663 18.9801 2.16663 13.0001C2.16663 7.02008 7.01996 2.16675 13 2.16675" stroke="#2FA2B9" stroke-width="1.5" stroke-linecap="round" stroke-linejoin="round"/>
<path d="M18.4166 3.25V7.58333H22.75" stroke="#2FA2B9" stroke-width="1.5" stroke-linecap="round" stroke-linejoin="round"/>
<path d="M23.8333 2.16675L18.4166 7.58341" stroke="#2FA2B9" stroke-width="1.5" stroke-linecap="round" stroke-linejoin="round"/>
</svg>
