<svg width="74" height="78" viewBox="0 0 74 78" fill="none" xmlns="http://www.w3.org/2000/svg">
<path fill-rule="evenodd" clip-rule="evenodd" d="M37 0C53.7244 0 67.8551 11.7232 72.4365 27.8136H61.8408C57.7025 17.6495 48.1397 10.5325 37 10.5325C22.3347 10.5325 10.3977 22.8716 9.98158 38.2564L9.78093 65.5565C3.70875 58.5945 0 49.2982 0 39.0858C0 17.5001 16.5655 0.00142393 37 0.00142393V0ZM15.2202 38.4456C15.705 25.9614 25.8495 15.6579 37 15.6579C48.1518 15.6579 56.0676 23.1675 58.4997 33.3174C63.4999 33.3174 68.55 33.3714 73.6054 33.3714C73.8653 35.2364 74 37.144 74 39.0858C74 60.6715 57.4345 78.1716 36.9986 78.1716C34.7335 78.1716 32.5156 77.9554 30.3622 77.5428V66.7713C32.4859 67.3375 34.7093 67.6391 36.9986 67.6391C50.3469 67.6391 61.4328 57.4195 63.6306 43.9822H58.6896C56.5578 54.5702 47.6576 62.5122 36.9986 62.5122C32.362 62.5122 28.0594 61.0086 24.5001 58.4395C24.5001 64.3345 24.7573 69.9464 24.7573 75.978C21.3839 74.729 18.234 72.9779 15.3858 70.8099V66.7358L15.2188 38.4456H15.2202ZM37 26.2303C43.7213 26.2303 49.1699 31.9859 49.1699 39.0858C49.1699 46.1857 43.7213 51.9413 37 51.9413C30.2787 51.9413 24.8301 46.1857 24.8301 39.0858C24.8301 31.9859 30.2787 26.2303 37 26.2303Z" fill="#94A3B8" fill-opacity="0.1"/>
</svg>
