<svg width="25" height="24" viewBox="0 0 25 24" fill="none" xmlns="http://www.w3.org/2000/svg">
<path d="M12.625 22C18.1478 22 22.625 17.5228 22.625 12C22.625 6.47715 18.1478 2 12.625 2C7.10215 2 2.625 6.47715 2.625 12C2.625 17.5228 7.10215 22 12.625 22Z" stroke="#111827" stroke-width="1.5" stroke-linecap="round" stroke-linejoin="round"/>
<path d="M8.63489 14.5099C8.81489 14.8099 9.03488 15.09 9.28488 15.34C11.1249 17.18 14.1149 17.18 15.9649 15.34C16.7149 14.59 17.1449 13.6399 17.2849 12.6699" stroke="#2FA2B9" stroke-width="1.5" stroke-linecap="round" stroke-linejoin="round"/>
<path d="M7.96484 11.3301C8.10484 10.3501 8.53485 9.41003 9.28485 8.66003C11.1249 6.82003 14.1148 6.82003 15.9648 8.66003C16.2248 8.92003 16.4348 9.20005 16.6148 9.49005" stroke="#2FA2B9" stroke-width="1.5" stroke-linecap="round" stroke-linejoin="round"/>
<path d="M8.44531 17.18V14.51H11.1153" stroke="#2FA2B9" stroke-width="1.5" stroke-linecap="round" stroke-linejoin="round"/>
<path d="M16.8049 6.82007V9.49005H14.1349" stroke="#2FA2B9" stroke-width="1.5" stroke-linecap="round" stroke-linejoin="round"/>
</svg>
