<svg width="24" height="24" viewBox="0 0 24 24" fill="none" xmlns="http://www.w3.org/2000/svg">
<defs>
<clipPath id="clip0_2750_68648">
<rect width="24" height="24" fill="white"/>
</clipPath>
</defs>
<g clip-path="url(#clip0_2750_68648)">
<path d="M11.7061 13.1424V14.1077C11.7061 14.4398 11.5312 14.7553 11.236 14.9075C10.8946 15.0835 10.4872 15.0172 10.2199 14.7501L9.58824 14.1182L8.99414 14.7123L10.4696 16.1877C10.634 16.3522 10.7246 16.5708 10.7246 16.8033V23.2351C10.7246 23.6574 11.0669 23.9998 11.4893 23.9998H12.763C13.1853 23.9998 13.5277 23.6574 13.5277 23.2351V17.7704C13.5277 17.5379 13.6182 17.3193 13.7827 17.1548L15.0055 15.932L14.4114 15.3379L14.0324 15.717C13.7651 15.9839 13.3585 16.0501 13.017 15.8748C12.7215 15.7232 12.5462 15.4078 12.5462 15.0757V13.1424H11.7061Z" fill="#EAB308"/>
<path d="M23.3882 9.87604C23.3882 7.06877 21.2107 4.76065 18.4559 4.55232C17.4946 1.84323 14.9221 0 11.9998 0C9.07743 0 6.50499 1.84323 5.54361 4.5524C2.78886 4.76073 0.611328 7.06885 0.611328 9.87612C0.611328 11.3084 1.17909 12.6621 2.18458 13.661C2.1441 13.9097 2.12373 14.1613 2.12373 14.4131C2.12373 16.9997 4.22806 19.104 6.81456 19.104H9.60171V16.908L8.02175 15.3281C7.85739 15.1638 7.76672 14.9451 7.76672 14.7125C7.76672 14.4798 7.85731 14.2612 8.02191 14.0968L8.97262 13.146C9.3121 12.8067 9.86434 12.8067 10.2038 13.146L10.5832 13.5255V12.8903C10.5832 12.4103 10.9738 12.0197 11.4538 12.0197H12.7985C13.2785 12.0197 13.669 12.4102 13.669 12.8903V14.4925L13.7958 14.3657C13.9602 14.2013 14.1788 14.1107 14.4113 14.1107C14.6439 14.1106 14.8626 14.2012 15.027 14.3657L15.9778 15.3164C15.9778 15.3164 15.9778 15.3164 15.9779 15.3164C16.3173 15.6559 16.3173 16.2082 15.9779 16.5476L14.6505 17.875V19.104H17.1851C19.7716 19.104 21.8759 16.9997 21.8759 14.4131C21.8759 14.1613 21.8555 13.9097 21.815 13.661C22.8205 12.662 23.3882 11.3084 23.3882 9.87604Z" fill="#17833F"/>
</g>
</svg>
