<svg width="25" height="24" viewBox="0 0 25 24" fill="none" xmlns="http://www.w3.org/2000/svg">
<path d="M15.7206 12C15.7206 13.98 14.1206 15.58 12.1406 15.58C10.1606 15.58 8.56064 13.98 8.56064 12C8.56064 10.02 10.1606 8.41998 12.1406 8.41998C14.1206 8.41998 15.7206 10.02 15.7206 12Z" fill="white" stroke="white" stroke-width="1.5" stroke-linecap="round" stroke-linejoin="round"/>
<path d="M12.1406 20.27C15.6706 20.27 18.9606 18.19 21.2506 14.59C22.1506 13.18 22.1506 10.81 21.2506 9.39997C18.9606 5.79997 15.6706 3.71997 12.1406 3.71997C8.61062 3.71997 5.32062 5.79997 3.03062 9.39997C2.13062 10.81 2.13062 13.18 3.03062 14.59C5.32062 18.19 8.61062 20.27 12.1406 20.27Z" stroke="white" stroke-width="1.5" stroke-linecap="round" stroke-linejoin="round"/>
</svg>
