<svg width="26" height="26" viewBox="0 0 26 26" fill="none" xmlns="http://www.w3.org/2000/svg">
<path d="M18.6113 19.5C21.2113 19.5 21.8613 18.0375 21.8613 16.25V9.75C21.8613 7.9625 21.2113 6.5 18.6113 6.5C16.0113 6.5 15.3613 7.9625 15.3613 9.75V16.25C15.3613 18.0375 16.0113 19.5 18.6113 19.5Z" stroke="#AB92F0" stroke-width="1.5" stroke-linecap="round" stroke-linejoin="round"/>
<path d="M7.38867 19.5C4.78867 19.5 4.13867 18.0375 4.13867 16.25V9.75C4.13867 7.9625 4.78867 6.5 7.38867 6.5C9.98867 6.5 10.6387 7.9625 10.6387 9.75V16.25C10.6387 18.0375 9.98867 19.5 7.38867 19.5Z" stroke="#AB92F0" stroke-width="1.5" stroke-linecap="round" stroke-linejoin="round"/>
<path d="M10.6387 13H15.362" stroke="#AB92F0" stroke-width="1.5" stroke-linecap="round" stroke-linejoin="round"/>
<path d="M24.375 15.7084V10.2917" stroke="#AB92F0" stroke-width="1.5" stroke-linecap="round" stroke-linejoin="round"/>
<path d="M1.625 15.7084V10.2917" stroke="#AB92F0" stroke-width="1.5" stroke-linecap="round" stroke-linejoin="round"/>
</svg>
