<svg width="25" height="24" viewBox="0 0 25 24" fill="none" xmlns="http://www.w3.org/2000/svg">
<g clip-path="url(#clip0_4786_118576)">
<path d="M12.2061 13.1425V14.1078C12.2061 14.4399 12.0312 14.7554 11.736 14.9075C11.3946 15.0835 10.9872 15.0173 10.7199 14.7501L10.0882 14.1183L9.49414 14.7124L10.9696 16.1878C11.134 16.3522 11.2246 16.5708 11.2246 16.8034V23.2351C11.2246 23.6574 11.5669 23.9998 11.9893 23.9998H13.263C13.6853 23.9998 14.0277 23.6574 14.0277 23.2351V17.7705C14.0277 17.5379 14.1182 17.3193 14.2827 17.1549L15.5055 15.932L14.9114 15.3379L14.5324 15.7171C14.2651 15.984 13.8585 16.0502 13.517 15.8749C13.2215 15.7232 13.0462 15.4079 13.0462 15.0758V13.1425H12.2061Z" fill="#EAB308"/>
<path d="M23.8882 9.87604C23.8882 7.06877 21.7107 4.76065 18.9559 4.55232C17.9946 1.84323 15.4221 0 12.4998 0C9.57743 0 7.00499 1.84323 6.04361 4.5524C3.28886 4.76073 1.11133 7.06885 1.11133 9.87612C1.11133 11.3084 1.67909 12.6621 2.68458 13.661C2.6441 13.9097 2.62373 14.1613 2.62373 14.4131C2.62373 16.9997 4.72806 19.104 7.31456 19.104H10.1017V16.908L8.52175 15.3281C8.35739 15.1638 8.26672 14.9451 8.26672 14.7125C8.26672 14.4798 8.35731 14.2612 8.52191 14.0968L9.47262 13.146C9.8121 12.8067 10.3643 12.8067 10.7038 13.146L11.0832 13.5255V12.8903C11.0832 12.4103 11.4738 12.0197 11.9538 12.0197H13.2985C13.7785 12.0197 14.169 12.4102 14.169 12.8903V14.4925L14.2958 14.3657C14.4602 14.2013 14.6788 14.1107 14.9113 14.1107C15.1439 14.1106 15.3626 14.2012 15.527 14.3657L16.4778 15.3164C16.4778 15.3164 16.4778 15.3164 16.4779 15.3164C16.8173 15.6559 16.8173 16.2082 16.4779 16.5476L15.1505 17.875V19.104H17.6851C20.2716 19.104 22.3759 16.9997 22.3759 14.4131C22.3759 14.1613 22.3555 13.9097 22.315 13.661C23.3205 12.662 23.8882 11.3084 23.8882 9.87604Z" fill="white"/>
</g>
<defs>
<clipPath id="clip0_4786_118576">
<rect width="24" height="24" fill="white" transform="translate(0.5)"/>
</clipPath>
</defs>
</svg>
