<svg width="25" height="24" viewBox="0 0 25 24" fill="none" xmlns="http://www.w3.org/2000/svg">
<path d="M22.24 12.9089C21.98 12.0489 21.55 11.2989 20.98 10.6889C20.25 9.85888 19.28 9.28888 18.19 9.03888C17.64 6.53888 16.1 4.73888 13.91 4.06888C11.53 3.32888 8.77 4.04888 7.04 5.85888C5.52 7.44888 5.02 9.63888 5.61 11.9689C3.61 12.4589 2.62 14.1289 2.51 15.7189C2.5 15.8289 2.5 15.9289 2.5 16.0289C2.5 17.9089 3.73 20.0189 6.47 20.2189H16.85C18.27 20.2189 19.63 19.6889 20.67 18.7389C22.3 17.3089 22.9 15.0789 22.24 12.9089Z" fill="white"/>
</svg>
