<svg width="40" height="40" viewBox="0 0 40 40" fill="none" xmlns="http://www.w3.org/2000/svg">
<path d="M26.0543 0.25C30.0783 0.25 32.0431 0.252378 34.1585 0.920087C36.445 1.75401 38.246 3.55498 39.0799 5.84147C39.7476 7.95654 39.75 9.92201 39.75 13.9457V26.0543C39.75 30.0783 39.7476 32.0431 39.0799 34.1585C38.246 36.445 36.445 38.246 34.1585 39.0796C32.0431 39.7476 30.0783 39.75 26.0543 39.75H13.9457C9.92162 39.75 7.95651 39.7476 5.84143 39.0796C3.55497 38.246 1.75401 36.445 0.920087 34.1585C0.252378 32.0431 0.25 30.0783 0.25 26.0543V13.9457C0.25 9.92201 0.25238 7.95654 0.920086 5.84148C1.75401 3.55498 3.55498 1.75401 5.84148 0.920086C7.95654 0.25238 9.92168 0.25 13.9457 0.25H26.0543Z" fill="white" stroke="#979797" stroke-width="0.5"/>
<path fill-rule="evenodd" clip-rule="evenodd" d="M19.9695 8.00017C25.3799 8.00017 29.9511 11.5966 31.4328 16.5329H28.0052C26.6665 13.4149 23.5728 11.2312 19.9695 11.2312C15.2251 11.2312 11.3636 15.0164 11.2294 19.7365L11.1644 28.1115C9.20019 25.9757 8 23.1238 8 19.9906C8 13.3683 13.3589 8 19.9695 8V8.00017ZM12.9239 19.7947C13.0808 15.9645 16.3622 12.804 19.9696 12.804C23.577 12.804 26.1378 15.1079 26.9246 18.2216C28.5421 18.2216 30.1756 18.238 31.8113 18.238C31.8951 18.8101 31.939 19.3953 31.939 19.9908C31.939 26.613 26.5801 31.9813 19.9695 31.9813C19.2366 31.9813 18.5192 31.915 17.8227 31.7887V28.4839C18.5096 28.6576 19.2288 28.7502 19.9695 28.7502C24.2874 28.7502 27.8738 25.6149 28.5849 21.4928H26.9864C26.2969 24.7409 23.4174 27.1777 19.9695 27.1777C18.4697 27.1777 17.0775 26.7165 15.9261 25.9282C15.9261 27.7368 16.009 29.4583 16.009 31.3085C14.9176 30.9254 13.8984 30.3882 12.9776 29.7232V28.4734L12.9237 19.7945L12.9239 19.7947ZM19.9696 16.0468C22.1441 16.0468 23.9068 17.8127 23.9068 19.9909C23.9068 22.1692 22.1441 23.935 19.9696 23.935C17.7952 23.935 16.0325 22.1692 16.0325 19.9909C16.0325 17.8127 17.7952 16.0468 19.9696 16.0468V16.0468Z" fill="black"/>
<path d="M19.9695 22.1331C21.1508 22.1331 22.1085 21.1738 22.1085 19.9904C22.1085 18.807 21.1508 17.8477 19.9695 17.8477C18.7882 17.8477 17.8306 18.807 17.8306 19.9904C17.8306 21.1738 18.7882 22.1331 19.9695 22.1331Z" fill="black"/>
</svg>
