<svg width="40" height="40" viewBox="0 0 40 40" fill="none" xmlns="http://www.w3.org/2000/svg">
<path d="M26.0543 0.25C30.0783 0.25 32.0431 0.252378 34.1585 0.920087C36.445 1.75401 38.246 3.55498 39.0799 5.84147C39.7476 7.95654 39.75 9.92201 39.75 13.9457V26.0543C39.75 30.0783 39.7476 32.0431 39.0799 34.1585C38.246 36.445 36.445 38.246 34.1585 39.0796C32.0431 39.7476 30.0783 39.75 26.0543 39.75H13.9457C9.92162 39.75 7.95651 39.7476 5.84143 39.0796C3.55497 38.246 1.75401 36.445 0.920087 34.1585C0.252378 32.0431 0.25 30.0783 0.25 26.0543V13.9457C0.25 9.92201 0.25238 7.95654 0.920086 5.84148C1.75401 3.55498 3.55498 1.75401 5.84148 0.920086C7.95654 0.25238 9.92168 0.25 13.9457 0.25H26.0543Z" fill="white" stroke="#979797" stroke-width="0.5"/>
<path fill-rule="evenodd" clip-rule="evenodd" d="M20.002 8.00408C25.4123 8.00408 29.9836 11.6005 31.4653 16.5368H28.0377C26.699 13.4188 23.6052 11.2351 20.002 11.2351C15.2576 11.2351 11.3961 15.0203 11.2619 19.7404L11.1968 28.1154C9.23266 25.9796 8.03247 23.1277 8.03247 19.9945C8.03247 13.3722 13.3914 8.00408 20.002 8.00408ZM12.9563 19.7986C13.1132 15.9684 16.3946 12.8079 20.0021 12.8079C23.6094 12.8079 26.1703 15.1118 26.957 18.2255C28.5745 18.2255 30.208 18.2419 31.8438 18.2419C31.9275 18.814 31.9714 19.3992 31.9714 19.9947C31.9714 26.6169 26.6125 31.9852 20.002 31.9852C19.269 31.9852 18.5517 31.9189 17.8552 31.7926V28.4878C18.542 28.6615 19.2613 28.7541 20.002 28.7541C24.3199 28.7541 27.9063 25.6188 28.6174 21.4967H27.0189C26.3293 24.7448 23.4499 27.1816 20.002 27.1816C18.5022 27.1816 17.11 26.7204 15.9586 25.9321C15.9586 27.7407 16.0415 29.4622 16.0415 31.3124C14.9501 30.9293 13.9309 30.3922 13.01 29.7271V28.4773L12.9563 19.7986ZM20.0021 16.0508C22.1765 16.0508 23.9393 17.8166 23.9393 19.9948C23.9393 22.1731 22.1765 23.9389 20.0021 23.9389C17.8277 23.9389 16.065 22.1731 16.065 19.9948C16.065 17.8166 17.8277 16.0508 20.0021 16.0508Z" fill="url(#paint0_linear_8017_141156)"/>
<path d="M20.002 22.137C21.1833 22.137 22.141 21.1777 22.141 19.9943C22.141 18.8109 21.1833 17.8516 20.002 17.8516C18.8207 17.8516 17.863 18.8109 17.863 19.9943C17.863 21.1777 18.8207 22.137 20.002 22.137Z" fill="url(#paint1_linear_8017_141156)"/>
<defs>
<linearGradient id="paint0_linear_8017_141156" x1="20.002" y1="8.00391" x2="20.002" y2="31.9852" gradientUnits="userSpaceOnUse">
<stop stop-color="#6431FF"/>
<stop offset="0.28125" stop-color="#2695FF"/>
<stop offset="0.46875" stop-color="#21A513"/>
<stop offset="0.666667" stop-color="#FFDA44"/>
<stop offset="1" stop-color="#D80027"/>
</linearGradient>
<linearGradient id="paint1_linear_8017_141156" x1="20.002" y1="17.8516" x2="20.002" y2="22.137" gradientUnits="userSpaceOnUse">
<stop stop-color="#6431FF"/>
<stop offset="0.28125" stop-color="#2695FF"/>
<stop offset="0.46875" stop-color="#21A513"/>
<stop offset="0.666667" stop-color="#FFDA44"/>
<stop offset="1" stop-color="#D80027"/>
</linearGradient>
</defs>
</svg>
