<svg width="40" height="40" viewBox="0 0 40 40" fill="none" xmlns="http://www.w3.org/2000/svg">
<path fill-rule="evenodd" clip-rule="evenodd" d="M26.0543 0C30.07 0 32.0773 0 34.239 0.683333C36.599 1.54233 38.4577 3.401 39.3167 5.761C40 7.92233 40 9.93033 40 13.9457V26.0543C40 30.07 40 32.0773 39.3167 34.239C38.4577 36.599 36.599 38.4577 34.239 39.3163C32.0773 40 30.07 40 26.0543 40H13.9457C9.93 40 7.92233 40 5.761 39.3163C3.401 38.4577 1.54233 36.599 0.683333 34.239C0 32.0773 0 30.07 0 26.0543V13.9457C0 9.93033 0 7.92233 0.683333 5.761C1.54233 3.401 3.401 1.54233 5.761 0.683333C7.92233 0 9.93 0 13.9457 0H26.0543Z" fill="black"/>
<path d="M20.002 22.137C21.1833 22.137 22.141 21.1777 22.141 19.9943C22.141 18.8109 21.1833 17.8516 20.002 17.8516C18.8207 17.8516 17.863 18.8109 17.863 19.9943C17.863 21.1777 18.8207 22.137 20.002 22.137Z" fill="white"/>
<path fill-rule="evenodd" clip-rule="evenodd" d="M20.002 8.00408C25.4123 8.00408 29.9836 11.6005 31.4653 16.5368H28.0377C26.699 13.4188 23.6052 11.2351 20.002 11.2351C15.2576 11.2351 11.3961 15.0203 11.2619 19.7404L11.1968 28.1154C9.23266 25.9796 8.03247 23.1277 8.03247 19.9945C8.03247 13.3722 13.3914 8.00391 20.002 8.00391V8.00408ZM12.9563 19.7986C13.1132 15.9684 16.3946 12.8079 20.0021 12.8079C23.6094 12.8079 26.1703 15.1118 26.957 18.2255C28.5745 18.2255 30.208 18.2419 31.8438 18.2419C31.9275 18.814 31.9714 19.3992 31.9714 19.9947C31.9714 26.6169 26.6125 31.9852 20.002 31.9852C19.269 31.9852 18.5517 31.9189 17.8552 31.7926V28.4878C18.542 28.6615 19.2613 28.7541 20.002 28.7541C24.3199 28.7541 27.9063 25.6188 28.6174 21.4967H27.0189C26.3293 24.7448 23.4499 27.1816 20.002 27.1816C18.5022 27.1816 17.11 26.7204 15.9586 25.9321C15.9586 27.7407 16.0415 29.4622 16.0415 31.3124C14.9501 30.9293 13.9309 30.3922 13.01 29.7271V28.4773L12.9562 19.7984L12.9563 19.7986ZM20.0021 16.0508C22.1765 16.0508 23.9393 17.8166 23.9393 19.9948C23.9393 22.1731 22.1765 23.9389 20.0021 23.9389C17.8277 23.9389 16.065 22.1731 16.065 19.9948C16.065 17.8166 17.8277 16.0508 20.0021 16.0508V16.0508Z" fill="white"/>
</svg>
