<svg width="40" height="40" viewBox="0 0 40 40" fill="none" xmlns="http://www.w3.org/2000/svg">
<path d="M26.0543 0.25C30.0783 0.25 32.0431 0.252378 34.1585 0.920087C36.445 1.75401 38.246 3.55498 39.0799 5.84147C39.7476 7.95654 39.75 9.92201 39.75 13.9457V26.0543C39.75 30.0783 39.7476 32.0431 39.0799 34.1585C38.246 36.445 36.445 38.246 34.1585 39.0796C32.0431 39.7476 30.0783 39.75 26.0543 39.75H13.9457C9.92162 39.75 7.95651 39.7476 5.84143 39.0796C3.55497 38.246 1.75401 36.445 0.920087 34.1585C0.252378 32.0431 0.25 30.0783 0.25 26.0543V13.9457C0.25 9.92201 0.25238 7.95654 0.920086 5.84148C1.75401 3.55498 3.55498 1.75401 5.84148 0.920086C7.95654 0.25238 9.92168 0.25 13.9457 0.25H26.0543Z" fill="white" stroke="#979797" stroke-width="0.5"/>
<path fill-rule="evenodd" clip-rule="evenodd" d="M19.9788 8.00017C25.3934 8.00017 29.9682 11.5994 31.4511 16.5395H28.0208C26.6811 13.4191 23.5849 11.2337 19.9788 11.2337C15.2307 11.2337 11.3663 15.0219 11.2319 19.7456L11.1668 28.1272C9.20112 25.9897 8 23.1356 8 19.9999C8 13.3725 13.3631 8 19.9788 8V8.00017ZM12.9277 19.8039C13.0847 15.9707 16.3687 12.8077 19.979 12.8077C23.5891 12.8077 26.1519 15.1135 26.9393 18.2295C28.558 18.2295 30.1928 18.2459 31.8298 18.2459C31.9136 18.8185 31.9576 19.4041 31.9576 20.0001C31.9576 26.6275 26.5945 32 19.9788 32C19.2453 32 18.5274 31.9336 17.8304 31.8072V28.4998C18.5177 28.6737 19.2375 28.7663 19.9788 28.7663C24.3001 28.7663 27.8893 25.6286 28.601 21.5033H27.0011C26.3111 24.754 23.4294 27.1926 19.9788 27.1926C18.4779 27.1926 17.0846 26.7311 15.9323 25.9421C15.9323 27.7522 16.0153 29.475 16.0153 31.3267C14.923 30.9432 13.903 30.4057 12.9814 29.7401V28.4893L12.9275 19.8037L12.9277 19.8039ZM19.979 16.0531C22.1551 16.0531 23.9192 17.8203 23.9192 20.0003C23.9192 22.1802 22.1551 23.9474 19.979 23.9474C17.8028 23.9474 16.0388 22.1802 16.0388 20.0003C16.0388 17.8203 17.8028 16.0531 19.979 16.0531V16.0531Z" fill="#EBD75C"/>
<path d="M19.9795 22.1443C21.1617 22.1443 22.1201 21.1842 22.1201 19.9999C22.1201 18.8156 21.1617 17.8555 19.9795 17.8555C18.7973 17.8555 17.8389 18.8156 17.8389 19.9999C17.8389 21.1842 18.7973 22.1443 19.9795 22.1443Z" fill="#0188A5"/>
</svg>
