<svg width="270" height="162" viewBox="0 0 270 162" fill="none" xmlns="http://www.w3.org/2000/svg">
<g opacity="0.1" clip-path="url(#clip0_4763_115436)">
<path d="M76.4495 183.128C81.5092 187.225 88.3812 186.296 92.2989 181.458C96.2166 176.62 95.5865 168.626 90.6368 165.608C85.6871 162.59 78.3964 161.443 74.7875 167.278C71.1785 173.112 71.3899 179.031 76.4495 183.128Z" fill="#E0436B"/>
<path d="M8.34411 19.1153C11.6668 21.806 16.1798 21.196 18.7526 18.0188C21.3254 14.8416 20.9116 9.59152 17.6611 7.60976C14.4106 5.62799 9.62266 4.87449 7.2526 8.70625C4.88254 12.538 5.02138 16.4246 8.34411 19.1153Z" fill="#E0436B"/>
<path d="M210.51 34.6774C218.892 41.4653 230.277 39.9263 236.768 31.9112C243.258 23.8961 242.214 10.6515 234.014 5.65208C225.814 0.652623 213.735 -1.24828 207.756 8.41822C201.777 18.0847 202.127 27.8895 210.51 34.6774Z" fill="#7252A4"/>
<path d="M86.3065 67.0403C89.6293 69.731 94.1422 69.121 96.715 65.9438C99.2879 62.7666 98.8741 57.5165 95.6235 55.5348C92.373 53.553 87.5851 52.7995 85.215 56.6313C82.8449 60.463 82.9838 64.3496 86.3065 67.0403Z" fill="#7252A4"/>
<path d="M101.163 67.7656C102.674 68.9886 104.725 68.7113 105.894 67.2672C107.064 65.823 106.876 63.4366 105.398 62.5358C103.921 61.635 101.744 61.2925 100.667 63.0342C99.5898 64.7759 99.6529 66.5425 101.163 67.7656Z" fill="#7252A4"/>
<path d="M239.779 132.122C244.379 136.335 250.933 135.41 255.616 130.48C260.299 125.549 259.36 117.836 253.929 114.647C248.499 111.459 242.51 111.573 238.092 116.289C233.674 121.006 235.178 127.908 239.779 132.122Z" fill="#F0C933"/>
<path d="M97.0633 147.327C98.574 148.71 100.726 148.407 102.264 146.788C103.801 145.169 103.493 142.636 101.71 141.589C99.9265 140.542 97.9602 140.579 96.5095 142.128C95.0587 143.677 95.5527 145.943 97.0633 147.327Z" fill="#F0C933"/>
<path d="M251.47 142.096C252.98 143.479 255.132 143.175 256.67 141.556C258.208 139.938 257.899 137.405 256.116 136.358C254.333 135.311 252.366 135.348 250.916 136.897C249.465 138.446 249.959 140.712 251.47 142.096Z" fill="#F0C933"/>
<path d="M102.786 138.124C103.542 138.816 104.618 138.664 105.386 137.855C106.155 137.045 106.001 135.779 105.11 135.256C104.218 134.732 103.235 134.751 102.509 135.525C101.784 136.299 102.031 137.433 102.786 138.124Z" fill="#F0C933"/>
<path d="M147.641 94.4903C152.242 98.7036 158.796 97.7789 163.479 92.8486C168.161 87.9182 167.222 80.2043 161.792 77.0161C156.361 73.8279 150.373 73.9413 145.955 78.6578C141.536 83.3744 143.041 90.2771 147.641 94.4903Z" fill="#453264"/>
<path d="M21.4634 83.7081C22.974 85.0915 25.126 84.7879 26.6637 83.169C28.2013 81.5501 27.893 79.0171 26.1098 77.9703C24.3266 76.9234 22.3602 76.9606 20.9095 78.5093C19.4587 80.0581 19.9527 82.3246 21.4634 83.7081Z" fill="#453264"/>
<path d="M233.413 168.589C234.924 169.973 237.076 169.669 238.614 168.05C240.151 166.431 239.843 163.898 238.06 162.851C236.277 161.805 234.31 161.842 232.859 163.391C231.409 164.939 231.903 167.206 233.413 168.589Z" fill="#453264"/>
<path d="M145.033 99.9018C143.994 101.667 144.738 103.709 146.642 104.876C148.545 106.044 150.958 105.216 151.612 103.254C152.265 101.292 151.82 99.3762 150.003 98.2791C148.186 97.1821 146.072 98.1365 145.033 99.9018Z" fill="#453264"/>
<path d="M260.198 64.6216C264.798 68.8348 271.352 67.9101 276.035 62.9798C280.718 58.0495 279.779 50.3355 274.348 47.1474C268.917 43.9592 262.929 44.0725 258.511 48.7891C254.092 53.5057 255.597 60.4084 260.198 64.6216Z" fill="#0F90D1"/>
<path d="M251.599 62.5181C266.193 74.3364 266.202 93.7335 256.625 110.342C247.049 126.951 230.795 142.24 219.456 156.243C208.117 170.245 187.161 173.844 171.632 161.269C156.103 148.694 153.685 126.212 166.605 113.445C179.526 100.677 189.952 81.426 203.775 67.5447C217.597 53.6634 237.004 50.6999 251.599 62.5181Z" fill="#0F90D1"/>
<path d="M254.84 236.639C271.869 252.234 296.128 248.812 313.461 230.562C330.795 212.313 327.319 183.759 307.217 171.958C287.116 160.157 264.95 160.577 248.596 178.035C232.242 195.494 237.811 221.044 254.84 236.639Z" fill="#C4C8D4"/>
<path d="M242.591 42.2657C245.213 43.7019 248.46 43.8266 250.386 41.4487C252.312 39.0708 251.944 35.5812 249.565 33.6545C247.185 31.7278 243.873 32.6452 241.77 34.4715C239.667 36.2978 239.969 40.8296 242.591 42.2657Z" fill="#EFF3F0"/>
<path d="M196.545 12.8491C198.134 13.7195 200.102 13.7951 201.269 12.3539C202.436 10.9128 202.213 8.79786 200.771 7.63016C199.329 6.46247 197.321 7.0185 196.047 8.12533C194.772 9.23217 194.955 11.9787 196.545 12.8491Z" fill="#EFF3F0"/>
<path d="M181.397 -42.5808C195.991 -30.7626 198.241 -9.3509 186.423 5.24344C174.605 19.8378 159.003 35.619 149.254 51.1436C139.505 66.6682 114.588 69.752 101.43 56.1702C88.2711 42.5883 83.2238 24.621 96.4031 8.3459C109.582 -7.9292 120.622 -21.562 133.572 -37.5543C146.523 -53.5466 166.802 -54.3991 181.397 -42.5808Z" fill="#6759AE"/>
</g>
<defs>
<clipPath id="clip0_4763_115436">
<rect width="270" height="202.5" fill="white"/>
</clipPath>
</defs>
</svg>
