<svg width="121" height="190" viewBox="0 0 121 190" fill="none" xmlns="http://www.w3.org/2000/svg">
<path opacity="0.5" d="M21.3333 95H1V144.5M21.3333 95H60.9833M21.3333 95L41.6667 111.5M21.3333 95V126.35M21.3333 194H1V177.5M21.3333 194L40.65 178.325M21.3333 194V161M21.3333 194L1 177.5M21.3333 194H60.9833M40.65 178.325H81.3167M40.65 178.325L21.3333 161M81.3167 178.325L100.633 194M81.3167 178.325L60.9833 194M81.3167 178.325L82.3333 146.15M81.3167 178.325L60.9833 161.825M100.633 194H123V175.85M100.633 194L123 175.85M100.633 194V161M100.633 194H60.9833M123 175.85V147.8M100.633 161L82.3333 146.15M100.633 161L123 147.8M82.3333 146.15L101.65 130.475M82.3333 146.15V112.325M82.3333 146.15L60.9833 161.825M101.65 130.475L123 147.8M101.65 130.475V96.65M101.65 95H123V111.5M101.65 95V96.65M101.65 95H60.9833M101.65 95L123 111.5M123 147.8V111.5M82.3333 112.325L101.65 96.65M82.3333 112.325L60.9833 95M82.3333 112.325L62 128M82.3333 112.325L41.6667 111.5M62 128L41.6667 111.5M62 128L60.9833 161.825M41.6667 111.5L21.3333 126.35M41.6667 111.5L40.65 145.325M21.3333 126.35V128M1 144.5L21.3333 128M1 144.5L21.3333 161M1 144.5V177.5M21.3333 128V161M21.3333 161L40.65 145.325M21.3333 161L60.9833 161.825M40.65 145.325L60.9833 161.825" stroke="#2FA2B9"/>
<path opacity="0.5" d="M21.3333 -4H1V45.5M21.3333 -4H60.9833M21.3333 -4L41.6667 12.5M21.3333 -4V27.35M21.3333 95H1V78.5M21.3333 95L40.65 79.325M21.3333 95V62M21.3333 95L1 78.5M21.3333 95H60.9833M40.65 79.325H81.3167M40.65 79.325L21.3333 62M81.3167 79.325L100.633 95M81.3167 79.325L60.9833 95M81.3167 79.325L82.3333 47.15M81.3167 79.325L60.9833 62.825M100.633 95H123V76.85M100.633 95L123 76.85M100.633 95V62M100.633 95H60.9833M123 76.85V48.8M100.633 62L82.3333 47.15M100.633 62L123 48.8M82.3333 47.15L101.65 31.475M82.3333 47.15V13.325M82.3333 47.15L60.9833 62.825M101.65 31.475L123 48.8M101.65 31.475V-2.35M101.65 -4H123V12.5M101.65 -4V-2.35M101.65 -4H60.9833M101.65 -4L123 12.5M123 48.8V12.5M82.3333 13.325L101.65 -2.35M82.3333 13.325L60.9833 -4M82.3333 13.325L62 29M82.3333 13.325L41.6667 12.5M62 29L41.6667 12.5M62 29L60.9833 62.825M41.6667 12.5L21.3333 27.35M41.6667 12.5L40.65 46.325M21.3333 27.35V29M1 45.5L21.3333 29M1 45.5L21.3333 62M1 45.5V78.5M21.3333 29V62M21.3333 62L40.65 46.325M21.3333 62L60.9833 62.825M40.65 46.325L60.9833 62.825" stroke="#2FA2B9"/>
</svg>
