<svg width="270" height="162" viewBox="0 0 270 162" fill="none" xmlns="http://www.w3.org/2000/svg">
<g opacity="0.1" clip-path="url(#clip0_4733_113990)">
<path d="M76.4495 183.128C81.5091 187.225 88.3811 186.296 92.2988 181.458C96.2165 176.62 95.5864 168.626 90.6367 165.608C85.687 162.59 78.3964 161.443 74.7874 167.278C71.1784 173.112 71.3899 179.031 76.4495 183.128Z" fill="#E0436B"/>
<path d="M8.34399 19.1153C11.6667 21.806 16.1797 21.1959 18.7525 18.0188C21.3253 14.8416 20.9115 9.59151 17.661 7.60974C14.4104 5.62797 9.62253 4.87447 7.25247 8.70623C4.88242 12.538 5.02126 16.4246 8.34399 19.1153Z" fill="#F0C933"/>
<path d="M210.51 34.6774C218.892 41.4653 230.277 39.9263 236.768 31.9112C243.258 23.8961 242.214 10.6515 234.014 5.65208C225.814 0.652623 213.735 -1.24828 207.756 8.41822C201.777 18.0847 202.127 27.8895 210.51 34.6774Z" fill="#F0C933"/>
<path d="M86.3065 67.0403C89.6293 69.731 94.1422 69.1209 96.715 65.9438C99.2879 62.7666 98.8741 57.5165 95.6235 55.5347C92.373 53.553 87.5851 52.7995 85.215 56.6312C82.8449 60.463 82.9838 64.3496 86.3065 67.0403Z" fill="#7252A4"/>
<path d="M101.163 67.7656C102.673 68.9886 104.725 68.7113 105.894 67.2671C107.064 65.823 106.876 63.4366 105.398 62.5358C103.921 61.635 101.744 61.2925 100.667 63.0342C99.5897 64.7759 99.6528 66.5425 101.163 67.7656Z" fill="#7252A4"/>
<path d="M239.779 132.122C244.379 136.335 250.933 135.41 255.616 130.48C260.299 125.549 259.36 117.835 253.929 114.647C248.499 111.459 242.51 111.572 238.092 116.289C233.674 121.006 235.178 127.908 239.779 132.122Z" fill="#F0C933"/>
<path d="M97.0633 147.327C98.5739 148.71 100.726 148.407 102.264 146.788C103.801 145.169 103.493 142.636 101.71 141.589C99.9265 140.542 97.9602 140.579 96.5094 142.128C95.0586 143.677 95.5526 145.943 97.0633 147.327Z" fill="#F0C933"/>
<path d="M251.47 142.096C252.98 143.479 255.132 143.175 256.67 141.556C258.207 139.938 257.899 137.405 256.116 136.358C254.333 135.311 252.366 135.348 250.916 136.897C249.465 138.446 249.959 140.712 251.47 142.096Z" fill="#F0C933"/>
<path d="M102.786 138.124C103.542 138.816 104.618 138.664 105.386 137.855C106.155 137.045 106.001 135.779 105.109 135.255C104.218 134.732 103.235 134.751 102.509 135.525C101.784 136.299 102.031 137.433 102.786 138.124Z" fill="#F0C933"/>
<path d="M147.641 94.4903C152.242 98.7035 158.796 97.7789 163.479 92.8486C168.161 87.9182 167.222 80.2043 161.792 77.0161C156.361 73.8279 150.373 73.9412 145.954 78.6578C141.536 83.3744 143.041 90.2771 147.641 94.4903Z" fill="#F0C933"/>
<path d="M21.4632 83.708C22.9739 85.0915 25.1259 84.7879 26.6635 83.169C28.2012 81.5501 27.8928 79.0171 26.1096 77.9702C24.3264 76.9234 22.3601 76.9606 20.9094 78.5093C19.4586 80.0581 19.9526 82.3246 21.4632 83.708Z" fill="#F0C933"/>
<path d="M233.413 168.589C234.924 169.973 237.076 169.669 238.614 168.05C240.151 166.431 239.843 163.898 238.06 162.851C236.277 161.805 234.31 161.842 232.859 163.391C231.409 164.939 231.903 167.206 233.413 168.589Z" fill="#453264"/>
<path d="M145.033 99.9018C143.994 101.667 144.738 103.709 146.641 104.876C148.545 106.044 150.958 105.216 151.611 103.254C152.265 101.292 151.819 99.3762 150.003 98.2791C148.186 97.1821 146.072 98.1365 145.033 99.9018Z" fill="#F0C933"/>
<path d="M260.198 64.6216C264.798 68.8348 271.352 67.9101 276.035 62.9798C280.718 58.0495 279.779 50.3355 274.348 47.1473C268.917 43.9592 262.929 44.0725 258.511 48.7891C254.092 53.5057 255.597 60.4083 260.198 64.6216Z" fill="#0F90D1"/>
<path d="M234.599 87.5181C249.193 99.3363 249.202 118.733 239.625 135.342C230.049 151.951 213.795 167.24 202.456 181.242C191.117 195.245 170.161 198.844 154.632 186.269C139.103 173.694 136.685 151.212 149.605 138.445C162.526 125.677 172.952 106.426 186.775 92.5446C200.597 78.6633 220.005 75.6998 234.599 87.5181Z" fill="#EFF3F0"/>
<path d="M254.84 236.639C271.869 252.234 296.128 248.812 313.461 230.562C330.795 212.313 327.319 183.759 307.217 171.958C287.116 160.157 264.95 160.577 248.596 178.035C232.242 195.494 237.811 221.044 254.84 236.639Z" fill="#C4C8D4"/>
<path d="M242.591 42.2657C245.213 43.7019 248.46 43.8266 250.386 41.4487C252.312 39.0708 251.944 35.5812 249.565 33.6545C247.185 31.7278 243.873 32.6452 241.77 34.4715C239.667 36.2978 239.969 40.8296 242.591 42.2657Z" fill="#EFF3F0"/>
<path d="M196.544 12.8491C198.134 13.7195 200.101 13.7951 201.268 12.3539C202.436 10.9127 202.213 8.79784 200.771 7.63014C199.329 6.46244 197.321 7.01848 196.047 8.12531C194.772 9.23215 194.955 11.9787 196.544 12.8491Z" fill="#EFF3F0"/>
<path d="M181.397 -42.5808C195.991 -30.7626 198.241 -9.35092 186.423 5.24342C174.605 19.8378 159.003 35.619 149.254 51.1436C139.505 66.6682 114.588 69.752 101.43 56.1701C88.271 42.5883 83.2237 24.621 96.403 8.34589C109.582 -7.92921 120.622 -21.562 133.572 -37.5543C146.523 -53.5466 166.802 -54.3991 181.397 -42.5808Z" fill="#EFF3F0"/>
</g>
<defs>
<clipPath id="clip0_4733_113990">
<rect width="270" height="202.5" fill="white"/>
</clipPath>
</defs>
</svg>
