<svg width="273" height="300" viewBox="0 0 273 300" fill="none" xmlns="http://www.w3.org/2000/svg">
<g clip-path="url(#clip0_8790_119173)">
<path d="M174.455 183.8C173.797 183.999 173.158 184.223 172.536 184.479C172.202 184.614 171.844 184.678 171.484 184.666C171.124 184.654 170.771 184.567 170.446 184.41C170.122 184.253 169.835 184.03 169.602 183.754C169.37 183.479 169.198 183.159 169.097 182.813L158.829 148.301L41.8795 183.117L69.7608 276.84C70.736 280.115 72.9724 282.869 75.9782 284.496C78.9839 286.122 82.5127 286.488 85.7883 285.513L178.042 258.046C181.317 257.069 184.071 254.831 185.697 251.825C187.323 248.818 187.689 245.289 186.714 242.013L180.123 219.855C180.019 219.51 179.988 219.147 180.033 218.79C180.077 218.432 180.196 218.088 180.381 217.779C180.567 217.47 180.815 217.204 181.109 216.997C181.404 216.789 181.739 216.646 182.092 216.576C182.759 216.452 183.418 216.293 184.068 216.099C193.751 213.208 199.443 203.649 196.794 194.724C194.144 185.799 184.137 180.919 174.455 183.8Z" fill="#008AA7"/>
<g style="mix-blend-mode:multiply" opacity="0.25">
<path d="M143.176 271.825C143.176 271.825 92.0087 286.191 80.74 277.85C71.245 270.838 70.8077 263.609 57.3302 235.09C57.1802 259.667 70.5872 300.001 70.5872 300.001L143.176 271.825Z" fill="#008AA7"/>
</g>
<g style="mix-blend-mode:multiply" opacity="0.25">
<path d="M85.4695 174.779C85.4695 174.779 90.463 198.691 108.56 193.304C126.656 187.918 117.752 165.162 117.752 165.162L85.4695 174.779Z" fill="#008AA7"/>
</g>
<path d="M127.272 42.2324L22.6652 73.3649C19.3901 74.3411 16.6367 76.5781 15.0106 79.5839C13.3845 82.5898 13.0187 86.1184 13.9937 89.3939L41.8802 183.118L82.0135 171.193C82.3304 171.097 82.6638 171.069 82.9922 171.11C83.3207 171.15 83.637 171.259 83.921 171.429C84.2049 171.6 84.4502 171.827 84.6412 172.097C84.8322 172.368 84.9646 172.675 85.03 172.999C85.148 173.599 85.298 174.202 85.48 174.806C88.3705 184.489 97.93 190.188 106.844 187.531C115.757 184.875 120.659 174.882 117.776 165.188C117.596 164.588 117.393 163.999 117.162 163.428C117.042 163.121 116.987 162.792 117 162.462C117.013 162.133 117.095 161.81 117.24 161.513C117.385 161.217 117.591 160.954 117.843 160.742C118.095 160.529 118.389 160.371 118.705 160.278L158.835 148.327L127.272 42.2324Z" fill="#E0F7FE"/>
<g style="mix-blend-mode:multiply" opacity="0.52">
<path d="M28.5475 145.139C28.5475 145.139 14.2 93.9551 22.5205 82.6826C29.5337 73.1839 41.944 67.6256 56.602 63.2576C32.0335 63.1076 0.376709 72.5261 0.376709 72.5261L28.5475 145.139Z" fill="#E0F7FE"/>
</g>
<path d="M127.274 42.2326L136.258 72.4328C136.403 72.9138 136.444 73.4204 136.378 73.9185C136.311 74.4166 136.139 74.8947 135.872 75.3206C135.606 75.7466 135.251 76.1105 134.832 76.3879C134.413 76.6654 133.939 76.8499 133.443 76.9291C132.506 77.0685 131.58 77.2738 130.672 77.5433C120.992 80.4346 115.297 89.9933 117.95 98.9183C120.604 107.843 130.596 112.735 140.282 109.854C141.191 109.585 142.079 109.249 142.938 108.849C143.396 108.647 143.892 108.546 144.393 108.551C144.893 108.556 145.387 108.667 145.841 108.878C146.295 109.088 146.699 109.393 147.026 109.772C147.353 110.151 147.596 110.595 147.738 111.075L158.812 148.301L197.012 136.924C198.107 136.589 199.026 135.836 199.567 134.827C200.109 133.818 200.229 132.636 199.903 131.539L199.871 131.43C196.98 121.744 201.887 111.74 210.803 109.087C219.72 106.434 229.287 112.13 232.167 121.816L232.199 121.921C232.527 123.021 233.278 123.947 234.287 124.495C235.296 125.042 236.482 125.167 237.583 124.841L263.416 117.15C266.691 116.174 269.444 113.937 271.071 110.931C272.697 107.925 273.062 104.397 272.087 101.121L247.881 19.7521C247.399 18.1304 246.601 16.6196 245.535 15.3061C244.468 13.9925 243.154 12.9018 241.666 12.0964C240.178 11.291 238.546 10.7865 236.863 10.6118C235.18 10.4371 233.479 10.5957 231.857 11.0783L127.274 42.2326Z" fill="#F5E684"/>
<g style="mix-blend-mode:multiply" opacity="0.19">
<path d="M130.671 77.5396C130.671 77.5396 120.641 82.8451 124.296 95.1548C127.951 107.465 136.506 109.066 142.132 110.071C132.015 118.883 102.122 106.753 102.122 106.753L113.416 76.3613L130.671 77.5396Z" fill="#F5E684"/>
</g>
<g style="mix-blend-mode:multiply" opacity="0.19">
<path d="M264.702 76.2053C264.702 76.2053 248.736 25.5 235.611 20.6115C222.227 15.8934 207.708 15.4502 194.061 19.3433C214.558 5.775 248.618 0 248.618 0L264.702 76.2053Z" fill="#F5E684"/>
</g>
<path d="M55.7672 120.281C59.1832 120.281 61.9524 117.511 61.9524 114.094C61.9524 110.676 59.1832 107.906 55.7672 107.906C52.3511 107.906 49.5819 110.676 49.5819 114.094C49.5819 117.511 52.3511 120.281 55.7672 120.281Z" fill="#004351"/>
<path d="M101.649 106.627C105.065 106.627 107.834 103.857 107.834 100.439C107.834 97.0222 105.065 94.252 101.649 94.252C98.2325 94.252 95.4633 97.0222 95.4633 100.439C95.4633 103.857 98.2325 106.627 101.649 106.627Z" fill="#004351"/>
<path d="M75.3242 121.744C75.3242 121.744 75.4975 116.926 81.1742 115.238C86.851 113.551 89.4617 117.541 89.4617 117.541" stroke="#004351" stroke-width="4.337" stroke-miterlimit="10" stroke-linecap="round"/>
<path d="M94.249 227.939C97.665 227.939 100.434 225.169 100.434 221.752C100.434 218.335 97.665 215.564 94.249 215.564C90.833 215.564 88.0637 218.335 88.0637 221.752C88.0637 225.169 90.833 227.939 94.249 227.939Z" fill="#004351"/>
<path d="M140.13 214.281C143.546 214.281 146.315 211.511 146.315 208.094C146.315 204.676 143.546 201.906 140.13 201.906C136.714 201.906 133.945 204.676 133.945 208.094C133.945 211.511 136.714 214.281 140.13 214.281Z" fill="#004351"/>
<path d="M180.463 76.9762C181.438 80.2507 179.018 81.8302 175.738 82.806C172.458 83.7817 169.577 83.7817 168.601 80.5072C168.354 79.7241 168.265 78.8996 168.34 78.0819C168.415 77.2642 168.652 76.4695 169.037 75.7442C169.422 75.0189 169.947 74.3775 170.583 73.8573C171.218 73.3371 171.951 72.9485 172.738 72.7143C173.525 72.48 174.351 72.4047 175.167 72.4927C175.983 72.5807 176.774 72.8304 177.493 73.227C178.212 73.6237 178.845 74.1595 179.355 74.8031C179.865 75.4468 180.241 76.1855 180.463 76.9762Z" fill="#004351"/>
<path d="M226.34 63.318C227.315 66.5963 224.895 68.172 221.615 69.1478C218.336 70.1235 215.454 70.1235 214.478 66.849C214.231 66.0659 214.143 65.2414 214.218 64.4237C214.293 63.606 214.529 62.8113 214.914 62.086C215.299 61.3607 215.825 60.7193 216.46 60.1991C217.096 59.6789 217.828 59.2903 218.615 59.0561C219.402 58.8218 220.228 58.7465 221.044 58.8345C221.861 58.9225 222.652 59.1721 223.371 59.5688C224.09 59.9655 224.722 60.5013 225.232 61.1449C225.742 61.7886 226.119 62.5273 226.34 63.318Z" fill="#004351"/>
<path d="M211.282 81.9261C211.057 85.0454 207.268 84.7124 201.779 86.3466C196.291 87.9809 193.668 90.6839 191.406 87.8466C188.516 84.2286 193.477 78.5181 198.965 76.8846C204.452 75.2511 211.618 77.3294 211.282 81.9261Z" fill="#FFA0D2"/>
<path d="M130.791 220.702L108.612 227.302C106.504 227.929 105.303 230.146 105.931 232.255L105.931 232.257C106.559 234.366 108.776 235.566 110.884 234.939L133.064 228.339C135.172 227.712 136.372 225.495 135.745 223.387L135.744 223.384C135.117 221.276 132.9 220.075 130.791 220.702Z" fill="white"/>
<path d="M230.502 204.422L236.669 215.589" stroke="#004351" stroke-width="5.783" stroke-miterlimit="10" stroke-linecap="round"/>
<path d="M243.607 166.119L255.165 160.723" stroke="#004351" stroke-width="5.783" stroke-miterlimit="10" stroke-linecap="round"/>
<path d="M242.888 186.781L257.791 191.682" stroke="#004351" stroke-width="5.783" stroke-miterlimit="10" stroke-linecap="round"/>
</g>
<defs>
<clipPath id="clip0_8790_119173">
<rect width="272.246" height="300" fill="white" transform="translate(0.376709)"/>
</clipPath>
</defs>
</svg>
