<svg width="24" height="24" viewBox="0 0 24 24" fill="none" xmlns="http://www.w3.org/2000/svg">
<path d="M22.6249 8.46563L15.5329 1.3725C15.1376 0.976875 14.613 0.75 14.0933 0.75C13.7164 0.75 13.3796 0.868875 13.1175 1.09425L1.41302 11.1637C1.21383 11.333 1.05213 11.5418 0.938227 11.7771C0.824327 12.0123 0.760736 12.2687 0.751517 12.5299C0.730517 13.0901 0.947267 13.6271 1.36202 14.0422L9.95739 22.6384C10.3523 23.0329 10.8634 23.25 11.3966 23.25C11.67 23.2496 11.9401 23.1902 12.1884 23.0758C12.4367 22.9613 12.6573 22.7946 12.8351 22.587L22.9031 10.8814C23.4578 10.2371 23.3355 9.17625 22.6249 8.46563ZM1.43289 12.5554C1.43884 12.388 1.47967 12.2238 1.55277 12.0731C1.62587 11.9225 1.72963 11.7887 1.85739 11.6805L13.5626 1.61137C13.6984 1.494 13.8821 1.43175 14.0933 1.43175C14.4285 1.43175 14.7866 1.59 15.051 1.85475L15.6656 2.469L2.61414 14.3299L1.84427 13.5596C1.56489 13.2803 1.41864 12.9236 1.43289 12.5554ZM22.386 10.437L12.3188 22.1426C12.2054 22.2766 12.0642 22.3841 11.9049 22.4576C11.7456 22.5312 11.5721 22.5689 11.3966 22.5682C11.0453 22.5683 10.7051 22.4216 10.4389 22.1558L5.63777 17.3539L18.1781 4.98263L22.143 8.9475C22.5945 9.39937 22.704 10.068 22.386 10.437Z" fill="#008AA7"/>
<path d="M17.9388 6.97656L8.41833 16.6943L11.2413 19.5177L11.6692 19.0504C11.9557 19.1157 12.2898 19.0268 12.5306 18.7808C12.8902 18.4129 13.1073 17.8853 13.2431 17.3292L20.4326 9.47069L17.9388 6.97656ZM17.7828 10.3819C17.5188 10.4993 17.0715 10.6302 17.5053 10.1236L17.7975 10.3504C17.793 10.3613 17.7873 10.3714 17.7828 10.3819ZM19.4452 9.22169C19.449 9.21831 19.4471 9.21381 19.4493 9.21044L19.7253 9.48644L14.5578 15.1354C14.7607 14.7207 14.9122 14.2902 15.0588 13.8541C15.1241 13.6583 15.2925 13.7033 15.4263 13.5683C15.699 13.2931 15.9622 13.0129 16.2277 12.7392C16.5637 12.3934 16.6792 11.9348 16.9886 11.5872C17.3212 11.2144 17.6403 11.0007 17.8518 10.5826C18.4736 10.3129 19.0271 9.62031 19.4452 9.22169ZM9.13796 16.6909L17.9426 7.70331L19.35 9.11106C19.3458 9.11331 19.3417 9.11106 19.338 9.11481C19.0935 9.34731 18.843 9.57794 18.5831 9.80219C18.3877 9.96952 18.1843 10.1273 17.9737 10.2751C18.0067 10.1213 17.9902 9.85206 17.772 9.83594C17.3085 9.79956 16.902 10.7802 17.52 10.6861C17.5646 10.6789 17.6085 10.6617 17.6527 10.6493C17.5871 10.7693 17.5102 10.8833 17.43 10.9917C17.2492 11.2381 16.962 11.3817 16.7568 11.6119C16.4962 11.9037 16.3942 12.3222 16.1152 12.6263C15.9918 12.7606 15.3187 13.6208 15.0795 13.5196C15.0498 13.5079 15.0078 13.5241 14.9977 13.5526C14.9205 13.7749 14.8447 13.9992 14.7682 14.2234C14.7551 14.2628 14.6748 14.4297 14.5961 14.5951C14.6752 14.2313 14.6853 13.8383 14.6452 13.6527C14.631 13.5871 14.553 13.5822 14.5158 13.6118C14.19 13.8724 14.0936 14.4919 14.2691 14.9626C14.1712 15.0631 14.0478 15.1343 13.89 15.1677C13.7981 15.1171 13.731 15.2536 13.8232 15.3046C13.8532 15.3207 13.8802 15.3286 13.9083 15.3391C13.7763 15.4459 13.6256 15.5506 13.4636 15.6556C13.5045 15.0001 13.5506 13.7183 12.8081 13.5488C12.7713 13.5406 12.7398 13.5507 12.7226 13.5818C12.3978 14.1526 11.9332 15.3492 12.6052 15.9698C12.6843 16.0429 12.7886 15.9312 12.7095 15.8581C12.1938 15.3818 12.5006 14.4904 12.6881 14.0033C12.9787 13.2511 13.2855 14.6971 13.3012 14.9194C13.3211 15.1977 13.3177 15.4778 13.3031 15.7579C12.3716 16.3414 11.1825 16.9692 11.0913 18.1418C11.0711 18.4066 11.1307 18.6128 11.2372 18.7643L11.2248 18.7782L9.13796 16.6909ZM14.4555 13.9141C14.547 14.1001 14.5608 14.2812 14.4963 14.4563C14.4801 14.5763 14.4421 14.6923 14.3842 14.7987C14.3145 14.4979 14.3565 14.1604 14.4555 13.9141ZM11.4202 18.5652C11.3561 18.4122 11.3047 18.2187 11.2695 17.9757C11.3204 17.7073 11.4491 17.4598 11.6396 17.2639C12.084 16.7127 12.705 16.3486 13.2933 15.9724C13.2759 16.1846 13.2491 16.396 13.2131 16.6058L11.4202 18.5652ZM12.6791 18.2599C12.5663 18.4868 12.4048 18.6861 12.2062 18.8434C12.0401 18.9443 11.8961 18.9724 11.7705 18.9394L12.9371 17.6652C12.8621 17.8677 12.7766 18.0672 12.6791 18.2599ZM13.4493 15.8716C13.6612 15.7328 13.866 15.5899 14.0535 15.4336C14.0767 15.4141 14.0771 15.3908 14.07 15.3679C14.19 15.3589 14.2893 15.2832 14.3711 15.1696C14.3778 15.1804 14.382 15.1936 14.3898 15.2041C14.3972 15.2156 14.4072 15.2252 14.4189 15.2323C14.4306 15.2394 14.4437 15.2437 14.4573 15.2449L13.4025 16.3977C13.4227 16.2166 13.4388 16.0388 13.4493 15.8716Z" fill="#008AA7"/>
</svg>
