<svg width="24" height="24" viewBox="0 0 24 24" fill="none" xmlns="http://www.w3.org/2000/svg">
<path d="M18.6428 2.57031C19.3817 2.57031 20.0902 2.86381 20.6126 3.38623C21.1351 3.90865 21.4286 4.61721 21.4286 5.35603V12.4275C21.0306 12.1281 20.5991 11.8761 20.1428 11.6766V8.14431H3.85713V18.6417C3.85713 19.4697 4.52913 20.1417 5.35713 20.1417H11.6777C11.8783 20.6003 12.1311 21.0315 12.4277 21.4275H5.35713C4.61831 21.4275 3.90975 21.134 3.38733 20.6115C2.86491 20.0891 2.57141 19.3806 2.57141 18.6417V5.35603C2.57141 4.61721 2.86491 3.90865 3.38733 3.38623C3.90975 2.86381 4.61831 2.57031 5.35713 2.57031H18.6428ZM18.6428 3.85603H5.35713C4.9593 3.85603 4.57777 4.01406 4.29647 4.29537C4.01516 4.57667 3.85713 4.9582 3.85713 5.35603V6.8586H20.1428V5.35603C20.1428 4.9582 19.9848 4.57667 19.7035 4.29537C19.4222 4.01406 19.0407 3.85603 18.6428 3.85603ZM23.1428 17.5703C23.1428 19.0479 22.5559 20.4651 21.511 21.5099C20.4662 22.5548 19.049 23.1417 17.5714 23.1417C16.0938 23.1417 14.6767 22.5548 13.6318 21.5099C12.587 20.4651 12 19.0479 12 17.5703C12 16.0927 12.587 14.6756 13.6318 13.6307C14.6767 12.5859 16.0938 11.9989 17.5714 11.9989C19.049 11.9989 20.4662 12.5859 21.511 13.6307C22.5559 14.6756 23.1428 16.0927 23.1428 17.5703ZM20.8748 15.124C20.835 15.0841 20.7877 15.0524 20.7357 15.0308C20.6836 15.0092 20.6278 14.9981 20.5714 14.9981C20.515 14.9981 20.4592 15.0092 20.4072 15.0308C20.3551 15.0524 20.3078 15.0841 20.268 15.124L16.2857 19.1072L14.8748 17.6955C14.835 17.6556 14.7877 17.624 14.7356 17.6024C14.6836 17.5809 14.6278 17.5698 14.5714 17.5698C14.5151 17.5698 14.4593 17.5809 14.4072 17.6024C14.3551 17.624 14.3078 17.6556 14.268 17.6955C14.2281 17.7353 14.1965 17.7826 14.175 17.8347C14.1534 17.8867 14.1423 17.9425 14.1423 17.9989C14.1423 18.0552 14.1534 18.111 14.175 18.1631C14.1965 18.2152 14.2281 18.2625 14.268 18.3023L15.9823 20.0166C16.0221 20.0565 16.0694 20.0882 16.1214 20.1098C16.1735 20.1314 16.2293 20.1425 16.2857 20.1425C16.3421 20.1425 16.3979 20.1314 16.45 20.1098C16.502 20.0882 16.5493 20.0565 16.5891 20.0166L20.8748 15.7309C20.9148 15.6911 20.9464 15.6438 20.968 15.5917C20.9896 15.5396 21.0007 15.4838 21.0007 15.4275C21.0007 15.3711 20.9896 15.3153 20.968 15.2632C20.9464 15.2111 20.9148 15.1638 20.8748 15.124Z" fill="#008AA7"/>
</svg>
