<svg width="24" height="24" viewBox="0 0 24 24" fill="none" xmlns="http://www.w3.org/2000/svg">
<g clip-path="url(#clip0_6300_141044)">
<path d="M0 7.5008C0.000366235 9.2366 0.602572 10.9186 1.70401 12.2602C2.80545 13.6018 4.33799 14.5199 6.0405 14.8583C6.13747 13.7836 6.41326 12.7326 6.8565 11.7488C5.5425 11.3048 4.698 10.2968 4.5 8.8658H3.75V8.2268H4.449V7.5758C4.449 7.5068 4.449 7.4363 4.455 7.3733H3.75V6.7328H4.5165C4.854 4.8608 6.3195 3.7508 8.5215 3.7508C8.9955 3.7508 9.4065 3.7973 9.75 3.8783V4.9778C9.34881 4.88854 8.93843 4.84725 8.5275 4.8548C7.149 4.8548 6.2205 5.5538 5.9265 6.7328H8.802V7.3733H5.832C5.8275 7.4423 5.8275 7.5188 5.8275 7.5938V8.2268H8.802V8.8673H5.895C6.072 9.7703 6.597 10.4123 7.4025 10.7108C8.19231 9.40274 9.2785 8.29862 10.5735 7.48752C11.8684 6.67641 13.3359 6.18101 14.8575 6.0413C14.4896 4.21956 13.4587 2.5992 11.9645 1.49407C10.4703 0.388936 8.61905 -0.122297 6.76944 0.0593951C4.91984 0.241088 3.20349 1.10277 1.95287 2.47754C0.702244 3.8523 0.00635546 5.6423 0 7.5008H0ZM24 15.7508C24 17.9388 23.1308 20.0373 21.5836 21.5844C20.0365 23.1316 17.938 24.0008 15.75 24.0008C13.562 24.0008 11.4635 23.1316 9.91637 21.5844C8.36919 20.0373 7.5 17.9388 7.5 15.7508C7.5 13.5628 8.36919 11.4643 9.91637 9.91717C11.4635 8.36999 13.562 7.5008 15.75 7.5008C17.938 7.5008 20.0365 8.36999 21.5836 9.91717C23.1308 11.4643 24 13.5628 24 15.7508ZM12.375 17.7338C12.4785 18.9863 13.494 19.9613 15.321 20.0768V21.0008H16.131V20.0708C18.0195 19.9418 19.125 18.9608 19.125 17.5358C19.125 16.2383 18.2805 15.5708 16.77 15.2258L16.131 15.0758V12.5618C16.941 12.6518 17.457 13.0823 17.58 13.6793H19.002C18.897 12.4733 17.8335 11.5298 16.131 11.4263V10.5008H15.321V11.4443C13.707 11.5988 12.609 12.5423 12.609 13.8773C12.609 15.0578 13.425 15.8093 14.784 16.1168L15.321 16.2443V18.9143C14.49 18.7943 13.941 18.3503 13.8165 17.7338H12.375ZM15.315 14.8913C14.517 14.7113 14.085 14.3453 14.085 13.7933C14.085 13.1783 14.5515 12.7148 15.321 12.5798V14.8898H15.3135L15.315 14.8913ZM16.248 16.4573C17.2155 16.6748 17.6625 17.0273 17.6625 17.6513C17.6625 18.3623 17.1075 18.8513 16.1325 18.9413V16.4303L16.248 16.4573Z" fill="#008AA7"/>
</g>
<defs>
<clipPath id="clip0_6300_141044">
<rect width="24" height="24" fill="white"/>
</clipPath>
</defs>
</svg>
