<svg width="24" height="24" viewBox="0 0 24 24" fill="none" xmlns="http://www.w3.org/2000/svg">
<path d="M21 18.75L19.9395 17.6895L18 19.629V13.5H16.5V19.629L14.5605 17.6895L13.5 18.75L17.25 22.5L21 18.75Z" fill="#008AA7"/>
<path d="M7.5 21V7.5H16.5V11.25H18V4.5C17.9996 4.1023 17.8414 3.721 17.5602 3.43978C17.279 3.15856 16.8977 3.0004 16.5 3H7.5C7.1023 3.0004 6.721 3.15856 6.43978 3.43978C6.15856 3.721 6.0004 4.1023 6 4.5V21C6.0004 21.3977 6.15856 21.779 6.43978 22.0602C6.721 22.3414 7.1023 22.4996 7.5 22.5H12V21H7.5ZM7.5 4.5H16.5V6H7.5V4.5Z" fill="#008AA7"/>
</svg>
