<svg width="40" height="40" viewBox="0 0 40 40" fill="none" xmlns="http://www.w3.org/2000/svg">
<g clip-path="url(#clip0_6300_140968)">
<path d="M34.9999 14.3594V4.75C35.0013 4.29056 34.912 3.83536 34.7371 3.41053C34.5621 2.9857 34.305 2.5996 33.9805 2.2744C33.6559 1.9492 33.2703 1.6913 32.8459 1.51551C32.4214 1.33971 31.9664 1.24949 31.5069 1.25H21.903C21.2733 1.2513 20.6694 1.50086 20.2225 1.94453L1.02254 21.1391C0.367705 21.796 0 22.6857 0 23.6133C0 24.5408 0.367705 25.4306 1.02254 26.0875L10.1632 35.2281C10.8199 35.8831 11.7095 36.2509 12.637 36.2509C13.5645 36.2509 14.4541 35.8831 15.1108 35.2281L34.3054 16.0398C34.7492 15.593 34.9988 14.9892 34.9999 14.3594ZM27.4999 11.25C27.0054 11.25 26.5221 11.1034 26.111 10.8287C25.6998 10.554 25.3794 10.1635 25.1902 9.70671C25.001 9.2499 24.9515 8.74723 25.0479 8.26228C25.1444 7.77732 25.3825 7.33187 25.7321 6.98224C26.0817 6.6326 26.5272 6.3945 27.0122 6.29804C27.4971 6.20158 27.9998 6.25108 28.4566 6.4403C28.9134 6.62952 29.3039 6.94995 29.5786 7.36108C29.8533 7.7722 29.9999 8.25555 29.9999 8.75C29.9999 9.41304 29.7365 10.0489 29.2676 10.5178C28.7988 10.9866 28.1629 11.25 27.4999 11.25Z" fill="white"/>
<path d="M38.7502 5C38.4186 5 38.1007 5.1317 37.8663 5.36612C37.6319 5.60054 37.5002 5.91848 37.5002 6.25V16.2008L17.0853 36.6164C16.9644 36.7313 16.8676 36.8693 16.8008 37.0222C16.734 37.1751 16.6985 37.3398 16.6964 37.5066C16.6943 37.6735 16.7255 37.839 16.7884 37.9936C16.8513 38.1481 16.9444 38.2885 17.0624 38.4065C17.1804 38.5245 17.3208 38.6177 17.4753 38.6805C17.6299 38.7434 17.7955 38.7747 17.9623 38.7725C18.1291 38.7704 18.2938 38.7349 18.4467 38.6681C18.5996 38.6013 18.7376 38.5046 18.8525 38.3836L39.3213 17.9148C39.539 17.6961 39.7111 17.4363 39.8277 17.1505C39.9442 16.8647 40.0028 16.5586 40.0002 16.25V6.25C40.0002 5.91848 39.8685 5.60054 39.6341 5.36612C39.3996 5.1317 39.0817 5 38.7502 5Z" fill="white"/>
</g>
<defs>
<clipPath id="clip0_6300_140968">
<rect width="40" height="40" fill="white"/>
</clipPath>
</defs>
</svg>
