<svg width="24" height="24" viewBox="0 0 24 24" fill="none" xmlns="http://www.w3.org/2000/svg">
<path d="M4.1137 20.1644C4.47448 20.1644 4.76695 19.965 4.76695 19.7189C4.76695 19.4729 4.47448 19.2734 4.1137 19.2734C3.75292 19.2734 3.46045 19.4729 3.46045 19.7189C3.46045 19.965 3.75292 20.1644 4.1137 20.1644Z" fill="#008AA7"/>
<path d="M23.25 17.5009L23.0047 17.3569C22.986 17.346 21.1121 16.2341 20.6464 14.8849L20.5425 14.586L20.3505 14.8369C20.3445 14.8447 20.0783 15.174 19.3331 15.5602C18.7815 12.4204 16.905 8.67188 14.439 7.07363C15.144 7.13063 15.8512 7.07212 16.5338 6.82388C16.9447 6.67463 16.7674 6.00487 16.3526 6.15637C15.7931 6.36 15.2325 6.4155 14.673 6.387C16.0466 5.12812 17.1251 3.19875 17.1251 1.788C17.1251 1.449 17.1251 0.817875 16.6226 0.817875C16.4209 0.817875 16.2577 0.943875 16.0324 1.11787C15.6866 1.3845 15.1646 1.788 14.3978 1.788C14.1056 1.788 13.5709 1.47975 13.1411 1.23225C12.6217 0.933375 12.2899 0.75 12.0109 0.75C11.5489 0.75 10.8698 1.1235 10.2705 1.45312C10.0268 1.587 9.69338 1.77075 9.62438 1.78838C8.75588 1.78838 8.2515 1.38787 7.917 1.12275C7.722 0.9675 7.58063 0.855 7.392 0.855C6.89775 0.855 6.89775 1.44787 6.89775 2.1345C6.89775 3.45975 7.90725 5.20912 9.22913 6.38475C8.39625 6.44437 7.575 6.696 6.99787 7.25513C6.67912 7.56337 7.16212 8.05237 7.47975 7.74487C7.95937 7.27987 8.58825 7.08075 9.261 7.04212C9.28012 7.11075 9.30338 7.17825 9.33187 7.24463C6.51338 9.27 4.51125 14.0794 4.51125 17.3261C4.51125 17.6464 4.536 17.9362 4.57425 18.2092C3.8475 17.8864 3.58237 17.6033 3.57712 17.5969L3.38363 17.3738L3.28837 17.655C2.86725 18.894 1.0365 19.9688 1.01812 19.9796L0.75 20.1353L1.02262 20.2826C1.11825 20.3344 1.21312 20.3798 1.30875 20.4289L1.13625 20.5485L1.22738 21.6885L8.37225 23.25L11.0812 21.5171C11.3546 21.5186 11.6314 21.5194 11.913 21.5194L15.0795 23.25L22.2379 21V19.7966L22.0485 19.683C22.143 19.623 22.2375 19.5619 22.3316 19.4989L22.5825 19.3312L22.5274 19.3043L22.8465 19.2169L22.9005 17.9659L22.716 17.835C22.8143 17.7761 22.9121 17.7161 23.0104 17.6539L23.25 17.5009ZM7.57987 2.1345C7.57987 1.968 7.58213 1.83825 7.5855 1.73737C7.64288 1.78237 7.70963 1.8315 7.78088 1.88213C7.9995 2.40562 8.41313 3.15937 9.11438 3.63412C9.96638 4.21163 9.85312 3.54787 10.3076 2.94187C10.7621 2.33625 11.0696 2.019 11.8309 3.57675C12.1628 4.25588 12.7159 2.358 13.2416 2.08087C13.3808 2.15662 13.5195 2.22713 13.6556 2.28712C14.5984 3.82012 15.0352 3.342 15.8726 2.06775C16.1029 1.93275 16.2919 1.788 16.4423 1.67213C16.443 1.707 16.4437 1.74563 16.4437 1.78875C16.4437 2.9925 15.4601 4.719 14.2556 5.84513C14.1988 5.7006 14.1173 5.567 14.0149 5.45025C13.5285 4.89937 12.7684 5.51025 12.408 5.91112C11.7686 5.70563 10.7269 5.13975 10.0481 5.46375C9.87908 5.54217 9.72383 5.6474 9.58838 5.77537C8.47837 4.76363 7.57987 3.303 7.57987 2.1345ZM13.6564 6.24975C13.4882 6.2141 13.3211 6.17408 13.155 6.12975C13.3643 5.94938 13.5563 5.88638 13.6369 6.1545C13.6455 6.18375 13.6508 6.21712 13.6564 6.24975ZM10.8064 6.48263C10.6823 6.459 10.5547 6.43762 10.4235 6.42075C10.324 6.35837 10.2265 6.29271 10.1314 6.22388C10.4741 5.994 11.0651 6.11625 11.6299 6.30787C11.3513 6.336 11.0764 6.39675 10.8064 6.48263ZM10.9766 7.47262C10.7666 7.52513 10.5379 7.50413 10.3403 7.42537C10.4205 7.383 10.5015 7.34625 10.5825 7.30912C10.7137 7.3725 10.845 7.42537 10.9766 7.47262ZM4.04025 21.1421C3.14583 20.8831 2.27796 20.5399 1.44825 20.1173C1.95712 19.7827 3.06562 18.9739 3.51638 18.0019C3.82537 18.2445 4.53863 18.687 5.92763 19.0267C5.904 19.065 5.87512 19.1059 5.84737 19.146C4.66163 18.8355 3.98738 18.4429 3.9765 18.4361L3.813 18.3386L3.73462 18.5138C3.6315 18.7432 3.38963 18.7778 3.255 18.7778C3.2175 18.7778 3.19237 18.7751 3.189 18.7747L3.05513 18.7552L3.00638 18.8835C2.90663 19.1453 2.49712 19.4872 2.34712 19.5971L2.09663 19.7809L2.38313 19.8983C2.48962 19.9417 2.5185 19.9819 2.52 19.9924C2.52375 20.0182 2.47837 20.0865 2.43 20.1259L2.21175 20.3018L2.46562 20.4191C2.98575 20.6591 3.57488 20.8579 4.164 21.0217C4.11713 21.0679 4.07663 21.1073 4.04025 21.1421ZM7.06425 19.7449C7.5885 19.8184 8.16937 19.8649 8.80387 19.8649H8.80425C8.93625 19.8649 9.07013 19.8626 9.20662 19.8585C9.21572 19.8868 9.22872 19.9137 9.24525 19.9384C9.27862 19.989 9.32362 20.031 9.38062 20.0636L8.42362 20.8815C8.40539 20.8807 8.38713 20.8803 8.36887 20.8804C7.9425 20.8804 7.6245 21.0371 7.47187 21.3161C6.89361 21.2424 6.31803 21.1489 5.74613 21.036C6.20585 20.6269 6.64573 20.196 7.06425 19.7449ZM2.80837 20.1937C2.84588 20.1229 2.87025 20.037 2.85713 19.9432C2.84466 19.8587 2.80411 19.7807 2.742 19.722C2.91037 19.5776 3.1425 19.3549 3.27 19.1243C3.55988 19.1201 3.79912 19.0103 3.94987 18.816C4.20375 18.9487 4.77562 19.2169 5.6205 19.4494C5.27513 19.8825 4.80975 20.3738 4.44788 20.739C3.88388 20.5898 3.31575 20.4097 2.80837 20.1937ZM8.1525 21.7721L8.07562 21.7725C7.75275 21.7725 6.68288 21.7463 5.2695 21.4519C5.319 21.4099 5.37038 21.3668 5.418 21.3255C6.56475 21.5651 7.4895 21.6679 7.55888 21.6757L7.69613 21.6904L7.7385 21.5573C7.83112 21.27 8.17275 21.2276 8.3685 21.2276C8.42212 21.2276 8.45775 21.231 8.46187 21.2314L8.53463 21.2393L10.197 19.8187L9.75262 19.8041C9.60413 19.7989 9.5415 19.7655 9.52612 19.7426L9.62025 19.4963L9.36 19.5071C9.17025 19.5154 8.985 19.5195 8.80387 19.5195H8.8035C8.28 19.5195 7.79437 19.485 7.3455 19.4306L7.44975 19.3076C8.35575 19.4287 9.44062 19.5034 10.7505 19.494C10.4377 19.9328 9.65775 20.8654 8.1525 21.7721ZM11.9115 20.1427V20.8271C11.6981 20.8271 11.4904 20.8264 11.2871 20.8249L11.226 20.0546L10.7183 20.0959C11.0603 19.6916 11.2061 19.422 11.2192 19.3976L11.3569 19.1374L11.0662 19.1426C8.2845 19.1936 6.47025 18.8621 5.325 18.4939C5.24137 18.1556 5.193 17.7731 5.193 17.3265C5.193 14.2804 7.13962 9.67612 9.72412 7.81012C10.182 8.253 10.8765 8.44687 11.5365 8.016C11.6812 7.9215 11.8073 7.79775 11.9254 7.66613C11.9535 7.66688 11.9824 7.67325 12.0109 7.67325C12.1054 7.67325 12.2014 7.66538 12.297 7.65338C12.4181 7.70175 12.5366 7.7505 12.6465 7.79888C13.1726 8.03063 13.6219 7.88663 13.9286 7.56713C16.296 8.99963 18.1928 12.789 18.6919 15.852C17.6096 16.2847 15.8929 16.707 13.2581 16.7812C13.7779 16.4843 14.1679 15.9847 14.0276 15.3285C13.8803 14.6347 13.3005 14.4398 12.7001 14.4079C12.6986 14.082 12.6986 13.7569 12.7009 13.431C12.885 13.5124 13.0616 13.6061 13.2221 13.7062C13.5056 13.8844 13.7621 13.4228 13.4805 13.2446C13.2363 13.0911 12.9757 12.9655 12.7035 12.87C12.7072 12.4928 12.7091 12.1163 12.7091 11.7397C12.7095 11.3947 12.1969 11.3947 12.1969 11.7397C12.1969 12.0709 12.1946 12.4016 12.1916 12.732C11.9188 12.6845 11.6402 12.6798 11.3659 12.7181C11.3213 12.4699 11.2672 12.2235 11.2039 11.9794C11.1191 11.6471 10.6241 11.7878 10.71 12.1211C10.773 12.3608 10.8244 12.5992 10.8668 12.8411C10.845 12.8494 10.8214 12.8535 10.8 12.8632C10.1055 13.1381 9.68175 13.839 10.1899 14.4926C10.4265 14.7971 10.7359 14.9201 11.0745 14.961C11.0929 15.4121 11.1045 15.8636 11.1176 16.3144C10.8907 16.167 10.6841 15.978 10.497 15.7781C10.2653 15.5336 9.90337 15.9113 10.1347 16.1554C10.4494 16.4903 10.7797 16.7434 11.1379 16.9054C11.154 17.2905 11.1769 17.6768 11.2144 18.06C11.2474 18.4001 11.7604 18.402 11.727 18.06C11.6954 17.7285 11.672 17.3963 11.6569 17.0636C11.8519 17.0974 12.0566 17.106 12.2741 17.0854C12.2985 17.4401 12.327 17.7949 12.3675 18.1496C12.3907 18.3529 12.585 18.4327 12.7283 18.3915L12.6964 19.128C12.4706 19.1483 12.2404 19.167 12.0004 19.1828L11.7146 19.2015L11.8669 19.4475C11.8822 19.4722 12.0551 19.7456 12.441 20.1435H11.9115V20.1427ZM21.2445 17.6745C20.7731 17.8961 20.1769 18.0994 19.5694 18.2767C19.1959 17.8909 18.7181 17.376 18.3615 16.9193C19.1561 16.6785 19.6009 16.4303 19.8015 16.2964C19.9601 16.4363 20.1701 16.509 20.4188 16.5086C20.5013 16.5086 20.5744 16.5008 20.6306 16.4918C20.8106 16.725 21.1009 16.9943 21.2824 17.1551C21.1965 17.2432 21.1549 17.3407 21.1583 17.4461C21.1613 17.5361 21.1973 17.6126 21.2445 17.6745ZM18.5614 18.9067C18.6379 18.9742 18.717 19.0432 18.7976 19.113C17.2774 19.5161 16.146 19.56 15.8996 19.5641C14.3254 18.6038 13.5094 17.5875 13.1947 17.13C14.5121 17.097 15.6011 16.9777 16.5094 16.8135C16.5463 16.8589 16.5837 16.9039 16.6215 16.9485C15.8915 17.0622 15.1557 17.1352 14.4176 17.1671L14.115 17.1799L14.2815 17.4345C14.2811 17.4349 14.2474 17.4979 14.0239 17.5414L13.6605 17.6122L15.447 19.0586L15.5303 19.0361C15.5321 19.0357 15.6896 18.9934 15.8801 18.9934C16.155 18.9934 16.3429 19.077 16.4374 19.2405L16.4974 19.344L16.614 19.3234C17.2672 19.2043 17.9166 19.0654 18.5614 18.9067ZM13.275 17.8046L12.8483 17.7814C12.8284 17.5684 12.8085 17.3554 12.7935 17.1424C12.8685 17.2669 13.0223 17.5009 13.275 17.8046ZM12.747 16.4318C12.7224 15.927 12.7075 15.4217 12.7024 14.9164C12.7639 14.9186 12.8246 14.9242 12.8824 14.9325C13.5454 15.033 13.7186 15.7703 13.2011 16.185C13.0661 16.2919 12.9105 16.3703 12.747 16.4318ZM16.6616 18.9637C16.4936 18.7564 16.2262 18.6476 15.8805 18.6476C15.7361 18.6476 15.609 18.6671 15.5287 18.6829L14.4056 17.7728C14.499 17.7191 14.562 17.6512 14.5965 17.568C14.605 17.5473 14.6115 17.5258 14.616 17.5039C15.5063 17.4551 16.2563 17.3663 16.8904 17.2575C17.1979 17.6006 17.6497 18.0739 18.249 18.624C17.5129 18.7991 16.899 18.9191 16.6616 18.9637ZM12.1894 14.9299C12.1965 15.4732 12.21 16.0181 12.2389 16.5611C12.1905 16.5686 12.1429 16.578 12.0953 16.5829C11.934 16.6013 11.781 16.5878 11.6355 16.551C11.6171 16.026 11.6051 15.4999 11.5852 14.9745C11.787 14.9651 11.9914 14.9452 12.1894 14.9299ZM11.5594 14.4555C11.5359 14.0434 11.4972 13.6324 11.4431 13.2233C11.6917 13.1891 11.9444 13.2019 12.1882 13.2611C12.1856 13.6445 12.1849 14.0279 12.1864 14.4113C12.0218 14.4202 11.8654 14.436 11.7277 14.4484C11.6717 14.4527 11.6156 14.4551 11.5594 14.4555ZM11.0449 14.3899C11.013 14.3813 10.9815 14.3745 10.9489 14.3636C10.7988 14.3128 10.663 14.227 10.5525 14.1135C10.2323 13.8146 10.6718 13.5214 10.9489 13.3822C10.9924 13.716 11.0224 14.0528 11.0449 14.3899ZM15.1838 21.6896C13.5559 20.8579 12.6825 19.9335 12.3356 19.5052C12.585 19.4865 12.8209 19.464 13.0545 19.4404L15.7238 21.1729L21.5775 19.5649C18.5588 21.3844 15.5764 21.6615 15.1838 21.6896ZM20.0182 18.7309C19.9702 18.6829 19.9129 18.6259 19.845 18.5573C20.511 18.3555 21.1553 18.1215 21.6356 17.8643L21.9277 17.7071L21.6315 17.5564C21.5651 17.5223 21.5002 17.4596 21.4991 17.436C21.4999 17.427 21.5261 17.379 21.6398 17.3137L21.8565 17.1893L21.6637 17.0287C21.6578 17.0239 21.0566 16.5247 20.8455 16.2034L20.7757 16.0984L20.6561 16.1332C20.655 16.1332 20.5522 16.1629 20.4188 16.1629C20.2125 16.1633 20.058 16.0957 19.959 15.963L19.8495 15.8179L19.7122 15.936C19.7051 15.942 19.2803 16.2904 18.1406 16.6196C18.1031 16.5656 18.067 16.5105 18.0322 16.4546C19.4141 16.0358 20.1203 15.5287 20.4263 15.2512C20.9175 16.314 22.0871 17.1701 22.5949 17.5057C21.7792 17.9994 20.916 18.4098 20.0182 18.7309Z" fill="#008AA7"/>
<path d="M16.6424 17.6718C16.2686 17.5702 15.8467 17.6396 15.6989 17.8252C15.5523 18.0116 15.7376 18.2463 16.1111 18.3487C16.4853 18.4503 16.9068 18.3806 17.0546 18.1946C17.2012 18.0082 17.0167 17.7742 16.6424 17.6718Z" fill="#008AA7"/>
</svg>
