<svg width="20" height="20" viewBox="0 0 20 20" fill="none" xmlns="http://www.w3.org/2000/svg">
<path d="M18 3.25C18 2.38805 17.6576 1.5614 17.0481 0.951903C16.4386 0.34241 15.612 0 14.75 0H3.25C2.38805 0 1.5614 0.34241 0.951903 0.951903C0.34241 1.5614 0 2.38805 0 3.25V14.75C0 15.612 0.34241 16.4386 0.951903 17.0481C1.5614 17.6576 2.38805 18 3.25 18H9.022C8.72228 17.5325 8.48399 17.0284 8.313 16.5H3.25C2.78587 16.5 2.34075 16.3156 2.01256 15.9874C1.68437 15.6592 1.5 15.2141 1.5 14.75V5.5H16.5V8.313C17.0284 8.48399 17.5325 8.72228 18 9.022V3.25ZM3.25 1.5H14.75C15.716 1.5 16.5 2.284 16.5 3.25V4H1.5V3.25C1.5 2.284 2.284 1.5 3.25 1.5ZM20 14.5C20 13.0413 19.4205 11.6424 18.3891 10.6109C17.3576 9.57946 15.9587 9 14.5 9C13.0413 9 11.6424 9.57946 10.6109 10.6109C9.57946 11.6424 9 13.0413 9 14.5C9 15.9587 9.57946 17.3576 10.6109 18.3891C11.6424 19.4205 13.0413 20 14.5 20C15.9587 20 17.3576 19.4205 18.3891 18.3891C19.4205 17.3576 20 15.9587 20 14.5ZM14.5 14.5H16.5C16.6326 14.5 16.7598 14.5527 16.8536 14.6464C16.9473 14.7402 17 14.8674 17 15C17 15.1326 16.9473 15.2598 16.8536 15.3536C16.7598 15.4473 16.6326 15.5 16.5 15.5H14C13.8689 15.5 13.7431 15.4486 13.6496 15.3568C13.5561 15.2649 13.5024 15.14 13.5 15.009V11.999C13.5 11.8664 13.5527 11.7392 13.6464 11.6454C13.7402 11.5517 13.8674 11.499 14 11.499C14.1326 11.499 14.2598 11.5517 14.3536 11.6454C14.4473 11.7392 14.5 11.8664 14.5 11.999V14.5Z" fill="#008AA7"/>
</svg>
