<svg width="10" height="12" viewBox="0 0 10 12" fill="none" xmlns="http://www.w3.org/2000/svg">
<path d="M9.08377 6.91206C9.03253 6.96466 8.83903 7.18959 8.65878 7.37461C7.60204 8.53826 4.84533 10.4429 3.40247 11.0243C3.18335 11.1177 2.62935 11.3154 2.33336 11.3281C2.04973 11.3281 1.77936 11.2628 1.52136 11.1304C1.19975 10.9454 0.941747 10.6542 0.800377 10.3105C0.70937 10.072 0.568 9.35817 0.568 9.34547C0.42663 8.56457 0.348877 7.29571 0.348877 5.89352C0.348877 4.55754 0.42663 3.34038 0.542377 2.54768C0.555631 2.53499 0.697001 1.64796 0.851624 1.34412C1.13525 0.789055 1.68924 0.444404 2.28211 0.444404H2.33336C2.71947 0.458009 3.53147 0.80266 3.53147 0.815358C4.89657 1.39764 7.58967 3.20887 8.67203 4.41243C8.67203 4.41243 8.97686 4.72171 9.1094 4.91489C9.31615 5.19243 9.41865 5.53617 9.41865 5.87992C9.41865 6.26357 9.3029 6.62092 9.08377 6.91206" fill="#008AA7"/>
</svg>
