<svg width="54" height="48" viewBox="0 0 54 48" fill="none" xmlns="http://www.w3.org/2000/svg">
<path d="M53.9524 22.5031C53.9524 34.9312 41.8738 45.0062 26.9762 45.0062C24.3044 45.0096 21.6436 44.6789 19.062 44.0225C17.0928 44.974 12.5709 46.8 4.96362 47.9894C4.28921 48.0923 3.77667 47.4237 4.04306 46.8257C5.23675 44.1382 6.3158 40.557 6.63951 37.2908C2.50878 33.3367 0 28.161 0 22.5031C0 10.075 12.0786 0 26.9762 0C41.8738 0 53.9524 10.075 53.9524 22.5031ZM16.8601 22.5031C16.8601 21.6505 16.5048 20.8328 15.8725 20.2299C15.2401 19.6271 14.3824 19.2884 13.4881 19.2884C12.5938 19.2884 11.7361 19.6271 11.1037 20.2299C10.4713 20.8328 10.1161 21.6505 10.1161 22.5031C10.1161 23.3557 10.4713 24.1734 11.1037 24.7762C11.7361 25.3791 12.5938 25.7178 13.4881 25.7178C14.3824 25.7178 15.2401 25.3791 15.8725 24.7762C16.5048 24.1734 16.8601 23.3557 16.8601 22.5031ZM30.3482 22.5031C30.3482 21.6505 29.9929 20.8328 29.3606 20.2299C28.7282 19.6271 27.8705 19.2884 26.9762 19.2884C26.0819 19.2884 25.2242 19.6271 24.5918 20.2299C23.9594 20.8328 23.6042 21.6505 23.6042 22.5031C23.6042 23.3557 23.9594 24.1734 24.5918 24.7762C25.2242 25.3791 26.0819 25.7178 26.9762 25.7178C27.8705 25.7178 28.7282 25.3791 29.3606 24.7762C29.9929 24.1734 30.3482 23.3557 30.3482 22.5031ZM40.4643 25.7178C41.3586 25.7178 42.2163 25.3791 42.8487 24.7762C43.481 24.1734 43.8363 23.3557 43.8363 22.5031C43.8363 21.6505 43.481 20.8328 42.8487 20.2299C42.2163 19.6271 41.3586 19.2884 40.4643 19.2884C39.57 19.2884 38.7123 19.6271 38.0799 20.2299C37.4475 20.8328 37.0922 21.6505 37.0922 22.5031C37.0922 23.3557 37.4475 24.1734 38.0799 24.7762C38.7123 25.3791 39.57 25.7178 40.4643 25.7178Z" fill="#EBD75C"/>
</svg>
