<svg width="20" height="17" viewBox="0 0 20 17" fill="none" xmlns="http://www.w3.org/2000/svg">
<path d="M18 0.851562H2C0.9 0.851562 0 1.75156 0 2.85156V14.8516C0 15.9516 0.9 16.8516 2 16.8516H18C19.1 16.8516 20 15.9516 20 14.8516V2.85156C20 1.75156 19.1 0.851562 18 0.851562ZM5.64 11.3216C5.64 11.6116 5.4 11.8516 5.11 11.8516H5.02C4.73 11.8516 4.49 11.6116 4.49 11.3216V7.35156L4.04 7.68156C3.9256 7.75523 3.78739 7.78244 3.6536 7.75765C3.51981 7.73285 3.40053 7.65792 3.32012 7.54816C3.23971 7.43839 3.20424 7.30207 3.22094 7.16703C3.23765 7.032 3.30527 6.90843 3.41 6.82156L4.6 5.97156C4.69887 5.90194 4.81496 5.86082 4.93561 5.85269C5.05626 5.84455 5.17682 5.86972 5.28414 5.92544C5.39146 5.98117 5.4814 6.0653 5.54416 6.16866C5.60691 6.27202 5.64007 6.39064 5.64 6.51156V11.3216ZM11.01 11.8516H8.34C7.94 11.8516 7.62 11.5316 7.62 11.1316C7.62 10.9416 7.7 10.7516 7.83 10.6216C8.78 9.67156 9.41 9.04156 9.75 8.68156C10.15 8.26156 10.29 7.99156 10.29 7.62156C10.29 7.22156 9.98 6.90156 9.48 6.90156C9.14 6.90156 8.91 7.06156 8.76 7.27156C8.61 7.47156 8.35 7.53156 8.12 7.43156C8.0411 7.39928 7.97083 7.34904 7.91476 7.28483C7.85869 7.22062 7.81837 7.14421 7.79701 7.06169C7.77565 6.97916 7.77384 6.89279 7.79172 6.80944C7.8096 6.7261 7.84667 6.64807 7.9 6.58156C8.05 6.39156 8.27 6.20156 8.57 6.05156C9.26 5.72156 10.05 5.85156 10.52 6.08156C11.38 6.52156 11.43 7.32156 11.43 7.56156C11.43 8.20156 11.12 8.82156 10.51 9.42156C10.26 9.67156 9.79 10.1316 9.11 10.8116L9.14 10.8616H11.02C11.29 10.8616 11.51 11.0816 11.51 11.3516C11.51 11.6216 11.28 11.8516 11.01 11.8516ZM16.75 11.0016C16.67 11.1316 16.19 11.8516 14.99 11.8516C14.96 11.8516 13.76 11.9116 13.16 10.8716C13.01 10.6116 13.12 10.2716 13.4 10.1616L13.52 10.1116C13.74 10.0216 13.99 10.1016 14.11 10.3016C14.25 10.5416 14.5 10.7916 14.99 10.7916C15.4 10.7916 15.88 10.5116 15.88 10.0216C15.88 9.47156 15.4 9.23156 14.84 9.23156C14.7091 9.22894 14.5845 9.17511 14.4929 9.08163C14.4013 8.98814 14.35 8.86246 14.35 8.73156C14.35 8.47156 14.55 8.26156 14.8 8.24156V8.23156C15.13 8.23156 15.68 8.09156 15.68 7.51156C15.68 7.12156 15.37 6.86156 14.93 6.86156C14.61 6.86156 14.4 6.99156 14.26 7.16156C14.12 7.34156 13.89 7.42156 13.68 7.33156L13.6 7.30156C13.3 7.18156 13.2 6.80156 13.4 6.55156C13.67 6.20156 14.16 5.85156 14.94 5.85156C16.03 5.85156 16.48 6.49156 16.56 6.60156C16.89 7.10156 16.84 7.76156 16.58 8.17156C16.43 8.39156 16.26 8.55156 16.06 8.65156V8.72156C16.34 8.83156 16.57 9.00156 16.74 9.24156C17.11 9.76156 17.07 10.5116 16.75 11.0016Z" fill="white"/>
</svg>
