<svg width="24" height="24" viewBox="0 0 24 24" fill="none" xmlns="http://www.w3.org/2000/svg">
<path fill-rule="evenodd" clip-rule="evenodd" d="M15.7158 16.9727H8.49579C8.08179 16.9727 7.74579 16.6367 7.74579 16.2227C7.74579 15.8087 8.08179 15.4727 8.49579 15.4727H15.7158C16.1298 15.4727 16.4658 15.8087 16.4658 16.2227C16.4658 16.6367 16.1298 16.9727 15.7158 16.9727Z" fill="white"/>
<path fill-rule="evenodd" clip-rule="evenodd" d="M15.7158 12.7852H8.49579C8.08179 12.7852 7.74579 12.4492 7.74579 12.0352C7.74579 11.6212 8.08179 11.2852 8.49579 11.2852H15.7158C16.1298 11.2852 16.4658 11.6212 16.4658 12.0352C16.4658 12.4492 16.1298 12.7852 15.7158 12.7852Z" fill="white"/>
<path fill-rule="evenodd" clip-rule="evenodd" d="M11.2505 8.60938H8.49551C8.08151 8.60938 7.74551 8.27338 7.74551 7.85938C7.74551 7.44537 8.08151 7.10938 8.49551 7.10938H11.2505C11.6645 7.10938 12.0005 7.44537 12.0005 7.85938C12.0005 8.27338 11.6645 8.60938 11.2505 8.60938Z" fill="white"/>
<mask id="mask0_6489_140870" style="mask-type:alpha" maskUnits="userSpaceOnUse" x="3" y="2" width="19" height="20">
<path fill-rule="evenodd" clip-rule="evenodd" d="M3 2H21.1647V21.9098H3V2Z" fill="white"/>
</mask>
<g mask="url(#mask0_6489_140870)">
<path fill-rule="evenodd" clip-rule="evenodd" d="M15.9087 3.5L8.2197 3.504C5.89169 3.518 4.49969 4.958 4.49969 7.357V16.553C4.49969 18.968 5.90469 20.41 8.25569 20.41L15.9447 20.407C18.2727 20.393 19.6647 18.951 19.6647 16.553V7.357C19.6647 4.942 18.2607 3.5 15.9087 3.5ZM8.25669 21.91C5.11269 21.91 2.99969 19.757 2.99969 16.553V7.357C2.99969 4.124 5.04669 2.023 8.21469 2.004L15.9077 2H15.9087C19.0527 2 21.1647 4.153 21.1647 7.357V16.553C21.1647 19.785 19.1177 21.887 15.9497 21.907L8.25669 21.91Z" fill="white"/>
</g>
</svg>
