<svg width="22" height="15" viewBox="0 0 22 15" fill="none" xmlns="http://www.w3.org/2000/svg">
<path d="M19.2151 5.38953C18.2384 4.85756 16.939 4.48256 15.5 4.29942V3.66279C15.5 2.60756 14.6628 1.64826 13.1453 0.968023C11.7674 0.340116 9.93605 0 8 0C6.06395 0 4.23256 0.340116 2.85465 0.968023C1.33721 1.64826 0.5 2.60756 0.5 3.66279V7.15116C0.5 8.2064 1.33721 9.1657 2.85465 9.84593C3.88251 10.2875 4.96973 10.5755 6.0814 10.7006V11.3372C6.0814 12.3924 6.9186 13.3517 8.43605 14.032C9.81395 14.6599 11.6453 15 13.5814 15C15.5174 15 17.3488 14.6599 18.7267 14.032C20.2442 13.3517 21.0814 12.3924 21.0814 11.3372V7.84884C21.0814 6.9157 20.4186 6.0436 19.2151 5.38953ZM18.7093 6.30523C19.564 6.77616 20.0349 7.31686 20.0349 7.84884C20.0349 9.08721 17.3837 10.4651 13.5814 10.4651C12.9634 10.4632 12.3461 10.4253 11.7326 10.3517C12.2168 10.223 12.6894 10.0538 13.1453 9.84593C14.6628 9.1657 15.5 8.2064 15.5 7.15116V5.35465C16.7558 5.52907 17.8808 5.86047 18.7093 6.30523ZM6.6657 9.7064H6.63954C6.32558 9.68023 6.02035 9.63663 5.73256 9.59302V7.15988C6.48343 7.26933 7.24119 7.32471 8 7.32558C8.75881 7.32471 9.51657 7.26933 10.2674 7.15988V9.59302C9.51752 9.71181 8.75927 9.77014 8 9.76744C7.55449 9.76966 7.10915 9.74929 6.6657 9.7064ZM14.4535 5.57267V7.15116C14.4535 7.97965 13.2587 8.87791 11.314 9.375V6.9593C11.9438 6.82334 12.5576 6.62166 13.1453 6.35756C13.6159 6.15834 14.0563 5.89414 14.4535 5.57267ZM8 1.04651C11.8023 1.04651 14.4535 2.42442 14.4535 3.66279C14.4535 4.90116 11.8023 6.27907 8 6.27907C4.19767 6.27907 1.54651 4.90116 1.54651 3.66279C1.54651 2.42442 4.19767 1.04651 8 1.04651ZM1.54651 7.15116V5.57267C1.94374 5.89414 2.38407 6.15834 2.85465 6.35756C3.44238 6.62166 4.05621 6.82334 4.68605 6.9593V9.375C2.74128 8.87791 1.54651 7.97965 1.54651 7.15116ZM7.12791 11.3372V10.7878C7.4157 10.8052 7.70349 10.814 8 10.814C8.29651 10.814 8.68023 10.8052 9.02035 10.7791C9.42592 10.9333 9.84287 11.0558 10.2674 11.1453V13.561C8.32267 13.064 7.12791 12.1657 7.12791 11.3372ZM11.314 13.7791V11.3459C12.0649 11.4551 12.8226 11.5104 13.5814 11.5116C14.3402 11.5108 15.098 11.4554 15.8488 11.3459V13.7791C14.3462 14.0116 12.8166 14.0116 11.314 13.7791ZM16.8953 13.561V11.1453C17.5252 11.0094 18.139 10.8077 18.7267 10.5436C19.1973 10.3444 19.6377 10.0802 20.0349 9.75872V11.3372C20.0349 12.1657 18.8401 13.064 16.8953 13.561Z" fill="#111111"/>
</svg>
