<svg width="81" height="80" viewBox="0 0 81 80" fill="none" xmlns="http://www.w3.org/2000/svg">
<path d="M60.8117 69.7971C61.335 69.436 61.8478 69.0621 62.35 68.6755M51.5517 74.3571C53.1227 73.8488 54.6569 73.2329 56.1433 72.5138M37.4833 75.9871C40.4051 76.2346 43.3464 76.1199 46.24 75.6455M19.6583 69.4138C23.39 72.0831 27.5978 74.0139 32.055 75.1021M70.3 20.4738C67.5103 16.2865 63.8693 12.7342 59.6144 10.0487C55.3595 7.36328 50.5863 5.60491 45.606 4.88834C40.6258 4.17177 35.5505 4.51308 30.7111 5.89002C25.8716 7.26696 21.3768 9.64859 17.5198 12.8796C13.6627 16.1106 10.5301 20.1183 8.32624 24.6415C6.12235 29.1646 4.89671 34.1016 4.72924 39.1303C4.56178 44.159 5.45626 49.1665 7.35434 53.8263C9.25242 58.4861 12.1115 62.6934 15.745 66.1738" stroke="#008AA7" stroke-width="2" stroke-linecap="round" stroke-linejoin="round"/>
<path d="M71.05 11.5234L70.2983 20.4734L61.3467 19.7218" stroke="#008AA7" stroke-width="2" stroke-linecap="round" stroke-linejoin="round"/>
</svg>
