<svg width="24" height="24" viewBox="0 0 24 24" fill="none" xmlns="http://www.w3.org/2000/svg">
<path d="M11.9953 5.66719L12.4219 4.93125C12.6844 4.47187 13.2703 4.31719 13.7297 4.57969C14.1891 4.84219 14.3438 5.42812 14.0812 5.8875L9.97969 12.9891H12.9469C13.9078 12.9891 14.4469 14.1187 14.0297 14.9016H5.33438C4.80469 14.9016 4.37813 14.475 4.37813 13.9453C4.37813 13.4156 4.80469 12.9891 5.33438 12.9891H7.77188L10.8937 7.57969L9.91875 5.8875C9.65625 5.42812 9.81094 4.84687 10.2703 4.57969C10.7297 4.31719 11.3109 4.47187 11.5781 4.93125L11.9953 5.66719ZM8.30625 15.8859L7.3875 17.4797C7.125 17.9391 6.53906 18.0938 6.07969 17.8312C5.62031 17.5688 5.46562 16.9828 5.72812 16.5234L6.4125 15.3422C7.18125 15.1031 7.80937 15.2859 8.30625 15.8859ZM16.2234 12.9938H18.7125C19.2422 12.9938 19.6688 13.4203 19.6688 13.95C19.6688 14.4797 19.2422 14.9062 18.7125 14.9062H17.3297L18.2625 16.5234C18.525 16.9828 18.3703 17.5641 17.9109 17.8312C17.4516 18.0938 16.8703 17.9391 16.6031 17.4797C15.0328 14.7562 13.8516 12.7172 13.0687 11.3578C12.2672 9.975 12.8391 8.5875 13.4062 8.11875C14.0344 9.19687 14.9719 10.8234 16.2234 12.9938ZM12 0.375C5.57812 0.375 0.375 5.57812 0.375 12C0.375 18.4219 5.57812 23.625 12 23.625C18.4219 23.625 23.625 18.4219 23.625 12C23.625 5.57812 18.4219 0.375 12 0.375ZM22.125 12C22.125 17.5641 17.6203 22.125 12 22.125C6.43594 22.125 1.875 17.6203 1.875 12C1.875 6.43594 6.37969 1.875 12 1.875C17.5641 1.875 22.125 6.37969 22.125 12Z" fill="white"/>
</svg>
