<svg width="10" height="12" viewBox="0 0 10 12" fill="none" xmlns="http://www.w3.org/2000/svg">
<path d="M9.08371 7.02534C9.03247 7.07794 8.83897 7.30287 8.65872 7.48789C7.60198 8.65155 4.84526 10.5562 3.40241 11.1376C3.18328 11.231 2.62929 11.4287 2.3333 11.4414C2.04967 11.4414 1.7793 11.3761 1.5213 11.2437C1.19969 11.0587 0.941686 10.7675 0.800316 10.4238C0.709309 10.1852 0.567939 9.47145 0.567939 9.45875C0.426569 8.67785 0.348816 7.40899 0.348816 6.0068C0.348816 4.67082 0.426569 3.45366 0.542316 2.66096C0.55557 2.64827 0.696939 1.76124 0.851563 1.45741C1.13519 0.902336 1.68918 0.557685 2.28205 0.557685H2.3333C2.71941 0.57129 3.53141 0.915941 3.53141 0.928639C4.89651 1.51092 7.58961 3.32215 8.67197 4.52571C8.67197 4.52571 8.9768 4.83499 9.10934 5.02817C9.31609 5.30571 9.41858 5.64945 9.41858 5.9932C9.41858 6.37685 9.30284 6.7342 9.08371 7.02534Z" fill="#008AA7"/>
</svg>
