<svg width="12" height="10" viewBox="0 0 12 10" fill="none" xmlns="http://www.w3.org/2000/svg">
<path d="M4.85796 9.05521C4.80536 9.00396 4.58043 8.81046 4.39541 8.63022C3.23176 7.57348 1.3271 4.81676 0.745732 3.3739C0.652313 3.15478 0.454592 2.60079 0.441895 2.30479C0.441895 2.02117 0.507197 1.7508 0.639615 1.4928C0.824639 1.17118 1.11578 0.913183 1.45952 0.771813C1.69806 0.680806 2.41185 0.539436 2.42455 0.539436C3.20545 0.398066 4.47431 0.320312 5.8765 0.320312C7.21248 0.320312 8.42964 0.398066 9.22234 0.513813C9.23503 0.527066 10.1221 0.668436 10.4259 0.823059C10.981 1.10668 11.3256 1.66068 11.3256 2.25355V2.30479C11.312 2.69091 10.9674 3.5029 10.9547 3.5029C10.3724 4.86801 8.56115 7.56111 7.35759 8.64347C7.35759 8.64347 7.04831 8.9483 6.85513 9.08083C6.57759 9.28759 6.23385 9.39008 5.8901 9.39008C5.50645 9.39008 5.1491 9.27433 4.85796 9.05521Z" fill="#008AA7"/>
</svg>
