<svg width="25" height="25" viewBox="0 0 25 25" fill="none" xmlns="http://www.w3.org/2000/svg">
<path d="M7.22656 6.10742C7.11914 6.10742 7.03125 6.19531 7.03125 6.30273V7.47461C7.03125 7.58203 7.11914 7.66992 7.22656 7.66992H16.6016C16.709 7.66992 16.7969 7.58203 16.7969 7.47461V6.30273C16.7969 6.19531 16.709 6.10742 16.6016 6.10742H7.22656ZM11.7188 9.62305H7.22656C7.11914 9.62305 7.03125 9.71094 7.03125 9.81836V10.9902C7.03125 11.0977 7.11914 11.1855 7.22656 11.1855H11.7188C11.8262 11.1855 11.9141 11.0977 11.9141 10.9902V9.81836C11.9141 9.71094 11.8262 9.62305 11.7188 9.62305ZM10.5469 20.8047H5.07812V3.61719H18.75V11.4297C18.75 11.5371 18.8379 11.625 18.9453 11.625H20.3125C20.4199 11.625 20.5078 11.5371 20.5078 11.4297V2.64062C20.5078 2.2085 20.1587 1.85938 19.7266 1.85938H4.10156C3.66943 1.85938 3.32031 2.2085 3.32031 2.64062V21.7812C3.32031 22.2134 3.66943 22.5625 4.10156 22.5625H10.5469C10.6543 22.5625 10.7422 22.4746 10.7422 22.3672V21C10.7422 20.8926 10.6543 20.8047 10.5469 20.8047ZM21.2891 18.6562H17.7734V17.7627C18.9038 17.4258 19.7266 16.3809 19.7266 15.1406C19.7266 13.6294 18.5034 12.4062 16.9922 12.4062C15.481 12.4062 14.2578 13.6294 14.2578 15.1406C14.2578 16.3784 15.0806 17.4258 16.2109 17.7627V18.6562H12.6953C12.4805 18.6562 12.3047 18.832 12.3047 19.0469V22.7578C12.3047 22.9727 12.4805 23.1484 12.6953 23.1484H21.2891C21.5039 23.1484 21.6797 22.9727 21.6797 22.7578V19.0469C21.6797 18.832 21.5039 18.6562 21.2891 18.6562ZM15.7715 15.1406C15.7715 14.4668 16.3184 13.9199 16.9922 13.9199C17.666 13.9199 18.2129 14.4668 18.2129 15.1406C18.2129 15.8145 17.666 16.3613 16.9922 16.3613C16.3184 16.3613 15.7715 15.8145 15.7715 15.1406ZM20.166 21.6348H13.8184V20.1699H20.166V21.6348Z" fill="#111111"/>
</svg>
