<svg width="18" height="12" viewBox="0 0 18 12" fill="none" xmlns="http://www.w3.org/2000/svg">
<path fill-rule="evenodd" clip-rule="evenodd" d="M17.7506 6.00079C17.7506 5.83503 17.6848 5.67606 17.5676 5.55885C17.4504 5.44164 17.2914 5.37579 17.1256 5.37579H2.38438L6.31813 1.44329C6.37624 1.38518 6.42233 1.31619 6.45378 1.24027C6.48523 1.16434 6.50142 1.08297 6.50142 1.00079C6.50142 0.91861 6.48523 0.837234 6.45378 0.76131C6.42233 0.685386 6.37624 0.616399 6.31813 0.558289C6.26002 0.500179 6.19103 0.454084 6.11511 0.422635C6.03918 0.391187 5.95781 0.375 5.87563 0.375C5.79345 0.375 5.71207 0.391187 5.63615 0.422635C5.56023 0.454084 5.49124 0.500179 5.43313 0.558289L0.433129 5.55829C0.374925 5.61635 0.328746 5.68532 0.297238 5.76125C0.26573 5.83718 0.249512 5.91858 0.249512 6.00079C0.249512 6.083 0.26573 6.1644 0.297238 6.24033C0.328746 6.31626 0.374925 6.38523 0.433129 6.44329L5.43313 11.4433C5.49124 11.5014 5.56023 11.5475 5.63615 11.5789C5.71207 11.6104 5.79345 11.6266 5.87563 11.6266C5.95781 11.6266 6.03918 11.6104 6.11511 11.5789C6.19103 11.5475 6.26002 11.5014 6.31813 11.4433C6.37624 11.3852 6.42233 11.3162 6.45378 11.2403C6.48523 11.1643 6.50142 11.083 6.50142 11.0008C6.50142 10.9186 6.48523 10.8372 6.45378 10.7613C6.42233 10.6854 6.37624 10.6164 6.31813 10.5583L2.38438 6.62579H17.1256C17.2914 6.62579 17.4504 6.55994 17.5676 6.44273C17.6848 6.32552 17.7506 6.16655 17.7506 6.00079Z" fill="black"/>
</svg>
