<svg width="25" height="25" viewBox="0 0 25 25" fill="none" xmlns="http://www.w3.org/2000/svg">
<path d="M21.7567 7.64652C20.9067 6.70652 19.4867 6.23652 17.4267 6.23652H17.1867V6.19652C17.1867 4.51652 17.1867 2.43652 13.4267 2.43652H11.9067C8.14666 2.43652 8.14666 4.52652 8.14666 6.19652V6.24652H7.90666C5.83666 6.24652 4.42666 6.71652 3.57666 7.65652C2.58666 8.75652 2.61666 10.2365 2.71666 11.2465L2.72666 11.3165L2.80412 12.1298C2.81838 12.2796 2.89905 12.4149 3.02494 12.4972C3.26474 12.6542 3.66609 12.9129 3.90666 13.0465C4.04666 13.1365 4.19666 13.2165 4.34666 13.2965C6.05666 14.2365 7.93666 14.8665 9.84666 15.1765C9.93666 16.1165 10.3467 17.2165 12.5367 17.2165C14.7267 17.2165 15.1567 16.1265 15.2267 15.1565C17.2667 14.8265 19.2367 14.1165 21.0167 13.0765C21.0767 13.0465 21.1167 13.0165 21.1667 12.9865C21.5634 12.7623 21.975 12.486 22.3501 12.2154C22.4631 12.1338 22.5354 12.0078 22.5508 11.8693L22.5667 11.7265L22.6167 11.2565C22.6267 11.1965 22.6267 11.1465 22.6367 11.0765C22.7167 10.0665 22.6967 8.68652 21.7567 7.64652ZM13.7567 14.4965C13.7567 15.5565 13.7567 15.7165 12.5267 15.7165C11.2967 15.7165 11.2967 15.5265 11.2967 14.5065V13.2465H13.7567V14.4965ZM9.57666 6.23652V6.19652C9.57666 4.49652 9.57666 3.86652 11.9067 3.86652H13.4267C15.7567 3.86652 15.7567 4.50652 15.7567 6.19652V6.24652H9.57666V6.23652Z" fill="white"/>
<path d="M21.5401 14.4009C21.8937 14.2326 22.3009 14.5129 22.2655 14.9029L21.9066 18.8567C21.6966 20.8567 20.8766 22.8967 16.4766 22.8967H8.85659C4.45659 22.8967 3.63659 20.8567 3.42659 18.8667L3.08588 15.1189C3.05084 14.7334 3.44879 14.4535 3.80143 14.613C4.94085 15.1285 7.04399 16.0431 8.34316 16.3834C8.50747 16.4264 8.64036 16.544 8.71231 16.6979C9.31928 17.996 10.6357 18.6867 12.5366 18.6867C14.4187 18.6867 15.7517 17.9694 16.3607 16.6681C16.4328 16.5141 16.5658 16.3966 16.7302 16.3533C18.1098 15.9903 20.3484 14.968 21.5401 14.4009Z" fill="white"/>
</svg>
