<svg width="32" height="33" viewBox="0 0 32 33" fill="none" xmlns="http://www.w3.org/2000/svg">
<g clip-path="url(#clip0_10585_127450)">
<path d="M15.9998 0.5L29.2198 6.5H30.9998C31.265 6.5 31.5194 6.60536 31.7069 6.79289C31.8944 6.98043 31.9998 7.23478 31.9998 7.5V11.5C31.9998 11.7652 31.8944 12.0196 31.7069 12.2071C31.5194 12.3946 31.265 12.5 30.9998 12.5H29.9998V26.5C30.2231 26.5002 30.44 26.5751 30.6158 26.7128C30.7916 26.8506 30.9162 27.0432 30.9698 27.26L31.9698 31.26C32.007 31.4073 32.0101 31.5612 31.9787 31.7098C31.9473 31.8585 31.8823 31.998 31.7886 32.1177C31.695 32.2374 31.5753 32.334 31.4385 32.4003C31.3018 32.4666 31.1517 32.5007 30.9998 32.5H0.999802C0.847863 32.5007 0.697787 32.4666 0.561059 32.4003C0.424331 32.334 0.304577 32.2374 0.210961 32.1177C0.117345 31.998 0.0523499 31.8585 0.0209501 31.7098C-0.0104498 31.5612 -0.00742204 31.4073 0.0298016 31.26L1.0298 27.26C1.08372 27.0434 1.20843 26.8509 1.38416 26.7133C1.55989 26.5756 1.77656 26.5005 1.9998 26.5V12.5H0.999802C0.734585 12.5 0.480231 12.3946 0.292695 12.2071C0.105158 12.0196 -0.000198376 11.7652 -0.000198376 11.5V7.5C-0.000198376 7.23478 0.105158 6.98043 0.292695 6.79289C0.480231 6.60536 0.734585 6.5 0.999802 6.5H2.7798L15.9998 0.5ZM7.5538 6.5H24.4478L15.9998 2.5L7.5538 6.5ZM3.9998 12.5V26.5H5.9998V12.5H3.9998ZM7.9998 12.5V26.5H12.9998V12.5H7.9998ZM14.9998 12.5V26.5H16.9998V12.5H14.9998ZM18.9998 12.5V26.5H23.9998V12.5H18.9998ZM25.9998 12.5V26.5H27.9998V12.5H25.9998ZM29.9998 10.5V8.5H1.9998V10.5H29.9998ZM29.2198 28.5H2.7798L2.2798 30.5H29.7198L29.2198 28.5Z" fill="#E0F7FE"/>
</g>
<defs>
<clipPath id="clip0_10585_127450">
<rect width="32" height="32" fill="white" transform="translate(0 0.5)"/>
</clipPath>
</defs>
</svg>
