<svg width="25" height="24" viewBox="0 0 25 24" fill="none" xmlns="http://www.w3.org/2000/svg">
<path d="M21.4415 10.827C22.1658 10.827 22.4681 9.89648 21.8798 9.46758L12.9291 2.95664C12.8012 2.86299 12.6469 2.8125 12.4884 2.8125C12.33 2.8125 12.1756 2.86299 12.0478 2.95664L3.09702 9.46758C2.50874 9.89414 2.81108 10.827 3.53765 10.827H4.98843V19.5926H3.30093C3.1978 19.5926 3.11343 19.677 3.11343 19.7801V20.9988C3.11343 21.102 3.1978 21.1863 3.30093 21.1863H21.6759C21.7791 21.1863 21.8634 21.102 21.8634 20.9988V19.7801C21.8634 19.677 21.7791 19.5926 21.6759 19.5926H19.9884V10.827H21.4415ZM12.4884 4.60898L18.8423 9.23086H6.13452L12.4884 4.60898ZM6.67593 10.827H9.41811V19.5926H6.67593V10.827ZM11.1056 10.827H13.8478V19.5926H11.1056V10.827ZM18.3009 19.5926H15.5353V10.827H18.3009V19.5926Z" fill="#008AA7"/>
</svg>
