<svg width="16" height="14" viewBox="0 0 16 14" fill="none" xmlns="http://www.w3.org/2000/svg">
<path d="M14.25 1.09892C14.0781 0.9877 13.8815 0.920415 13.6775 0.902979C13.4735 0.885542 13.2683 0.918487 13.08 0.998918L6.91 3.42892C6.76393 3.48837 6.60771 3.51893 6.45 3.51892H2.5C2.16848 3.51892 1.85054 3.65061 1.61612 3.88503C1.3817 4.11946 1.25 4.4374 1.25 4.76892V4.86892H0V7.86892H1.25V7.99892C1.25783 8.32521 1.39298 8.6355 1.62656 8.86347C1.86013 9.09144 2.17361 9.21901 2.5 9.21892L4 12.3989C4.10157 12.6131 4.26148 12.7942 4.46136 12.9216C4.66124 13.0489 4.893 13.1173 5.13 13.1189H5.76C6.08979 13.1163 6.40516 12.9834 6.63743 12.7493C6.86969 12.5152 7.00001 12.1987 7 11.8689V9.33892L13.08 11.7689C13.2295 11.8284 13.389 11.859 13.55 11.8589C13.7997 11.8549 14.0429 11.7785 14.25 11.6389C14.4145 11.5279 14.5501 11.3792 14.6458 11.2054C14.7414 11.0315 14.7943 10.8373 14.8 10.6389V2.12892C14.7991 1.92543 14.7485 1.72525 14.6527 1.54575C14.5568 1.36625 14.4186 1.21287 14.25 1.09892ZM5.75 4.76892V7.99892H2.5V4.76892H5.75ZM5.75 11.8689H5.12L3.89 9.21892H5.75V11.8689ZM7.37 8.14892C7.25127 8.08824 7.12747 8.03805 7 7.99892V4.69892C7.12624 4.67287 7.25003 4.63607 7.37 4.58892L13.55 2.12892V10.6089L7.37 8.14892ZM14.83 5.11892V7.61892C15.1615 7.61892 15.4795 7.48722 15.7139 7.2528C15.9483 7.01838 16.08 6.70044 16.08 6.36892C16.08 6.0374 15.9483 5.71945 15.7139 5.48503C15.4795 5.25061 15.1615 5.11892 14.83 5.11892Z" fill="white"/>
</svg>
