<svg width="12" height="17" viewBox="0 0 12 17" fill="none" xmlns="http://www.w3.org/2000/svg">
<path d="M5.84009 4.6C5.85471 4.57001 5.87746 4.54474 5.90575 4.52706C5.93404 4.50938 5.96673 4.5 6.00009 4.5C6.03345 4.5 6.06614 4.50938 6.09443 4.52706C6.12272 4.54474 6.14547 4.57001 6.16009 4.6L6.7941 5.88502C6.8068 5.91102 6.82563 5.93353 6.84898 5.9506C6.87233 5.96768 6.89949 5.97881 6.92811 5.98302L8.34813 6.18903C8.49313 6.21003 8.55213 6.38903 8.44613 6.49203L7.42011 7.49305C7.39941 7.51326 7.38395 7.53821 7.37506 7.56574C7.36618 7.59327 7.36414 7.62255 7.36911 7.65105L7.61112 9.06507C7.61655 9.09772 7.61278 9.13125 7.60021 9.16187C7.58765 9.19249 7.5668 9.21901 7.53999 9.23843C7.51319 9.25786 7.48151 9.26942 7.4485 9.27183C7.41548 9.27425 7.38245 9.2674 7.35311 9.25208L6.08309 8.58407C6.05763 8.57075 6.02933 8.56379 6.00059 8.56379C5.97186 8.56379 5.94355 8.57075 5.91809 8.58407L4.64807 9.25208C4.61876 9.26713 4.58585 9.27375 4.553 9.27121C4.52016 9.26867 4.48866 9.25706 4.46202 9.23767C4.43537 9.21829 4.41464 9.19189 4.40211 9.16142C4.38958 9.13094 4.38576 9.09759 4.39107 9.06507L4.63307 7.65105C4.63817 7.62263 4.63629 7.5934 4.62758 7.56588C4.61887 7.53835 4.60359 7.51336 4.58307 7.49305L3.55305 6.49203C3.52946 6.46887 3.51278 6.43959 3.5049 6.40748C3.49701 6.37537 3.49822 6.3417 3.50839 6.31024C3.51857 6.27878 3.53731 6.25077 3.5625 6.22936C3.5877 6.20796 3.61836 6.19399 3.65105 6.18903L5.07108 5.98302C5.09969 5.97881 5.12685 5.96768 5.1502 5.9506C5.17355 5.93353 5.19239 5.91102 5.20508 5.88502L5.84009 4.6Z" fill="#008AA7"/>
<path d="M0 2.50003C0 1.96959 0.210717 1.46087 0.585796 1.0858C0.960875 0.710717 1.46959 0.5 2.00003 0.5L10.0002 0.5C10.5306 0.5 11.0393 0.710717 11.4144 1.0858C11.7895 1.46087 12.0002 1.96959 12.0002 2.50003V16.0003C12.0001 16.0907 11.9756 16.1794 11.9291 16.257C11.8826 16.3346 11.8159 16.3981 11.7362 16.4408C11.6565 16.4835 11.5666 16.5038 11.4763 16.4994C11.386 16.4951 11.2985 16.4664 11.2232 16.4163L6.0001 13.6012L0.777013 16.4163C0.701717 16.4664 0.61424 16.4951 0.5239 16.4994C0.43356 16.5038 0.343739 16.4835 0.264004 16.4408C0.184269 16.3981 0.117606 16.3346 0.0711152 16.257C0.0246244 16.1794 4.67212e-05 16.0907 0 16.0003V2.50003ZM2.00003 1.50002C1.73481 1.50002 1.48045 1.60537 1.29291 1.79291C1.10537 1.98045 1.00002 2.23481 1.00002 2.50003V15.0662L5.72309 12.5842C5.80515 12.5296 5.90153 12.5005 6.0001 12.5005C6.09867 12.5005 6.19504 12.5296 6.2771 12.5842L11.0002 15.0662V2.50003C11.0002 2.23481 10.8948 1.98045 10.7073 1.79291C10.5197 1.60537 10.2654 1.50002 10.0002 1.50002H2.00003Z" fill="#008AA7"/>
</svg>
