<svg width="11" height="14" viewBox="0 0 11 14" fill="none" xmlns="http://www.w3.org/2000/svg">
<path fill-rule="evenodd" clip-rule="evenodd" d="M10.8182 5.64102C11.0339 4.19674 9.93425 3.42033 8.43061 2.90238L8.91837 0.945918L7.72712 0.649124L7.25225 2.55403C6.93952 2.47602 6.61796 2.40241 6.29844 2.32948L6.77671 0.412028L5.58648 0.115234L5.09838 2.07102C4.83924 2.012 4.58484 1.95366 4.33791 1.89227L4.33927 1.88616L2.6969 1.47608L2.38009 2.74805C2.38009 2.74805 3.26369 2.95055 3.24503 2.9631C3.72736 3.08351 3.81488 3.40269 3.79995 3.65573L3.24435 5.88456C3.27759 5.89304 3.32067 5.90526 3.36816 5.92425L3.24266 5.89304L2.46353 9.01531C2.40451 9.16185 2.25493 9.38164 1.91777 9.2982C1.92964 9.3155 1.05215 9.08214 1.05215 9.08214L0.460938 10.4457L2.01105 10.832C2.18605 10.8759 2.35892 10.921 2.5299 10.9656L2.52991 10.9656L2.53029 10.9657C2.64087 10.9945 2.75065 11.0232 2.85971 11.0511L2.36686 13.0303L3.55641 13.3271L4.04485 11.3693C4.36946 11.4575 4.6849 11.5389 4.99357 11.6156L4.50717 13.5642L5.69807 13.861L6.19092 11.8859C8.22167 12.2702 9.74905 12.1152 10.3911 10.2788C10.9091 8.79993 10.3657 7.94686 9.29725 7.39024C10.0754 7.21013 10.6615 6.69829 10.8178 5.64102H10.8182ZM8.09685 9.4566C7.75876 10.8139 5.63373 10.2523 4.6623 9.99558L4.66216 9.99555C4.57523 9.97257 4.49753 9.95204 4.43119 9.93554L5.08515 7.31392C5.16627 7.33417 5.26538 7.35641 5.37765 7.3816L5.37769 7.38161C6.38268 7.60713 8.44226 8.0693 8.09718 9.4566H8.09685ZM5.57969 6.16508C6.39025 6.38132 8.15708 6.85268 8.46487 5.61965C8.77954 4.35822 7.06149 3.97802 6.22241 3.79234C6.12808 3.77147 6.04486 3.75305 5.97689 3.73612L5.38398 6.11386C5.44009 6.12783 5.50593 6.1454 5.57969 6.16508Z" fill="#F7931A"/>
</svg>
