<svg width="46" height="45" viewBox="0 0 46 45" fill="none" xmlns="http://www.w3.org/2000/svg">
<path d="M22.9992 13.2183C23.4966 13.2183 23.9736 13.0207 24.3253 12.669C24.677 12.3173 24.8746 11.8403 24.8746 11.3429C24.8746 10.8456 24.677 10.3685 24.3253 10.0168C23.9736 9.66515 23.4966 9.46756 22.9992 9.46756C22.5019 9.46756 22.0248 9.66515 21.6731 10.0168C21.3214 10.3685 21.1239 10.8456 21.1239 11.3429C21.1239 11.8403 21.3214 12.3173 21.6731 12.669C22.0248 13.0207 22.5019 13.2183 22.9992 13.2183ZM8.37424 38.2518H19.2552C18.9167 37.5403 18.6876 36.7818 18.5757 36.0018H9.49924V34.1276C9.49924 32.6763 10.676 31.5018 12.125 31.5018H19.2575C19.658 30.6581 20.2025 29.8976 20.864 29.2518H18.4992V18.0018H21.8742V28.4126C22.5515 27.9401 23.3097 27.5688 24.1242 27.3281V17.9996H27.4992V26.9996H29.7492V18.0018H34.2492V27.0018H35.372C35.7545 27.0018 36.1302 27.0288 36.497 27.0828V17.9996H36.7062C38.7155 17.9996 39.5412 15.4188 37.8987 14.2556L24.7362 4.91356C24.2288 4.55306 23.6217 4.35937 22.9992 4.35938C22.3768 4.35938 21.7697 4.55306 21.2622 4.91356L8.09524 14.2556C6.45724 15.4188 7.27849 17.9996 9.28774 17.9996H9.49924V30.0146C8.14699 30.8831 7.24924 32.3996 7.24924 34.1253V37.1246C7.24924 37.4229 7.36776 37.7091 7.57874 37.9201C7.78972 38.131 8.07587 38.2496 8.37424 38.2496V38.2518ZM22.5627 6.75181C22.6894 6.66211 22.8407 6.61394 22.9959 6.61394C23.151 6.61394 23.3024 6.66211 23.429 6.75181L36.1167 15.7518H9.87724L22.565 6.75181H22.5627ZM11.747 29.2631V18.0018H16.247V29.2518H12.1227C11.9967 29.2518 11.8707 29.2563 11.747 29.2653V29.2631ZM26.3742 29.2518C24.8824 29.2518 23.4517 29.8444 22.3968 30.8993C21.3419 31.9542 20.7492 33.385 20.7492 34.8768C20.7492 36.3687 21.3419 37.7994 22.3968 38.8543C23.4517 39.9092 24.8824 40.5018 26.3742 40.5018H27.4992C27.7976 40.5018 28.0838 40.3833 28.2947 40.1723C28.5057 39.9613 28.6242 39.6752 28.6242 39.3768C28.6242 39.0784 28.5057 38.7923 28.2947 38.5813C28.0838 38.3703 27.7976 38.2518 27.4992 38.2518H26.3742C25.4791 38.2518 24.6207 37.8962 23.9878 37.2633C23.3548 36.6304 22.9992 35.7719 22.9992 34.8768C22.9992 33.9817 23.3548 33.1233 23.9878 32.4903C24.6207 31.8574 25.4791 31.5018 26.3742 31.5018H27.4992C27.7976 31.5018 28.0838 31.3833 28.2947 31.1723C28.5057 30.9613 28.6242 30.6752 28.6242 30.3768C28.6242 30.0784 28.5057 29.7923 28.2947 29.5813C28.0838 29.3703 27.7976 29.2518 27.4992 29.2518H26.3742ZM34.2492 29.2518C33.9509 29.2518 33.6647 29.3703 33.4537 29.5813C33.2428 29.7923 33.1242 30.0784 33.1242 30.3768C33.1242 30.6752 33.2428 30.9613 33.4537 31.1723C33.6647 31.3833 33.9509 31.5018 34.2492 31.5018H35.3742C36.2693 31.5018 37.1278 31.8574 37.7607 32.4903C38.3937 33.1233 38.7492 33.9817 38.7492 34.8768C38.7492 35.7719 38.3937 36.6304 37.7607 37.2633C37.1278 37.8962 36.2693 38.2518 35.3742 38.2518H34.2492C33.9509 38.2518 33.6647 38.3703 33.4537 38.5813C33.2428 38.7923 33.1242 39.0784 33.1242 39.3768C33.1242 39.6752 33.2428 39.9613 33.4537 40.1723C33.6647 40.3833 33.9509 40.5018 34.2492 40.5018H35.3742C36.8661 40.5018 38.2968 39.9092 39.3517 38.8543C40.4066 37.7994 40.9992 36.3687 40.9992 34.8768C40.9992 33.385 40.4066 31.9542 39.3517 30.8993C38.2968 29.8444 36.8661 29.2518 35.3742 29.2518H34.2492ZM25.2492 34.8768C25.2492 34.5784 25.3678 34.2923 25.5787 34.0813C25.7897 33.8703 26.0759 33.7518 26.3742 33.7518H35.3742C35.6726 33.7518 35.9588 33.8703 36.1697 34.0813C36.3807 34.2923 36.4992 34.5784 36.4992 34.8768C36.4992 35.1752 36.3807 35.4613 36.1697 35.6723C35.9588 35.8833 35.6726 36.0018 35.3742 36.0018H26.3742C26.0759 36.0018 25.7897 35.8833 25.5787 35.6723C25.3678 35.4613 25.2492 35.1752 25.2492 34.8768Z" fill="#111111"/>
</svg>
