<svg width="46" height="45" viewBox="0 0 46 45" fill="none" xmlns="http://www.w3.org/2000/svg">
<path d="M22.5993 13.2183C23.0967 13.2183 23.5737 13.0207 23.9254 12.669C24.2771 12.3173 24.4747 11.8403 24.4747 11.3429C24.4747 10.8456 24.2771 10.3685 23.9254 10.0168C23.5737 9.66515 23.0967 9.46756 22.5993 9.46756C22.102 9.46756 21.6249 9.66515 21.2732 10.0168C20.9215 10.3685 20.724 10.8456 20.724 11.3429C20.724 11.8403 20.9215 12.3173 21.2732 12.669C21.6249 13.0207 22.102 13.2183 22.5993 13.2183ZM36.0993 30.0168V18.0018H36.3063C38.3156 18.0018 39.1413 15.4188 37.4988 14.2556L24.3363 4.91356C23.8289 4.55306 23.2218 4.35938 22.5993 4.35938C21.9769 4.35938 21.3698 4.55306 20.8623 4.91356L7.69534 14.2556C6.05734 15.4188 6.87859 17.9996 8.88784 17.9996H9.09934V30.0146C7.74709 30.8831 6.84934 32.3996 6.84934 34.1253V37.1246C6.84934 37.4229 6.96786 37.7091 7.17884 37.9201C7.38982 38.131 7.67597 38.2496 7.97434 38.2496H37.2243C37.5227 38.2496 37.8089 38.131 38.0198 37.9201C38.2308 37.7091 38.3493 37.4229 38.3493 37.1246V34.1253C38.3493 32.3996 37.4538 30.8831 36.0993 30.0168ZM22.1628 6.74956C22.2894 6.65986 22.4408 6.61169 22.596 6.61169C22.7511 6.61169 22.9025 6.65986 23.0291 6.74956L35.7168 15.7496H9.47734L22.1651 6.74956H22.1628ZM33.8448 17.9996V29.2631C33.7206 29.2538 33.596 29.2493 33.4713 29.2496H29.3448V18.0018H33.8448V17.9996ZM11.3493 29.2631V18.0018H15.8493V29.2518H11.7228C11.5968 29.2518 11.4708 29.2563 11.3471 29.2653L11.3493 29.2631ZM11.7251 31.4996H33.4758C34.9248 31.4996 36.0993 32.6741 36.0993 34.1253V35.9996H9.09934V34.1253C9.09934 32.6741 10.2761 31.4996 11.7251 31.4996ZM21.4743 29.2496H18.0993V18.0018H21.4743V29.2518V29.2496ZM23.7243 29.2496V18.0018H27.0993V29.2518H23.7243V29.2496Z" fill="#111111"/>
</svg>
