<svg width="24" height="24" viewBox="0 0 24 24" fill="none" xmlns="http://www.w3.org/2000/svg">
<path fill-rule="evenodd" clip-rule="evenodd" d="M16.5158 10.5434C16.6932 9.35586 15.7891 8.71748 14.5527 8.29162L14.9538 6.683L13.9743 6.43897L13.5839 8.0052C13.3268 7.94106 13.0624 7.88054 12.7997 7.82058L13.1929 6.24403L12.2143 6L11.813 7.60807C11.5999 7.55954 11.3907 7.51157 11.1877 7.46109L11.1888 7.45607L9.83843 7.1189L9.57795 8.16473C9.57795 8.16473 10.3044 8.33122 10.2891 8.34154C10.6857 8.44055 10.7576 8.70298 10.7454 8.91103L10.2886 10.7436C10.3159 10.7506 10.3513 10.7606 10.3903 10.7762L10.2872 10.7506L9.64655 13.3177C9.59803 13.4382 9.47504 13.6189 9.19782 13.5503C9.20758 13.5646 8.4861 13.3727 8.4861 13.3727L8 14.4938L9.27452 14.8115C9.41839 14.8475 9.56051 14.8846 9.70108 14.9213C9.79212 14.945 9.88251 14.9686 9.97229 14.9916L9.56707 16.6189L10.5451 16.863L10.9467 15.2532C11.2136 15.3257 11.473 15.3927 11.7268 15.4557L11.3269 17.0579L12.306 17.3019L12.7113 15.678C14.381 15.9939 15.6368 15.8665 16.1647 14.3566C16.5906 13.1406 16.1438 12.4392 15.2653 11.9816C15.9051 11.8335 16.387 11.4127 16.5156 10.5434H16.5158ZM14.2787 13.681C14.0007 14.797 12.2535 14.3353 11.4548 14.1242L11.4546 14.1241C11.3831 14.1052 11.3193 14.0884 11.2648 14.0748L11.8024 11.9193C11.8692 11.9359 11.9507 11.9542 12.043 11.9749L12.043 11.9749C12.8693 12.1603 14.5627 12.5403 14.279 13.681H14.2787ZM12.2085 10.9744C12.875 11.1522 14.3277 11.5398 14.5808 10.526C14.8395 9.4888 13.4269 9.1762 12.737 9.02353C12.6594 9.00637 12.591 8.99122 12.5351 8.9773L12.0476 10.9323C12.0937 10.9438 12.1479 10.9582 12.2085 10.9744Z" fill="#A5912B"/>
<path d="M22 12C22 17.52 17.52 22 12 22C6.48 22 2 17.52 2 12C2 6.48 6.48 2 12 2" stroke="#55676B" stroke-width="1.5" stroke-linecap="round" stroke-linejoin="round"/>
<path d="M17 3V7H21" stroke="#A5912B" stroke-width="1.5" stroke-linecap="round" stroke-linejoin="round"/>
<path d="M22 2L17 7" stroke="#A5912B" stroke-width="1.5" stroke-linecap="round" stroke-linejoin="round"/>
</svg>
