<svg width="25" height="24" viewBox="0 0 25 24" fill="none" xmlns="http://www.w3.org/2000/svg">
<path d="M23.3848 16.5H18.8848V12H17.3848V16.5H12.8848V18H17.3848V22.5H18.8848V18H23.3848V16.5Z" fill="black"/>
<path d="M21.8848 4.5C21.8848 3.675 21.2098 3 20.3848 3H17.3848V1.5H15.8848V3H9.88477V1.5H8.38477V3H5.38477C4.55977 3 3.88477 3.675 3.88477 4.5V19.5C3.88477 20.325 4.55977 21 5.38477 21H11.3848V19.5H5.38477V4.5H8.38477V6H9.88477V4.5H15.8848V6H17.3848V4.5H20.3848V10.5H21.8848V4.5Z" fill="black"/>
</svg>
