<svg width="16" height="16" viewBox="0 0 16 16" fill="none" xmlns="http://www.w3.org/2000/svg">
<path fill-rule="evenodd" clip-rule="evenodd" d="M13.7791 6.60254H1.89648C1.62048 6.60254 1.39648 6.37854 1.39648 6.10254C1.39648 5.82654 1.62048 5.60254 1.89648 5.60254H13.7791C14.0551 5.60254 14.2791 5.82654 14.2791 6.10254C14.2791 6.37854 14.0551 6.60254 13.7791 6.60254" fill="#130F26"/>
<path fill-rule="evenodd" clip-rule="evenodd" d="M10.8015 9.20605C10.5255 9.20605 10.2988 8.98205 10.2988 8.70605C10.2988 8.43005 10.5195 8.20605 10.7955 8.20605H10.8015C11.0775 8.20605 11.3015 8.43005 11.3015 8.70605C11.3015 8.98205 11.0775 9.20605 10.8015 9.20605" fill="#130F26"/>
<path fill-rule="evenodd" clip-rule="evenodd" d="M7.84251 9.20605C7.56651 9.20605 7.33984 8.98205 7.33984 8.70605C7.33984 8.43005 7.56051 8.20605 7.83651 8.20605H7.84251C8.11851 8.20605 8.34251 8.43005 8.34251 8.70605C8.34251 8.98205 8.11851 9.20605 7.84251 9.20605" fill="#130F26"/>
<path fill-rule="evenodd" clip-rule="evenodd" d="M4.87833 9.20605C4.60233 9.20605 4.375 8.98205 4.375 8.70605C4.375 8.43005 4.59633 8.20605 4.87233 8.20605H4.87833C5.15433 8.20605 5.37833 8.43005 5.37833 8.70605C5.37833 8.98205 5.15433 9.20605 4.87833 9.20605" fill="#130F26"/>
<path fill-rule="evenodd" clip-rule="evenodd" d="M10.8015 11.7974C10.5255 11.7974 10.2988 11.5734 10.2988 11.2974C10.2988 11.0214 10.5195 10.7974 10.7955 10.7974H10.8015C11.0775 10.7974 11.3015 11.0214 11.3015 11.2974C11.3015 11.5734 11.0775 11.7974 10.8015 11.7974" fill="#130F26"/>
<path fill-rule="evenodd" clip-rule="evenodd" d="M7.84251 11.7974C7.56651 11.7974 7.33984 11.5734 7.33984 11.2974C7.33984 11.0214 7.56051 10.7974 7.83651 10.7974H7.84251C8.11851 10.7974 8.34251 11.0214 8.34251 11.2974C8.34251 11.5734 8.11851 11.7974 7.84251 11.7974" fill="#130F26"/>
<path fill-rule="evenodd" clip-rule="evenodd" d="M4.87833 11.7974C4.60233 11.7974 4.375 11.5734 4.375 11.2974C4.375 11.0214 4.59633 10.7974 4.87233 10.7974H4.87833C5.15433 10.7974 5.37833 11.0214 5.37833 11.2974C5.37833 11.5734 5.15433 11.7974 4.87833 11.7974" fill="#130F26"/>
<path fill-rule="evenodd" clip-rule="evenodd" d="M10.5293 3.8605C10.2533 3.8605 10.0293 3.6365 10.0293 3.3605V1.1665C10.0293 0.890504 10.2533 0.666504 10.5293 0.666504C10.8053 0.666504 11.0293 0.890504 11.0293 1.1665V3.3605C11.0293 3.6365 10.8053 3.8605 10.5293 3.8605" fill="#130F26"/>
<path fill-rule="evenodd" clip-rule="evenodd" d="M5.14453 3.8605C4.86853 3.8605 4.64453 3.6365 4.64453 3.3605V1.1665C4.64453 0.890504 4.86853 0.666504 5.14453 0.666504C5.42053 0.666504 5.64453 0.890504 5.64453 1.1665V3.3605C5.64453 3.6365 5.42053 3.8605 5.14453 3.8605" fill="#130F26"/>
<mask id="mask0_3699_89591" style="mask-type:alpha" maskUnits="userSpaceOnUse" x="1" y="1" width="14" height="14">
<path fill-rule="evenodd" clip-rule="evenodd" d="M1.33398 1.71924H14.334V14.9998H1.33398V1.71924Z" fill="white"/>
</mask>
<g mask="url(#mask0_3699_89591)">
<path fill-rule="evenodd" clip-rule="evenodd" d="M5.01465 2.71924C3.28598 2.71924 2.33398 3.64124 2.33398 5.31524V11.3479C2.33398 13.0586 3.28598 13.9999 5.01465 13.9999H10.6533C12.382 13.9999 13.334 13.0759 13.334 11.3986V5.31524C13.3367 4.49191 13.1153 3.85191 12.676 3.41191C12.224 2.95857 11.5273 2.71924 10.6593 2.71924H5.01465ZM10.6533 14.9999H5.01465C2.74465 14.9999 1.33398 13.6006 1.33398 11.3479V5.31524C1.33398 3.09657 2.74465 1.71924 5.01465 1.71924H10.6593C11.7987 1.71924 12.7407 2.06057 13.384 2.70524C14.0087 3.33257 14.3373 4.23457 14.334 5.31657V11.3986C14.334 13.6199 12.9233 14.9999 10.6533 14.9999V14.9999Z" fill="#130F26"/>
</g>
</svg>
