<svg width="19" height="19" viewBox="0 0 19 19" fill="none" xmlns="http://www.w3.org/2000/svg">
<g clip-path="url(#clip0_8701_146243)">
<path d="M17.582 3.875H14.4883V1.90625H13.3633V3.875H6.61328V1.90625H5.48828V3.875H2.39453C2.17083 3.87526 1.95638 3.96424 1.7982 4.12242C1.64002 4.28059 1.55104 4.49505 1.55078 4.71875V16.5312C1.55104 16.7549 1.64002 16.9694 1.7982 17.1276C1.95638 17.2858 2.17083 17.3747 2.39453 17.375H17.582C17.8057 17.3747 18.0202 17.2858 18.1784 17.1276C18.3365 16.9694 18.4255 16.7549 18.4258 16.5312V4.71875C18.4255 4.49505 18.3365 4.28059 18.1784 4.12242C18.0202 3.96424 17.8057 3.87526 17.582 3.875ZM17.3008 16.25H2.67578V5H5.48828V6.40625H6.61328V5H13.3633V6.40625H14.4883V5H17.3008V16.25Z" fill="#22C55E"/>
<path d="M9.5451 11.5152L7.63313 9.60323L6.83765 10.3987L9.5451 13.1062L13.9613 8.69001L13.1657 7.89453L9.5451 11.5152Z" fill="#22C55E"/>
</g>
<defs>
<clipPath id="clip0_8701_146243">
<rect width="18" height="18" fill="white" transform="translate(0.988281 0.5)"/>
</clipPath>
</defs>
</svg>
