<svg width="41" height="40" viewBox="0 0 41 40" fill="none" xmlns="http://www.w3.org/2000/svg">
<g clip-path="url(#clip0_6363_141781)">
<path d="M5.31885 13.3307C5.31885 14.2474 6.06885 14.9974 6.98551 14.9974C7.90218 14.9974 8.65218 14.2474 8.65218 13.3307V9.9974H11.9855C12.9022 9.9974 13.6522 9.2474 13.6522 8.33073C13.6522 7.41406 12.9022 6.66406 11.9855 6.66406H8.65218V3.33073C8.65218 2.41406 7.90218 1.66406 6.98551 1.66406C6.06885 1.66406 5.31885 2.41406 5.31885 3.33073V6.66406H1.98551C1.06885 6.66406 0.318848 7.41406 0.318848 8.33073C0.318848 9.2474 1.06885 9.9974 1.98551 9.9974H5.31885V13.3307Z" fill="#008AA7"/>
<path d="M21.9856 28.3359C24.747 28.3359 26.9856 26.0974 26.9856 23.3359C26.9856 20.5745 24.747 18.3359 21.9856 18.3359C19.2242 18.3359 16.9856 20.5745 16.9856 23.3359C16.9856 26.0974 19.2242 28.3359 21.9856 28.3359Z" fill="#008AA7"/>
<path d="M35.3188 9.9974H30.0355L27.9688 7.7474C27.6583 7.40638 27.2799 7.13391 26.8581 6.94737C26.4362 6.76084 25.9801 6.66435 25.5188 6.66406H14.8522C15.1355 7.16406 15.3188 7.71406 15.3188 8.33073C15.3188 10.1641 13.8188 11.6641 11.9855 11.6641H10.3188V13.3307C10.3188 15.1641 8.81885 16.6641 6.98551 16.6641C6.36885 16.6641 5.81885 16.4807 5.31885 16.1974V33.3307C5.31885 35.1641 6.81885 36.6641 8.65218 36.6641H35.3188C37.1522 36.6641 38.6522 35.1641 38.6522 33.3307V13.3307C38.6522 11.4974 37.1522 9.9974 35.3188 9.9974ZM21.9855 31.6641C17.3855 31.6641 13.6522 27.9307 13.6522 23.3307C13.6522 18.7307 17.3855 14.9974 21.9855 14.9974C26.5855 14.9974 30.3188 18.7307 30.3188 23.3307C30.3188 27.9307 26.5855 31.6641 21.9855 31.6641Z" fill="#008AA7"/>
</g>
<defs>
<clipPath id="clip0_6363_141781">
<rect width="40" height="40" fill="white" transform="translate(0.318848)"/>
</clipPath>
</defs>
</svg>
