<svg width="12" height="12" viewBox="0 0 12 12" fill="none" xmlns="http://www.w3.org/2000/svg">
<path d="M0.240853 0.5064C0.317007 0.430077 0.407475 0.369524 0.507076 0.328208C0.606676 0.286891 0.713452 0.265625 0.821287 0.265625C0.929121 0.265625 1.0359 0.286891 1.1355 0.328208C1.2351 0.369524 1.32557 0.430077 1.40172 0.5064L5.74021 4.84513L10.0787 0.5064C10.1549 0.430201 10.2454 0.369756 10.345 0.328518C10.4446 0.287279 10.5513 0.266054 10.6591 0.266054C10.7669 0.266054 10.8737 0.287279 10.9733 0.328518C11.0729 0.369756 11.1634 0.430201 11.2396 0.5064C11.3158 0.582599 11.3763 0.67306 11.4175 0.772619C11.4588 0.872177 11.48 0.978884 11.48 1.08665C11.48 1.19441 11.4588 1.30111 11.4175 1.40067C11.3763 1.50023 11.3158 1.59069 11.2396 1.66689L6.89944 6.00398L11.2396 10.3411C11.3158 10.4173 11.3763 10.5077 11.4175 10.6073C11.4588 10.7068 11.48 10.8136 11.48 10.9213C11.48 11.0291 11.4588 11.1358 11.4175 11.2353C11.3763 11.3349 11.3158 11.4254 11.2396 11.5016C11.1634 11.5778 11.0729 11.6382 10.9733 11.6794C10.8737 11.7207 10.7669 11.7419 10.6591 11.7419C10.5513 11.7419 10.4446 11.7207 10.345 11.6794C10.2454 11.6382 10.1549 11.5778 10.0787 11.5016L5.74021 7.16283L1.40172 11.5016C1.3255 11.5778 1.23501 11.6382 1.13542 11.6794C1.03582 11.7207 0.929083 11.7419 0.821287 11.7419C0.71349 11.7419 0.606749 11.7207 0.507158 11.6794C0.407567 11.6382 0.317076 11.5778 0.240853 11.5016C0.164629 11.4254 0.104165 11.3349 0.0629133 11.2353C0.0216614 11.1358 0.000429232 11.0291 0.000429232 10.9213C0.000429232 10.8136 0.0216614 10.7068 0.0629133 10.6073C0.104165 10.5077 0.164629 10.4173 0.240853 10.3411L4.58099 6.00398L0.240853 1.66689C0.164506 1.59076 0.103932 1.50032 0.0626029 1.40075C0.0212734 1.30119 0 1.19445 0 1.08665C0 0.978846 0.0212734 0.872105 0.0626029 0.772536C0.103932 0.672968 0.164506 0.582529 0.240853 0.5064Z" fill="black"/>
</svg>
