<svg width="20" height="20" viewBox="0 0 20 20" fill="none" xmlns="http://www.w3.org/2000/svg">
<path d="M10 0.101562C4.624 0.101562 0.25 4.47556 0.25 9.85156C0.25 15.2276 4.624 19.6016 10 19.6016C15.376 19.6016 19.75 15.2276 19.75 9.85156C19.75 4.47556 15.376 0.101562 10 0.101562ZM10 1.60156C14.5653 1.60156 18.25 5.28631 18.25 9.85156C18.25 11.8961 17.5075 13.7561 16.2812 15.1953L4.7725 3.45406C6.24759 2.24929 8.09545 1.59446 10 1.60156ZM3.71875 4.50781L15.2275 16.2491C13.7524 17.4538 11.9046 18.1087 10 18.1016C5.43475 18.1016 1.75 14.4168 1.75 9.85156C1.75 7.80706 2.4925 5.94706 3.71875 4.50781Z" fill="white"/>
</svg>
