<svg width="70" height="59" viewBox="0 0 70 59" fill="none" xmlns="http://www.w3.org/2000/svg">
<path d="M48.3517 0.534221L16.2942 8.00011C15.0272 8.2952 14.2392 9.5616 14.5343 10.8287L18.9265 29.6881C19.2216 30.9551 20.488 31.7431 21.7551 31.448L53.8125 23.9821C55.0795 23.687 55.8675 22.4206 55.5724 21.1535L51.1802 2.29416C50.8851 1.02708 49.6187 0.23913 48.3517 0.534221Z" fill="#111827"/>
<path d="M21.2213 31.7372C20.6385 31.7362 20.0732 31.5386 19.6168 31.1764C19.1604 30.8141 18.8395 30.3084 18.7063 29.7411L14.3136 10.88C14.1586 10.2137 14.2739 9.5131 14.6344 8.93165C14.9949 8.35019 15.5711 7.93531 16.2368 7.77787L48.3009 0.310357C48.9682 0.155493 49.6697 0.271756 50.2513 0.63362C50.8329 0.995483 51.2472 1.57337 51.4031 2.24039L55.7958 21.1015C55.8731 21.4316 55.8845 21.7738 55.8294 22.1083C55.7744 22.4429 55.6538 22.7633 55.4748 23.0512C55.2957 23.3392 55.0616 23.589 54.7859 23.7863C54.5102 23.9837 54.1983 24.1247 53.868 24.2014V24.2014L21.8085 31.6712C21.6159 31.7155 21.4189 31.7376 21.2213 31.7372V31.7372ZM48.8881 0.697276C48.7256 0.697226 48.5637 0.716324 48.4056 0.754176L16.3461 8.22169C16.0736 8.28445 15.8162 8.40034 15.5886 8.56272C15.361 8.7251 15.1677 8.93079 15.0197 9.16799C14.8717 9.4052 14.772 9.66928 14.7262 9.94509C14.6804 10.2209 14.6895 10.503 14.7529 10.7753L19.1501 29.641C19.278 30.1896 19.618 30.6653 20.0957 30.9639C20.5735 31.2624 21.15 31.3596 21.6992 31.2342L53.7565 23.7667C54.0288 23.7036 54.286 23.5876 54.5134 23.4251C54.7409 23.2627 54.9341 23.057 55.082 22.8199C55.23 22.5827 55.3298 22.3188 55.3757 22.0431C55.4216 21.7673 55.4128 21.4853 55.3497 21.213L50.9593 2.34281C50.85 1.87525 50.586 1.45832 50.2101 1.15963C49.8341 0.860943 49.3683 0.698016 48.8881 0.697276V0.697276Z" fill="white"/>
<path d="M52.0077 5.84781L15.3618 14.3823L16.4475 19.044L53.0934 10.5095L52.0077 5.84781Z" fill="white"/>
<path d="M16.4484 19.2712C16.3958 19.2724 16.3444 19.2555 16.3029 19.2231C16.2614 19.1907 16.2324 19.145 16.2208 19.0936L15.1352 14.4324C15.1215 14.3741 15.1313 14.3128 15.1625 14.2617C15.1781 14.2362 15.1986 14.214 15.2229 14.1965C15.2471 14.1789 15.2745 14.1663 15.3036 14.1593L51.947 5.62207C51.9761 5.61533 52.0063 5.61439 52.0358 5.61932C52.0653 5.62425 52.0936 5.63495 52.1189 5.65081C52.1443 5.66666 52.1663 5.68736 52.1836 5.71172C52.201 5.73608 52.2134 5.76362 52.2201 5.79277L53.308 10.454C53.3148 10.4833 53.3156 10.5138 53.3106 10.5434C53.3055 10.5731 53.2946 10.6015 53.2784 10.627C53.2464 10.6776 53.1957 10.7136 53.1373 10.7271L16.494 19.2643C16.4791 19.2683 16.4638 19.2706 16.4484 19.2712ZM15.6359 14.5508L16.6191 18.7682L52.821 10.347L51.8377 6.12962L15.6359 14.5508Z" fill="white"/>
<g filter="url(#filter0_d_1142_7030)">
<path d="M59.3439 10.6091H26.4286C25.1277 10.6091 24.073 11.6638 24.073 12.9648V32.3289C24.073 33.6299 25.1277 34.6845 26.4286 34.6845H59.3439C60.6449 34.6845 61.6996 33.6299 61.6996 32.3289V12.9648C61.6996 11.6638 60.6449 10.6091 59.3439 10.6091Z" fill="#008AA8"/>
</g>
<path d="M59.344 34.914H26.4264C25.7419 34.9128 25.0858 34.6401 24.6019 34.1559C24.1181 33.6716 23.8461 33.0153 23.8455 32.3307V12.9643C23.8461 12.2798 24.1181 11.6234 24.6019 11.1392C25.0858 10.6549 25.7419 10.3823 26.4264 10.3811H59.344C60.0289 10.3817 60.6857 10.6541 61.17 11.1384C61.6543 11.6227 61.9267 12.2794 61.9273 12.9643V32.3307C61.9267 33.0156 61.6543 33.6724 61.17 34.1567C60.6857 34.641 60.0289 34.9134 59.344 34.914V34.914ZM26.4264 10.8363C25.8626 10.8375 25.3223 11.0622 24.9238 11.4611C24.5253 11.86 24.3013 12.4005 24.3007 12.9643V32.3307C24.3007 32.8947 24.5245 33.4356 24.9231 33.8347C25.3217 34.2337 25.8624 34.4582 26.4264 34.4588H59.344C59.9084 34.4588 60.4497 34.2346 60.8488 33.8355C61.2479 33.4364 61.4721 32.8951 61.4721 32.3307V12.9643C61.4715 12.4001 61.2471 11.8592 60.8481 11.4603C60.4491 11.0613 59.9082 10.8369 59.344 10.8363H26.4264Z" fill="#008AA8"/>
<path d="M50.2173 21.1738C51.6792 21.1738 52.8643 19.9887 52.8643 18.5269C52.8643 17.065 51.6792 15.8799 50.2173 15.8799C48.7554 15.8799 47.5703 17.065 47.5703 18.5269C47.5703 19.9887 48.7554 21.1738 50.2173 21.1738Z" fill="#FACC15"/>
<path d="M50.2173 21.401C49.6487 21.4014 49.0927 21.2332 48.6197 20.9177C48.1466 20.6021 47.7778 20.1533 47.5599 19.6281C47.342 19.1028 47.2848 18.5248 47.3954 17.967C47.5061 17.4093 47.7797 16.8968 48.1816 16.4946C48.5835 16.0924 49.0957 15.8184 49.6534 15.7073C50.2111 15.5962 50.7892 15.6529 51.3145 15.8705C51.8399 16.088 52.289 16.4564 52.605 16.9292C52.921 17.4019 53.0896 17.9578 53.0896 18.5264C53.0884 19.288 52.7855 20.0182 52.2471 20.5569C51.7088 21.0957 50.9789 21.3992 50.2173 21.401ZM50.2173 16.1093C49.7386 16.1089 49.2705 16.2504 48.8723 16.5161C48.4741 16.7818 48.1637 17.1596 47.9803 17.6018C47.7969 18.044 47.7488 18.5306 47.842 19.0001C47.9353 19.4697 48.1658 19.901 48.5043 20.2395C48.8428 20.5779 49.2741 20.8084 49.7436 20.9017C50.2131 20.995 50.6998 20.9469 51.1419 20.7635C51.5841 20.5801 51.9619 20.2696 52.2276 19.8714C52.4933 19.4732 52.6349 19.0051 52.6344 18.5264C52.6332 17.8857 52.3782 17.2716 51.9251 16.8186C51.4721 16.3656 50.858 16.1105 50.2173 16.1093Z" fill="#FACC15"/>
<path d="M54.3505 21.1738C55.8123 21.1738 56.9974 19.9887 56.9974 18.5269C56.9974 17.065 55.8123 15.8799 54.3505 15.8799C52.8886 15.8799 51.7035 17.065 51.7035 18.5269C51.7035 19.9887 52.8886 21.1738 54.3505 21.1738Z" fill="#FB923C"/>
<path d="M54.3505 21.401C53.7818 21.4014 53.2259 21.2332 52.7528 20.9177C52.2798 20.6021 51.911 20.1533 51.6931 19.6281C51.4752 19.1028 51.4179 18.5248 51.5286 17.967C51.6392 17.4093 51.9128 16.8968 52.3148 16.4946C52.7167 16.0924 53.2289 15.8184 53.7866 15.7073C54.3442 15.5962 54.9223 15.6529 55.4477 15.8705C55.9731 16.088 56.4222 16.4564 56.7382 16.9292C57.0541 17.4019 57.2228 17.9578 57.2228 18.5264C57.2216 19.288 56.9186 20.0182 56.3803 20.5569C55.842 21.0957 55.1121 21.3992 54.3505 21.401ZM54.3505 16.1093C53.8718 16.1089 53.4037 16.2504 53.0055 16.5161C52.6073 16.7818 52.2968 17.1596 52.1134 17.6018C51.93 18.044 51.8819 18.5306 51.9752 19.0001C52.0685 19.4697 52.299 19.901 52.6375 20.2395C52.9759 20.5779 53.4072 20.8084 53.8768 20.9017C54.3463 20.995 54.8329 20.9469 55.2751 20.7635C55.7173 20.5801 56.0951 20.2696 56.3608 19.8714C56.6265 19.4732 56.768 19.0051 56.7676 18.5264C56.7664 17.8857 56.5113 17.2716 56.0583 16.8186C55.6053 16.3656 54.9912 16.1105 54.3505 16.1093Z" fill="#FB923C"/>
<path d="M32.0276 21.3877H29.499C29.0754 21.3877 28.669 21.2202 28.3684 20.9218C28.0678 20.6233 27.8974 20.2181 27.8944 19.7945V17.2568C27.8944 17.0466 27.936 16.8385 28.0168 16.6445C28.0975 16.4504 28.2159 16.2743 28.3651 16.1262C28.5142 15.9781 28.6912 15.861 28.8858 15.7816C29.0804 15.7022 29.2888 15.6621 29.499 15.6636H32.0276C32.4501 15.6636 32.8554 15.8315 33.1542 16.1303C33.4529 16.429 33.6208 16.8343 33.6208 17.2568V19.7854C33.6202 20.2086 33.4524 20.6145 33.154 20.9146C32.8557 21.2147 32.4508 21.3847 32.0276 21.3877V21.3877ZM29.499 16.1097C29.3486 16.1082 29.1994 16.1365 29.06 16.193C28.9206 16.2496 28.7938 16.3331 28.6869 16.439C28.58 16.5448 28.4952 16.6708 28.4373 16.8096C28.3794 16.9484 28.3496 17.0973 28.3496 17.2477V19.7854C28.3496 19.9358 28.3794 20.0847 28.4373 20.2236C28.4952 20.3624 28.58 20.4883 28.6869 20.5942C28.7938 20.7 28.9206 20.7836 29.06 20.8401C29.1994 20.8966 29.3486 20.9249 29.499 20.9234H32.0276C32.3294 20.9234 32.6189 20.8035 32.8323 20.5901C33.0457 20.3767 33.1656 20.0872 33.1656 19.7854V17.2568C33.1656 16.955 33.0457 16.6655 32.8323 16.4521C32.6189 16.2387 32.3294 16.1188 32.0276 16.1188L29.499 16.1097Z" fill="#FFB9AA"/>
<path d="M34.3741 29.6404H28.122C28.0616 29.6404 28.0038 29.6164 27.9611 29.5737C27.9184 29.5311 27.8944 29.4732 27.8944 29.4128V26.7476C27.8944 26.6873 27.9184 26.6294 27.9611 26.5867C28.0038 26.544 28.0616 26.52 28.122 26.52H34.3741C34.4345 26.52 34.4924 26.544 34.5351 26.5867C34.5778 26.6294 34.6017 26.6873 34.6017 26.7476V29.4128C34.6017 29.4732 34.5778 29.5311 34.5351 29.5737C34.4924 29.6164 34.4345 29.6404 34.3741 29.6404ZM28.3496 29.1852H34.1465V26.9752H28.3496V29.1852Z" fill="#FFB9AA"/>
<path d="M42.1329 29.6404H35.8808C35.8204 29.6404 35.7625 29.6164 35.7199 29.5737C35.6772 29.5311 35.6532 29.4732 35.6532 29.4128V26.7476C35.6532 26.6873 35.6772 26.6294 35.7199 26.5867C35.7625 26.544 35.8204 26.52 35.8808 26.52H42.1329C42.1933 26.52 42.2512 26.544 42.2939 26.5867C42.3365 26.6294 42.3605 26.6873 42.3605 26.7476V29.4128C42.3605 29.4732 42.3365 29.5311 42.2939 29.5737C42.2512 29.6164 42.1933 29.6404 42.1329 29.6404ZM36.1084 29.1852H41.9053V26.9752H36.1084V29.1852Z" fill="#FFB9AA"/>
<path d="M49.8894 29.6404H43.6396C43.5792 29.6404 43.5213 29.6164 43.4786 29.5737C43.436 29.5311 43.412 29.4732 43.412 29.4128V26.7476C43.412 26.6873 43.436 26.6294 43.4786 26.5867C43.5213 26.544 43.5792 26.52 43.6396 26.52H49.8894C49.9498 26.52 50.0077 26.544 50.0504 26.5867C50.0931 26.6294 50.117 26.6873 50.117 26.7476V29.4128C50.117 29.4732 50.0931 29.5311 50.0504 29.5737C50.0077 29.6164 49.9498 29.6404 49.8894 29.6404ZM43.8672 29.1852H49.6618V26.9752H43.8672V29.1852Z" fill="#FFB9AA"/>
<path d="M57.6597 29.6404H51.3985C51.3381 29.6404 51.2802 29.6164 51.2376 29.5737C51.1949 29.5311 51.1709 29.4732 51.1709 29.4128V26.7476C51.1709 26.6873 51.1949 26.6294 51.2376 26.5867C51.2802 26.544 51.3381 26.52 51.3985 26.52H57.6597C57.7201 26.52 57.778 26.544 57.8207 26.5867C57.8634 26.6294 57.8873 26.6873 57.8873 26.7476V29.4128C57.8873 29.4732 57.8634 29.5311 57.8207 29.5737C57.778 29.6164 57.7201 29.6404 57.6597 29.6404ZM51.6375 29.1852H57.4321V26.9752H51.6261L51.6375 29.1852Z" fill="#FFB9AA"/>
<defs>
<filter id="filter0_d_1142_7030" x="0.072998" y="2.60913" width="69.6266" height="56.0754" filterUnits="userSpaceOnUse" color-interpolation-filters="sRGB">
<feFlood flood-opacity="0" result="BackgroundImageFix"/>
<feColorMatrix in="SourceAlpha" type="matrix" values="0 0 0 0 0 0 0 0 0 0 0 0 0 0 0 0 0 0 127 0" result="hardAlpha"/>
<feOffset dx="-8" dy="8"/>
<feGaussianBlur stdDeviation="8"/>
<feComposite in2="hardAlpha" operator="out"/>
<feColorMatrix type="matrix" values="0 0 0 0 0.419608 0 0 0 0 0.447059 0 0 0 0 0.501961 0 0 0 0.15 0"/>
<feBlend mode="normal" in2="BackgroundImageFix" result="effect1_dropShadow_1142_7030"/>
<feBlend mode="normal" in="SourceGraphic" in2="effect1_dropShadow_1142_7030" result="shape"/>
</filter>
</defs>
</svg>
