<svg width="32" height="33" viewBox="0 0 32 33" fill="none" xmlns="http://www.w3.org/2000/svg">
<circle cx="16" cy="16.5" r="16" fill="#008AA7"/>
<path d="M8 12.5C8 11.9696 8.21071 11.4609 8.58579 11.0858C8.96086 10.7107 9.46957 10.5 10 10.5H22C22.5304 10.5 23.0391 10.7107 23.4142 11.0858C23.7893 11.4609 24 11.9696 24 12.5V20.5C24 21.0304 23.7893 21.5391 23.4142 21.9142C23.0391 22.2893 22.5304 22.5 22 22.5H10C9.46957 22.5 8.96086 22.2893 8.58579 21.9142C8.21071 21.5391 8 21.0304 8 20.5V12.5ZM10 11.5C9.73478 11.5 9.48043 11.6054 9.29289 11.7929C9.10536 11.9804 9 12.2348 9 12.5V13.5H23V12.5C23 12.2348 22.8946 11.9804 22.7071 11.7929C22.5196 11.6054 22.2652 11.5 22 11.5H10ZM23 15.5H9V20.5C9 20.7652 9.10536 21.0196 9.29289 21.2071C9.48043 21.3946 9.73478 21.5 10 21.5H22C22.2652 21.5 22.5196 21.3946 22.7071 21.2071C22.8946 21.0196 23 20.7652 23 20.5V15.5Z" fill="white"/>
<path d="M10 18.5C10 18.2348 10.1054 17.9804 10.2929 17.7929C10.4804 17.6054 10.7348 17.5 11 17.5H12C12.2652 17.5 12.5196 17.6054 12.7071 17.7929C12.8946 17.9804 13 18.2348 13 18.5V19.5C13 19.7652 12.8946 20.0196 12.7071 20.2071C12.5196 20.3946 12.2652 20.5 12 20.5H11C10.7348 20.5 10.4804 20.3946 10.2929 20.2071C10.1054 20.0196 10 19.7652 10 19.5V18.5Z" fill="white"/>
</svg>
