<svg width="30" height="31" viewBox="0 0 30 31" fill="none" xmlns="http://www.w3.org/2000/svg">
<circle cx="15" cy="15.5" r="15" fill="#008AA7"/>
<path d="M15 9.875C15.3169 9.87494 15.633 9.90634 15.9438 9.96875C16.9256 10.1568 17.8285 10.6348 18.536 11.3412C19.2434 12.0475 19.7229 12.9497 19.9125 13.9313L20.075 14.775L20.9188 14.925C21.771 15.0716 22.5366 15.5339 23.0631 16.2199C23.5895 16.9059 23.8381 17.7651 23.7593 18.6262C23.6804 19.4874 23.2799 20.2871 22.6376 20.8661C21.9953 21.445 21.1584 21.7607 20.2938 21.75H9.6875C8.82285 21.7607 7.98594 21.445 7.34364 20.8661C6.70134 20.2871 6.30083 19.4874 6.22197 18.6262C6.14312 17.7651 6.3917 16.9059 6.91816 16.2199C7.44463 15.5339 8.21029 15.0716 9.0625 14.925L9.9 14.775L10.0625 13.9313C10.2828 12.7852 10.897 11.7523 11.7987 11.0115C12.7005 10.2707 13.833 9.86862 15 9.875ZM15 8.625C13.5454 8.62379 12.1359 9.13 11.0144 10.0564C9.89295 10.9828 9.12972 12.2713 8.85625 13.7C7.70521 13.9084 6.67368 14.5396 5.96426 15.4697C5.25485 16.3998 4.91883 17.5615 5.02219 18.7267C5.12555 19.8919 5.66083 20.9763 6.52289 21.767C7.38496 22.5577 8.5115 22.9975 9.68125 23H20.3063C21.476 22.9975 22.6025 22.5577 23.4646 21.767C24.3267 20.9763 24.8619 19.8919 24.9653 18.7267C25.0687 17.5615 24.7326 16.3998 24.0232 15.4697C23.3138 14.5396 22.2823 13.9084 21.1313 13.7C20.8958 12.4711 20.297 11.3412 19.4123 10.4565C18.5275 9.57173 17.3976 8.97291 16.1688 8.7375C15.7834 8.66437 15.3922 8.62672 15 8.625Z" fill="white"/>
</svg>
