<svg width="25" height="24" viewBox="0 0 25 24" fill="none" xmlns="http://www.w3.org/2000/svg">
<path d="M4.23828 4.5C3.00453 4.5 1.98828 5.51625 1.98828 6.75V17.25C1.98828 18.4838 3.00453 19.5 4.23828 19.5H20.7383C21.972 19.5 22.9883 18.4838 22.9883 17.25V6.75C22.9883 5.51625 21.972 4.5 20.7383 4.5H4.23828ZM4.23828 6H20.7383C21.1628 6 21.4883 6.3255 21.4883 6.75V17.25C21.4883 17.6745 21.1628 18 20.7383 18H4.23828C3.81378 18 3.48828 17.6745 3.48828 17.25V6.75C3.48828 6.3255 3.81378 6 4.23828 6ZM8.73828 7.5C7.08828 7.5 5.73828 8.85 5.73828 10.5C5.73828 11.3348 6.09603 12.0877 6.65253 12.633C6.14202 12.9775 5.7235 13.4416 5.43343 13.9849C5.14336 14.5282 4.99054 15.1341 4.98828 15.75H6.48828C6.48828 14.499 7.48728 13.5 8.73828 13.5C9.98928 13.5 10.9883 14.499 10.9883 15.75H12.4883C12.486 15.1341 12.3332 14.5282 12.0431 13.9849C11.7531 13.4416 11.3345 12.9775 10.824 12.633C11.3805 12.0877 11.7383 11.3355 11.7383 10.5C11.7383 8.85 10.3883 7.5 8.73828 7.5ZM13.9883 8.25V9.75H19.9883V8.25H13.9883ZM8.73828 9C9.57603 9 10.2383 9.66225 10.2383 10.5C10.2383 11.3377 9.57603 12 8.73828 12C7.90053 12 7.23828 11.3377 7.23828 10.5C7.23828 9.66225 7.90053 9 8.73828 9ZM13.9883 11.25V12.75H19.9883V11.25H13.9883ZM13.9883 14.25V15.75H17.7383V14.25H13.9883Z" fill="#008AA7"/>
</svg>
