<svg width="20" height="19" viewBox="0 0 20 19" fill="none" xmlns="http://www.w3.org/2000/svg">
<path d="M4.543 4.33456C5.87441 3.21644 7.51793 2.53557 9.25 2.38456V4.10156C9.25 4.30047 9.32902 4.49124 9.46967 4.63189C9.61032 4.77254 9.80109 4.85156 10 4.85156C10.1989 4.85156 10.3897 4.77254 10.5303 4.63189C10.671 4.49124 10.75 4.30047 10.75 4.10156V2.38456C12.7802 2.56488 14.678 3.46853 16.0978 4.93087C17.5176 6.39322 18.3647 8.31694 18.485 10.3516H16.75C16.5511 10.3516 16.3603 10.4306 16.2197 10.5712C16.079 10.7119 16 10.9026 16 11.1016C16 11.3005 16.079 11.4912 16.2197 11.6319C16.3603 11.7725 16.5511 11.8516 16.75 11.8516H18.444C18.184 14.1636 17.021 16.0996 15.276 17.5196C15.1216 17.6453 15.0236 17.8272 15.0033 18.0252C14.983 18.2232 15.0423 18.4212 15.168 18.5756C15.2937 18.7299 15.4756 18.828 15.6736 18.8483C15.8717 18.8685 16.0696 18.8093 16.224 18.6836C18.45 16.8706 19.894 14.2896 19.994 11.1986C20.0007 11.1468 20.002 11.0946 19.998 11.0426L20 10.8516C20 5.32856 15.523 0.851562 10 0.851562C4.477 0.851562 0 5.32856 0 10.8516C0 14.1036 1.523 16.8056 3.77 18.6776C3.92338 18.7993 4.11827 18.8562 4.31303 18.8361C4.5078 18.816 4.68699 18.7206 4.81234 18.5702C4.93768 18.4198 4.99924 18.2263 4.98385 18.0311C4.96847 17.8359 4.87736 17.6545 4.73 17.5256C3.02 16.0996 1.827 14.1586 1.558 11.8516H3.25C3.44891 11.8516 3.63968 11.7725 3.78033 11.6319C3.92098 11.4912 4 11.3005 4 11.1016C4 10.9026 3.92098 10.7119 3.78033 10.5712C3.63968 10.4306 3.44891 10.3516 3.25 10.3516H1.514C1.624 8.46956 2.345 6.75156 3.483 5.39456L4.72 6.63156C4.86217 6.76404 5.05022 6.83617 5.24452 6.83274C5.43882 6.82931 5.62421 6.7506 5.76162 6.61318C5.89903 6.47577 5.97775 6.29039 5.98117 6.09609C5.9846 5.90178 5.91248 5.71374 5.78 5.57156L4.543 4.33456ZM14.76 5.48556C14.6438 5.39606 14.5005 5.34879 14.3539 5.35151C14.2072 5.35424 14.0658 5.40681 13.953 5.50056L13.735 5.68356C12.9488 6.34385 12.1651 7.00718 11.384 7.67356C10.728 8.23356 10.057 8.81356 9.521 9.28656C9.28891 9.49053 9.05923 9.69721 8.832 9.90656C8.68368 10.0394 8.54343 10.181 8.412 10.3306C8.2569 10.5215 8.14174 10.7416 8.07333 10.9779C8.00492 11.2142 7.98466 11.4618 8.01376 11.7061C8.04286 11.9503 8.12072 12.1863 8.24273 12.3999C8.36473 12.6135 8.52839 12.8004 8.724 12.9496C9.12238 13.2567 9.62476 13.3966 10.1246 13.3395C10.6243 13.2823 11.0822 13.0327 11.401 12.6436C11.489 12.5356 11.606 12.3476 11.726 12.1466C11.854 11.9316 12.011 11.6566 12.185 11.3486C12.532 10.7286 12.953 9.95656 13.36 9.20356C13.8434 8.30654 14.323 7.40753 14.799 6.50656L14.93 6.25756C14.9973 6.12951 15.0172 5.98178 14.9861 5.8405C14.955 5.69922 14.8749 5.57349 14.76 5.48556Z" fill="white"/>
</svg>
