<svg width="30" height="30" viewBox="0 0 30 30" fill="none" xmlns="http://www.w3.org/2000/svg">
<path d="M10.5813 14.9993L1.74376 6.16184C1.17451 5.57246 0.859529 4.78307 0.86665 3.96371C0.87377 3.14434 1.20242 2.36056 1.78182 1.78116C2.36122 1.20176 3.14501 0.873104 3.96437 0.865984C4.78374 0.858864 5.57312 1.17385 6.1625 1.74309L15 10.5806L23.8375 1.74309C24.1258 1.44462 24.4706 1.20655 24.8519 1.04277C25.2331 0.878993 25.6432 0.792786 26.0581 0.78918C26.4731 0.785575 26.8846 0.864645 27.2686 1.02177C27.6527 1.1789 28.0016 1.41094 28.295 1.70436C28.5884 1.99777 28.8204 2.34668 28.9776 2.73073C29.1347 3.11478 29.2138 3.52628 29.2102 3.94122C29.2066 4.35615 29.1203 4.76622 28.9566 5.14748C28.7928 5.52874 28.5547 5.87357 28.2563 6.16184L19.4188 14.9993L28.2563 23.8368C28.5547 24.1251 28.7928 24.4699 28.9566 24.8512C29.1203 25.2325 29.2066 25.6425 29.2102 26.0575C29.2138 26.4724 29.1347 26.8839 28.9776 27.268C28.8204 27.652 28.5884 28.0009 28.295 28.2943C28.0016 28.5877 27.6527 28.8198 27.2686 28.9769C26.8846 29.134 26.4731 29.2131 26.0581 29.2095C25.6432 29.2059 25.2331 29.1197 24.8519 28.9559C24.4706 28.7921 24.1258 28.5541 23.8375 28.2556L15 19.4181L6.1625 28.2556C5.57312 28.8248 4.78374 29.1398 3.96437 29.1327C3.14501 29.1256 2.36122 28.7969 1.78182 28.2175C1.20242 27.6381 0.87377 26.8543 0.86665 26.035C0.859529 25.2156 1.17451 24.4262 1.74376 23.8368L10.5813 14.9993Z" fill="#008AA7"/>
</svg>
