<svg width="25" height="24" viewBox="0 0 25 24" fill="none" xmlns="http://www.w3.org/2000/svg">
<path d="M21.5221 13.1259L21.5225 13.1271C22.1019 15.0322 21.5709 16.9508 20.1754 18.1751L20.1697 18.1801L20.1642 18.1851C19.2623 19.0089 18.0828 19.4689 16.85 19.4689H6.49833C4.2465 19.292 3.25 17.5928 3.25 16.0289C3.25 15.9257 3.25043 15.8581 3.25692 15.7868L3.25765 15.7787L3.25821 15.7706C3.35042 14.4378 4.16715 13.0946 5.78847 12.6973L6.52259 12.5175L6.33705 11.7848C5.8021 9.67219 6.26286 7.75717 7.58213 6.37715L7.58218 6.3771C9.11685 4.77146 11.5811 4.13018 13.6873 4.78507L13.6906 4.78607C15.584 5.36534 16.9567 6.92344 17.4575 9.20003L17.5595 9.66376L18.0223 9.7699C18.9633 9.98571 19.7935 10.4755 20.4168 11.1842L20.4243 11.1927L20.432 11.2009C20.9199 11.7231 21.2938 12.3708 21.5221 13.1259Z" stroke="white" stroke-width="1.5"/>
</svg>
