<svg width="25" height="24" viewBox="0 0 25 24" fill="none" xmlns="http://www.w3.org/2000/svg">
<g clip-path="url(#clip0_9688_121117)">
<path d="M21.4883 4.5C21.8861 4.5 22.2676 4.65804 22.5489 4.93934C22.8302 5.22064 22.9883 5.60218 22.9883 6V18C22.9883 18.3978 22.8302 18.7794 22.5489 19.0607C22.2676 19.342 21.8861 19.5 21.4883 19.5H3.48828C3.09046 19.5 2.70893 19.342 2.42762 19.0607C2.14632 18.7794 1.98828 18.3978 1.98828 18V6C1.98828 5.60218 2.14632 5.22064 2.42762 4.93934C2.70893 4.65804 3.09046 4.5 3.48828 4.5H21.4883ZM3.48828 3C2.69263 3 1.92957 3.31607 1.36696 3.87868C0.804352 4.44129 0.488281 5.20435 0.488281 6L0.488281 18C0.488281 18.7956 0.804352 19.5587 1.36696 20.1213C1.92957 20.6839 2.69263 21 3.48828 21H21.4883C22.2839 21 23.047 20.6839 23.6096 20.1213C24.1722 19.5587 24.4883 18.7956 24.4883 18V6C24.4883 5.20435 24.1722 4.44129 23.6096 3.87868C23.047 3.31607 22.2839 3 21.4883 3H3.48828Z" fill="#008AA7"/>
<path d="M3.48828 8.25C3.48828 8.05109 3.5673 7.86032 3.70795 7.71967C3.8486 7.57902 4.03937 7.5 4.23828 7.5H7.23828C7.43719 7.5 7.62796 7.57902 7.76861 7.71967C7.90926 7.86032 7.98828 8.05109 7.98828 8.25V9.75C7.98828 9.94891 7.90926 10.1397 7.76861 10.2803C7.62796 10.421 7.43719 10.5 7.23828 10.5H4.23828C4.03937 10.5 3.8486 10.421 3.70795 10.2803C3.5673 10.1397 3.48828 9.94891 3.48828 9.75V8.25ZM3.48828 12.75C3.48828 12.5511 3.5673 12.3603 3.70795 12.2197C3.8486 12.079 4.03937 12 4.23828 12H11.7383C11.9372 12 12.128 12.079 12.2686 12.2197C12.4093 12.3603 12.4883 12.5511 12.4883 12.75C12.4883 12.9489 12.4093 13.1397 12.2686 13.2803C12.128 13.421 11.9372 13.5 11.7383 13.5H4.23828C4.03937 13.5 3.8486 13.421 3.70795 13.2803C3.5673 13.1397 3.48828 12.9489 3.48828 12.75ZM3.48828 15.75C3.48828 15.5511 3.5673 15.3603 3.70795 15.2197C3.8486 15.079 4.03937 15 4.23828 15H5.73828C5.93719 15 6.12796 15.079 6.26861 15.2197C6.40926 15.3603 6.48828 15.5511 6.48828 15.75C6.48828 15.9489 6.40926 16.1397 6.26861 16.2803C6.12796 16.421 5.93719 16.5 5.73828 16.5H4.23828C4.03937 16.5 3.8486 16.421 3.70795 16.2803C3.5673 16.1397 3.48828 15.9489 3.48828 15.75ZM7.98828 15.75C7.98828 15.5511 8.0673 15.3603 8.20795 15.2197C8.3486 15.079 8.53937 15 8.73828 15H10.2383C10.4372 15 10.628 15.079 10.7686 15.2197C10.9093 15.3603 10.9883 15.5511 10.9883 15.75C10.9883 15.9489 10.9093 16.1397 10.7686 16.2803C10.628 16.421 10.4372 16.5 10.2383 16.5H8.73828C8.53937 16.5 8.3486 16.421 8.20795 16.2803C8.0673 16.1397 7.98828 15.9489 7.98828 15.75ZM12.4883 15.75C12.4883 15.5511 12.5673 15.3603 12.708 15.2197C12.8486 15.079 13.0394 15 13.2383 15H14.7383C14.9372 15 15.128 15.079 15.2686 15.2197C15.4093 15.3603 15.4883 15.5511 15.4883 15.75C15.4883 15.9489 15.4093 16.1397 15.2686 16.2803C15.128 16.421 14.9372 16.5 14.7383 16.5H13.2383C13.0394 16.5 12.8486 16.421 12.708 16.2803C12.5673 16.1397 12.4883 15.9489 12.4883 15.75ZM16.9883 15.75C16.9883 15.5511 17.0673 15.3603 17.208 15.2197C17.3486 15.079 17.5394 15 17.7383 15H19.2383C19.4372 15 19.628 15.079 19.7686 15.2197C19.9093 15.3603 19.9883 15.5511 19.9883 15.75C19.9883 15.9489 19.9093 16.1397 19.7686 16.2803C19.628 16.421 19.4372 16.5 19.2383 16.5H17.7383C17.5394 16.5 17.3486 16.421 17.208 16.2803C17.0673 16.1397 16.9883 15.9489 16.9883 15.75Z" fill="#008AA7"/>
</g>
<defs>
<clipPath id="clip0_9688_121117">
<rect width="24" height="24" fill="white" transform="translate(0.488281)"/>
</clipPath>
</defs>
</svg>
