<svg width="12" height="12" viewBox="0 0 12 12" fill="none" xmlns="http://www.w3.org/2000/svg">
<path fill-rule="evenodd" clip-rule="evenodd" d="M12 11.5006C12 11.6332 11.9473 11.7604 11.8535 11.8542C11.7598 11.948 11.6326 12.0006 11.5 12.0006H5.49999C5.36738 12.0006 5.24021 11.948 5.14644 11.8542C5.05267 11.7604 4.99999 11.6332 4.99999 11.5006C4.99999 11.368 5.05267 11.2408 5.14644 11.1471C5.24021 11.0533 5.36738 11.0006 5.49999 11.0006H10.293L0.145991 0.854632C0.0995027 0.808144 0.0626266 0.752954 0.0374675 0.692215C0.0123084 0.631476 -0.000640869 0.566375 -0.000640869 0.500632C-0.00064087 0.434888 0.0123084 0.369788 0.0374675 0.309048C0.0626266 0.248309 0.0995027 0.193119 0.145991 0.146631C0.192479 0.100144 0.247668 0.0632674 0.308407 0.0381083C0.369147 0.0129493 0.434247 -4.8983e-10 0.499991 0C0.565735 4.8983e-10 0.630835 0.0129493 0.691574 0.0381083C0.752313 0.0632674 0.807503 0.100144 0.853991 0.146631L11 10.2936V5.50063C11 5.36802 11.0527 5.24085 11.1464 5.14708C11.2402 5.05331 11.3674 5.00063 11.5 5.00063C11.6326 5.00063 11.7598 5.05331 11.8535 5.14708C11.9473 5.24085 12 5.36802 12 5.50063V11.5006Z" fill="#FB923C"/>
</svg>
