<svg width="13" height="12" viewBox="0 0 13 12" fill="none" xmlns="http://www.w3.org/2000/svg">
<path d="M9.005 7.65C9.175 7.4 9.3 7.135 9.38 6.855C9.46 6.575 9.5 6.29 9.5 6C9.5 5.62 9.4276 5.2424 9.2828 4.8672C9.1376 4.4924 8.92 4.16 8.63 3.87C8.34 3.58 8.0126 3.365 7.6478 3.225C7.2826 3.085 6.91 3.015 6.53 3.015L7.1 2.43L6.47 1.8L4.76 3.495L6.47 5.19L7.1 4.56L6.44 3.9C6.71 3.9 6.985 3.9524 7.265 4.0572C7.545 4.1624 7.785 4.315 7.985 4.515C8.185 4.715 8.3376 4.945 8.4428 5.205C8.5476 5.465 8.6 5.725 8.6 5.985C8.6 6.155 8.5774 6.325 8.5322 6.495C8.4874 6.665 8.425 6.83 8.345 6.99L9.005 7.65ZM6.53 10.2L8.24 8.505L6.53 6.81L5.9 7.44L6.545 8.085C6.265 8.095 5.9926 8.05 5.7278 7.95C5.4626 7.85 5.225 7.695 5.015 7.485C4.815 7.285 4.6624 7.055 4.5572 6.795C4.4524 6.535 4.4 6.275 4.4 6.015C4.4 5.845 4.4226 5.675 4.4678 5.505C4.5126 5.335 4.575 5.17 4.655 5.01L3.995 4.35C3.825 4.6 3.7 4.865 3.62 5.145C3.54 5.425 3.5 5.71 3.5 6C3.5 6.38 3.575 6.755 3.725 7.125C3.875 7.495 4.095 7.825 4.385 8.115C4.675 8.405 5 8.6226 5.36 8.7678C5.72 8.9126 6.09 8.99 6.47 9L5.9 9.57L6.53 10.2ZM6.5 12C5.67 12 4.89 11.8424 4.16 11.5272C3.43 11.2124 2.795 10.785 2.255 10.245C1.715 9.705 1.2876 9.07 0.9728 8.34C0.6576 7.61 0.5 6.83 0.5 6C0.5 5.17 0.6576 4.39 0.9728 3.66C1.2876 2.93 1.715 2.295 2.255 1.755C2.795 1.215 3.43 0.7874 4.16 0.4722C4.89 0.1574 5.67 0 6.5 0C7.33 0 8.11 0.1574 8.84 0.4722C9.57 0.7874 10.205 1.215 10.745 1.755C11.285 2.295 11.7124 2.93 12.0272 3.66C12.3424 4.39 12.5 5.17 12.5 6C12.5 6.83 12.3424 7.61 12.0272 8.34C11.7124 9.07 11.285 9.705 10.745 10.245C10.205 10.785 9.57 11.2124 8.84 11.5272C8.11 11.8424 7.33 12 6.5 12ZM6.5 10.8C7.83 10.8 8.9626 10.3326 9.8978 9.3978C10.8326 8.4626 11.3 7.33 11.3 6C11.3 4.67 10.8326 3.5374 9.8978 2.6022C8.9626 1.6674 7.83 1.2 6.5 1.2C5.17 1.2 4.0376 1.6674 3.1028 2.6022C2.1676 3.5374 1.7 4.67 1.7 6C1.7 7.33 2.1676 8.4626 3.1028 9.3978C4.0376 10.3326 5.17 10.8 6.5 10.8Z" fill="black"/>
</svg>
