<svg width="18" height="18" viewBox="0 0 18 18" fill="none" xmlns="http://www.w3.org/2000/svg">
<path d="M4.6921 6.04956C5.0221 5.71356 5.5513 5.39676 6.3241 5.39676C7.3825 5.39676 8.1013 6.07356 8.3617 6.88236C8.6161 7.66956 8.4553 8.63436 7.7581 9.28236C7.49191 9.51867 7.20697 9.73297 6.9061 9.92316L6.8737 9.94476C6.61496 10.1088 6.36613 10.2879 6.1285 10.4812C5.8321 10.7332 5.5981 11.014 5.4817 11.4016H7.8001C7.95923 11.4016 8.11184 11.4648 8.22436 11.5773C8.33688 11.6898 8.4001 11.8424 8.4001 12.0016C8.4001 12.1607 8.33688 12.3133 8.22436 12.4258C8.11184 12.5383 7.95923 12.6016 7.8001 12.6016H4.8001C4.64097 12.6016 4.48836 12.5383 4.37583 12.4258C4.26331 12.3133 4.2001 12.1607 4.2001 12.0016C4.2001 10.8316 4.7281 10.0972 5.3497 9.56796C5.6281 9.33156 5.9305 9.12996 6.1921 8.95596L6.2401 8.92356C6.5281 8.73276 6.7573 8.57556 6.9397 8.40636C7.09068 8.25981 7.19716 8.07355 7.24685 7.86908C7.29653 7.66461 7.2874 7.45026 7.2205 7.25076C7.1664 7.05683 7.0485 6.8868 6.88585 6.76813C6.7232 6.64946 6.52529 6.58909 6.3241 6.59676C5.9149 6.59676 5.6821 6.75276 5.5465 6.89076C5.47209 6.96674 5.41049 7.05427 5.3641 7.14996L5.3617 7.15596C5.30648 7.30523 5.19423 7.42644 5.04964 7.49294C4.90505 7.55944 4.73996 7.56578 4.5907 7.51056C4.44143 7.45534 4.32022 7.34309 4.25372 7.1985C4.18722 7.05391 4.18088 6.88883 4.2361 6.73956L4.2697 6.65556C4.37459 6.43071 4.51703 6.22537 4.6909 6.04836L4.6921 6.04956ZM10.8001 5.40156C10.9592 5.40156 11.1118 5.46478 11.2244 5.5773C11.3369 5.68982 11.4001 5.84243 11.4001 6.00156V8.40156H12.6001V6.00156C12.6001 5.84243 12.6633 5.68982 12.7758 5.5773C12.8884 5.46478 13.041 5.40156 13.2001 5.40156C13.3592 5.40156 13.5118 5.46478 13.6244 5.5773C13.7369 5.68982 13.8001 5.84243 13.8001 6.00156V12.0016C13.8001 12.1607 13.7369 12.3133 13.6244 12.4258C13.5118 12.5383 13.3592 12.6016 13.2001 12.6016C13.041 12.6016 12.8884 12.5383 12.7758 12.4258C12.6633 12.3133 12.6001 12.1607 12.6001 12.0016V9.60156H10.8001C10.641 9.60156 10.4884 9.53835 10.3758 9.42583C10.2633 9.3133 10.2001 9.16069 10.2001 9.00156V6.00156C10.2001 5.84243 10.2633 5.68982 10.3758 5.5773C10.4884 5.46478 10.641 5.40156 10.8001 5.40156ZM3.6001 0.601562C2.80445 0.601562 2.04139 0.917633 1.47878 1.48024C0.916168 2.04285 0.600098 2.80591 0.600098 3.60156V14.4016C0.600098 15.1972 0.916168 15.9603 1.47878 16.5229C2.04139 17.0855 2.80445 17.4016 3.6001 17.4016H14.4001C15.1957 17.4016 15.9588 17.0855 16.5214 16.5229C17.084 15.9603 17.4001 15.1972 17.4001 14.4016V3.60156C17.4001 2.80591 17.084 2.04285 16.5214 1.48024C15.9588 0.917633 15.1957 0.601562 14.4001 0.601562H3.6001ZM1.8001 3.60156C1.8001 3.12417 1.98974 2.66634 2.32731 2.32877C2.66487 1.9912 3.12271 1.80156 3.6001 1.80156H14.4001C14.8775 1.80156 15.3353 1.9912 15.6729 2.32877C16.0105 2.66634 16.2001 3.12417 16.2001 3.60156V14.4016C16.2001 14.879 16.0105 15.3368 15.6729 15.6744C15.3353 16.0119 14.8775 16.2016 14.4001 16.2016H3.6001C3.12271 16.2016 2.66487 16.0119 2.32731 15.6744C1.98974 15.3368 1.8001 14.879 1.8001 14.4016V3.60156Z" fill="#008AA7"/>
</svg>
