<svg width="12" height="12" viewBox="0 0 12 12" fill="none" xmlns="http://www.w3.org/2000/svg">
<path fill-rule="evenodd" clip-rule="evenodd" d="M11.5 -0.000631332C11.6326 -0.000631332 11.7598 0.0520468 11.8535 0.145815C11.9473 0.239583 12 0.36676 12 0.499369V6.49937C12 6.63198 11.9473 6.75915 11.8535 6.85292C11.7598 6.94669 11.6326 6.99937 11.5 6.99937C11.3674 6.99937 11.2402 6.94669 11.1464 6.85292C11.0527 6.75915 11 6.63198 11 6.49937V1.70637L0.853991 11.8534C0.807503 11.8999 0.752313 11.9367 0.691574 11.9619C0.630835 11.9871 0.565735 12 0.499991 12C0.434247 12 0.369147 11.9871 0.308407 11.9619C0.247668 11.9367 0.192479 11.8999 0.145991 11.8534C0.0995027 11.8069 0.0626266 11.7517 0.0374675 11.691C0.0123084 11.6302 -0.00064087 11.5651 -0.000640869 11.4994C-0.000640869 11.4336 0.0123084 11.3685 0.0374675 11.3078C0.0626266 11.247 0.0995027 11.1919 0.145991 11.1454L10.293 0.999369H5.49999C5.36738 0.999369 5.24021 0.946691 5.14644 0.852922C5.05267 0.759154 4.99999 0.631977 4.99999 0.499369C4.99999 0.36676 5.05267 0.239583 5.14644 0.145815C5.24021 0.0520468 5.36738 -0.000631332 5.49999 -0.000631332H11.5Z" fill="#22C55E"/>
</svg>
