<svg width="14" height="14" viewBox="0 0 14 14" fill="none" xmlns="http://www.w3.org/2000/svg">
<path d="M5.6665 2.5026V2.66927H8.33317V2.5026C8.33317 2.14898 8.19269 1.80984 7.94265 1.5598C7.6926 1.30975 7.35346 1.16927 6.99984 1.16927C6.64621 1.16927 6.30708 1.30975 6.05703 1.5598C5.80698 1.80984 5.6665 2.14898 5.6665 2.5026ZM4.83317 2.66927V2.5026C4.83317 1.92797 5.06144 1.37687 5.46777 0.970539C5.8741 0.564211 6.4252 0.335938 6.99984 0.335938C7.57447 0.335938 8.12557 0.564211 8.5319 0.970539C8.93823 1.37687 9.1665 1.92797 9.1665 2.5026V2.66927H12.9165C13.027 2.66927 13.133 2.71317 13.2111 2.79131C13.2893 2.86945 13.3332 2.97543 13.3332 3.08594C13.3332 3.19644 13.2893 3.30242 13.2111 3.38057C13.133 3.45871 13.027 3.5026 12.9165 3.5026H11.9442L11.2775 11.4546C11.2269 12.0585 10.9512 12.6213 10.5051 13.0315C10.0591 13.4417 9.47516 13.6693 8.86917 13.6693H5.1305C4.52457 13.6692 3.94076 13.4415 3.49477 13.0314C3.04878 12.6212 2.77315 12.0584 2.7225 11.4546L2.05584 3.5026H1.08317C0.972664 3.5026 0.866683 3.45871 0.788543 3.38057C0.710403 3.30242 0.666504 3.19644 0.666504 3.08594C0.666504 2.97543 0.710403 2.86945 0.788543 2.79131C0.866683 2.71317 0.972664 2.66927 1.08317 2.66927H4.83317ZM3.55284 11.3849C3.58602 11.7805 3.7666 12.1493 4.05881 12.418C4.35101 12.6867 4.73351 12.8359 5.1305 12.8359H8.86917C9.26622 12.836 9.6488 12.6869 9.94108 12.4181C10.2334 12.1494 10.414 11.7806 10.4472 11.3849L11.1078 3.5026H2.89184L3.55284 11.3849ZM6.1665 5.7526C6.1665 5.69789 6.15573 5.6437 6.13479 5.59315C6.11385 5.5426 6.08316 5.49667 6.04447 5.45798C6.00577 5.41928 5.95984 5.38859 5.90929 5.36765C5.85874 5.34671 5.80455 5.33594 5.74984 5.33594C5.69512 5.33594 5.64094 5.34671 5.59039 5.36765C5.53983 5.38859 5.4939 5.41928 5.45521 5.45798C5.41652 5.49667 5.38583 5.5426 5.36489 5.59315C5.34395 5.6437 5.33317 5.69789 5.33317 5.7526V10.5859C5.33317 10.6407 5.34395 10.6948 5.36489 10.7454C5.38583 10.7959 5.41652 10.8419 5.45521 10.8806C5.4939 10.9193 5.53983 10.9499 5.59039 10.9709C5.64094 10.9918 5.69512 11.0026 5.74984 11.0026C5.80455 11.0026 5.85874 10.9918 5.90929 10.9709C5.95984 10.9499 6.00577 10.9193 6.04447 10.8806C6.08316 10.8419 6.11385 10.7959 6.13479 10.7454C6.15573 10.6948 6.1665 10.6407 6.1665 10.5859V5.7526ZM8.24984 5.33594C8.47984 5.33594 8.6665 5.5226 8.6665 5.7526V10.5859C8.6665 10.6964 8.6226 10.8024 8.54447 10.8806C8.46632 10.9587 8.36034 11.0026 8.24984 11.0026C8.13933 11.0026 8.03335 10.9587 7.95521 10.8806C7.87707 10.8024 7.83317 10.6964 7.83317 10.5859V5.7526C7.83317 5.5226 8.01984 5.33594 8.24984 5.33594Z" fill="white"/>
</svg>
