<svg width="24" height="24" viewBox="0 0 24 24" fill="none" xmlns="http://www.w3.org/2000/svg">
<g clip-path="url(#clip0_8791_120859)">
<path d="M21.3335 4H2.66683C2.31321 4 1.97407 4.14048 1.72402 4.39052C1.47397 4.64057 1.3335 4.97971 1.3335 5.33333V18.6667C1.3335 19.0203 1.47397 19.3594 1.72402 19.6095C1.97407 19.8595 2.31321 20 2.66683 20H21.3335C21.6871 20 22.0263 19.8595 22.2763 19.6095C22.5264 19.3594 22.6668 19.0203 22.6668 18.6667V5.33333C22.6668 4.97971 22.5264 4.64057 22.2763 4.39052C22.0263 4.14048 21.6871 4 21.3335 4ZM21.3335 18.6667H2.66683V5.33333H21.3335V18.6667Z" fill="black"/>
<path d="M6.00016 9.33333H18.0002C18.177 9.33333 18.3465 9.2631 18.4716 9.13807C18.5966 9.01305 18.6668 8.84348 18.6668 8.66667C18.6668 8.48986 18.5966 8.32029 18.4716 8.19526C18.3465 8.07024 18.177 8 18.0002 8H6.00016C5.82335 8 5.65378 8.07024 5.52876 8.19526C5.40373 8.32029 5.3335 8.48986 5.3335 8.66667C5.3335 8.84348 5.40373 9.01305 5.52876 9.13807C5.65378 9.2631 5.82335 9.33333 6.00016 9.33333Z" fill="black"/>
<path d="M6.00016 11.9993H18.0002C18.177 11.9993 18.3465 11.9291 18.4716 11.8041C18.5966 11.6791 18.6668 11.5095 18.6668 11.3327C18.6668 11.1559 18.5966 10.9863 18.4716 10.8613C18.3465 10.7363 18.177 10.666 18.0002 10.666H6.00016C5.82335 10.666 5.65378 10.7363 5.52876 10.8613C5.40373 10.9863 5.3335 11.1559 5.3335 11.3327C5.3335 11.5095 5.40373 11.6791 5.52876 11.8041C5.65378 11.9291 5.82335 11.9993 6.00016 11.9993Z" fill="black"/>
<path d="M6.00016 14.6673H12.6668C12.8436 14.6673 13.0132 14.5971 13.1382 14.4721C13.2633 14.347 13.3335 14.1775 13.3335 14.0007C13.3335 13.8238 13.2633 13.6543 13.1382 13.5292C13.0132 13.4042 12.8436 13.334 12.6668 13.334H6.00016C5.82335 13.334 5.65378 13.4042 5.52876 13.5292C5.40373 13.6543 5.3335 13.8238 5.3335 14.0007C5.3335 14.1775 5.40373 14.347 5.52876 14.4721C5.65378 14.5971 5.82335 14.6673 6.00016 14.6673Z" fill="black"/>
</g>
<defs>
<clipPath id="clip0_8791_120859">
<rect width="24" height="24" fill="white"/>
</clipPath>
</defs>
</svg>
