<svg width="21" height="23" viewBox="0 0 21 23" fill="none" xmlns="http://www.w3.org/2000/svg">
<path d="M0.6875 0.34375V20.6562H13.1875V19.0938H2.25V1.90625H10.0625V6.59375H14.75V8.15625H16.3125V5.5L16.0781 5.26562L11.3906 0.578125L11.1562 0.34375H0.6875ZM11.625 3L13.6562 5.03125H11.625V3ZM3.8125 8.15625V9.71875H13.1875V8.15625H3.8125ZM17.0938 9.71875V11.2812C15.7656 11.5156 14.75 12.6094 14.75 14.0156C14.75 15.5781 15.9219 16.75 17.4844 16.75H18.2656C18.8906 16.75 19.4375 17.2969 19.4375 17.9219C19.4375 18.5469 18.8906 19.0938 18.2656 19.0938H15.5312V20.6562H17.0938V22.2188H18.6562V20.6562C19.9844 20.4219 21 19.3281 21 17.9219C21 16.3594 19.8281 15.1875 18.2656 15.1875H17.4844C16.8594 15.1875 16.3125 14.6406 16.3125 14.0156C16.3125 13.3906 16.8594 12.8438 17.4844 12.8438H20.2188V11.2812H18.6562V9.71875H17.0938ZM3.8125 12.0625V13.625H9.28125V12.0625H3.8125ZM10.8438 12.0625V13.625H13.1875V12.0625H10.8438ZM3.8125 15.1875V16.75H9.28125V15.1875H3.8125ZM10.8438 15.1875V16.75H13.1875V15.1875H10.8438Z" fill="#008AA7"/>
</svg>
