<svg width="25" height="25" viewBox="0 0 25 25" fill="none" xmlns="http://www.w3.org/2000/svg">
<path d="M19.7633 7.475L14.5133 2.225C14.3633 2.075 14.2133 2 13.9883 2H6.48828C5.66328 2 4.98828 2.675 4.98828 3.5V21.5C4.98828 22.325 5.66328 23 6.48828 23H18.4883C19.3133 23 19.9883 22.325 19.9883 21.5V8C19.9883 7.775 19.9133 7.625 19.7633 7.475ZM13.9883 3.8L18.1883 8H13.9883V3.8ZM18.4883 21.5H6.48828V3.5H12.4883V8C12.4883 8.825 13.1633 9.5 13.9883 9.5H18.4883V21.5Z" fill="#008AA7"/>
<path d="M7.98828 17H16.9883V18.5H7.98828V17ZM7.98828 12.5H16.9883V14H7.98828V12.5Z" fill="#008AA7"/>
</svg>
