<svg width="16" height="16" viewBox="0 0 16 16" fill="none" xmlns="http://www.w3.org/2000/svg">
<path d="M11.7499 11.0022H11.4999V10.0022H11.7499C12.3467 10.0261 12.9284 9.81194 13.3673 9.40686C13.8061 9.00178 14.0661 8.43896 14.0899 7.84223C14.1138 7.24549 13.8996 6.66371 13.4946 6.22488C13.0895 5.78604 12.5267 5.5261 11.9299 5.50223H11.4999L11.4499 5.09223C11.339 4.25045 10.9259 3.4777 10.2875 2.91792C9.64909 2.35814 8.82898 2.0495 7.97993 2.0495C7.13088 2.0495 6.31077 2.35814 5.67238 2.91792C5.034 3.4777 4.62086 4.25045 4.50993 5.09223L4.49993 5.50223H4.06993C3.47319 5.5261 2.91038 5.78604 2.5053 6.22488C2.10022 6.66371 1.88606 7.24549 1.90993 7.84223C1.9338 8.43896 2.19374 9.00178 2.63258 9.40686C3.07141 9.81194 3.65319 10.0261 4.24993 10.0022H4.49993V11.0022H4.24993C3.44813 10.9971 2.67651 10.6959 2.08342 10.1563C1.49033 9.61669 1.11764 8.87691 1.03699 8.07916C0.956351 7.28142 1.17345 6.48202 1.64656 5.83465C2.11966 5.18729 2.81537 4.73767 3.59993 4.57223C3.81578 3.56549 4.37035 2.66321 5.17109 2.01596C5.97183 1.36871 6.97031 1.01563 7.99993 1.01562C9.02955 1.01563 10.028 1.36871 10.8288 2.01596C11.6295 2.66321 12.1841 3.56549 12.3999 4.57223C13.1845 4.73767 13.8802 5.18729 14.3533 5.83465C14.8264 6.48202 15.0435 7.28142 14.9629 8.07916C14.8822 8.87691 14.5095 9.61669 13.9164 10.1563C13.3233 10.6959 12.5517 10.9971 11.7499 11.0022Z" fill="white"/>
<path d="M8.5 13.085V7H7.5V13.085L6.205 11.795L5.5 12.5L8 15L10.5 12.5L9.795 11.795L8.5 13.085Z" fill="white"/>
</svg>
