<svg width="33" height="32" viewBox="0 0 33 32" fill="none" xmlns="http://www.w3.org/2000/svg">
<path d="M4.75684 0C3.69597 0 2.67855 0.421427 1.92841 1.17157C1.17826 1.92172 0.756836 2.93913 0.756836 4V24C0.756836 25.0609 1.17826 26.0783 1.92841 26.8284C2.67855 27.5786 3.69597 28 4.75684 28H13.1968L13.6208 26.31C13.6468 26.206 13.6748 26.102 13.7068 26H4.75684C4.2264 26 3.7177 25.7893 3.34262 25.4142C2.96755 25.0391 2.75684 24.5304 2.75684 24V4C2.75684 3.46957 2.96755 2.96086 3.34262 2.58579C3.7177 2.21071 4.2264 2 4.75684 2H24.7568C25.2873 2 25.796 2.21071 26.1711 2.58579C26.5461 2.96086 26.7568 3.46957 26.7568 4V12.464C27.3968 12.19 28.0748 12.038 28.7568 12.006V4C28.7568 2.93913 28.3354 1.92172 27.5853 1.17157C26.8351 0.421427 25.8177 0 24.7568 0H4.75684ZM13.7568 22H16.6428L18.6428 20H13.7568C13.4916 20 13.2373 20.1054 13.0497 20.2929C12.8622 20.4804 12.7568 20.7348 12.7568 21C12.7568 21.2652 12.8622 21.5196 13.0497 21.7071C13.2373 21.8946 13.4916 22 13.7568 22ZM9.75684 8.5C9.75684 8.89783 9.5988 9.27936 9.3175 9.56066C9.03619 9.84197 8.65466 10 8.25684 10C7.85901 10 7.47748 9.84197 7.19618 9.56066C6.91487 9.27936 6.75684 8.89783 6.75684 8.5C6.75684 8.10218 6.91487 7.72064 7.19618 7.43934C7.47748 7.15804 7.85901 7 8.25684 7C8.65466 7 9.03619 7.15804 9.3175 7.43934C9.5988 7.72064 9.75684 8.10218 9.75684 8.5ZM8.25684 16C8.65466 16 9.03619 15.842 9.3175 15.5607C9.5988 15.2794 9.75684 14.8978 9.75684 14.5C9.75684 14.1022 9.5988 13.7206 9.3175 13.4393C9.03619 13.158 8.65466 13 8.25684 13C7.85901 13 7.47748 13.158 7.19618 13.4393C6.91487 13.7206 6.75684 14.1022 6.75684 14.5C6.75684 14.8978 6.91487 15.2794 7.19618 15.5607C7.47748 15.842 7.85901 16 8.25684 16ZM8.25684 22C8.65466 22 9.03619 21.842 9.3175 21.5607C9.5988 21.2794 9.75684 20.8978 9.75684 20.5C9.75684 20.1022 9.5988 19.7206 9.3175 19.4393C9.03619 19.158 8.65466 19 8.25684 19C7.85901 19 7.47748 19.158 7.19618 19.4393C6.91487 19.7206 6.75684 20.1022 6.75684 20.5C6.75684 20.8978 6.91487 21.2794 7.19618 21.5607C7.47748 21.842 7.85901 22 8.25684 22ZM13.7568 8C13.4916 8 13.2373 8.10536 13.0497 8.29289C12.8622 8.48043 12.7568 8.73478 12.7568 9C12.7568 9.26522 12.8622 9.51957 13.0497 9.70711C13.2373 9.89464 13.4916 10 13.7568 10H21.7568C22.0221 10 22.2764 9.89464 22.4639 9.70711C22.6515 9.51957 22.7568 9.26522 22.7568 9C22.7568 8.73478 22.6515 8.48043 22.4639 8.29289C22.2764 8.10536 22.0221 8 21.7568 8H13.7568ZM13.7568 14C13.4916 14 13.2373 14.1054 13.0497 14.2929C12.8622 14.4804 12.7568 14.7348 12.7568 15C12.7568 15.2652 12.8622 15.5196 13.0497 15.7071C13.2373 15.8946 13.4916 16 13.7568 16H21.7568C22.0221 16 22.2764 15.8946 22.4639 15.7071C22.6515 15.5196 22.7568 15.2652 22.7568 15C22.7568 14.7348 22.6515 14.4804 22.4639 14.2929C22.2764 14.1054 22.0221 14 21.7568 14H13.7568ZM16.7168 24.754L26.3768 15.094C26.7243 14.7468 27.1368 14.4714 27.5907 14.2836C28.0446 14.0958 28.531 13.9992 29.0223 13.9994C29.5135 13.9996 29.9999 14.0965 30.4536 14.2847C30.9074 14.4728 31.3196 14.7485 31.6668 15.096C32.0141 15.4435 32.2894 15.8559 32.4772 16.3098C32.6651 16.7637 32.7616 17.2502 32.7614 17.7414C32.7612 18.2326 32.6643 18.719 32.4762 19.1728C32.288 19.6265 32.0123 20.0388 31.6648 20.386L22.0048 30.044C21.4421 30.607 20.737 31.0066 19.9648 31.2L16.9688 31.948C16.6709 32.0222 16.3589 32.0182 16.063 31.9362C15.7672 31.8542 15.4975 31.6971 15.2803 31.4801C15.0632 31.2631 14.9058 30.9936 14.8235 30.6978C14.7412 30.402 14.7369 30.09 14.8108 29.792L15.5608 26.796C15.7527 26.0232 16.1525 25.3177 16.7168 24.756V24.754Z" fill="#008AA7"/>
</svg>
