<svg width="10" height="12" viewBox="0 0 10 12" fill="none" xmlns="http://www.w3.org/2000/svg">
<path d="M2.07306 12H0.948101C0.885011 11.9989 0.823226 11.9818 0.76847 11.9505C0.713713 11.9191 0.667754 11.8745 0.634851 11.8206C0.601947 11.7668 0.583163 11.7055 0.580237 11.6425C0.577311 11.5794 0.590338 11.5167 0.618112 11.46L2.83429 7.12517H0.378121C0.310542 7.12574 0.244067 7.10803 0.185726 7.07392C0.127384 7.03981 0.0793448 6.99057 0.0466879 6.9314C0.014031 6.87223 -0.00202944 6.80534 0.000205079 6.7378C0.0024396 6.67025 0.022886 6.60457 0.059382 6.54769L4.06424 0.172913C4.09707 0.121672 4.14188 0.0791923 4.1948 0.0491399C4.24772 0.0190875 4.30716 0.00236607 4.36798 0.000419078H9.40406C9.47893 -0.00312339 9.55315 0.0158569 9.61714 0.0549104C9.68112 0.0939638 9.73193 0.151298 9.76301 0.219512C9.79409 0.287727 9.80402 0.36369 9.7915 0.437599C9.77898 0.511508 9.7446 0.579969 9.6928 0.634147L6.29541 4.50026H8.31284C8.38427 4.50177 8.45378 4.52364 8.51319 4.56332C8.5726 4.60299 8.61944 4.65882 8.6482 4.72421C8.67696 4.78961 8.68644 4.86186 8.67553 4.93247C8.66461 5.00307 8.63375 5.06908 8.58658 5.12274L2.35055 11.8725C2.31583 11.912 2.27318 11.9438 2.22537 11.9658C2.17757 11.9877 2.12567 11.9994 2.07306 12ZM1.57058 11.25H1.91182L7.45037 5.25024H5.47419C5.39932 5.25378 5.32509 5.2348 5.26111 5.19574C5.19713 5.15669 5.14631 5.09936 5.11523 5.03114C5.08415 4.96293 5.07423 4.88696 5.08675 4.81306C5.09927 4.73915 5.13365 4.67069 5.18545 4.61651L8.58283 0.750393H4.57422L1.04185 6.3752H3.45301C3.5161 6.37633 3.57789 6.39336 3.63264 6.42472C3.6874 6.45608 3.73336 6.50074 3.76626 6.55459C3.79917 6.60843 3.81795 6.6697 3.82088 6.73274C3.8238 6.79577 3.81078 6.85852 3.783 6.91518L1.57058 11.25Z" fill="black"/>
</svg>
