<svg width="25" height="24" viewBox="0 0 25 24" fill="none" xmlns="http://www.w3.org/2000/svg">
<path d="M12.4883 1.95312C6.96828 1.95312 2.48828 6.43312 2.48828 11.9531C2.48828 17.4731 6.96828 21.9531 12.4883 21.9531H17.4883V19.9531H12.4883C8.14828 19.9531 4.48828 16.2931 4.48828 11.9531C4.48828 7.61312 8.14828 3.95312 12.4883 3.95312C16.8283 3.95312 20.4883 7.61312 20.4883 11.9531V13.3831C20.4883 14.1731 19.7783 14.9531 18.9883 14.9531C18.1983 14.9531 17.4883 14.1731 17.4883 13.3831V11.9531C17.4883 9.19312 15.2483 6.95312 12.4883 6.95312C9.72828 6.95312 7.48828 9.19312 7.48828 11.9531C7.48828 14.7131 9.72828 16.9531 12.4883 16.9531C13.8683 16.9531 15.1283 16.3931 16.0283 15.4831C16.6783 16.3731 17.7983 16.9531 18.9883 16.9531C20.9583 16.9531 22.4883 15.3531 22.4883 13.3831V11.9531C22.4883 6.43312 18.0083 1.95312 12.4883 1.95312ZM12.4883 14.9531C10.8283 14.9531 9.48828 13.6131 9.48828 11.9531C9.48828 10.2931 10.8283 8.95312 12.4883 8.95312C14.1483 8.95312 15.4883 10.2931 15.4883 11.9531C15.4883 13.6131 14.1483 14.9531 12.4883 14.9531Z" fill="#008AA7"/>
</svg>
