<svg width="25" height="24" viewBox="0 0 25 24" fill="none" xmlns="http://www.w3.org/2000/svg">
<path d="M19.6152 9H13.6152V3H4.61523V21H19.6152V9ZM18.9942 7.5L15.1152 3.621V7.5H18.9942ZM3.86523 1.5H15.1152L21.1152 7.5V21.75C21.1152 21.9489 21.0362 22.1397 20.8956 22.2803C20.7549 22.421 20.5641 22.5 20.3652 22.5H3.86523C3.66632 22.5 3.47556 22.421 3.3349 22.2803C3.19425 22.1397 3.11523 21.9489 3.11523 21.75V2.25C3.11523 2.05109 3.19425 1.86032 3.3349 1.71967C3.47556 1.57902 3.66632 1.5 3.86523 1.5ZM7.61523 12H16.6152V13.5H7.61523V12ZM7.61523 7.5H11.3652V9H7.61523V7.5ZM7.61523 16.5H16.6152V18H7.61523V16.5Z" fill="black"/>
</svg>
