<svg width="34" height="34" viewBox="0 0 34 34" fill="none" xmlns="http://www.w3.org/2000/svg">
<path d="M33.6666 16.9974C33.6666 26.2024 26.2049 33.6641 16.9999 33.6641C7.79492 33.6641 0.333252 26.2024 0.333252 16.9974C0.333252 7.7924 7.79492 0.33073 16.9999 0.33073C26.2049 0.33073 33.6666 7.7924 33.6666 16.9974ZM30.3333 16.9974C30.3333 13.4612 28.9285 10.0698 26.428 7.56931C23.9275 5.06882 20.5361 3.66406 16.9999 3.66406C13.4637 3.66406 10.0723 5.06882 7.57183 7.56931C5.07134 10.0698 3.66659 13.4612 3.66659 16.9974C3.66659 20.5336 5.07134 23.925 7.57183 26.4255C10.0723 28.926 13.4637 30.3307 16.9999 30.3307C20.5361 30.3307 23.9275 28.926 26.428 26.4255C28.9285 23.925 30.3333 20.5336 30.3333 16.9974ZM18.6666 25.3307V10.3307H21.9999V16.9974H26.9999L18.6666 25.3307ZM11.9999 16.9974H6.99992L15.3333 8.66406L15.3333 23.6641H11.9999L11.9999 16.9974Z" fill="#008AA7"/>
</svg>
