<svg width="30" height="30" viewBox="0 0 30 30" fill="none" xmlns="http://www.w3.org/2000/svg">
<path d="M8 12H10V10H8V12ZM20 12H22V10H20V12ZM20.2 17.4C19.5945 18.2073 18.8095 18.8625 17.9069 19.3138C17.0043 19.7651 16.0091 20 15 20C13.9909 20 12.9957 19.7651 12.0931 19.3138C11.1906 18.8625 10.4055 18.2073 9.8 17.4L8.2 18.6C11.6 23.134 18.4 23.134 21.8 18.6L20.2 17.4ZM2 10V5H0V10H2ZM5 2H10V0H5V2ZM2 5C2 4.20435 2.31607 3.44129 2.87868 2.87868C3.44129 2.31607 4.20435 2 5 2V0C3.67392 0 2.40215 0.526784 1.46447 1.46447C0.526784 2.40215 0 3.67392 0 5H2ZM0 20V25H2V20H0ZM5 30H10V28H5V30ZM0 25C0 26.3261 0.526784 27.5979 1.46447 28.5355C2.40215 29.4732 3.67392 30 5 30V28C4.20435 28 3.44129 27.6839 2.87868 27.1213C2.31607 26.5587 2 25.7956 2 25H0ZM20 2H25V0H20V2ZM28 5V10H30V5H28ZM25 2C25.7956 2 26.5587 2.31607 27.1213 2.87868C27.6839 3.44129 28 4.20435 28 5H30C30 3.67392 29.4732 2.40215 28.5355 1.46447C27.5979 0.526784 26.3261 0 25 0V2ZM20 30H25V28H20V30ZM30 25V20H28V25H30ZM25 30C26.3261 30 27.5979 29.4732 28.5355 28.5355C29.4732 27.5979 30 26.3261 30 25H28C28 25.7956 27.6839 26.5587 27.1213 27.1213C26.5587 27.6839 25.7956 28 25 28V30Z" fill="#008AA7"/>
</svg>
