<svg width="21" height="20" viewBox="0 0 21 20" fill="none" xmlns="http://www.w3.org/2000/svg">
<path d="M10.7504 16.8031C6.99044 16.8031 3.95044 13.7631 3.95044 10.0031C3.95044 6.24312 6.99044 3.20312 10.7504 3.20312C14.5104 3.20312 17.5504 6.24312 17.5504 10.0031C17.5504 13.7631 14.5104 16.8031 10.7504 16.8031ZM10.7504 4.00312C7.43044 4.00312 4.75044 6.68312 4.75044 10.0031C4.75044 13.3231 7.43044 16.0031 10.7504 16.0031C14.0704 16.0031 16.7504 13.3231 16.7504 10.0031C16.7504 6.68312 14.0704 4.00312 10.7504 4.00312Z" fill="black"/>
<path d="M8.6705 7.8375C8.7905 7.5175 8.9105 7.2775 9.1505 7.0775C9.3505 6.8775 9.5905 6.7175 9.9105 6.5975C10.2305 6.4775 10.5505 6.4375 10.9105 6.4375C11.1905 6.4375 11.4705 6.4775 11.7105 6.5575C11.9505 6.6375 12.1905 6.7575 12.3905 6.9175C12.5905 7.0775 12.7505 7.2775 12.8305 7.5175C12.9505 7.7575 12.9905 8.0375 12.9905 8.3175C12.9905 8.7175 12.9105 9.0375 12.7505 9.3175C12.5905 9.5975 12.3505 9.8375 12.1105 10.1175L11.5905 10.6375C11.4705 10.7575 11.3505 10.8775 11.3105 10.9975C11.2305 11.1175 11.1905 11.2775 11.1905 11.4375C11.1505 11.5975 11.1505 11.7175 11.1505 12.0375H10.5105C10.5105 11.7175 10.5105 11.5975 10.5505 11.3575C10.5905 11.1575 10.6705 10.9575 10.7505 10.7575C10.8305 10.5975 10.9505 10.4375 11.1105 10.2775C11.2705 10.1175 11.4705 9.9575 11.6705 9.7175C11.8705 9.5175 12.0305 9.3175 12.1505 9.1175C12.2705 8.9175 12.3505 8.6375 12.3505 8.3975C12.3505 8.1975 12.3105 7.9975 12.2305 7.8375C12.1505 7.6775 12.0305 7.5175 11.9105 7.3975C11.7905 7.2775 11.6305 7.1975 11.4305 7.1175C11.2305 7.0375 11.0705 6.9975 10.8705 6.9975C10.5905 6.9975 10.3505 7.0375 10.1505 7.1575C9.9505 7.2375 9.7505 7.3975 9.6305 7.5575C9.5105 7.7175 9.3905 7.9175 9.3105 8.1575C9.2305 8.3975 9.1505 8.5175 9.1505 8.7975H8.5105C8.5105 8.4375 8.5505 8.1575 8.6705 7.8375ZM11.1505 12.7975V13.5975H10.3505V12.7975H11.1505Z" fill="black"/>
</svg>
