<svg width="19" height="20" viewBox="0 0 19 20" fill="none" xmlns="http://www.w3.org/2000/svg">
<path d="M5.44991 2.9054C6.64491 2.1774 8.35141 1.7904 10.1289 1.8494C11.9039 1.9089 13.6754 2.4109 15.0079 3.3779C15.1421 3.47523 15.3095 3.51527 15.4732 3.4892C15.6369 3.46313 15.7836 3.3731 15.8809 3.2389C15.9782 3.1047 16.0183 2.93733 15.9922 2.77361C15.9661 2.60989 15.8761 2.46323 15.7419 2.3659C14.1619 1.2199 12.1319 0.665897 10.1709 0.600397C8.21341 0.534897 6.25091 0.953897 4.79991 1.8384C4.7271 1.8797 4.66333 1.93522 4.61238 2.00164C4.56143 2.06807 4.52435 2.14405 4.50333 2.22508C4.48231 2.30611 4.47779 2.39054 4.49002 2.47335C4.50225 2.55616 4.531 2.63567 4.57455 2.70717C4.6181 2.77866 4.67557 2.84067 4.74355 2.88953C4.81153 2.93838 4.88862 2.97308 4.97027 2.99157C5.05191 3.01006 5.13644 3.01196 5.21883 2.99716C5.30123 2.98236 5.37981 2.95115 5.44991 2.9054ZM10.6984 3.4994C10.6169 3.48975 10.5343 3.49624 10.4553 3.51852C10.3763 3.5408 10.3024 3.57842 10.2379 3.62924C10.1735 3.68005 10.1196 3.74307 10.0795 3.81469C10.0394 3.88631 10.0138 3.96513 10.0042 4.04665C9.9945 4.12817 10.001 4.21079 10.0233 4.28979C10.0456 4.3688 10.0832 4.44264 10.134 4.50711C10.1848 4.57158 10.2478 4.62541 10.3195 4.66552C10.3911 4.70563 10.4699 4.73125 10.5514 4.7409C14.4659 5.2059 17.0134 8.2289 17.7594 12.4799C17.7906 12.6408 17.8836 12.783 18.0186 12.8759C18.1536 12.9688 18.3196 13.005 18.481 12.9767C18.6424 12.9483 18.7862 12.8578 18.8815 12.7245C18.9768 12.5912 19.0159 12.4258 18.9904 12.2639C18.1784 7.6364 15.3129 4.0474 10.6984 3.4994ZM7.34741 8.5394C5.43891 10.0669 4.34641 13.3744 6.43491 17.5944C6.50715 17.7428 6.51779 17.9137 6.46451 18.0698C6.41122 18.226 6.29835 18.3548 6.15049 18.428C6.00264 18.5013 5.83181 18.5131 5.67528 18.4609C5.51874 18.4087 5.3892 18.2967 5.31491 18.1494C3.02291 13.5189 4.10491 9.5329 6.56641 7.5634C7.78591 6.5874 9.32741 6.1309 10.8824 6.3749C12.4424 6.6199 13.9549 7.5609 15.1379 9.2654C15.1863 9.33273 15.2209 9.40903 15.2396 9.48985C15.2582 9.57068 15.2606 9.65441 15.2466 9.73616C15.2325 9.81791 15.2023 9.89605 15.1578 9.96602C15.1133 10.036 15.0552 10.0964 14.9871 10.1437C14.919 10.191 14.8421 10.2243 14.761 10.2416C14.6799 10.2589 14.5961 10.2599 14.5146 10.2446C14.4331 10.2292 14.3555 10.1977 14.2863 10.152C14.217 10.1063 14.1576 10.0473 14.1114 9.9784C13.0944 8.5134 11.8654 7.7949 10.6884 7.6099C9.50541 7.4239 8.31341 7.7664 7.34741 8.5394ZM9.68641 18.5944C8.40691 16.0094 8.01641 13.8244 8.24891 12.3779C8.36391 11.6609 8.62391 11.1714 8.95041 10.8774C9.26591 10.5939 9.70541 10.4364 10.3159 10.4939C11.1274 10.5709 11.5074 10.8379 11.7419 11.1564C12.0129 11.5244 12.1559 12.0414 12.3189 12.7779L12.3679 13.0014C12.6704 14.3934 13.0704 16.2299 15.0109 17.6289C15.1454 17.7258 15.3128 17.7654 15.4765 17.7388C15.6401 17.7123 15.7865 17.6219 15.8834 17.4874C15.9803 17.3529 16.0199 17.1855 15.9934 17.0218C15.9668 16.8582 15.8764 16.7118 15.7419 16.6149C14.1969 15.5009 13.8869 14.0909 13.5789 12.6879L13.5389 12.5079C13.3839 11.8069 13.1999 11.0279 12.7484 10.4154C12.2604 9.7529 11.5219 9.3529 10.4339 9.2499C9.52891 9.1639 8.72741 9.3974 8.11541 9.9474C7.51491 10.4874 7.16041 11.2724 7.01441 12.1799C6.72541 13.9824 7.22591 16.4409 8.56641 19.1489C8.64257 19.2928 8.77185 19.4012 8.92676 19.4512C9.08167 19.5013 9.24998 19.4889 9.39588 19.4167C9.54179 19.3445 9.65378 19.2183 9.70804 19.0648C9.7623 18.9113 9.75454 18.7427 9.68641 18.5949V18.5944ZM3.84391 3.4589C3.95354 3.58316 4.00934 3.74589 3.99903 3.91128C3.98871 4.07668 3.91313 4.23121 3.78891 4.3409C2.99091 5.0454 2.45241 5.7544 1.91741 6.6844C1.87644 6.75554 1.82185 6.81792 1.75677 6.86797C1.69169 6.91802 1.61739 6.95476 1.53812 6.97609C1.45884 6.99742 1.37613 7.00293 1.29473 6.99231C1.21332 6.98168 1.1348 6.95512 1.06366 6.91415C0.992514 6.87317 0.930137 6.81859 0.880089 6.75351C0.83004 6.68843 0.7933 6.61413 0.771965 6.53486C0.750631 6.45558 0.745121 6.37287 0.755749 6.29147C0.766377 6.21006 0.792936 6.13154 0.833908 6.0604C1.42191 5.0389 2.04191 4.2154 2.96191 3.4039C3.08618 3.29426 3.2489 3.23846 3.4143 3.24878C3.57969 3.25909 3.73422 3.33467 3.84391 3.4589ZM16.1179 12.2764C16.0901 12.1148 15.9999 11.9706 15.8667 11.8749C15.7335 11.7792 15.568 11.7396 15.406 11.7648C15.2439 11.79 15.0982 11.8779 15.0004 12.0095C14.9025 12.1411 14.8603 12.306 14.8829 12.4684C15.1379 14.1069 15.9854 15.1419 17.0104 15.8799C17.0771 15.9278 17.1525 15.9622 17.2324 15.9809C17.3123 15.9997 17.3952 16.0026 17.4762 15.9893C17.5572 15.9761 17.6348 15.9471 17.7046 15.9038C17.7744 15.8606 17.835 15.804 17.8829 15.7374C17.9308 15.6708 17.9652 15.5953 17.984 15.5154C18.0027 15.4355 18.0056 15.3527 17.9924 15.2716C17.9791 15.1906 17.9501 15.113 17.9068 15.0432C17.8636 14.9734 17.8071 14.9128 17.7404 14.8649C16.9279 14.2799 16.3114 13.5179 16.1179 12.2764ZM10.0789 12.2489C10.1608 12.2428 10.2431 12.2528 10.3211 12.2785C10.3991 12.3042 10.4712 12.345 10.5335 12.3986C10.5957 12.4521 10.6467 12.5175 10.6837 12.5908C10.7207 12.6641 10.7428 12.744 10.7489 12.8259C10.9014 14.8634 11.6474 16.5894 12.8459 17.9609C12.9017 18.0224 12.9446 18.0944 12.9722 18.1727C12.9999 18.251 13.0116 18.334 13.0068 18.4169C13.002 18.4998 12.9807 18.5809 12.9442 18.6555C12.9077 18.7301 12.8567 18.7966 12.7942 18.8512C12.7317 18.9059 12.6589 18.9475 12.5801 18.9737C12.5013 18.9999 12.4181 19.0102 12.3353 19.0039C12.2525 18.9975 12.1718 18.9748 12.0979 18.9369C12.024 18.8991 11.9584 18.8469 11.9049 18.7834C10.5239 17.2034 9.67491 15.2199 9.50241 12.9189C9.49627 12.8371 9.50631 12.7548 9.53196 12.6768C9.55761 12.5989 9.59836 12.5267 9.6519 12.4645C9.70543 12.4023 9.77069 12.3512 9.84396 12.3142C9.91723 12.2772 9.99706 12.255 10.0789 12.2489ZM8.11791 4.9489C8.19358 4.91705 8.26224 4.87061 8.31997 4.81223C8.3777 4.75385 8.42336 4.68467 8.45435 4.60864C8.48534 4.53262 8.50106 4.45123 8.50059 4.36913C8.50013 4.28703 8.4835 4.20582 8.45166 4.13015C8.41981 4.05447 8.37337 3.98581 8.31499 3.92809C8.25661 3.87036 8.18743 3.8247 8.1114 3.7937C8.03538 3.76271 7.95399 3.747 7.87189 3.74746C7.78979 3.74792 7.70858 3.76455 7.63291 3.7964C3.14691 5.6829 0.910408 9.9034 1.50491 14.9449C1.51449 15.0264 1.54004 15.1052 1.5801 15.1769C1.62015 15.2485 1.67392 15.3116 1.73834 15.3625C1.80276 15.4133 1.87657 15.451 1.95555 15.4733C2.03453 15.4957 2.11714 15.5022 2.19866 15.4926C2.28018 15.4831 2.35901 15.4575 2.43065 15.4175C2.5023 15.3774 2.56535 15.3236 2.61621 15.2592C2.66708 15.1948 2.70475 15.121 2.72709 15.042C2.74943 14.963 2.75599 14.8804 2.74641 14.7989C2.20991 10.2489 4.19991 6.5964 8.11791 4.9479V4.9489Z" fill="white"/>
</svg>
