<svg width="259" height="92" viewBox="0 0 259 92" fill="none" xmlns="http://www.w3.org/2000/svg">
<g clip-path="url(#clip0_1726_16226)">
<path fill-rule="evenodd" clip-rule="evenodd" d="M206.846 55.6106C206.697 55.2841 206.563 54.9577 206.444 54.6271C206.266 54.1313 206.155 53.6133 206.004 53.1102C205.94 52.8968 205.764 52.3428 205.753 52.2594C205.659 51.5311 206.197 51.2715 206.358 51.2078C206.435 51.1747 207.235 50.8617 207.658 51.7284C208.176 52.7879 208.547 53.8948 208.766 55.0181C209.197 55.9072 209.755 56.7582 210.388 57.4944C212.908 60.4222 216.081 59.9222 219.415 58.9959C219.927 58.8504 220.462 59.1394 220.626 59.6432C220.79 60.1508 220.527 60.699 220.028 60.8822C218.208 61.5634 215.295 63.9499 214.567 65.8168C214.414 66.2076 214.486 67.0326 214.508 67.8542C214.538 68.995 214.516 70.1374 214.292 70.675C214.26 70.758 213.823 71.6326 213.664 71.7863C213.281 72.1525 212.884 72.1065 212.645 72.0306C212.406 71.9546 212.106 71.7591 211.9 71.3573C211.684 70.9375 211.52 70.0013 211.453 69.8094C211.208 69.1133 210.692 67.7568 210.081 66.6358C209.751 66.0323 209.425 65.4815 209.07 65.2596C207.755 64.4383 206.166 65.0371 204.839 65.5861C204.687 65.6476 204.535 65.713 204.382 65.7744C203.867 66.0896 203.306 66.3718 202.697 66.6131C201.778 66.9787 201.389 66.1484 201.365 66.093C201.313 65.971 201.072 65.3355 201.717 64.8826C201.788 64.8348 202.33 64.5538 202.538 64.4445C202.828 64.2926 203.126 64.1551 203.426 64.0212C206.395 62.1469 207.396 58.848 206.846 55.6106ZM208.893 58.8051C210.793 61.0055 212.976 61.7301 215.323 61.694L215.323 61.6942C214.142 62.7805 213.134 64.0142 212.714 65.0944C212.554 65.5036 212.508 66.2531 212.507 67.081C212.202 66.3927 211.845 65.6689 211.469 65.0696C211.041 64.3856 210.567 63.8495 210.125 63.5728C209.272 63.0397 208.333 62.8669 207.386 62.9108C208.203 61.6748 208.698 60.2739 208.893 58.8051Z" fill="#FFB9AA"/>
</g>
<g clip-path="url(#clip1_1726_16226)">
<path fill-rule="evenodd" clip-rule="evenodd" d="M182.779 9.9756C182.705 9.8135 182.639 9.65143 182.58 9.4873C182.491 9.24114 182.436 8.98395 182.361 8.73415C182.329 8.6282 182.242 8.35314 182.236 8.3117C182.19 7.95011 182.457 7.8212 182.537 7.78959C182.575 7.77318 182.972 7.61774 183.182 8.04806C183.439 8.5741 183.624 9.12369 183.732 9.68141C183.946 10.1229 184.224 10.5454 184.538 10.9109C185.789 12.3646 187.364 12.1163 189.02 11.6564C189.274 11.5842 189.539 11.7277 189.621 11.9778C189.703 12.2298 189.572 12.502 189.324 12.5929C188.42 12.9312 186.974 14.1161 186.612 15.043C186.537 15.237 186.572 15.6466 186.584 16.0545C186.598 16.621 186.587 17.1882 186.476 17.4551C186.46 17.4963 186.243 17.9305 186.164 18.0068C185.974 18.1886 185.777 18.1658 185.658 18.1281C185.54 18.0904 185.391 17.9933 185.288 17.7938C185.181 17.5854 185.1 17.1206 185.066 17.0253C184.945 16.6797 184.689 16.0062 184.385 15.4496C184.222 15.15 184.06 14.8765 183.883 14.7663C183.231 14.3585 182.442 14.6559 181.783 14.9284C181.707 14.959 181.632 14.9914 181.556 15.0219C181.3 15.1784 181.021 15.3185 180.719 15.4383C180.263 15.6198 180.07 15.2076 180.058 15.1801C180.032 15.1195 179.913 14.804 180.233 14.5792C180.268 14.5554 180.537 14.4159 180.64 14.3616C180.784 14.2862 180.932 14.2179 181.081 14.1514C182.555 13.2209 183.052 11.583 182.779 9.9756ZM183.796 11.5617C184.739 12.6541 185.823 13.0139 186.988 12.996L186.988 12.9961C186.402 13.5354 185.901 14.148 185.693 14.6843C185.613 14.8875 185.59 15.2596 185.59 15.6706C185.438 15.3289 185.261 14.9695 185.075 14.672C184.862 14.3324 184.627 14.0662 184.407 13.9288C183.983 13.6641 183.518 13.5784 183.047 13.6001C183.453 12.9865 183.699 12.2909 183.796 11.5617Z" fill="#AB92F0"/>
</g>
<g clip-path="url(#clip2_1726_16226)">
<path fill-rule="evenodd" clip-rule="evenodd" d="M68.1748 68.3374C68.1102 68.1963 68.0523 68.0552 68.001 67.9123C67.924 67.698 67.8761 67.4741 67.8109 67.2566C67.7832 67.1643 67.7071 66.9249 67.7022 66.8888C67.6615 66.574 67.8943 66.4617 67.9638 66.4342C67.9972 66.4199 68.3429 66.2846 68.5257 66.6593C68.7495 67.1172 68.9101 67.5957 69.0045 68.0813C69.1909 68.4656 69.4322 68.8335 69.706 69.1517C70.7952 70.4173 72.1666 70.2011 73.6078 69.8007C73.8291 69.7379 74.0603 69.8628 74.1312 70.0806C74.2024 70.3 74.0886 70.5369 73.8728 70.6161C73.0861 70.9106 71.8268 71.9422 71.512 72.7492C71.4462 72.9181 71.4772 73.2747 71.4869 73.6299C71.4998 74.123 71.4902 74.6168 71.3936 74.8492C71.3793 74.8851 71.1907 75.2631 71.122 75.3296C70.9565 75.4879 70.7847 75.468 70.6814 75.4352C70.5781 75.4023 70.4485 75.3178 70.3592 75.1442C70.2659 74.9627 70.1952 74.558 70.1661 74.475C70.0602 74.1741 69.8372 73.5878 69.573 73.1032C69.4306 72.8423 69.2896 72.6042 69.1361 72.5083C68.5678 72.1533 67.8807 72.4122 67.3073 72.6495C67.2412 72.6761 67.1757 72.7043 67.1098 72.7309C66.887 72.8671 66.6443 72.9891 66.3812 73.0934C65.9841 73.2514 65.8157 72.8925 65.8053 72.8686C65.783 72.8158 65.679 72.5411 65.9578 72.3454C65.9884 72.3247 66.2225 72.2033 66.3125 72.156C66.438 72.0903 66.5668 72.0309 66.6965 71.973C67.9797 71.1628 68.4125 69.7368 68.1748 68.3374ZM69.0597 69.7183C69.8809 70.6694 70.8244 70.9826 71.839 70.9671L71.8389 70.9671C71.3286 71.4367 70.8928 71.97 70.7112 72.4369C70.6422 72.6138 70.6222 72.9378 70.6218 73.2956C70.49 72.9981 70.3356 72.6853 70.1731 72.4262C69.988 72.1305 69.7833 71.8988 69.5921 71.7792C69.2232 71.5487 68.8176 71.4741 68.4082 71.493C68.7613 70.9587 68.9753 70.3532 69.0597 69.7183Z" fill="#FFCEC4"/>
</g>
<g clip-path="url(#clip3_1726_16226)">
<path fill-rule="evenodd" clip-rule="evenodd" d="M43.1748 34.3374C43.1102 34.1963 43.0523 34.0552 43.001 33.9123C42.924 33.698 42.8761 33.4741 42.8109 33.2566C42.7832 33.1643 42.7071 32.9249 42.7022 32.8888C42.6615 32.574 42.8943 32.4617 42.9638 32.4342C42.9972 32.4199 43.3429 32.2846 43.5257 32.6593C43.7495 33.1172 43.9101 33.5957 44.0045 34.0813C44.1909 34.4656 44.4322 34.8335 44.706 35.1517C45.7952 36.4173 47.1666 36.2011 48.6078 35.8007C48.8291 35.7379 49.0603 35.8628 49.1312 36.0806C49.2024 36.3 49.0886 36.5369 48.8728 36.6161C48.0861 36.9106 46.8268 37.9422 46.512 38.7492C46.4462 38.9181 46.4772 39.2747 46.4869 39.6299C46.4998 40.123 46.4902 40.6168 46.3936 40.8492C46.3793 40.8851 46.1907 41.2631 46.122 41.3296C45.9565 41.4879 45.7847 41.468 45.6814 41.4352C45.5781 41.4023 45.4485 41.3178 45.3592 41.1442C45.2659 40.9627 45.1952 40.558 45.1661 40.475C45.0602 40.1741 44.8372 39.5878 44.573 39.1032C44.4306 38.8423 44.2896 38.6042 44.1361 38.5083C43.5678 38.1533 42.8807 38.4122 42.3073 38.6495C42.2412 38.6761 42.1757 38.7043 42.1098 38.7309C41.887 38.8671 41.6443 38.9891 41.3812 39.0934C40.9841 39.2514 40.8157 38.8925 40.8053 38.8686C40.783 38.8158 40.679 38.5411 40.9578 38.3454C40.9884 38.3247 41.2225 38.2033 41.3125 38.156C41.438 38.0903 41.5668 38.0309 41.6965 37.973C42.9797 37.1628 43.4125 35.7368 43.1748 34.3374ZM44.0597 35.7183C44.8809 36.6694 45.8244 36.9826 46.839 36.9671L46.8389 36.9671C46.3286 37.4367 45.8928 37.97 45.7112 38.4369C45.6422 38.6138 45.6222 38.9378 45.6218 39.2956C45.49 38.9981 45.3356 38.6853 45.1731 38.4262C44.988 38.1305 44.7833 37.8988 44.5921 37.7792C44.2232 37.5487 43.8176 37.4741 43.4082 37.493C43.7613 36.9587 43.9753 36.3532 44.0597 35.7183Z" fill="#4ADE80"/>
</g>
<g clip-path="url(#clip4_1726_16226)">
<path fill-rule="evenodd" clip-rule="evenodd" d="M4.17476 83.3374C4.11024 83.1963 4.05232 83.0552 4.00104 82.9123C3.92404 82.698 3.87614 82.4741 3.81093 82.2566C3.78319 82.1643 3.70709 81.9249 3.70223 81.8888C3.66149 81.574 3.89431 81.4617 3.96383 81.4342C3.9972 81.4199 4.34291 81.2846 4.52571 81.6593C4.74953 82.1172 4.91013 82.5957 5.00446 83.0813C5.19092 83.4656 5.43224 83.8335 5.70601 84.1517C6.79519 85.4173 8.16655 85.2011 9.6078 84.8007C9.82911 84.7379 10.0603 84.8628 10.1312 85.0806C10.2024 85.3 10.0886 85.5369 9.87275 85.6161C9.08607 85.9106 7.82675 86.9422 7.51203 87.7492C7.44622 87.9181 7.47717 88.2747 7.4869 88.6299C7.49978 89.123 7.49024 89.6168 7.39355 89.8492C7.37931 89.8851 7.19066 90.2631 7.12196 90.3296C6.95647 90.4879 6.78473 90.468 6.68142 90.4352C6.57811 90.4023 6.44848 90.3178 6.35923 90.1442C6.26593 89.9627 6.19523 89.558 6.16606 89.475C6.06016 89.1741 5.83719 88.5878 5.57297 88.1032C5.43062 87.8423 5.28957 87.6042 5.13607 87.5083C4.56783 87.1533 3.88073 87.4122 3.30728 87.6495C3.24125 87.6761 3.17566 87.7043 3.1098 87.7309C2.88697 87.8671 2.64429 87.9891 2.38122 88.0934C1.9841 88.2514 1.81567 87.8925 1.80534 87.8686C1.78302 87.8158 1.67897 87.5411 1.95777 87.3454C1.98836 87.3247 2.22245 87.2033 2.31249 87.156C2.438 87.0903 2.56679 87.0309 2.69652 86.973C3.97973 86.1628 4.41249 84.7368 4.17476 83.3374ZM5.05969 84.7183C5.88093 85.6694 6.82438 85.9826 7.83904 85.9671L7.83888 85.9671C7.32856 86.4367 6.89279 86.97 6.71122 87.4369C6.64221 87.6138 6.62222 87.9378 6.62182 88.2956C6.48995 87.9981 6.33564 87.6853 6.17314 87.4262C5.988 87.1305 5.78333 86.8988 5.59215 86.7792C5.22319 86.5487 4.81764 86.4741 4.40817 86.493C4.76126 85.9587 4.97529 85.3532 5.05969 84.7183Z" fill="white"/>
</g>
<g clip-path="url(#clip5_1726_16226)">
<path fill-rule="evenodd" clip-rule="evenodd" d="M251.674 76.9371C251.617 76.8129 251.566 76.6888 251.521 76.563C251.453 76.3744 251.411 76.1774 251.354 75.986C251.329 75.9048 251.262 75.6941 251.258 75.6624C251.222 75.3853 251.427 75.2866 251.488 75.2623C251.518 75.2498 251.822 75.1307 251.983 75.4604C252.18 75.8634 252.321 76.2845 252.404 76.7118C252.568 77.05 252.78 77.3737 253.021 77.6537C253.98 78.7674 255.187 78.5772 256.455 78.2248C256.65 78.1695 256.853 78.2795 256.915 78.4711C256.978 78.6642 256.878 78.8727 256.688 78.9424C255.996 79.2015 254.888 80.1093 254.611 80.8195C254.553 80.9681 254.58 81.2819 254.588 81.5945C254.6 82.0284 254.591 82.463 254.506 82.6675C254.494 82.699 254.328 83.0317 254.267 83.0902C254.122 83.2295 253.971 83.212 253.88 83.1831C253.789 83.1542 253.675 83.0798 253.596 82.927C253.514 82.7673 253.452 82.4112 253.426 82.3382C253.333 82.0734 253.137 81.5574 252.904 81.131C252.779 80.9014 252.655 80.6919 252.52 80.6075C252.02 80.2951 251.415 80.5229 250.91 80.7317C250.852 80.7551 250.795 80.78 250.737 80.8034C250.541 80.9232 250.327 81.0306 250.096 81.1224C249.746 81.2614 249.598 80.9456 249.589 80.9245C249.569 80.8781 249.478 80.6364 249.723 80.4641C249.75 80.4459 249.956 80.3391 250.035 80.2975C250.145 80.2397 250.259 80.1874 250.373 80.1364C251.502 79.4235 251.883 78.1686 251.674 76.9371ZM252.453 78.1523C253.175 78.9893 254.005 79.2649 254.898 79.2512L254.898 79.2513C254.449 79.6645 254.066 80.1338 253.906 80.5447C253.845 80.7003 253.828 80.9854 253.827 81.3003C253.711 81.0385 253.575 80.7632 253.432 80.5353C253.269 80.275 253.089 80.0711 252.921 79.9659C252.596 79.7631 252.24 79.6974 251.879 79.714C252.19 79.2439 252.378 78.711 252.453 78.1523Z" fill="white"/>
</g>
<circle cx="100" cy="36" r="2.5" stroke="white"/>
<circle opacity="0.5" cx="119" cy="2" r="1.5" stroke="white"/>
<defs>
<clipPath id="clip0_1726_16226">
<rect width="22.2734" height="22.2734" fill="white" transform="translate(197.188 53.6543) rotate(-15)"/>
</clipPath>
<clipPath id="clip1_1726_16226">
<rect width="11.0587" height="11.0587" fill="white" transform="translate(177.984 9.00439) rotate(-15)"/>
</clipPath>
<clipPath id="clip2_1726_16226">
<rect width="9.62799" height="9.62799" fill="white" transform="translate(64 67.4917) rotate(-15)"/>
</clipPath>
<clipPath id="clip3_1726_16226">
<rect width="9.62799" height="9.62799" fill="white" transform="translate(39 33.4917) rotate(-15)"/>
</clipPath>
<clipPath id="clip4_1726_16226">
<rect width="9.62799" height="9.62799" fill="white" transform="translate(0 82.4917) rotate(-15)"/>
</clipPath>
<clipPath id="clip5_1726_16226">
<rect width="8.47256" height="8.47256" fill="white" transform="translate(248 76.1929) rotate(-15)"/>
</clipPath>
</defs>
</svg>
