<svg width="25" height="24" viewBox="0 0 25 24" fill="none" xmlns="http://www.w3.org/2000/svg">
<path d="M22.9616 11.522L12.9616 1.52199C12.8367 1.39782 12.6678 1.32812 12.4916 1.32812C12.3155 1.32813 12.1465 1.39782 12.0216 1.52199L2.02163 11.522C1.91242 11.6495 1.85534 11.8136 1.86183 11.9814C1.86831 12.1491 1.93786 12.3083 2.05659 12.427C2.17532 12.5458 2.33448 12.6153 2.50226 12.6218C2.67005 12.6283 2.8341 12.5712 2.96163 12.462L12.4883 2.93532L22.015 12.4687C22.1425 12.5779 22.3065 12.6349 22.4743 12.6285C22.6421 12.622 22.8013 12.5524 22.92 12.4337C23.0387 12.315 23.1083 12.1558 23.1148 11.988C23.1213 11.8202 23.0642 11.6562 22.955 11.5287L22.9616 11.522Z" fill="#008AA7"/>
<path d="M19.1549 21.3371H15.8216V14.6704H9.15495V21.3371H5.82161V12.0037L4.48828 13.3371V21.3371C4.48828 21.6907 4.62876 22.0298 4.87881 22.2799C5.12885 22.5299 5.46799 22.6704 5.82161 22.6704H10.4883V16.0037H14.4883V22.6704H19.1549C19.5086 22.6704 19.8477 22.5299 20.0978 22.2799C20.3478 22.0298 20.4883 21.6907 20.4883 21.3371V13.1771L19.1549 11.8438V21.3371Z" fill="#008AA7"/>
</svg>
