<svg width="41" height="40" viewBox="0 0 41 40" fill="none" xmlns="http://www.w3.org/2000/svg">
<circle cx="20.4883" cy="20" r="20" fill="#E0F7FE"/>
<path d="M29.8215 11.3359H11.1549C10.8012 11.3359 10.4621 11.4764 10.2121 11.7265C9.96201 11.9765 9.82153 12.3156 9.82153 12.6693V27.3359C9.82153 27.6896 9.96201 28.0287 10.2121 28.2787C10.4621 28.5288 10.8012 28.6693 11.1549 28.6693H29.8215C30.1752 28.6693 30.5143 28.5288 30.7643 28.2787C31.0144 28.0287 31.1549 27.6896 31.1549 27.3359V12.6693C31.1549 12.3156 31.0144 11.9765 30.7643 11.7265C30.5143 11.4764 30.1752 11.3359 29.8215 11.3359ZM11.1549 27.3359V12.6693H29.8215V27.3359H11.1549Z" fill="#111111"/>
<path d="M18.9016 18.1447L14.8896 23.9753L12.1882 21.586L12.8949 20.7873L14.6936 22.378L18.9109 16.25L23.4109 22.9267L27.9136 16.9767L28.7642 17.6207L23.3602 24.76L18.9016 18.1447Z" fill="#111111"/>
</svg>
