<svg width="27" height="31" viewBox="0 0 27 31" fill="none" xmlns="http://www.w3.org/2000/svg">
<path d="M22.25 10.8125H16.6818V4.25C16.6818 3.50408 16.4304 2.78871 15.9829 2.26126C15.5353 1.73382 14.9284 1.4375 14.2955 1.4375H4.75001C4.11711 1.4375 3.51013 1.73382 3.0626 2.26126C2.61507 2.78871 2.36365 3.50408 2.36365 4.25V28.625C2.36365 28.8736 2.44745 29.1121 2.59663 29.2879C2.74581 29.4637 2.94813 29.5625 3.1591 29.5625H8.32956C8.43504 29.5625 8.5362 29.5131 8.61079 29.4252C8.68538 29.3373 8.72728 29.2181 8.72728 29.0938V24.9014C8.72728 24.3969 9.0564 23.9639 9.48446 23.9387C9.59201 23.9326 9.6995 23.9523 9.8004 23.9966C9.9013 24.0409 9.99353 24.1088 10.0715 24.1964C10.1494 24.2839 10.2115 24.3892 10.2539 24.5059C10.2963 24.6225 10.3182 24.7481 10.3182 24.875V29.0938C10.3182 29.2181 10.3601 29.3373 10.4347 29.4252C10.5093 29.5131 10.6104 29.5625 10.7159 29.5625H23.8409C24.0519 29.5625 24.2542 29.4637 24.4034 29.2879C24.5526 29.1121 24.6364 28.8736 24.6364 28.625V13.625C24.6364 12.8791 24.385 12.1637 23.9374 11.6363C23.4899 11.1088 22.8829 10.8125 22.25 10.8125ZM5.64887 25.8049C5.48413 25.8303 5.31677 25.7942 5.1703 25.7018C5.02382 25.6094 4.90557 25.4652 4.83215 25.2896C4.75873 25.1139 4.73382 24.9156 4.76092 24.7224C4.78802 24.5292 4.86576 24.3508 4.98325 24.2124C5.10073 24.0739 5.25205 23.9823 5.41598 23.9504C5.5799 23.9184 5.74819 23.9478 5.89724 24.0343C6.04628 24.1208 6.16859 24.2602 6.24701 24.4328C6.32542 24.6055 6.356 24.8027 6.33446 24.9969C6.31172 25.2018 6.23217 25.3921 6.10819 25.5382C5.98421 25.6843 5.82273 25.7781 5.64887 25.8049ZM5.64887 21.1174C5.48413 21.1428 5.31677 21.1067 5.1703 21.0143C5.02382 20.9219 4.90557 20.7777 4.83215 20.6021C4.75873 20.4264 4.73382 20.2281 4.76092 20.0349C4.78802 19.8417 4.86576 19.6633 4.98325 19.5249C5.10073 19.3864 5.25205 19.2948 5.41598 19.2629C5.5799 19.2309 5.74819 19.2603 5.89724 19.3468C6.04628 19.4333 6.16859 19.5727 6.24701 19.7453C6.32542 19.918 6.356 20.1152 6.33446 20.3094C6.31172 20.5143 6.23217 20.7046 6.10819 20.8507C5.98421 20.9968 5.82273 21.0906 5.64887 21.1174ZM5.64887 16.4299C5.48413 16.4553 5.31677 16.4192 5.1703 16.3268C5.02382 16.2344 4.90557 16.0902 4.83215 15.9146C4.75873 15.7389 4.73382 15.5406 4.76092 15.3474C4.78802 15.1542 4.86576 14.9759 4.98325 14.8374C5.10073 14.6989 5.25205 14.6073 5.41598 14.5754C5.5799 14.5434 5.74819 14.5728 5.89724 14.6593C6.04628 14.7458 6.16859 14.8852 6.24701 15.0578C6.32542 15.2305 6.356 15.4277 6.33446 15.6219C6.31172 15.8268 6.23217 16.0171 6.10819 16.1632C5.98421 16.3093 5.82273 16.4031 5.64887 16.4299ZM5.64887 11.7424C5.48413 11.7678 5.31677 11.7317 5.1703 11.6393C5.02382 11.5469 4.90557 11.4027 4.83215 11.2271C4.75873 11.0514 4.73382 10.8531 4.76092 10.6599C4.78802 10.4667 4.86576 10.2884 4.98325 10.1499C5.10073 10.0114 5.25205 9.91979 5.41598 9.88785C5.5799 9.85592 5.74819 9.88527 5.89724 9.9718C6.04628 10.0583 6.16859 10.1977 6.24701 10.3703C6.32542 10.543 6.356 10.7402 6.33446 10.9344C6.31172 11.1393 6.23217 11.3296 6.10819 11.4757C5.98421 11.6218 5.82273 11.7156 5.64887 11.7424ZM5.64887 7.05488C5.48413 7.08028 5.31677 7.04424 5.1703 6.95182C5.02382 6.8594 4.90557 6.71525 4.83215 6.53959C4.75873 6.36393 4.73382 6.16558 4.76092 5.97239C4.78802 5.77919 4.86576 5.60085 4.98325 5.46239C5.10073 5.32392 5.25205 5.23229 5.41598 5.20035C5.5799 5.16841 5.74819 5.19777 5.89724 5.2843C6.04628 5.37084 6.16859 5.5102 6.24701 5.68284C6.32542 5.85547 6.356 6.05271 6.33446 6.24688C6.31172 6.45178 6.23217 6.64209 6.10819 6.78821C5.98421 6.93434 5.82273 7.02808 5.64887 7.05488ZM9.62615 21.1174C9.4614 21.1428 9.29405 21.1067 9.14757 21.0143C9.00109 20.9219 8.88284 20.7777 8.80942 20.6021C8.736 20.4264 8.71109 20.2281 8.73819 20.0349C8.76529 19.8417 8.84304 19.6633 8.96052 19.5249C9.078 19.3864 9.22933 19.2948 9.39325 19.2629C9.55717 19.2309 9.72546 19.2603 9.87451 19.3468C10.0236 19.4333 10.1459 19.5727 10.2243 19.7453C10.3027 19.918 10.3333 20.1152 10.3117 20.3094C10.289 20.5143 10.2094 20.7046 10.0855 20.8507C9.96148 20.9968 9.80001 21.0906 9.62615 21.1174ZM9.62615 16.4299C9.4614 16.4553 9.29405 16.4192 9.14757 16.3268C9.00109 16.2344 8.88284 16.0902 8.80942 15.9146C8.736 15.7389 8.71109 15.5406 8.73819 15.3474C8.76529 15.1542 8.84304 14.9759 8.96052 14.8374C9.078 14.6989 9.22933 14.6073 9.39325 14.5754C9.55717 14.5434 9.72546 14.5728 9.87451 14.6593C10.0236 14.7458 10.1459 14.8852 10.2243 15.0578C10.3027 15.2305 10.3333 15.4277 10.3117 15.6219C10.289 15.8268 10.2094 16.0171 10.0855 16.1632C9.96148 16.3093 9.80001 16.4031 9.62615 16.4299ZM9.62615 11.7424C9.4614 11.7678 9.29405 11.7317 9.14757 11.6393C9.00109 11.5469 8.88284 11.4027 8.80942 11.2271C8.736 11.0514 8.71109 10.8531 8.73819 10.6599C8.76529 10.4667 8.84304 10.2884 8.96052 10.1499C9.078 10.0114 9.22933 9.91979 9.39325 9.88785C9.55717 9.85592 9.72546 9.88527 9.87451 9.9718C10.0236 10.0583 10.1459 10.1977 10.2243 10.3703C10.3027 10.543 10.3333 10.7402 10.3117 10.9344C10.289 11.1393 10.2094 11.3296 10.0855 11.4757C9.96148 11.6218 9.80001 11.7156 9.62615 11.7424ZM9.62615 7.05488C9.4614 7.08028 9.29405 7.04424 9.14757 6.95182C9.00109 6.8594 8.88284 6.71525 8.80942 6.53959C8.736 6.36393 8.71109 6.16558 8.73819 5.97239C8.76529 5.77919 8.84304 5.60085 8.96052 5.46239C9.078 5.32392 9.22933 5.23229 9.39325 5.20035C9.55717 5.16841 9.72546 5.19777 9.87451 5.2843C10.0236 5.37084 10.1459 5.5102 10.2243 5.68284C10.3027 5.85547 10.3333 6.05271 10.3117 6.24688C10.289 6.45178 10.2094 6.64209 10.0855 6.78821C9.96148 6.93434 9.80001 7.02808 9.62615 7.05488ZM13.6034 25.8049C13.4387 25.8303 13.2713 25.7942 13.1248 25.7018C12.9784 25.6094 12.8601 25.4652 12.7867 25.2896C12.7133 25.1139 12.6884 24.9156 12.7155 24.7224C12.7426 24.5292 12.8203 24.3508 12.9378 24.2124C13.0553 24.0739 13.2066 23.9823 13.3705 23.9504C13.5344 23.9184 13.7027 23.9478 13.8518 24.0343C14.0008 24.1208 14.1231 24.2602 14.2016 24.4328C14.28 24.6055 14.3105 24.8027 14.289 24.9969C14.2663 25.2018 14.1867 25.3921 14.0627 25.5382C13.9388 25.6843 13.7773 25.7781 13.6034 25.8049ZM13.6034 21.1174C13.4387 21.1428 13.2713 21.1067 13.1248 21.0143C12.9784 20.9219 12.8601 20.7777 12.7867 20.6021C12.7133 20.4264 12.6884 20.2281 12.7155 20.0349C12.7426 19.8417 12.8203 19.6633 12.9378 19.5249C13.0553 19.3864 13.2066 19.2948 13.3705 19.2629C13.5344 19.2309 13.7027 19.2603 13.8518 19.3468C14.0008 19.4333 14.1231 19.5727 14.2016 19.7453C14.28 19.918 14.3105 20.1152 14.289 20.3094C14.2663 20.5143 14.1867 20.7046 14.0627 20.8507C13.9388 20.9968 13.7773 21.0906 13.6034 21.1174ZM13.6034 16.4299C13.4387 16.4553 13.2713 16.4192 13.1248 16.3268C12.9784 16.2344 12.8601 16.0902 12.7867 15.9146C12.7133 15.7389 12.6884 15.5406 12.7155 15.3474C12.7426 15.1542 12.8203 14.9759 12.9378 14.8374C13.0553 14.6989 13.2066 14.6073 13.3705 14.5754C13.5344 14.5434 13.7027 14.5728 13.8518 14.6593C14.0008 14.7458 14.1231 14.8852 14.2016 15.0578C14.28 15.2305 14.3105 15.4277 14.289 15.6219C14.2663 15.8268 14.1867 16.0171 14.0627 16.1632C13.9388 16.3093 13.7773 16.4031 13.6034 16.4299ZM13.6034 11.7424C13.4387 11.7678 13.2713 11.7317 13.1248 11.6393C12.9784 11.5469 12.8601 11.4027 12.7867 11.2271C12.7133 11.0514 12.6884 10.8531 12.7155 10.6599C12.7426 10.4667 12.8203 10.2884 12.9378 10.1499C13.0553 10.0114 13.2066 9.91979 13.3705 9.88785C13.5344 9.85592 13.7027 9.88527 13.8518 9.9718C14.0008 10.0583 14.1231 10.1977 14.2016 10.3703C14.28 10.543 14.3105 10.7402 14.289 10.9344C14.2663 11.1393 14.1867 11.3296 14.0627 11.4757C13.9388 11.6218 13.7773 11.7156 13.6034 11.7424ZM13.6034 7.05488C13.4387 7.08028 13.2713 7.04424 13.1248 6.95182C12.9784 6.8594 12.8601 6.71525 12.7867 6.53959C12.7133 6.36393 12.6884 6.16558 12.7155 5.97239C12.7426 5.77919 12.8203 5.60085 12.9378 5.46239C13.0553 5.32392 13.2066 5.23229 13.3705 5.20035C13.5344 5.16841 13.7027 5.19777 13.8518 5.2843C14.0008 5.37084 14.1231 5.5102 14.2016 5.68284C14.28 5.85547 14.3105 6.05271 14.289 6.24688C14.2663 6.45178 14.1867 6.64209 14.0627 6.78821C13.9388 6.93434 13.7773 7.02808 13.6034 7.05488ZM22.8466 27.6875H16.6818V12.6875H22.25C22.461 12.6875 22.6633 12.7863 22.8125 12.9621C22.9617 13.1379 23.0455 13.3764 23.0455 13.625V27.4531C23.0455 27.5153 23.0245 27.5749 22.9872 27.6189C22.9499 27.6628 22.8993 27.6875 22.8466 27.6875Z" fill="black"/>
<path d="M20.659 23.9375C20.5017 23.9375 20.3479 23.9925 20.2171 24.0955C20.0863 24.1985 19.9843 24.3449 19.9241 24.5162C19.8639 24.6875 19.8482 24.876 19.8789 25.0579C19.9096 25.2398 19.9853 25.4068 20.0966 25.5379C20.2078 25.669 20.3495 25.7583 20.5038 25.7945C20.6582 25.8307 20.8181 25.8121 20.9634 25.7411C21.1088 25.6702 21.233 25.55 21.3204 25.3958C21.4078 25.2417 21.4545 25.0604 21.4545 24.875C21.4545 24.6264 21.3707 24.3879 21.2215 24.2121C21.0723 24.0363 20.87 23.9375 20.659 23.9375ZM20.659 19.25C20.5017 19.25 20.3479 19.305 20.2171 19.408C20.0863 19.511 19.9843 19.6574 19.9241 19.8287C19.8639 20 19.8482 20.1885 19.8789 20.3704C19.9096 20.5523 19.9853 20.7193 20.0966 20.8504C20.2078 20.9815 20.3495 21.0708 20.5038 21.107C20.6582 21.1432 20.8181 21.1246 20.9634 21.0536C21.1088 20.9827 21.233 20.8625 21.3204 20.7083C21.4078 20.5542 21.4545 20.3729 21.4545 20.1875C21.4545 19.9389 21.3707 19.7004 21.2215 19.5246C21.0723 19.3488 20.87 19.25 20.659 19.25ZM20.659 14.5625C20.5017 14.5625 20.3479 14.6175 20.2171 14.7205C20.0863 14.8235 19.9843 14.9699 19.9241 15.1412C19.8639 15.3125 19.8482 15.501 19.8789 15.6829C19.9096 15.8648 19.9853 16.0318 20.0966 16.1629C20.2078 16.294 20.3495 16.3833 20.5038 16.4195C20.6582 16.4557 20.8181 16.4371 20.9634 16.3661C21.1088 16.2952 21.233 16.175 21.3204 16.0208C21.4078 15.8667 21.4545 15.6854 21.4545 15.5C21.4545 15.2514 21.3707 15.0129 21.2215 14.8371C21.0723 14.6613 20.87 14.5625 20.659 14.5625ZM17.4772 23.9375C17.3199 23.9375 17.1661 23.9925 17.0353 24.0955C16.9045 24.1985 16.8025 24.3449 16.7423 24.5162C16.6821 24.6875 16.6664 24.876 16.697 25.0579C16.7277 25.2398 16.8035 25.4068 16.9147 25.5379C17.026 25.669 17.1677 25.7583 17.322 25.7945C17.4763 25.8307 17.6363 25.8121 17.7816 25.7411C17.927 25.6702 18.0512 25.55 18.1386 25.3958C18.226 25.2417 18.2727 25.0604 18.2727 24.875C18.2727 24.6264 18.1889 24.3879 18.0397 24.2121C17.8905 24.0363 17.6882 23.9375 17.4772 23.9375ZM17.4772 19.25C17.3199 19.25 17.1661 19.305 17.0353 19.408C16.9045 19.511 16.8025 19.6574 16.7423 19.8287C16.6821 20 16.6664 20.1885 16.697 20.3704C16.7277 20.5523 16.8035 20.7193 16.9147 20.8504C17.026 20.9815 17.1677 21.0708 17.322 21.107C17.4763 21.1432 17.6363 21.1246 17.7816 21.0536C17.927 20.9827 18.0512 20.8625 18.1386 20.7083C18.226 20.5542 18.2727 20.3729 18.2727 20.1875C18.2727 19.9389 18.1889 19.7004 18.0397 19.5246C17.8905 19.3488 17.6882 19.25 17.4772 19.25ZM17.4772 14.5625C17.3199 14.5625 17.1661 14.6175 17.0353 14.7205C16.9045 14.8235 16.8025 14.9699 16.7423 15.1412C16.6821 15.3125 16.6664 15.501 16.697 15.6829C16.7277 15.8648 16.8035 16.0318 16.9147 16.1629C17.026 16.294 17.1677 16.3833 17.322 16.4195C17.4763 16.4557 17.6363 16.4371 17.7816 16.3661C17.927 16.2952 18.0512 16.175 18.1386 16.0208C18.226 15.8667 18.2727 15.6854 18.2727 15.5C18.2727 15.2514 18.1889 15.0129 18.0397 14.8371C17.8905 14.6613 17.6882 14.5625 17.4772 14.5625Z" fill="black"/>
</svg>
