<svg width="33" height="32" viewBox="0 0 33 32" fill="none" xmlns="http://www.w3.org/2000/svg">
<path d="M29.3486 3.49341C26.0345 0.179281 20.642 0.179281 17.3279 3.49341L11.3175 9.50384L12.7318 10.918L18.7421 4.90759C19.9611 3.68861 21.6144 3.00379 23.3383 3.0038C24.1919 3.0038 25.0371 3.17193 25.8257 3.49859C26.6144 3.82525 27.3309 4.30404 27.9345 4.90763C28.5381 5.51121 29.0169 6.22777 29.3435 7.01639C29.6702 7.805 29.8383 8.65024 29.8383 9.50383C29.8383 10.3574 29.6701 11.2027 29.3435 11.9913C29.0168 12.7799 28.538 13.4965 27.9345 14.1L21.924 20.1105L23.338 21.5247L29.3485 15.5142C32.663 12.2001 32.663 6.80759 29.3486 3.49341ZM14.853 27.1815C13.634 28.4005 11.9807 29.0853 10.2568 29.0853C8.53286 29.0853 6.87956 28.4005 5.66058 27.1815C4.44159 25.9625 3.75678 24.3092 3.75678 22.5853C3.75678 20.8614 4.44159 19.2081 5.66058 17.9892L11.3175 12.3322L9.90333 10.918L4.24633 16.575C3.45395 17.3636 2.82492 18.3008 2.39526 19.3328C1.96561 20.3649 1.74376 21.4716 1.74244 22.5896C1.74111 23.7075 1.96033 24.8147 2.38753 25.8478C2.81474 26.8809 3.44154 27.8196 4.23204 28.6101C5.02254 29.4006 5.96122 30.0274 6.99432 30.4546C8.02741 30.8818 9.13463 31.101 10.2526 31.0996C11.3705 31.0983 12.4772 30.8765 13.5093 30.4468C14.5413 30.0171 15.4785 29.3881 16.2671 28.5957L21.924 22.9388L20.5098 21.5247L14.853 27.1815Z" fill="#008AA7"/>
<path d="M8.84253 22.5797L22.9847 8.4375L24.3989 9.85175L10.2567 23.9939L8.84253 22.5797Z" fill="#008AA7"/>
</svg>
