<svg width="24" height="24" viewBox="0 0 24 24" fill="none" xmlns="http://www.w3.org/2000/svg">
<path d="M21.5389 7.55002C21.5389 8.21002 21.0102 8.75002 20.364 8.75002H3.13286C2.48669 8.75002 1.95801 8.21002 1.95801 7.55002V7.54002C1.95801 5.25002 3.76924 3.40002 6.01124 3.40002H17.4758C19.7178 3.40002 21.5389 5.26002 21.5389 7.55002Z" fill="#017189"/>
<path d="M1.95801 11.45V16.46C1.95801 18.75 3.76924 20.6 6.01124 20.6H17.4758C19.7178 20.6 21.5389 18.74 21.5389 16.45V11.45C21.5389 10.79 21.0102 10.25 20.364 10.25H3.13286C2.48669 10.25 1.95801 10.79 1.95801 11.45ZM7.83226 17.25H5.87418C5.47277 17.25 5.1399 16.91 5.1399 16.5C5.1399 16.09 5.47277 15.75 5.87418 15.75H7.83226C8.23367 15.75 8.56655 16.09 8.56655 16.5C8.56655 16.91 8.23367 17.25 7.83226 17.25ZM14.196 17.25H10.2799C9.87846 17.25 9.54559 16.91 9.54559 16.5C9.54559 16.09 9.87846 15.75 10.2799 15.75H14.196C14.5974 15.75 14.9303 16.09 14.9303 16.5C14.9303 16.91 14.5974 17.25 14.196 17.25Z" fill="#017189"/>
</svg>
