<svg width="24" height="24" viewBox="0 0 24 24" fill="none" xmlns="http://www.w3.org/2000/svg">
<path d="M7.48966 20.91C7.46028 20.91 7.42112 20.93 7.39175 20.93C5.49241 19.97 3.94552 18.38 2.99585 16.44C2.99585 16.41 3.01543 16.37 3.01543 16.34C4.20986 16.7 5.44346 16.97 6.66726 17.18C6.88265 18.44 7.1372 19.69 7.48966 20.91Z" fill="#017189"/>
<path d="M20.501 16.45C19.5318 18.44 17.9164 20.05 15.9485 21.02C16.3205 19.75 16.6338 18.47 16.8394 17.18C18.073 16.97 19.287 16.7 20.4815 16.34C20.4717 16.38 20.501 16.42 20.501 16.45Z" fill="#017189"/>
<path d="M20.5794 7.70998C19.3458 7.32998 18.1024 7.01998 16.8394 6.79998C16.6338 5.50998 16.3303 4.22998 15.9485 2.97998C17.9751 3.96998 19.6101 5.63998 20.5794 7.70998Z" fill="#017189"/>
<path d="M7.48961 3.09006C7.13716 4.31006 6.8826 5.55006 6.677 6.81006C5.41404 7.01006 4.16086 7.33006 2.91748 7.71006C3.86715 5.70006 5.44341 4.05006 7.39171 3.06006C7.42108 3.06006 7.46024 3.09006 7.48961 3.09006Z" fill="#017189"/>
<path d="M15.1653 6.59C12.8939 6.33 10.6029 6.33 8.33154 6.59C8.5763 5.22 8.8896 3.85 9.33017 2.53C9.34975 2.45 9.33996 2.39 9.34975 2.31C10.1232 2.12 10.9162 2 11.7484 2C12.5708 2 13.3736 2.12 14.1373 2.31C14.1471 2.39 14.1471 2.45 14.1666 2.53C14.6072 3.86 14.9205 5.22 15.1653 6.59Z" fill="#017189"/>
<path d="M6.45181 15.49C5.10073 15.24 3.76924 14.92 2.4769 14.47C2.39858 14.45 2.33983 14.46 2.26151 14.45C2.07549 13.66 1.95801 12.85 1.95801 12C1.95801 11.16 2.07549 10.34 2.26151 9.56001C2.33983 9.55001 2.39858 9.55001 2.4769 9.53001C3.77903 9.09001 5.10073 8.76001 6.45181 8.51001C6.20705 10.83 6.20705 13.17 6.45181 15.49Z" fill="#017189"/>
<path d="M21.539 12C21.539 12.85 21.4215 13.66 21.2355 14.45C21.1571 14.46 21.0984 14.45 21.0201 14.47C19.718 14.91 18.3865 15.24 17.0452 15.49C17.2997 13.17 17.2997 10.83 17.0452 8.51001C18.3865 8.76001 19.7277 9.08001 21.0201 9.53001C21.0984 9.55001 21.1571 9.56001 21.2355 9.56001C21.4215 10.35 21.539 11.16 21.539 12Z" fill="#017189"/>
<path d="M15.1653 17.41C14.9205 18.79 14.6072 20.15 14.1666 21.47C14.1471 21.55 14.1471 21.61 14.1373 21.69C13.3736 21.88 12.5708 22 11.7484 22C10.9162 22 10.1232 21.88 9.34975 21.69C9.33996 21.61 9.34975 21.55 9.33017 21.47C8.89939 20.14 8.5763 18.79 8.33154 17.41C9.46723 17.54 10.6029 17.63 11.7484 17.63C12.8939 17.63 14.0394 17.54 15.1653 17.41Z" fill="#017189"/>
<path d="M15.4329 15.7633C12.9842 16.0789 10.5127 16.0789 8.06398 15.7633C7.75504 13.2622 7.75504 10.7378 8.06398 8.23667C10.5127 7.92111 12.9842 7.92111 15.4329 8.23667C15.7419 10.7378 15.7419 13.2622 15.4329 15.7633Z" fill="#017189"/>
</svg>
