<svg width="117" height="116" viewBox="0 0 117 116" fill="none" xmlns="http://www.w3.org/2000/svg">
<path d="M58.5 83.8585C62.8511 83.8585 66.3783 80.3312 66.3783 75.9801C66.3783 71.6291 62.8511 68.1018 58.5 68.1018C54.1489 68.1018 50.6216 71.6291 50.6216 75.9801C50.6216 80.3312 54.1489 83.8585 58.5 83.8585Z" fill="#017189"/>
<path d="M88.8533 46.0617V40.02C88.8533 26.97 85.7117 9.66669 58.5 9.66669C31.2883 9.66669 28.1467 26.97 28.1467 40.02V46.0617C14.6133 47.7533 10.1667 54.6167 10.1667 71.485V80.475C10.1667 100.292 16.2083 106.333 36.025 106.333H80.975C100.792 106.333 106.833 100.292 106.833 80.475V71.485C106.833 54.6167 102.387 47.7533 88.8533 46.0617ZM58.5 90.5767C50.4283 90.5767 43.9033 84.0033 43.9033 75.98C43.9033 67.9084 50.4767 61.3833 58.5 61.3833C66.5233 61.3833 73.0967 67.9567 73.0967 75.98C73.0967 84.0517 66.5717 90.5767 58.5 90.5767ZM36.025 45.6267C35.6383 45.6267 35.3 45.6267 34.9133 45.6267V40.02C34.9133 25.8584 38.925 16.4334 58.5 16.4334C78.075 16.4334 82.0867 25.8584 82.0867 40.02V45.675C81.7 45.675 81.3617 45.675 80.975 45.675H36.025V45.6267Z" fill="#017189"/>
</svg>
