<svg width="18" height="21" viewBox="0 0 18 21" fill="none" xmlns="http://www.w3.org/2000/svg">
<path d="M17.9101 9.97188V5.58187C17.9101 4.76187 17.2901 3.83187 16.5201 3.52187L10.9501 1.24187C9.70009 0.731875 8.29009 0.731875 7.04009 1.24187L1.47009 3.52187C0.710088 3.83187 0.0900879 4.76187 0.0900879 5.58187V9.97188C0.0900879 14.8619 3.64009 19.4419 8.49009 20.7819C8.82009 20.8719 9.18009 20.8719 9.51009 20.7819C14.3601 19.4419 17.9101 14.8619 17.9101 9.97188ZM9.75009 11.7219V14.3519C9.75009 14.7619 9.41009 15.1019 9.00009 15.1019C8.59009 15.1019 8.25009 14.7619 8.25009 14.3519V11.7219C7.24009 11.4019 6.50009 10.4619 6.50009 9.35188C6.50009 7.97188 7.62009 6.85187 9.00009 6.85187C10.3801 6.85187 11.5001 7.97188 11.5001 9.35188C11.5001 10.4719 10.7601 11.4019 9.75009 11.7219Z" fill="white"/>
</svg>
