<svg width="25" height="24" viewBox="0 0 25 24" fill="none" xmlns="http://www.w3.org/2000/svg">
<path d="M17.2917 4.13706L17.2217 7.92704C17.2117 8.44704 17.5418 9.13706 17.9618 9.44706L20.4417 11.327C22.0317 12.527 21.7717 13.9971 19.8717 14.5971L16.6417 15.607C16.1017 15.777 15.5317 16.3671 15.3917 16.9171L14.6217 19.857C14.0117 22.177 12.4917 22.407 11.2317 20.367L9.4717 17.517C9.1517 16.997 8.39171 16.6071 7.79171 16.6371L4.45174 16.807C2.06174 16.927 1.38173 15.5471 2.94173 13.7271L4.92171 11.427C5.29171 10.997 5.46171 10.1971 5.29171 9.65705L4.28176 6.42704C3.69176 4.52704 4.75174 3.47706 6.64174 4.09706L9.59176 5.06706C10.0918 5.22706 10.8417 5.11705 11.2617 4.80705L14.3418 2.58705C16.0018 1.38705 17.3317 2.08706 17.2917 4.13706Z" stroke="white" stroke-width="1.5" stroke-linecap="round" stroke-linejoin="round"/>
<path d="M21.9118 21.9987L18.8818 18.9688" stroke="white" stroke-width="1.5" stroke-linecap="round" stroke-linejoin="round"/>
</svg>
