<svg width="25" height="24" viewBox="0 0 25 24" fill="none" xmlns="http://www.w3.org/2000/svg">
<path d="M3.11523 20.586L6.70123 17H18.1152C18.6457 17 19.1544 16.7893 19.5294 16.4142C19.9045 16.0391 20.1152 15.5304 20.1152 15V6C20.1152 5.46957 19.9045 4.96086 19.5294 4.58579C19.1544 4.21071 18.6457 4 18.1152 4H5.11523C4.5848 4 4.07609 4.21071 3.70102 4.58579C3.32595 4.96086 3.11523 5.46957 3.11523 6V20.586ZM3.11523 22H2.11523V6C2.11523 5.20435 2.4313 4.44129 2.99391 3.87868C3.55652 3.31607 4.31958 3 5.11523 3H18.1152C18.9109 3 19.6739 3.31607 20.2366 3.87868C20.7992 4.44129 21.1152 5.20435 21.1152 6V15C21.1152 15.7956 20.7992 16.5587 20.2366 17.1213C19.6739 17.6839 18.9109 18 18.1152 18H7.11523L3.11523 22ZM6.11523 7H17.1152V8H6.11523V7ZM6.11523 10H17.1152V11H6.11523V10ZM6.11523 13H14.1152V14H6.11523V13Z" fill="black"/>
</svg>
