<svg width="25" height="24" viewBox="0 0 25 24" fill="none" xmlns="http://www.w3.org/2000/svg">
<path d="M17.1549 2.66406H7.82161C7.46799 2.66406 7.12885 2.80454 6.87881 3.05459C6.62876 3.30464 6.48828 3.64377 6.48828 3.9974V19.9974C6.48828 20.351 6.62876 20.6902 6.87881 20.9402C7.12885 21.1903 7.46799 21.3307 7.82161 21.3307H17.1549C17.5086 21.3307 17.8477 21.1903 18.0978 20.9402C18.3478 20.6902 18.4883 20.351 18.4883 19.9974V3.9974C18.4883 3.64377 18.3478 3.30464 18.0978 3.05459C17.8477 2.80454 17.5086 2.66406 17.1549 2.66406ZM7.82161 3.9974H17.1549V15.9974H7.82161V3.9974ZM7.82161 19.9974V17.3307H17.1549V19.9974H7.82161Z" fill="#008AA7"/>
<path d="M11.8215 18H13.1549V19.3333H11.8215V18Z" fill="#008AA7"/>
</svg>
