<svg width="24" height="25" viewBox="0 0 24 25" fill="none" xmlns="http://www.w3.org/2000/svg">
<path d="M15 20.8878L13.0575 18.9453L12 20.0028L15 23.0028L21 17.0028L19.9425 15.9453L15 20.8878Z" fill="black"/>
<path d="M7.5 21.5V8H16.5V14.75H18V5C17.9996 4.6023 17.8414 4.221 17.5602 3.93978C17.279 3.65856 16.8977 3.5004 16.5 3.5H7.5C7.1023 3.5004 6.721 3.65856 6.43978 3.93978C6.15856 4.221 6.0004 4.6023 6 5V21.5C6.0004 21.8977 6.15856 22.279 6.43978 22.5602C6.721 22.8414 7.1023 22.9996 7.5 23H10.5V21.5H7.5ZM7.5 5H16.5V6.5H7.5V5Z" fill="black"/>
</svg>
