<svg width="18" height="18" viewBox="0 0 18 18" fill="none" xmlns="http://www.w3.org/2000/svg">
<path d="M14.4001 0.601562C15.1957 0.601562 15.9588 0.917633 16.5214 1.48024C17.084 2.04285 17.4001 2.80591 17.4001 3.60156V14.4016C17.4001 15.1972 17.084 15.9603 16.5214 16.5229C15.9588 17.0855 15.1957 17.4016 14.4001 17.4016H3.6001C2.80445 17.4016 2.04139 17.0855 1.47878 16.5229C0.916168 15.9603 0.600098 15.1972 0.600098 14.4016V3.60156C0.600098 2.80591 0.916168 2.04285 1.47878 1.48024C2.04139 0.917633 2.80445 0.601563 3.6001 0.601562H14.4001ZM14.4001 1.80156H3.6001C3.12271 1.80156 2.66487 1.9912 2.32731 2.32877C1.98974 2.66634 1.8001 3.12417 1.8001 3.60156V14.4016C1.8001 14.879 1.98974 15.3368 2.32731 15.6744C2.66487 16.0119 3.12271 16.2016 3.6001 16.2016H14.4001C14.8775 16.2016 15.3353 16.0119 15.6729 15.6744C16.0105 15.3368 16.2001 14.879 16.2001 14.4016V3.60156C16.2001 3.12417 16.0105 2.66634 15.6729 2.32877C15.3353 1.9912 14.8775 1.80156 14.4001 1.80156ZM5.4001 10.2016C5.71836 10.2016 6.02358 10.328 6.24863 10.553C6.47367 10.7781 6.6001 11.0833 6.6001 11.4016C6.6001 11.7198 6.47367 12.025 6.24863 12.2501C6.02358 12.4751 5.71836 12.6016 5.4001 12.6016C5.08184 12.6016 4.77661 12.4751 4.55157 12.2501C4.32653 12.025 4.2001 11.7198 4.2001 11.4016C4.2001 11.0833 4.32653 10.7781 4.55157 10.553C4.77661 10.328 5.08184 10.2016 5.4001 10.2016ZM9.0001 10.2016C9.31836 10.2016 9.62358 10.328 9.84863 10.553C10.0737 10.7781 10.2001 11.0833 10.2001 11.4016C10.2001 11.7198 10.0737 12.025 9.84863 12.2501C9.62358 12.4751 9.31836 12.6016 9.0001 12.6016C8.68184 12.6016 8.37661 12.4751 8.15157 12.2501C7.92653 12.025 7.8001 11.7198 7.8001 11.4016C7.8001 11.0833 7.92653 10.7781 8.15157 10.553C8.37661 10.328 8.68184 10.2016 9.0001 10.2016ZM5.4001 5.40156C5.71836 5.40156 6.02358 5.52799 6.24863 5.75303C6.47367 5.97808 6.6001 6.2833 6.6001 6.60156C6.6001 6.91982 6.47367 7.22505 6.24863 7.45009C6.02358 7.67513 5.71836 7.80156 5.4001 7.80156C5.08184 7.80156 4.77661 7.67513 4.55157 7.45009C4.32653 7.22505 4.2001 6.91982 4.2001 6.60156C4.2001 6.2833 4.32653 5.97808 4.55157 5.75303C4.77661 5.52799 5.08184 5.40156 5.4001 5.40156ZM9.0001 5.40156C9.31836 5.40156 9.62358 5.52799 9.84863 5.75303C10.0737 5.97808 10.2001 6.2833 10.2001 6.60156C10.2001 6.91982 10.0737 7.22505 9.84863 7.45009C9.62358 7.67513 9.31836 7.80156 9.0001 7.80156C8.68184 7.80156 8.37661 7.67513 8.15157 7.45009C7.92653 7.22505 7.8001 6.91982 7.8001 6.60156C7.8001 6.2833 7.92653 5.97808 8.15157 5.75303C8.37661 5.52799 8.68184 5.40156 9.0001 5.40156ZM12.6001 5.40156C12.9184 5.40156 13.2236 5.52799 13.4486 5.75303C13.6737 5.97808 13.8001 6.2833 13.8001 6.60156C13.8001 6.91982 13.6737 7.22505 13.4486 7.45009C13.2236 7.67513 12.9184 7.80156 12.6001 7.80156C12.2818 7.80156 11.9766 7.67513 11.7516 7.45009C11.5265 7.22505 11.4001 6.91982 11.4001 6.60156C11.4001 6.2833 11.5265 5.97808 11.7516 5.75303C11.9766 5.52799 12.2818 5.40156 12.6001 5.40156Z" fill="#008AA7"/>
</svg>
