<svg width="23" height="17" viewBox="0 0 23 17" fill="none" xmlns="http://www.w3.org/2000/svg">
<path d="M18 14.05C18.9283 14.05 19.8185 13.6813 20.4749 13.0249C21.1313 12.3685 21.5 11.4783 21.5 10.55C21.5 9.62174 21.1313 8.7315 20.4749 8.07513C19.8185 7.41875 18.9283 7.05 18 7.05H17C17.1459 6.39996 17.1481 5.73041 17.0065 5.0796C16.865 4.42878 16.5823 3.80944 16.1748 3.25693C15.7672 2.70442 15.2427 2.22957 14.6313 1.85948C14.0198 1.48939 13.3334 1.23132 12.6111 1.1C11.8888 0.968678 11.1449 0.966678 10.4218 1.09411C9.69865 1.22155 9.01049 1.47592 8.39659 1.84271C7.15677 2.58348 6.29469 3.73718 6.00001 5.05C4.93396 5.0073 3.88554 5.3204 3.03428 5.9357C2.18301 6.551 1.58183 7.43022 1.33368 8.42282C1.08553 9.41543 1.20583 10.4597 1.674 11.3768C2.14218 12.2939 2.92909 13.0268 3.9 13.45" stroke="white" stroke-width="1.5" stroke-linecap="round" stroke-linejoin="round"/>
<path opacity="0.4" d="M11 16V7" stroke="white" stroke-width="1.5" stroke-linecap="round" stroke-linejoin="round"/>
<path opacity="0.4" d="M8.00002 10L11 7L14 10" stroke="white" stroke-width="1.5" stroke-linecap="round" stroke-linejoin="round"/>
</svg>
