<svg width="25" height="25" viewBox="0 0 25 25" fill="none" xmlns="http://www.w3.org/2000/svg">
<g clip-path="url(#clip0_9068_116720)">
<path fill-rule="evenodd" clip-rule="evenodd" d="M5.75 9.5C5.55109 9.5 5.36032 9.57902 5.21967 9.71967C5.07902 9.86032 5 10.0511 5 10.25V22.25C5 22.4489 5.07902 22.6397 5.21967 22.7803C5.36032 22.921 5.55109 23 5.75 23H19.25C19.4489 23 19.6397 22.921 19.7803 22.7803C19.921 22.6397 20 22.4489 20 22.25V10.25C20 10.0511 19.921 9.86032 19.7803 9.71967C19.6397 9.57902 19.4489 9.5 19.25 9.5H16.25C16.0511 9.5 15.8603 9.42098 15.7197 9.28033C15.579 9.13968 15.5 8.94891 15.5 8.75C15.5 8.55109 15.579 8.36032 15.7197 8.21967C15.8603 8.07902 16.0511 8 16.25 8H19.25C19.8467 8 20.419 8.23705 20.841 8.65901C21.2629 9.08097 21.5 9.65326 21.5 10.25V22.25C21.5 22.8467 21.2629 23.419 20.841 23.841C20.419 24.2629 19.8467 24.5 19.25 24.5H5.75C5.15326 24.5 4.58097 24.2629 4.15901 23.841C3.73705 23.419 3.5 22.8467 3.5 22.25V10.25C3.5 9.65326 3.73705 9.08097 4.15901 8.65901C4.58097 8.23705 5.15326 8 5.75 8H8.75C8.94891 8 9.13968 8.07902 9.28033 8.21967C9.42098 8.36032 9.5 8.55109 9.5 8.75C9.5 8.94891 9.42098 9.13968 9.28033 9.28033C9.13968 9.42098 8.94891 9.5 8.75 9.5H5.75Z" fill="#008AA7"/>
<path fill-rule="evenodd" clip-rule="evenodd" d="M11.9699 18.281C12.0396 18.3508 12.1224 18.4063 12.2135 18.4441C12.3046 18.4819 12.4023 18.5013 12.5009 18.5013C12.5996 18.5013 12.6973 18.4819 12.7884 18.4441C12.8795 18.4063 12.9623 18.3508 13.0319 18.281L17.5319 13.781C17.6728 13.6402 17.7519 13.4492 17.7519 13.25C17.7519 13.0508 17.6728 12.8598 17.5319 12.719C17.3911 12.5782 17.2001 12.4991 17.0009 12.4991C16.8018 12.4991 16.6108 12.5782 16.4699 12.719L13.2509 15.9395V2.75C13.2509 2.55109 13.1719 2.36032 13.0313 2.21967C12.8906 2.07902 12.6999 2 12.5009 2C12.302 2 12.1113 2.07902 11.9706 2.21967C11.83 2.36032 11.7509 2.55109 11.7509 2.75V15.9395L8.53195 12.719C8.39112 12.5782 8.20011 12.4991 8.00095 12.4991C7.80178 12.4991 7.61078 12.5782 7.46995 12.719C7.32912 12.8598 7.25 13.0508 7.25 13.25C7.25 13.4492 7.32912 13.6402 7.46995 13.781L11.9699 18.281Z" fill="#008AA7"/>
</g>
<defs>
<clipPath id="clip0_9068_116720">
<rect width="24" height="24" fill="white" transform="translate(0.5 0.5)"/>
</clipPath>
</defs>
</svg>
