<svg width="18" height="18" viewBox="0 0 18 18" fill="none" xmlns="http://www.w3.org/2000/svg">
<path d="M5.28149 7.07292C6.16555 7.07292 7.0134 6.72173 7.63852 6.09661C8.26364 5.47148 8.61483 4.62364 8.61483 3.73958C8.61483 2.85553 8.26364 2.00768 7.63852 1.38256C7.0134 0.757439 6.16555 0.40625 5.28149 0.40625C4.39744 0.40625 3.54959 0.757439 2.92447 1.38256C2.29935 2.00768 1.94816 2.85553 1.94816 3.73958C1.94816 4.62364 2.29935 5.47148 2.92447 6.09661C3.54959 6.72173 4.39744 7.07292 5.28149 7.07292ZM12.7815 7.07292C13.4445 7.07292 14.0804 6.80952 14.5493 6.34068C15.0181 5.87184 15.2815 5.23596 15.2815 4.57292C15.2815 3.90988 15.0181 3.27399 14.5493 2.80515C14.0804 2.33631 13.4445 2.07292 12.7815 2.07292C12.1185 2.07292 11.4826 2.33631 11.0137 2.80515C10.5449 3.27399 10.2815 3.90988 10.2815 4.57292C10.2815 5.23596 10.5449 5.87184 11.0137 6.34068C11.4826 6.80952 12.1185 7.07292 12.7815 7.07292ZM2.15649 8.73958C1.65921 8.73958 1.1823 8.93713 0.830669 9.28876C0.479038 9.64039 0.281494 10.1173 0.281494 10.6146V10.8229C0.281494 10.8229 0.281494 14.5729 5.28149 14.5729C6.43983 14.5729 7.32983 14.3721 8.01316 14.0621C7.85903 13.5522 7.78097 13.0223 7.78149 12.4896C7.78149 11.1087 8.29816 9.84875 9.14816 8.89208C8.91393 8.79118 8.66153 8.73929 8.40649 8.73958H2.15649ZM17.7815 12.4896C17.7815 11.274 17.2986 10.1082 16.4391 9.24868C15.5795 8.38913 14.4137 7.90625 13.1982 7.90625C11.9826 7.90625 10.8168 8.38913 9.95725 9.24868C9.09771 10.1082 8.61483 11.274 8.61483 12.4896C8.61483 13.7052 9.09771 14.8709 9.95725 15.7305C10.8168 16.59 11.9826 17.0729 13.1982 17.0729C14.4137 17.0729 15.5795 16.59 16.4391 15.7305C17.2986 14.8709 17.7815 13.7052 17.7815 12.4896ZM13.6148 12.9062L13.6157 14.9921C13.6157 15.1026 13.5718 15.2086 13.4936 15.2867C13.4155 15.3649 13.3095 15.4087 13.199 15.4087C13.0885 15.4087 12.9825 15.3649 12.9044 15.2867C12.8262 15.2086 12.7823 15.1026 12.7823 14.9921V12.9062H10.6948C10.5843 12.9062 10.4783 12.8624 10.4002 12.7842C10.3221 12.7061 10.2782 12.6001 10.2782 12.4896C10.2782 12.3791 10.3221 12.2731 10.4002 12.195C10.4783 12.1168 10.5843 12.0729 10.6948 12.0729H12.7815V9.98958C12.7815 9.87908 12.8254 9.7731 12.9035 9.69495C12.9817 9.61681 13.0877 9.57292 13.1982 9.57292C13.3087 9.57292 13.4146 9.61681 13.4928 9.69495C13.5709 9.7731 13.6148 9.87908 13.6148 9.98958V12.0729H15.6957C15.8062 12.0729 15.9121 12.1168 15.9903 12.195C16.0684 12.2731 16.1123 12.3791 16.1123 12.4896C16.1123 12.6001 16.0684 12.7061 15.9903 12.7842C15.9121 12.8624 15.8062 12.9062 15.6957 12.9062H13.6148Z" fill="#111111"/>
</svg>
