<svg width="16" height="16" viewBox="0 0 16 16" fill="none" xmlns="http://www.w3.org/2000/svg">
<path d="M6.66683 3.33594H2.00016C1.82335 3.33594 1.65378 3.40618 1.52876 3.5312C1.40373 3.65622 1.3335 3.82579 1.3335 4.0026V12.6693C1.3335 12.8461 1.40373 13.0157 1.52876 13.1407C1.65378 13.2657 1.82335 13.3359 2.00016 13.3359H14.0002C14.177 13.3359 14.3465 13.2657 14.4716 13.1407C14.5966 13.0157 14.6668 12.8461 14.6668 12.6693V11.8359" stroke="white" stroke-linecap="round" stroke-linejoin="round"/>
<path d="M3.3335 7.67188H6.00016M3.3335 10.3385H11.3335" stroke="white" stroke-linecap="round"/>
<path d="M11.3335 7.33594C12.4381 7.33594 13.3335 6.44051 13.3335 5.33594C13.3335 4.23137 12.4381 3.33594 11.3335 3.33594C10.2289 3.33594 9.3335 4.23137 9.3335 5.33594C9.3335 6.44051 10.2289 7.33594 11.3335 7.33594Z" stroke="white" stroke-linecap="round" stroke-linejoin="round"/>
<path d="M14.6671 9.4756C14.0161 8.20327 12.6671 7.33594 11.3337 7.33594C10.0004 7.33594 9.33606 7.7136 8.65039 8.33594" stroke="white" stroke-linecap="round" stroke-linejoin="round"/>
</svg>
