<svg width="25" height="25" viewBox="0 0 25 25" fill="none" xmlns="http://www.w3.org/2000/svg">
<path d="M12.6666 2.6665C10.0466 2.6665 7.91663 4.7965 7.91663 7.4165C7.91663 9.9865 9.92663 12.0665 12.5466 12.1565C12.6266 12.1465 12.7066 12.1465 12.7666 12.1565C12.7866 12.1565 12.7966 12.1565 12.8166 12.1565C12.8266 12.1565 12.8266 12.1565 12.8366 12.1565C15.3966 12.0665 17.4066 9.9865 17.4166 7.4165C17.4166 4.7965 15.2866 2.6665 12.6666 2.6665Z" fill="white"/>
<path d="M17.7466 14.8164C14.9566 12.9564 10.4066 12.9564 7.59659 14.8164C6.32659 15.6664 5.62659 16.8164 5.62659 18.0464C5.62659 19.2764 6.32659 20.4164 7.58659 21.2564C8.98659 22.1964 10.8266 22.6664 12.6666 22.6664C14.5066 22.6664 16.3466 22.1964 17.7466 21.2564C19.0066 20.4064 19.7066 19.2664 19.7066 18.0264C19.6966 16.7964 19.0066 15.6564 17.7466 14.8164Z" fill="white"/>
</svg>
