<svg width="16" height="16" viewBox="0 0 16 16" fill="none" xmlns="http://www.w3.org/2000/svg">
<path d="M13.602 1.5H9.76133C9.64191 1.49991 9.52731 1.5471 9.44258 1.63125L1.76446 9.30938C1.59633 9.47832 1.50195 9.70697 1.50195 9.94531C1.50195 10.1837 1.59633 10.4123 1.76446 10.5813L5.4207 14.2375C5.58965 14.4056 5.8183 14.5 6.05664 14.5C6.29499 14.5 6.52363 14.4056 6.69258 14.2375L14.3676 6.5625C14.4517 6.47777 14.4989 6.36317 14.4988 6.24375V2.4C14.4994 2.28191 14.4766 2.16488 14.4318 2.05563C14.387 1.94638 14.321 1.84707 14.2376 1.76342C14.1543 1.67978 14.0552 1.61344 13.9461 1.56823C13.837 1.52302 13.72 1.49983 13.602 1.5V1.5Z" stroke="#008AA7" stroke-linecap="round" stroke-linejoin="round"/>
<path d="M12 5C11.8022 5 11.6089 4.94135 11.4444 4.83147C11.28 4.72159 11.1518 4.56541 11.0761 4.38268C11.0004 4.19996 10.9806 3.99889 11.0192 3.80491C11.0578 3.61093 11.153 3.43275 11.2929 3.29289C11.4327 3.15304 11.6109 3.0578 11.8049 3.01922C11.9989 2.98063 12.2 3.00043 12.3827 3.07612C12.5654 3.15181 12.7216 3.27998 12.8315 3.44443C12.9414 3.60888 13 3.80222 13 4C13 4.26522 12.8946 4.51957 12.7071 4.70711C12.5196 4.89464 12.2652 5 12 5Z" fill="#008AA7"/>
</svg>
