<svg width="24" height="24" viewBox="0 0 24 24" fill="none" xmlns="http://www.w3.org/2000/svg">
<path d="M23.2657 0.486736C23.196 0.31335 23.0623 0.17348 22.8921 0.0962222C22.722 0.0189648 22.5287 0.0102689 22.3523 0.0719436C22.1759 0.133618 22.0301 0.260915 21.9452 0.427351C21.8603 0.593788 21.8429 0.78655 21.8965 0.965536C23.0113 4.16954 20.7985 6.56234 19.1113 7.84394L18.4297 6.86714C18.2005 6.53954 17.6881 6.26714 17.2897 6.26234L13.4641 6.27914C12.9967 6.29325 12.5419 6.43339 12.1477 6.68474L0.874857 14.5891C0.612651 14.7737 0.43424 15.0545 0.378688 15.3703C0.323135 15.6861 0.394968 16.011 0.578457 16.2739L5.70126 23.6035C6.08526 24.1495 6.69846 24.0835 7.24566 23.7019L18.5185 15.7963C18.8425 15.5671 19.2169 15.0727 19.3489 14.6947L20.5465 10.9207C20.6785 10.5439 20.5981 9.96914 20.3689 9.64154L19.9537 9.04634C22.2193 7.30994 24.5713 4.24154 23.2657 0.486736ZM18.0205 11.7163C17.8128 11.8617 17.5785 11.9647 17.331 12.0195C17.0835 12.0743 16.8276 12.0798 16.578 12.0357C16.3284 11.9915 16.0899 11.8987 15.8762 11.7623C15.6625 11.626 15.4777 11.4489 15.3325 11.2411C15.0384 10.8207 14.9231 10.3008 15.012 9.79549C15.1008 9.29019 15.3866 8.84079 15.8065 8.54594C16.1356 8.31532 16.5286 8.19331 16.9305 8.19696C17.3324 8.20062 17.7231 8.32976 18.0481 8.56634C17.7217 8.76314 17.4973 8.87834 17.4553 8.89634C17.3065 8.96726 17.1863 9.08661 17.1142 9.23483C17.0422 9.38304 17.0226 9.55133 17.0587 9.71212C17.0948 9.87291 17.1845 10.0167 17.313 10.1198C17.4415 10.223 17.6013 10.2794 17.7661 10.2799C17.8693 10.2799 17.9749 10.2559 18.0745 10.2091C18.3073 10.0987 18.5569 9.96794 18.8173 9.81314C18.8772 10.1732 18.8341 10.5429 18.6932 10.8796C18.5522 11.2163 18.319 11.5063 18.0205 11.7163Z" fill="black"/>
</svg>
