<svg width="24" height="24" viewBox="0 0 24 24" fill="none" xmlns="http://www.w3.org/2000/svg">
<path d="M12 0C5.4 0 0 5.4 0 12C0 18.6 5.4 24 12 24C18.6 24 24 18.6 24 12C24 5.4 18.6 0 12 0ZM9.12 18.24C8.856 18.24 8.496 18.144 8.16 18L7.476 19.68L6.108 19.2L6.3 18.732C7.74 15.108 9.396 10.98 15.6 9.6C15.6 9.6 8.4 9.6 6.06 16.26C6.06 16.26 4.8 15 4.8 13.56C4.8 12.12 6.24 9.06 9.84 8.34C10.86 8.136 12 7.98 13.128 7.8C15.96 7.416 18.684 7.032 19.2 6C19.2 6 17.04 18.24 9.12 18.24Z" fill="white"/>
</svg>
