<svg width="24" height="24" viewBox="0 0 24 24" fill="none" xmlns="http://www.w3.org/2000/svg">
<g clip-path="url(#clip0_10567_127597)">
<path d="M7.99996 8.79959H9.59996M14.4 15.1996H16M16 7.99959L7.99996 15.9996M10.8816 1.26359L9.07516 3.06679C8.77911 3.36337 8.37741 3.53027 7.95836 3.53079H5.11356C4.6943 3.53079 4.29222 3.69734 3.99576 3.9938C3.69931 4.29026 3.53276 4.69234 3.53276 5.11159V7.95639C3.53223 8.37545 3.36534 8.77714 3.06876 9.07319L1.26396 10.8828C0.96762 11.1792 0.801147 11.5812 0.801147 12.0004C0.801147 12.4196 0.96762 12.8216 1.26396 13.118L3.07196 14.9244C3.21859 15.0711 3.3349 15.2452 3.41424 15.4368C3.49358 15.6284 3.53439 15.8338 3.53436 16.0412V18.886C3.53436 19.7596 4.24156 20.4668 5.11516 20.4668H7.95996C8.37916 20.4668 8.78076 20.6332 9.07676 20.9308L10.8848 22.7372C11.1812 23.0335 11.5832 23.2 12.0024 23.2C12.4215 23.2 12.8235 23.0335 13.12 22.7372L14.9264 20.9292C15.2227 20.6332 15.6243 20.4669 16.0432 20.4668H18.888C19.3072 20.4668 19.7093 20.3002 20.0058 20.0038C20.3022 19.7073 20.4688 19.3052 20.4688 18.886V16.0412C20.4688 15.622 20.6352 15.2204 20.9328 14.9244L22.7392 13.1164C23.0355 12.82 23.202 12.418 23.202 11.9988C23.202 11.5796 23.0355 11.1776 22.7392 10.8812L20.9312 9.07479C20.6352 8.77848 20.4689 8.37682 20.4688 7.95799V5.11319C20.4688 4.69394 20.3022 4.29186 20.0058 3.9954C19.7093 3.69894 19.3072 3.53239 18.888 3.53239H16.0432C15.6241 3.53187 15.2224 3.36497 14.9264 3.06839L13.1168 1.26359C12.8203 0.967254 12.4183 0.800781 11.9992 0.800781C11.58 0.800781 11.178 0.967254 10.8816 1.26359V1.26359Z" stroke="white" stroke-width="1.5"/>
</g>
<defs>
<clipPath id="clip0_10567_127597">
<rect width="24" height="24" fill="white"/>
</clipPath>
</defs>
</svg>
