<svg width="14" height="16" viewBox="0 0 14 16" fill="none" xmlns="http://www.w3.org/2000/svg">
<path d="M6.73684 1.02221e-08C7.38358 -5.81322e-05 8.0057 0.247917 8.47507 0.692845C8.94444 1.13777 9.2253 1.74576 9.25979 2.39158L9.26316 2.52632H12.9684C13.0964 2.52636 13.2197 2.57499 13.3132 2.66238C13.4067 2.74978 13.4636 2.86942 13.4724 2.99714C13.4811 3.12486 13.441 3.25113 13.3602 3.35043C13.2794 3.44974 13.164 3.51468 13.0371 3.53213L12.9684 3.53684H12.255L11.4331 13.6778C11.3818 14.3105 11.0943 14.9006 10.6277 15.3309C10.1611 15.7612 9.54958 16 8.91486 16H4.55882C3.92411 16 3.31263 15.7612 2.84602 15.3309C2.37942 14.9006 2.09187 14.3105 2.04059 13.6778L1.21802 3.53684H0.505263C0.383166 3.53684 0.265201 3.49262 0.173184 3.41237C0.0811661 3.33212 0.0213209 3.22126 0.00471577 3.1003L0 3.03158C5.1489e-06 2.90948 0.0442226 2.79152 0.124475 2.6995C0.204727 2.60748 0.315585 2.54764 0.436547 2.53103L0.505263 2.52632H4.21053C4.21053 1.8563 4.47669 1.21372 4.95047 0.739941C5.42424 0.266165 6.06682 1.02221e-08 6.73684 1.02221e-08ZM11.2418 3.53684H2.23192L3.04775 13.5963C3.07855 13.9759 3.25111 14.33 3.5311 14.5881C3.81109 14.8462 4.17799 14.9895 4.55882 14.9895H8.91486C9.29569 14.9895 9.66259 14.8462 9.94258 14.5881C10.2226 14.33 10.3951 13.9759 10.4259 13.5963L11.2411 3.53684H11.2418ZM5.22105 6.06316C5.34315 6.06316 5.46111 6.10738 5.55313 6.18763C5.64515 6.26788 5.705 6.37874 5.7216 6.49971L5.72632 6.56842V11.9579C5.72628 12.0859 5.67765 12.2091 5.59025 12.3027C5.50285 12.3962 5.38321 12.4531 5.25549 12.4618C5.12777 12.4706 5.0015 12.4305 4.9022 12.3497C4.80289 12.2689 4.73795 12.1534 4.72051 12.0266L4.71579 11.9579V6.56842C4.71579 6.43442 4.76902 6.3059 4.86378 6.21115C4.95853 6.11639 5.08705 6.06316 5.22105 6.06316ZM8.25263 6.06316C8.37473 6.06316 8.49269 6.10738 8.58471 6.18763C8.67673 6.26788 8.73657 6.37874 8.75318 6.49971L8.7579 6.56842V11.9579C8.75786 12.0859 8.70922 12.2091 8.62183 12.3027C8.53443 12.3962 8.41479 12.4531 8.28707 12.4618C8.15935 12.4706 8.03308 12.4305 7.93378 12.3497C7.83447 12.2689 7.76953 12.1534 7.75208 12.0266L7.74737 11.9579V6.56842C7.74737 6.43442 7.8006 6.3059 7.89536 6.21115C7.99011 6.11639 8.11863 6.06316 8.25263 6.06316ZM6.73684 1.01053C6.35276 1.01048 5.98298 1.15624 5.70223 1.41835C5.42148 1.68047 5.25071 2.03938 5.22442 2.42257L5.22105 2.52632H8.25263L8.24926 2.42257C8.22298 2.03938 8.0522 1.68047 7.77146 1.41835C7.49071 1.15624 7.12093 1.01048 6.73684 1.01053Z" fill="#008AA7"/>
</svg>
