<svg width="15" height="16" viewBox="0 0 15 16" fill="none" xmlns="http://www.w3.org/2000/svg">
<path d="M14.0508 12.2104L11.6753 9.83492L9.84809 9.08003C10.4565 8.21484 10.7824 7.18268 10.7812 6.125C10.7812 3.28183 8.46817 0.96875 5.625 0.96875C2.78183 0.96875 0.46875 3.28183 0.46875 6.125C0.46875 8.96817 2.78183 11.2812 5.625 11.2812C6.69188 11.2825 7.73258 10.9509 8.60212 10.3327L9.35505 12.155L11.7305 14.5306C11.8828 14.683 12.0637 14.8038 12.2627 14.8863C12.4618 14.9687 12.6751 15.0112 12.8906 15.0112C13.106 15.0112 13.3194 14.9687 13.5184 14.8863C13.7175 14.8039 13.8984 14.683 14.0507 14.5307C14.2031 14.3783 14.3239 14.1975 14.4064 13.9984C14.4888 13.7994 14.5313 13.586 14.5313 13.3706C14.5313 13.1551 14.4889 12.9418 14.4064 12.7427C14.324 12.5437 14.2031 12.3628 14.0508 12.2104ZM1.40625 6.125C1.40625 3.79883 3.29883 1.90625 5.625 1.90625C7.95117 1.90625 9.84375 3.79883 9.84375 6.125C9.84375 8.45117 7.95117 10.3438 5.625 10.3438C3.29883 10.3438 1.40625 8.45117 1.40625 6.125ZM13.3878 13.8677C13.2559 13.9994 13.077 14.0733 12.8906 14.0733C12.7042 14.0733 12.5254 13.9994 12.3934 13.8677L10.1501 11.6244L9.45009 9.92999L11.1445 10.63L13.3879 12.8733C13.5195 13.0053 13.5935 13.1841 13.5935 13.3705C13.5934 13.5569 13.5195 13.7357 13.3878 13.8677Z" fill="#6F6F6F"/>
</svg>
