<svg width="24" height="24" viewBox="0 0 24 24" fill="none" xmlns="http://www.w3.org/2000/svg">
<path fill-rule="evenodd" clip-rule="evenodd" d="M16.5158 10.5434C16.6932 9.35586 15.7891 8.71748 14.5527 8.29162L14.9538 6.683L13.9743 6.43897L13.5839 8.0052C13.3268 7.94106 13.0624 7.88054 12.7997 7.82058L13.1929 6.24403L12.2143 6L11.813 7.60807C11.5999 7.55954 11.3907 7.51157 11.1877 7.46109L11.1888 7.45607L9.83843 7.1189L9.57795 8.16473C9.57795 8.16473 10.3044 8.33122 10.2891 8.34154C10.6857 8.44055 10.7576 8.70298 10.7454 8.91103L10.2886 10.7436C10.3159 10.7506 10.3513 10.7606 10.3903 10.7762L10.2872 10.7506L9.64655 13.3177C9.59803 13.4382 9.47504 13.6189 9.19782 13.5503C9.20758 13.5646 8.4861 13.3727 8.4861 13.3727L8 14.4938L9.27452 14.8115C9.41839 14.8475 9.56051 14.8846 9.70108 14.9213C9.79212 14.945 9.88251 14.9686 9.97229 14.9916L9.56707 16.6189L10.5451 16.863L10.9467 15.2532C11.2136 15.3257 11.473 15.3927 11.7268 15.4557L11.3269 17.0579L12.306 17.3019L12.7113 15.678C14.381 15.9939 15.6368 15.8665 16.1647 14.3566C16.5906 13.1406 16.1438 12.4392 15.2653 11.9816C15.9051 11.8335 16.387 11.4127 16.5156 10.5434H16.5158ZM14.2786 13.681C14.0006 14.7971 12.2534 14.3353 11.4547 14.1242L11.4545 14.1242C11.383 14.1053 11.3192 14.0884 11.2646 14.0748L11.8023 11.9193C11.8691 11.936 11.9505 11.9542 12.0429 11.975L12.0429 11.975C12.8692 12.1604 14.5626 12.5404 14.2789 13.681H14.2786ZM12.2088 10.9744C12.8752 11.1522 14.3279 11.5398 14.581 10.526C14.8397 9.4888 13.4271 9.17619 12.7372 9.02352C12.6597 9.00636 12.5912 8.99122 12.5353 8.97729L12.0479 10.9323C12.094 10.9438 12.1481 10.9582 12.2088 10.9744Z" fill="#A5912B"/>
<path d="M22 12C22 17.52 17.52 22 12 22C6.48 22 2 17.52 2 12C2 6.48 6.48 2 12 2" stroke="#55676B" stroke-width="1.5" stroke-linecap="round" stroke-linejoin="round"/>
<path d="M22 6V2H18" stroke="#A5912B" stroke-width="1.5" stroke-linecap="round" stroke-linejoin="round"/>
<path d="M17 7L22 2" stroke="#A5912B" stroke-width="1.5" stroke-linecap="round" stroke-linejoin="round"/>
</svg>
