<svg width="18" height="21" viewBox="0 0 18 21" fill="none" xmlns="http://www.w3.org/2000/svg">
<path fill-rule="evenodd" clip-rule="evenodd" d="M8.7281 20.7652C8.83884 20.8231 8.96266 20.8525 9.08649 20.8515C9.21032 20.8505 9.33314 20.8201 9.44489 20.7613L13.0128 18.854C14.0245 18.3147 14.8168 17.7116 15.435 17.0095C16.779 15.4798 17.5129 13.5274 17.4998 11.5142L17.4575 4.87355C17.4535 4.10867 16.9511 3.42617 16.2082 3.17808L9.57073 0.951127C9.17106 0.815803 8.73313 0.818745 8.3405 0.957991L1.72824 3.26437C0.989299 3.52227 0.495998 4.20968 0.500024 4.97553L0.542307 11.6113C0.555395 13.6274 1.31448 15.571 2.68062 17.085C3.3048 17.7773 4.10415 18.3716 5.12699 18.9021L8.7281 20.7652ZM7.78357 12.9605C7.93257 13.1037 8.12586 13.1743 8.31916 13.1723C8.51245 13.1713 8.70474 13.0988 8.85172 12.9536L12.7508 9.10966C13.0438 8.82038 13.0408 8.35557 12.7448 8.07022C12.4478 7.78486 11.9696 7.78682 11.6766 8.0761L8.30808 11.3964L6.92885 10.0707C6.63186 9.7853 6.15467 9.78824 5.8607 10.0775C5.56774 10.3668 5.57076 10.8316 5.86775 11.117L7.78357 12.9605Z" fill="white"/>
</svg>
