<svg width="19" height="22" viewBox="0 0 19 22" fill="none" xmlns="http://www.w3.org/2000/svg">
<path d="M14.7899 22.0026C14.3699 21.8326 14.0699 21.4526 13.9999 21.0026C13.9499 20.7426 13.9999 20.5626 14.3999 19.8426C15.8999 17.1426 16.6699 14.0926 16.6299 11.0026C16.6699 8.00258 15.9399 5.07258 14.4999 2.44258C14.2899 2.00258 14.0999 1.58258 13.9399 1.13258C13.9999 0.752578 14.1899 0.402578 14.4999 0.192578C14.9499 -0.0474219 15.4999 0.00257802 15.9099 0.282578C16.1899 0.642578 16.4299 1.00258 16.6299 1.42258C17.7059 3.48348 18.4388 5.70593 18.7999 8.00258C19.0299 9.81258 19.0599 11.6526 18.8899 13.4726C18.5799 15.8126 17.8899 18.0726 16.8299 20.1826C16.1899 21.4626 15.8299 22.0026 15.4499 22.0026H14.7899ZM10.4299 19.7926C9.85994 19.6326 9.49994 19.0526 9.61994 18.4726C9.61994 18.3526 9.92994 17.8026 10.2099 17.2426C11.3899 14.9726 11.8999 12.4126 11.6699 9.86258C11.5299 8.03258 10.9999 6.25258 10.1299 4.64258C9.49994 3.38258 9.45994 3.18258 9.82994 2.64258C10.2699 2.15258 10.9999 2.08258 11.5399 2.50258C12.2599 3.56258 12.8299 4.72258 13.2499 5.94258C14.5299 9.73258 14.3299 13.8626 12.6899 17.5026C11.8499 19.3926 11.2599 20.0026 10.4299 19.7426V19.7926ZM5.92993 17.5626C5.75188 17.4827 5.59393 17.364 5.46763 17.2152C5.34132 17.0664 5.24987 16.8913 5.19993 16.7026C5.19993 16.5026 5.19994 16.2426 5.64994 15.4426C6.38301 14.1135 6.76748 12.6204 6.76748 11.1026C6.76748 9.58475 6.38301 8.09165 5.64994 6.76258C4.99994 5.50258 4.99994 5.24258 5.52994 4.76258C5.71994 4.54258 5.99994 4.43258 6.29994 4.47258C6.93994 4.47258 7.29994 4.78258 7.83994 5.91258C8.69019 7.47369 9.13059 9.22497 9.11994 11.0026C9.15993 12.8126 8.71994 14.6126 7.84994 16.2026C7.30994 17.2526 7.03994 17.5026 6.49994 17.5926C6.30994 17.6126 6.10993 17.5926 5.92993 17.5026V17.5626ZM1.71994 15.4326C1.38994 15.2726 1.12994 15.0026 0.999935 14.6526C0.899935 14.3026 0.999935 14.0026 1.39994 13.3626C1.89994 12.6826 2.13994 11.8426 2.08994 11.0026C2.15994 10.1526 1.92994 9.31258 1.43994 8.61258C1.27396 8.36047 1.12689 8.09642 0.999935 7.82258C0.889935 7.19258 1.30994 6.59258 1.99994 6.47258C2.53994 6.37258 2.91994 6.60258 3.41994 7.36258C4.12937 8.44216 4.5074 9.70575 4.5074 10.9976C4.5074 12.2894 4.12937 13.553 3.41994 14.6326C2.90994 15.4026 2.32994 15.6326 1.72994 15.4326H1.71994Z" fill="white"/>
</svg>
