<svg width="16" height="16" viewBox="0 0 16 16" fill="none" xmlns="http://www.w3.org/2000/svg">
<path fill-rule="evenodd" clip-rule="evenodd" d="M10.4774 11.3159H5.66406C5.38806 11.3159 5.16406 11.0919 5.16406 10.8159C5.16406 10.5399 5.38806 10.3159 5.66406 10.3159H10.4774C10.7534 10.3159 10.9774 10.5399 10.9774 10.8159C10.9774 11.0919 10.7534 11.3159 10.4774 11.3159Z" fill="#0A6375"/>
<path fill-rule="evenodd" clip-rule="evenodd" d="M10.4774 8.5249H5.66406C5.38806 8.5249 5.16406 8.3009 5.16406 8.0249C5.16406 7.7489 5.38806 7.5249 5.66406 7.5249H10.4774C10.7534 7.5249 10.9774 7.7489 10.9774 8.0249C10.9774 8.3009 10.7534 8.5249 10.4774 8.5249Z" fill="#0A6375"/>
<path fill-rule="evenodd" clip-rule="evenodd" d="M7.50073 5.74023H5.66406C5.38806 5.74023 5.16406 5.51623 5.16406 5.24023C5.16406 4.96423 5.38806 4.74023 5.66406 4.74023H7.50073C7.77673 4.74023 8.00073 4.96423 8.00073 5.24023C8.00073 5.51623 7.77673 5.74023 7.50073 5.74023Z" fill="#0A6375"/>
<mask id="mask0_4117_821" style="mask-type:alpha" maskUnits="userSpaceOnUse" x="2" y="1" width="13" height="14">
<path fill-rule="evenodd" clip-rule="evenodd" d="M2 1.3335H14.1098V14.6067H2V1.3335Z" fill="white"/>
</mask>
<g mask="url(#mask0_4117_821)">
<path fill-rule="evenodd" clip-rule="evenodd" d="M10.606 2.3335L5.48 2.33616C3.928 2.3455 3 3.3055 3 4.90483V11.0355C3 12.6455 3.93667 13.6068 5.504 13.6068L10.63 13.6048C12.182 13.5955 13.11 12.6342 13.11 11.0355V4.90483C13.11 3.29483 12.174 2.3335 10.606 2.3335ZM5.50467 14.6068C3.40867 14.6068 2 13.1715 2 11.0355V4.90483C2 2.7495 3.36467 1.34883 5.47667 1.33616L10.6053 1.3335H10.606C12.702 1.3335 14.11 2.76883 14.11 4.90483V11.0355C14.11 13.1902 12.7453 14.5915 10.6333 14.6048L5.50467 14.6068Z" fill="#0A6375"/>
</g>
</svg>
