<svg width="18" height="18" viewBox="0 0 18 18" fill="none" xmlns="http://www.w3.org/2000/svg">
<path d="M9.64287 1.07254C9.64287 0.902048 9.57514 0.738535 9.45459 0.617976C9.33403 0.497417 9.17051 0.429688 9.00002 0.429688C8.82952 0.429688 8.66601 0.497417 8.54545 0.617976C8.42489 0.738535 8.35716 0.902048 8.35716 1.07254V2.35483C8.35716 2.52533 8.42489 2.68884 8.54545 2.8094C8.66601 2.92996 8.82952 2.99769 9.00002 2.99769C9.17051 2.99769 9.33403 2.92996 9.45459 2.8094C9.57514 2.68884 9.64287 2.52533 9.64287 2.35483V1.07254ZM14.1429 9.00112C14.1429 9.67649 14.0099 10.3452 13.7514 10.9692C13.4929 11.5932 13.1141 12.1601 12.6366 12.6377C12.159 13.1152 11.5921 13.494 10.9681 13.7525C10.3441 14.0109 9.67539 14.144 9.00002 14.144C8.32465 14.144 7.65589 14.0109 7.03193 13.7525C6.40797 13.494 5.84103 13.1152 5.36347 12.6377C4.88591 12.1601 4.50709 11.5932 4.24864 10.9692C3.99018 10.3452 3.85716 9.67649 3.85716 9.00112C3.85716 7.63715 4.399 6.32904 5.36347 5.36457C6.32794 4.40009 7.63605 3.85826 9.00002 3.85826C10.364 3.85826 11.6721 4.40009 12.6366 5.36457C13.601 6.32904 14.1429 7.63715 14.1429 9.00112ZM12.8572 9.00112C12.8572 7.97814 12.4508 6.99706 11.7274 6.2737C11.0041 5.55035 10.023 5.14397 9.00002 5.14397V12.8583C10.023 12.8583 11.0041 12.4519 11.7274 11.7285C12.4508 11.0052 12.8572 10.0241 12.8572 9.00112ZM17.5714 9.00112C17.5714 9.17161 17.5037 9.33512 17.3832 9.45568C17.2626 9.57624 17.0991 9.64397 16.9286 9.64397H15.6454C15.4749 9.64397 15.3114 9.57624 15.1909 9.45568C15.0703 9.33512 15.0026 9.17161 15.0026 9.00112C15.0026 8.83062 15.0703 8.66711 15.1909 8.54655C15.3114 8.42599 15.4749 8.35826 15.6454 8.35826H16.9277C17.0122 8.35815 17.0959 8.37469 17.174 8.40695C17.2521 8.4392 17.3231 8.48654 17.3829 8.54624C17.4426 8.60595 17.4901 8.67686 17.5224 8.75491C17.5548 8.83296 17.5714 8.91662 17.5714 9.00112ZM9.64287 15.6474C9.64287 15.4769 9.57514 15.3134 9.45459 15.1928C9.33403 15.0723 9.17051 15.0045 9.00002 15.0045C8.82952 15.0045 8.66601 15.0723 8.54545 15.1928C8.42489 15.3134 8.35716 15.4769 8.35716 15.6474V16.9297C8.35716 17.1002 8.42489 17.2637 8.54545 17.3843C8.66601 17.5048 8.82952 17.5725 9.00002 17.5725C9.17051 17.5725 9.33403 17.5048 9.45459 17.3843C9.57514 17.2637 9.64287 17.1002 9.64287 16.9297V15.6474ZM3.00002 9.00112C3.00002 9.17161 2.93229 9.33512 2.81173 9.45568C2.69117 9.57624 2.52766 9.64397 2.35716 9.64397H1.07145C0.90095 9.64397 0.737436 9.57624 0.616877 9.45568C0.496318 9.33512 0.428589 9.17161 0.428589 9.00112C0.428589 8.83062 0.496318 8.66711 0.616877 8.54655C0.737436 8.42599 0.90095 8.35826 1.07145 8.35826H2.35716C2.52766 8.35826 2.69117 8.42599 2.81173 8.54655C2.93229 8.66711 3.00002 8.83062 3.00002 9.00112ZM3.66859 2.76112C3.5474 2.64396 3.38504 2.57908 3.21649 2.58047C3.04793 2.58185 2.88666 2.64938 2.76741 2.76852C2.64817 2.88765 2.58048 3.04886 2.57894 3.21741C2.57739 3.38597 2.64211 3.54839 2.75916 3.66969L3.6163 4.52683C3.73817 4.64038 3.89935 4.7022 4.06589 4.69927C4.23244 4.69633 4.39134 4.62886 4.50912 4.51108C4.6269 4.39329 4.69437 4.23439 4.69731 4.06785C4.70025 3.90131 4.63843 3.74012 4.52487 3.61826L3.66773 2.76112H3.66859ZM2.7583 15.2411C2.87884 15.3615 3.04223 15.4291 3.21259 15.4291C3.38295 15.4291 3.54634 15.3615 3.66687 15.2411L4.52402 14.384C4.58718 14.3251 4.63784 14.2541 4.67297 14.1753C4.70811 14.0964 4.727 14.0113 4.72852 13.925C4.73005 13.8387 4.71417 13.7529 4.68184 13.6729C4.6495 13.5928 4.60138 13.5201 4.54034 13.4591C4.47929 13.398 4.40658 13.3499 4.32653 13.3176C4.24648 13.2852 4.16074 13.2694 4.07443 13.2709C3.98811 13.2724 3.90298 13.2913 3.82413 13.3264C3.74527 13.3616 3.6743 13.4122 3.61545 13.4754L2.7583 14.3325C2.63792 14.4531 2.5703 14.6165 2.5703 14.7868C2.5703 14.9572 2.63792 15.1206 2.7583 15.2411ZM14.3297 2.76112C14.3886 2.69796 14.4596 2.6473 14.5384 2.61216C14.6173 2.57702 14.7024 2.55813 14.7887 2.55661C14.875 2.55509 14.9608 2.57096 15.0408 2.6033C15.1209 2.63563 15.1936 2.68375 15.2546 2.7448C15.3157 2.80584 15.3638 2.87856 15.3961 2.9586C15.4285 3.03865 15.4443 3.12439 15.4428 3.21071C15.4413 3.29702 15.4224 3.38215 15.3873 3.46101C15.3521 3.53986 15.3015 3.61083 15.2383 3.66969L14.3812 4.52683C14.3223 4.58999 14.2513 4.64065 14.1725 4.67579C14.0936 4.71092 14.0085 4.72981 13.9222 4.73134C13.8359 4.73286 13.7501 4.71698 13.6701 4.68465C13.59 4.65232 13.5173 4.60419 13.4563 4.54315C13.3952 4.4821 13.3471 4.40939 13.3148 4.32934C13.2824 4.2493 13.2666 4.16356 13.2681 4.07724C13.2696 3.99092 13.2885 3.9058 13.3236 3.82694C13.3588 3.74808 13.4094 3.67711 13.4726 3.61826L14.3297 2.76112ZM15.2383 15.2411C15.1178 15.3615 14.9544 15.4291 14.784 15.4291C14.6137 15.4291 14.4503 15.3615 14.3297 15.2411L13.482 14.3943C13.4189 14.3354 13.3682 14.2644 13.3331 14.1856C13.2979 14.1067 13.279 14.0216 13.2775 13.9353C13.276 13.849 13.2919 13.7632 13.3242 13.6832C13.3565 13.6031 13.4047 13.5304 13.4657 13.4694C13.5267 13.4083 13.5995 13.3602 13.6795 13.3279C13.7596 13.2955 13.8453 13.2797 13.9316 13.2812C14.0179 13.2827 14.103 13.3016 14.1819 13.3367C14.2608 13.3719 14.3317 13.4225 14.3906 13.4857L15.2392 14.3325C15.3595 14.4531 15.4272 14.6165 15.4272 14.7868C15.4272 14.9572 15.3595 15.1206 15.2392 15.2411H15.2383Z" fill="#008AA7"/>
</svg>
