<svg width="24" height="24" viewBox="0 0 24 24" fill="none" xmlns="http://www.w3.org/2000/svg">
<path d="M15.75 10.3125H20.25C20.5981 10.3125 20.9319 10.1742 21.1781 9.92808C21.4242 9.68194 21.5625 9.3481 21.5625 9V4.5C21.5625 4.1519 21.4242 3.81806 21.1781 3.57192C20.9319 3.32578 20.5981 3.1875 20.25 3.1875H15.75C15.4019 3.1875 15.0681 3.32578 14.8219 3.57192C14.5758 3.81806 14.4375 4.1519 14.4375 4.5V6.1875H13.5C12.7548 6.18997 12.0409 6.48708 11.514 7.01399C10.9871 7.5409 10.69 8.25484 10.6875 9V11.4375H8.0625V10.125C8.0625 9.7769 7.92422 9.44306 7.67808 9.19692C7.43194 8.95078 7.0981 8.8125 6.75 8.8125H3C2.6519 8.8125 2.31806 8.95078 2.07192 9.19692C1.82578 9.44306 1.6875 9.7769 1.6875 10.125V13.875C1.6875 14.2231 1.82578 14.5569 2.07192 14.8031C2.31806 15.0492 2.6519 15.1875 3 15.1875H6.75C7.0981 15.1875 7.43194 15.0492 7.67808 14.8031C7.92422 14.5569 8.0625 14.2231 8.0625 13.875V12.5625H10.6875V15C10.69 15.7452 10.9871 16.4591 11.514 16.986C12.0409 17.5129 12.7548 17.81 13.5 17.8125H14.4375V19.5C14.4375 19.8481 14.5758 20.1819 14.8219 20.4281C15.0681 20.6742 15.4019 20.8125 15.75 20.8125H20.25C20.5981 20.8125 20.9319 20.6742 21.1781 20.4281C21.4242 20.1819 21.5625 19.8481 21.5625 19.5V15C21.5625 14.6519 21.4242 14.3181 21.1781 14.0719C20.9319 13.8258 20.5981 13.6875 20.25 13.6875H15.75C15.4019 13.6875 15.0681 13.8258 14.8219 14.0719C14.5758 14.3181 14.4375 14.6519 14.4375 15V16.6875H13.5C13.0532 16.685 12.6254 16.5065 12.3095 16.1905C11.9935 15.8746 11.815 15.4468 11.8125 15V9C11.815 8.55321 11.9935 8.12541 12.3095 7.80948C12.6254 7.49354 13.0532 7.31496 13.5 7.3125H14.4375V9C14.4375 9.3481 14.5758 9.68194 14.8219 9.92808C15.0681 10.1742 15.4019 10.3125 15.75 10.3125ZM6.9375 13.875C6.9375 13.9247 6.91775 13.9724 6.88258 14.0076C6.84742 14.0427 6.79973 14.0625 6.75 14.0625H3C2.95027 14.0625 2.90258 14.0427 2.86742 14.0076C2.83225 13.9724 2.8125 13.9247 2.8125 13.875V10.125C2.8125 10.0753 2.83225 10.0276 2.86742 9.99242C2.90258 9.95725 2.95027 9.9375 3 9.9375H6.75C6.79973 9.9375 6.84742 9.95725 6.88258 9.99242C6.91775 10.0276 6.9375 10.0753 6.9375 10.125V13.875ZM15.5625 15C15.5625 14.9503 15.5823 14.9026 15.6174 14.8674C15.6526 14.8323 15.7003 14.8125 15.75 14.8125H20.25C20.2997 14.8125 20.3474 14.8323 20.3826 14.8674C20.4177 14.9026 20.4375 14.9503 20.4375 15V19.5C20.4375 19.5497 20.4177 19.5974 20.3826 19.6326C20.3474 19.6677 20.2997 19.6875 20.25 19.6875H15.75C15.7003 19.6875 15.6526 19.6677 15.6174 19.6326C15.5823 19.5974 15.5625 19.5497 15.5625 19.5V15ZM15.5625 4.5C15.5625 4.45027 15.5823 4.40258 15.6174 4.36742C15.6526 4.33225 15.7003 4.3125 15.75 4.3125H20.25C20.2997 4.3125 20.3474 4.33225 20.3826 4.36742C20.4177 4.40258 20.4375 4.45027 20.4375 4.5V9C20.4375 9.04973 20.4177 9.09742 20.3826 9.13258C20.3474 9.16775 20.2997 9.1875 20.25 9.1875H15.75C15.7003 9.1875 15.6526 9.16775 15.6174 9.13258C15.5823 9.09742 15.5625 9.04973 15.5625 9V4.5Z" fill="black"/>
</svg>
