<svg width="24" height="18" viewBox="0 0 24 18" fill="none" xmlns="http://www.w3.org/2000/svg">
<path d="M10.6545 0.8125C8.4405 0.8125 6.906 1.6375 5.832 2.8795C4.791 4.0825 4.218 5.6365 3.795 7.033L3.408 8.3095H0.75C0.551088 8.3095 0.360322 8.38852 0.21967 8.52917C0.0790178 8.66982 0 8.86059 0 9.0595C0 10.6735 0.7455 12.2125 1.9455 13.0045L1.284 14.6125C1.16067 14.9112 1.1129 15.2356 1.1449 15.5571C1.17691 15.8787 1.28771 16.1873 1.46748 16.4558C1.64726 16.7243 1.89047 16.9443 2.17558 17.0963C2.46069 17.2484 2.77889 17.3278 3.102 17.3275H5.295C6.057 17.3275 6.75 16.8865 7.074 16.198L7.779 14.698C9.75 14.971 11.7465 14.971 13.7175 14.698L14.4225 16.198C14.7465 16.888 15.4395 17.3275 16.2015 17.3275H18.3735C18.6966 17.3278 19.0148 17.2484 19.2999 17.0963C19.585 16.9443 19.8282 16.7243 20.008 16.4558C20.1878 16.1873 20.2986 15.8787 20.3306 15.5571C20.3626 15.2356 20.3148 14.9112 20.1915 14.6125L19.4445 12.8035H21.999C23.0115 12.8035 24 12.022 24 10.918V9.8095C24 8.104 22.518 6.8155 20.8185 6.8155H17.706C17.277 5.455 16.647 4.0015 15.594 2.8615C14.457 1.633 12.867 0.814 10.6545 0.814V0.8125ZM19.008 11.305L18.144 8.314H20.8185C21.804 8.314 22.5 9.0415 22.5 9.808V10.9195C22.5 11.0545 22.3305 11.305 21.999 11.305H19.008ZM18.1515 13.603L18.804 15.1855C18.8334 15.2562 18.8449 15.3332 18.8374 15.4094C18.8299 15.4857 18.8037 15.5589 18.7611 15.6226C18.7185 15.6862 18.6608 15.7384 18.5932 15.7744C18.5256 15.8104 18.4501 15.8292 18.3735 15.829H16.2015C16.113 15.829 16.0263 15.8038 15.9516 15.7562C15.8769 15.7086 15.8174 15.6407 15.78 15.5605L15.249 14.431C16.2343 14.2216 17.204 13.945 18.1515 13.603ZM6.2475 14.4325L5.7165 15.5605C5.6792 15.6405 5.61989 15.7082 5.54552 15.7558C5.47115 15.8033 5.38477 15.8287 5.2965 15.829H3.1005C3.02402 15.8288 2.94875 15.8098 2.88133 15.7737C2.81392 15.7376 2.75641 15.6855 2.71388 15.6219C2.67136 15.5583 2.64511 15.4853 2.63746 15.4092C2.6298 15.3331 2.64098 15.2563 2.67 15.1855L3.3225 13.597C4.2825 13.945 5.2605 14.224 6.2475 14.4325ZM2.448 11.485C1.98668 11.0324 1.67921 10.4463 1.569 9.8095H2.955L2.448 11.4835V11.485ZM5.232 7.468C5.6445 6.1 6.1455 4.81 6.966 3.8605C7.7535 2.95 8.871 2.3125 10.656 2.3125C12.4455 2.3125 13.638 2.9545 14.493 3.8785C15.372 4.831 15.93 6.121 16.338 7.4635L17.697 12.172C13.2127 13.8132 8.29234 13.8148 3.807 12.1765L5.232 7.4665V7.468Z" fill="black"/>
</svg>
