<svg width="28" height="26" viewBox="0 0 28 26" fill="none" xmlns="http://www.w3.org/2000/svg">
<path d="M22.7412 4.48309L21.7529 5.47132M8.05882 19.1654V13.5184C8.05882 12.0207 8.65378 10.5843 9.71281 9.52531C10.7718 8.46628 12.2082 7.87132 13.7059 7.87132C15.2036 7.87132 16.6399 8.46628 17.699 9.52531C18.758 10.5843 19.3529 12.0207 19.3529 13.5184V19.1654H8.05882ZM1 13.5184H2.41176H1ZM13.7059 0.8125V2.22426V0.8125ZM25 13.5184H26.4118H25ZM4.67059 4.48309L5.65882 5.47132L4.67059 4.48309Z" stroke="black" stroke-width="1.5" stroke-linecap="round" stroke-linejoin="round"/>
<path d="M20.5294 19.1641H6.41176C5.63207 19.1641 5 19.7961 5 20.5758V23.3994C5 24.1791 5.63207 24.8111 6.41176 24.8111H20.5294C21.3091 24.8111 21.9412 24.1791 21.9412 23.3994V20.5758C21.9412 19.7961 21.3091 19.1641 20.5294 19.1641Z" stroke="black" stroke-width="1.5" stroke-linecap="round" stroke-linejoin="round"/>
</svg>
