<svg width="24" height="25" viewBox="0 0 24 25" fill="none" xmlns="http://www.w3.org/2000/svg">
<path d="M22.5 23H21V19.25C20.9988 18.2558 20.6033 17.3027 19.9003 16.5997C19.1973 15.8967 18.2442 15.5012 17.25 15.5V14C18.6419 14.0016 19.9763 14.5552 20.9606 15.5394C21.9448 16.5237 22.4984 17.8581 22.5 19.25V23ZM16.5 23H15V19.25C14.9988 18.2558 14.6033 17.3027 13.9003 16.5997C13.1973 15.8967 12.2442 15.5012 11.25 15.5H6.75C5.7558 15.5012 4.80267 15.8967 4.09966 16.5997C3.39666 17.3027 3.00119 18.2558 3 19.25V23H1.5V19.25C1.50159 17.8581 2.05522 16.5237 3.03944 15.5394C4.02367 14.5552 5.3581 14.0016 6.75 14H11.25C12.6419 14.0016 13.9763 14.5552 14.9606 15.5394C15.9448 16.5237 16.4984 17.8581 16.5 19.25V23ZM15 2V3.5C15.9946 3.5 16.9484 3.89509 17.6516 4.59835C18.3549 5.30161 18.75 6.25544 18.75 7.25C18.75 8.24456 18.3549 9.19839 17.6516 9.90165C16.9484 10.6049 15.9946 11 15 11V12.5C16.3924 12.5 17.7277 11.9469 18.7123 10.9623C19.6969 9.97774 20.25 8.64239 20.25 7.25C20.25 5.85761 19.6969 4.52226 18.7123 3.53769C17.7277 2.55312 16.3924 2 15 2ZM9 3.5C9.74168 3.5 10.4667 3.71993 11.0834 4.13199C11.7001 4.54404 12.1807 5.12971 12.4645 5.81494C12.7484 6.50016 12.8226 7.25416 12.6779 7.98159C12.5333 8.70902 12.1761 9.3772 11.6517 9.90165C11.1272 10.4261 10.459 10.7833 9.73159 10.9279C9.00416 11.0726 8.25016 10.9984 7.56494 10.7145C6.87971 10.4307 6.29404 9.95007 5.88199 9.33339C5.46993 8.7167 5.25 7.99168 5.25 7.25C5.25 6.25544 5.64509 5.30161 6.34835 4.59835C7.05161 3.89509 8.00544 3.5 9 3.5ZM9 2C7.96165 2 6.94661 2.30791 6.08326 2.88478C5.2199 3.46166 4.54699 4.2816 4.14963 5.24091C3.75227 6.20022 3.6483 7.25582 3.85088 8.27422C4.05345 9.29262 4.55346 10.2281 5.28769 10.9623C6.02191 11.6965 6.95738 12.1966 7.97578 12.3991C8.99418 12.6017 10.0498 12.4977 11.0091 12.1004C11.9684 11.703 12.7883 11.0301 13.3652 10.1667C13.9421 9.30339 14.25 8.28835 14.25 7.25C14.25 5.85761 13.6969 4.52226 12.7123 3.53769C11.7277 2.55312 10.3924 2 9 2Z" fill="black"/>
</svg>
