<svg width="25" height="24" viewBox="0 0 25 24" fill="none" xmlns="http://www.w3.org/2000/svg">
<path d="M16.5139 15.0563C17.0811 14.7516 17.7303 14.5781 18.4217 14.5781H18.4241C18.4944 14.5781 18.5272 14.4938 18.4756 14.4469C17.7566 13.8016 16.9352 13.2804 16.0452 12.9047C16.0358 12.9 16.0264 12.8977 16.017 12.893C17.4725 11.8359 18.4194 10.118 18.4194 8.17969C18.4194 4.96875 15.8225 2.36719 12.6186 2.36719C9.41471 2.36719 6.82018 4.96875 6.82018 8.17969C6.82018 10.118 7.76705 11.8359 9.22486 12.893C9.21549 12.8977 9.20611 12.9 9.19674 12.9047C8.14908 13.3477 7.20924 13.9828 6.40064 14.7938C5.59672 15.5962 4.95669 16.5475 4.51627 17.5945C4.08294 18.6198 3.84908 19.7184 3.82721 20.8312C3.82658 20.8563 3.83097 20.8812 3.84011 20.9044C3.84925 20.9277 3.86297 20.949 3.88044 20.9669C3.89791 20.9848 3.91879 20.999 3.94185 21.0087C3.96491 21.0184 3.98968 21.0234 4.01471 21.0234H5.41861C5.51939 21.0234 5.60377 20.9414 5.60611 20.8406C5.65299 19.0312 6.37721 17.3367 7.65924 16.0523C8.98346 14.7234 10.746 13.9922 12.621 13.9922C13.9499 13.9922 15.2249 14.3602 16.3241 15.0492C16.3523 15.067 16.3847 15.077 16.4181 15.0782C16.4514 15.0794 16.4845 15.0719 16.5139 15.0563ZM12.621 12.2109C11.5475 12.2109 10.5374 11.7914 9.77564 11.0297C9.40087 10.6559 9.10376 10.2116 8.90143 9.72248C8.69909 9.23335 8.59554 8.70901 8.59674 8.17969C8.59674 7.10391 9.01627 6.09141 9.77564 5.32969C10.535 4.56797 11.5452 4.14844 12.621 4.14844C13.6967 4.14844 14.7045 4.56797 15.4663 5.32969C15.841 5.70349 16.1382 6.14776 16.3405 6.63689C16.5428 7.12603 16.6464 7.65036 16.6452 8.17969C16.6452 9.25547 16.2256 10.268 15.4663 11.0297C14.7045 11.7914 13.6944 12.2109 12.621 12.2109ZM21.2413 17.7891H19.2725V15.8203C19.2725 15.7172 19.1881 15.6328 19.085 15.6328H17.7725C17.6694 15.6328 17.585 15.7172 17.585 15.8203V17.7891H15.6163C15.5131 17.7891 15.4288 17.8734 15.4288 17.9766V19.2891C15.4288 19.3922 15.5131 19.4766 15.6163 19.4766H17.585V21.4453C17.585 21.5484 17.6694 21.6328 17.7725 21.6328H19.085C19.1881 21.6328 19.2725 21.5484 19.2725 21.4453V19.4766H21.2413C21.3444 19.4766 21.4288 19.3922 21.4288 19.2891V17.9766C21.4288 17.8734 21.3444 17.7891 21.2413 17.7891Z" fill="black"/>
</svg>
