<svg width="37" height="36" viewBox="0 0 37 36" fill="none" xmlns="http://www.w3.org/2000/svg">
<path d="M16.6274 25.2891V28.3341C16.6274 30.9141 14.2274 32.9991 11.2724 32.9991C8.31737 32.9991 5.90234 30.9141 5.90234 28.3341V25.2891C5.90234 27.8691 8.30237 29.6991 11.2724 29.6991C14.2274 29.6991 16.6274 27.8541 16.6274 25.2891Z" stroke="black" stroke-width="1.5" stroke-linecap="round" stroke-linejoin="round"/>
<path d="M16.6252 21.1656C16.6252 21.9156 16.4152 22.6056 16.0552 23.2056C15.1702 24.6606 13.3552 25.5756 11.2552 25.5756C9.15519 25.5756 7.34017 24.6456 6.45517 23.2056C6.09517 22.6056 5.88525 21.9156 5.88525 21.1656C5.88525 19.8756 6.48522 18.7206 7.44522 17.8806C8.42022 17.0256 9.75517 16.5156 11.2402 16.5156C12.7252 16.5156 14.0602 17.0406 15.0352 17.8806C16.0252 18.7056 16.6252 19.8756 16.6252 21.1656Z" stroke="black" stroke-width="1.5" stroke-linecap="round" stroke-linejoin="round"/>
<path d="M16.6274 21.165V25.29C16.6274 27.87 14.2274 29.7 11.2724 29.7C8.31737 29.7 5.90234 27.855 5.90234 25.29V21.165C5.90234 18.585 8.30237 16.5 11.2724 16.5C12.7574 16.5 14.0924 17.025 15.0674 17.865C16.0274 18.705 16.6274 19.875 16.6274 21.165Z" stroke="black" stroke-width="1.5" stroke-linecap="round" stroke-linejoin="round"/>
<path d="M33.4998 16.4557V19.5458C33.4998 20.3708 32.8398 21.0457 31.9998 21.0757H29.0598C27.4398 21.0757 25.9548 19.8908 25.8198 18.2708C25.7298 17.3258 26.0898 16.4407 26.7198 15.8257C27.2748 15.2557 28.0398 14.9258 28.8798 14.9258H31.9998C32.8398 14.9558 33.4998 15.6307 33.4998 16.4557Z" stroke="black" stroke-width="1.5" stroke-linecap="round" stroke-linejoin="round"/>
<path d="M3.5 15.75V12.75C3.5 8.67 5.96 5.82 9.785 5.34C10.175 5.28 10.58 5.25 11 5.25H24.5C24.89 5.25 25.265 5.26498 25.625 5.32498C29.495 5.77498 32 8.64 32 12.75V14.925H28.88C28.04 14.925 27.275 15.255 26.72 15.825C26.09 16.44 25.73 17.325 25.82 18.27C25.955 19.89 27.44 21.075 29.06 21.075H32V23.25C32 27.75 29 30.75 24.5 30.75H20.75" stroke="black" stroke-width="1.5" stroke-linecap="round" stroke-linejoin="round"/>
</svg>
