<svg width="18" height="18" viewBox="0 0 18 18" fill="none" xmlns="http://www.w3.org/2000/svg">
<path d="M3.6001 0.601562C2.80445 0.601562 2.04139 0.917633 1.47878 1.48024C0.916168 2.04285 0.600098 2.80591 0.600098 3.60156V14.4016C0.600098 15.1972 0.916168 15.9603 1.47878 16.5229C2.04139 17.0855 2.80445 17.4016 3.6001 17.4016H14.4001C15.1957 17.4016 15.9588 17.0855 16.5214 16.5229C17.084 15.9603 17.4001 15.1972 17.4001 14.4016V3.60156C17.4001 2.80591 17.084 2.04285 16.5214 1.48024C15.9588 0.917633 15.1957 0.601562 14.4001 0.601562H3.6001ZM1.8001 3.60156C1.8001 3.12417 1.98974 2.66634 2.32731 2.32877C2.66487 1.9912 3.12271 1.80156 3.6001 1.80156H14.4001C14.8775 1.80156 15.3353 1.9912 15.6729 2.32877C16.0105 2.66634 16.2001 3.12417 16.2001 3.60156V14.4016C16.2001 14.879 16.0105 15.3368 15.6729 15.6744C15.3353 16.0119 14.8775 16.2016 14.4001 16.2016H3.6001C3.12271 16.2016 2.66487 16.0119 2.32731 15.6744C1.98974 15.3368 1.8001 14.879 1.8001 14.4016V3.60156ZM5.4001 4.80156C5.4001 4.64243 5.33688 4.48982 5.22436 4.3773C5.11184 4.26478 4.95923 4.20156 4.8001 4.20156C4.64097 4.20156 4.48836 4.26478 4.37583 4.3773C4.26331 4.48982 4.2001 4.64243 4.2001 4.80156V6.00156C4.2001 6.16069 4.26331 6.3133 4.37583 6.42583C4.48836 6.53835 4.64097 6.60156 4.8001 6.60156C4.95923 6.60156 5.11184 6.53835 5.22436 6.42583C5.33688 6.3133 5.4001 6.16069 5.4001 6.00156V4.80156ZM4.8001 7.80156C4.95923 7.80156 5.11184 7.86478 5.22436 7.9773C5.33688 8.08982 5.4001 8.24243 5.4001 8.40156V9.60156C5.4001 9.76069 5.33688 9.9133 5.22436 10.0258C5.11184 10.1383 4.95923 10.2016 4.8001 10.2016C4.64097 10.2016 4.48836 10.1383 4.37583 10.0258C4.26331 9.9133 4.2001 9.76069 4.2001 9.60156V8.40156C4.2001 8.24243 4.26331 8.08982 4.37583 7.9773C4.48836 7.86478 4.64097 7.80156 4.8001 7.80156ZM5.4001 12.0016C5.4001 11.8424 5.33688 11.6898 5.22436 11.5773C5.11184 11.4648 4.95923 11.4016 4.8001 11.4016C4.64097 11.4016 4.48836 11.4648 4.37583 11.5773C4.26331 11.6898 4.2001 11.8424 4.2001 12.0016V13.2016C4.2001 13.3607 4.26331 13.5133 4.37583 13.6258C4.48836 13.7383 4.64097 13.8016 4.8001 13.8016C4.95923 13.8016 5.11184 13.7383 5.22436 13.6258C5.33688 13.5133 5.4001 13.3607 5.4001 13.2016V12.0016Z" fill="#008AA7"/>
</svg>
