<svg width="24" height="25" viewBox="0 0 24 25" fill="none" xmlns="http://www.w3.org/2000/svg">
<g clip-path="url(#clip0_6527_140461)">
<path d="M17.3598 12.6104C17.3571 11.714 17.261 10.8203 17.0732 9.94375H19.4732C19.3496 9.57813 19.2003 9.22168 19.0265 8.87708H16.7932C16.3733 7.47445 15.7222 6.15181 14.8665 4.96375C14.3198 4.73388 13.7498 4.564 13.1665 4.45708C14.3387 5.71658 15.2236 7.21554 15.7598 8.85042H12.1665V4.34375H11.1665V8.85708H7.57318C8.11056 7.21925 8.99773 5.71788 10.1732 4.45708C9.59236 4.56222 9.02461 4.72986 8.47984 4.95708C7.62081 6.14016 6.96515 7.45825 6.53984 8.85708H4.29318C4.11622 9.20797 3.96472 9.57113 3.83984 9.94375H6.25984C6.07204 10.8203 5.97596 11.714 5.97318 12.6104C5.97502 13.5909 6.08683 14.5682 6.30651 15.5237H3.94651C4.08443 15.8974 4.24931 16.2606 4.43984 16.6104H6.59318C7.00132 17.8876 7.60638 19.0932 8.38651 20.1837C8.94516 20.4234 9.52876 20.6 10.1265 20.7104C9.03846 19.5236 8.20168 18.129 7.66651 16.6104H11.1732V20.8371H12.1732V16.6104H15.6665C15.1295 18.1296 14.2904 19.5243 13.1998 20.7104C13.8004 20.5962 14.3863 20.4151 14.9465 20.1704C15.7254 19.084 16.3304 17.883 16.7398 16.6104H18.8732C19.0628 16.2671 19.2277 15.9106 19.3665 15.5437H16.9998C17.23 14.5827 17.3508 13.5986 17.3598 12.6104ZM11.1665 15.5237H7.33984C6.87049 13.689 6.84991 11.7682 7.27984 9.92375H11.1665V15.5237ZM15.9932 15.5237H12.1665V9.94375H16.0532C16.2447 10.8196 16.3386 11.7139 16.3332 12.6104C16.3386 13.5917 16.2244 14.5701 15.9932 15.5237Z" fill="black"/>
<path d="M11.6266 1.46094C9.51696 1.46094 7.45467 2.08653 5.70055 3.25859C3.94643 4.43066 2.57925 6.09657 1.77192 8.04565C0.964583 9.99473 0.753347 12.1394 1.16492 14.2086C1.5765 16.2777 2.5924 18.1783 4.08416 19.6701C5.57592 21.1618 7.47654 22.1777 9.54567 22.5893C11.6148 23.0009 13.7595 22.7897 15.7086 21.9823C17.6577 21.175 19.3236 19.8078 20.4956 18.0537C21.6677 16.2996 22.2933 14.2373 22.2933 12.1276C22.2933 9.29863 21.1695 6.58552 19.1691 4.58513C17.1687 2.58474 14.4556 1.46094 11.6266 1.46094ZM11.6266 21.4609C9.78067 21.4609 7.97617 20.9135 6.44131 19.888C4.90645 18.8624 3.71017 17.4048 3.00376 15.6993C2.29734 13.9939 2.11251 12.1173 2.47264 10.3068C2.83277 8.49627 3.72168 6.83323 5.02697 5.52794C6.33226 4.22265 7.9953 3.33374 9.80579 2.97361C11.6163 2.61348 13.4929 2.79831 15.1983 3.50473C16.9038 4.21115 18.3615 5.40742 19.387 6.94228C20.4126 8.47714 20.96 10.2816 20.96 12.1276C20.96 14.603 19.9766 16.9769 18.2263 18.7273C16.476 20.4776 14.102 21.4609 11.6266 21.4609Z" fill="black"/>
</g>
<defs>
<clipPath id="clip0_6527_140461">
<rect width="24" height="24" fill="white" transform="translate(0 0.5)"/>
</clipPath>
</defs>
</svg>
