<svg width="24" height="24" viewBox="0 0 24 24" fill="none" xmlns="http://www.w3.org/2000/svg">
<path d="M7.72 16.4554L9.481 15.9474L20.084 5.21736C20.1676 5.13165 20.2142 5.01649 20.2136 4.89674C20.2131 4.777 20.1654 4.66227 20.081 4.57736L19.446 3.93536C19.405 3.89319 19.3559 3.85963 19.3018 3.83662C19.2477 3.8136 19.1895 3.80161 19.1306 3.80133C19.0718 3.80105 19.0135 3.81249 18.9591 3.83499C18.9048 3.85749 18.8554 3.89059 18.814 3.93236L8.239 14.6344L7.719 16.4544L7.72 16.4554ZM20.703 2.66336L21.338 3.30636C22.214 4.19336 22.222 5.62436 21.354 6.50236L10.428 17.5604L6.664 18.6444C6.4342 18.7087 6.18826 18.6792 5.98016 18.5624C5.77206 18.4456 5.6188 18.251 5.554 18.0214C5.50578 17.8562 5.50509 17.6809 5.552 17.5154L6.647 13.6754L17.544 2.64636C17.7512 2.43772 17.9979 2.27242 18.2696 2.16011C18.5414 2.0478 18.8328 1.99073 19.1269 1.99222C19.4209 1.99371 19.7117 2.05373 19.9823 2.16878C20.2529 2.28384 20.4979 2.45163 20.703 2.66236V2.66336ZM9.184 3.81636C9.68 3.81636 10.082 4.22336 10.082 4.72536C10.0828 4.84403 10.0602 4.96169 10.0155 5.07161C9.97076 5.18154 9.90481 5.28157 9.82141 5.36599C9.73801 5.45041 9.63879 5.51757 9.52942 5.56362C9.42004 5.60967 9.30267 5.6337 9.184 5.63436H5.592C4.6 5.63436 3.796 6.44836 3.796 7.45136V18.3574C3.796 19.3614 4.6 20.1754 5.592 20.1754H16.368C17.36 20.1754 18.165 19.3614 18.165 18.3574V14.7224C18.165 14.2204 18.567 13.8134 19.063 13.8134C19.559 13.8134 19.961 14.2204 19.961 14.7234V18.3574C19.961 20.3654 18.352 21.9934 16.368 21.9934H5.592C3.608 21.9934 2 20.3654 2 18.3574V7.45136C2 5.44436 3.608 3.81636 5.592 3.81636H9.184Z" fill="#111111"/>
</svg>
