<svg width="24" height="23" viewBox="0 0 24 23" fill="none" xmlns="http://www.w3.org/2000/svg">
<path d="M22.6111 10.1511C22.8692 9.95887 23.0606 9.69064 23.1586 9.38407C23.2565 9.0775 23.2561 8.74795 23.1573 8.44164C23.0585 8.13533 22.8664 7.86762 22.6077 7.67604C22.3491 7.48446 22.0371 7.37862 21.7152 7.37337L15.4652 7.13726C15.4345 7.13514 15.4051 7.12417 15.3804 7.10569C15.3558 7.08721 15.337 7.062 15.3264 7.03309L13.1666 1.19976C13.0581 0.90298 12.861 0.646715 12.6021 0.465658C12.3431 0.284602 12.0347 0.1875 11.7187 0.1875C11.4027 0.1875 11.0944 0.284602 10.8354 0.465658C10.5764 0.646715 10.3793 0.90298 10.2708 1.19976L8.11803 7.05392C8.10739 7.08283 8.08861 7.10804 8.06397 7.12653C8.03933 7.14501 8.00987 7.15597 7.97914 7.15809L1.72914 7.3942C1.40734 7.39946 1.09525 7.5053 0.836633 7.69687C0.578018 7.88845 0.385846 8.15617 0.287061 8.46247C0.188276 8.76878 0.187833 9.09833 0.285794 9.4049C0.383754 9.71148 0.575206 9.97971 0.833304 10.172L5.73608 14.0261C5.76062 14.0455 5.77896 14.0715 5.78883 14.1012C5.79871 14.1308 5.79968 14.1626 5.79164 14.1928L4.10414 20.172C4.01669 20.4765 4.02516 20.8005 4.1284 21.1C4.23164 21.3995 4.42463 21.6599 4.68112 21.8458C4.9376 22.0317 5.24514 22.1341 5.56188 22.139C5.87863 22.144 6.1892 22.0512 6.45136 21.8734L11.6319 18.4011C11.6574 18.3835 11.6877 18.3741 11.7187 18.3741C11.7497 18.3741 11.78 18.3835 11.8055 18.4011L16.9861 21.8734C17.2447 22.0573 17.5542 22.1561 17.8715 22.1561C18.1888 22.1561 18.4983 22.0573 18.7569 21.8734C19.0135 21.6892 19.2066 21.4301 19.3099 21.1316C19.4131 20.8331 19.4213 20.51 19.3333 20.2067L17.6319 14.2067C17.6229 14.1766 17.6234 14.1444 17.6333 14.1146C17.6433 14.0848 17.6622 14.0587 17.6875 14.04L22.6111 10.1511Z" fill="#FFDA44"/>
</svg>
